<svg id="Layer_1" data-name="Layer 1" xmlns="http://www.w3.org/2000/svg" viewBox="0 0 267.47 54.04"><defs><style>.cls-1{fill:#d9272e;}.cls-2{fill:#6d6e71;}</style></defs><title>logo</title><path class="cls-1" d="M17.6,12.16a5.71,5.71,0,0,0-2.27.44V24.75a6.68,6.68,0,0,0,1.69.19c4,0,6-2.45,6-6.46,0-4.24-1.3-6.32-5.45-6.32m5.7,29.22L15.43,26.72H15.33V41.38H7.62V9.65a23.72,23.72,0,0,1,10-1.92c9,0,13.12,4.05,13.12,10.36a8.71,8.71,0,0,1-7.67,8.44v0.1l8.82,14.75H23.3Z" transform="translate(-7.62 -7.73)"/><rect class="cls-1" x="27.82" y="0.48" width="7.81" height="33.17"/><path class="cls-1" d="M60.95,41.86c-9,0-13.07-8.1-13.07-17.06S52.08,7.73,61,7.73a11.85,11.85,0,0,1,7.18,1.92l-1.58,4.72a7,7,0,0,0-3.91-1c-5.1,0-6.75,5.69-6.75,11.38s1.88,11.13,6.7,11.13a6.51,6.51,0,0,0,3.81-1l1.79,5c-1.69,1.3-4.11,2-7.28,2" transform="translate(-7.62 -7.73)"/><path class="cls-1" d="M82.31,12.88c-4.2,0-5,6-5,11.62s0.77,11.63,5,11.63,5-5.93,5-11.63-0.87-11.62-5-11.62m0,29c-9.26,0-13-7.66-13-17.06S73,7.73,82.31,7.73s13,7.71,13,17.07-3.71,17.06-13,17.06" transform="translate(-7.62 -7.73)"/><polygon class="cls-1" points="108.43 33.65 108.43 19.28 100.04 19.28 100.04 33.65 92.19 33.65 92.19 0.48 100.04 0.48 100.04 14.16 108.43 14.16 108.43 0.48 116.3 0.48 116.3 33.65 108.43 33.65"/><path class="cls-1" d="M152.29,19.2a26.76,26.76,0,0,1-.78-4h-0.09a27.73,27.73,0,0,1-.86,4L147.47,30h7.77Zm6,22.37-2-7.09h-10l-2.12,7.09h-7L148,8.39h7.62l10.75,33.17h-8Z" transform="translate(-7.62 -7.73)"/><path class="cls-1" d="M179,12.35a5.55,5.55,0,0,0-2.26.44V24.94a6.65,6.65,0,0,0,1.68.19c4.05,0,6-2.46,6-6.46,0-4.24-1.31-6.32-5.46-6.32m5.69,29.22-7.86-14.66h-0.09V41.57H169V9.84a23.59,23.59,0,0,1,10-1.93c9,0,13.13,4,13.13,10.37a8.7,8.7,0,0,1-7.67,8.44v0.09l8.82,14.76h-8.59Z" transform="translate(-7.62 -7.73)"/><polygon class="cls-1" points="189.12 33.84 189.12 0.67 206.09 0.67 206.09 5.92 196.98 5.92 196.98 14.36 204.94 14.36 204.94 19.47 196.98 19.47 196.98 28.58 206.09 28.58 206.09 33.84 189.12 33.84"/><path class="cls-1" d="M237.39,41.57L226.35,23a34,34,0,0,1-1.74-3.47h-0.09s0.19,1.78.19,3.62V41.57h-6.55V8.39H225l10.17,17a34.92,34.92,0,0,1,1.69,3.18H237a32,32,0,0,1-.19-3.33V8.39h6.6V41.57h-6Z" transform="translate(-7.62 -7.73)"/><path class="cls-1" d="M261,19.17a25.45,25.45,0,0,1-.77-4h-0.09a29.34,29.34,0,0,1-.87,4L256.19,30H264Zm6,22.37-2-7.09H255l-2.12,7.09h-7l10.8-33.17h7.62l10.76,33.17H267Z" transform="translate(-7.62 -7.73)"/><path class="cls-2" d="M19.2,55.89a6.2,6.2,0,0,1-1.41,4.36,5.21,5.21,0,0,1-4,1.52,5.21,5.21,0,0,1-4-1.52,6.22,6.22,0,0,1-1.41-4.37,6.14,6.14,0,0,1,1.41-4.36,5.27,5.27,0,0,1,4-1.5,5.2,5.2,0,0,1,4,1.52A6.21,6.21,0,0,1,19.2,55.89Zm-8.34,0a4.77,4.77,0,0,0,.73,2.88,2.54,2.54,0,0,0,2.17,1q2.9,0,2.9-3.85T13.78,52a2.56,2.56,0,0,0-2.18,1A4.75,4.75,0,0,0,10.86,55.89Z" transform="translate(-7.62 -7.73)"/><path class="cls-2" d="M24.11,61.61H21.73V50.19h6.55v2H24.11v2.95H28v2H24.11v4.52Z" transform="translate(-7.62 -7.73)"/><path class="cls-2" d="M33.05,61.61H30.67V50.19h6.55v2H33.05v2.95h3.88v2H33.05v4.52Z" transform="translate(-7.62 -7.73)"/><path class="cls-2" d="M39.61,61.61V50.19H42V61.61H39.61Z" transform="translate(-7.62 -7.73)"/><path class="cls-2" d="M49.92,52a2.47,2.47,0,0,0-2.12,1,4.78,4.78,0,0,0-.75,2.86q0,3.82,2.87,3.82a9.06,9.06,0,0,0,2.91-.6v2a8.09,8.09,0,0,1-3.14.59,4.79,4.79,0,0,1-3.81-1.51,6.4,6.4,0,0,1-1.32-4.34,7.08,7.08,0,0,1,.65-3.12,4.68,4.68,0,0,1,1.86-2.05A5.51,5.51,0,0,1,49.92,50a7.69,7.69,0,0,1,3.34.8l-0.78,2a13,13,0,0,0-1.29-.53A3.84,3.84,0,0,0,49.92,52Z" transform="translate(-7.62 -7.73)"/><path class="cls-2" d="M55.42,61.61V50.19h2.42V61.61H55.42Z" transform="translate(-7.62 -7.73)"/><path class="cls-2" d="M67.87,61.61L67,58.89H62.88l-0.83,2.72H59.44l4-11.47h3l4,11.47H67.87Zm-1.41-4.75q-1.15-3.7-1.29-4.18T65,51.92q-0.26,1-1.48,4.95h3Z" transform="translate(-7.62 -7.73)"/><path class="cls-2" d="M72.08,61.61V50.19H74.5v9.42h4.63v2H72.08Z" transform="translate(-7.62 -7.73)"/><path class="cls-2" d="M93.48,53.75a3.49,3.49,0,0,1-1.15,2.82,4.93,4.93,0,0,1-3.28,1H88v4.06H85.59V50.19h3.65a4.85,4.85,0,0,1,3.16.89A3.26,3.26,0,0,1,93.48,53.75ZM88,55.57h0.8a2.66,2.66,0,0,0,1.67-.44A1.54,1.54,0,0,0,91,53.84a1.59,1.59,0,0,0-.46-1.26,2.18,2.18,0,0,0-1.46-.41H88v3.39Z" transform="translate(-7.62 -7.73)"/><path class="cls-2" d="M102.79,61.61L102,58.89H97.8L97,61.61H94.36l4-11.47h3l4,11.47h-2.61Zm-1.41-4.75q-1.15-3.7-1.29-4.18t-0.21-.77q-0.26,1-1.48,4.95h3Z" transform="translate(-7.62 -7.73)"/><path class="cls-2" d="M109.42,57.23v4.38H107V50.19h3.33a5.7,5.7,0,0,1,3.45.85,3.38,3.38,0,0,1,.56,4.37,3.67,3.67,0,0,1-1.57,1.23q2.58,3.85,3.36,5h-2.69l-2.73-4.38h-1.29Zm0-2h0.78a3,3,0,0,0,1.7-.38,1.37,1.37,0,0,0,.55-1.2,1.25,1.25,0,0,0-.56-1.16,3.39,3.39,0,0,0-1.73-.34h-0.73v3.09Z" transform="translate(-7.62 -7.73)"/><path class="cls-2" d="M126.91,61.61h-2.75l-3-4.81-1,.73v4.08h-2.42V50.19h2.42v5.23l1-1.34,3.09-3.88h2.69l-4,5.05Z" transform="translate(-7.62 -7.73)"/><path class="cls-2" d="M128.51,61.61V50.19h2.42V61.61h-2.42Z" transform="translate(-7.62 -7.73)"/><path class="cls-2" d="M144.1,61.61H141L136,53H136q0.15,2.29.15,3.27v5.38H134V50.19H137l5,8.55H142q-0.12-2.23-.12-3.15V50.19h2.18V61.61Z" transform="translate(-7.62 -7.73)"/><path class="cls-2" d="M151.47,55.2H156v5.92a12.84,12.84,0,0,1-2.07.5,13.47,13.47,0,0,1-2,.14A5,5,0,0,1,148,60.25a6.32,6.32,0,0,1-1.36-4.36,5.75,5.75,0,0,1,1.58-4.31A6,6,0,0,1,152.59,50a8.49,8.49,0,0,1,3.39.7l-0.8,1.94a5.74,5.74,0,0,0-2.6-.62,3.21,3.21,0,0,0-2.52,1.05,4.09,4.09,0,0,0-.95,2.84,4.55,4.55,0,0,0,.76,2.84,2.64,2.64,0,0,0,2.21,1,7.81,7.81,0,0,0,1.54-.16V57.21h-2.16v-2Z" transform="translate(-7.62 -7.73)"/></svg>