<?xml version="1.0" encoding="UTF-8" standalone="no"?>
<!-- Created with Inkscape (http://www.inkscape.org/) -->

<svg
   xmlns:dc="http://purl.org/dc/elements/1.1/"
   xmlns:cc="http://creativecommons.org/ns#"
   xmlns:rdf="http://www.w3.org/1999/02/22-rdf-syntax-ns#"
   xmlns:svg="http://www.w3.org/2000/svg"
   xmlns="http://www.w3.org/2000/svg"
   xmlns:sodipodi="http://sodipodi.sourceforge.net/DTD/sodipodi-0.dtd"
   xmlns:inkscape="http://www.inkscape.org/namespaces/inkscape"
   version="1.1"
   width="500"
   height="500"
   viewBox="0 0 500 500"
   id="svg3784"
   inkscape:version="0.91 r13725"
   sodipodi:docname="Bath_Rugby_logo.svg">
  <metadata
     id="metadata81">
    <rdf:RDF>
      <cc:Work
         rdf:about="">
        <dc:format>image/svg+xml</dc:format>
        <dc:type
           rdf:resource="http://purl.org/dc/dcmitype/StillImage" />
        <dc:title></dc:title>
      </cc:Work>
    </rdf:RDF>
  </metadata>
  <sodipodi:namedview
     pagecolor="#ffffff"
     bordercolor="#666666"
     borderopacity="1"
     objecttolerance="10"
     gridtolerance="10"
     guidetolerance="10"
     inkscape:pageopacity="0"
     inkscape:pageshadow="2"
     inkscape:window-width="1920"
     inkscape:window-height="1014"
     id="namedview79"
     showgrid="false"
     inkscape:zoom="0.77933795"
     inkscape:cx="56.315143"
     inkscape:cy="-80.994627"
     inkscape:window-x="0"
     inkscape:window-y="27"
     inkscape:window-maximized="1"
     inkscape:current-layer="svg3784" />
  <defs
     id="defs3786" />
  <g
     transform="matrix(1.1730102,0,0,1.1730102,-202.4468,-434.79251)"
     id="layer1">
    <g
       transform="matrix(6.037332,0,0,-6.037332,493.33576,531.6433)"
       id="g38">
      <path
         d="m 0,0 c -0.971,2 -2.267,3.812 -3.822,5.367 -3.584,3.585 -8.534,5.8 -14.005,5.801 -5.469,-10e-4 -10.419,-2.216 -14.004,-5.801 -3.585,-3.586 -5.801,-8.535 -5.801,-14.004 0,-3.072 0.699,-5.98 1.946,-8.573 0.975,-2.026 2.283,-3.86 3.855,-5.431 3.585,-3.587 8.535,-5.802 14.004,-5.802 5.471,0 10.421,2.215 14.005,5.802 3.585,3.584 5.801,8.533 5.802,14.004 C 1.98,-5.54 1.268,-2.61 0,0"
         id="path40"
         style="fill:#ffffff;fill-opacity:1;fill-rule:nonzero;stroke:none"
         inkscape:connector-curvature="0" />
    </g>
    <g
       transform="matrix(6.037332,0,0,-6.037332,385.71127,707.57659)"
       id="g42">
      <path
         d="m 0,0 c -11.323,0.002 -20.503,9.181 -20.504,20.504 0.001,11.322 9.181,20.503 20.504,20.503 11.323,0 20.504,-9.181 20.504,-20.503 C 20.504,9.181 11.323,0.002 0,0 M 23.975,44.479 C 17.836,50.615 9.366,54.409 0,54.409 c -9.364,0 -17.837,-3.794 -23.974,-9.93 -6.138,-6.139 -9.932,-14.611 -9.932,-23.975 0,-9.366 3.794,-17.838 9.932,-23.977 6.137,-6.135 14.61,-9.931 23.974,-9.931 9.366,0 17.836,3.796 23.975,9.931 6.136,6.139 9.931,14.611 9.931,23.977 0,9.364 -3.795,17.836 -9.931,23.975"
         id="path44"
         style="fill:#2350a9;fill-opacity:1;fill-rule:nonzero;stroke:none"
         inkscape:connector-curvature="0" />
    </g>
    <g
       transform="matrix(6.037332,0,0,-6.037332,385.71127,703.36434)"
       id="g46">
      <path
         d="m 0,0 c -5.47,0 -10.419,2.216 -14.004,5.802 -1.573,1.571 -2.881,3.405 -3.855,5.431 -1.247,2.593 -1.946,5.501 -1.946,8.573 0,5.469 2.215,10.419 5.801,14.004 3.585,3.585 8.534,5.801 14.004,5.801 5.47,0 10.42,-2.216 14.005,-5.801 1.555,-1.555 2.851,-3.367 3.822,-5.367 1.268,-2.61 1.98,-5.539 1.98,-8.637 C 19.805,14.336 17.59,9.387 14.005,5.802 10.42,2.216 5.47,0 0,0 m 0,40.309 c -11.323,0 -20.503,-9.18 -20.504,-20.503 C -20.503,8.483 -11.323,-0.696 0,-0.698 11.323,-0.696 20.504,8.483 20.504,19.806 20.504,31.129 11.323,40.309 0,40.309"
         id="path48"
         style="fill:#fab80a;fill-opacity:1;fill-rule:nonzero;stroke:none"
         inkscape:connector-curvature="0" />
    </g>
    <g
       transform="matrix(6.037332,0,0,-6.037332,385.71127,788.50159)"
       id="g50">
      <path
         d="m 0,0 c -9.364,0 -17.837,3.796 -23.974,9.932 -6.138,6.138 -9.932,14.61 -9.932,23.976 0,9.364 3.794,17.836 9.932,23.975 6.137,6.136 14.61,9.931 23.974,9.931 9.366,0 17.836,-3.795 23.975,-9.931 6.136,-6.139 9.931,-14.611 9.931,-23.975 0,-9.366 -3.795,-17.838 -9.931,-23.976 C 17.836,3.796 9.366,0 0,0 M 0,69.209 C -19.496,69.208 -35.3,53.404 -35.301,33.908 -35.3,14.411 -19.496,-1.394 0,-1.394 c 19.496,0 35.301,15.805 35.302,35.302 C 35.301,53.404 19.496,69.208 0,69.209"
         id="path52"
         style="fill:#fab80a;fill-opacity:1;fill-rule:nonzero;stroke:none"
         inkscape:connector-curvature="0" />
    </g>
    <g
       transform="matrix(6.037332,0,0,-6.037332,221.20175,563.55724)"
       id="g54">
      <path
         d="M 0,0 -1.744,-3.357 0,-6.801 1.745,-3.357 0,0 Z"
         id="path56"
         style="fill:#fab80a;fill-opacity:1;fill-rule:nonzero;stroke:none"
         inkscape:connector-curvature="0" />
    </g>
    <g
       transform="matrix(6.037332,0,0,-6.037332,549.42734,563.67134)"
       id="g58">
      <path
         d="M 0,0 -1.743,-3.356 0,-6.801 1.745,-3.356 0,0 Z"
         id="path60"
         style="fill:#fab80a;fill-opacity:1;fill-rule:nonzero;stroke:none"
         inkscape:connector-curvature="0" />
    </g>
    <g
       transform="matrix(6.037332,0,0,-6.037332,278.85652,481.26055)"
       id="g62">
      <path
         d="M 0,0 C 0.91,-0.874 1.596,-1.302 2.485,-0.358 3.328,0.538 3.107,1.649 2.161,2.556 1.145,3.532 -0.138,3.609 -1.232,2.447 -1.857,1.78 -1.846,1.769 -1.378,1.321 L 0,0 Z m -2.698,2.587 c 0.303,-0.291 0.338,-0.301 0.931,0.328 0.98,1.043 0.701,2.045 10e-4,2.718 -1.016,0.974 -2.203,0.861 -2.988,0.025 -0.536,-0.569 -0.453,-0.67 0.06,-1.163 L -2.698,2.587 Z M -5.339,1.946 C -6.517,3.077 -6.811,3.273 -7.316,2.805 L -7.649,2.513 C -7.81,2.46 -8.182,2.772 -8.023,2.965 c 0.957,1.165 1.646,2.046 2.686,3.16 1.049,1.125 1.837,1.753 2.823,1.986 0.803,0.19 1.647,0.029 2.336,-0.633 C 0.803,6.539 0.379,5.308 0.119,4.843 0.029,4.7 -0.039,4.533 0.02,4.478 0.055,4.445 0.146,4.472 0.272,4.559 1.371,5.324 2.741,5.553 3.885,4.478 4.971,3.46 5.043,1.978 4.581,0.969 4.204,0.143 3.403,-0.688 2.54,-1.511 2.106,-1.922 1.65,-2.361 1.32,-2.712 0.762,-3.305 0.237,-3.937 -0.219,-4.603 c -0.088,-0.128 -0.511,0.217 -0.46,0.342 l 0.25,0.458 c 0.361,0.676 0.235,0.802 -0.816,1.81 l -4.094,3.939 z"
         id="path64"
         style="fill:#ffffff;fill-opacity:1;fill-rule:nonzero;stroke:none"
         inkscape:connector-curvature="0" />
    </g>
    <g
       transform="matrix(6.037332,0,0,-6.037332,343.02008,430.4389)"
       id="g66">
      <path
         d="M 0,0 C 0.359,0.099 0.443,0.192 0.181,0.563 L -0.637,1.722 C -1.05,2.342 -1.522,2.99 -1.744,3.326 -1.749,2.9 -1.815,2.098 -1.853,1.289 L -1.921,-0.08 C -1.962,-0.562 -1.858,-0.6 -1.458,-0.457 -1.066,-0.315 -0.399,-0.111 0,0 m -1.55,-1.409 c -0.341,-0.129 -0.424,-0.144 -0.435,-0.477 l -0.084,-1.987 c -0.008,-0.35 0.017,-0.426 0.049,-0.555 0.049,-0.196 0.183,-0.321 0.525,-0.252 l 0.612,0.167 c 0.155,-0.029 0.295,-0.503 0.12,-0.569 -0.635,-0.244 -1.209,-0.494 -1.841,-0.804 -0.502,-0.246 -0.886,-0.462 -1.397,-0.756 -0.169,-0.096 -0.358,0.286 -0.286,0.467 l 0.299,0.211 c 0.349,0.228 0.697,0.546 0.801,1.287 0.12,0.84 0.161,1.978 0.235,3.261 L -2.68,2.84 c 0.062,1.175 -0.124,1.716 -0.286,2.072 0.714,0.403 1.48,1.517 1.512,1.525 C -1.247,6.5 -1.13,6.449 -0.999,6.229 -0.743,5.805 -0.383,5.272 0.339,4.26 L 4.297,-1.334 C 4.905,-2.19 5.291,-2.851 5.987,-2.996 6.268,-3.055 6.417,-3.051 6.614,-3.047 6.749,-3.1 6.792,-3.631 6.624,-3.637 5.832,-3.662 4.894,-3.714 4.113,-3.827 3.289,-3.945 2.721,-4.055 1.95,-4.236 1.745,-4.176 1.723,-3.751 1.806,-3.675 l 0.45,0.129 c 0.36,0.121 0.385,0.263 0.332,0.405 -0.039,0.11 -0.241,0.496 -0.601,1.029 l -0.825,1.24 C 1.009,-0.641 0.922,-0.642 0.318,-0.814 -0.264,-0.98 -1.148,-1.26 -1.55,-1.409"
         id="path68"
         style="fill:#ffffff;fill-opacity:1;fill-rule:nonzero;stroke:none"
         inkscape:connector-curvature="0" />
    </g>
    <g
       transform="matrix(6.037332,0,0,-6.037332,410.22524,395.82929)"
       id="g70">
      <path
         d="m 0,0 c 0.063,0.393 0.076,0.475 -0.318,0.522 0,0 -0.411,0.069 -0.917,0.096 -1.169,0.066 -1.71,-0.44 -2.403,-1.574 -0.213,-0.074 -0.518,-0.003 -0.58,0.221 0.534,1.087 0.788,2.09 1.012,2.714 0.073,0.041 0.16,0.064 0.242,0.055 C -2.883,2.024 -2.803,1.996 -2.747,1.94 -2.712,1.653 -2.395,1.495 -1.43,1.43 -0.619,1.373 0.433,1.248 1.556,1.052 2.718,0.851 3.47,0.681 4.587,0.391 5.642,0.158 5.885,0.121 6.088,0.434 6.158,0.452 6.21,0.46 6.305,0.438 6.401,0.417 6.501,0.326 6.526,0.27 6.269,-0.254 5.928,-1.562 5.799,-2.506 5.694,-2.637 5.256,-2.574 5.199,-2.425 5.108,-1.312 5.01,-0.513 3.803,-0.198 3.311,-0.069 2.935,-0.003 2.935,-0.003 2.544,0.064 2.475,0.093 2.399,-0.331 L 1.12,-7.514 C 0.851,-9.031 0.956,-9.201 1.661,-9.476 l 0.648,-0.232 c 0.103,-0.119 0.025,-0.596 -0.14,-0.553 -1.116,0.279 -1.811,0.466 -2.545,0.59 -0.781,0.134 -1.65,0.239 -2.74,0.289 -0.169,0.009 -0.115,0.486 0.025,0.561 l 0.779,0.034 c 0.683,0.033 0.922,0.151 1.164,1.666 L 0,0 Z"
         id="path72"
         style="fill:#ffffff;fill-opacity:1;fill-rule:nonzero;stroke:none"
         inkscape:connector-curvature="0" />
    </g>
    <g
       transform="matrix(6.037332,0,0,-6.037332,483.52571,452.70579)"
       id="g74">
      <path
         d="m 0,0 c -0.484,0.357 -0.54,0.416 -0.816,0.06 l -1.462,-1.906 c -0.911,-1.2 -0.925,-1.441 -0.426,-1.986 l 0.382,-0.373 c 0.037,-0.157 -0.235,-0.54 -0.361,-0.442 -0.784,0.605 -1.413,1.04 -2.004,1.402 -0.669,0.409 -1.186,0.71 -2.041,1.139 -0.142,0.071 0.087,0.46 0.247,0.471 l 0.405,-0.147 c 0.714,-0.27 0.786,-0.263 1.681,0.936 l 3.757,4.996 c 0.895,1.2 0.926,1.438 0.355,1.879 L -0.589,6.252 C -0.644,6.398 -0.405,6.784 -0.255,6.701 0.53,6.264 1.014,5.958 1.672,5.531 2.302,5.12 3.157,4.535 3.661,4.119 3.786,4.015 3.483,3.661 3.327,3.67 L 3.039,3.857 C 2.424,4.204 2.314,4.167 1.403,2.968 L 0.291,1.489 C 0.006,1.119 0.016,1.061 0.524,0.677 1.253,0.127 2.693,-1.091 3.292,-1.69 3.734,-2.133 3.797,-2.142 4.118,-1.8 l 1.29,1.353 c 1.031,1.078 1.081,1.2 0.579,1.762 L 5.685,1.637 C 5.652,1.792 5.95,2.146 6.073,2.035 6.753,1.422 7.249,0.886 7.834,0.262 8.382,-0.323 8.953,-0.993 9.338,-1.489 9.446,-1.627 9.099,-1.919 8.947,-1.889 l -0.24,0.236 C 8.147,-1.116 7.902,-1.224 6.859,-2.312 L 2.57,-6.685 C 1.517,-7.764 1.535,-7.869 1.899,-8.569 l 0.233,-0.43 c 0.003,-0.16 -0.368,-0.423 -0.451,-0.302 -0.482,0.693 -0.94,1.286 -1.398,1.808 -0.48,0.548 -1.017,1.122 -1.678,1.728 -0.121,0.112 0.206,0.432 0.368,0.419 l 0.303,-0.223 c 0.644,-0.412 0.889,-0.35 1.918,0.73 L 2.881,-3.12 C 3.191,-2.789 3.18,-2.789 2.706,-2.314 2.157,-1.763 0.747,-0.551 0,0"
         id="path76"
         style="fill:#ffffff;fill-opacity:1;fill-rule:nonzero;stroke:none"
         inkscape:connector-curvature="0" />
    </g>
    <g
       transform="matrix(6.037332,0,0,-6.037332,253.868,673.23927)"
       id="g78">
      <path
         d="M 0,0 C -0.461,-0.341 -0.471,-0.408 0.113,-1.18 0.47,-1.65 0.796,-1.835 1.232,-1.896 1.622,-1.95 2.229,-1.88 3,-1.296 4.176,-0.405 4.346,0.698 3.573,1.717 3.167,2.253 3.099,2.251 2.446,1.81 L 0,0 Z M 0.397,3.018 C 1.739,3.972 1.906,4.167 1.724,4.839 L 1.608,5.272 C 1.616,5.462 2.041,5.714 2.129,5.54 2.681,4.425 3.233,3.415 4.174,2.173 5.016,1.063 5.624,0.157 5.699,-0.567 5.83,-1.662 5.474,-2.55 4.638,-3.184 3.475,-4.066 2.303,-3.795 1.548,-3.422 1.383,-3.341 1.278,-3.376 1.197,-3.561 0.238,-5.891 -0.127,-7.051 -0.063,-8.065 -0.015,-8.599 0.273,-8.872 0.436,-9.06 0.48,-9.22 0.24,-9.485 0.109,-9.491 c -0.271,0.114 -0.666,0.471 -1.027,0.837 -1.068,1.087 -1.231,2.231 -0.803,3.596 0.32,1.001 0.682,1.837 1.09,2.718 0.206,0.452 0.162,0.735 -0.086,1.06 -0.347,0.458 -0.392,0.461 -0.654,0.268 l -1.624,-1.197 c -1.213,-0.896 -1.293,-1.06 -0.959,-1.748 l 0.198,-0.414 c 0.004,-0.144 -0.363,-0.454 -0.452,-0.335 -0.493,0.649 -0.903,1.27 -1.385,2.021 -0.457,0.707 -0.808,1.338 -1.229,2.108 -0.083,0.152 0.328,0.408 0.454,0.342 l 0.274,-0.337 c 0.452,-0.566 0.461,-0.691 1.697,0.189 l 4.794,3.401 z"
         id="path80"
         style="fill:#ffffff;fill-opacity:1;fill-rule:nonzero;stroke:none"
         inkscape:connector-curvature="0" />
    </g>
    <g
       transform="matrix(6.037332,0,0,-6.037332,298.35348,701.12208)"
       id="g82">
      <path
         d="M 0,0 C 0.733,1.311 0.787,1.572 0.248,2.112 L -0.055,2.427 C -0.111,2.587 0.175,2.996 0.323,2.873 0.902,2.388 1.481,1.918 2.071,1.53 2.74,1.088 3.337,0.674 4.111,0.274 4.269,0.191 4.033,-0.216 3.882,-0.231 L 3.519,-0.07 C 2.829,0.208 2.697,0.048 2.098,-1.02 L 0.162,-4.615 c -0.901,-1.694 -1.55,-3.705 0.634,-4.779 1.752,-0.861 3.264,0.088 4.314,2.389 L 6.025,-5 c 0.715,1.57 0.968,2.374 0.97,2.818 0.001,0.353 -0.185,0.537 -0.694,0.804 l -0.485,0.233 c -0.075,0.158 0.092,0.541 0.232,0.485 0.62,-0.25 1.478,-0.574 2.14,-0.772 0.612,-0.182 1.126,-0.322 1.793,-0.46 0.128,-0.026 0.039,-0.433 -0.122,-0.519 L 9.491,-2.38 C 9.028,-2.352 8.655,-2.307 8.325,-2.637 7.99,-2.971 7.457,-4.191 6.905,-5.4 L 6.052,-7.273 C 5.411,-8.677 4.74,-9.738 3.468,-10.285 c -1.09,-0.469 -2.318,-0.299 -3.604,0.349 -1.163,0.587 -2.217,1.354 -2.643,2.411 -0.405,1.024 -0.188,2.243 0.684,3.796 L 0,0 Z"
         id="path84"
         style="fill:#ffffff;fill-opacity:1;fill-rule:nonzero;stroke:none"
         inkscape:connector-curvature="0" />
    </g>
    <g
       transform="matrix(6.037332,0,0,-6.037332,421.28377,768.08997)"
       id="g86">
      <path
         d="m 0,0 c 0.11,-0.685 0.202,-0.912 0.526,-0.976 0.076,-0.066 0.095,-0.391 -0.007,-0.411 -0.518,-0.096 -1.222,-0.244 -1.7,-0.378 -0.875,-0.248 -1.831,-0.459 -2.744,-0.547 -1.24,-0.119 -2.442,-0.039 -3.604,0.429 -1.74,0.697 -3.086,2.541 -3.044,5.08 0.032,2.025 0.932,3.93 2.836,5.005 1.042,0.589 2.312,0.794 3.706,0.796 1.821,0.001 2.304,-0.36 2.833,-0.33 C -1.117,8.185 -1.026,7.052 -0.797,6.073 -0.851,5.891 -1.297,5.85 -1.424,6.006 -2.052,7.497 -2.734,8.245 -4.26,8.243 -6.867,8.241 -7.945,6.15 -7.949,3.51 c -0.004,-2.254 0.65,-3.571 1.696,-4.429 0.732,-0.6 1.759,-0.702 2.426,-0.651 0.932,0.07 1.666,0.327 1.494,1.388 L -2.58,1.052 c -0.145,0.852 -0.26,0.932 -1.076,0.92 l -0.712,0.021 c -0.199,0.066 -0.296,0.536 -0.093,0.552 1.076,0.081 1.754,0.171 2.568,0.294 0.799,0.121 1.719,0.294 2.377,0.489 C 0.648,3.377 0.696,2.891 0.577,2.776 L 0.206,2.655 C -0.277,2.485 -0.377,2.304 -0.232,1.452 L 0,0 Z"
         id="path88"
         style="fill:#ffffff;fill-opacity:1;fill-rule:nonzero;stroke:none"
         inkscape:connector-curvature="0" />
    </g>
    <g
       transform="matrix(6.037332,0,0,-6.037332,466.46957,746.09114)"
       id="g90">
      <path
         d="M 0,0 C 0.681,-1.339 1.327,-1.39 2.414,-0.756 3.451,-0.151 3.571,1.014 2.909,2.158 2.196,3.387 0.997,3.638 -0.406,2.92 -1.208,2.509 -1.242,2.478 -0.945,1.896 L 0,0 Z M -1.717,3.495 C -1.523,3.116 -1.453,3.11 -0.694,3.499 0.561,4.141 0.519,5.354 0.04,6.213 -0.605,7.368 -1.527,7.725 -2.758,7.038 -3.432,6.664 -3.267,6.493 -2.94,5.851 l 1.223,-2.356 z m -2.77,0.517 C -5.212,5.516 -5.356,5.824 -6.058,5.664 L -6.516,5.572 C -6.694,5.606 -6.943,6.047 -6.712,6.127 -5.345,6.598 -4.61,6.893 -3.184,7.664 -1.8,8.415 -0.933,8.881 -0.095,8.86 0.729,8.831 1.564,8.397 2.035,7.552 2.707,6.347 1.953,5.308 1.572,4.945 1.446,4.837 1.334,4.7 1.374,4.628 1.398,4.586 1.497,4.575 1.638,4.626 2.984,5.101 4.327,4.848 5.134,3.485 5.77,2.416 5.673,1.133 4.855,0.133 4.205,-0.662 3.682,-1.081 1.967,-1.967 0.653,-2.646 -0.902,-3.32 -2.176,-3.835 -2.335,-3.899 -2.529,-3.4 -2.426,-3.316 l 0.414,0.202 c 0.641,0.315 0.655,0.59 0.01,1.931 l -2.485,5.195 z"
         id="path92"
         style="fill:#ffffff;fill-opacity:1;fill-rule:nonzero;stroke:none"
         inkscape:connector-curvature="0" />
    </g>
    <g
       transform="matrix(6.037332,0,0,-6.037332,537.59901,684.54477)"
       id="g94">
      <path
         d="M 0,0 C 1.236,-0.893 1.363,-0.887 1.85,-0.335 L 2.267,0.168 C 2.413,0.205 2.81,-0.039 2.73,-0.168 2.21,-1.023 1.728,-1.728 1.266,-2.366 0.805,-3.004 0.38,-3.615 -0.335,-4.408 c -0.11,-0.121 -0.462,0.173 -0.466,0.337 l 0.292,0.482 c 0.379,0.641 0.37,0.795 -0.866,1.689 l -0.664,0.481 C -2.756,-0.902 -2.901,-0.937 -4,-0.733 l -4.729,0.692 c -0.854,0.136 -1.177,0.186 -1.695,-0.179 l -0.391,-0.255 c -0.213,-0.036 -0.578,0.289 -0.423,0.427 0.64,0.561 1.126,0.98 1.755,1.626 0.664,0.681 1.153,1.294 1.587,1.852 0.103,0.132 0.508,-0.131 0.513,-0.317 L -7.685,2.615 C -7.884,2.261 -7.696,2.097 -6.512,1.884 L -4.753,1.609 C -4.108,1.507 -3.225,1.361 -2.771,1.284 -3.152,2.129 -3.728,3.32 -4.155,4.157 -4.405,4.652 -4.58,5.071 -4.745,5.354 -5.153,6.05 -5.306,6.094 -5.653,5.607 L -5.883,5.29 c -0.128,-0.082 -0.615,0.197 -0.515,0.361 0.378,0.629 0.629,1.095 0.912,1.712 0.272,0.594 0.445,1.017 0.642,1.519 0.077,0.198 0.594,-0.068 0.622,-0.248 L -4.373,8.186 C -4.461,7.871 -4.539,7.512 -4.445,7.218 -4.316,6.819 -3.902,5.894 -3.193,4.442 l 1.009,-2.16 C -1.801,1.497 -1.688,1.22 -0.931,0.673 L 0,0 Z"
         id="path96"
         style="fill:#ffffff;fill-opacity:1;fill-rule:nonzero;stroke:none"
         inkscape:connector-curvature="0" />
    </g>
    <g
       transform="matrix(6.037332,0,0,-6.037332,551.04843,675.58718)"
       id="g98">
      <path
         d="M 0,0 0.45,0.846 0.609,0.763 0.433,0.43 1.319,-0.042 1.223,-0.227 0.335,0.246 0.157,-0.085 0,0 Z"
         id="path100"
         style="fill:#ffffff;fill-opacity:1;fill-rule:nonzero;stroke:none"
         inkscape:connector-curvature="0" />
    </g>
    <g
       transform="matrix(6.037332,0,0,-6.037332,554.15096,669.74787)"
       id="g102">
      <path
         d="M 0,0 0.137,0.257 1.111,0.109 1.113,0.112 0.443,0.83 0.579,1.085 1.624,0.527 1.533,0.354 0.724,0.783 0.723,0.781 1.377,0.06 1.296,-0.092 0.333,0.049 0.333,0.046 1.14,-0.385 1.047,-0.557 0,0 Z"
         id="path104"
         style="fill:#ffffff;fill-opacity:1;fill-rule:nonzero;stroke:none"
         inkscape:connector-curvature="0" />
    </g>
    <g
       transform="matrix(6.037332,0,0,-6.037332,385.69852,511.30172)"
       id="g106">
      <path
         d="m 0,0 c -3.355,0 -6.106,1.215 -6.393,2.762 -0.02,0.13 0.223,0.282 0.653,0.392 1.022,0.259 2.624,0.399 4.154,0.454 0.004,-0.129 0.01,-0.245 0.019,-0.339 0.006,-0.068 0.014,-0.124 0.024,-0.172 0.006,-0.025 0.011,-0.047 0.025,-0.074 0.007,-0.015 0.015,-0.031 0.036,-0.054 0.018,-0.021 0.062,-0.054 0.124,-0.054 0.091,0 0.164,0.073 0.164,0.161 0,0.038 -0.013,0.07 -0.032,0.098 -0.014,0.06 -0.03,0.236 -0.035,0.444 0.201,0.006 0.397,0.011 0.592,0.013 0.001,-0.135 0.003,-0.258 0.008,-0.354 0.004,-0.067 0.006,-0.12 0.011,-0.161 0.002,-0.022 0.005,-0.04 0.009,-0.059 0.002,-0.011 0.004,-0.021 0.012,-0.041 0.006,-0.011 0.01,-0.024 0.029,-0.044 0.015,-0.019 0.057,-0.057 0.124,-0.057 0.089,0 0.162,0.073 0.162,0.161 0,0.022 -0.004,0.043 -0.012,0.061 -0.006,0.058 -0.016,0.258 -0.018,0.499 0.116,10e-4 0.231,10e-4 0.344,10e-4 0.111,0 0.226,0 0.341,-10e-4 C 0.339,3.503 0.336,3.382 0.332,3.292 0.33,3.229 0.326,3.18 0.323,3.149 0.323,3.145 0.322,3.141 0.322,3.137 0.315,3.119 0.31,3.098 0.31,3.076 0.31,2.988 0.383,2.915 0.473,2.915 0.54,2.915 0.581,2.953 0.597,2.97 0.629,3.011 0.628,3.025 0.634,3.039 0.653,3.111 0.653,3.181 0.658,3.315 0.663,3.404 0.664,3.513 0.666,3.631 0.86,3.629 1.058,3.624 1.257,3.618 1.253,3.495 1.248,3.384 1.24,3.299 1.235,3.244 1.228,3.197 1.222,3.174 1.203,3.146 1.191,3.113 1.191,3.076 c 0,-0.088 0.073,-0.161 0.163,-0.161 0.063,0 0.107,0.033 0.124,0.054 0.063,0.079 0.051,0.104 0.066,0.156 0.02,0.109 0.034,0.279 0.038,0.484 C 3.115,3.553 4.717,3.413 5.741,3.154 6.173,3.044 6.415,2.89 6.393,2.762 6.106,1.213 3.354,0 0,0 M 0,6.06 C 3.545,6.06 6.419,4.702 6.419,3.028 6.419,3.013 6.417,2.996 6.417,2.98 6.294,3.549 3.929,3.882 1.581,3.986 1.578,4.103 1.572,4.213 1.564,4.299 1.557,4.368 1.549,4.424 1.538,4.471 1.533,4.497 1.528,4.518 1.514,4.547 1.508,4.561 1.5,4.578 1.478,4.599 1.461,4.62 1.417,4.654 1.354,4.654 1.264,4.654 1.191,4.581 1.191,4.492 1.191,4.455 1.203,4.421 1.224,4.395 1.235,4.339 1.25,4.185 1.256,3.999 1.058,4.006 0.86,4.012 0.664,4.015 0.664,4.119 0.661,4.214 0.657,4.291 0.655,4.358 0.651,4.411 0.647,4.453 0.644,4.475 0.642,4.492 0.638,4.512 0.635,4.521 0.634,4.532 0.625,4.552 0.62,4.564 0.615,4.575 0.597,4.597 0.581,4.616 0.54,4.653 0.473,4.654 0.383,4.654 0.31,4.581 0.31,4.492 0.31,4.47 0.315,4.45 0.322,4.431 0.328,4.38 0.336,4.22 0.339,4.019 0.226,4.021 0.111,4.021 0,4.021 c -0.113,0 -0.227,0 -0.343,-0.002 0.002,0.098 0.005,0.188 0.008,0.259 0.001,0.062 0.006,0.111 0.009,0.141 0,0.005 0,0.009 0.001,0.013 0.007,0.018 0.011,0.038 0.011,0.06 0,0.089 -0.073,0.162 -0.162,0.162 C -0.543,4.653 -0.585,4.616 -0.6,4.597 -0.632,4.556 -0.632,4.543 -0.637,4.529 -0.655,4.457 -0.656,4.387 -0.662,4.255 -0.666,4.185 -0.667,4.103 -0.668,4.015 -0.864,4.012 -1.06,4.006 -1.259,3.999 c 0.003,0.103 0.009,0.197 0.016,0.269 0.006,0.057 0.011,0.103 0.017,0.128 0.019,0.026 0.032,0.06 0.032,0.096 0,0.089 -0.073,0.162 -0.164,0.162 C -1.42,4.654 -1.464,4.62 -1.482,4.599 -1.544,4.521 -1.532,4.495 -1.548,4.444 -1.567,4.34 -1.581,4.178 -1.585,3.986 -3.927,3.882 -6.291,3.55 -6.417,2.982 c 0,0.016 -0.002,0.031 -0.002,0.046 0,1.674 2.874,3.032 6.419,3.032 m -0.001,0.504 c -3.897,0 -7.054,-1.629 -7.054,-3.638 0,-2.009 3.157,-3.638 7.054,-3.638 3.895,0 7.053,1.629 7.053,3.638 0,2.009 -3.158,3.638 -7.053,3.638"
         id="path108"
         style="fill:#231f20;fill-opacity:1;fill-rule:nonzero;stroke:none"
         inkscape:connector-curvature="0" />
    </g>
    <g
       transform="matrix(6.037332,0,0,-6.037332,385.67142,522.2154)"
       id="g110">
      <path
         d="m 0,0 c 4.714,0 9.39,1.382 12.807,3.579 l 4.826,-5.559 c -2.847,-3.252 -2.863,-6.596 -1.681,-9.967 1.834,-5.232 0.137,-9.319 -4.953,-12.037 C 5.821,-26.749 1.002,-26.587 0,-29.821 c -1.004,3.234 -5.822,3.072 -11,5.837 -5.089,2.718 -6.786,6.805 -4.952,12.037 1.182,3.371 1.166,6.715 -1.681,9.967 l 4.825,5.559 C -9.391,1.382 -4.714,0 0,0"
         id="path112"
         style="fill:#231f20;fill-opacity:1;fill-rule:nonzero;stroke:none"
         inkscape:connector-curvature="0" />
    </g>
    <g
       transform="matrix(6.037332,0,0,-6.037332,475.15367,585.79817)"
       id="g114">
      <path
         d="m 0,0 -1.787,0 0,-4.344 c 0,-0.043 -0.018,-0.084 -0.048,-0.115 -0.031,-0.03 -0.072,-0.047 -0.115,-0.047 l -5.345,0 c -0.044,0 -0.084,0.017 -0.116,0.047 -0.03,0.031 -0.047,0.072 -0.047,0.115 l 0.002,4.353 -4.61,0 -10e-4,-4.356 c 0,-0.043 -0.017,-0.084 -0.046,-0.115 -0.032,-0.03 -0.073,-0.047 -0.116,-0.047 l -5.261,0 c -0.044,0 -0.084,0.017 -0.114,0.047 -0.03,0.031 -0.048,0.072 -0.048,0.115 l -10e-4,4.356 -4.61,0 0.002,-4.353 c 0,-0.043 -0.017,-0.084 -0.048,-0.115 -0.03,-0.03 -0.071,-0.047 -0.115,-0.047 l -5.34,0 c -0.043,0 -0.084,0.017 -0.116,0.047 -0.031,0.031 -0.047,0.072 -0.047,0.115 L -27.931,0 -29.643,0 c -0.123,-0.532 -0.279,-1.065 -0.483,-1.643 -1.71,-4.88 -0.153,-8.65 4.628,-11.203 1.897,-1.013 3.758,-1.628 5.4,-2.17 2.215,-0.73 4.19,-1.381 5.277,-2.797 1.086,1.416 3.061,2.067 5.276,2.797 1.641,0.542 3.503,1.157 5.399,2.17 4.782,2.553 6.34,6.323 4.628,11.203 C 0.28,-1.068 0.124,-0.533 0,0"
         id="path116"
         style="fill:#ee233b;fill-opacity:1;fill-rule:nonzero;stroke:none"
         inkscape:connector-curvature="0" />
    </g>
    <g
       transform="matrix(6.037332,0,0,-6.037332,462.59482,547.64404)"
       id="g118">
      <path
         d="m 0,0 c -0.562,0.273 -0.985,0.468 -1.59,0.47 -0.579,-0.002 -0.98,-0.214 -1.529,-0.526 -0.533,-0.302 -1.217,-0.712 -2.164,-0.711 -0.947,-0.001 -1.632,0.409 -2.164,0.711 -0.549,0.312 -0.949,0.524 -1.527,0.526 -0.608,-0.002 -1.031,-0.197 -1.593,-0.471 -0.549,-0.266 -1.239,-0.613 -2.167,-0.613 -0.928,0 -1.618,0.347 -2.167,0.613 -0.563,0.274 -0.987,0.469 -1.591,0.471 -0.58,-0.002 -0.979,-0.214 -1.53,-0.526 -0.531,-0.302 -1.217,-0.712 -2.163,-0.711 -0.947,-0.001 -1.632,0.409 -2.164,0.711 -0.55,0.312 -0.949,0.524 -1.528,0.526 -0.607,-0.002 -1.03,-0.197 -1.59,-0.47 -0.549,-0.267 -1.238,-0.614 -2.166,-0.614 -0.07,0 -0.138,0.003 -0.205,0.007 0.242,-0.651 0.408,-1.32 0.495,-2.013 0.015,-0.108 0.025,-0.218 0.035,-0.327 0.416,0.059 0.771,0.225 1.224,0.447 0.552,0.268 1.258,0.614 2.207,0.612 0.974,0.002 1.684,-0.404 2.225,-0.711 0.557,-0.316 0.94,-0.526 1.467,-0.528 0.526,0.002 0.911,0.212 1.467,0.528 0.54,0.307 1.251,0.713 2.226,0.711 0.948,0.002 1.654,-0.344 2.207,-0.612 0.566,-0.276 0.98,-0.472 1.551,-0.472 0.572,0 0.983,0.196 1.551,0.472 0.553,0.268 1.26,0.614 2.209,0.612 0.974,0.002 1.684,-0.404 2.224,-0.711 0.556,-0.316 0.941,-0.526 1.467,-0.528 0.526,0.002 0.912,0.212 1.468,0.528 0.54,0.307 1.249,0.713 2.225,0.711 0.949,0.002 1.653,-0.344 2.206,-0.612 0.444,-0.217 0.794,-0.382 1.2,-0.443 0.07,0.805 0.247,1.58 0.529,2.333 C 2.286,-0.613 2.227,-0.614 2.166,-0.614 1.237,-0.614 0.548,-0.267 0,0"
         id="path120"
         style="fill:#2350a9;fill-opacity:1;fill-rule:nonzero;stroke:none"
         inkscape:connector-curvature="0" />
    </g>
    <g
       transform="matrix(6.037332,0,0,-6.037332,305.11651,539.9893)"
       id="g122">
      <path
         d="m 0,0 c 0.552,0.269 1.258,0.615 2.207,0.613 0.974,0.002 1.684,-0.405 2.225,-0.712 0.557,-0.318 0.94,-0.526 1.467,-0.526 0.526,0 0.911,0.208 1.467,0.526 0.54,0.307 1.251,0.714 2.226,0.712 0.948,0.002 1.654,-0.344 2.207,-0.613 0.567,-0.277 0.98,-0.47 1.551,-0.472 0.572,0.002 0.983,0.195 1.552,0.472 0.552,0.269 1.259,0.615 2.208,0.613 0.974,0.002 1.684,-0.405 2.224,-0.712 0.557,-0.318 0.941,-0.526 1.467,-0.526 0.527,0 0.912,0.208 1.468,0.526 0.54,0.307 1.249,0.714 2.225,0.712 C 25.443,0.615 26.148,0.269 26.7,0 c 0.567,-0.277 0.978,-0.47 1.55,-0.472 0.359,0.002 0.654,0.077 0.965,0.203 0.25,0.413 0.536,0.823 0.858,1.226 L 26.014,5.63 C 22.438,3.481 17.856,2.258 13.343,2.258 8.829,2.258 4.248,3.481 0.671,5.63 L -3.387,0.957 c 0.318,-0.401 0.6,-0.804 0.848,-1.216 0.319,-0.131 0.621,-0.211 0.99,-0.213 C -0.978,-0.47 -0.567,-0.277 0,0"
         id="path124"
         style="fill:#2350a9;fill-opacity:1;fill-rule:nonzero;stroke:none"
         inkscape:connector-curvature="0" />
    </g>
    <g
       transform="matrix(6.037332,0,0,-6.037332,452.99612,567.55033)"
       id="g126">
      <path
         d="m 0,0 c -0.579,-0.002 -0.98,-0.216 -1.529,-0.527 -0.533,-0.302 -1.217,-0.712 -2.164,-0.712 -0.947,0 -1.632,0.41 -2.164,0.712 -0.549,0.311 -0.949,0.525 -1.527,0.527 -0.608,-0.002 -1.031,-0.198 -1.593,-0.472 -0.549,-0.266 -1.239,-0.615 -2.167,-0.612 -0.928,-0.003 -1.618,0.346 -2.167,0.612 -0.563,0.274 -0.987,0.47 -1.591,0.472 -0.58,-0.002 -0.979,-0.216 -1.53,-0.527 -0.531,-0.302 -1.218,-0.712 -2.163,-0.712 -0.947,0 -1.632,0.41 -2.164,0.712 -0.55,0.311 -0.949,0.525 -1.528,0.527 -0.607,-0.002 -1.03,-0.198 -1.59,-0.472 -0.478,-0.231 -1.062,-0.526 -1.818,-0.597 -0.029,-0.517 -0.096,-1.033 -0.203,-1.576 l 2.011,0 c 0.043,0 0.085,-0.018 0.116,-0.048 0.03,-0.029 0.047,-0.072 0.047,-0.115 l 0,-4.212 4.75,0 0,4.221 c 0,0.043 0.018,0.084 0.047,0.115 0.031,0.032 0.073,0.048 0.115,0.048 l 5.2,0 c 0.044,0 0.085,-0.016 0.115,-0.048 0.031,-0.031 0.049,-0.072 0.049,-0.115 l 0,-4.223 4.668,0 0,4.223 c 0,0.043 0.018,0.084 0.048,0.115 0.029,0.032 0.072,0.048 0.115,0.048 l 5.2,0 c 0.043,0 0.085,-0.016 0.114,-0.048 0.031,-0.031 0.048,-0.072 0.048,-0.115 l 0,-4.221 4.75,0 0,4.212 c 0,0.043 0.018,0.086 0.047,0.115 0.031,0.03 0.073,0.048 0.116,0.048 l 1.936,0 C 3.486,-2.102 3.417,-1.583 3.386,-1.066 2.64,-0.992 2.063,-0.702 1.59,-0.472 1.028,-0.198 0.605,-0.002 0,0"
         id="path128"
         style="fill:#2350a9;fill-opacity:1;fill-rule:nonzero;stroke:none"
         inkscape:connector-curvature="0" />
    </g>
    <g
       transform="matrix(6.037332,0,0,-6.037332,452.99612,559.04132)"
       id="g130">
      <path
         d="m 0,0 c -0.976,0.002 -1.685,-0.404 -2.225,-0.711 -0.556,-0.317 -0.942,-0.526 -1.468,-0.528 -0.526,0.002 -0.911,0.211 -1.467,0.528 -0.541,0.307 -1.25,0.713 -2.224,0.711 -0.949,0.002 -1.656,-0.344 -2.209,-0.612 -0.568,-0.277 -0.979,-0.472 -1.551,-0.472 -0.571,0 -0.985,0.195 -1.551,0.472 -0.553,0.268 -1.259,0.614 -2.207,0.612 -0.975,0.002 -1.686,-0.404 -2.226,-0.711 -0.556,-0.317 -0.941,-0.526 -1.467,-0.528 -0.527,0.002 -0.91,0.211 -1.467,0.528 -0.542,0.307 -1.251,0.713 -2.225,0.711 -0.949,0.002 -1.655,-0.344 -2.207,-0.612 -0.453,-0.222 -0.808,-0.388 -1.224,-0.447 0.042,-0.464 0.05,-0.936 0.023,-1.42 0.756,0.072 1.34,0.366 1.818,0.598 0.56,0.274 0.983,0.47 1.59,0.472 0.579,-0.002 0.978,-0.216 1.528,-0.528 0.532,-0.301 1.217,-0.711 2.164,-0.711 0.945,0 1.632,0.41 2.163,0.711 0.551,0.312 0.95,0.526 1.53,0.528 0.604,-0.002 1.028,-0.198 1.591,-0.472 0.549,-0.267 1.239,-0.615 2.167,-0.613 0.928,-0.002 1.618,0.346 2.167,0.613 0.562,0.274 0.985,0.47 1.593,0.472 0.578,-0.002 0.978,-0.216 1.527,-0.528 0.532,-0.301 1.217,-0.711 2.164,-0.711 0.947,0 1.631,0.41 2.164,0.711 0.549,0.312 0.95,0.526 1.529,0.528 0.605,-0.002 1.028,-0.198 1.59,-0.472 0.473,-0.23 1.05,-0.52 1.796,-0.595 -0.028,0.484 -0.022,0.957 0.02,1.421 C 3,-0.994 2.65,-0.83 2.206,-0.612 1.653,-0.344 0.949,0.002 0,0"
         id="path132"
         style="fill:#ffffff;fill-opacity:1;fill-rule:nonzero;stroke:none"
         inkscape:connector-curvature="0" />
    </g>
    <g
       transform="matrix(6.037332,0,0,-6.037332,475.67234,542.83833)"
       id="g134">
      <path
         d="M 0,0 C -0.572,0.002 -0.983,0.195 -1.55,0.472 -2.103,0.741 -2.807,1.087 -3.756,1.085 -4.732,1.087 -5.441,0.68 -5.981,0.373 -6.537,0.055 -6.923,-0.153 -7.449,-0.153 c -0.526,0 -0.911,0.208 -1.467,0.526 -0.541,0.307 -1.25,0.714 -2.224,0.712 -0.949,0.002 -1.656,-0.344 -2.209,-0.613 C -13.917,0.195 -14.328,0.002 -14.9,0 c -0.571,0.002 -0.985,0.195 -1.551,0.472 -0.553,0.269 -1.259,0.615 -2.207,0.613 -0.975,0.002 -1.686,-0.405 -2.226,-0.712 -0.556,-0.318 -0.941,-0.526 -1.467,-0.526 -0.527,0 -0.91,0.208 -1.467,0.526 -0.541,0.307 -1.251,0.714 -2.225,0.712 -0.949,0.002 -1.655,-0.344 -2.207,-0.613 -0.567,-0.277 -0.978,-0.47 -1.549,-0.472 -0.369,0.002 -0.671,0.082 -0.99,0.213 0.319,-0.527 0.58,-1.065 0.785,-1.616 0.067,-0.004 0.135,-0.007 0.205,-0.007 0.928,0 1.617,0.347 2.166,0.614 0.56,0.273 0.983,0.468 1.59,0.47 0.579,-0.002 0.978,-0.214 1.528,-0.526 0.532,-0.302 1.217,-0.712 2.164,-0.711 0.946,-0.001 1.632,0.409 2.163,0.711 0.551,0.312 0.95,0.524 1.53,0.526 0.604,-0.002 1.028,-0.197 1.591,-0.471 0.549,-0.266 1.239,-0.613 2.167,-0.613 0.928,0 1.618,0.347 2.167,0.613 0.562,0.274 0.985,0.469 1.593,0.471 0.578,-0.002 0.978,-0.214 1.527,-0.526 0.532,-0.302 1.217,-0.712 2.164,-0.711 0.947,-0.001 1.631,0.409 2.164,0.711 0.549,0.312 0.95,0.524 1.529,0.526 0.605,-0.002 1.028,-0.197 1.59,-0.47 0.548,-0.267 1.237,-0.614 2.166,-0.614 0.06,0 0.119,10e-4 0.179,0.004 0.205,0.549 0.466,1.084 0.785,1.609 C 0.653,0.077 0.358,0.002 0,0"
         id="path136"
         style="fill:#ffffff;fill-opacity:1;fill-rule:nonzero;stroke:none"
         inkscape:connector-curvature="0" />
    </g>
    <g
       transform="matrix(6.037332,0,0,-6.037332,409.19648,624.5367)"
       id="g138">
      <path
         d="m 0,0 c -0.03,0.035 -0.071,0.054 -0.114,0.054 l -0.004,0 C -0.16,0.052 -0.199,0.032 -0.229,0 c -0.014,-0.016 -0.024,-0.033 -0.033,-0.052 -0.01,-0.026 -0.015,-0.053 -0.015,-0.08 -0.001,-0.148 -0.097,-0.352 -0.287,-0.523 -0.456,-0.413 -1.28,-0.617 -2.288,-0.648 0,2.009 -0.323,12.895 -0.463,14.591 -0.086,1.024 -0.216,2.01 -0.58,2.69 C -4.241,15.4 -4.4,14.312 -4.474,13.288 -4.621,11.263 -4.938,0.711 -4.938,-1.302 c -1.012,0.03 -1.806,0.22 -2.288,0.647 -0.188,0.171 -0.286,0.377 -0.287,0.523 0,0.037 -0.009,0.074 -0.028,0.103 -0.006,0.01 -0.012,0.02 -0.02,0.029 -0.006,0.007 -0.015,0.015 -0.023,0.022 -0.027,0.02 -0.059,0.032 -0.092,0.032 -0.043,0 -0.085,-0.019 -0.116,-0.054 -0.029,-0.035 -0.046,-0.084 -0.046,-0.132 l 0,-0.015 0,-3.82 0,-0.01 c 0,-0.049 0.017,-0.096 0.046,-0.131 0.031,-0.035 0.073,-0.055 0.116,-0.055 0.042,0 0.085,0.02 0.115,0.055 0.03,0.035 0.048,0.082 0.048,0.131 0.001,0.134 0.11,0.34 0.334,0.517 0.477,0.376 1.445,0.667 2.196,0.707 -0.088,-0.138 -0.151,-0.316 -0.153,-0.529 0,-0.236 0.081,-0.498 0.28,-0.777 -0.149,-0.151 -0.278,-0.382 -0.28,-0.687 0,-0.233 0.08,-0.493 0.272,-0.769 -0.145,-0.15 -0.27,-0.379 -0.272,-0.679 0,-0.243 0.075,-0.491 0.281,-0.767 -0.15,-0.151 -0.279,-0.383 -0.281,-0.688 0,-0.262 0.122,-0.537 0.37,-0.806 -0.362,-0.514 0.191,-1.268 0.899,-1.736 0.44,0.3 0.807,0.67 0.812,1.15 0,0.075 -0.01,0.155 -0.027,0.241 0.201,0.127 0.42,0.402 0.424,0.804 0,0.008 0,0.017 -0.002,0.024 0.002,0.003 0.002,0.006 0.002,0.009 0,0.005 -0.002,0.011 -0.002,0.017 0,0.028 -0.003,0.055 -0.007,0.084 -0.002,0.015 -0.003,0.031 -0.007,0.046 -0.031,0.193 -0.118,0.405 -0.271,0.622 0.153,0.142 0.284,0.373 0.287,0.696 0,0.229 -0.113,0.479 -0.298,0.75 0.159,0.143 0.295,0.376 0.298,0.704 0,0.236 -0.082,0.496 -0.276,0.773 0.148,0.144 0.273,0.37 0.276,0.683 0,0.255 -0.095,0.541 -0.327,0.844 0.847,-0.034 1.802,-0.273 2.374,-0.716 0.225,-0.177 0.333,-0.383 0.334,-0.517 0,-0.049 0.017,-0.096 0.048,-0.131 0.03,-0.035 0.072,-0.055 0.115,-0.055 0.021,0 0.04,0.004 0.059,0.012 0.01,0.005 0.019,0.011 0.028,0.018 0.01,0.006 0.02,0.015 0.027,0.025 0.031,0.035 0.049,0.08 0.049,0.131 l 0,0.01 0,3.821 0,0.014 C 0.049,-0.084 0.031,-0.035 0,0"
         id="path140"
         style="fill:#231f20;fill-opacity:1;fill-rule:nonzero;stroke:none"
         inkscape:connector-curvature="0" />
    </g>
    <g
       transform="matrix(6.037332,0,0,-6.037332,387.5363,544.81675)"
       id="g142">
      <path
         d="M 0,0 C -0.052,0.856 -0.069,1.738 -0.307,2.296 -0.527,1.84 -0.561,0.857 -0.616,0 c -0.139,-2.197 -0.38,-12.532 -0.38,-14.513 0.045,-10e-4 1.333,-10e-4 1.376,-10e-4 C 0.38,-12.536 0.134,-2.145 0,0"
         id="path144"
         style="fill:#ffffff;fill-opacity:1;fill-rule:nonzero;stroke:none"
         inkscape:connector-curvature="0" />
    </g>
    <g
       transform="matrix(6.037332,0,0,-6.037332,385.75956,683.353)"
       id="g146">
      <path
         d="m 0,0 c -0.376,0.217 -0.887,0.824 -0.714,1.164 0.036,-0.037 0.072,-0.072 0.112,-0.107 0.226,-0.216 0.501,-0.407 0.589,-0.57 0.047,0.256 -0.188,0.504 -0.396,0.699 -0.367,0.377 -0.529,0.783 -0.531,1.007 -0.001,0.181 0.07,0.329 0.149,0.428 0.046,-0.054 0.096,-0.11 0.152,-0.168 L 0.038,1.748 C 0.404,1.372 0.503,1.034 0.503,0.808 0.507,0.52 0.287,0.176 0,0"
         id="path148"
         style="fill:#fab80a;fill-opacity:1;fill-rule:nonzero;stroke:none"
         inkscape:connector-curvature="0" />
    </g>
    <g
       transform="matrix(6.037332,0,0,-6.037332,389.58542,675.54372)"
       id="g150">
      <path
         d="m 0,0 c -0.09,0.197 -0.226,0.405 -0.421,0.604 -0.178,0.218 -0.406,0.435 -0.651,0.745 -0.309,0.39 -0.5,0.782 -0.501,1.007 -0.002,0.172 0.064,0.316 0.138,0.413 0.056,-0.068 0.117,-0.14 0.186,-0.21 0.377,-0.41 0.706,-0.692 1.023,-1.072 C 0.129,1.125 0.234,0.808 0.242,0.584 0.24,0.354 0.106,0.115 0,0"
         id="path152"
         style="fill:#fab80a;fill-opacity:1;fill-rule:nonzero;stroke:none"
         inkscape:connector-curvature="0" />
    </g>
    <g
       transform="matrix(6.037332,0,0,-6.037332,391.04518,663.12613)"
       id="g154">
      <path
         d="m 0,0 c 0.002,-0.202 -0.102,-0.415 -0.2,-0.543 -0.03,0.033 -0.06,0.067 -0.091,0.1 -0.359,0.452 -0.58,0.65 -0.985,1.118 -0.376,0.435 -0.538,0.847 -0.539,1.071 -0.001,0.178 0.068,0.325 0.144,0.422 0.054,-0.066 0.113,-0.133 0.18,-0.202 0.377,-0.41 0.706,-0.678 1.023,-1.06 C -0.101,0.532 0,0.224 0,0"
         id="path156"
         style="fill:#fab80a;fill-opacity:1;fill-rule:nonzero;stroke:none"
         inkscape:connector-curvature="0" />
    </g>
    <g
       transform="matrix(6.037332,0,0,-6.037332,389.8402,657.6074)"
       id="g158">
      <path
         d="m 0,0 c -0.029,0.041 -0.06,0.081 -0.092,0.122 -0.359,0.453 -0.579,0.635 -0.984,1.103 -0.376,0.433 -0.538,0.847 -0.539,1.071 -0.001,0.093 0.017,0.178 0.046,0.25 0.05,0.125 0.169,0.212 0.215,0.113 0.039,-0.084 0.112,-0.187 0.216,-0.307 0.276,-0.296 0.643,-0.656 0.87,-0.903 C 0.098,1.073 0.2,0.767 0.2,0.542 0.202,0.34 0.098,0.13 0,0"
         id="path160"
         style="fill:#fab80a;fill-opacity:1;fill-rule:nonzero;stroke:none"
         inkscape:connector-curvature="0" />
    </g>
    <g
       transform="matrix(6.037332,0,0,-6.037332,390.24047,642.71934)"
       id="g162">
      <path
         d="m 0,0 c 0.117,-0.143 0.133,-0.339 0.133,-0.468 0.002,-0.195 -0.095,-0.401 -0.19,-0.531 -0.031,0.038 -0.066,0.075 -0.101,0.111 -0.335,0.36 -0.574,0.617 -0.766,0.835 -0.142,0.162 -0.162,0.322 0.167,0.331 C -0.403,0.287 -0.141,0.174 0,0"
         id="path164"
         style="fill:#fab80a;fill-opacity:1;fill-rule:nonzero;stroke:none"
         inkscape:connector-curvature="0" />
    </g>
    <g
       transform="matrix(6.037332,0,0,-6.037332,407.52536,645.11495)"
       id="g166">
      <path
         d="M 0,0 C -0.049,0.063 -0.102,0.122 -0.158,0.175 -0.991,0.96 -2.587,1.046 -3.327,1.052 l -0.583,0 C -4.4,1.052 -5.28,0.969 -6.051,0.733 -6.438,0.613 -6.799,0.444 -7.078,0.175 -7.135,0.122 -7.187,0.063 -7.237,0 l 0,2.698 c 0.03,-0.035 0.062,-0.066 0.095,-0.096 0.747,-0.671 2,-0.799 3.103,-0.807 l 0.843,0 c 1.269,0 2.471,0.228 3.101,0.807 0.032,0.03 0.064,0.061 0.095,0.096 L 0,0 Z"
         id="path168"
         style="fill:#fab80a;fill-opacity:1;fill-rule:nonzero;stroke:none"
         inkscape:connector-curvature="0" />
    </g>
    <g
       transform="matrix(6.037332,0,0,-6.037332,429.80607,652.57287)"
       id="g170">
      <path
         d="m 0,0 c -1.117,0 -1.705,0.845 -1.705,1.924 0,0.627 0.195,1.555 1.004,2.346 C 0.06,5.017 1.079,5.274 1.615,5.334 1.669,5.305 1.682,5.19 1.645,5.131 1.162,4.964 0.49,4.716 0.008,4.188 -0.566,3.562 -0.777,2.702 -0.792,2.037 -0.815,1.103 -0.505,0.302 0.091,0.302 0.596,0.302 0.8,0.769 0.8,1.26 c 0,0.732 -0.317,1.374 -0.868,1.374 -0.106,0 -0.166,-0.016 -0.249,-0.046 -0.052,0.015 -0.076,0.091 -0.052,0.151 0.226,0.196 0.527,0.286 0.799,0.286 0.717,0 1.215,-0.588 1.199,-1.433 C 1.6,0.642 0.936,0 0,0"
         id="path172"
         style="fill:#ffffff;fill-opacity:1;fill-rule:nonzero;stroke:none"
         inkscape:connector-curvature="0" />
    </g>
    <g
       transform="matrix(6.037332,0,0,-6.037332,459.73258,621.32727)"
       id="g174">
      <path
         d="M 0,0 C 0.046,-0.007 0.068,-0.036 0.068,-0.068 0.023,-0.271 -0.075,-0.513 -0.227,-0.686 L -1.788,-0.89 C -1.999,-0.92 -2.014,-0.934 -2.06,-1.101 l -0.075,-0.271 c -0.022,-0.083 0.006,-0.121 0.15,-0.144 l 0.529,-0.092 c 0.596,-0.098 1.69,-0.421 1.69,-1.607 0,-1.35 -1.614,-2.186 -2.829,-2.233 -0.092,0.047 -0.122,0.182 -0.054,0.256 1.063,0.129 2.143,0.665 2.143,1.707 0,1.063 -1.093,1.29 -1.931,1.32 -0.158,0 -0.181,0.037 -0.129,0.233 l 0.409,1.472 c 0.028,0.121 0.074,0.189 0.196,0.204 L 0,0 Z"
         id="path176"
         style="fill:#ffffff;fill-opacity:1;fill-rule:nonzero;stroke:none"
         inkscape:connector-curvature="0" />
    </g>
    <g
       transform="matrix(6.037332,0,0,-6.037332,323.8262,645.34377)"
       id="g178">
      <path
         d="M 0,0 C 0,-0.755 0.031,-0.771 0.503,-0.834 L 0.716,-0.865 C 0.771,-0.912 0.771,-1.069 0.7,-1.093 c -0.369,0.017 -0.739,0.024 -1.085,0.024 -0.401,0 -0.762,-0.007 -1.14,-0.024 -0.071,0.024 -0.071,0.181 -0.015,0.228 l 0.212,0.031 c 0.471,0.063 0.503,0.079 0.503,0.834 l 0,2.492 c 0,0.519 -0.024,0.708 -0.377,0.747 l -0.377,0.038 c -0.047,0.04 -0.047,0.158 -0.009,0.189 0.653,0.127 1.203,0.315 1.525,0.495 C -0.015,3.953 0.017,3.93 0.024,3.891 0.008,3.726 0,3.254 0,2.94 L 0,0 Z"
         id="path180"
         style="fill:#ffffff;fill-opacity:1;fill-rule:nonzero;stroke:none"
         inkscape:connector-curvature="0" />
    </g>
    <g
       transform="matrix(6.037332,0,0,-6.037332,338.31519,628.16454)"
       id="g182">
      <path
         d="m 0,0 c 0,-0.543 0.59,-0.818 1.03,-1.038 0.291,0.236 0.448,0.543 0.448,0.967 0,0.44 -0.267,0.873 -0.754,0.873 C 0.252,0.802 0,0.425 0,0 m 1.495,-2.94 c 0,0.613 -0.44,0.999 -1.102,1.32 -0.368,-0.29 -0.549,-0.621 -0.558,-1.108 0.009,-0.59 0.37,-0.983 0.881,-0.983 0.424,0 0.779,0.3 0.779,0.771 m 0.683,2.869 c 0,-0.645 -0.519,-0.936 -0.873,-1.132 0.488,-0.267 1.031,-0.715 1.031,-1.492 0,-0.882 -0.802,-1.329 -1.659,-1.329 -0.77,0 -1.596,0.329 -1.596,1.234 0,0.652 0.479,1.076 1.037,1.312 -0.416,0.212 -0.887,0.644 -0.895,1.225 0.008,0.819 0.652,1.369 1.556,1.369 0.778,0 1.399,-0.418 1.399,-1.187"
         id="path184"
         style="fill:#ffffff;fill-opacity:1;fill-rule:nonzero;stroke:none"
         inkscape:connector-curvature="0" />
    </g>
  </g>
</svg>
