<?xml version="1.0" encoding="iso-8859-1"?>
<!-- Generator: Adobe Illustrator 16.0.0, SVG Export Plug-In . SVG Version: 6.00 Build 0)  -->
<!DOCTYPE svg PUBLIC "-//W3C//DTD SVG 1.1//EN" "http://www.w3.org/Graphics/SVG/1.1/DTD/svg11.dtd">
<svg version="1.1" id="Layer_1" xmlns="http://www.w3.org/2000/svg" xmlns:xlink="http://www.w3.org/1999/xlink" x="0px" y="0px"
	 width="192.756px" height="192.756px" viewBox="0 0 192.756 192.756" style="enable-background:new 0 0 192.756 192.756;"
	 xml:space="preserve">
<g>
	<polygon style="fill-rule:evenodd;clip-rule:evenodd;fill:#FFFFFF;" points="0,0 192.756,0 192.756,192.756 0,192.756 0,0 	"/>
	<path style="fill-rule:evenodd;clip-rule:evenodd;fill:#3B66A6;" d="M96.057,173.363c0,0-16.057,1.927-41.749-7.708
		c-12.846-5.138-30.829-21.195-30.829-21.195l-1.285-17.342c0,0,0.643-4.495,4.496-5.78c7.708-2.569,16.7,5.139,27.618,15.415
		c14.772,14.131,41.749,15.415,41.749,15.415s27.619-1.284,42.391-15.415c10.92-10.276,19.27-17.984,27.619-15.415
		c3.854,1.285,4.496,5.78,4.496,5.78l-1.285,17.342c0,0-17.984,16.058-31.473,21.195C112.756,175.29,96.057,173.363,96.057,173.363
		L96.057,173.363z"/>
	<path style="fill-rule:evenodd;clip-rule:evenodd;fill:#FFFFFF;" d="M47.886,159.875c0,0,7.708,3.854,16.699,7.065
		c8.992,2.569,18.626,4.496,18.626,4.496l0.642-2.569c0,0-12.203-1.927-19.911-4.496c-5.78-1.927-14.772-6.423-14.772-6.423
		L47.886,159.875L47.886,159.875z"/>
	<path style="fill-rule:evenodd;clip-rule:evenodd;fill:#FFFFFF;" d="M144.229,159.875c0,0-7.066,3.854-16.057,7.065
		c-8.992,2.569-18.627,4.496-18.627,4.496l-0.643-2.569c0,0,12.203-1.927,19.91-4.496c5.781-1.927,14.773-6.423,14.773-6.423
		L144.229,159.875L144.229,159.875z"/>
	<path style="fill-rule:evenodd;clip-rule:evenodd;fill:#FFFFFF;" d="M27.975,122.623c0,0,1.926-0.643,5.78,0.642
		c6.423,1.927,17.342,14.131,23.122,18.627c17.984,12.846,39.179,11.561,39.179,11.561v2.569c0,0-25.049-0.643-39.822-12.203
		c-11.561-10.276-17.341-16.058-20.553-17.984C30.544,122.623,27.975,122.623,27.975,122.623L27.975,122.623z"/>
	<path style="fill-rule:evenodd;clip-rule:evenodd;fill:#FFFFFF;" d="M164.139,122.623c0,0-1.285-0.643-5.139,0.642
		c-6.422,1.927-17.342,14.131-23.121,18.627c-17.984,12.846-39.822,11.561-39.822,11.561v2.569c0,0,25.691-0.643,40.465-12.203
		c11.561-10.276,16.699-16.058,20.553-17.984C162.213,122.623,164.139,122.623,164.139,122.623L164.139,122.623z"/>
	<path style="fill-rule:evenodd;clip-rule:evenodd;fill:#3B66A6;" d="M96.057,165.655v-16.057c0,0,0-3.211-1.926-3.854
		c-4.496-1.285-4.496,3.211-8.35,5.139c-2.569,3.211-6.423,1.926-6.423,7.064c0,1.927,1.927,3.211,1.927,3.211L96.057,165.655
		L96.057,165.655z"/>
	<path style="fill-rule:evenodd;clip-rule:evenodd;fill:#3B66A6;" d="M96.699,165.655l-15.415-5.138c0,0-2.569-0.643-4.496,1.284
		c-2.569,3.212,1.927,5.139,2.569,8.992c1.927,3.854,0,7.065,4.496,8.35c1.927,1.285,3.854-0.643,3.854-0.643L96.699,165.655
		L96.699,165.655z"/>
	<path style="fill-rule:evenodd;clip-rule:evenodd;fill:#3B66A6;" d="M96.699,165.014l-9.634,13.487c0,0-1.285,2.569,0,3.854
		c1.927,3.854,5.138,0.642,8.992,0.642c4.496-0.642,7.064,2.569,9.635-1.284c1.285-1.927,0-4.496,0-4.496L96.699,165.014
		L96.699,165.014z"/>
	<path style="fill-rule:evenodd;clip-rule:evenodd;fill:#3B66A6;" d="M96.057,165.014l9.635,13.487c0,0,1.926,1.928,3.854,1.285
		c4.496-1.285,1.926-5.139,3.854-8.992c0.643-3.854,4.496-5.139,1.285-8.992c-1.285-1.927-3.854-1.927-3.854-1.927L96.057,165.014
		L96.057,165.014z"/>
	<path style="fill-rule:evenodd;clip-rule:evenodd;fill:#3B66A6;" d="M96.057,165.655l15.414-5.138c0,0,2.57-1.284,2.57-3.212
		c0-4.496-3.854-3.211-7.064-6.422c-3.855-1.928-3.855-5.781-8.352-4.496c-2.568,1.284-3.21,3.854-3.21,3.854L96.057,165.655
		L96.057,165.655z"/>
	<polygon style="fill-rule:evenodd;clip-rule:evenodd;fill:#3B66A6;" points="96.057,143.818 94.772,148.313 96.057,151.525 
		97.984,148.313 96.057,143.818 	"/>
	<polygon style="fill-rule:evenodd;clip-rule:evenodd;fill:#3B66A6;" points="76.146,158.591 79.357,161.802 83.211,161.159 
		80.642,158.591 76.146,158.591 	"/>
	<polygon style="fill-rule:evenodd;clip-rule:evenodd;fill:#3B66A6;" points="83.853,182.355 87.707,180.429 88.349,176.574 
		85.138,178.501 83.853,182.355 	"/>
	<polygon style="fill-rule:evenodd;clip-rule:evenodd;fill:#3B66A6;" points="108.902,182.355 107.617,178.501 104.406,176.574 
		105.049,180.429 108.902,182.355 	"/>
	<polygon style="fill-rule:evenodd;clip-rule:evenodd;fill:#3B66A6;" points="116.609,158.591 112.113,158.591 109.545,161.159 
		112.756,161.802 116.609,158.591 	"/>
	<path style="fill-rule:evenodd;clip-rule:evenodd;fill:#3B66A6;" d="M96.057,165.655v-16.057c0,0,0-3.211-1.926-3.854
		c-4.496-1.285-4.496,3.211-8.35,5.139c-2.569,3.211-6.423,1.926-6.423,7.064c0,1.927,1.927,3.211,1.927,3.211L96.057,165.655
		L96.057,165.655z"/>
	<path style="fill-rule:evenodd;clip-rule:evenodd;fill:#3B66A6;" d="M96.699,165.655l-15.415-5.138c0,0-2.569-0.643-4.496,1.284
		c-2.569,3.212,1.927,5.139,2.569,8.992c1.927,3.854,0,7.065,4.496,8.35c1.927,1.285,3.854-0.643,3.854-0.643L96.699,165.655
		L96.699,165.655z"/>
	<path style="fill-rule:evenodd;clip-rule:evenodd;fill:#3B66A6;" d="M96.699,165.014l-9.634,13.487c0,0-1.285,2.569,0,3.854
		c1.927,3.854,5.138,0.642,8.992,0.642c4.496-0.642,7.064,2.569,9.635-1.284c1.285-1.927,0-4.496,0-4.496L96.699,165.014
		L96.699,165.014z"/>
	<path style="fill-rule:evenodd;clip-rule:evenodd;fill:#3B66A6;" d="M96.057,165.014l9.635,13.487c0,0,1.926,1.928,3.854,1.285
		c4.496-1.285,1.926-5.139,3.854-8.992c0.643-3.854,4.496-5.139,1.285-8.992c-1.285-1.927-3.854-1.927-3.854-1.927L96.057,165.014
		L96.057,165.014z"/>
	<path style="fill-rule:evenodd;clip-rule:evenodd;fill:#3B66A6;" d="M96.057,165.655l15.414-5.138c0,0,2.57-1.284,2.57-3.212
		c0-4.496-3.854-3.211-7.064-6.422c-3.855-1.928-3.855-5.781-8.352-4.496c-2.568,1.284-3.21,3.854-3.21,3.854L96.057,165.655
		L96.057,165.655z"/>
	<polygon style="fill-rule:evenodd;clip-rule:evenodd;fill:#3B66A6;" points="96.057,143.818 94.772,148.313 96.057,151.525 
		97.984,148.313 96.057,143.818 	"/>
	<polygon style="fill-rule:evenodd;clip-rule:evenodd;fill:#3B66A6;" points="76.146,158.591 79.357,161.802 83.211,161.159 
		80.642,158.591 76.146,158.591 	"/>
	<polygon style="fill-rule:evenodd;clip-rule:evenodd;fill:#3B66A6;" points="83.853,182.355 87.707,180.429 88.349,176.574 
		85.138,178.501 83.853,182.355 	"/>
	<polygon style="fill-rule:evenodd;clip-rule:evenodd;fill:#3B66A6;" points="108.902,182.355 107.617,178.501 104.406,176.574 
		105.049,180.429 108.902,182.355 	"/>
	<polygon style="fill-rule:evenodd;clip-rule:evenodd;fill:#3B66A6;" points="116.609,158.591 112.113,158.591 109.545,161.159 
		112.756,161.802 116.609,158.591 	"/>
	<path style="fill-rule:evenodd;clip-rule:evenodd;fill:#FFFFFF;" d="M94.772,164.371l0.643-10.919c0,0,0-1.927-1.284-2.568
		c-3.212-0.643-3.212,1.926-5.781,3.854c-1.927,1.927-5.138,1.284-5.138,4.496c0,1.926,1.927,2.568,1.927,2.568L94.772,164.371
		L94.772,164.371z"/>
	<path style="fill-rule:evenodd;clip-rule:evenodd;fill:#FFFFFF;" d="M94.772,166.298l-9.634-3.854c0,0-1.927-0.643-3.211,0.643
		c-1.927,2.568,1.284,3.854,1.926,6.423c1.285,2.568,0,5.138,3.212,6.423c1.284,0,2.569-1.285,2.569-1.285L94.772,166.298
		L94.772,166.298z"/>
	<path style="fill-rule:evenodd;clip-rule:evenodd;fill:#FFFFFF;" d="M97.342,166.94l-7.065,8.35c0,0-1.285,1.284-0.642,2.569
		c1.927,3.211,3.854,0.642,7.064,0.642c3.211-0.642,4.497,1.928,6.422-0.642c1.285-1.927,0-3.212,0-3.212L97.342,166.94
		L97.342,166.94z"/>
	<path style="fill-rule:evenodd;clip-rule:evenodd;fill:#FFFFFF;" d="M98.625,165.014l5.139,8.992c0,0,1.285,1.927,2.57,1.284
		c3.211-0.643,1.283-3.212,2.568-6.423c0.643-2.569,3.211-3.854,1.285-6.423c-1.285-1.285-3.211-1.285-3.211-1.285L98.625,165.014
		L98.625,165.014z"/>
	<path style="fill-rule:evenodd;clip-rule:evenodd;fill:#FFFFFF;" d="M96.699,163.087l10.278-1.928c0,0,1.926-0.642,1.926-2.568
		c0.643-3.212-2.568-1.927-5.139-3.854c-2.568-1.928-2.568-4.496-5.779-3.212c-1.928,0-1.928,1.927-1.928,1.927L96.699,163.087
		L96.699,163.087z"/>
	<path style="fill-rule:evenodd;clip-rule:evenodd;fill:#3B66A6;" d="M96.057,165.655l-5.78,6.423c0,0-0.642,1.928,0,2.569
		c1.285,2.569,3.211,0.643,5.78,0.643c3.211,0,4.496,1.927,6.424-0.643c0.641-0.642,0-2.569,0-2.569L96.057,165.655L96.057,165.655z
		"/>
	<path style="fill-rule:evenodd;clip-rule:evenodd;fill:#3B66A6;" d="M96.057,165.655l4.496,7.708c0,0,1.285,1.284,2.568,0.643
		c3.213-0.643,1.928-3.212,2.57-5.781s3.211-3.211,1.285-5.78c-0.643-1.285-2.57-0.643-2.57-0.643L96.057,165.655L96.057,165.655z"
		/>
	<path style="fill-rule:evenodd;clip-rule:evenodd;fill:#3B66A6;" d="M96.057,165.655l8.992-1.927c0,0,1.928-0.642,1.928-2.569
		c0-2.568-2.57-1.926-4.496-3.854c-2.57-1.284-2.57-3.854-5.782-3.211c-1.284,0.643-1.284,2.569-1.284,2.569L96.057,165.655
		L96.057,165.655z"/>
	<path style="fill-rule:evenodd;clip-rule:evenodd;fill:#3B66A6;" d="M96.057,165.655l1.285-8.991c0,0,0-1.927-1.927-2.569
		c-2.569-0.643-2.569,1.927-5.138,3.211c-1.927,1.928-4.496,1.285-4.496,3.854c0,1.928,1.927,2.569,1.927,2.569L96.057,165.655
		L96.057,165.655z"/>
	<path style="fill-rule:evenodd;clip-rule:evenodd;fill:#3B66A6;" d="M96.057,165.655l-7.708-3.854c0,0-1.927-0.643-3.211,0.643
		c-1.285,2.569,1.284,3.211,1.927,5.78c0.642,2.569-0.643,5.139,1.927,5.781c1.927,0.642,2.569-0.643,2.569-0.643L96.057,165.655
		L96.057,165.655z"/>
	<path style="fill-rule:evenodd;clip-rule:evenodd;fill:#FFFFFF;" d="M89.634,165.655c0-3.854,3.211-7.064,6.422-7.064
		c3.854,0,7.064,3.211,7.064,7.064c0,3.212-3.211,6.423-7.064,6.423C92.845,172.078,89.634,168.867,89.634,165.655L89.634,165.655z"
		/>
	<path style="fill-rule:evenodd;clip-rule:evenodd;fill:#3B66A6;" d="M94.772,165.655c0-1.284,0.643-1.927,1.285-1.927
		c1.285,0,1.928,0.643,1.928,1.927c0,0.643-0.643,1.285-1.928,1.285C95.415,166.94,94.772,166.298,94.772,165.655L94.772,165.655z"
		/>
	<path style="fill-rule:evenodd;clip-rule:evenodd;fill:#3B66A6;" d="M22.194,124.55c0,0-1.284,5.138-1.926,12.846
		c-0.643,5.78-0.643,10.918-0.643,10.918s-0.642,3.854,12.846,8.992c3.854,1.285,8.35,5.139,8.35,7.708
		c0,1.284-0.642,3.854-0.642,3.854s13.488-3.212,12.846-16.058c-0.643-10.276-8.35-12.203-14.772-14.771
		c-7.708-3.212-13.488-5.781-14.772-9.635C22.836,126.477,22.194,124.55,22.194,124.55L22.194,124.55z"/>
	<path style="fill-rule:evenodd;clip-rule:evenodd;fill:#FFFFFF;" d="M50.455,152.81c0,0-0.642-3.211-1.927-5.138
		c-3.211-5.139-8.992-7.065-14.772-8.35c-7.708-2.569-10.919-5.78-11.562-7.065c-0.743-0.991-1.006-1.689-1.049-2.177
		c0.038-0.243,0.078-0.479,0.116-0.706c0.124-0.237,0.291-0.328,0.291-0.328l-0.455,1.363c-0.147,0.965-0.296,2.035-0.438,3.193
		c0.243,0.406,0.564,0.895,0.893,1.224c1.927,1.284,3.854,3.854,12.204,6.423c1.927,0.643,10.276,1.927,14.772,7.707
		C49.812,150.884,50.455,152.81,50.455,152.81L50.455,152.81z"/>
	<path style="fill-rule:evenodd;clip-rule:evenodd;fill:#FFFFFF;" d="M42.748,161.802c0,0-1.927-4.496-3.854-5.78
		c-3.854-3.854-6.423-3.212-12.204-6.423c-3.009-1.806-6.016-4.17-6.911-6.046c-0.071,1.325-0.104,2.452-0.124,3.277
		c0.228,0.361,0.44,0.67,0.612,0.842c1.284,0.642,3.211,3.212,7.065,4.496c2.569,1.284,8.35,2.569,10.919,4.496
		C41.462,158.591,42.748,161.802,42.748,161.802L42.748,161.802z"/>
	<path style="fill-rule:evenodd;clip-rule:evenodd;fill:#3B66A6;" d="M169.92,124.55c0,0,1.926,5.138,2.568,12.846
		c0.643,5.78,0.643,10.918,0.643,10.918s0.643,3.854-12.846,8.992c-3.854,1.285-8.35,5.139-8.35,7.708
		c-0.643,1.284,0.643,3.854,0.643,3.854s-13.488-3.212-12.846-16.058c0-10.276,8.35-12.203,14.771-14.771
		c7.709-3.212,13.488-5.781,14.773-9.635C169.92,126.477,169.92,124.55,169.92,124.55L169.92,124.55z"/>
	<path style="fill-rule:evenodd;clip-rule:evenodd;fill:#FFFFFF;" d="M142.301,152.81c0,0,0.643-3.211,1.928-5.138
		c3.211-5.139,8.992-7.065,14.771-8.35c7.709-2.569,10.277-5.78,11.562-7.065c0.529-0.708,0.82-1.262,0.961-1.704
		c-0.102-0.501-0.201-0.974-0.305-1.419l0.627,3.766c0,0,0,1.284-0.641,1.927c-1.928,1.284-3.855,3.854-12.205,6.423
		c-1.926,0.643-10.275,1.927-14.771,7.707C142.943,150.884,142.301,152.81,142.301,152.81L142.301,152.81z"/>
	<path style="fill-rule:evenodd;clip-rule:evenodd;fill:#FFFFFF;" d="M150.008,161.802c0,0,1.928-4.496,3.213-5.78
		c3.854-3.854,7.064-3.212,12.846-6.423c3.012-1.806,6.027-4.172,6.92-6.051c0.07,1.327,0.111,2.457,0.129,3.284
		c-0.227,0.362-0.455,0.668-0.627,0.84c-1.283,0.642-3.211,3.212-7.064,4.496c-2.57,1.284-8.35,2.569-10.92,4.496
		C151.293,158.591,150.008,161.802,150.008,161.802L150.008,161.802z"/>
	<path style="fill-rule:evenodd;clip-rule:evenodd;fill:#C9222F;" d="M86.221,144.277c-21.699-2.289-40.015-14.035-50.765-31.853
		h57.135v5.873H47.899c0,0,2.588,2.986,6.569,5.973h38.124v5.972H62.83c0,0,10.949,6.669,23.392,7.864V144.277L86.221,144.277z"/>
	<path style="fill-rule:evenodd;clip-rule:evenodd;fill:#C9222F;" d="M103.143,135.617v-15.229c0,0,0-1.991,2.189-1.991h41.707
		c1.594-2.09,3.086-3.782,4.381-5.973h-50.367c-4.18,0-4.082,4.082-4.082,4.082v23.889c0,4.28,4.082,3.782,4.082,3.782
		c15.926-1.692,30.061-8.958,40.711-19.708h-8.262c-12.939,10.551-23.391,12.343-27.971,12.84
		C105.531,137.31,103.143,137.708,103.143,135.617L103.143,135.617z"/>
	<path style="fill-rule:evenodd;clip-rule:evenodd;fill:#C9222F;" d="M150.125,109.24c-4.777,0-13.936,0-17.021,0
		c-4.18,0-4.18-2.091-4.18-2.091s0.1,2.091-4.381,2.091c-4.379,0-23.291,0-23.291,0s-4.281,0.1-4.281-4.181V8.508
		c4.779,0.299,9.457,0.996,14.035,2.19v81.72c0,0-0.199,2.289,2.291,2.289h6.867c0,0,2.289,0.1,2.289-2.289l0.1-77.54
		c4.48,2.19,8.76,4.777,12.643,7.863v69.676c0,0-0.1,2.289,2.189,2.289h3.484c8.758,0,7.764-17.418,7.764-17.418
		c0-12.144-4.977-21.998-4.977-21.998V30.407c11.148,12.144,17.916,28.368,17.916,46.086c0,10.75-2.488,20.903-6.867,29.861
		C154.705,106.354,153.51,109.24,150.125,109.24L150.125,109.24z"/>
	<path style="fill-rule:evenodd;clip-rule:evenodd;fill:#C9222F;" d="M92.592,12.689v42.602c0,0,0.1,4.28-4.181,4.28
		c0,0,4.181,0,4.181,4.28v41.208c0,4.38-4.181,4.181-4.181,4.181H33.764c-5.375-9.755-8.361-20.903-8.361-32.748
		c0-36.63,28.866-66.491,65.099-67.984C90.501,8.508,92.592,8.21,92.592,12.689L92.592,12.689z M78.955,69.127
		c0-2.29-2.19-2.29-2.19-2.29H41.728c0,0-4.678,15.03,2.09,27.871h32.947c0,0,2.19,0.1,2.19-2.289V69.127L78.955,69.127z
		 M45.809,53.101h30.957c0,0,2.19,0.199,2.19-1.991V24.435C78.955,24.435,60.739,25.629,45.809,53.101L45.809,53.101z"/>
</g>
</svg>
