<?xml version="1.0" encoding="utf-8"?>
<!DOCTYPE svg PUBLIC "-//W3C//DTD SVG 1.1//EN" "http://www.w3.org/Graphics/SVG/1.1/DTD/svg11.dtd" [
<!ENTITY ns_svg "http://www.w3.org/2000/svg">
<!ENTITY ns_xlink "http://www.w3.org/1999/xlink">
]>
<svg  version="1.1" id="Layer_1" xmlns="&ns_svg;" xmlns:xlink="&ns_xlink;" width="123.119" height="176.742"
viewBox="0 0 123.119 176.742" overflow="visible" enable-background="new 0 0 123.119 176.742" xml:space="preserve">
<path fill="#D28213" d="M53.233,61.816c-0.882-1.026,0-2.125,0.586-2.418c-1.026,0.293-0.925-0.345-1.782,0.45
c-0.123-1.403-0.039-1.696,1.311-1.916c1.351-0.22,3.842-0.514,4.869-0.368c1.026,0.147,1.458,0.148,1.833,0.294l-0.439-2.492
c0.22-1.247-0.293-6.157-0.293-6.157c-2.126-0.513-4.618-2.565-5.791-4.179c-1.172-1.612,0-0.805-2.419-1.245
c-2.418-0.44-5.057-0.22-7.916-1.76c-2.858-1.539-5.204-2.638-5.277-8.868c-0.073-6.231,0.22-7.476,1.027-8.282
c0.073-2.711,1.172-6.523,1.612-7.256c0.439-0.732,1.465-1.832,2.272-2.711c-1.906,0.439-4.324,0.293-4.178-1.685
c0.146-1.979,0.66-3.299,1.76-4.032c-1.393-0.293-2.249-0.464-3.152,0.147c0.195-1.076,1.026-2.175,1.71-2.37
c0.098-1.172,0.782-2.443,1.758-2.834c-0.782-1.075-1.27-2.932,0.098-3.323c1.368-0.391,0.904-0.342,1.637,0.025
c0.733,0.366,1.299,0.379,1.712,0.116c0.413-0.262,0.779-0.262,1.146-0.116c0.367,0.146,0.711-0.034,1.246-0.367
c0.656-0.408,1.157-0.583,1.539-0.601h0.124c1.072,0.053,1.083,1.483,0.976,2.287c1.246,0.293,1.319,1.246,1.246,2.126
c1.247,1.245,0.586,2.858-0.514,1.832c-0.218,0.44-0.585,0.953-0.146,1.613c0.88,1.319,1.026,5.277,0.953,7.549
s1.795,6.193,2.932,7.329c1.612,1.613,5.203,1.833,7.988,1.686c2.785-0.146,5.204-0.953,7.036-3.811
c1.833-2.859,2.931-4.471,3.885-6.084c0.953-1.612,4.437-6.268,6.45-7.623c3.591-2.418,11.117-2.612,15.967,3.458
c-0.576-0.014-0.355,0.28-1.455-0.306c0.22,1.465-0.587,2.565-1.833,2.125c-1.246-0.439-2.338-0.63-1.756,1.004
c-2.495-0.857-4.034-1.077-3.155,0.682c0.78,1.559,1.101,2.199,0.954,3.592c7.036,4.617,6.742,13.046,0.659,16.857
c-0.953-1.025-1.722-1.406-2.289,0.25c-1.01-0.542-1.487-0.501-2.018-0.302c0.716,2.618-1.012,5.013-2.823,6.051
c-0.199-1.454-1.104-1.757-1.715-2.118c-0.903,1.471-2.003,2.423-2.736,3.009c-0.731,0.587-1.243,1.291-0.806,2.2
c-1.173-0.806-1.173-1.026-1.393-1.393c-1.172,0.586-2.253,0.951-2.629,1.832c-0.521-0.073-0.744,0.383-1.513-0.101
c-0.987,1.274-1.58,1.55-2.421,1.815l-0.906-0.605c-0.887,1.383-1.912,2.189-4.038,2.482c0.293,2.711,0.366,6.01,0.22,7.183
c1.026-0.807,1.759-1.319,2.565-0.732c-0.88,0.878-2.907,3.361-3.664,5.129c-0.22,0.514-0.953,0.514-1.686,0.514
c-0.733,0-2.786,0.953-4.911,0.66c-0.66,0.586-1.246,0.88-1.979,1.32C52.939,61.816,53.233,61.523,53.233,61.816L53.233,61.816
L53.233,61.816z"/>
<path fill="#FFC416" d="M60.709,161.705c31.061,0,40.34-5.043,43.163-6.051c1.412-1.412-1.008-2.421-3.025-3.632v-11.496
c0-4.639,12.506-2.218,19.968-6.857c0.001,0-3.025,4.841-6.454,7.261c2.621,2.421,6.453,7.864,7.06,9.076v0.001
c-0.017-0.01-7.87-4.235-11.093-3.228c2.017,0.807,4.84,2.823,4.84,4.438v11.094c-7.865,7.058-29.446,11.697-54.458,11.697
c-25.01,0-46.591-4.64-54.458-11.697v-11.094c0-1.614,2.824-3.631,4.841-4.438C7.866,145.771,0,150.007,0,150.007
c0.604-1.211,4.437-6.656,7.059-9.077c-3.429-2.42-6.455-7.261-6.455-7.261c7.462,4.64,19.968,2.219,19.968,6.857v11.496
c-2.017,1.211-4.437,2.22-3.025,3.632C20.371,156.662,29.649,161.705,60.709,161.705L60.709,161.705L60.709,161.705z"/>
<path fill="#292420" d="M20.572,152.022c-2.017,1.21-4.437,2.22-3.025,3.631l0.908,0.403c-4.639-1.614-11.094-3.832-12.203-4.841
c0-1.614,2.824-3.631,4.841-4.438c2.421-1.209,9.479-3.933,9.479-6.856V152.022z"/>
<path fill="#292420" d="M100.847,152.022c2.018,1.21,4.438,2.22,3.025,3.631l-0.907,0.403c4.64-1.614,11.093-3.832,12.202-4.841
c0-1.614-2.823-3.631-4.84-4.438c-2.42-1.209-9.48-3.933-9.48-6.856V152.022z"/>
<polygon fill="#292420" points="21.456,166.885 20.074,166.484 21.656,161.038 19.657,160.457 19.997,159.288 25.378,160.851 
25.039,162.021 23.039,161.44 "/>
<polygon fill="#292420" points="28.345,165.387 27.749,168.419 26.336,168.141 27.666,161.38 29.079,161.658 28.575,164.22 
31.212,164.738 31.716,162.176 33.128,162.453 31.798,169.216 30.386,168.937 30.982,165.904 "/>
<polygon fill="#292420" points="40.96,164.775 37.334,164.306 37.147,165.741 40.478,166.175 40.322,167.381 36.99,166.951 
36.761,168.721 40.549,169.213 40.392,170.421 35.206,169.747 36.091,162.916 41.117,163.567 "/>
<path fill="#292420" d="M47.959,171.086l0.356-6.881l1.318,1.26l-0.078,1.505l1.687,0.087c0.566,0.029,1.027-0.168,1.056-0.715
c0.029-0.565-0.365-0.758-1.016-0.792l-1.648-0.085l-1.318-1.26l3.344,0.173c1.687,0.088,2.064,1.163,2.027,1.872
c-0.051,0.987-0.621,1.236-0.916,1.365c0.827,0.36,1.012,1.043,0.978,1.724c-0.029,0.545-0.286,1.052-0.668,1.387
c-0.413,0.363-0.798,0.584-2.208,0.511L47.959,171.086l1.442-1.118l1.763,0.092c0.699,0.036,1.118-0.25,1.154-0.949
c0.03-0.604-0.475-0.861-0.993-0.888l-1.83-0.094l-0.095,1.839L47.959,171.086L47.959,171.086L47.959,171.086z"/>
<polygon fill="#292420" points="58.653,168.867 60.409,168.878 59.572,166.146 59.553,166.146 58.653,168.867 58.261,170.053 
57.772,171.471 56.256,171.46 58.757,164.587 60.417,164.598 62.801,171.504 61.237,171.493 60.804,170.07 58.261,170.053 "/>
<polygon fill="#292420" points="69.589,164.399 70.932,164.349 71.196,171.232 69.758,171.289 66.76,166.487 66.74,166.488 
66.929,171.397 65.586,171.449 65.321,164.564 66.837,164.505 69.754,169.196 69.774,169.194 "/>
<polygon fill="#292420" points="77.42,170.777 75.986,170.896 75.512,165.246 73.437,165.419 73.334,164.207 78.918,163.736 
79.021,164.951 76.945,165.125 "/>
<polygon fill="#292420" points="83.763,167.462 85.503,167.224 84.287,164.64 84.268,164.643 83.763,167.462 83.544,168.692 
83.261,170.165 81.759,170.37 83.258,163.211 84.903,162.986 88.243,169.483 86.693,169.695 86.063,168.348 83.544,168.692 "/>
<polygon fill="#292420" points="97.636,167.607 96.322,167.887 95.118,162.259 95.1,162.263 95.046,168.16 93.667,168.456 
91.233,163.088 91.215,163.093 92.419,168.723 91.105,169.004 89.664,162.267 91.72,161.827 94.075,166.876 94.094,166.872 
94.159,161.305 96.194,160.871 "/>
<path fill="#292420" d="M101.434,164.315c0.129,0.36,0.542,0.992,1.735,0.596c0.646-0.215,1.314-0.608,1.084-1.301
c-0.17-0.51-0.707-0.482-1.453-0.416l-0.756,0.068c-1.137,0.104-2.236,0.207-2.715-1.232c-0.241-0.728-0.276-2.143,1.846-2.846
c2.004-0.667,2.977,0.467,3.251,1.264l-1.311,0.437c-0.134-0.28-0.473-0.935-1.665-0.539c-0.521,0.173-1.076,0.569-0.879,1.161
c0.17,0.51,0.624,0.481,0.919,0.454l1.724-0.138c0.965-0.079,1.905,0.013,2.296,1.188c0.654,1.967-1.292,2.805-1.866,2.995
c-2.387,0.793-3.253-0.445-3.521-1.257L101.434,164.315L101.434,164.315L101.434,164.315z"/>
<path fill="#292420" d="M80.88,64.083l22.791,18.355c-5.243,6.252-9.479,13.916-9.479,24.203c0,10.286,4.236,18.96,10.085,25.011
l-8.068,14.925c-7.866,0-23.8,5.043-35.499,17.347c-11.698-12.304-27.632-17.347-35.499-17.347l-8.067-14.925
c5.85-6.051,10.084-14.725,10.084-25.011c0-10.287-4.235-17.951-9.479-24.203l22.792-18.355H80.88L80.88,64.083L80.88,64.083z"/>
<path fill="#FFFEDD" d="M41.739,69.105L24.126,83.486c4.465,5.988,8.072,14.245,8.072,23.185s-4.067,19.343-9.119,25.191l5.04,9.896
c7.22,0,22.793,5.304,32.587,15.419c9.651-10.115,25.367-15.419,32.588-15.419l5.038-9.896c-5.052-5.849-9.118-16.251-9.118-25.191
c0.001-8.939,3.606-17.195,8.072-23.185L79.675,69.105H41.739L41.739,69.105z"/>
<path fill="#FFC416" d="M87.319,106.683c0-8.427,3.367-16.908,7.535-22.796L79.216,71.02H42.195L26.556,83.885
c4.168,5.888,7.536,14.371,7.536,22.797s-4.003,19.487-8.751,25.262l3.886,7.978c6.975,0,22.411,5.403,31.479,14.686
c8.872-9.282,24.504-14.686,31.479-14.686l3.885-7.978C91.321,126.17,87.319,115.109,87.319,106.683L87.319,106.683z"/>
<path fill="#83424A" d="M96.069,131.943c-4.748-5.774-8.75-16.835-8.75-25.262c0-8.426,3.367-16.908,7.535-22.796L82.393,73.632
v68.204c3.877-1.245,7.364-1.914,9.792-1.914L96.069,131.943L96.069,131.943L96.069,131.943z"/>
<path fill="#83424A" d="M53.443,71.02v77.716c2.642,1.732,5.132,3.69,7.262,5.872c2.09-2.187,4.562-4.148,7.199-5.885V71.02H53.443
L53.443,71.02L53.443,71.02z"/>
<path fill="#83424A" d="M26.556,83.885c4.168,5.888,7.536,14.371,7.536,22.797s-4.003,19.487-8.751,25.262l3.886,7.978
c2.42,0,5.87,0.665,9.708,1.902V73.702L26.556,83.885L26.556,83.885L26.556,83.885z"/>
<path fill="#FFFFFF" d="M51.432,99.18c0,1.916-1.008,2.219-3.833,2.219V80.624c2.824,0,3.833,0.302,3.833,2.219V99.18L51.432,99.18z
M51.432,123.987c0,1.917-1.008,2.219-3.833,2.219v-23.195c2.824,0,3.833,0.304,3.833,2.22V123.987z M52.441,101.801
c4.437-2.219,8.269-4.235,8.269-11.295c0-10.286-8.47-11.295-13.11-11.295H35.498v1.413h3.025v45.583h-3.025v1.211H47.6
c6.252,0,13.715-4.034,13.715-13.11C61.314,107.449,57.08,103.818,52.441,101.801L52.441,101.801L52.441,101.801z"/>
<path fill="#FFFFFF" d="M73.215,81.026c0-0.806,0.604-1.16,1.312-1.16c4.51-0.001,7.699,7.379,8.811,17.389h1.576V78.506H83.4
l-2.859,3.252c-1.751-2.339-3.812-3.688-6.015-3.688c-7.456,0-11.553,11.303-11.553,25.244c0,13.94,4.097,25.243,11.553,25.243
c6.72,0,10.206-9.138,10.929-21.158h-1.81c-0.664,10.98-3.515,19.361-9.119,19.361c-0.707,0-1.312-0.555-1.312-1.462V81.026
L73.215,81.026z"/>
<polygon fill="#292420" points="85.721,140.93 85.721,130.414 35.7,130.414 35.7,140.93 "/>
<path fill="#FFFFFF" d="M47.789,136.63l1.032-3.182h0.023l0.997,3.182H47.789L47.789,136.63z M49.818,131.631h-1.939l-2.87,8.049
h1.771l0.561-1.659h2.97l0.515,1.659h1.827L49.818,131.631L49.818,131.631z"/>
<polygon fill="#FFFFFF" points="60.793,139.68 59.111,139.68 59.111,131.631 64.839,131.631 64.839,133.055 60.793,133.055 
60.793,134.87 64.334,134.87 64.334,136.295 60.793,136.295 "/>
<path fill="#FFFFFF" d="M76.473,134.267c-0.134-0.482-0.393-1.39-1.782-1.39c-0.808,0-1.995,0.537-1.995,2.813
c0,1.447,0.572,2.747,1.995,2.747c0.931-0.001,1.58-0.527,1.782-1.514l1.681-0.001c-0.336,1.75-1.479,2.971-3.496,2.971
c-2.142,0-3.678-1.445-3.678-4.226c0.001-2.813,1.626-4.247,3.699-4.247c2.41,0,3.386,1.658,3.475,2.847H76.473L76.473,134.267z"/>
<path fill="#292420" d="M40.238,4.684c0.605-0.604,1.815-0.807,3.53-0.807c2.42,0,7.059,1.917,7.059,9.48
c0,2.42-0.907,5.144,3.43,10.186c-0.302,0.605-1.815-0.101-3.126-1.916c-0.303,1.311-0.404,2.622,0.907,3.832
c-1.311,0-2.722-0.1-3.53-1.412c-0.807,0.706-2.218,0.909-3.125,0.101c-0.606,0.504-2.219,2.925-2.32-0.202
c-0.102-2.016-2.924-1.312-2.924-3.934c0-3.831,4.235-5.244,4.235-7.462c0-0.504-0.807-0.806-0.807-1.311
c0-2.219,1.917-0.807,1.917-3.529c0-2.219-1.815-2.319-4.941-2.521C40.138,5.188,39.834,4.987,40.238,4.684L40.238,4.684
L40.238,4.684z"/>
<path fill="#292420" d="M41.146,8.113c0,0-0.404-1.108-1.512-1.108c-0.908,0.201-1.917,0.504-2.018,2.017
C38.574,8.012,39.834,9.122,41.146,8.113L41.146,8.113z"/>
<path fill="#292420" d="M42.86,7.747c0.354,0,0.642-0.287,0.642-0.641c0-0.356-0.288-0.643-0.642-0.643s-0.642,0.287-0.642,0.643
C42.218,7.459,42.506,7.747,42.86,7.747L42.86,7.747z"/>
<path fill="#292420" d="M41.347,9.021c-0.907,0-2.42,1.412-2.42,4.136c0,1.108,0.907,1.815,1.917,0.302
C41.649,11.946,43.163,9.021,41.347,9.021L41.347,9.021z"/>
<path fill="#6C7068" d="M38.725,25.359c-0.807,1.714-0.706,4.941-0.706,8.672c0,10.589,13.513,8.875,15.127,10.286
c1.312,1.412,2.622,4.034,5.547,4.236c-1.11-1.513-3.328-5.647-5.95-6.051c-6.757-1.008-13.211-3.227-13.211-8.571
c0-1.715-0.202-5.547,0.201-8.372C39.935,24.451,39.027,24.956,38.725,25.359L38.725,25.359L38.725,25.359z"/>
<path fill="#292420" d="M55.81,24.798c0.007-0.211-0.032-0.487-0.142-0.852c3.832,0.504,8.774,1.009,10.791-0.807
c5.749-4.841,8.269-17.85,17.85-17.85c3.43,0,7.362,1.109,10.691,4.942c-1.816,0-6.052-3.631-10.59-3.631
c-8.472,0-12.304,15.53-17.346,17.749c-1.815,0.908-7.765,1.816-10.287,1.11L55.81,24.798L55.81,24.798z"/>
<path fill="#FFC416" d="M40.439,1.255c2.219-1.21,2.017,0.403,3.731-0.302c1.311-0.505,1.008,0.605,2.924-0.605
c0.908-0.504,2.42-0.907,2.016,2.018c1.11-0.102,1.313,0.807,1.313,2.118c0.706,0.604,1.008,2.823-0.908,1.108
c-1.108-1.108-2.016-2.823-8.37-2.823C40.338,2.769,39.431,1.861,40.439,1.255L40.439,1.255L40.439,1.255z"/>
<path fill="#FFC416" d="M40.944,24.552c-0.403,2.823-0.504,8.27-0.202,9.581c1.614,5.546,7.463,4.638,8.673,6.151
c0.504,0.807,2.824,1.311,2.117-0.303c-2.218-4.336-6.15-1.008-7.967-5.95c-1.009-2.824,0.102-4.639,0.102-6.354
s-1.715,0-1.715-2.722C41.649,24.652,40.944,24.047,40.944,24.552L40.944,24.552L40.944,24.552z"/>
<path fill="#FFC416" d="M55.563,25.372c-0.3,0.245-0.76,0.193-0.703,0.591c0.605,1.513,3.53,1.312,4.235,4.135
c0.505,1.209,2.117,3.127,3.329,2.32c-1.009-1.614-0.707-3.631,1.613-3.631c1.008,0,3.227,2.219,3.126,0.505
c-0.101-1.414,2.421,0.504,2.319-1.009c-0.101-1.815,2.018-0.705,2.219-2.118c0.202-1.412,2.219-2.521,3.632-2.42
c-2.221-2.421-7.162,3.026-13.313,3.026c-1.513,0-3.653-0.236-4.83-0.984C57.191,25.786,56.056,25.692,55.563,25.372L55.563,25.372z
"/>
<path fill="#FFC416" d="M71.602,22.333c2.117-4.236,6.958-13.716,11.598-14.421c0.604,1.108-0.102,1.815-2.117,3.025
c-2.623,1.714-5.851,5.647-8.37,10.589C72.712,21.526,72.207,21.93,71.602,22.333L71.602,22.333z"/>
<path fill="#292420" d="M75.736,18.601c2.118-3.528,7.361-11.798,17.85-7.865c-0.202,1.009-0.604,1.917-2.823,1.009
c-0.706-0.302-1.312,0.505-0.808,1.31c-0.504,0.203-3.933-1.714-3.429,0.102c0.505,1.108,1.815,3.327,0.706,5.445
c-2.42-1.714-3.731-1.614-6.857-1.614C78.964,16.987,77.249,18.601,75.736,18.601L75.736,18.601L75.736,18.601z"/>
<path fill="#292420" d="M50.424,33.526c0.101,2.824,2.117,3.429,3.53,4.035c2.218,1.108,7.966,3.63,7.966,5.849
c0,1.11,0.202,3.53,0.202,3.833c0.402,0.202,3.328,0.202,5.042-2.42l0.907,0.605c0,0,1.815-0.605,2.421-1.815l1.513,0.101
c0.202-0.707,1.916-1.917,2.824-1.815c0,0,0.101,0.604,0.907,0.908c0-1.615,3.429-3.429,3.832-4.74
c0.706,0.201,2.318,1.108,1.715,2.118c0.807-0.505,3.731-3.026,2.823-6.051c0,0,1.614-0.606,2.018,0.302
c0,0,0.504-1.009,0.806-1.109c0,0,1.412,0.1,1.312,0.807c1.312-0.807,1.613-2.723,1.613-5.85c0.001-2.824-2.521-7.765-11.295-7.462
c-0.201,0.605,0.504,1.11,1.614,1.21c1.109,0.1,3.429,1.008,4.437,2.722c-2.724-1.412-8.572-1.714-9.58,0.807
c0.706-0.101,3.328,0.202,4.437,1.917c0.001,0-1.915-0.302-2.318-0.605c0,0-0.203,1.11,0.706,1.917
c-0.909-0.102-1.715-0.706-2.925-1.412c-0.303-0.202-0.706,0.707,0,1.311c1.109,0.908,2.925,2.926,3.529,4.841
c0,0-0.403,1.21-1.21,0c-0.101-0.403-2.622-3.327-3.731-4.134c-1.109-0.807-1.815,0.403-0.706,1.311
c0.505,0.404,3.025,2.723,2.925,4.135c0,0-0.102,1.815-1.412,0.102c-1.109-1.514-2.925-2.925-3.934-3.429
c-1.512-0.807-1.311,0.404-0.504,1.211c0,0,2.219,2.52,2.622,3.73c0.303,0.605-0.706,1.109-1.512,0.202
c-1.01-1.311-3.833-3.932-5.244-4.841c-1.514-0.908-2.018,0.102-0.908,1.209c1.009,1.11,3.227,3.833,3.227,4.64
c0,0.705-1.916,1.21-3.227,1.21c-3.731,0-9.177-2.32-12.605-4.74C51.734,33.829,51.129,33.526,50.424,33.526L50.424,33.526
L50.424,33.526z"/>
<path fill="#292420" d="M89.855,19.206c-1.109,0.605-0.908,1.413-0.202,2.219c0.907,1.109,2.621,4.235,1.513,9.984
C93.485,29.19,93.688,22.534,89.855,19.206L89.855,19.206z"/>
<path fill="#292420" d="M59.499,49.36c0,1.209,0.606,4.235,0.404,5.345c-0.404,0.604-0.302,1.311,1.11,0.907
c0,0,0.201-3.629-0.303-6.454L59.499,49.36L59.499,49.36z"/>
<path fill="#292420" d="M61.416,49.057c0,0,0.604,6.455,0.302,7.866l-1.31,1.01c-2.32-0.505-4.841,0-7.06,0
c-1.008,0-1.815,0.907-1.311,1.916c0,0,1.11-0.907,2.018-0.403c-0.403,0.201-1.613,1.008-0.807,2.219
c0.303-0.707,1.109-0.404,2.118-1.614c1.916-0.001,4.538-0.807,5.949-0.705c0.706-0.001,1.312-1.312,1.412-1.815
c0,0,1.613-2.623,2.622-3.329c1.109-0.605-0.504-0.503-1.109-0.201l-1.108,0.908c0.201-1.209,0-4.336-0.304-6.051
C62.827,48.855,61.113,48.15,61.416,49.057L61.416,49.057z"/>
<path fill="#292420" d="M100.847,152.022c2.018,1.21,4.438,2.22,3.025,3.631l-0.907,0.403c4.64-1.614,11.093-3.832,12.202-4.841
c0-1.614-2.823-3.631-4.84-4.438c-2.42-1.209-9.48-3.933-9.48-6.856V152.022z"/>
<path fill="#6C7068" d="M53.146,44.317c-1.614-1.412-15.127,0.303-15.127-10.286c0-3.731-0.101-6.958,0.706-8.672
c0.302-0.403,1.209-0.908,1.008,0.201c-0.403,2.825-0.201,6.657-0.201,8.372c0,5.344,6.454,7.563,13.211,8.571
c2.622,0.404,4.84,4.539,5.95,6.051C55.769,48.351,54.458,45.729,53.146,44.317L53.146,44.317z"/>
<path fill="#6C7068" d="M52.743,42.502c-6.757-1.008-13.211-3.227-13.211-8.571c0-1.715-0.202-5.547,0.201-8.372
c0.201-1.109-0.706-0.604-1.008-0.201c-0.807,1.714-0.706,4.941-0.706,8.672c0,10.589,13.513,8.875,15.127,10.286
c1.312,1.412,2.622,4.034,5.547,4.236C57.583,47.041,55.365,42.906,52.743,42.502L52.743,42.502z"/>
<path fill="#676962" d="M53.146,44.317c-1.614-1.412-15.127,0.303-15.127-10.286c0-3.731-0.101-6.958,0.706-8.672
c0.302-0.403,1.209-0.908,1.008,0.201c-0.403,2.825-0.201,6.657-0.201,8.372c0,5.344,6.454,7.563,13.211,8.571
c2.622,0.404,4.84,4.539,5.95,6.051C55.769,48.351,54.458,45.729,53.146,44.317L53.146,44.317z"/>
<path fill="#676962" d="M52.743,42.502c-6.757-1.008-13.211-3.227-13.211-8.571c0-1.715-0.202-5.547,0.201-8.372
c0.201-1.109-0.706-0.604-1.008-0.201c-0.807,1.714-0.706,4.941-0.706,8.672c0,10.589,13.513,8.875,15.127,10.286
c1.312,1.412,2.622,4.034,5.547,4.236C57.583,47.041,55.365,42.906,52.743,42.502L52.743,42.502z"/>
<path fill="#61635B" d="M53.146,44.317c-1.614-1.412-15.127,0.303-15.127-10.286c0-3.731-0.101-6.958,0.706-8.672
c0.302-0.403,1.209-0.908,1.008,0.201c-0.403,2.825-0.201,6.657-0.201,8.372c0,5.344,6.454,7.563,13.211,8.571
c2.622,0.404,4.84,4.539,5.95,6.051C55.769,48.351,54.458,45.729,53.146,44.317L53.146,44.317z"/>
<path fill="#61635B" d="M52.743,42.502c-6.757-1.008-13.211-3.227-13.211-8.571c0-1.715-0.202-5.547,0.201-8.372
c0.201-1.109-0.706-0.604-1.008-0.201c-0.807,1.714-0.706,4.941-0.706,8.672c0,10.589,13.513,8.875,15.127,10.286
c1.312,1.412,2.622,4.034,5.547,4.236C57.583,47.041,55.365,42.906,52.743,42.502L52.743,42.502z"/>
<path fill="#5C5D56" d="M53.146,44.317c-1.614-1.412-15.127,0.303-15.127-10.286c0-3.731-0.101-6.958,0.706-8.672
c0.302-0.403,1.209-0.908,1.008,0.201c-0.403,2.825-0.201,6.657-0.201,8.372c0,5.344,6.454,7.563,13.211,8.571
c2.622,0.404,4.84,4.539,5.95,6.051C55.769,48.351,54.458,45.729,53.146,44.317L53.146,44.317z"/>
<path fill="#5C5D56" d="M52.743,42.502c-6.757-1.008-13.211-3.227-13.211-8.571c0-1.715-0.202-5.547,0.201-8.372
c0.201-1.109-0.706-0.604-1.008-0.201c-0.807,1.714-0.706,4.941-0.706,8.672c0,10.589,13.513,8.875,15.127,10.286
c1.312,1.412,2.622,4.034,5.547,4.236C57.583,47.041,55.365,42.906,52.743,42.502L52.743,42.502z"/>
<path fill="#56554E" d="M52.743,42.502c2.622,0.404,4.84,4.539,5.95,6.051c-2.925-0.202-4.235-2.824-5.547-4.236
c-1.614-1.412-15.127,0.303-15.127-10.286c0-3.731-0.101-6.958,0.706-8.672c0.302-0.403,1.209-0.908,1.008,0.201
c-0.403,2.825-0.201,6.657-0.201,8.372C39.532,39.275,45.986,41.494,52.743,42.502L52.743,42.502z"/>
<path fill="#292420" d="M39.532,33.931c0-1.715-0.202-5.547,0.201-8.372c0.201-1.109-0.706-0.604-1.008-0.201
c-0.807,1.714-0.706,4.941-0.706,8.672c0,10.589,13.513,8.875,15.127,10.286c1.312,1.412,2.622,4.034,5.547,4.236
c-1.11-1.513-3.328-5.647-5.95-6.051C45.986,41.494,39.532,39.275,39.532,33.931L39.532,33.931z"/>
<path fill="#47453F" d="M39.532,33.931c0-1.715-0.202-5.547,0.201-8.372c0.201-1.109-0.706-0.604-1.008-0.201
c-0.807,1.714-0.706,4.941-0.706,8.672c0,7.326,6.465,8.761,10.985,9.42c0.536-0.463,1.065-0.894,1.593-1.319
C44.683,40.981,39.532,38.705,39.532,33.931L39.532,33.931z"/>
<path fill="#3D3A35" d="M39.532,33.931c0-1.715-0.202-5.547,0.201-8.372c0.201-1.109-0.706-0.604-1.008-0.201
c-0.807,1.714-0.706,4.941-0.706,8.672c0,4.398,2.34,6.658,5.182,7.917c0.541-0.499,1.083-1.002,1.629-1.513
C41.699,39.065,39.532,37.023,39.532,33.931L39.532,33.931z"/>
<path fill="#332F2A" d="M39.733,25.56c0.201-1.109-0.706-0.604-1.008-0.201c-0.807,1.714-0.706,4.941-0.706,8.672
c0,1.863,0.435,3.328,1.133,4.512c0.467-0.43,0.935-0.866,1.405-1.305c-0.649-0.944-1.024-2.035-1.024-3.307
C39.532,32.216,39.331,28.384,39.733,25.56L39.733,25.56z"/>
<path fill="#292420" d="M39.733,25.56c0.201-1.109-0.706-0.604-1.008-0.201c-0.672,1.428-0.713,3.913-0.708,6.858
c0.49-0.478,0.98-0.956,1.469-1.436C39.472,29.096,39.503,27.169,39.733,25.56L39.733,25.56z"/>
<path fill="#5C5D56" d="M63.131,54.907c0.201-1.209,0-4.336-0.304-6.051L63.131,54.907L63.131,54.907z"/>
</svg>
