<?xml version="1.0" encoding="utf-8"?>
<!-- Generator: Adobe Illustrator 19.2.1, SVG Export Plug-In . SVG Version: 6.00 Build 0)  -->
<svg version="1.1" id="Layer_1" xmlns="http://www.w3.org/2000/svg" xmlns:xlink="http://www.w3.org/1999/xlink" x="0px" y="0px"
	 viewBox="0 0 1000 1000" style="enable-background:new 0 0 1000 1000;" xml:space="preserve">
<style type="text/css">
	.st0{display:none;}
	.st1{display:inline;}
	.st2{fill:#FBFEFF;}
	.st3{fill:#222D65;}
	.st4{fill:#E91D2E;}
	.st5{fill:#06AA56;}
	.st6{fill:#F5B41A;}
	.st7{fill:#231F20;}
</style>
<g id="Layer_2" class="st0">
	<rect x="822.5" y="227.5" class="st1" width="122.5" height="19.3"/>
</g>
<g>
	<path d="M206.5,343.2c-0.6,2.4-2.1,4.6-4.8,6.7c-0.3,3.6-2,6.1-5.1,7.5l0,0c0,3.4-1.3,6.2-4.4,8c-0.3,0.2-0.7,0.4-1.1,0.6
		c0.2,4.1-1.9,6.8-5.8,8.3l-0.2,0.1c-0.2,3.1-1.7,5.3-4.2,6.8c-0.7,3.6-2.3,6.2-4.7,8c-0.7,0.5-1.5,1-2.3,1.4
		c-0.3,1.5-0.5,2.9-0.5,4.4c0,1.7,0.1,3.4,0.5,5.1c0.8,3,1.9,5.1,3.4,6.7c1.6,1.7,3.6,3.2,6.2,5c0.7,0.5,1.5,1,2.2,1.4h0l0,0
		c3.6,2.2,7,4.4,7.9,9.4c0.4,2.2,0.1,4-0.7,5.7h0c-0.7,1.6-1.8,2.9-3.2,4.3c-0.7,0.7-1.7,0.7-2.4,0.1l0,0c-4-2.9-5.8-4.2-10.1-5.1
		c0,0.3-0.1,0.6-0.1,0.9c0,0.5,0.1,0.8,0.3,1.1c1,1.3,2.5,2.1,4,3c2.2,1.2,4.3,2.4,5.6,5c0.3,0.6,0.5,1.3,0.6,2.1l0.2-0.2h0l0,0
		c0.9-0.9,1.8-2,2.8-3.1c2.3-2.7,4.9-5.7,7.4-7.4c4.8-3.3,6.8-3.5,12.2-3.8l0.1,0c0.7,0,1.4,0.1,2.1,0.2V419h28.2
		c-3-3.6-6-7.2-4.7-12.7c-1.5,2.6-3.7,4.6-7,5.6c-1.5,0.5-3.1,0.7-5,0.7c-11.9,0-13.9-10.7-13.9-20.9c0-2.7,0.1-5.2,0.2-7.6
		c0.1-1.1,0.1-2.1,0.1-2.9l0-0.1c0.2-8.7,5.6-10.7,11.2-10.6c3,0.1,5.9,0.8,8.1,1.3c0.5,0.1,0.6,0.1,0.8,0.2l0.1,0
		c0.9,0.2,2.2,0.5,3.6,0.8c2.5,0.6,5,1.2,7.6,1.7c-0.3-3.2-0.1-6.2,0.7-8.9c0.9-3.1,2.6-5.9,4.9-8.4l0-0.1c-0.7-2.4-1.4-5-2-7.5
		c-0.6-2.4-1.1-4.7-1.5-7c-0.4-2.3-0.7-4.7-1-7.1c-0.1-1.1-0.2-2.3-0.2-3.5c0-1.2,0.1-2.5,0.4-3.7c0.3-1.3,0.8-2.5,1.3-3.6
		c0.6-1.1,1.2-2.2,1.9-3.2c0.8-1.1,1.6-2.2,2.5-3.1c0.9-1,1.9-2,3-2.8c2.3-1.9,4.7-3.7,7.2-5.5c2.4-1.8,4.9-3.4,7.4-5.1
		c2.1-1.4,4.1-2.8,6.2-4.1c-1.6-1-2.9-1.7-5.4-2c-5.1-0.8-6.6,0-8.6,1.1c-1.1,0.6-2.3,1.3-4.2,1.9c-1.5,0.5-3.5,0.9-5.4,0.8
		c-1.7,4-3,7.7-4.1,11.3c-1.2,3.9-2.2,7.7-3.2,11.6c-0.5,2-0.7,4.1-0.9,6.1c-0.1,0.7-0.1,1.4-0.2,2c-0.2,2.1-0.3,4.7-0.3,7.6
		c-0.2,8.7-0.4,19.3-5.4,23.9c-2.7,2.5-5.6,3.5-8.6,3.6c-2.9,0.1-5.8-0.6-8.7-1.7c-0.8-0.3-1.2-1.2-0.9-1.9c0.2-0.5,0.7-0.9,1.2-1
		l0,0c0.2,0,0.7-0.1,1.3-0.2c4.5-0.6,10.7-1.5,11.7-6.2c0.7-3.5,0.7-9.7,0.6-15.6c0-3.7,0-7.3,0.1-10c0.4-6.2,0.8-11.1,1.5-16
		c0.7-4.9,1.7-9.7,3.2-15.7c0.8-3.4,1.5-5.9,2.1-8.5l0.9-3.6c-1-1.6-1.7-3.4-0.8-6c0.3-0.8,0.7-1.3,1.1-1.8c0.1-0.1,0.2-0.2,0.2-0.3
		c0-0.2,0.1-0.4,0.1-0.6c0.2-0.7,0.5-1.4,0.9-1.9c0.8-1,1.8-1.7,3.1-2c0.1,0,0.3-0.1,0.4-0.1c-1.2-1.3-1.6-2.9-0.6-4.9
		c0.2-0.4,0.4-0.7,0.6-1c0.9-1.2,2-1.8,3.4-1.9c-1.1-1.4-1.5-2.9-0.5-4.7c0.1-0.3,0.3-0.6,0.5-0.8c0.9-1.2,2.1-1.7,3.7-1.6
		c0.2,0,0.4,0,0.6,0c-0.7-1.3-0.9-2.6-0.2-4.2c0.2-0.5,0.5-1,0.9-1.4c0.8-0.9,1.8-1.4,3-1.4c0.8-0.1,1.6,0.1,2.5,0.3
		c0.4-0.5,0.8-1.1,1.1-1.6c0.6-0.9,1.1-2.2,1.1-3.1c0-0.2,0-0.4-0.1-0.6c0-0.1-0.1-0.1-0.2-0.2l0,0l0,0c-0.2-0.1-0.4-0.2-0.8-0.2
		c-1.1,0-3.3,0.1-5.5,0.2c-1.8,0.1-3.4,0.3-4.3,0.6c-1.5,0.4-2.5,0.8-3.2,1.3c-0.7,0.6-1.4,1.4-2.3,2.7c-0.4,0.6-0.7,1.1-1.1,1.5
		c-3.6,5.3-4.1,6-10.1,11.1c-0.1,0.1-0.1,0.1-0.2,0.1c-1,0.7-1.9,1.3-2.8,1.9c-6.3,4.3-9.4,6.5-18.5,6.2c-0.8,0-1.5-0.7-1.5-1.6
		c0-0.1,0-0.2,0-0.3c0.6-2.7,2.4-5,4.3-7.6c0.7-0.9,1.5-1.9,2.2-2.9c-1-0.1-1.9-0.1-2.7-0.1c-2.7-0.1-4.9-0.2-9.3-1.6
		c-0.8-0.3-1.2-1.1-1-1.9c0-0.1,0.1-0.3,0.2-0.4c1.8-3.1,3.7-5.8,6-8.2c2.3-2.4,5-4.4,8.4-6.2c3.5-1.9,7.4-2.8,11.2-3.7l0.9-0.2l0,0
		c2-0.5,4-0.7,5.9-0.9c1.7-0.2,3.5-0.4,5.1-0.8c1.9-0.4,3.8-1,5.7-1.6c4.6-1.4,9.1-2.9,14.5-2.1c1.8,0.2,3.5,0.7,5.2,1.3
		c1.8,0.7,3.5,1.5,5,2.5c2.3,1.4,4.1,3.6,5.2,6.1c1.1,2.4,1.5,5.1,0.8,7.5c-1.1,4.2-2.2,6.6-3.8,8.9c4.3,2.1,6.7,5.8,9.3,9.8
		c3.4,5.3,7.2,11,16.6,13.5c2.9-1.6,5.8-3,8.9-4.3c2-0.8,4-1.5,6.1-1.9c2-0.5,4.1-0.8,6.2-1.2c1.3-0.2,2.4,0,3.6,0.2
		c0.1,0,0.3,0,0.4,0.1c0.2-0.4,0.4-0.8,0.5-1.2c0.7-1.7,1.4-3.3,2.8-4.7l0,0v0c1.1-1.1,2.5-1.5,3.9-1.8c0.5-0.1,1-0.2,1.3-0.3
		c1.1-0.4,2-0.6,3-0.9c1.3-0.4,2.6-0.7,3.8-1.2c0.7-0.3,1.3-0.7,2-1.1c0.9-0.6,1.8-1.1,2.9-1.5c1.1-0.4,2.5-0.5,3.8-0.6
		c-0.5-1.2-1-2.6-1.5-4c-0.5-1.6-1-3.2-1.7-4.6c-0.5-1.1-0.7-2.1-0.7-3.1c0-1.7,0.7-3.3,1.7-4.5c1-1.2,2.3-2.1,3.6-2.7
		c1.2-0.6,2.5-0.9,3.7-0.9c1.1,0,2.2,0.3,3.3,0.8c1.4,0.7,2.8,1.7,3.8,3c1.1,1.3,1.8,3,1.8,4.7c0,0.9-0.2,1.8-0.6,2.8
		c-0.5,1.2-1,2.7-1.5,4.2c-0.7,2.1-1.4,4.2-2.3,5.9c0.3,0.2,0.5,0.4,0.8,0.6c0.3,0.2,0.5,0.5,0.7,0.8c0.7,1,1.1,1.9,1,2.9
		c1.6-0.4,3-0.1,4.3,0.9c0.3,0.2,0.5,0.5,0.7,0.8c1,1.2,1.3,2.4,1.1,3.6c1.1-0.1,2.1,0.2,3,0.9c0.3,0.2,0.5,0.4,0.7,0.7
		c1.1,1.3,1.4,2.6,1.1,3.9c1.1-0.1,2.1,0.2,3,0.9c0.2,0.2,0.4,0.4,0.6,0.6c1.5,1.9,1.1,3.8-0.5,5.8c0.8,0.8,1.3,1.6,1.6,2.6
		c0.4,1.2,0.4,2.4,0.1,3.7c-0.3,1.2-0.8,2.5-1.5,3.7c-1.9,3.1-5.4,6.1-9.7,7.7c0.5,4.3,3.1,5.5,6.6,5.4c2.7-0.1,6-0.8,9.4-1.6
		c4.6-1,9.5-2.1,13.9-1.9h0l0,0c0.6,0,0.9,0.1,1.3,0.1c2.8,0.2,6,0.3,8.8,1c5.2,1.3,9.1,4.1,7.4,10.9c-0.3,1-0.6,2-1.1,2.8
		c-0.8,1.6-2,2.9-3.5,3.7c-1.5,0.8-3.3,1.1-5.3,0.6c-0.1,0-0.3-0.1-0.4-0.1l5.3,5.3c0.5,0.2,0.9,0.6,1,1.2c0.1,0.5,0.1,0.9,0.2,1.4
		c0,0.5,0.1,0.9,0.1,1.4c0,4.7-1.7,8.9-4.5,11.9c-2.8,3.1-6.7,5-11.1,5c-4.3,0-8.2-1.9-11.1-5c-2.8-3.1-4.5-7.3-4.5-11.9
		c0-0.5,0-0.9,0.1-1.4c0-0.2,0-0.4,0.1-0.6c-0.3-0.6-0.2-1.4,0.3-1.9l13.2-12.1c-0.3,0-0.6,0-0.9-0.1c-4.3-0.2-10.7,2.9-16.1,5.7
		c0.7,4.5-0.3,11.3-2.4,19.6c-0.6,2.5-1.4,5.1-2.2,7.9c3.5,2.5,6.2,5.6,7.6,9.4c1.4,3.7,1.7,8,0.7,13.2c3.4-0.5,6.9-1.3,10.3-2.1
		c1.3-0.3,2.6-0.6,3.5-0.8l0.1,0c0.2,0,0.3-0.1,0.8-0.2c2.2-0.5,5.1-1.2,8.1-1.3c5.6-0.1,10.9,1.8,11.2,10.6l0,0.1
		c0,0.8,0.1,1.8,0.1,2.9c0.1,2.3,0.2,4.9,0.2,7.6c0,10.1-2,20.9-13.9,20.9c-1.9,0-3.6-0.2-5-0.7c-3.6-1.1-5.9-3.4-7.4-6.3
		c-0.6-1.3-1.1-2.6-1.4-4.1c-2,0-4.1-0.1-6.1-0.3c0.6,0.3,1.2,0.6,1.8,1c3,2,4.6,4.6,5.2,7.5c0.6,2.8,0.1,5.8-1.1,8.7
		c-0.1,0.2-0.2,0.5-0.3,0.7h25.8v6.1c0.6-0.1,1.3-0.1,2-0.2l0.1,0c5.4,0.3,7.4,0.4,12.2,3.8c2.5,1.7,5.1,4.7,7.4,7.4
		c1,1.1,1.9,2.2,2.8,3.1l0,0h0l0.2,0.2c0.1-0.8,0.3-1.5,0.6-2.1c1.3-2.6,3.4-3.8,5.6-5c1.5-0.8,3-1.7,4-3c0.2-0.2,0.3-0.6,0.3-1.1
		c0-0.3,0-0.6-0.1-0.9c-4.3,0.9-6.2,2.2-10.1,5.1l0,0c-0.7,0.6-1.8,0.6-2.5-0.1c-1.3-1.3-2.5-2.7-3.2-4.3h0
		c-0.8-1.7-1.1-3.5-0.7-5.7c0.9-5,4.3-7.2,7.9-9.4h0h0c0.7-0.5,1.5-0.9,2.2-1.4c2.6-1.8,4.7-3.2,6.2-5c1.5-1.7,2.6-3.7,3.4-6.7
		c0.5-1.7,0.6-3.4,0.5-5.1c0-1.4-0.2-2.9-0.5-4.4c-0.8-0.4-1.6-0.9-2.3-1.4c-2.4-1.8-4-4.3-4.7-8c-2.5-1.5-4-3.7-4.2-6.8l-0.2-0.1
		c-3.9-1.5-6-4.1-5.8-8.3c-0.4-0.2-0.7-0.4-1.1-0.6c-3.1-1.8-4.4-4.6-4.5-8l0,0c-3-1.4-4.7-3.9-5.1-7.5c-2.6-2.1-4.2-4.3-4.8-6.7
		c-0.7-2.6-0.2-5.2,1.2-7.9c0.5-0.9,1.5-1.2,2.4-0.8c0,0,0.1,0,0.1,0c2.3,1.2,4.4,2.8,6.5,4.9c2,2,3.9,4.4,5.8,7.2
		c1.8,1.2,3.2,2.5,4.4,4c1.2,1.4,2.2,2.9,3.1,4.5c1.9,1.4,3.5,2.9,4.7,4.5c1.2,1.5,2.2,3.1,2.9,4.7c1.6,0.9,3.1,2,4.3,3.3
		c1.3,1.3,2.3,2.9,2.9,4.7c1.4,1.1,2.6,2.2,3.7,3.5c1.1,1.3,2.1,2.7,2.9,4.2c1,0.6,1.8,1.3,2.4,2c0-0.4,0.1-0.8,0.2-1.4
		c0.4-1.8,1.3-3.1,2.2-4.5c0.4-0.6,0.8-1.3,1.2-2c0.7-1.5,0.7-2.2,0.7-3c0-0.7-0.1-1.5,0.1-2.7c0.2-1.1,0.6-2.6,1.5-3.6
		c0.8-1,2-1.6,3.5-1.3c3.2,0.5,4.9,2.9,6.3,5.1c0.4-1.1,1-2.3,1.7-3.6c1.1-1.9,2.4-2.7,3.8-2.7c1.3-0.1,2.4,0.5,3.4,1.2
		c2.1,1.5,3.7,4.4,4.8,7.5c1.3,3.9,1.9,8.5,1.9,11.4c-0.1,5.1-1.6,8-3.2,11c-0.5,1-1,1.9-1.5,3c0.7,0,1.4,0.1,2.1,0.3h0l0,0
		c2,0.5,4.2,1.5,6.2,2.6c2.2,1.2,4.1,2.5,5.1,3.4c3.9,3.4,5,7.2,6.1,11.3c0.4,1.3,0.7,2.7,1.2,4.1c0.6,1.7,1.4,3.3,2.2,5
		c0.4,1,0.9,1.9,1.2,2.6c0.4,0.9,0,2-0.9,2.4c-0.5,0.2-1.1,0.2-1.6-0.1c-0.4-0.2-0.7-0.4-1.1-0.5c0.6,1.7,1,3.5,1.3,5.3
		c0.7,3.3,1.4,6.9,3.9,10.4c0.6,0.8,0.4,1.9-0.4,2.5c-0.5,0.3-1,0.4-1.5,0.2v0c-3.1-0.9-5.4-1.7-7.4-2.6c0.4,2.3,0.9,4.5,1.6,6.7
		l0,0c1,3.2,2.3,6.3,3.9,9.3c0.4,0.9,0.1,2-0.8,2.4c-0.4,0.2-0.8,0.2-1.1,0.2l0,0c-2.6-0.5-5.1-1.3-7.6-2.5c0.2,0.6,0.3,1.3,0.5,2
		c0.5,2.5,1.2,5.7,4.5,12.2c0.4,0.9,0.1,1.9-0.8,2.4c-0.4,0.2-0.8,0.2-1.2,0.1l0,0c-3.9-1-6.5-1.8-8.2-2.6c0.1,0.4,0.1,0.8,0.2,1.2
		c0.5,2.9,1.1,5.9,4.6,11.8c0.5,0.8,0.2,1.9-0.6,2.5c-0.6,0.4-1.4,0.3-1.9-0.1c-1.5-0.9-3-1.6-4.5-2c-0.6-0.2-1.3-0.3-1.9-0.5
		c0.4,1.3,0.8,2.7,1.1,4.1c0.8,3.2,1.6,6.6,3.5,10c0.5,0.9,0.2,2-0.7,2.4c-0.5,0.3-1,0.3-1.4,0.1c-2.2-0.7-4-1.6-5.6-2.5
		c0.6,2.5,1.7,5.1,2.9,8c0.7,1.6,1.4,3.3,2.1,5c0.4,0.9-0.1,2-1,2.3c-0.6,0.2-1.2,0.1-1.7-0.2c-1.1-0.6-2.3-1.1-3.5-1.4
		c0.8,1,1.8,2,2.8,3c0.7,0.7,0.7,1.8,0,2.5c-0.4,0.4-0.9,0.6-1.4,0.5c-1.3-0.1-2.7-0.2-4.1-0.4c11.1,14.2,14,19.9,12.7,31
		c0.7,0.7,1.4,1.3,2.1,2c4,4,9,8.9,13.5,8.6c0.4,0,0.7-0.1,1-0.2c0.8-0.3,1.4-1.1,1.7-2.2c0.4-1.3,0.5-3.1,0.4-4.9
		c-0.3-4.8-2-10.2-2.8-12.2c-2.8-7.1-6.3-16-8.1-25.6c-1.9-9.7-2.2-20,1.3-29.9c2.6-7.4,8.9-13.2,14.8-18.6c1.5-1.4,3-2.8,4.4-4.1
		c-0.8-2.2-1.7-4.3-2.9-6.3c-1.3-2.3-2.8-4.3-4.5-6.3c-0.3-0.4-0.5-0.8-0.4-1.3c0.1-1,0.9-1.7,1.9-1.6c2.2,0.2,4.6,0.5,7.2,1
		c1.9,0.3,3.9,0.8,5.9,1.3c0-2.3-0.5-4.9-1-7.6c-0.9-5-1.8-10.2-0.2-15c0.8-2.2,2-4.4,3.6-6.2c1.4-1.5,3.2-2.8,5.3-3.3
		c0.5-0.2,1-0.1,1.5,0.2c2.3,1.4,1.5,3.1,0.5,5.7c-0.7,1.7-1.7,4.1-1.4,6.8c0.3,3.6,1.2,5.6,2.1,7.9c0.5,1.3,1.1,2.7,1.7,4.5
		c2.1,6.4,2.8,11.1,1.8,15.6c-0.9,4.3-3.2,8.1-7.2,12.6c0.4,3,0.7,6,0.8,8.9c0.1,3.2,0,6.2-0.2,9.2c-0.1,1-0.9,1.7-1.9,1.7
		c-0.6,0-1.2-0.4-1.4-0.9c-1-1.8-2.1-3.5-3.6-5.1c-1.2-1.4-2.7-2.7-4.5-3.9c-1.8,1.7-3.6,3.4-5,5.3c-0.9,1.2-1.8,2.5-2.5,3.9
		c-0.7,1.3-1.3,2.7-1.6,4.1c-2.5,11.3,2.3,22.8,7.1,34.3c4.9,11.6,9.8,23.3,7.9,35.7c-0.5,3.3-1.7,7.4-3.7,10.9
		c-1.6,2.8-3.8,5.2-6.6,6.5c-3.3,1.6-6.7,2.3-9.9,2.5c-1.7,2.1-3.2,4.3-4.4,6.5c-1.3,2.4-2.3,4.7-2.9,7.1c-0.2,0.9-1.2,1.5-2.2,1.3
		c-0.3-0.1-0.6-0.3-0.9-0.5c-1.4-1.5-2.4-4-3.3-7.2c-0.8-2.8-1.4-6.1-1.9-9.7c-2.5-0.8-5-1.8-7.5-2.8l0,0.1
		c-3,12.2-3.3,13.3,7.6,28.2c0.9,1.2,1.9,2.4,2.9,3.6c5.3,6.5,10.8,13,2,20.3c-6.9,5.7-8.6,8.4-11.8,13.3c-1.2,1.9-2.6,4.1-4.6,6.9
		c-0.9,1.3-2,2.5-3,3.8c-0.3,0.4-0.6,0.8-0.9,1.1c0.2,1.1,0,2.1-0.1,3.2l-0.1,0.6c-0.1,0.9-0.9,1.6-1.8,1.6v0h-20.4
		c-0.9,0-1.7-0.7-1.8-1.6c-0.6-2.9,0.1-5.8,1.6-8.1c0.8-1.3,2-2.4,3.3-3.3c0.5-0.3,1-0.6,1.5-0.9c1.2-1.3,2.5-2.6,3.7-3.9
		c4.9-5.2,9.5-10.1,13.4-16.5c1.1-1.9,1.5-3.2,1.2-4.3c-0.3-1.1-1.4-2.3-3.1-3.6c-1.7-1.4-3.5-2.7-5.2-4c-1.1-0.8-2.1-1.6-2.8-2.2
		c-0.8-0.6-1.8-1.4-2.8-2.2c-5.8-4.5-9.8-7.5-13.8-12.7c-0.3,0.6-0.5,1.1-0.7,1.7c-0.4,1.2-0.7,2.5-1,4.6c-0.5,3.6-0.1,8.3,0.3,12.5
		c0.1,1.3,0.2,2.5,0.3,3.9c0.2,2.8,0.3,4.9-0.6,7.1c-0.9,2.1-2.6,4-6.2,6.2c-2.3,1.4-4.7,2.5-7.1,3.7c-3,1.4-6,2.9-8.8,4.8
		c-0.9,0.6-1.2,0.8-1.5,1c-5.7,3.7-8.8,5.8-10.3,12.1c0.2,1.3,0.1,2.3,0,3.5l-0.1,0.6c-0.1,0.9-0.9,1.6-1.8,1.6v0h-20.4
		c-0.9,0-1.7-0.7-1.8-1.6c-0.6-2.9,0.1-5.8,1.6-8.1c0.9-1.3,2-2.4,3.3-3.3c0-5.3,9.3-11.8,15.8-16.3c1.2-0.8,2.3-1.6,3.3-2.3
		c0.9-0.7,1.9-1.3,2.8-2c1.8-1.2,3.5-2.4,5.1-3.8c1-0.8,2-1.8,2.6-2.8c0.5-0.8,0.9-1.7,0.7-2.7c-0.6-3-2.5-5.4-4.7-8
		c-4.1-4.9-8.9-10.7-8.3-23.2c0.3-5.6,1.6-10.7,3.8-15.4c2.2-4.7,5.1-9,8.6-13.2l0.1-0.1c-0.5,0.5-1,0.9-1.8,1.3
		c-0.2,0.2-0.5,0.3-0.8,0.5c-1.1,0.8-2.1,1.8-3.1,2.8c-2.3,2.3-4.5,4.5-8.8,5.2c-1,0.2-1.9-0.5-2.1-1.5c0-0.1,0-0.2,0-0.2
		c-0.4-3.1-0.6-6.2-0.7-9.5c0-2.6,0-5.2,0.3-7.9c-0.8-0.2-1.4-0.9-1.4-1.7c0-6.8-0.4-13.5-0.7-20.2c-0.3-5.4-0.6-10.8-0.7-16.3
		c-0.1-5.1,1.6-7.4,3.5-9.9c0.9-1.2,1.8-2.4,2.6-4.1c0.2-0.4,0.3-1,0.4-1.7c0-0.1,0-0.2,0-0.3c0.1-1.5-0.1-3.5-0.3-5.4
		c-0.3-2.7-0.6-5.4-0.2-7.8c0.9-5.5,2.7-10.4,5.1-14.9c0.3-0.6,0.6-1.2,1-1.8c-4.3-2.9-6.8-7.3-9-11c-1.6-2.7-3-5.1-4.5-5.8
		c-0.2-0.1-0.7-0.3-1.2-0.5v155.4l-99.3,52l-99.3-52V448.7c-0.6,0.3-1.1,0.5-1.3,0.6c-1.5,0.7-2.9,3.1-4.5,5.8
		c-2.2,3.7-4.7,8.1-9,11c0.3,0.6,0.6,1.2,1,1.8c2.4,4.6,4.2,9.4,5.1,14.9c0.4,2.3,0.1,5.1-0.2,7.8c-0.2,2-0.4,3.9-0.3,5.4
		c0,0.1,0,0.2,0,0.3c0.1,0.7,0.2,1.2,0.4,1.7c0.8,1.7,1.7,2.9,2.6,4.1c1.9,2.6,3.6,4.8,3.5,9.9c-0.1,5.5-0.4,10.9-0.7,16.3
		c-0.3,6.7-0.7,13.4-0.7,20.2c0,0.9-0.6,1.6-1.5,1.7c0.2,2.7,0.3,5.3,0.3,7.9c-0.1,3.2-0.3,6.4-0.7,9.5c0,0.1,0,0.2,0,0.2
		c-0.2,1-1.1,1.6-2.1,1.5c-4.3-0.8-6.5-3-8.8-5.2c-1-1-2-2-3.1-2.8c-0.3-0.2-0.5-0.4-0.8-0.5c-0.7-0.5-1.3-0.8-1.8-1.3l0.1,0.1
		c3.5,4.2,6.5,8.5,8.6,13.2c2.2,4.7,3.6,9.8,3.8,15.4c0.6,12.6-4.2,18.3-8.3,23.2c-2.2,2.6-4.2,5-4.7,8c-0.2,1,0.1,1.9,0.7,2.7
		c0.7,1,1.7,1.9,2.6,2.8c1.6,1.3,3.3,2.6,5.1,3.8c0.9,0.7,1.9,1.3,2.8,2c1,0.7,2.1,1.5,3.3,2.3c6.5,4.5,15.9,11,15.8,16.3
		c1.3,0.9,2.4,2,3.3,3.3c1.5,2.3,2.2,5.1,1.6,8.1c-0.1,0.9-0.9,1.6-1.8,1.6h-20.4v0c-0.9,0-1.7-0.7-1.8-1.6l-0.1-0.6
		c-0.2-1.2-0.3-2.2,0-3.5c-1.5-6.3-4.7-8.3-10.3-12.1c-0.3-0.2-0.6-0.4-1.5-1c-2.8-1.9-5.8-3.3-8.8-4.8c-2.4-1.2-4.8-2.3-7.1-3.7
		c-3.5-2.1-5.3-4-6.2-6.2c-0.9-2.2-0.7-4.3-0.6-7.1c0.1-1.4,0.2-2.6,0.3-3.9c0.4-4.2,0.8-8.9,0.3-12.5c-0.3-2.1-0.6-3.4-1-4.6
		c-0.2-0.6-0.4-1.1-0.7-1.7c-4,5.2-8,8.3-13.8,12.7c-1,0.8-2.1,1.6-2.8,2.2c-0.7,0.6-1.8,1.4-2.9,2.2c-1.7,1.3-3.4,2.6-5.2,4
		c-1.7,1.4-2.7,2.5-3.1,3.6c-0.3,1.1,0.1,2.4,1.2,4.3c3.9,6.4,8.4,11.3,13.4,16.5c1.2,1.3,2.5,2.6,3.7,3.9c0.5,0.3,1,0.6,1.5,0.9
		c1.3,0.9,2.4,2,3.3,3.3c1.5,2.3,2.2,5.1,1.6,8.1c-0.1,0.9-0.9,1.6-1.8,1.6h-20.4v0c-0.9,0-1.7-0.7-1.8-1.6l-0.1-0.6
		c-0.1-1.1-0.3-2-0.1-3.2c-0.3-0.4-0.6-0.7-0.9-1.1c-1-1.2-2.1-2.4-3-3.8c-2-2.8-3.4-5-4.6-6.9c-3.1-4.9-4.9-7.6-11.8-13.3
		c-8.8-7.3-3.3-13.9,2-20.3c1-1.2,2-2.4,2.9-3.6c10.9-15,10.6-16,7.6-28.2l0-0.1c-2.5,1-5,1.9-7.5,2.8c-0.5,3.6-1.2,7-1.9,9.7
		c-0.9,3.2-1.9,5.7-3.3,7.2c-0.2,0.2-0.5,0.4-0.9,0.5c-1,0.3-1.9-0.3-2.2-1.3c-0.6-2.4-1.6-4.7-2.9-7.1c-1.2-2.2-2.6-4.3-4.4-6.5
		c-3.3-0.2-6.6-0.9-9.9-2.5c-2.8-1.3-4.9-3.7-6.6-6.5c-2-3.5-3.2-7.6-3.7-10.9c-1.9-12.3,3-24,7.9-35.7c4.9-11.5,9.7-23,7.1-34.3
		c-0.3-1.4-0.9-2.8-1.6-4.1c-0.7-1.4-1.6-2.7-2.5-3.9c-1.4-1.9-3.2-3.7-5-5.3c-1.9,1.2-3.3,2.5-4.5,3.9c-1.4,1.6-2.5,3.3-3.6,5.1
		c-0.3,0.5-0.8,0.9-1.4,0.9c-1,0.1-1.8-0.7-1.9-1.7c-0.2-3-0.3-6-0.2-9.2c0.1-2.9,0.4-5.9,0.8-8.9c-4-4.5-6.3-8.3-7.2-12.6
		c-0.9-4.4-0.2-9.2,1.8-15.6c0.6-1.9,1.2-3.2,1.7-4.5c1-2.3,1.8-4.3,2.2-7.9c0.3-2.7-0.7-5.1-1.4-6.8c-1.1-2.6-1.8-4.3,0.5-5.7
		c0.5-0.3,1-0.3,1.5-0.2c2.1,0.6,3.8,1.8,5.3,3.3c1.6,1.8,2.8,4,3.6,6.2c1.6,4.7,0.7,10-0.2,15c-0.5,2.7-0.9,5.3-1,7.6
		c2-0.5,4-0.9,5.9-1.3c2.6-0.5,5-0.8,7.2-1c1-0.1,1.8,0.7,1.9,1.6c0,0.5-0.1,1-0.4,1.3c-1.7,2-3.2,4.1-4.5,6.3
		c-1.1,2-2.1,4.1-2.9,6.3c1.4,1.4,2.9,2.7,4.4,4.1c5.9,5.5,12.2,11.2,14.8,18.6c3.5,9.9,3.2,20.2,1.3,29.9
		c-1.9,9.6-5.3,18.4-8.2,25.6c-0.8,2-2.5,7.4-2.8,12.2c-0.1,1.8-0.1,3.6,0.4,4.9c0.3,1.1,0.9,1.9,1.7,2.2c0.3,0.1,0.6,0.2,1,0.2
		c4.5,0.3,9.5-4.6,13.5-8.6c0.7-0.7,1.4-1.4,2.1-2c-1.3-11.1,1.6-16.7,12.7-31c-1.4,0.2-2.7,0.3-4,0.4c-0.5,0-1-0.2-1.4-0.5
		c-0.7-0.7-0.7-1.8,0-2.5c1-1,2-2,2.8-3c-1.2,0.3-2.4,0.7-3.5,1.4c-0.5,0.3-1.1,0.4-1.7,0.2c-0.9-0.4-1.4-1.4-1-2.3
		c0.7-1.7,1.4-3.4,2.1-5c1.2-2.9,2.3-5.4,2.9-8c-1.6,1-3.4,1.8-5.6,2.5c-0.5,0.2-1,0.1-1.4-0.1c-0.9-0.5-1.2-1.6-0.7-2.4
		c1.9-3.4,2.7-6.8,3.5-10c0.4-1.4,0.7-2.8,1.1-4.1c-0.6,0.1-1.3,0.3-1.9,0.5c-1.5,0.5-3,1.2-4.5,2c-0.6,0.4-1.3,0.4-1.9,0.1
		c-0.9-0.5-1.1-1.6-0.6-2.4c3.6-5.9,4.1-8.9,4.6-11.8c0.1-0.4,0.1-0.8,0.2-1.2c-1.8,0.8-4.3,1.7-8.2,2.6l0,0
		c-0.4,0.1-0.8,0.1-1.2-0.1c-0.9-0.4-1.2-1.5-0.8-2.4c3.3-6.5,4-9.6,4.5-12.2c0.1-0.7,0.3-1.3,0.5-2c-2.5,1.2-5,2-7.6,2.5l0,0
		c-0.4,0.1-0.8,0-1.1-0.2c-0.9-0.4-1.2-1.5-0.8-2.4c1.5-3,2.9-6.1,3.9-9.3l0,0c0.7-2.2,1.2-4.4,1.6-6.7c-2,0.9-4.3,1.7-7.4,2.6v0
		c-0.5,0.2-1.1,0.1-1.5-0.2c-0.8-0.6-1-1.7-0.4-2.5c2.5-3.5,3.2-7.1,3.9-10.4c0.4-1.8,0.7-3.6,1.3-5.3c-0.4,0.2-0.7,0.4-1,0.5
		c-0.5,0.3-1.1,0.3-1.6,0.1c-0.9-0.4-1.3-1.5-0.9-2.4c0.3-0.7,0.7-1.6,1.2-2.6c0.8-1.7,1.6-3.3,2.2-5c0.5-1.4,0.9-2.7,1.2-4.1
		c1.1-4.1,2.2-7.9,6.1-11.3c1-0.9,2.9-2.2,5.1-3.4c2-1.1,4.2-2.1,6.2-2.6l0,0h0c0.7-0.2,1.4-0.3,2.1-0.3c-0.4-1.1-1-2-1.5-3
		c-1.6-3-3.2-5.9-3.2-11c0-2.9,0.6-7.5,1.9-11.4c1.1-3.1,2.6-5.9,4.8-7.5c1-0.7,2.1-1.3,3.4-1.2c1.4,0.1,2.7,0.8,3.8,2.7
		c0.8,1.3,1.3,2.5,1.7,3.6c1.4-2.2,3.1-4.6,6.3-5.1c1.5-0.2,2.7,0.4,3.5,1.3c0.9,1,1.3,2.5,1.5,3.6c0.2,1.2,0.2,2,0.1,2.7
		c0,0.8-0.1,1.5,0.7,3c0.3,0.7,0.8,1.3,1.2,2c0.9,1.3,1.8,2.7,2.1,4.5c0.1,0.5,0.2,1,0.2,1.4c0.7-0.7,1.5-1.3,2.4-2
		c0.8-1.5,1.8-2.9,2.9-4.2c1.1-1.3,2.4-2.4,3.7-3.5c0.6-1.9,1.6-3.4,2.9-4.7c1.2-1.3,2.7-2.3,4.3-3.3c0.7-1.6,1.7-3.2,2.9-4.7
		c1.3-1.6,2.9-3.1,4.7-4.5c0.9-1.6,1.9-3.1,3.1-4.5c1.2-1.5,2.6-2.8,4.4-4c1.9-2.7,3.8-5.1,5.8-7.2c2.1-2.1,4.3-3.8,6.5-4.9
		c0,0,0.1,0,0.1,0c0.9-0.5,1.9-0.1,2.4,0.8C206.7,338,207.1,340.6,206.5,343.2L206.5,343.2z M237.4,403.2c0.5-0.7,1.1-1.3,1.8-1.8
		c-0.4,0-0.9,0-1.4,0C237.7,402,237.6,402.6,237.4,403.2L237.4,403.2z M354.8,399.7c2.8-1,5.7-1.6,8.7-1.7
		c-6.7-2.1-13.3-5.4-19.6-10c-7.3,4.2-14.7,7-22,8.3c1.6,0.3,3.1,0.7,4.5,1.3c0.8,0.3,1.5,0.6,2.2,1c1.3-0.6,1.5-0.7,3.5-1.5
		c2.7-1,5.9-1.5,9.1-1.4c3.5,0.1,6.9,0.8,9.8,1.8C352.4,398.1,353.6,398.8,354.8,399.7L354.8,399.7z M304,398.6l0.4-0.2
		c1.1-0.5,1.5-0.7,3.1-1.3l0.1,0c-9.3-0.7-18.6-3.7-27.9-9.1c-4.5,3.3-9.1,5.9-13.8,7.8c0.6,0,1.2,0,1.8,0c3.4,0.1,6.7,0.7,9.5,1.7
		c0.8,0.3,1.5,0.6,2.2,1c1.4-0.7,1.6-0.8,3.5-1.5c2.7-1,5.9-1.4,9.1-1.4c3.4,0.1,6.9,0.8,9.8,1.8C302.5,397.9,303.3,398.2,304,398.6
		L304,398.6z M401.2,334.1c1.5-0.4,2.9-1,4.2-1.7l-11.1-11.1l-11.9,10.9c1.4,0.8,2.9,1.4,4.6,1.9c2.2,0.6,4.6,1,7.1,1
		C396.7,335.1,399.1,334.7,401.2,334.1L401.2,334.1z M328.2,329.3c-0.3-0.2-0.6-0.4-0.9-0.7l3,2.7c0.5,0.5,0.6,1.3,0.3,1.9
		c0,0.2,0,0.4,0.1,0.6c0,0.5,0,0.9,0,1.4c0,4.7-1.7,8.9-4.5,11.9c-2.8,3.1-6.7,5-11.1,5c-4.3,0-8.2-1.9-11.1-5
		c-2.8-3.1-4.5-7.3-4.5-11.9c0-0.5,0-0.9,0.1-1.4c0-0.5,0.1-0.9,0.2-1.4c0.1-0.6,0.5-1,1-1.2l5.3-5.3c-0.1,0-0.3,0.1-0.4,0.1
		c-2,0.5-3.8,0.2-5.3-0.6c-0.3-0.2-0.6-0.3-0.8-0.5c-1.8,1.7-3.6,3.1-5.3,4.4c-3.5,2.7-6.2,4.9-7.1,8c-1,3.5,0.8,6.7,3.7,12
		c0.8,1.5,1.7,3.1,2.7,5c0.5-0.5,0.9-0.9,1.3-1.2l0,0c0.6-0.6,1.6-0.6,2.1,0c0.6,0.6,0.6,1.6,0,2.1c-0.3,0.3-0.6,0.6-0.9,0.9
		c1.2,4.5,2.5,8.5,4.7,11.4c2.2,2.9,5.5,4.7,10.8,4.8c10.1,0,12-5.4,15.5-15.5l0.3-0.8c-0.4-0.5-0.4-0.4-0.7-0.7
		c-0.6-0.6-0.6-1.5,0-2.1c0.6-0.6,1.5-0.6,2.1,0l0,0c0.2,0.2,0.7,0.6,1.3,1.2c0.9-1.8,1.8-3.3,2.6-4.7c2.9-5.3,4.7-8.5,3.7-12
		C335.8,335.3,332.4,332.3,328.2,329.3L328.2,329.3z M303.8,332.5c1.3,0.7,2.7,1.2,4.2,1.7c2.2,0.6,4.6,1,7.1,1c2.5,0,4.9-0.3,7.1-1
		c1.7-0.5,3.2-1.1,4.6-1.9l-11.9-10.9L303.8,332.5L303.8,332.5z M185.7,526.7c-1.6,1.8-3.1,3.6-4.8,6c-1.3,1.9-2.5,4.2-3.7,6.6
		c-0.8,1.7-1.6,3.3-2.5,4.8c1.7,1.7,3.6,3.6,5.5,5.4c3.4,3.2,6.8,6.4,9.4,9.5c-0.4-0.6-0.8-1.4-1.1-2.6c-0.6-2.3-0.6-4.9-0.1-7.3
		c0.4-2.1,1.1-4.1,2.2-5.9c0,0,0-0.1,0-0.1c-0.3-0.7-0.5-1.4-0.6-2.2c-0.1-0.7-0.1-1.4-0.1-2c0.1-2.8,0.6-5.7,1.1-8.5
		c0.3-1.7,0.6-3.3,0.8-4.8c0.2-1.7,0.4-3.4,0.5-5C190.3,522.2,187.5,524.8,185.7,526.7L185.7,526.7z M433.6,538.9c0,0.7,0,1.4-0.1,2
		c-0.1,0.7-0.3,1.5-0.6,2.2c0,0,0,0.1-0.1,0.1c1,1.7,1.8,3.8,2.2,5.9c0.5,2.4,0.4,5-0.1,7.3c-0.3,1.2-0.7,2-1.1,2.6
		c2.6-3,6-6.3,9.4-9.5c1.9-1.8,3.8-3.6,5.5-5.4c-0.9-1.5-1.7-3.2-2.5-4.8c-1.2-2.3-2.3-4.7-3.7-6.6c-1.7-2.3-3.2-4.2-4.8-6
		c-1.6-1.8-4.5-4.5-6.6-6.5c0,1.7,0.2,3.4,0.5,5.2c0.2,1.5,0.5,3.2,0.8,4.8C433,533.2,433.5,536,433.6,538.9L433.6,538.9z"/>
	<polygon class="st2" points="215.6,422 215.6,602.4 311.8,652.7 408,602.4 408,422 	"/>
	<path class="st3" d="M221.7,573.2c4.1,0.7,7.9,2.4,11.7,4.1h0c3.6,1.6,7.2,3.2,10.1,3.2c2.9,0,6.5-1.6,10.1-3.2
		c4.9-2.2,9.8-4.4,15.4-4.4c5.6,0,10.5,2.2,15.4,4.4c3.6,1.6,7.2,3.2,10.1,3.2c2.9,0,6.5-1.6,10.1-3.2c2.3-1.1,4.7-2.1,7.1-2.9v13.8
		c-0.6,0.3-1.2,0.5-1.8,0.8c-4.9,2.2-9.8,4.4-15.4,4.4c-5.6,0-10.5-2.2-15.4-4.4c-3.6-1.6-7.2-3.2-10.1-3.2c-2.9,0-6.5,1.6-10.1,3.2
		c-4.9,2.2-9.8,4.4-15.4,4.4c-5.6,0-10.5-2.2-15.4-4.4l0,0c-2.2-1-4.4-2-6.4-2.6L221.7,573.2L221.7,573.2z M221.7,598.2
		c4.1,0.7,7.9,2.4,11.7,4.1c3.6,1.6,7.2,3.3,10.1,3.3c2.9,0,6.5-1.6,10.1-3.3c4.9-2.2,9.8-4.4,15.4-4.4c5.6,0,10.5,2.2,15.4,4.4v0
		c3.6,1.6,7.2,3.2,10.1,3.2c2.9,0,6.5-1.6,10.1-3.3c2.3-1,4.7-2.1,7.1-2.9v13.8c-0.6,0.3-1.2,0.5-1.8,0.8c-4.9,2.2-9.8,4.4-15.4,4.4
		c-5.6,0-10.5-2.2-15.4-4.4h0c-3.6-1.6-7.2-3.2-10.1-3.2c-2.9,0-6.5,1.6-10.1,3.2c-1.5,0.7-2.9,1.3-4.4,1.9l-32.9-17.2L221.7,598.2
		L221.7,598.2z M267.8,622.8c0.4,0,0.8,0,1.2,0c5.6,0,10.5,2.2,15.4,4.4v0c3.6,1.6,7.2,3.2,10.1,3.2c2.9,0,6.5-1.6,10.1-3.2
		c2.3-1.1,4.7-2.1,7.1-2.9v13.8c-0.6,0.3-1.2,0.5-1.8,0.8c-2.1,1-4.2,1.9-6.4,2.7L267.8,622.8L267.8,622.8z"/>
	<polygon class="st4" points="221.7,428.1 221.7,553.1 234.8,553.1 241.1,556 247.3,556 246,553.1 401.9,553.1 401.9,428.1 	"/>
	<path d="M246.8,555.4l-0.2-0.3c-6.6-9.4-17-25.2-18.5-32.1c-0.4-1.8-0.8-4.8-0.5-7.5c0.2-2,0.9-3.8,2.2-4.8
		c1.6-1.3,3.5-1.3,5.2-0.8c2.2,0.7,4.2,2.5,5.4,4c2.3,2.7,4.6,5.8,6.9,8.9c2.3-2,4.5-3.9,6.8-5.6l-24.5-48c-0.5-1-3.8,0.6-5-3.2
		c-0.2-0.5-0.2-1.1-0.2-1.7c0-0.6,0.1-1.1,0.3-1.7c0.5-1.3,1.5-2.2,3.2-2.2h5.4c0.4,0,0.7,0.2,0.9,0.5l23.2,39.7l5.6-8.2
		c-2.2-1-4.1-2.2-5.8-3.7c-3.5-3-6-6.8-6.9-11.1c-0.1-0.5-0.2-1-0.3-1.6c-0.1-0.9-0.1-1.8-0.1-2.7c0.2-5.6,2.9-10.6,7.3-14.3
		c4.4-3.7,10.6-6.1,17.3-6.1c6.7,0,12.9,2.3,17.3,6.1c4.2,3.6,6.9,8.5,7.2,13.9l0,0.1c0,0.3,0,0.6,0,0.9c0,5.8-2.8,11-7.3,14.8
		c-0.2,0.2-0.5,0.4-0.7,0.6l10.8,20.7h9.8v-0.6l-4.2-28.1c-0.9-0.7-1.7-1.6-2.4-2.6c-1.7-2.4-2.5-5.6-2.2-10c0-0.5,0.3-0.8,0.8-0.9
		l3.7-1.2c0.2-3,2-5.7,4.6-7.7c2.8-2.1,6.6-3.4,10.8-3.4c4.2,0,8,1.3,10.8,3.4c2.6,2,4.4,4.7,4.6,7.7l3.7,1.2
		c0.4,0.1,0.7,0.5,0.8,0.9c0.3,4.4-0.5,7.6-2.2,10c-0.7,1-1.6,1.9-2.4,2.6l-1.4,9.3c9.1,0,18.2,0,27.2,0V469c-2.8-1-5.1-2.5-6.7-4.8
		c-1.7-2.4-2.5-5.6-2.2-9.9c0-0.5,0.3-0.8,0.8-0.9l3.7-1.2c0.2-3,2-5.7,4.6-7.7c2.8-2.1,6.6-3.4,10.8-3.4c4.2,0,8,1.3,10.8,3.4
		c2.6,2,4.4,4.7,4.6,7.7l3.7,1.2c0.4,0.1,0.7,0.5,0.8,0.9c0.3,4.4-0.5,7.6-2.2,9.9c-1.6,2.2-3.9,3.7-6.7,4.8v84.1h-83.1
		c-5.4-1.2-10.9-1.5-16.5,0h-34.5c-0.7-0.4-1.5-0.7-2.2-0.6c-0.6,0,0.4,2.5-0.2,2.9L246.8,555.4L246.8,555.4z M263.9,511.7
		c1.5-0.5,3-1,4.6-1.2l-3.2-17l-0.2-0.1l-6.4,9.4L263.9,511.7L263.9,511.7z M271.8,510.3h11.8l-2.2-16c-2.1,0.5-4.4,0.8-6.7,0.8
		c-2.5,0-4.9-0.3-7.1-0.9l3,16.2C271,510.3,271.4,510.3,271.8,510.3L271.8,510.3z M285.6,510.3h14.1l-10.2-19.5
		c-1.9,1.2-4,2.2-6.2,2.9L285.6,510.3L285.6,510.3z"/>
	<path class="st2" d="M351.9,276.1C352,276,352,276,351.9,276.1L351.9,276.1L351.9,276.1z"/>
	<path class="st5" d="M262.4,254.4c-0.3,0.5-0.6,0.9-0.9,1.3c1.3,0.8,2.6,1.8,4.1,3.1c0.7,0.6,1.4,1.2,2.1,1.9l0,0h0
		c0.6,0.6,1.2,1.1,1.8,1.6c3-3.6,4.5-5.6,6-11.3c0.5-1.8,0.2-3.7-0.6-5.5c-0.9-1.9-2.3-3.7-4.1-4.8c-1.4-0.9-2.9-1.6-4.5-2.2
		c-1.5-0.6-3-1-4.6-1.2c-4.7-0.6-9,0.7-13.2,2c-1.9,0.6-3.9,1.2-6,1.7c-1.8,0.4-3.6,0.6-5.4,0.8c-1.9,0.2-3.8,0.4-5.6,0.9l0,0h0
		l-0.9,0.2c-3.6,0.9-7.3,1.7-10.4,3.4c-3.1,1.7-5.6,3.5-7.7,5.7c-1.7,1.8-3.2,3.8-4.6,6c2.8,0.8,4.6,0.8,6.6,0.9c1.2,0,4.9,0,6,0.6
		c0.7,0.4,1,1.3,0.6,2.1c-1.1,1.9-2.4,3.6-3.7,5.3c-1.2,1.6-2.4,3.1-3.1,4.6c6.6-0.1,9.4-2.1,14.6-5.7c0.9-0.6,1.8-1.2,2.8-1.9
		c5.6-4.8,6.1-5.5,9.5-10.5c0.3-0.5,0.7-1,1.1-1.5c1.1-1.6,1.9-2.6,2.9-3.4c1.1-0.8,2.3-1.3,4.3-1.9c1-0.3,2.9-0.5,4.8-0.6
		c2.3-0.2,4.7-0.3,5.9-0.2c0.9,0,1.7,0.3,2.3,0.6v0c0.7,0.4,1.1,0.9,1.4,1.6c0.2,0.6,0.3,1.2,0.3,1.9
		C263.9,251.3,263.2,253.1,262.4,254.4L262.4,254.4z M242.2,313c1.1-3.5,2.4-7.2,4-11.1c-1.2-0.5-2.3-1.4-2.9-2.8
		c-0.8-1.5-0.7-2.6-0.7-3.8c0-0.9,0-2-0.6-3.3l-0.2,0.8c-0.8,3.1-1.6,6.2-2.1,8.4c-1.4,5.8-2.4,10.6-3.1,15.4
		c-0.7,4.8-1.1,9.7-1.5,15.8c-0.2,2.6-0.1,6.1-0.1,9.8c0,6,0.1,12.4-0.7,16.2c-0.9,4.3-4.1,6.3-7.8,7.4l0.1,0
		c2.3-0.1,4.6-0.9,6.7-2.8c4-3.7,4.2-13.6,4.4-21.7c0.1-3,0.1-5.7,0.4-7.9c0.1-0.8,0.1-1.3,0.2-1.9c0.2-2.2,0.4-4.4,1-6.6
		C239.9,320.8,240.9,316.9,242.2,313L242.2,313z M219.3,250.6c0.5-1.5,6.6-1.9,6.6-1.9c-0.6,1.4-2.2,4.6-4.4,4.3
		C220.7,252.8,219,251.6,219.3,250.6L219.3,250.6z"/>
	<path class="st4" d="M366.1,401c-3-0.1-5.9,0.2-8.7,1c2.4,2.5,4.3,5.6,6.2,8.6c2.3,3.7,4.5,7.2,6.9,8.4h11.3c0.4-0.6,0.7-1.3,1-1.9
		c1-2.3,1.4-4.7,0.9-6.9c-0.4-2.1-1.7-4.1-3.9-5.5c-0.6-0.4-1.3-0.8-2.1-1.1C374,402,370,401.1,366.1,401L366.1,401z M327.7,401.7
		c0,0-0.1-0.1-0.1-0.1c-0.7-0.5-1.5-0.9-2.3-1.2c-2.6-1-5.7-1.6-8.9-1.6c-2.8-0.1-5.6,0.3-7.9,1.2c-0.9,0.3-1.4,0.6-1.8,0.7
		c3,2.7,5.4,6.4,7.5,9.9c2.3,3.7,4.5,7.2,6.9,8.4h19.9c-1.7-1.8-3.2-4.2-4.8-6.8C333.9,408.3,331.2,404,327.7,401.7L327.7,401.7z
		 M278.5,401.7c0,0-0.1-0.1-0.1-0.1c-0.7-0.5-1.5-0.9-2.3-1.2c-2.5-0.9-5.5-1.5-8.5-1.5c-2.9-0.1-5.8,0.3-8.3,1.1
		c-1,0.3-2,0.8-2.9,1.2c0.5,0.2,0.9,0.5,1.3,0.8c6,3.9,9.7,9.3,13.3,14.6c0.5,0.8,1.1,1.6,1.7,2.5h19.2c-1.7-1.8-3.2-4.2-4.8-6.8
		C284.6,408.3,282,404,278.5,401.7L278.5,401.7z"/>
	<path class="st2" d="M267.7,434.2c3.3-0.3,6.6-0.7,10-0.9c0.3,5.7,0.7,11.3,1,17c-1.7-0.6-5.9-0.8-9.4-0.4l-0.5-5.4
		c2.5-0.5,5-0.8,7.3-0.8l0.2-4.5c-2.7,0.3-5.3,0.6-7.9,0.9L267.7,434.2L267.7,434.2z M297.4,457.8c3.9,0.1,8.4-2.9,12.3-4.2l0-5
		c-4,0.6-7.8,1.4-10.7,1.8l-0.2-6.2c3.8,0.2,7.4,0.1,10.9,0l0-5.6c-4.1,0.1-8.4,0.1-13.2-0.2C296.9,444.8,297.1,451.3,297.4,457.8
		L297.4,457.8z M325.2,453.9c-1.7-0.7-6.1-1.1-9.7-1l-0.1-5c3-0.3,5.9-0.4,8.5-0.1l0.1-4.2c-3,0.1-5.8,0.2-8.7,0.3l-0.1-5.5
		c3.4-0.1,6.8-0.2,10.5-0.1C325.5,443.4,325.4,448.7,325.2,453.9L325.2,453.9z M252.5,456.6c3.7-0.2,7.8-3.7,11.5-5.4l-0.5-5.4
		c-3.7,1-7.2,2.1-10,2.7l-0.7-6.7c3.6-0.1,6.9-0.4,10.2-0.8l-0.5-6.1c-3.9,0.4-8,0.7-12.6,0.7C250.7,442.5,251.6,449.5,252.5,456.6
		L252.5,456.6z M322.8,527.2l1.5,4.6v13.1h-3v-13.1L322.8,527.2L322.8,527.2z M344.1,522.9h4.2v-2h-2.1v-4.2h-2L344.1,522.9
		L344.1,522.9z M353.6,522.9h-4.2v-2h2.1v-4.2h2L353.6,522.9L353.6,522.9z M344.1,513.4h9.5v2h-3.7v3.8h-2v-3.8h-3.7V513.4
		L344.1,513.4z M285.3,530.9h7.6v4.8h-7.6V530.9L285.3,530.9z M273,530.9h7.6v4.8H273V530.9L273,530.9z M260.8,530.9h7.6v4.8h-4.8
		L260.8,530.9L260.8,530.9z M297.6,530.9h7.6v4.8h-7.6V530.9L297.6,530.9z M364.5,467.1h0.7c-0.7-1.3-1.2-3.1-1.5-5.1
		c0-0.2,0-0.3-0.1-0.4H358c0.3,0.6,0.6,1.1,0.9,1.6C360.2,464.9,362.1,466.1,364.5,467.1L364.5,467.1z M249.5,555.9l9.3-2.8
		l-18.2-25.8c-1.9-2.8-1.4-5.5,0-3.6l20.8,29.4h2.9c-0.8-1.5-1.5-3.9-2.4-5.3c-1.5-2.4-3-4.7-4.5-7c-1.5-2.3-3-4.6-4.6-6.9
		c-0.4-0.6-0.9-1.3-1.4-2c-3.8-5.6-8.2-11.9-12.4-16.8c-1.1-1.3-2.8-2.8-4.6-3.4c-1.1-0.4-2.3-0.3-3.3,0.5c-0.8,0.7-1.3,2-1.5,3.5
		c-0.3,2.4,0.1,5.2,0.4,6.8c1.4,6.5,10,19.5,16.5,28.7C247.1,551.8,249.2,555.3,249.5,555.9L249.5,555.9z M266.6,553.2
		c15.7,5,31.2,8.7,45.2,0v-7.7h-49.1c0.3,0.5,0.6,0.9,0.9,1.4c0.5,0.8,1,2,1.5,3.1C265.6,551.1,266.1,552.3,266.6,553.2L266.6,553.2
		z M313.8,553.2h17.9v-43.4l4-26.7c-1.2,0.5-2.6,0.8-4,0.8h-17.9c-1.5,0-2.8-0.3-4-0.8l4,26.7V553.2L313.8,553.2z M333.8,553.2h7.1
		v-16.7c0-10.5,15.9-10.5,15.9,0v16.7h7.1v-44.6c-10,0-19.9,0-29.9,0l-0.2,1.1L333.8,553.2L333.8,553.2z M305.2,474.2h6.2
		c-0.1-1.7-0.2-3.5-0.2-5.5h-2.8l-3.6,1.1C304.8,471.5,304.9,472.9,305.2,474.2L305.2,474.2z M313.4,474.2h8.4v-5.5h-8.5
		C313.3,470.6,313.3,472.5,313.4,474.2L313.4,474.2z M323.8,474.2h8.3c0.1-1.7,0.2-3.5,0.2-5.5h-8.5L323.8,474.2L323.8,474.2z
		 M334.2,474.2h6.2c0.3-1.3,0.4-2.7,0.3-4.4l-3.6-1.1h-2.8C334.4,470.6,334.3,472.5,334.2,474.2L334.2,474.2z M339.7,476.2H334
		c0,0.2,0,0.3-0.1,0.4c-0.3,2.1-0.8,3.8-1.5,5.1h0.7c2.4-0.9,4.3-2.2,5.6-4C339.2,477.3,339.5,476.8,339.7,476.2L339.7,476.2z
		 M332,476.2h-8.1v5.6h6.2c0-0.1,0.1-0.2,0.2-0.3c0.9-1,1.4-2.8,1.7-5.1L332,476.2L332,476.2z M321.8,476.2h-8.1l0,0.2
		c0.3,2.3,0.9,4.2,1.7,5.1c0.1,0.1,0.1,0.2,0.2,0.3h6.2L321.8,476.2L321.8,476.2z M311.6,476.2h-5.7c0.3,0.6,0.6,1.1,0.9,1.6
		c1.3,1.8,3.3,3.1,5.6,4h0.7c-0.7-1.3-1.2-3.1-1.5-5.1C311.6,476.5,311.6,476.3,311.6,476.2L311.6,476.2z M363.5,459.5
		c-0.1-1.7-0.2-3.5-0.2-5.5h-2.8l-3.6,1.1c-0.1,1.7,0,3.1,0.3,4.3H363.5L363.5,459.5z M365.5,459.5h8.4V454h-8.5
		C365.3,455.9,365.4,457.8,365.5,459.5L365.5,459.5z M375.9,459.5h8.4c0.1-1.7,0.2-3.5,0.2-5.5h-8.5V459.5L375.9,459.5z
		 M386.3,459.5h6.2c0.3-1.3,0.4-2.7,0.3-4.3l-3.6-1.1h-2.7C386.5,455.9,386.4,457.8,386.3,459.5L386.3,459.5z M391.8,461.5h-5.7
		c0,0.1,0,0.3-0.1,0.4c-0.3,2.1-0.8,3.8-1.5,5.1h0.7c2.4-0.9,4.3-2.2,5.6-4C391.3,462.6,391.6,462.1,391.8,461.5L391.8,461.5z
		 M384,461.5h-8.1v5.6h6.2c0-0.1,0.1-0.2,0.2-0.3c0.9-1,1.4-2.8,1.7-5.1L384,461.5L384,461.5z M373.9,461.5h-8.1l0,0.2
		c0.3,2.3,0.9,4.2,1.7,5.1c0.1,0.1,0.1,0.2,0.2,0.3h6.2V461.5L373.9,461.5z M365.9,553.2h17.9v-84.1h-17.9V553.2L365.9,553.2z
		 M372.5,503.2h4.7l-0.8-17.5l4.3-1.1v-1.5h-4.5l-0.4-4.4h-1.9l-0.4,4.4H369v1.5l4.3,1.1L372.5,503.2L372.5,503.2z M336.3,492.9
		c3.8,0,7.7,0,11.5,0v13.7c-4.5,0-9,0-13.6,0L336.3,492.9L336.3,492.9z M248.8,524.4h22.4l-2.2-11.9c-1.7,0.2-3.3,0.7-4.8,1.3
		c0,0,0,0,0,0c-0.1,0.1-0.2,0.1-0.3,0.1c-1.4,0.6-2.7,1.3-4.1,2.1c-1.1,0.7-2.2,1.4-3.4,2.2c-0.1,0.1-0.2,0.2-0.3,0.2l0,0
		C253.6,520.3,251.2,522.3,248.8,524.4L248.8,524.4z M273.2,524.4h12.4l-1.7-12.1h-12c-0.3,0-0.6,0-0.9,0l2.2,11.9
		C273.2,524.3,273.2,524.4,273.2,524.4L273.2,524.4z M287.6,524.4h11.9c0,0,0,0,0-0.1l0.8-12h-14.4l1.7,12
		C287.6,524.3,287.6,524.4,287.6,524.4L287.6,524.4z M301.5,524.4h10.3v-12.1h-9.5L301.5,524.4L301.5,524.4z M258.6,514.4
		c1.1-0.7,2.3-1.3,3.5-1.8l-5.2-8.9c-0.2-0.2-0.3-0.4-0.4-0.6l-23.6-40.2H228c-0.7,0-1.1,0.4-1.3,0.9c-0.1,0.3-0.2,0.6-0.2,0.9
		c0,0.4,0,0.7,0.1,1c0.8,2.6,3.4,0.1,4.8,2.8l24.4,47.7C256.8,515.5,257.7,514.9,258.6,514.4L258.6,514.4z M252.2,472.3h44.8
		c-0.5-4.4-2.9-8.4-6.4-11.4c-4.1-3.4-9.7-5.6-16-5.6c-6.3,0-11.9,2.1-16,5.6C255.1,463.9,252.8,467.9,252.2,472.3L252.2,472.3z
		 M297.2,474.4h-45c0,1.2,0.2,2.4,0.4,3.6h44.2c0.2-0.6,0.3-1.3,0.3-1.9C297.1,475.5,297.2,474.9,297.2,474.4L297.2,474.4z
		 M296.1,480h-8.6l-3.6,11.4c1.9-0.7,3.7-1.7,5.3-2.9c0,0,0.1,0,0.1-0.1c0.4-0.3,0.9-0.6,1.3-1C293.1,485.4,295,482.8,296.1,480
		L296.1,480z M285.4,480h-20.5l2.2,12c2.4,0.7,4.9,1.1,7.6,1.1c2.4,0,4.7-0.3,6.9-0.9L285.4,480L285.4,480z M262.8,480h-9.6
		c1.1,2.9,3,5.4,5.5,7.5c1.8,1.5,3.9,2.8,6.2,3.7L262.8,480L262.8,480z M309.4,466.7h13.4h13.4c-0.3-2.3-1.7-4.3-3.8-5.8l0,0
		c-2.4-1.8-5.8-3-9.6-3 M384.5,446.1c-2.4-1.8-5.8-3-9.6-3c-3.8,0-7.2,1.1-9.6,3c-2.1,1.5-3.4,3.6-3.8,5.8h13.4h13.4
		C387.9,449.7,386.6,447.7,384.5,446.1L384.5,446.1z M311.8,543.4v-3.7H259l0.1,0.1c0.8,1.2,1.6,2.4,2.3,3.6L311.8,543.4
		L311.8,543.4z M311.8,537.7v-11.2H250c1.1,1.5,2.1,3,3.1,4.5c0.5,0.7,0.9,1.3,1.4,2c1.1,1.6,2.2,3.2,3.3,4.8H311.8L311.8,537.7z
		 M349.9,492.9v13.7h14v-13.7H349.9L349.9,492.9z"/>
	<path class="st2" d="M194.9,346.6l4.5,0.5c2-1.6,3.1-3.2,3.6-4.8c0.3-1.2,0.2-2.4-0.2-3.6c-1.4,0.9-2.7,2-4,3.3
		C197.5,343.4,196.2,344.9,194.9,346.6L194.9,346.6z M198,350.5l-5.8-0.7c-1.3,0.9-2.4,2-3.4,3.2c-0.5,0.7-1.1,1.3-1.5,2.1
		c3.4,0.3,6,0,7.8-0.8C196.6,353.5,197.6,352.3,198,350.5L198,350.5z M184.7,358.3c-1.5,1.2-2.8,2.4-3.8,3.6
		c-0.6,0.7-1.1,1.4-1.5,2.1c3.9,0.2,6.9-0.1,9-0.8c0.1,0,0.1-0.1,0.2-0.1c0.6-0.2,1.2-0.5,1.7-0.8c1.5-0.9,2.4-2.2,2.6-3.9
		C190.6,358.9,187.9,358.8,184.7,358.3L184.7,358.3z M177.1,367.5c-1.3,0.8-2.5,1.6-3.5,2.6c-0.5,0.5-1,1.1-1.4,1.8
		c5,0.3,9.1,0.1,11.8-1c2-0.7,3.2-2,3.4-3.8C184.7,367.7,181.3,367.8,177.1,367.5L177.1,367.5z M170.1,375.4
		c-1.2,0.9-2.2,1.9-3.1,2.9c-0.4,0.5-0.8,1-1.2,1.5c4.6,0.3,8.6,0.1,11.4-0.9c2.1-0.7,3.5-1.9,4.1-3.7
		C178.2,375.8,174.4,375.7,170.1,375.4L170.1,375.4z M163.2,383.2c-0.8,0.5-1.4,1.1-1.9,1.6c-0.5,0.6-0.9,1.2-1.1,1.8
		c-0.4,0.9-1.4,1.4-2.3,1c-0.1,0-0.1,0-0.2-0.1c-0.6-0.3-1.1-0.5-1.7-0.7c0,0-0.1,0-0.1,0c0,0-0.1,0-0.1-0.1
		c-1.2-0.4-2.3-0.5-3.4-0.4c-1.5,0.2-3,0.9-4.3,2.3c-0.7,0.7-1.8,0.7-2.5,0.1c-0.7-0.7-0.7-1.8,0-2.5c0.4-0.4,0.7-0.7,1.1-1
		c-3.8-4.9-4.6-8.2-5.5-11.5c-0.6-2.1-1.1-4.1-2.5-6.6c-0.4-0.7-0.7-1-0.9-1c-0.3,0-0.7,0.2-1.1,0.5c-1.5,1.1-2.6,3.2-3.5,5.7
		c-1.2,3.6-1.7,7.6-1.7,10.2c0,4.2,1.4,6.8,2.8,9.4c1.1,2.1,2.3,4.2,2.9,7.2c0,0.1,0,0.1,0,0.2c0.1,0.4,0.2,0.9,0.2,1.4
		c0.1,1,0.2,2.2,0.2,3.4c0,0,0,0.1,0,0.1c0,1.3,0,2.6,0,4c-0.1,3.7-0.2,7.5,0.6,9.9c3,8.8,12,12.1,20.1,15.1c0.5,0.2,1,0.4,2,0.7
		c4.1,1.6,8.2,3.2,12,5.3c3.4,1.8,6.5,4,9.5,6.6l2.1-2.2c0,0,0.1-0.1,0.1-0.1c0.3-0.4,0.5-1.1,0.5-1.8c0.1-1,0-2-0.3-2.6
		c-0.8-1.6-2.4-2.5-4.1-3.5c-1.8-1-3.6-2-5-3.9c-0.7-0.9-1-2.1-1.1-3.2c0-1.3,0.3-2.6,0.6-3.6c0.3-0.9,1.2-1.3,2.1-1.1
		c5.8,0.9,7.9,2.2,12,5.2c0.6-0.7,1.1-1.4,1.4-2.1h0l0,0c0.5-1,0.6-2.2,0.4-3.6c-0.6-3.4-3.4-5.2-6.2-7l0,0c-0.8-0.5-1.6-1-2.4-1.5
		c-2.8-1.9-5-3.5-6.8-5.5c-1.9-2.1-3.3-4.6-4.2-8.2c-0.5-2.1-0.7-4.1-0.7-6.1c0-1,0.1-1.9,0.2-2.9c-0.9,0.2-1.9,0.5-2.9,0.6
		c-1,0.2-1.9-0.5-2-1.5c-0.2-1,0.5-1.9,1.5-2c1.8-0.3,3.5-0.7,5-1.3c0.1,0,0.1,0,0.2-0.1c0.8-0.4,1.6-0.8,2.3-1.3
		c1.2-0.9,2.1-2,2.7-3.6C173.1,383.6,168.5,383.7,163.2,383.2L163.2,383.2z M152,382.8c1.1-0.1,2.2-0.1,3.3,0.2
		c0.1-0.4,0.1-0.8,0-1.5c-0.2-1.1-0.9-2.2-1.6-3.2c-0.5-0.8-1-1.5-1.4-2.4c-1.1-2.3-1.1-3.4-1-4.7c0-0.6,0-1.2-0.1-2
		c-0.1-0.6-0.3-1.4-0.7-1.9c-0.1-0.1-0.1-0.1-0.2-0.1c-1.8,0.3-3,2.2-4,3.9l-0.2,0.3c0,0,0,0.1-0.1,0.1c-0.4,0.6-0.7,1.1-1,1.7
		l-0.1,0.2c0.8,2.8,1.7,5.7,5,10C150.4,383.1,151.2,382.9,152,382.8L152,382.8z M133.8,401.1c0-0.3-0.1-0.6-0.1-0.8
		c-0.4-0.3-1.3-0.2-2.4,0.1l0,0c-1.7,0.4-3.6,1.3-5.4,2.3c-2,1.1-3.6,2.2-4.5,2.9c-3.1,2.7-4,6-5,9.6c-0.4,1.4-0.8,2.8-1.3,4.3
		c-0.4,1.1-0.9,2.2-1.4,3.3c0.4-0.2,0.9-0.4,1.3-0.6c4.3-2,8.5-3.9,11.8-7c1.5-1.4,2.3-3.5,3.2-5.6c1-2.4,1.9-4.8,3.8-6.4
		C133.9,402.4,133.9,401.7,133.8,401.1L133.8,401.1z M134.7,419.2c-0.9-2.5-0.9-5.9-0.8-9.4c-0.2,0.4-0.3,0.8-0.5,1.1
		c-0.9,2.2-1.8,4.5-3.5,6.4c-0.1,2-0.2,3.8-0.3,5.5c-0.8,13.9-1.1,19.2,6.8,34.6c1.5,2.8,3.2,5.7,4.9,8.5c4.1,6.7,8.1,13.3,9.4,21.6
		c1.2,8.2,0.8,13.8-1,19c-1.5,4-3.8,7.6-7,11.8l0,0c-0.8,1.1-1.7,2.3-2.7,3.5c-15.1,19.2-14.5,22-9.2,45.6l0,0.1
		c0.2,1,0.5,2.1,0.7,3.3c0.7,3,1.3,5.6,1.9,7.9c3.4,13.7,3.7,14.9-8.2,31.2c-0.9,1.3-2,2.5-3,3.8c-4.2,5.1-8.5,10.3-2.5,15.3
		c7.3,6.1,9.2,9,12.5,14.1c1.2,1.9,2.6,4,4.5,6.8c0.8,1.1,1.6,2.1,2.5,3.2c0.2-0.3,0.4-0.5,0.6-0.8c0.9-1.2,2.1-2.2,3.4-3
		c2.1-1.4,4.2-2,6.3-2.1l-0.2-0.2c-5.1-5.4-9.8-10.3-13.8-17.1c-1.7-2.8-2.1-5-1.6-7c0.5-2,2-3.6,4.2-5.4c1.7-1.4,3.5-2.7,5.3-4.1
		c0.8-0.6,1.7-1.3,2.8-2.2c1.2-0.9,2-1.6,2.8-2.2c7.7-6,12.1-9.3,17.8-19.2c2.6-4.5,4-9.4,4.3-14.5c0.3-5.6-0.6-11.3-2.4-16.7
		c-0.8-2.5-1.9-4.7-2.9-6.9c-0.2-0.3-0.3-0.7-0.5-1c0-0.1-0.1-0.1-0.1-0.2c-2.6-5.6-4.7-11-3-18.7c0.5-2.1,1.5-3.8,2.6-5.6
		c0.5-0.8,0.9-1.5,1.3-2.3c0.4-0.9,1.5-1.2,2.4-0.8c0.9,0.4,1.2,1.5,0.8,2.4c-0.5,0.9-1,1.7-1.5,2.6c-0.9,1.5-1.8,3-2.1,4.5
		c-1.3,5.7,0,10.1,1.9,14.5c0.7-0.5,1.3-1,1.8-1.5c1.7-1.8,3.2-4.7,4.6-7.7c1.2-2.4,2.4-4.9,4-7c1.8-2.5,3.4-4.4,5.1-6.3
		c2.4-2.7,5.9-5.8,8.6-8.2c0-0.1-0.1-0.3-0.2-0.4c-0.6-1.3-1.5-2.6-3-3.6c-2-1.5-5.3-2.9-8.6-4.3c-2.8-1.2-5.5-2.4-7.7-3.6
		c-3.9-2.3-6.6-4.1-8.7-6.4c-2.2-2.3-3.7-5.1-5.2-9.4c-0.3-0.9,0.2-1.9,1.1-2.3c0.9-0.3,1.9,0.2,2.3,1.1c1.4,3.8,2.7,6.2,4.5,8.2
		c1.9,2,4.3,3.6,7.9,5.7c2,1.2,4.7,2.3,7.3,3.5c3.5,1.5,7,3,9.3,4.7c3.1,2.3,4.5,5,5,8c0.4,2.8,0.1,5.8-0.3,8.8
		c-0.2,1.7-0.5,3.4-0.8,5c-0.5,2.7-1,5.5-1.1,8c0,0.5,0,1,0.1,1.5c0.1,0.4,0.2,0.8,0.3,1.2c0.1,0.2,0.2,0.4,0.3,0.5l0,0.1
		c1.7,2.4,6.8,3.3,10.5,4l0.2,0c0.1-6,0.4-12.1,0.7-18.2c0.3-5.4,0.6-10.8,0.7-16.1c0.1-3.9-1.3-5.7-2.8-7.7c-1-1.3-2-2.7-3-4.7
		c-0.3-0.8-0.6-1.6-0.6-2.6c-2.1-3-4.5-4.7-6.7-6.2c-1.6-1.1-3-2.1-4.1-3.4c-3.6-4-4.4-7.4-5.1-10.5c-0.4-1.7-0.8-3.3-1.6-4.7
		c-0.8-1.3-1.5-2.5-2.4-3.6c-0.9-1.1-2.1-2.2-3.6-3.4c-0.8-0.6-0.9-1.7-0.3-2.5c0.6-0.8,1.7-0.9,2.5-0.3c1.8,1.4,3.1,2.6,4.1,3.9
		c1.1,1.3,1.9,2.6,2.8,4.1c1.1,1.9,1.6,3.8,2,5.7c0.6,2.7,1.3,5.6,4.3,8.9c0.9,1,2.1,1.9,3.5,2.8c1.5,1.1,3.2,2.2,4.8,3.8
		c0-0.4,0.1-0.9,0.1-1.3c0.3-2.5,0.5-5,0.2-6.9c-0.8-5.1-2.5-9.6-4.7-13.8c-2.3-4.3-5.1-8.3-8.3-12.4c-1-1.3-2.1-2.6-3.3-3.8
		c-1.2-1.3-2.3-2.5-3.5-3.7c-3-3-6.4-5.3-10-7.3c-3.6-2-7.5-3.6-11.6-5.1c-0.4-0.1-1.1-0.4-1.9-0.7
		C148.1,433.2,138.2,429.5,134.7,419.2L134.7,419.2z M184.2,448.3c0.8,0.9,1.7,1.7,2.4,2.6c1.2,1.3,2.3,2.6,3.4,4
		c2.1,2.7,4.1,5.4,5.9,8.1c3.5-2.5,5.8-6.4,7.8-9.7c1.7-2.8,3.1-5.3,5.1-6.7l3.7-2v-15.9l-3.7,0c-3.4,0.2-5.2,0.7-8.6,3
		c-2.1,1.5-4.5,4.3-6.7,6.8c-1,1.2-2,2.3-2.9,3.2l0,0c-1,1.1-1.9,2-2.9,2.8c-0.5,0.5-1,0.9-1.4,1.4l0,0L184.2,448.3L184.2,448.3z
		 M203.3,549.6c-3.4-0.6-7.5-1.5-10.3-3.5c-0.5,1.1-0.9,2.3-1.1,3.6c-0.4,2-0.4,4,0.1,5.8c0.3,1.4,0.8,1.7,1.7,2.3
		c0.3,0.2,0.5,0.4,0.8,0.6c1.4,1,2.5,2.1,3.6,3.1c1.5,1.5,3,2.9,5.1,3.7c0.2-2.3,0.4-4.7,0.5-7.2
		C203.7,555.3,203.6,552.5,203.3,549.6L203.3,549.6z M126.1,420.3c-2.8,1.9-5.8,3.4-8.9,4.8c-1.9,2.6-2.5,5.5-3.1,8.5
		c-0.5,2.4-1,5-2.2,7.6c2.1-0.8,3.8-1.5,5.4-2.4c0,0,0.1,0,0.1,0c1.8-0.9,3.4-2,5.5-3.3c0.9-0.6,1.8-1.2,2.6-1.7
		c-0.1-3.3,0.1-6.9,0.4-11.2C126,421.8,126.1,421.1,126.1,420.3L126.1,420.3z M133.1,458.9c-1.2-2.3-2.2-4.3-3-6.3
		c-1.5,1.4-3,2.6-4.6,3.7c-0.1,0.2-0.2,0.4-0.4,0.6c-0.3,0.5-0.7,1-0.9,1.5c-0.6,1.3-0.9,2.5-1.1,3.9c-0.5,2.2-1,4.9-3.1,9.5
		c4.7-1.4,5.8-2.5,7.3-4.1l0,0l0.3-0.3c1.3-1.5,3-3.4,6.8-6.1C134,460.5,133.6,459.7,133.1,458.9L133.1,458.9z M128.7,449.1
		c-1.6-4.2-2.4-7.7-2.8-11.3l-1,0.6c-1.9,1.2-3.4,2.2-4.9,3c-0.3,3.4-1,6.6-2,9.7v0l0,0c-0.7,2.2-1.5,4.3-2.4,6.4
		c1.8-0.6,3.6-1.4,5.3-2.5c0.8-0.4,1.5-0.9,2.3-1.5c0,0,0.1-0.1,0.2-0.1C125.1,452.3,126.9,450.8,128.7,449.1L128.7,449.1z
		 M138.2,467.6c-0.7-1.1-1.3-2.2-2-3.3c-3.3,2.3-4.7,4-5.9,5.3l-0.1,0.1c-0.9,2.2-1.2,3.9-1.5,5.6c-0.4,2.4-0.8,4.7-2.5,8.3
		c0.1,0,0.3-0.1,0.4-0.1c1.5-0.4,2.9-0.7,4.4-0.7c1.4-2.9,2.8-4.8,4.7-6.3c1.6-1.3,3.5-2.2,5.9-3
		C140.6,471.6,139.4,469.6,138.2,467.6L138.2,467.6z M146.7,485.7c-0.7-3.2-1.9-6.1-3.3-8.9c-2.2,0.8-4,1.5-5.4,2.6
		c-1.6,1.3-2.9,3.1-4.1,6c-0.8,1.9-1.3,4-1.9,6.2c-0.5,2.1-1.1,4.3-1.9,6.5c3.5-1.9,5.7-4.4,7.6-6.6
		C140.5,488.4,142.7,485.9,146.7,485.7L146.7,485.7z M146.2,505.1c1.6-4.3,1.9-9,1-15.8c-2.9,0-4.7,2-6.9,4.5
		c-1.1,1.2-2.3,2.6-3.7,3.9c-0.1,4.2-1.7,8-3.6,12.3l-0.4,1c2.3-0.6,4.7-0.8,7-1c1.5-0.1,3-0.2,4.4-0.5
		C145,508.1,145.7,506.6,146.2,505.1L146.2,505.1z M140.1,515.6c0.6-0.7,1.1-1.4,1.6-2.1c-0.5,0.1-1.1,0.1-1.6,0.1
		c-0.4,0-0.8,0.1-1.2,0.1c-0.5,1-1.2,1.9-1.9,2.7C138,516.2,139,516,140.1,515.6L140.1,515.6z M127.2,568c-1.1-5-2-9.1-2.7-12.6
		l-0.2,0.2c-4.5,4.5-10.2,10-16.3,9.6c-0.8,0-1.4-0.2-2.1-0.5c-2-0.8-3.1-2.4-3.8-4.5c-0.5-1.8-0.7-3.9-0.5-6.2
		c0.4-5.2,2.2-11.1,3.1-13.3c2.8-7,6.1-15.7,8-24.9c1.8-9.1,2.1-18.9-1.2-28c-2.3-6.5-8.2-12-13.9-17.2c-1.8-1.7-3.6-3.3-5.3-5l0,0
		c-0.2-0.2-0.3-0.3-0.5-0.5l-0.5-0.5c-3.3-3.4-5-5.1-6.1-10.3c-0.1-0.4-0.1-0.8-0.2-1.2c0-0.1,0-0.2,0-0.2
		c-0.4-3.3,0.2-6.9,0.9-10.6c0.8-4.6,1.7-9.4,0.3-13.2c-0.6-1.8-1.6-3.6-2.9-5c-0.4-0.4-0.8-0.8-1.3-1.2c0.9,2.1,2,4.8,1.6,8.4
		c-0.4,4.1-1.3,6.4-2.4,9c-0.5,1.3-1.1,2.6-1.6,4.3c-1.9,5.8-2.5,10-1.7,13.8c0.8,3.7,3,7.2,6.9,11.5c0,0,0.1,0.1,0.1,0.1
		c1.4,1.5,3.3,3.2,5.2,4.8c1.2,1,2.4,2,3.5,3l0.1,0.1c2.3,2.2,4.7,4.3,6.6,6.9c1,1.4,2,2.8,2.8,4.4c0.8,1.6,1.5,3.2,1.9,5
		c2.8,12.4-2.3,24.4-7.3,36.4c-4.7,11.1-9.4,22.4-7.6,33.7c0.5,3,1.5,6.6,3.3,9.7c1.3,2.2,2.9,4.1,5,5.1c10.1,4.7,20.6,0.7,30.4-3.1
		l0.2-0.1c-0.3-1.3-0.7-2.8-1-4.4C127.7,570.2,127.4,569.1,127.2,568L127.2,568L127.2,568z M169.1,550.2c1,2.2,2.1,4.5,2.9,7
		c2,5.8,3,12,2.6,18.1c-0.3,5.6-1.8,11-4.7,16c-0.9,1.5-1.8,2.9-2.6,4.2c0.8,1.4,1.3,2.6,1.7,3.8c0.5,1.5,0.9,3,1.2,5.3
		c0.6,4,0.2,8.9-0.2,13.3c-0.1,1.4-0.2,2.8-0.3,3.8c-0.2,2.3-0.3,4.1,0.3,5.5c0.6,1.4,1.9,2.8,4.7,4.4c2.2,1.3,4.5,2.4,6.8,3.5
		c3.1,1.5,6.2,3,9.2,5l1.5,1c5.3,3.5,8.6,5.7,10.6,10.5c0.9-1,2-1.9,3.1-2.7c3.1-2.1,6.5-2.5,9.4-1.9c0.1,0,0.3,0.1,0.4,0.1
		c-1.8-3.2-8.9-8.1-13.9-11.5c-1.3-0.9-2.5-1.7-3.4-2.4c-0.9-0.6-1.8-1.3-2.7-1.9c-1.8-1.3-3.7-2.5-5.4-4c-1.1-1-2.4-2.1-3.3-3.5
		c-1-1.6-1.6-3.3-1.2-5.4c0.8-3.9,3-6.6,5.5-9.6c3.7-4.4,8-9.6,7.5-20.8c-0.2-5.1-1.5-9.7-3.5-14c-2-4.4-4.8-8.4-8.2-12.4
		c-2.5-3.1-6-6.4-9.5-9.7c-1.8-1.7-3.5-3.3-5.1-5c-0.2,0.2-0.4,0.5-0.6,0.7c-0.9,0.9-1.8,1.6-2.8,2.3L169.1,550.2L169.1,550.2z
		 M118.5,583.2c-2.4,0.7-4.9,1.2-7.3,1.4c1.2,1.6,2.2,3.2,3.1,4.8c0.7,1.3,1.4,2.6,1.9,3.9c0.3-0.7,0.5-1.6,0.8-2.5
		C117.6,588.7,118.1,586.1,118.5,583.2L118.5,583.2z M89.8,479c-0.6-0.5-1.2-1.1-1.9-1.6c-1-0.9-2-1.7-3-2.6c-0.2,2-0.4,3.9-0.4,5.8
		c0,1.1-0.1,2.3-0.1,3.4c0.3-0.4,0.6-0.7,0.9-1.1C86.6,481.6,88,480.3,89.8,479L89.8,479z M88.9,454.1c0.8,3.3,2,4.8,4.1,7
		c0.7-1.9,1.6-3.6,2.6-5.3c0.7-1.2,1.5-2.4,2.3-3.5c-0.9,0.1-1.8,0.3-2.7,0.4C93.1,453.1,91,453.6,88.9,454.1L88.9,454.1z
		 M141.3,658.5h17.2c0-1.5-0.4-2.9-1.2-4.1c-0.6-0.9-1.4-1.7-2.3-2.3c-0.9-0.6-2-1.1-3.1-1.3c-2.1-0.4-4.5-0.1-6.8,1.4
		c-1,0.6-1.8,1.4-2.5,2.2c-0.6,0.7-1,1.5-1.2,2.3C141.2,657.3,141.2,657.9,141.3,658.5L141.3,658.5z M204.1,658.5h17.2
		c0-1.5-0.4-2.9-1.2-4.1c-0.6-0.9-1.4-1.7-2.3-2.3c-0.9-0.6-2-1.1-3.1-1.3c-2.1-0.4-4.5-0.1-6.8,1.4c-1,0.6-1.8,1.4-2.5,2.2
		c-0.6,0.7-1,1.5-1.2,2.3C204,657.3,204,657.9,204.1,658.5L204.1,658.5z M166.9,410.2c-1.2-0.6-2.6-0.9-3.9-1.2
		c-0.4-0.1-0.6-0.1-0.7-0.2c-0.1,0-0.3-0.1-0.6-0.1c-1.8-0.5-3.7-1.4-5.2-2.5c-1.8-1.4-2.9-3.3-2.4-5.4c0,0,0-0.1,0-0.2
		c0.2-0.7,0.5-1.4,0.8-2c0.6-1,1.5-1.9,2.5-2.4c1.1-0.6,2.3-0.7,3.6-0.4c0.5,0.1,0.9,0.3,1.4,0.6c4.4,2.7,5.4,6.2,6.6,10.3
		c0.1,0.5,0.3,1,0.4,1.5c0.3,0.9-0.3,1.9-1.2,2.2C167.8,410.6,167.3,410.5,166.9,410.2L166.9,410.2z M164.5,403.9
		c-0.7-1.2-2.5-3.5-3.9-4.4c-0.2-0.1-0.3-0.2-0.5-0.2c-0.3-0.1-0.7,0-1,0.1c-0.4,0.2-0.7,0.6-1,1c-0.2,0.3-0.4,0.7-0.5,1.1
		c0,0,0,0,0,0c-0.1,0.6,0.4,1.2,1.1,1.8c0.9,0.7,2,1.2,3.1,1.6C162,404,163.1,402.8,164.5,403.9L164.5,403.9z"/>
	<path class="st6" d="M300.6,321.8L300.6,321.8L300.6,321.8c0.4,0.4,0.8,0.7,1.2,0.9c0.9,0.5,1.9,0.6,3.1,0.3
		c0.5-0.1,1.1-0.3,1.7-0.7c0.6-0.3,0.9-0.9,1.2-1.5c1.2-2.1,2.5-4.5,10-4.8c5.8-0.2,14.1,4.2,20.2,7.4c0.8,0.5,1.7,0.9,2.4,1.3
		c2.1-2.7,4.2-5.2,6.4-6.5c2.6-1.5,5.2-1.6,7.8,0.9c2.6-2.5,5.2-2.4,7.8-0.9c2.3,1.3,4.4,3.8,6.4,6.5c0.7-0.4,1.5-0.8,2.4-1.3
		c6-3.2,14.4-7.7,20.2-7.4c7.5,0.3,8.8,2.7,10,4.8c0.4,0.6,0.7,1.2,1.2,1.5c0.6,0.3,1.2,0.5,1.7,0.7c1.2,0.3,2.3,0.1,3.1-0.3
		c0.9-0.5,1.7-1.4,2.3-2.4c0.3-0.6,0.6-1.4,0.8-2.1c1.1-4.5-1.6-6.4-5.2-7.2c-2.5-0.6-5.6-0.8-8.3-0.9c-0.5,0-1-0.1-1.4-0.1l0,0
		c-4-0.2-8.6,0.8-13,1.8c-3.6,0.8-7,1.6-10,1.7c-5.1,0.2-8.9-1.5-9.7-7.6c-5,0.7-10.5,0.9-16.9-0.2l0,0.3c-0.8,6.1-4.5,7.7-9.7,7.6
		c-3-0.1-6.4-0.9-10-1.7c-4.4-1-9-2-13-1.8h0c-0.3,0-0.8,0-1.4,0.1c-2.7,0.2-5.7,0.3-8.3,0.9c-3.6,0.9-6.3,2.8-5.2,7.2
		c0.2,0.8,0.5,1.5,0.8,2.1C299.8,320.9,300.2,321.4,300.6,321.8L300.6,321.8z M354.6,309.6c0.8,0,2.1,1.5,2.1,2.4
		c0,0.9-1.4,2.3-2.1,2.3c-0.8,0-2.1-1.5-2.1-2.3C352.5,311.1,353.9,309.6,354.6,309.6L354.6,309.6z M327.6,335.2L327.6,335.2
		c-1.4,0.7-3,1.3-4.6,1.8c-2.4,0.7-5.1,1.1-7.9,1.1c-2.8,0-5.5-0.4-7.9-1.1c-1.7-0.5-3.2-1.1-4.6-1.8l0,0c0,3.9,1.4,7.4,3.7,9.9
		c2.3,2.5,5.4,4,8.8,4c3.4,0,6.6-1.5,8.8-4C326.2,342.6,327.6,339.1,327.6,335.2L327.6,335.2z M381.6,335.2L381.6,335.2
		c0,3.9,1.4,7.4,3.7,9.9c2.3,2.5,5.4,4,8.8,4c3.4,0,6.6-1.5,8.8-4c2.3-2.5,3.7-6,3.7-9.9l0,0c-1.4,0.7-3,1.3-4.6,1.8
		c-2.4,0.7-5.1,1.1-7.9,1.1c-2.8,0-5.5-0.4-7.9-1.1C384.6,336.6,383.1,336,381.6,335.2L381.6,335.2z M353.1,263.9
		c0.1,0.1,0.1,0.1,0.2,0.2c0.3,0.4,0.7,0.7,1.1,0.8c0.4-0.2,0.9-0.3,1.3-0.4c1.1-1,2-3.7,2.9-6.4c0.5-1.6,1-3.1,1.7-4.5
		c0.2-0.5,0.3-1,0.3-1.5c0-1-0.4-2-1.1-2.8c-0.7-0.9-1.7-1.6-2.7-2.1c-0.7-0.3-1.4-0.5-2.1-0.5c-0.8,0-1.6,0.2-2.5,0.6
		c-1,0.4-1.9,1.1-2.5,1.9c-0.6,0.7-1,1.6-1,2.6c0,0.6,0.1,1.2,0.4,1.9c0.7,1.6,1.3,3.3,1.8,4.9C351.6,260.7,352.3,262.7,353.1,263.9
		L353.1,263.9z"/>
	<path class="st2" d="M377.3,378.3c-0.1,0-0.1,0-0.2,0c-2,0.2-4,0.3-6,0.2c-0.4,0-0.7,0-1.1,0c-1.9,2.4-3.5,4.9-4.7,7.6
		c-1.2,2.6-2,5.4-2.4,8.5c0.8,0.3,1.6,0.5,2.4,0.8c6.5,2,13.2,2.9,19.9,3c-0.1-0.9-0.1-1.8-0.1-2.7c0-5.1,1.1-10.5,2.4-14.7
		c0.1-0.6,0.6-1,1.2-1.1c0.8-0.2,1.6,0.4,1.8,1.2c0.7,3.7,3.2,5.8,6.2,6.7c1.5,0.4,3.2,0.6,4.8,0.4c1.6-0.2,3.2-0.6,4.5-1.3
		c2.3-1.2,4-3.1,3.9-5.5v0v0c-0.2-6.3-4-7.7-8.1-7.6c-2.6,0.1-5.4,0.7-7.5,1.2c-0.1,0-0.1,0-0.8,0.2l-0.1,0
		c-1.5,0.3-2.5,0.6-3.5,0.8C385.8,376.8,381.5,377.8,377.3,378.3L377.3,378.3z M344.9,289.7c0.2,0.2,0.5,0.4,0.7,0.5
		c-0.8,0.7-4-0.5-3.9,1.3c0.1,1.9,11.4,5.3,15.1,3.3c-2.8,5,0.8,6.4,5.9,3.8c4.5-2.4,9.1-7.1,10.8-9.2c0.3,0.4,0.6,0.8,0.7,1.2
		c0.2,0.7,0.2,1.4,0,2.2c-0.2,0.9-0.6,1.8-1.1,2.7c-6.5,10.8-25.5,8.1-35.4,4.1c-2.2-0.9-4.2-1.8-5.9-2.7c-0.6-0.4-1.3-0.3-1.8,0.2
		c-3.3,3-6.7,5.6-10.2,8.3c0,0-0.1,0-0.1,0.1c-0.6,0.5-1.3,1-1.9,1.4c-1.5-0.2-3-0.2-4.5-0.1l0,0c-0.6,0-0.9,0.1-1.3,0.1
		c-2.8,0.2-6,0.3-8.8,1c-5.2,1.3-9.1,4.1-7.4,10.9c0.3,1,0.6,2,1.1,2.8c0.2,0.4,0.4,0.7,0.6,1c-1.8,1.6-3.5,2.9-5,4.2
		c-3.9,3.1-7,5.5-8.1,9.6c-1.3,4.7,0.7,8.3,4,14.3c0.9,1.7,2,3.6,3,5.7c-4.7,4.3-9.6,8.2-14.9,11.4c-5.2,3.2-10.9,5.6-16.9,6.8
		c-0.7-1.1-1.3-2.2-2-3.2c-1.7-2.7-3.4-5.4-4.6-8.2c-1-2.3-1.8-4.6-2.5-7c-0.7-2.5-1.4-4.9-1.9-7.3c-0.5-2.2-1-4.5-1.4-6.8
		c-0.4-2.3-0.7-4.6-1-6.9c-0.1-1.1-0.2-2.2-0.2-3.2c0-1,0.1-2,0.3-3c0.2-1,0.6-2,1.1-3c0.5-1,1.1-1.9,1.7-2.8c0.7-1,1.4-1.9,2.2-2.8
		c0.9-0.9,1.8-1.8,2.7-2.5c2.3-1.9,4.6-3.6,7-5.4c2.4-1.7,4.8-3.4,7.3-5c2.7-1.8,5.4-3.6,8.1-5.4c0,0,0.1,0,0.1-0.1
		c1.3-0.8,2.5-1.7,3.8-2.5c4-2.6,8.1-5.1,12.3-7.6c2.9-1.7,5.9-3.5,8.9-5.1c3-1.6,6-3.2,9.1-4.5c1.8-0.7,3.7-1.3,5.6-1.8
		c2-0.5,4-0.8,5.9-1.1c0.8-0.1,1.7,0,2.6,0.2c0.6,0.1,1.1,0.2,1.7,0.2l0,0c0.6,0,1.2-0.2,1.5-0.8c0.4-0.8,0.8-1.6,1.1-2.4
		c0.6-1.4,1.2-2.8,2.1-3.7v0c0.5-0.5,1.5-0.7,2.5-1c0.5-0.1,1-0.2,1.6-0.4c0.8-0.3,1.8-0.6,2.8-0.8c1.4-0.4,2.7-0.7,4.1-1.3
		c0.9-0.3,1.7-0.8,2.4-1.3c0.8-0.5,1.5-0.9,2.3-1.2c0.9-0.3,2.2-0.4,3.4-0.4c0.4,0,0.8,0,1.2-0.1c0,0,0.1,0.1,0.1,0.1l-0.2,0.1
		c-1.6,1.2-3.3,2.9-5.1,4.9c-1.4,1.6-2.8,2.9-4,4.1c-3.8,3.8-6.1,6-3.5,8.8c1.6,1.7,3.7,1.6,6.2,0.5
		C343.7,286.7,343.5,288.1,344.9,289.7L344.9,289.7z M245.5,366.5c-0.8,2.6-0.9,5.5-0.5,8.6c2.5,0.4,5,0.5,7.4,0.5
		c0.6,0,1.1-0.1,1.7-0.1c0,0,0.1,0,0.1,0c0.7-0.1,1.4-0.1,2-0.2c-0.4-0.7-0.9-1.4-1.3-2.1l-2.7,0l-1-1.6l1.9-1.2
		c-0.4-0.6-0.8-1.3-1.1-2l-3,0.7l-0.4-1.2l1.7-2.8c-0.1-0.2-0.2-0.3-0.2-0.5c-0.6-1.3-1.1-2.6-1.5-3.9
		C247.2,362.4,246.1,364.4,245.5,366.5L245.5,366.5z M235.1,399.7L235.1,399.7c0.2-1.3,0.3-2.6,0.3-4c0-3.2-0.5-6.6-1.2-9.7
		c-1.6,2.3-3.9,3.8-6.5,4.6c-1.9,0.6-3.9,0.7-5.9,0.5c-2-0.2-3.9-0.7-5.6-1.6c-1.1-0.5-2-1.2-2.8-2c-0.1,1.3-0.1,2.7-0.1,4.1
		c0,8.7,1.6,17.8,10.8,17.8c1.6,0,2.9-0.2,4.1-0.6c2.7-0.8,4.4-2.5,5.5-4.8C234.4,402.8,234.9,401.3,235.1,399.7L235.1,399.7z
		 M258.3,386.1c-1.2-2.7-2.9-5.2-4.7-7.6c-0.4,0-0.7,0-1.1,0c-6.4,0.2-12.7-1.3-18.9-2.7c-1-0.2-2.1-0.5-3.5-0.8l-0.1,0
		c-0.7-0.2-0.7-0.2-0.8-0.2c-2.1-0.5-4.8-1.1-7.5-1.2c-4-0.1-7.9,1.3-8.1,7.6v0v0c0,2.4,1.6,4.4,3.9,5.5c1.3,0.7,2.9,1.1,4.5,1.3
		c1.6,0.2,3.3,0,4.8-0.4c3-0.9,5.5-3,6.2-6.7c0.2-0.8,1-1.4,1.8-1.2c0.6,0.1,1.1,0.6,1.2,1.1c1.3,4.2,2.4,9.6,2.4,14.7
		c0,0.9,0,1.8-0.1,2.7c6.8-0.1,13.4-1,19.9-3c0.8-0.2,1.6-0.5,2.4-0.8C260.3,391.5,259.5,388.7,258.3,386.1L258.3,386.1z
		 M278.2,385.3c1.6-6.6,3.8-12.8,6.7-18.4c0.3-0.7,0.7-1.3,1.1-2c-2.6,2-5.3,3.9-8,5.6c-6.4,3.9-13.2,6.7-20.8,7.7
		c1.5,2.1,2.9,4.4,4,6.7c1.2,2.7,2.1,5.5,2.5,8.6C268.6,391.5,273.5,388.8,278.2,385.3L278.2,385.3z M298.4,369.4
		c-2.2-2.9-3.5-6.5-4.7-10.5c-2.3,2.9-4.4,6-6.1,9.4c-2.7,5.3-4.7,11.1-6.3,17.2c10.1,5.9,20.3,8.8,30.4,8.8
		c10.1,0,20.3-2.9,30.5-8.8c-1.6-6.2-3.6-11.9-6.3-17.2c-1.8-3.4-3.8-6.6-6.2-9.6c-3.8,10.8-6.1,16.7-18.1,16.7
		C305.2,375.3,301.2,373.1,298.4,369.4L298.4,369.4z M252.6,403c-0.4,0-0.8-0.1-1.1-0.3c-2.2-0.5-4.6-0.6-6.7-0.3
		c-2.2,0.4-4,1.3-5,2.8c-0.2,0.4-0.4,0.8-0.5,1.2c-1.3,4.6,1.3,7.7,4,10.9c0.5,0.6,1,1.2,1.5,1.8H269l-0.5-0.7
		c-3.5-5-7-10.1-12.5-13.7C255,403.9,253.8,403.3,252.6,403L252.6,403z M300.7,400.4c-2.6-1-5.7-1.5-8.8-1.6c-2.8-0.1-5.6,0.3-8,1.2
		c-0.9,0.3-1.4,0.5-1.8,0.7c3,2.7,5.4,6.4,7.6,9.9c2.3,3.7,4.5,7.2,6.9,8.4h19.9c-1.7-1.8-3.2-4.2-4.8-6.8
		C309.1,408,305.7,402.3,300.7,400.4L300.7,400.4z M333.2,400c-0.9,0.3-1.4,0.5-1.8,0.7c3,2.7,5.4,6.4,7.6,9.9
		c2.3,3.7,4.5,7.2,6.9,8.4h19.9c-1.7-1.8-3.2-4.2-4.8-6.8c-3-4.8-6.3-10-11-11.8c-2.6-1-5.7-1.6-8.8-1.6
		C338.3,398.7,335.5,399.1,333.2,400L333.2,400z M360.8,377c0,0-0.1,0-0.1,0c-5.4-1.4-10.4-3.7-15.1-6.6c-2.8-1.7-5.5-3.6-8-5.6
		c0.4,0.7,0.7,1.3,1.1,2c2.9,5.6,5.1,11.9,6.7,18.4c4.8,3.5,9.6,6.2,14.6,8.2c0.4-3.1,1.3-5.9,2.5-8.6c1.1-2.4,2.4-4.6,4-6.7
		C364.5,377.9,362.7,377.5,360.8,377L360.8,377z M375.4,362.9c-1.1-3-3.1-5.4-5.7-7.4c-1.9,5.9-4.1,12.3-6.5,19.1
		c0.8,0.2,1.6,0.3,2.4,0.5l2.2-4l1.2,0.9l-0.3,3.5c0.2,0,0.5,0,0.7,0.1c0,0,0.1,0,0.1,0c0.6,0,1.1,0.1,1.7,0.1h0.1l0.9-3l1.2-1
		l0.8,4c0.6,0,1.2-0.1,1.7-0.1C376.9,370.4,376.7,366.2,375.4,362.9L375.4,362.9z M388.5,399.6L388.5,399.6c0.3,1.6,0.7,3.2,1.3,4.5
		c1.1,2.2,2.9,4,5.5,4.8c1.2,0.4,2.5,0.6,4.1,0.6c9.3,0,10.8-9.2,10.8-17.8c0-1.4,0-2.8-0.1-4.1c-0.8,0.8-1.8,1.4-2.8,2
		c-1.7,0.9-3.6,1.4-5.6,1.6c-2,0.2-4,0-5.9-0.5c-2.6-0.8-4.9-2.3-6.5-4.6c-0.7,3.1-1.2,6.5-1.2,9.7
		C388.2,397,388.3,398.4,388.5,399.6L388.5,399.6z M331.3,300.2c-3,2.7-6.1,5-9.3,7.5c1.7,0.3,3.5,0.7,5.2,1.1
		c3.4,0.8,6.7,1.5,9.4,1.6c3.5,0.1,6.1-1.1,6.6-5.4c-2.3-0.8-4.5-1.6-6.6-2.4C334.7,301.8,332.9,301,331.3,300.2L331.3,300.2z
		 M317.9,319.2c3.9,2.3,8.3,4.9,12.1,7.6c4.7,3.4,8.5,6.9,9.3,10.1c1.3,4.7-0.7,8.3-4,14.3c-0.9,1.6-1.9,3.4-2.9,5.4
		c4.6,4.2,9.5,8.1,14.7,11.3c4.1,2.5,8.4,4.5,13,5.9c2.7-7.5,5.2-14.6,7.1-21.1c0-0.1,0-0.1,0.1-0.2c0.9-3.1,1.8-6,2.5-8.7
		c1.9-7.4,2.9-13.4,2.5-17.4c-1.2,0.6-2.3,1.2-3.3,1.7c-0.7,0.3-1.4,0.1-1.9-0.4l0,0c-2.1-2.8-4.3-5.5-6.3-6.7
		c-1.6-0.9-3.3-0.8-5.1,1.5c-0.5,0.7-1.5,0.8-2.1,0.2c-0.1-0.1-0.2-0.2-0.3-0.3c-1.8-2.3-3.5-2.4-5.1-1.5c-2,1.2-4.2,3.9-6.3,6.7
		c-0.5,0.6-1.3,0.8-2,0.4c-1-0.5-2.2-1.2-3.5-1.8C330.9,323.2,322.9,319,317.9,319.2L317.9,319.2L317.9,319.2z M372.1,286.7
		c0.1-0.1,0.2-0.2,0.3-0.3c1.2-1.3,1.7-2.3,1.2-3c-0.1-0.1-0.1-0.1-0.2-0.2c-0.2-0.2-0.6-0.2-1-0.1c-0.7,0.2-1.6,0.7-2.6,1.5
		c-1.3,1-2.7,2.5-4.3,4.4c-1.3,1.5-2.5,2.8-3.6,4c-2.1,2.3-3.4,3.6-3.1,3.9c0.3,0.3,1.1,0,2.3-0.7c1.7-1,3.8-2.8,6.1-4.9
		c0.4-0.4,0.7-0.6,0.9-0.9C369.8,289,371.1,287.7,372.1,286.7L372.1,286.7z M363.7,285.9c3.8-3.6,6.7-6.3,5.4-7.8
		c-0.1-0.1-0.2-0.2-0.3-0.3c-0.4-0.3-0.9-0.4-1.5-0.2c-0.8,0.2-1.7,0.8-2.7,1.6c-0.7,0.7-1.4,1.4-2.2,2.1c-0.7,0.8-1.5,1.7-2.2,2.6
		c-1.4,1.7-2.6,3.1-3.6,4.3c-2.2,2.5-3.5,4-3,4.5c0.5,0.5,1.5,0.2,2.8-0.6c1.8-1.1,4-3,6.3-5.2C363.1,286.5,363.4,286.2,363.7,285.9
		L363.7,285.9z M360.4,279c0.7-0.8,1.4-1.4,2.1-2l0.1-0.1c1.7-1.8,2.5-3.2,1.7-4.3c-0.1-0.1-0.2-0.3-0.3-0.3c-0.4-0.4-1-0.4-1.6-0.3
		c-0.9,0.2-2,0.8-3.2,1.8c-0.3,0.2-0.5,0.4-0.8,0.7c-0.3,0.3-0.6,0.6-0.9,0.8c-0.9,0.9-1.9,1.9-2.9,3.1c-1.4,1.7-2.8,3.2-4,4.4
		c-2.5,2.6-3.9,4.1-3.3,4.8c0.5,0.6,1.6,0.3,3.1-0.5c1.9-1.1,4.3-3.1,6.9-5.3c1.2-1.1,0.9-0.8,1.1-0.9
		C359,280.3,359.7,279.6,360.4,279L360.4,279z M355.4,273.1c0.2-0.2,0.5-0.5,0.7-0.7c1.9-1.8,2.8-3.2,2-4.3
		c-0.1-0.1-0.2-0.2-0.3-0.3c-1-0.9-3.8,0.6-4.8,1.3c-1.4,1.1-3,2.6-4.7,4.5c-1.5,1.7-2.9,3.1-4.1,4.3c-2.5,2.5-4,4-3.4,4.6
		c0.5,0.6,1.6,0.3,3-0.4c2-1,4.4-2.9,7-5.1c0.8-0.6,1-0.8,1.1-0.9l0,0c0,0-0.1,0.1,0,0C353.2,275,354.4,274,355.4,273.1L355.4,273.1
		z M250.3,264.8c-0.8,1.6,2.4,3.4,6.6,5.8c0.8,0.5,0.5,0.3,1.1,0.6c2.6,1.5,5,2.8,6.9,3.3c1.3,0.4,2.2,0.5,2.5,0
		c0.3-0.5-1.1-1.6-3.7-3.3c-1.2-0.9-2.7-1.9-4.2-3.1c-1.7-1.4-3.4-2.4-4.8-3.2c-1.2-0.6-2.2-0.9-3-0.9c-0.5,0-0.9,0.1-1.2,0.5
		C250.4,264.6,250.4,264.7,250.3,264.8L250.3,264.8z M246.9,272.3c-0.8,1.8,2,3.2,5.7,5l1,0.5c2.4,1.2,4.5,2.2,6.2,2.5
		c1.1,0.2,2,0.2,2.3-0.4c0.4-0.7-0.9-1.5-3.1-2.9c-1.1-0.7-2.4-1.6-3.9-2.6c-1.4-1.1-2.8-1.9-3.9-2.4c-1.1-0.5-2-0.8-2.8-0.7
		c-0.5,0-0.9,0.2-1.2,0.6C247.1,272,247,272.1,246.9,272.3L246.9,272.3z M243.2,280.7c-0.3,1.3,0,2.2,0.8,2.9c1.2,1,3.2,1.8,5.9,2.6
		c2.8,0.9,5.3,1.6,7.2,1.8c1.3,0.1,2.2,0,2.4-0.7c0.3-0.9-0.6-1.5-2.6-2.6c-1.3-0.8-2.9-1.7-4.7-3.1c-1.7-1.3-3.3-2.1-4.7-2.5
		c-1-0.3-1.8-0.3-2.5-0.2c-0.6,0.1-1,0.4-1.3,0.8C243.4,280.1,243.3,280.4,243.2,280.7L243.2,280.7z M268.7,265.6
		C268.6,265.6,268.6,265.6,268.7,265.6c-0.1-0.1-0.2-0.2-0.2-0.2c-0.8-0.7-1.7-1.6-2.8-2.5l0,0c-0.6-0.6-1.3-1.2-2.1-1.9
		c-1.9-1.7-3.6-2.8-5-3.5c-0.8-0.4-1.6-0.5-2.2-0.5c-0.4,0-0.7,0.2-1,0.4c-0.1,0.1-0.3,0.3-0.3,0.6c-0.8,1.9,2.3,3.9,6.4,6.6
		c0.1,0.1,0.3,0.2,1,0.7c2.5,1.7,4.8,3.1,6.5,3.8c1.1,0.4,1.9,0.5,2.1,0.1C271.5,268.5,270.5,267.3,268.7,265.6L268.7,265.6z
		 M281.3,272.1c-2.4-3.8-4.7-7.3-8.7-9c-0.3,0.4-0.7,0.8-1,1.2c2.3,2.3,3.3,4.3,2.1,6.4c-0.8,1.5-2.1,2-3.7,1.8
		c0.7,1.1,0.8,2.2-0.1,3.6c-1.1,1.7-2.9,2.1-5.1,1.5c0.8,1,0.9,2.2,0,3.8c-0.9,1.6-2.3,2.2-4.1,2.1c1.8,1.3,2.5,2.4,1.7,4.8
		c1.4-0.2,2.9-0.6,4.3-1l0.9-0.2c0.6-0.2,1.2-0.4,1.8-0.7c0.4-0.2,0.7-0.3,1.1-0.5c0.8-0.3,1.7,0.1,2,0.8c0.3,0.8-0.1,1.7-0.8,2
		c-0.3,0.1-0.6,0.3-0.9,0.4c-0.7,0.3-1.4,0.6-2.2,0.9c-0.2,0.1-0.3,0.1-0.9,0.2c-1.9,0.5-3.9,1.1-6,1.2c-1.6,0.1-3.3,0.1-4.9,0.1
		c-1.7-0.1-3.3-0.2-4.9-0.5c-3-0.5-5-1-6.9-1.9c-0.6-0.2-1.1-0.5-1.7-0.8c0.4,0.6,0.8,1.2,1.2,1.9c1.2,2.2,1.2,3.8,1.2,5.2
		c0,0.8,0,1.6,0.4,2.4c0.5,1,1.4,1.5,2.5,1.7c1.7,0.3,3.7,0,5.3-0.5c1.6-0.5,2.7-1.1,3.7-1.7c2.5-1.4,4.4-2.4,10.5-1.5
		c3.4,0.5,4.9,1.4,7.2,2.9l0.6,0.3c1-0.7,2.1-1.3,3.1-2c4.1-2.6,8.3-5.2,12.4-7.6c1.9-1.1,3.9-2.3,5.8-3.4
		C288.4,282.9,284.7,277.3,281.3,272.1L281.3,272.1z"/>
	<path class="st3" d="M221.7,548.3c4.1,0.7,7.9,2.4,11.7,4.1h0c3.6,1.6,7.2,3.2,10.1,3.2c2.9,0,6.5-1.6,10.1-3.2
		c4.9-2.2,9.8-4.4,15.4-4.4c5.6,0,10.5,2.2,15.4,4.4c3.6,1.6,7.2,3.2,10.1,3.2c4.6,0,12.9-3.1,17.2-5.2v12.9
		c-0.6,0.3-1.2,0.5-1.8,0.8c-4.9,2.2-9.8,4.4-15.4,4.4c-5.6,0-10.5-2.2-15.4-4.4c-3.6-1.6-7.2-3.2-10.1-3.2c-2.9,0-6.5,1.6-10.1,3.2
		c-4.9,2.2-9.8,4.4-15.4,4.4c-5.6,0-10.5-2.2-15.4-4.4l0,0c-2.2-1-4.4-2-6.4-2.6L221.7,548.3L221.7,548.3z"/>
	<path class="st2" d="M428.6,346.6l-4.5,0.5c-2-1.6-3.1-3.2-3.6-4.8c-0.3-1.2-0.2-2.4,0.2-3.6c1.4,0.9,2.7,2,4,3.3
		C426,343.4,427.3,344.9,428.6,346.6L428.6,346.6z M425.5,350.5l5.8-0.7c1.3,0.9,2.4,2,3.4,3.2c0.5,0.7,1.1,1.3,1.5,2.1
		c-3.4,0.3-6,0-7.8-0.8C426.9,353.5,425.9,352.3,425.5,350.5L425.5,350.5z M438.8,358.3c1.5,1.2,2.8,2.4,3.8,3.6
		c0.6,0.7,1.1,1.4,1.5,2.1c-3.9,0.2-6.9-0.1-9-0.8c-0.1,0-0.1-0.1-0.2-0.1c-0.6-0.2-1.2-0.5-1.7-0.8c-1.5-0.9-2.4-2.2-2.6-3.9
		C432.8,358.9,435.6,358.8,438.8,358.3L438.8,358.3z M446.4,367.5c1.3,0.8,2.5,1.6,3.5,2.6c0.5,0.5,1,1.1,1.4,1.8
		c-5,0.3-9.1,0.1-11.8-1c-2-0.7-3.2-2-3.4-3.8C438.8,367.7,442.2,367.8,446.4,367.5L446.4,367.5z M453.4,375.4
		c1.2,0.9,2.2,1.9,3.1,2.9c0.4,0.5,0.8,1,1.2,1.5c-4.6,0.3-8.6,0.1-11.4-0.9c-2.1-0.7-3.5-1.9-4.1-3.7
		C445.3,375.8,449.1,375.7,453.4,375.4L453.4,375.4z M460.3,383.2c0.8,0.5,1.4,1.1,1.9,1.6c0.5,0.6,0.9,1.2,1.2,1.8
		c0.4,0.9,1.4,1.4,2.3,1c0.1,0,0.1,0,0.2-0.1c0.6-0.3,1.1-0.5,1.7-0.7c0,0,0.1,0,0.1,0c0,0,0.1,0,0.1-0.1c1.2-0.4,2.3-0.5,3.4-0.4
		c1.5,0.2,3,0.9,4.3,2.3c0.7,0.7,1.8,0.7,2.5,0.1c0.7-0.7,0.7-1.8,0-2.5c-0.4-0.4-0.7-0.7-1.1-1c3.8-4.9,4.6-8.2,5.5-11.5
		c0.6-2.1,1.1-4.1,2.5-6.6c0.4-0.7,0.7-1,0.9-1c0.3,0,0.7,0.2,1.1,0.5c1.5,1.1,2.6,3.2,3.5,5.7c1.2,3.6,1.7,7.6,1.7,10.2
		c-0.1,4.2-1.4,6.8-2.8,9.4c-1.1,2.1-2.3,4.2-2.9,7.2c0,0.1,0,0.1,0,0.2c-0.1,0.4-0.2,0.9-0.2,1.4c-0.1,1-0.2,2.2-0.2,3.4
		c0,0,0,0.1,0,0.1c0,1.3,0,2.6,0,4c0.1,3.7,0.2,7.5-0.6,9.9c-3,8.8-12,12.1-20.1,15.1c-0.5,0.2-1,0.4-2,0.7c-4.1,1.6-8.2,3.2-12,5.3
		c-3.4,1.8-6.5,4-9.5,6.6l-2-2.2c0,0-0.1-0.1-0.1-0.1c-0.3-0.4-0.5-1.1-0.5-1.8c-0.1-1,0.1-2,0.4-2.6c0.8-1.6,2.4-2.5,4.1-3.5
		c1.8-1,3.6-2,5.1-3.9c0.7-0.9,1-2.1,1.1-3.2c0-1.3-0.3-2.6-0.6-3.6c-0.3-0.9-1.2-1.3-2.1-1.1c-5.8,0.9-7.9,2.2-12,5.2
		c-0.6-0.7-1.1-1.4-1.4-2.1h0l0,0c-0.5-1-0.6-2.2-0.4-3.6c0.6-3.4,3.4-5.2,6.2-7v0c0.8-0.5,1.6-1,2.4-1.5c2.8-1.9,5-3.5,6.8-5.5
		c1.9-2.1,3.3-4.6,4.2-8.2c0.5-2.1,0.7-4.1,0.7-6.1c0-1-0.1-1.9-0.2-2.9c0.9,0.2,1.9,0.5,2.9,0.6c1,0.2,1.9-0.5,2-1.5
		c0.2-1-0.5-1.9-1.5-2c-1.8-0.3-3.5-0.7-5-1.3c-0.1,0-0.1,0-0.2-0.1c-0.8-0.4-1.6-0.8-2.3-1.3c-1.1-0.9-2.1-2-2.7-3.6
		C450.4,383.6,455,383.7,460.3,383.2L460.3,383.2z M471.5,382.8c-1.1-0.1-2.2-0.1-3.3,0.2c-0.1-0.4-0.1-0.8,0-1.5
		c0.2-1.1,0.9-2.2,1.6-3.2c0.5-0.8,1-1.5,1.4-2.4c1.1-2.3,1.1-3.4,1-4.7c0-0.6,0-1.2,0.1-2c0.1-0.6,0.3-1.4,0.7-1.9
		c0.1-0.1,0.1-0.1,0.2-0.1c1.8,0.3,3,2.2,4,3.9l0.2,0.3c0,0,0,0.1,0.1,0.1c0.4,0.6,0.7,1.1,1,1.7l0.1,0.2c-0.7,2.8-1.7,5.7-5,10
		C473.1,383.1,472.3,382.9,471.5,382.8L471.5,382.8z M489.7,401.1c0-0.3,0.1-0.6,0.1-0.8c0.4-0.3,1.2-0.2,2.4,0.1l0,0
		c1.7,0.4,3.6,1.3,5.4,2.3c2,1.1,3.6,2.2,4.5,2.9c3.1,2.7,4,6,5,9.6c0.4,1.4,0.8,2.8,1.3,4.3c0.4,1.1,0.9,2.2,1.3,3.3
		c-0.4-0.2-0.8-0.4-1.3-0.6c-4.3-2-8.5-3.9-11.8-7c-1.5-1.4-2.3-3.5-3.2-5.6c-1-2.4-1.9-4.8-3.8-6.4
		C489.6,402.4,489.6,401.7,489.7,401.1L489.7,401.1z M488.8,419.2c0.9-2.5,0.9-5.9,0.8-9.4c0.2,0.4,0.3,0.8,0.5,1.1
		c0.9,2.2,1.8,4.5,3.5,6.4c0.1,2,0.2,3.8,0.3,5.5c0.8,13.9,1.1,19.2-6.8,34.6c-1.5,2.8-3.2,5.7-4.9,8.5c-4.1,6.7-8.1,13.3-9.4,21.6
		c-1.2,8.2-0.8,13.8,1,19c1.5,4,3.8,7.6,7,11.8l0,0c0.8,1.1,1.7,2.3,2.7,3.5c15.1,19.2,14.5,22,9.2,45.6l0,0.1
		c-0.2,1-0.5,2.1-0.7,3.3c-0.7,3-1.3,5.6-1.9,7.9c-3.4,13.7-3.7,14.9,8.1,31.2c0.9,1.3,2,2.5,3,3.8c4.2,5.1,8.5,10.3,2.5,15.3
		c-7.3,6.1-9.2,9-12.5,14.1c-1.2,1.9-2.6,4-4.6,6.8c-0.8,1.1-1.6,2.1-2.5,3.2c-0.2-0.3-0.4-0.5-0.6-0.8c-0.9-1.2-2.1-2.2-3.4-3
		c-2.1-1.4-4.2-2-6.3-2.1l0.2-0.2c5.1-5.4,9.8-10.3,13.8-17.1c1.7-2.8,2.1-5,1.6-7c-0.5-2-2-3.6-4.2-5.4c-1.7-1.4-3.5-2.7-5.3-4.1
		c-0.8-0.6-1.7-1.3-2.8-2.2c-1.2-0.9-2.1-1.6-2.8-2.2c-7.8-6-12.1-9.3-17.8-19.2c-2.6-4.5-4-9.4-4.3-14.5
		c-0.3-5.6,0.6-11.3,2.4-16.7c0.8-2.5,1.9-4.7,2.9-6.9c0.2-0.3,0.3-0.7,0.5-1c0-0.1,0.1-0.1,0.1-0.2c2.6-5.6,4.7-11,3-18.7
		c-0.5-2.1-1.5-3.8-2.6-5.6c-0.5-0.8-0.9-1.5-1.3-2.3c-0.4-0.9-1.5-1.2-2.4-0.8c-0.9,0.4-1.2,1.5-0.8,2.4c0.5,0.9,1,1.7,1.5,2.6
		c0.9,1.5,1.8,3,2.1,4.5c1.3,5.7,0,10.1-1.9,14.5c-0.7-0.5-1.3-1-1.8-1.5c-1.7-1.8-3.2-4.7-4.6-7.7c-1.2-2.4-2.4-4.9-4-7
		c-1.8-2.5-3.4-4.4-5.1-6.3c-2.6-2.9-5.7-5.7-8.5-8.4c0.5-1.4,1.5-2.7,3-3.8c2-1.5,5.3-2.9,8.6-4.3c2.8-1.2,5.5-2.4,7.7-3.6
		c3.9-2.3,6.6-4.1,8.7-6.4c2.2-2.3,3.7-5.1,5.2-9.4c0.3-0.9-0.1-1.9-1.1-2.3c-0.9-0.3-1.9,0.2-2.3,1.1c-1.4,3.8-2.7,6.2-4.5,8.2
		c-1.8,2-4.3,3.6-7.9,5.7c-2,1.2-4.7,2.3-7.4,3.5c-3.5,1.5-7,3-9.3,4.7c-3.1,2.3-4.5,5-5,8c-0.5,2.8-0.1,5.8,0.3,8.8
		c0.2,1.7,0.5,3.4,0.8,5c0.5,2.7,1,5.5,1.1,8c0,0.5,0,1-0.1,1.5c-0.1,0.4-0.2,0.8-0.3,1.2c-0.1,0.2-0.2,0.4-0.3,0.5l0,0.1
		c-1.7,2.4-6.8,3.3-10.5,4l-0.2,0c-0.1-6-0.4-12.1-0.7-18.2c-0.3-5.4-0.6-10.8-0.7-16.1c-0.1-3.9,1.3-5.7,2.8-7.7c1-1.3,2-2.7,3-4.7
		c0.4-0.8,0.6-1.6,0.6-2.6c2.1-3,4.5-4.7,6.7-6.2c1.6-1.1,3-2.1,4.1-3.4c3.6-4,4.4-7.4,5.1-10.5c0.4-1.7,0.8-3.3,1.6-4.7
		c0.8-1.3,1.5-2.5,2.4-3.6c0.9-1.1,2.1-2.2,3.6-3.4c0.8-0.6,0.9-1.7,0.3-2.5c-0.6-0.8-1.7-0.9-2.5-0.3c-1.8,1.4-3.1,2.6-4.1,3.9
		c-1.1,1.3-1.9,2.6-2.8,4.1c-1.1,1.9-1.5,3.8-2,5.7c-0.6,2.7-1.3,5.6-4.3,8.9c-0.9,1-2.1,1.9-3.5,2.8c-1.5,1.1-3.2,2.2-4.8,3.8
		c0-0.4-0.1-0.9-0.1-1.3c-0.3-2.5-0.5-5-0.2-6.9c0.8-5.1,2.5-9.6,4.7-13.8c2.3-4.3,5.1-8.3,8.3-12.4c1-1.3,2.1-2.6,3.3-3.8
		c1.2-1.3,2.3-2.5,3.5-3.7c3-3,6.4-5.3,10-7.3c3.6-2,7.6-3.6,11.6-5.1c0.4-0.1,1.2-0.4,1.9-0.7C475.4,433.2,485.3,429.5,488.8,419.2
		L488.8,419.2z M439.3,448.3c-0.8,0.9-1.7,1.7-2.4,2.6c-1.2,1.3-2.3,2.6-3.4,4c-2.1,2.7-4.1,5.4-5.9,8.1c-3.5-2.5-5.8-6.4-7.8-9.7
		c-1.7-2.8-3.1-5.3-5.1-6.7l-3.6-2v-16l3.6,0c3.4,0.2,5.2,0.7,8.6,3c2.1,1.5,4.5,4.3,6.7,6.8c1,1.2,2,2.3,2.9,3.2v0
		c1,1.1,1.9,2,2.9,2.8c0.5,0.5,1,0.9,1.4,1.4l0,0L439.3,448.3L439.3,448.3z M420.2,549.6c3.4-0.6,7.5-1.5,10.3-3.5
		c0.5,1.1,0.9,2.3,1.1,3.6c0.4,2,0.4,4-0.1,5.8c-0.3,1.4-0.8,1.7-1.7,2.3c-0.3,0.2-0.5,0.4-0.8,0.6c-1.4,1-2.5,2.1-3.6,3.1
		c-1.5,1.5-3,2.9-5.1,3.7c-0.3-2.3-0.4-4.7-0.5-7.2C419.8,555.3,419.9,552.5,420.2,549.6L420.2,549.6z M497.4,420.3
		c2.8,1.9,5.8,3.4,8.9,4.8c1.9,2.6,2.5,5.5,3.1,8.5c0.5,2.4,1,5,2.2,7.6c-2.1-0.8-3.8-1.5-5.4-2.4c0,0-0.1,0-0.1,0
		c-1.8-0.9-3.4-2-5.5-3.3c-0.9-0.6-1.8-1.2-2.7-1.7c0.1-3.3-0.1-6.9-0.4-11.2C497.5,421.8,497.4,421.1,497.4,420.3L497.4,420.3z
		 M490.4,458.9c1.2-2.3,2.2-4.3,3-6.3c1.5,1.4,3,2.6,4.5,3.7c0.1,0.2,0.2,0.4,0.4,0.6c0.3,0.5,0.7,1,0.9,1.5
		c0.6,1.3,0.9,2.5,1.2,3.9c0.5,2.2,1,4.9,3.1,9.5c-4.7-1.4-5.8-2.5-7.3-4.1l0,0l-0.3-0.3c-1.3-1.5-3-3.4-6.8-6.1
		C489.5,460.5,490,459.7,490.4,458.9L490.4,458.9z M494.8,449.1c1.6-4.2,2.4-7.7,2.8-11.3l1,0.6c1.8,1.2,3.4,2.2,4.9,3
		c0.3,3.4,1,6.6,2,9.7l0,0h0c0.7,2.2,1.5,4.3,2.4,6.4c-1.8-0.6-3.6-1.4-5.3-2.5c-0.8-0.4-1.5-0.9-2.3-1.5c0,0-0.1-0.1-0.1-0.1
		C498.4,452.3,496.6,450.8,494.8,449.1L494.8,449.1z M485.3,467.6c0.7-1.1,1.3-2.2,2-3.3c3.3,2.3,4.7,4,5.9,5.3l0.1,0.1
		c0.9,2.2,1.2,3.9,1.5,5.6c0.4,2.4,0.8,4.7,2.5,8.3c-0.1,0-0.3-0.1-0.4-0.1c-1.5-0.4-2.9-0.7-4.4-0.7c-1.4-2.9-2.8-4.8-4.7-6.3
		c-1.6-1.3-3.5-2.2-5.9-3C482.9,471.6,484.1,469.6,485.3,467.6L485.3,467.6z M476.8,485.7c0.7-3.2,1.9-6.1,3.3-8.9
		c2.3,0.8,4,1.5,5.4,2.6c1.6,1.3,2.9,3.1,4.1,6c0.8,1.9,1.3,4,1.9,6.2c0.5,2.1,1.1,4.3,1.9,6.5c-3.5-1.9-5.7-4.4-7.6-6.6
		C483,488.4,480.8,485.9,476.8,485.7L476.8,485.7z M477.3,505.1c-1.6-4.3-1.9-9-1-15.8c2.9,0,4.7,2,6.9,4.5c1.1,1.2,2.3,2.6,3.7,3.9
		c0.1,4.2,1.7,8,3.6,12.3l0.4,1c-2.3-0.6-4.7-0.8-7-1c-1.5-0.1-3-0.2-4.4-0.5C478.5,508.1,477.8,506.6,477.3,505.1L477.3,505.1z
		 M483.4,515.6c-0.6-0.7-1.1-1.4-1.6-2.1c0.5,0.1,1.1,0.1,1.6,0.1c0.4,0,0.8,0.1,1.2,0.1c0.5,1,1.2,1.9,1.9,2.7
		C485.6,516.2,484.5,516,483.4,515.6L483.4,515.6z M496.3,568c1.1-5,2-9.1,2.7-12.6l0.2,0.2c4.5,4.5,10.2,10,16.3,9.6
		c0.8,0,1.4-0.2,2.1-0.5c2-0.8,3.1-2.4,3.8-4.5c0.5-1.8,0.7-3.9,0.5-6.2c-0.4-5.2-2.2-11.1-3.1-13.3c-2.8-7-6.1-15.7-8-24.9
		c-1.8-9.1-2.1-18.9,1.2-28c2.3-6.5,8.3-12,13.9-17.2c1.8-1.7,3.6-3.3,5.3-5l0,0c0.2-0.2,0.3-0.3,0.5-0.5l0.5-0.5
		c3.3-3.4,5-5.1,6.1-10.3c0.1-0.4,0.2-0.8,0.2-1.2c0-0.1,0-0.2,0-0.2c0.4-3.3-0.3-6.9-0.9-10.6c-0.8-4.6-1.7-9.4-0.3-13.2
		c0.6-1.8,1.6-3.6,2.8-5c0.4-0.4,0.8-0.8,1.3-1.2c-0.9,2.1-2,4.8-1.6,8.4c0.4,4.1,1.3,6.4,2.4,9c0.5,1.3,1.1,2.6,1.6,4.3
		c1.9,5.8,2.5,10,1.7,13.8c-0.8,3.7-3,7.2-6.9,11.5c0,0-0.1,0.1-0.1,0.1c-1.4,1.5-3.3,3.2-5.2,4.8c-1.2,1-2.4,2-3.5,3l-0.1,0.1
		c-2.3,2.2-4.7,4.3-6.6,6.9c-1,1.4-2,2.8-2.8,4.4c-0.8,1.6-1.5,3.2-1.9,5c-2.8,12.4,2.3,24.4,7.3,36.4c4.7,11.1,9.4,22.4,7.6,33.7
		c-0.5,3-1.5,6.6-3.3,9.7c-1.3,2.2-2.9,4.1-5,5.1c-10.1,4.7-20.6,0.7-30.4-3.1l-0.2-0.1c0.3-1.3,0.7-2.8,1-4.4
		C495.8,570.2,496.1,569.1,496.3,568L496.3,568L496.3,568z M454.4,550.2c-1,2.2-2.1,4.5-2.9,7c-2,5.8-3,12-2.6,18.1
		c0.3,5.6,1.8,11,4.7,16c0.9,1.5,1.8,2.9,2.6,4.2c-0.8,1.4-1.3,2.6-1.7,3.8c-0.5,1.5-0.9,3-1.2,5.3c-0.6,4-0.2,8.9,0.2,13.3
		c0.1,1.4,0.2,2.8,0.3,3.8c0.2,2.3,0.3,4.1-0.3,5.5c-0.6,1.4-1.9,2.8-4.7,4.4c-2.2,1.3-4.5,2.4-6.8,3.5c-3.1,1.5-6.2,3-9.2,5l-1.5,1
		c-5.2,3.5-8.6,5.7-10.6,10.5c-0.9-1-1.9-1.9-3.1-2.7c-3.2-2.1-6.5-2.5-9.5-1.9c-0.1,0-0.3,0.1-0.4,0.1c1.8-3.2,8.8-8.1,13.9-11.5
		c1.3-0.9,2.5-1.7,3.4-2.4c0.9-0.6,1.8-1.3,2.7-1.9c1.8-1.3,3.7-2.5,5.4-4c1.1-1,2.4-2.1,3.3-3.5c1-1.6,1.6-3.3,1.2-5.4
		c-0.8-3.9-3-6.6-5.5-9.6c-3.7-4.4-8-9.6-7.5-20.8c0.2-5.1,1.5-9.7,3.5-14c2-4.4,4.8-8.4,8.2-12.4c2.5-3.1,6-6.4,9.5-9.7
		c1.8-1.7,3.5-3.3,5.1-5c0.2,0.2,0.4,0.5,0.6,0.7c0.9,0.9,1.8,1.6,2.8,2.3L454.4,550.2L454.4,550.2z M504.9,583.2
		c2.4,0.7,4.9,1.2,7.4,1.4c-1.2,1.6-2.2,3.2-3.1,4.8c-0.7,1.3-1.4,2.6-1.9,3.9c-0.3-0.7-0.5-1.6-0.8-2.5
		C505.9,588.7,505.4,586.1,504.9,583.2L504.9,583.2z M533.7,479c0.6-0.5,1.2-1.1,1.9-1.6c1-0.9,2-1.7,3-2.6c0.2,2,0.4,3.9,0.4,5.8
		c0,1.1,0.1,2.3,0,3.4c-0.3-0.4-0.6-0.7-0.9-1.1C536.9,481.6,535.5,480.3,533.7,479L533.7,479z M534.6,454.1c-0.8,3.3-2,4.8-4.1,7
		c-0.7-1.9-1.6-3.6-2.5-5.3c-0.7-1.2-1.5-2.4-2.3-3.5c0.9,0.1,1.8,0.3,2.7,0.4C530.4,453.1,532.5,453.6,534.6,454.1L534.6,454.1z
		 M482.2,658.5H465c0-1.5,0.4-2.9,1.2-4.1c0.6-0.9,1.4-1.7,2.3-2.3c0.9-0.6,2-1.1,3.1-1.3c2.1-0.4,4.5-0.1,6.8,1.4
		c1,0.6,1.8,1.4,2.5,2.2c0.6,0.7,1,1.5,1.2,2.3C482.3,657.3,482.3,657.9,482.2,658.5L482.2,658.5z M419.4,658.5h-17.2
		c0-1.5,0.4-2.9,1.2-4.1c0.6-0.9,1.4-1.7,2.3-2.3c0.9-0.6,2-1.1,3.1-1.3c2.1-0.4,4.5-0.1,6.8,1.4c1,0.6,1.8,1.4,2.5,2.2
		c0.6,0.7,1,1.5,1.2,2.3C419.5,657.3,419.5,657.9,419.4,658.5L419.4,658.5z M456.6,410.2c1.2-0.6,2.6-0.9,3.9-1.2
		c0.4-0.1,0.6-0.1,0.7-0.2c0.1,0,0.3-0.1,0.6-0.1c1.7-0.5,3.7-1.4,5.2-2.5c1.8-1.4,2.9-3.3,2.4-5.4c0,0,0-0.1,0-0.2
		c-0.2-0.7-0.5-1.4-0.8-2c-0.6-1-1.5-1.9-2.5-2.4c-1.1-0.6-2.3-0.7-3.6-0.4c-0.5,0.1-0.9,0.3-1.4,0.6c-4.4,2.7-5.4,6.2-6.6,10.3
		c-0.1,0.5-0.3,1-0.4,1.5c-0.3,0.9,0.3,1.9,1.2,2.2C455.7,410.6,456.2,410.5,456.6,410.2L456.6,410.2z M459,403.9
		c0.7-1.4,2.2-3.4,3.8-4.4c0.2-0.1,0.3-0.2,0.5-0.2c0.3-0.1,0.7,0,1,0.1c0.4,0.2,0.7,0.6,1,1c0.2,0.3,0.4,0.7,0.5,1.1c0,0,0,0,0,0
		c0.1,0.6-0.4,1.2-1.1,1.8c-1,0.8-2.4,1.4-3.7,1.8C461,404,460.4,402.8,459,403.9L459,403.9z"/>
	<polygon class="st6" points="311.8,645.9 401.9,598.7 401.9,550.4 311.8,550.4 	"/>
	<path d="M338.5,555.6h20.4v-2h-22.4v4.4H334v4.4h-2.4v4.4h-2.5v4.4h-2.5v4.4h-2.4v4.4h-2.5v4.4h-2.5v4.4h-2.5v4.4h-2.4v5.2h2v-3.2
		h20.4v-2h-17.9v-2.3h20.4v-2h-17.9v-2.3h20.4v-2h-17.9v-2.3h20.4v-2h-17.9v-2.4h20.4v-2h-17.9v-2.4h20.4v-2h-17.9v-2.4h20.4v-2
		h-17.9v-2.4H354v-2H336V560h20.4v-2h-17.9L338.5,555.6L338.5,555.6z M373.3,558.2h11.5v14.9c-5.8,0-11.5,0-17.3,0v-2.7h5.8V558.2
		L373.3,558.2z M360.3,591.4c-5.8,0-11.5,0-17.3,0v14.9h11.5v-12.2h5.8V591.4L360.3,591.4z M322.2,608.1v2.7h5.8V623h11.5v-14.9
		C333.7,608.1,327.9,608.1,322.2,608.1L322.2,608.1z M358.2,574.8h11.5v14.9h-11.5V574.8L358.2,574.8z"/>
	<path class="st2" d="M332.7,461c-2.4-1.8-5.8-3-9.6-3c-3.8,0-7.2,1.1-9.6,3c-2.1,1.5-3.4,3.6-3.8,5.8h13.4h13.4
		C336.1,464.6,334.7,462.5,332.7,461L332.7,461z"/>
	<path class="st7" d="M70.7,733.2v-44.9h20.3c10.4,0,15.7,3.7,15.7,11c0,5.2-3.2,8.6-9.4,10c7.6,1.5,11.4,5.5,11.4,11.9
		c0,8-5.1,11.9-15.3,11.9H70.7z M83.9,707.9h4.1c3.8,0,5.6-2.7,5.6-8.2c0-5.1-2-7.6-6-7.6h-3.7C83.9,692,83.9,707.9,83.9,707.9z
		 M83.9,729.5h3.8c4.9,0,7.4-2.8,7.4-8.4c0-6.4-2.5-9.6-7.6-9.6h-3.5L83.9,729.5L83.9,729.5z"/>
	<path class="st7" d="M113.6,733.2v-44.9h19.6c5.1,0,9.2,1.1,12.2,3.2c3,2.1,4.6,5,4.6,8.5c0,5.5-3.3,9-9.8,10.6
		c3.4,1.2,5.5,2.6,6.5,4c1,1.5,1.7,4.3,2,8.6c0.4,5,1.3,8.4,2.6,10H137c-0.9-2.1-1.4-4.7-1.4-7.8l-0.1-2.7l-0.1-3.3
		c0-5.2-2.1-7.8-6.3-7.8h-2.3v21.6L113.6,733.2L113.6,733.2z M126.8,707.9h2.7c5,0,7.5-2.6,7.5-7.7c0-5.2-2.5-7.7-7.5-7.7h-2.7
		V707.9z"/>
	<rect x="156.9" y="688.3" class="st7" width="13.2" height="44.9"/>
	<path class="st7" d="M207.8,700.9l-6.1,1.1c0.3-1.2,0.4-2.2,0.4-3c0-5.2-3.2-7.8-9.6-7.8c-5.1,0-7.6,1.8-7.6,5.4
		c0,2.7,2.8,5,8.5,6.9c10.9,3.7,16.4,9.2,16.4,16.5c0,4.3-1.5,7.7-4.6,10.3c-3.1,2.6-7.2,3.9-12.3,3.9c-11.3,0-16.9-4.3-16.9-12.9
		c0-0.7,0.1-1.6,0.2-2.6l6.4-1.4c-0.5,1.9-0.7,3.6-0.7,5c0,5.6,3.2,8.4,9.7,8.4c5.2,0,7.8-2,7.8-6c0-3-3.1-5.6-9.3-7.9
		c-9-3.3-13.4-8.4-13.4-15.6c0-4,1.5-7.3,4.5-9.8c3-2.5,6.9-3.7,11.8-3.7C202.8,687.5,207.8,692,207.8,700.9"/>
	<polygon class="st7" points="247.5,688.3 247.5,692.8 236.3,692.8 236.3,733.2 222.3,733.2 222.3,692.8 211,692.8 211,688.3 	"/>
	<path class="st7" d="M269.6,687.5c13.3,0,19.9,7.7,19.9,23.2c0,15.5-6.8,23.2-20.3,23.2c-13.5,0-20.3-7.9-20.3-23.8
		C248.9,695.1,255.8,687.5,269.6,687.5 M269.2,691.1c-2.5,0-4.2,1.4-5.1,4.1c-0.9,2.7-1.3,7.9-1.3,15.6c0,7.7,0.4,12.9,1.3,15.6
		c0.9,2.7,2.6,4.1,5.1,4.1c2.5,0,4.2-1.4,5.1-4.1c0.9-2.7,1.3-7.9,1.3-15.6c0-7.7-0.4-12.9-1.3-15.6
		C273.4,692.5,271.7,691.1,269.2,691.1"/>
	<polygon class="st7" points="308.5,688.3 308.5,728.7 327.3,728.7 327.3,733.2 295.3,733.2 295.3,688.3 	"/>
	<path class="st7" d="M350.4,733.3v-44.9H370c5.1,0,9.2,1.1,12.2,3.2c3,2.1,4.6,5,4.6,8.5c0,5.5-3.3,9-9.8,10.6
		c3.4,1.2,5.5,2.6,6.5,4c1,1.5,1.7,4.3,2,8.6c0.4,5.1,1.3,8.4,2.6,10h-14.4c-0.9-2.1-1.4-4.7-1.4-7.8l-0.1-2.7l-0.1-3.4
		c0-5.2-2.1-7.8-6.3-7.8h-2.3v21.6L350.4,733.3L350.4,733.3z M363.7,708h2.7c5,0,7.5-2.6,7.5-7.7c0-5.2-2.5-7.7-7.5-7.7h-2.7V708z"
		/>
	<path class="st7" d="M427.9,688.4v30.2c0,10.3-5.8,15.5-17.4,15.5c-11.5,0-17.3-5.2-17.3-15.5v-30.2h13.2v30.6c0,4,0.6,6.6,1.7,8.1
		c1.1,1.4,3.3,2.2,6.4,2.2c6,0,9-3.6,9-10.7v-30.2H427.9z"/>
	<path class="st7" d="M452.9,709h18.8v24.3h-4.2l-1.4-3.1c-3.7,2.6-7.6,3.9-11.7,3.9c-6.7,0-12-2-15.7-6c-3.7-4-5.6-9.6-5.6-16.8
		c0-7,2-12.7,5.9-17.1c4-4.4,9.1-6.5,15.5-6.5c8.4,0,13.5,4.2,15.4,12.7l-6.2,2.8V702l-0.1-2.4c-0.4-5.3-2.9-7.9-7.4-7.9
		c-3.3,0-5.6,1.4-6.8,4.2c-1.2,2.8-1.8,8-1.8,15.7c0,7.2,0.5,12,1.5,14.6c1,2.6,2.9,3.9,5.7,3.9c3.3,0,4.9-1.8,4.9-5.4v-11.1h-6.6
		L452.9,709L452.9,709z"/>
	<path class="st7" d="M478.1,733.3v-44.9h20.3c10.4,0,15.7,3.7,15.7,11c0,5.2-3.2,8.6-9.4,10c7.6,1.5,11.4,5.5,11.4,11.9
		c0,8-5.1,11.9-15.3,11.9H478.1z M491.4,707.9h4.1c3.8,0,5.6-2.8,5.6-8.2c0-5.1-2-7.6-6-7.6h-3.7L491.4,707.9L491.4,707.9z
		 M491.4,729.6h3.8c4.9,0,7.4-2.8,7.4-8.4c0-6.4-2.5-9.6-7.6-9.6h-3.5L491.4,729.6L491.4,729.6z"/>
	<polygon class="st7" points="553,688.4 541.8,716.7 541.8,733.3 528.6,733.3 528.6,716.7 516.3,688.4 530.1,688.4 539.3,710 
		547.7,688.4 	"/>
</g>
<g id="Layer_3">
</g>
</svg>
