<?xml version="1.0" encoding="UTF-8" standalone="no"?>
<!-- Generator: Adobe Illustrator 14.0.0, SVG Export Plug-In . SVG Version: 6.00 Build 43363)  -->
<svg
   xmlns:dc="http://purl.org/dc/elements/1.1/"
   xmlns:cc="http://creativecommons.org/ns#"
   xmlns:rdf="http://www.w3.org/1999/02/22-rdf-syntax-ns#"
   xmlns:svg="http://www.w3.org/2000/svg"
   xmlns="http://www.w3.org/2000/svg"
   xmlns:sodipodi="http://sodipodi.sourceforge.net/DTD/sodipodi-0.dtd"
   xmlns:inkscape="http://www.inkscape.org/namespaces/inkscape"
   version="1.0"
   id="Layer_1"
   x="0px"
   y="0px"
   width="540"
   height="575.57001"
   viewBox="0 0 612 792"
   enable-background="new 0 0 612 792"
   xml:space="preserve"
   sodipodi:version="0.32"
   inkscape:version="0.46"
   sodipodi:docname="bristol_city_fc [Converted]2.svg"
   inkscape:output_extension="org.inkscape.output.svg.inkscape"><metadata
   id="metadata4080"><rdf:RDF><cc:Work
       rdf:about=""><dc:format>image/svg+xml</dc:format><dc:type
         rdf:resource="http://purl.org/dc/dcmitype/StillImage" /></cc:Work></rdf:RDF></metadata><defs
   id="defs4078"><inkscape:perspective
     sodipodi:type="inkscape:persp3d"
     inkscape:vp_x="0 : 396 : 1"
     inkscape:vp_y="0 : 1000 : 0"
     inkscape:vp_z="612 : 396 : 1"
     inkscape:persp3d-origin="306 : 264 : 1"
     id="perspective4082" /></defs><sodipodi:namedview
   inkscape:window-height="964"
   inkscape:window-width="1280"
   inkscape:pageshadow="2"
   inkscape:pageopacity="0.0"
   guidetolerance="10.0"
   gridtolerance="10.0"
   objecttolerance="10.0"
   borderopacity="1.0"
   bordercolor="#666666"
   pagecolor="#ffffff"
   id="base"
   showgrid="false"
   inkscape:zoom="0.58333333"
   inkscape:cx="306"
   inkscape:cy="396"
   inkscape:window-x="-4"
   inkscape:window-y="-4"
   inkscape:current-layer="Layer_1" />





































































































<path
   d="M -36.130688,8.0088792 L 655.2074,8.0088792 L 655.2074,469.3963 C 654.51389,525.57124 641.73335,576.89155 607.25561,622.06928 C 567.42788,674.28126 509.46961,712.9201 450.71875,740.75988 C 406.03639,761.86263 357.88645,778.11076 309.53836,788.11725 C 261.19027,778.11076 213.04033,761.86263 168.35797,740.75988 C 109.60711,712.9201 51.648842,674.28126 11.821113,622.06928 C -22.656625,576.89155 -35.437165,525.57124 -36.130688,469.3963 L -36.130688,8.0088792 L -36.130688,8.0088792 z"
   id="path3875"
   style="fill:#d3365e" /><path
   d="M -23.350148,20.888499 L -23.350148,469.19816 C -22.656625,522.59902 -10.767752,571.34341 22.025727,614.24244 C 60.565498,664.77016 117.03765,702.22011 173.80704,729.16823 C 217.10235,749.57746 262.87452,764.63667 309.53836,775.03944 C 356.2022,764.63667 401.97437,749.57746 445.26968,729.16823 C 502.03906,702.22011 558.51122,664.77016 597.05099,614.24244 C 629.84447,571.34341 641.73335,522.59902 642.42686,469.19816 L 642.42686,20.888499 L -23.350148,20.888499 L -23.350148,20.888499 z"
   id="path3877"
   style="fill:#ffffff" /><path
   d="M 294.38005,571.93785 C 292.39857,577.486 289.42634,582.63784 285.36432,586.89802 C 275.35785,597.39986 258.11897,601.0656 244.24862,602.84893 C 218.58846,605.92022 192.23479,604.53318 166.87186,600.07486 C 140.32004,595.41838 112.97562,590.16746 85.928431,587.98783 C 85.829357,591.9508 85.036766,595.61654 81.965473,599.38134 C 73.346039,609.98226 50.955324,615.1341 42.633111,601.4619 C 41.345149,599.87672 37.679413,595.12116 36.094229,592.44617 L 36.094229,592.44617 C 35.499786,591.45543 34.509047,589.57302 33.221085,586.89802 C 30.050718,580.55729 24.898872,570.2536 20.737766,564.60638 C 16.279437,558.66194 14.496103,552.91565 18.954434,546.07955 C 21.233135,542.51289 25.295168,539.14437 31.834049,536.3703 C 39.462745,533.19993 50.658102,530.72309 66.708083,530.02957 C 63.141421,526.8592 60.763645,522.10365 60.466424,517.14995 C 58.584018,517.05088 56.305317,517.05088 54.62106,517.05088 C 48.973845,517.14995 43.227555,528.93975 40.156262,533.19993 C 24.304429,524.38236 26.384982,506.44997 38.769227,495.65091 C 34.211824,488.22036 30.149792,481.9787 27.573869,473.35927 C 21.629432,453.14818 32.230346,439.07967 40.35441,421.14729 C 42.335889,416.58851 47.289587,404.30472 50.955324,393.50566 C 54.224764,383.89548 55.611799,375.27604 55.611799,365.26958 C 55.611799,358.43348 55.017356,351.59737 51.946063,351.59737 C 49.964584,351.59737 50.757176,364.08068 50.85625,366.16124 C 51.153472,374.6816 51.747916,382.90474 47.190513,390.23621 C 41.444224,399.25194 33.022937,407.27694 22.719245,410.05101 C 24.60165,404.40379 26.58313,400.63898 26.484056,394.49639 C 21.431284,398.6575 13.307221,401.23342 6.9664819,402.91768 C 9.4433389,395.18991 13.604437,387.66029 15.486842,379.73438 L 15.486842,379.73438 C 16.081293,377.05938 16.279437,369.92605 16.576662,362.4955 C 17.072032,348.427 17.072032,337.42979 26.484056,325.63999 C 35.697934,314.04834 52.144211,312.85945 64.231234,321.28074 L 64.330308,321.28074 C 65.221974,321.97425 66.11364,322.66777 67.005306,323.46036 C 66.11364,321.87518 66.014566,319.79463 65.915491,317.71407 C 65.816417,314.84093 66.014566,314.44463 63.735864,312.56222 C 59.971054,309.39186 59.277536,307.41039 58.980315,302.45668 C 58.782167,299.48447 58.980315,299.18724 56.998835,297.10669 C 53.63032,293.54003 53.234025,291.06318 53.729395,286.30763 C 54.026617,283.03819 54.323838,282.34467 52.342359,279.96689 C 48.676623,275.60764 48.874771,273.22987 50.36088,267.97895 C 51.450693,264.41229 51.549767,263.61969 50.261806,260.35025 C 48.280327,255.39655 48.577549,252.9197 50.658102,248.06508 C 52.045137,244.99378 52.045137,243.70583 52.045137,240.13916 C 52.045137,234.09566 52.540507,231.71788 56.10717,226.96234 C 58.088649,224.38641 58.584018,222.9003 59.574758,219.53179 C 61.259016,213.3892 62.546977,211.30864 67.698823,207.44476 C 70.175672,205.56235 71.36456,204.07625 72.949742,201.30217 C 75.426592,196.94292 77.90344,194.56515 82.857139,192.78181 L 82.857139,192.68274 L 82.956212,192.68274 C 81.668251,179.30776 82.064547,160.28555 92.665461,150.18001 C 97.321941,145.72169 102.17656,145.62261 105.54508,146.51427 C 108.22008,147.30687 110.10248,150.27908 111.58859,154.14297 C 115.84877,150.97261 120.30709,151.3689 124.56727,154.83649 C 126.15246,150.47724 127.5395,146.51427 128.72838,143.54206 C 131.40338,136.30966 135.36634,128.1856 139.42837,121.64672 C 148.34503,107.28099 159.54038,112.33376 157.26169,128.68097 C 156.0728,137.20133 153.00151,145.22632 149.83114,153.15223 C 148.0478,157.51149 145.57096,163.55499 143.19318,169.30129 C 148.14688,169.10314 153.49688,168.90499 155.08206,169.10314 C 168.45704,170.29203 167.66445,177.72257 158.25243,184.55868 C 156.27094,185.94571 154.19039,187.43182 152.20891,188.71979 C 153.69502,189.51237 154.98298,190.30497 156.27094,191.09756 C 160.43205,193.87163 163.99871,194.86237 169.05148,196.44755 C 179.35517,199.51885 193.81997,202.19384 197.68386,213.88457 C 198.97182,217.94661 198.87275,222.40493 197.18849,226.46697 C 195.80145,229.93455 193.22553,232.90677 189.46072,234.78917 C 189.65887,236.17621 189.85702,237.3651 189.85702,238.45491 L 241.57362,238.45491 C 241.17733,232.51047 246.13103,227.85399 258.4162,224.68363 C 263.86526,223.2966 267.1347,218.93734 271.98932,216.16327 C 274.96155,214.47901 278.13191,213.19105 280.70784,212.10124 C 283.38284,211.01143 284.07635,210.61513 285.16616,209.12902 C 276.34859,204.96791 252.66991,192.4846 248.31065,178.61424 C 245.23936,168.90499 254.45323,156.22353 260.79397,149.98187 C 264.26156,146.61335 268.12544,143.7402 272.18748,141.46151 C 271.19674,139.9754 270.50322,138.58836 269.90878,137.10225 C 266.93656,135.61614 263.56805,133.53559 262.77545,131.45503 L 262.77545,131.45503 C 262.5773,130.95966 262.5773,130.95966 262.5773,130.95966 C 260.39768,125.31244 260.10045,126.89763 255.04769,126.89763 C 245.63566,126.89763 250.58935,115.50413 253.36342,111.14487 C 257.82175,104.30877 264.36063,102.03007 272.08841,100.54396 C 279.91524,98.859699 285.66153,94.698599 284.17542,85.187499 C 282.78839,75.775469 275.85322,75.577319 266.54026,76.865289 C 261.09119,77.558799 255.7412,78.351399 252.07546,76.568059 C 247.12177,73.992139 239.69122,73.595839 234.044,72.803249 C 230.77456,72.406959 226.11808,71.713439 224.63197,69.137519 C 220.86716,62.499559 235.03474,59.527339 238.40325,60.022709 C 246.32917,53.979199 251.67916,49.818089 262.28008,49.818089 C 266.63933,49.818089 275.25877,50.313469 278.42914,50.511609 C 280.50968,48.926429 285.16616,45.458839 287.24672,45.458839 C 288.73283,45.458839 294.47912,45.458839 296.75782,44.963469 C 303.39577,43.675509 309.34021,42.684769 313.99668,48.133839 C 315.0865,49.322729 318.25686,47.836619 319.44576,47.341249 C 323.40871,45.557909 325.09297,46.053289 328.85778,47.539389 C 331.13649,48.431059 339.35962,50.511609 341.7374,48.926429 C 348.67258,43.873659 355.60775,42.288469 364.02903,43.873659 C 373.34199,45.656989 380.27717,51.403279 375.52162,60.815299 C 374.53087,62.895859 372.94569,64.580119 370.96422,65.570859 C 370.96422,68.443999 370.07255,71.019919 368.48737,73.001399 L 368.48737,81.422689 L 386.32067,81.422689 L 386.32067,82.611579 C 389.2929,88.159719 392.16604,93.806929 395.13826,99.355069 C 395.83178,100.64303 396.22807,101.33655 396.22807,103.11988 C 396.22807,109.46062 391.07622,114.51339 384.83457,114.51339 C 381.66421,114.51339 378.79105,113.22543 376.7105,111.24395 C 374.62995,109.16339 373.34199,106.29025 373.34199,103.11988 C 373.34199,101.5347 373.73829,100.04859 374.53087,98.661549 L 381.06976,85.583789 L 365.41607,85.583789 C 365.61422,85.781939 365.91144,85.980089 366.10959,86.277309 L 366.10959,86.178239 C 367.49663,87.763419 369.57718,92.320819 370.86514,96.680079 C 372.05403,100.34581 372.74755,104.2097 372.25218,106.68655 C 371.85588,109.36154 370.36977,114.81061 369.27995,118.97172 C 375.52162,120.95319 379.88087,125.9069 377.80031,134.6254 C 376.7105,139.28188 373.24292,142.94762 368.68551,145.82076 C 374.62995,153.54853 373.54013,164.44666 370.56792,174.75035 C 369.18088,179.5059 367.1994,183.56794 364.62348,187.03552 C 365.7133,192.78181 361.75033,203.08551 361.55219,203.97717 C 361.25496,206.25588 366.01051,209.02995 365.61422,215.56882 C 371.95495,218.24382 375.12532,225.37715 377.80031,231.51973 C 380.47531,232.11418 383.05123,233.20399 385.52809,235.18547 C 386.81604,236.17621 387.60864,237.26602 388.20308,238.45491 L 429.2197,238.45491 C 429.2197,237.3651 429.41785,236.17621 429.616,234.78917 C 425.85119,232.90677 423.27527,229.93455 421.88823,226.46697 C 420.20397,222.40493 420.1049,217.94661 421.39286,213.88457 C 425.25675,202.19384 439.72154,199.51885 450.02523,196.44755 C 455.07801,194.86237 458.64466,193.87163 462.80577,191.09756 C 464.09374,190.30497 465.3817,189.51237 466.86781,188.71979 C 464.88633,187.43182 462.80577,185.94571 460.82429,184.55868 C 451.41227,177.72257 450.61967,170.29203 463.99466,169.10314 C 465.57984,168.90362 470.92983,169.10314 475.88354,169.30129 C 473.50576,163.55499 471.02892,157.51149 469.24558,153.15223 C 466.07521,145.22632 463.00393,137.20133 461.81503,128.68097 C 459.53633,112.33376 470.73169,107.28099 479.64835,121.64672 C 483.71038,128.1856 487.67334,136.30966 490.34834,143.54206 C 491.53722,146.51427 492.92426,150.47724 494.50944,154.83649 C 498.76962,151.3689 503.22795,150.97261 507.48813,154.14297 C 508.97424,150.27908 510.85665,147.30687 513.53165,146.51427 C 516.90016,145.62261 521.75478,145.72169 526.41126,150.18001 C 537.01217,160.28555 537.40846,179.30776 536.1205,192.68274 L 536.21958,192.68274 L 536.21958,192.78181 C 541.17328,194.56515 543.65012,196.94292 546.12698,201.30217 C 547.71216,204.07625 548.90104,205.56235 551.3779,207.44476 C 556.52974,211.30864 557.8177,213.3892 559.50196,219.53179 C 560.4927,222.9003 560.98807,224.38641 562.96954,226.96234 C 566.53621,231.71788 567.03158,234.09566 567.03158,240.13916 C 567.03158,243.70583 567.03158,244.99378 568.41862,248.06508 C 570.40009,252.9197 570.79639,255.39655 568.81491,260.35025 C 567.52695,263.61969 567.62602,264.41229 568.71583,267.97895 C 570.20195,273.22987 570.40009,275.60764 566.73436,279.96689 C 564.75288,282.34467 565.0501,283.03819 565.34732,286.30763 C 565.84269,291.06318 565.44639,293.54003 562.07788,297.10669 C 560.0964,299.18724 560.29455,299.48447 560.0964,302.45668 C 559.79919,307.41039 559.10566,309.39186 555.34085,312.56222 C 553.06215,314.44463 553.2603,314.84093 553.16122,317.71407 C 553.06215,319.79463 552.96308,321.87518 552.07141,323.46036 C 552.96308,322.66777 553.85474,321.97425 554.74641,321.28074 L 554.84548,321.28074 C 566.93251,312.85945 583.37878,314.04834 592.59266,325.63999 C 602.00469,337.42979 602.00469,348.427 602.50006,362.4955 C 602.79728,369.92605 602.99543,377.05938 603.58987,379.73438 L 603.58987,379.73438 C 605.47227,387.66029 609.63338,395.18991 612.11023,402.91768 C 605.7695,401.23342 597.64544,398.6575 592.59266,394.49639 C 592.49359,400.63898 594.47507,404.40379 596.35747,410.05101 C 586.05378,407.27694 577.63249,399.25194 571.8862,390.23621 C 567.3288,382.90474 567.92325,374.6816 568.22046,366.16124 C 568.31955,364.08068 569.11213,351.59737 567.13065,351.59737 C 564.05937,351.59737 563.46491,358.43348 563.46491,365.26958 C 563.46491,375.27604 564.85195,383.89548 568.12139,393.50566 C 571.78713,404.30472 576.74082,416.58989 578.72231,421.14729 C 586.84637,439.07967 597.44728,453.14818 591.50285,473.35927 C 588.92692,481.9787 584.8649,488.22036 580.30749,495.65091 C 592.69173,506.44997 594.77229,524.38236 578.92045,533.19993 C 575.84917,528.93975 570.10287,517.14995 564.45565,517.05088 C 562.7714,517.05088 560.4927,517.05088 558.61029,517.14995 C 558.31307,522.10365 555.93529,526.8592 552.36864,530.02957 C 568.41862,530.72309 579.61397,533.19993 587.24267,536.3703 C 593.78154,539.14437 597.84358,542.51289 600.12228,546.07955 C 604.58061,552.91565 602.79728,558.66194 598.33895,564.60638 C 594.17784,570.2536 589.02599,580.55729 585.85564,586.89802 C 584.56767,589.57302 583.57693,591.45543 582.98249,592.44617 L 582.98249,592.44617 C 581.3973,595.12116 577.73157,599.87672 576.44361,601.4619 C 568.12139,615.1341 545.73068,609.98226 537.11125,599.38134 C 534.03995,595.61654 533.24736,591.9508 533.14828,587.98783 C 506.1011,590.16746 478.75668,595.41838 452.20486,600.07486 C 426.84193,604.53318 400.48825,605.92022 374.8281,602.84893 C 360.95775,601.0656 343.71887,597.39986 333.7124,586.89802 C 329.65037,582.63784 326.67815,577.486 324.69668,571.93785 C 314.49205,571.24296 304.58466,571.24296 294.38005,571.93785 L 294.38005,571.93785 z M 91.377501,530.42449 C 121.99135,532.40597 152.70428,539.63837 183.11998,542.80874 C 206.99681,545.38466 227.10882,542.11521 240.78103,538.3504 C 238.89862,532.50504 241.57362,528.14579 246.82454,524.97542 C 257.42546,518.63469 280.50968,515.1671 304.48559,514.7708 C 261.28934,487.82268 213.1394,444.52737 194.21627,393.8015 C 184.11072,397.26909 179.75147,387.16354 182.72369,378.34596 C 180.54407,378.14781 178.76073,376.56263 177.3737,374.68023 C 172.61815,381.61541 167.36723,387.75799 162.31445,394.49502 L 162.01724,403.41168 C 170.24037,400.73668 181.63388,400.24131 188.96535,405.19501 C 193.81997,408.46444 197.28756,414.01259 199.16997,422.83017 C 202.63756,439.27645 193.12645,446.90514 187.77646,451.16532 C 187.38016,451.46254 187.08295,451.75977 186.68665,452.05699 L 186.68665,452.05699 C 185.20054,453.24587 183.81351,454.33569 182.3274,455.32643 L 182.3274,455.32643 C 178.66166,458.1005 174.59962,461.07272 173.11352,463.74771 C 171.33018,466.71994 165.58389,480.09492 162.41352,487.62454 C 167.56537,486.73287 175.09499,485.34584 179.05796,483.66158 C 183.02091,482.0764 187.87553,480.78844 192.33387,480.39214 C 200.9533,479.69862 207.7894,482.27455 211.25699,490.89398 C 220.86716,494.55972 227.10882,502.18841 233.6477,509.71803 C 236.3227,512.88839 233.94493,515.56339 230.27919,516.45506 C 223.83938,518.04024 215.31902,520.21987 212.3468,520.41802 C 200.557,521.21061 200.06163,522.49857 191.4422,514.07729 C 185.10146,516.65321 181.23758,516.45506 174.6987,514.57266 C 157.26169,514.57266 142.10336,516.25692 124.76543,519.92265 C 115.3534,521.90413 106.04044,523.98468 99.501561,526.75876 C 96.826571,527.84994 94.151571,529.13653 91.377501,530.42449 L 91.377501,530.42449 z M 314.59114,514.7708 C 338.56703,515.1671 361.65126,518.63469 372.25218,524.97542 C 377.5031,528.14579 380.17809,532.50504 378.29568,538.3504 C 391.96789,542.11521 412.07991,545.38466 435.95673,542.80874 C 466.37244,539.63837 497.08537,532.40597 527.69922,530.42449 C 524.92515,529.13653 522.25015,527.84857 519.57515,526.75876 C 513.03628,523.98468 503.72332,521.90413 494.31129,519.92265 C 476.97335,516.25692 461.81503,514.57266 444.37802,514.57266 C 437.83913,516.45506 433.97525,516.65321 427.63452,514.07729 C 419.01509,522.49857 418.51972,521.21061 406.72992,520.41802 C 403.75769,520.21987 395.23733,518.04024 388.79753,516.45506 C 385.13179,515.56339 382.75402,512.88839 385.42901,509.71803 C 391.96789,502.18841 398.20956,494.55972 407.81973,490.89398 C 411.28731,482.27455 418.12342,479.69862 426.74285,480.39214 C 431.20118,480.78844 436.05581,482.0764 440.01876,483.66158 C 443.98172,485.34584 451.51134,486.73287 456.66319,487.62454 C 453.49283,480.09492 447.74653,466.71994 445.96321,463.74771 C 444.47709,461.07272 440.41506,458.1005 436.74932,455.32643 L 436.74932,455.32643 C 435.26321,454.33569 433.87618,453.24587 432.39007,452.05699 L 432.39007,452.05699 C 431.99377,451.75977 431.69655,451.46254 431.30026,451.16532 C 425.95026,446.90514 416.43916,439.27645 419.90675,422.83017 C 421.78915,414.01259 425.25675,408.46444 430.11137,405.19501 C 437.44284,400.24131 448.83635,400.73668 457.05948,403.41168 L 456.76226,394.49502 C 451.70949,387.75799 446.45857,381.61541 441.70302,374.68023 C 440.31599,376.56263 438.53266,378.14781 436.35302,378.34596 C 439.32525,387.16354 434.96599,397.26909 424.86045,393.8015 C 405.93732,444.52875 357.78738,487.82268 314.59114,514.7708 L 314.59114,514.7708 z M 432.58821,248.06508 C 432.98451,257.47711 433.18266,266.98821 433.28174,276.49931 C 436.05581,275.70671 438.82988,275.11227 440.81136,274.91413 C 444.77431,274.51783 450.32246,277.19283 454.48357,279.66968 C 457.45578,276.30116 460.72522,273.32894 465.18355,269.96042 C 470.33539,266.09654 471.8215,266.49284 472.81224,260.84562 C 470.53355,259.16136 466.37244,256.09007 463.69744,253.61323 C 459.14004,249.45212 455.37523,247.66878 449.13356,248.46138 C 442.29747,249.25259 436.15488,250.34241 432.58821,248.06508 L 432.58821,248.06508 z M 186.4885,248.06508 C 182.92184,250.34378 176.77925,249.25396 169.94315,248.46138 C 163.70149,247.66878 159.93668,249.45212 155.37928,253.61323 C 152.70428,256.09007 148.54317,259.16136 146.26447,260.84562 C 147.25521,266.49284 148.74132,266.09654 153.89316,269.96042 C 158.3515,273.32894 161.62094,276.30116 164.59316,279.66968 C 168.75426,277.19283 174.30241,274.51783 178.26536,274.91413 C 180.24684,275.11227 183.02091,275.70671 185.79498,276.49931 C 185.89406,266.98821 186.09221,257.47711 186.4885,248.06508 L 186.4885,248.06508 z M 325.48927,111.24395 C 328.26334,111.54117 330.83926,112.33376 332.82074,113.62172 C 333.21704,112.9282 333.61333,112.13562 334.00963,111.34302 C 338.26981,102.03007 333.7124,98.859699 325.19204,97.868959 C 327.17352,102.52544 326.77722,106.29025 325.48927,111.24395 z"
   id="path3879" /><path
   d="M 351.24849,466.62223 C 365.51514,453.84169 380.67346,437.89079 392.85956,419.76025 C 387.70771,416.98618 381.76328,419.66118 376.21513,421.24636 C 375.02624,421.64266 374.33273,421.84081 373.04476,421.64266 C 368.78458,421.14729 364.82163,418.17507 359.86793,418.4723 C 354.71608,418.86858 349.06887,421.74174 344.70961,424.31766 C 339.95406,422.43525 335.39667,420.94914 330.14574,421.24636 C 324.5976,421.54358 318.35595,422.03895 313.30317,424.81302 L 313.30317,424.81302 L 313.2041,424.81302 C 308.44855,427.48803 306.36799,432.24357 307.16059,436.90005 C 309.04299,447.40189 320.33742,445.91578 328.56056,444.62782 C 328.46149,448.39263 327.96612,453.24725 332.42444,454.83244 C 337.08092,456.51669 343.2235,454.93151 347.97905,453.94077 C 348.77165,458.30002 349.96053,462.46113 351.24849,466.62223 z"
   id="path3881"
   style="fill:#00a352" /><path
   d="M 289.72357,484.55325 C 298.24393,490.99305 305.37725,495.7486 309.53836,498.4236 C 316.47354,493.96527 331.33463,483.9588 347.87998,469.59308 C 346.88924,466.71994 345.99758,463.84679 345.30406,460.87457 C 341.83647,465.7292 339.35962,471.17826 335.99111,476.13196 L 332.62259,473.95233 C 335.79295,469.09771 338.26981,463.94586 341.53925,459.19031 C 337.57629,459.68568 334.20777,459.68568 331.4337,458.79402 C 327.66889,464.63938 324.49853,470.78196 321.72446,477.22177 L 317.95965,475.53751 C 320.73372,469.09771 324.10223,462.85605 327.86704,456.91161 C 325.88556,455.22735 324.69668,452.84958 324.49853,449.28292 C 322.91334,449.48106 321.42723,449.58013 319.93975,449.58013 C 314.58976,458.1005 310.13142,467.31438 306.36661,476.62733 L 302.6018,475.04214 C 306.26754,466.22457 310.42865,457.50605 315.38234,449.28292 C 312.21198,448.78755 308.74439,447.69773 306.66384,445.12181 C 306.66384,445.02274 306.56477,444.92367 306.46569,444.82458 L 289.72357,484.55325 z"
   id="path3883"
   style="fill:#00a352" /><path
   d="M 273.77266,471.77408 C 278.13191,475.43982 282.39209,478.9074 286.35505,481.9787 L 292.39857,467.81112 C 286.05783,467.81112 280.70784,470.5852 274.66432,471.57593 C 274.3671,471.67501 274.06988,471.67501 273.77266,471.77408 z"
   id="path3885"
   style="fill:#00a2e1" /><path
   d="M 253.56157,453.04911 C 258.4162,457.90373 263.36989,462.5602 268.12544,466.82038 C 270.00785,467.61298 271.98932,468.00927 274.06988,467.61298 C 280.90598,466.42409 286.65227,463.25372 294.08282,463.84817 L 298.343,453.84169 C 292.49764,452.85095 287.14764,453.34632 281.50043,455.03058 C 274.86247,457.01206 272.38562,457.80466 265.2523,455.7241 L 265.2523,455.7241 C 261.09119,454.53521 257.52453,453.24725 253.56157,453.04911 z"
   id="path3887"
   style="fill:#00a2e1" /><path
   d="M 240.38474,438.48523 C 243.45603,442.15097 246.6264,445.61856 249.69769,448.98707 C 255.7412,448.39263 260.39768,450.07688 266.34211,451.76114 L 266.34211,451.76114 C 272.28655,453.54448 274.56525,452.85095 280.31154,451.1667 C 286.85042,449.18522 293.19115,448.68985 299.92819,449.97781 L 303.89114,439.57504 L 263.07268,440.96208 L 260.79397,437.39542 C 254.05694,434.62135 246.82454,435.41393 240.38474,438.48523 z"
   id="path3889"
   style="fill:#00a2e1" /><path
   d="M 343.12443,239.64379 C 343.12443,240.83269 343.02536,242.12064 342.62906,243.4086 C 341.63832,246.57897 339.75592,249.55119 337.37814,252.22619 C 339.45869,254.20767 341.93554,256.28822 343.52073,256.88267 C 346.6911,258.07155 354.02257,254.30674 355.70683,251.92896 C 358.0846,248.26323 361.25496,240.7336 361.94849,238.35584 C 362.44385,236.77065 361.65126,237.16695 360.06608,237.06788 C 357.39108,236.86973 354.31979,237.26602 351.74386,237.16695 C 349.46516,236.9688 346.09665,238.25677 343.12443,239.64379 L 343.12443,239.64379 z M 368.28921,238.55398 C 372.84662,236.86973 377.30494,236.57251 381.66421,240.13916 C 386.32067,243.70583 374.53087,254.80211 370.46885,255.69378 C 365.81237,256.68451 362.84015,255.991 361.05682,254.80211 C 364.02903,250.14563 366.90218,243.4086 367.89292,240.13916 C 368.09107,239.64379 368.19014,239.04798 368.28921,238.55398 L 368.28921,238.55398 z M 371.06329,231.42066 C 369.57718,231.71788 367.992,232.11418 366.50588,232.60955 C 365.21793,231.6188 363.23645,230.92529 360.56145,230.82622 C 357.68831,230.72715 354.61701,231.02436 352.14016,230.92529 C 348.87072,230.72715 344.51147,232.21325 340.74666,233.89751 C 338.07166,231.02436 333.51426,229.83548 328.95686,231.42066 L 328.95686,231.42066 C 328.26334,231.6188 327.56982,231.91603 326.87631,232.21325 C 319.6439,235.0864 309.7365,241.82342 306.66522,248.36231 C 305.97169,249.84842 305.5754,251.23545 305.37725,252.62249 C 296.95596,254.60396 288.63376,256.68451 280.41061,257.67525 C 270.00785,258.96322 263.56805,258.66599 255.93934,250.54193 C 243.9514,237.76139 244.44677,234.6901 260.00138,230.62806 C 266.44119,228.94381 269.51248,224.7827 275.06062,221.61233 C 277.63654,220.12623 280.50968,218.93734 282.88746,217.94661 C 282.19395,225.47622 283.18468,229.53825 286.1569,238.15769 L 292.00227,236.17621 C 288.93097,227.06141 286.25598,218.73919 291.80412,210.61513 C 296.0643,204.07625 306.76429,194.96144 314.59114,190.20589 C 316.96891,188.71979 325.39019,183.66701 326.57908,187.72905 C 327.66889,191.49386 323.90408,200.50959 323.90408,206.85032 C 329.5513,202.39199 335.29758,197.53736 341.53925,193.87163 L 341.53925,193.87163 C 344.11517,192.38552 349.46516,189.31423 353.92349,187.43182 C 356.79664,186.24293 357.49015,186.7383 358.18367,187.23368 C 360.66052,189.21516 355.90497,201.2031 355.4096,203.67995 C 344.90777,208.53458 336.18925,212.20031 325.19204,215.6679 L 325.58834,221.71141 C 328.65963,222.30586 331.0374,222.9003 331.4337,226.36788 L 337.57629,225.5753 C 337.57629,225.5753 337.27907,222.70216 335.39667,220.02715 L 335.39667,220.02715 C 335.19851,219.72993 335.00037,219.43271 334.70314,219.23456 C 342.43091,216.65864 349.66331,213.19105 357.09386,209.82253 C 357.68831,210.81327 358.38182,211.80402 358.87719,212.9929 C 359.76885,214.77624 359.86793,217.25308 359.37256,220.42345 C 366.30774,221.71141 368.58644,225.67437 371.06329,231.42066 L 371.06329,231.42066 z M 318.25686,255.98962 C 311.22261,256.78221 310.23187,253.80999 312.21336,250.54055 C 314.78928,245.98316 322.7152,240.93038 328.46149,238.35446 C 331.83,236.76927 338.36888,235.77853 336.58555,241.62389 C 334.505,248.56045 325.29112,255.19841 318.25686,255.98962 z"
   id="path3891"
   style="fill:#d3dae1" /><path
   d="M 288.8319,204.07487 C 294.67726,196.94154 304.28744,189.21378 312.11428,184.5573 C 322.7152,178.21656 334.70314,173.1638 332.32537,192.48322 C 334.40593,190.99711 336.68462,189.51099 338.36888,188.52026 L 338.36888,188.52026 C 341.04388,186.93508 346.6911,183.76471 351.54572,181.78323 C 355.50867,180.09897 359.07534,179.00916 361.55219,180.29712 C 362.84015,178.11749 363.83089,175.64064 364.62348,172.96564 C 367.69477,162.46381 369.18088,150.27771 357.39108,144.82864 C 342.23276,137.89346 316.67168,137.49717 299.73004,139.47865 C 286.9495,140.96476 274.56525,145.22494 265.15323,154.43882 C 259.90231,159.59066 251.38195,170.78602 254.55231,178.71194 C 259.20878,190.10682 281.69858,201.00496 288.8319,204.07487 z"
   id="path3893"
   style="fill:#d3dae1" /><path
   d="M 277.73562,138.78651 C 279.02358,138.19207 280.31154,137.6967 281.69858,137.20133 C 281.40135,132.44578 281.69858,127.88837 283.08561,123.2319 C 277.93377,122.73653 275.55599,127.7893 275.45692,132.14855 C 275.35785,134.72447 276.2495,136.60688 277.73562,138.78651 z"
   id="path3895"
   style="fill:#d3dae1" /><path
   d="M 287.84116,135.31892 C 291.9032,134.2291 296.0643,133.63466 300.22541,133.13929 C 301.31522,128.38374 302.60318,123.82634 304.78281,119.16986 C 290.02079,116.69301 287.54394,125.60967 287.84116,135.31892 z"
   id="path3897"
   style="fill:#d3dae1" /><path
   d="M 306.56614,132.54485 C 310.9254,132.24762 315.78002,132.14855 320.73372,132.24762 C 323.01241,127.49208 325.58834,123.13282 328.56056,118.47635 C 325.29112,116.19764 320.53557,116.29671 316.27539,117.78283 C 309.7365,120.06153 307.8541,126.20411 306.56614,132.54485 z"
   id="path3899"
   style="fill:#d3dae1" /><path
   d="M 327.76796,132.44578 C 332.82074,132.74299 337.87351,133.33744 342.72813,134.13003 C 344.61054,129.86985 346.39387,127.19485 351.05035,122.04301 C 348.67258,119.76431 343.32258,119.16986 338.96332,119.66524 C 333.61333,120.16061 330.44296,126.60041 327.76796,132.44578 z"
   id="path3901"
   style="fill:#d3dae1" /><path
   d="M 348.67258,135.41662 C 352.7346,136.40736 356.59849,137.69532 359.96701,139.18143 C 361.55219,139.87494 362.93922,140.66754 364.12811,141.5592 C 367.5957,139.57773 370.66699,137.29902 371.65773,134.02958 C 374.33273,125.31108 365.01977,122.33885 358.48089,124.61755 C 353.82442,126.30182 351.05035,130.16708 348.67258,135.41662 z"
   id="path3903"
   style="fill:#d3dae1" /><path
   d="M 248.40972,540.13511 C 253.95787,550.14158 267.63007,564.40823 271.69211,568.56934 C 295.66801,563.91286 323.40871,563.91286 347.38461,568.56934 C 351.44665,564.40823 365.11886,550.14158 370.66699,540.13511 C 373.24292,535.57771 373.83736,533.29901 369.08181,530.32679 C 348.27628,517.7444 270.70137,517.84347 249.99491,530.32679 C 245.23936,533.29901 245.8338,535.57771 248.40972,540.13511 z"
   id="path3905"
   style="fill:#d3dae1" /><path
   d="M 539.29087,587.59155 C 541.56957,587.39339 543.7492,587.29432 546.0279,587.19525 C 566.83343,586.40265 569.90473,596.31005 570.40009,599.28227 C 563.66307,607.60448 547.51401,602.45263 541.8668,595.41838 C 539.88531,592.94154 539.29087,590.36423 539.29087,587.59155 z"
   id="path3907"
   style="fill:#adb9c2" /><path
   d="M 338.86425,583.23228 C 347.87998,592.04987 363.53367,595.12116 375.62069,596.60727 C 400.58733,599.67856 426.44563,598.29153 451.21412,593.93227 C 482.12519,588.4832 514.22516,582.34062 545.73068,581.05266 C 564.65381,580.26007 571.98527,587.49246 574.85842,593.33783 C 575.94824,591.85173 577.03805,590.36561 577.63249,589.2758 L 577.63249,589.2758 C 578.12786,588.58228 579.01953,586.6008 580.30749,584.12395 C 583.47786,577.68415 588.62971,567.47953 593.08803,561.33694 C 595.8621,557.37399 598.04172,554.30269 594.97044,549.44807 C 593.28617,546.87214 590.11582,544.29622 584.8649,542.11659 C 576.54268,538.54993 563.26677,536.07308 542.75845,536.07308 C 507.48813,536.07308 471.8215,545.28696 436.65025,549.05177 C 411.28731,551.72677 389.88734,548.06103 375.62069,544.09807 C 369.67625,554.00546 357.39108,567.1823 352.63553,572.136 C 348.47442,576.39618 343.81794,579.96147 338.86425,583.23228 z"
   id="path3909"
   style="fill:#d3dae1" /><path
   d="M 334.9013,578.47673 C 337.08092,577.0897 339.45869,575.50452 341.53925,573.82026 C 338.36888,573.32489 335.00037,572.92859 331.63186,572.5323 C 332.52352,574.61285 333.61333,576.59433 334.9013,578.47673 z"
   id="path3911"
   style="fill:#adb9c2" /><path
   d="M 79.785846,587.59155 C 77.507145,587.39339 75.327518,587.29432 73.048816,587.19525 C 52.243285,586.40265 49.171992,596.31005 48.676623,599.28227 C 55.413652,607.60448 71.562707,602.45263 77.209923,595.41838 C 79.191402,592.94154 79.785846,590.36423 79.785846,587.59155 z"
   id="path3913"
   style="fill:#adb9c2" /><path
   d="M 280.21247,583.23228 C 271.19674,592.04987 255.54306,595.12116 243.45603,596.60727 C 218.48939,599.67856 192.63108,598.29153 167.8626,593.93227 C 136.95153,588.4832 104.85156,582.34062 73.346039,581.05266 C 54.422912,580.26007 47.091439,587.49246 44.218294,593.33783 C 43.128481,591.85173 42.038667,590.36561 41.444224,589.2758 L 41.444224,589.2758 C 40.948854,588.58228 40.057188,586.6008 38.769227,584.12395 C 35.59886,577.68415 30.447014,567.47953 25.988685,561.33694 C 23.214615,557.37399 21.034987,554.30269 24.106281,549.44807 C 25.790538,546.87214 28.960904,544.29622 34.211824,542.11659 C 42.534038,538.54993 55.809948,536.07308 76.318258,536.07308 C 111.58859,536.07308 147.25521,545.28696 182.42647,549.05177 C 207.7894,551.72677 229.18938,548.06103 243.45603,544.09807 C 249.40047,554.00546 261.68564,567.1823 266.44119,572.136 C 270.60229,576.39618 275.25877,579.96147 280.21247,583.23228 z"
   id="path3915"
   style="fill:#d3dae1" /><path
   d="M 284.17542,578.47673 C 281.9958,577.0897 279.61803,575.50452 277.53747,573.82026 C 280.70784,573.32489 284.07635,572.92859 287.44486,572.5323 C 286.5532,574.61285 285.46339,576.59433 284.17542,578.47673 z"
   id="path3917"
   style="fill:#adb9c2" /><path
   d="M 58.782167,559.65268 L 59.87198,559.45454 C 62.249755,559.15731 65.61827,559.15731 66.509935,564.40823 C 66.906231,566.58786 66.906231,569.95637 62.943273,570.6499 C 61.358089,570.84804 60.664571,570.45174 60.36735,568.76749 L 58.782167,559.65268 L 58.782167,559.65268 z M 57.196983,550.33973 C 57.097909,549.54714 56.998835,548.5564 58.881241,548.25918 C 61.85346,547.76381 62.943273,549.74528 63.438643,552.32121 C 64.033087,556.08602 63.537716,557.6712 58.584018,558.56287 L 57.196983,550.33973 L 57.196983,550.33973 z M 51.84699,573.72118 L 63.63679,571.73971 C 71.36456,570.2536 73.246965,566.19156 72.751595,563.21935 C 72.058077,558.95917 68.293267,557.86936 64.726604,557.77027 C 66.212714,556.97769 70.175672,555.3925 69.482154,551.33047 C 68.491415,545.58419 60.961794,546.77307 58.980315,547.07029 L 47.685883,548.9527 L 47.784957,549.94344 C 49.568288,549.74528 51.054398,549.54714 51.450693,551.92491 L 54.422912,569.65916 C 54.819208,571.83878 53.729395,572.23508 51.648842,572.82952 L 51.84699,573.72118 z"
   id="path3919" /><path
   d="M 92.071021,548.5564 C 92.368241,547.46659 92.467311,547.07029 94.448791,547.26844 C 97.421011,547.46659 98.808051,549.24991 98.510821,552.91565 C 98.114531,557.77027 96.133051,558.36473 91.278421,557.96843 L 92.071021,548.5564 L 92.071021,548.5564 z M 106.43674,571.24296 C 105.94137,571.24296 105.446,571.14389 104.95063,570.45037 L 98.510821,559.25502 C 100.4923,558.75965 104.45526,557.96705 104.85156,553.40965 C 105.34693,547.26706 97.520081,546.27632 94.944161,545.97911 L 83.055286,544.98836 L 82.956212,545.88002 C 85.135839,546.27632 86.225653,546.37539 85.928431,549.54576 L 84.541396,565.89297 C 84.244174,568.86519 83.550657,568.96426 80.974733,569.06333 L 80.875659,569.955 L 93.358981,571.04482 L 93.458051,570.15315 C 91.080281,569.5587 90.287681,569.36056 90.485831,566.38834 L 91.179351,559.15593 L 92.170091,559.25502 L 98.808051,571.54019 L 106.33767,572.2337 L 106.43674,571.24296 z"
   id="path3921" /><path
   d="M 125.85524,574.11748 C 123.87376,573.72118 122.38765,573.32489 122.78395,571.04619 L 125.2608,553.21288 C 125.55801,550.73603 127.34134,550.93418 129.12468,551.13232 L 129.22375,550.24065 L 116.34414,548.35825 L 116.24507,549.349 C 117.92932,549.64621 119.61358,549.94344 119.31635,552.42028 L 116.83951,570.15453 C 116.44321,572.43322 115.05617,572.43322 112.97562,572.33415 L 112.87655,573.22582 L 125.75617,575.00915 L 125.85524,574.11748 z"
   id="path3923" /><path
   d="M 151.41632,561.33694 L 152.70428,553.31195 L 151.61447,553.21288 C 151.31725,553.80732 151.02002,554.40176 150.22744,554.20362 C 149.13761,554.10455 147.65151,552.61844 144.67929,552.12306 C 137.74411,551.03325 135.86171,555.7888 135.46541,558.0675 C 135.16819,559.75176 134.67282,562.92212 140.51818,566.88509 L 142.79689,568.47027 C 144.97652,569.95637 146.5617,571.14527 146.1654,573.52304 C 146.06633,574.01841 145.27373,577.68415 140.91448,576.99063 C 136.258,576.19803 134.77189,571.73971 134.67282,567.87582 L 133.583,567.77675 L 132.09689,576.79248 L 133.18671,576.99063 C 133.48393,576.39618 133.78116,575.80174 134.47467,575.90082 C 135.66356,576.09896 137.0506,577.58507 140.51818,578.17952 C 147.35429,579.17026 150.32651,575.10822 150.82188,571.93785 C 151.51539,567.9749 149.03854,565.39898 147.94873,564.50731 L 142.99503,561.03972 C 140.12189,558.95917 139.52744,558.0675 139.82467,556.08602 C 140.22096,553.70825 142.40059,552.91565 144.38207,553.21288 C 148.64225,553.90639 150.22744,558.4638 150.42558,561.1388 L 151.41632,561.33694 z"
   id="path3925" /><path
   d="M 174.79778,582.14247 C 172.12278,581.54803 171.23111,581.34988 171.72648,578.17952 L 174.40148,558.8601 C 176.9774,559.35546 180.74221,560.04898 180.64314,566.09249 L 181.63388,566.19156 L 182.62461,558.8601 L 160.6302,555.68973 L 159.44131,563.12028 L 160.53112,563.21935 C 162.11631,557.47306 165.88112,557.77027 168.45704,557.96843 L 165.78205,577.38692 C 165.28668,580.45821 164.39501,580.35914 161.72001,580.26007 L 161.62094,581.15173 L 174.6987,583.03414 L 174.79778,582.14247 z"
   id="path3927" /><path
   d="M 405.93732,582.33924 C 402.56881,585.50961 399.69567,586.40128 396.82252,586.10405 C 395.63363,586.00498 392.76048,585.21239 391.47252,582.43832 C 390.28364,579.96147 390.38271,576.39481 390.58085,574.11611 C 391.07622,567.87445 393.05771,562.42538 398.4077,562.82167 C 402.66788,563.21797 405.34288,567.77538 406.43269,571.14389 L 407.32436,571.24296 L 408.11695,562.62353 L 407.1262,562.52446 C 406.63084,563.41611 406.23455,564.10964 405.2438,564.01057 C 404.25306,564.01057 401.57807,561.93001 398.30863,561.63279 C 390.48178,560.93927 384.63642,566.19019 384.04198,573.71981 C 383.44753,580.65499 387.50957,587.0948 396.129,587.88738 C 400.88455,588.28368 403.95585,586.20313 406.92806,583.32999 L 405.93732,582.33924 z"
   id="path3929" /><path
   d="M 426.24748,585.11469 C 424.16693,585.11469 422.68082,585.11469 422.48267,582.73691 L 421.29378,564.90361 C 421.09564,562.32768 422.87897,562.22861 424.56322,562.03045 L 424.46415,561.03972 L 411.58454,561.93138 L 411.58454,562.92212 C 413.36787,562.92212 415.05212,562.82305 415.25028,565.2999 L 416.53823,583.23228 C 416.63731,585.51099 415.25028,585.70914 413.26879,586.00636 L 413.36787,586.99709 L 426.24748,586.10543 L 426.24748,585.11469 z"
   id="path3931" /><path
   d="M 450.22339,582.14247 C 447.54838,582.34062 446.65672,582.4397 446.16135,579.26933 L 443.48635,559.94991 C 446.06228,559.75176 449.82709,559.35546 451.41227,565.20082 L 452.50208,565.00268 L 451.3132,557.6712 L 429.31877,560.7425 L 430.21044,568.17304 L 431.30026,567.9749 C 431.20118,562.03045 434.96599,561.23787 437.54192,560.7425 L 440.21691,580.161 C 440.71228,583.23228 439.82062,583.43044 437.14562,584.02488 L 437.34376,584.91654 L 450.42153,583.03414 L 450.22339,582.14247 z"
   id="path3933" /><path
   d="M 482.32335,552.71751 L 474.29836,553.90639 L 474.39743,554.89713 C 476.18076,554.69899 477.5678,554.50083 477.76594,555.98695 C 477.96409,556.97769 477.07242,559.15731 476.87428,559.65268 L 473.90206,567.08323 L 468.15577,559.25639 C 467.75947,558.66194 467.06595,557.86936 466.96688,557.27491 C 466.76874,556.28417 467.16502,555.98695 469.74095,555.59065 L 469.54281,554.69899 L 457.35671,556.68046 L 457.45578,557.57213 C 459.33819,557.37399 460.428,558.8601 460.72522,559.15731 L 469.34465,570.2536 L 470.23632,575.60359 C 470.63262,578.67489 469.84002,578.87303 467.26411,579.46747 L 467.46225,580.45821 L 480.14372,578.37766 L 480.04465,577.486 C 477.36965,577.58507 476.57705,577.68415 476.08168,574.61285 L 475.09094,567.87582 L 480.24279,555.3925 C 480.83723,554.10455 481.82798,553.80732 482.52149,553.60918 L 482.32335,552.71751 z"
   id="path3935" /><path
   d="M 502.63351,550.33973 C 504.41683,550.24065 505.90294,550.14158 506.20017,552.51936 L 508.7761,570.2536 C 509.07331,572.5323 507.88443,572.82952 505.90294,573.32489 L 506.00202,574.31563 L 519.17886,572.43322 L 519.07978,571.54156 C 516.50386,571.73971 515.01775,571.83878 514.72053,569.461 L 513.43256,560.94064 C 518.08904,560.24713 519.07978,562.82305 519.87237,565.79527 L 520.86311,565.69619 L 519.07978,553.31195 L 518.18811,553.41102 C 518.08904,556.38324 517.8909,559.05824 513.33349,559.65268 L 512.14461,551.13232 C 511.84738,549.54714 512.54091,549.349 514.52238,549.05177 C 520.86311,548.1601 522.15108,550.33973 523.53811,554.00546 L 524.3307,553.90639 L 523.33996,546.47585 L 502.53443,549.44807 L 502.63351,550.33973 z"
   id="path3937" /><path
   d="M 557.02511,564.80453 C 553.85474,568.17304 551.08067,569.16379 548.20753,569.06471 C 547.01863,569.06471 544.04642,568.37119 542.65938,565.59712 C 541.37143,563.21935 541.27235,559.65268 541.37143,557.37399 C 541.56957,551.13232 543.15475,545.58419 548.60382,545.68326 C 552.864,545.8814 555.73715,550.33973 556.92603,553.60918 L 557.91678,553.60918 L 558.214,544.98973 L 557.22326,544.89066 C 556.82696,545.78233 556.43066,546.57492 555.43992,546.57492 C 554.44918,546.47585 551.67511,544.59345 548.3066,544.49437 C 540.57883,544.19715 535.03069,549.84437 534.73346,557.37399 C 534.53532,564.30916 538.99365,570.55081 547.61309,570.84804 C 552.36864,570.94711 555.34085,568.76749 558.11492,565.79527 L 557.02511,564.80453 z"
   id="path3939" /><path
   d="M 239.59215,576.09896 C 238.30418,580.35914 236.52085,583.62858 230.87363,584.12395 C 228.39678,584.3221 227.60419,584.12395 227.40605,582.34062 L 225.91994,564.90361 C 225.62271,561.63417 226.8116,561.53509 229.38752,561.1388 L 229.28845,560.24713 L 216.40884,561.33694 L 216.50791,562.32768 C 218.09309,562.32768 219.67828,562.22861 219.87642,564.60638 L 221.4616,582.53877 C 221.65976,584.81747 220.47087,585.01562 218.48939,585.41191 L 218.58846,586.40265 L 239.88936,584.52025 L 240.68196,575.99989 L 239.59215,576.09896 z"
   id="path3941" /><path
   d="M 186.4885,571.93785 C 185.29961,589.37487 211.45514,591.25727 212.7431,573.82026 C 213.93198,556.28417 187.67739,554.50083 186.4885,571.93785 L 186.4885,571.93785 z M 206.10515,573.32489 C 205.11441,589.17673 191.93757,588.28506 193.02738,572.43322 C 194.1172,556.68046 207.29403,557.57075 206.10515,573.32489 z"
   id="path3943" /><path
   d="M 286.85042,555.29343 C 283.18468,555.7888 282.68932,554.79806 282.39209,552.32121 L 279.41987,531.41661 L 278.82543,531.51568 L 270.10692,536.86567 L 270.206,537.75734 C 271.39488,537.1629 272.58378,536.46937 273.07914,536.46937 C 274.56525,536.27123 274.7634,537.85641 274.96155,538.74808 L 276.94303,552.91565 C 277.24025,555.19436 277.33932,556.68046 273.07914,557.17583 L 273.17822,558.0675 L 286.9495,556.18509 L 286.85042,555.29343 z"
   id="path3945" /><path
   d="M 348.57349,532.70456 L 333.21704,531.41661 L 330.83926,539.4416 L 331.83,539.54067 C 332.91981,536.46937 334.70314,536.56846 335.69388,536.66753 L 343.32258,537.36104 L 334.20777,556.58139 L 337.77444,556.97769 L 348.57349,532.70456 z"
   id="path3947" /><path
   d="M 310.5291,555.98695 C 321.72446,555.29343 327.17352,548.35825 327.37168,541.62122 C 327.66889,532.70456 322.61613,530.42587 319.2476,530.32679 C 312.60965,530.12864 311.02447,536.3703 310.9254,538.35178 C 310.72724,544.69252 314.78928,546.2777 317.3652,546.37677 C 318.05872,546.37677 318.55409,546.37677 319.14853,546.2777 C 319.74297,546.2777 320.23835,546.07955 320.83279,545.78233 C 318.65316,552.71751 314.29391,554.50083 310.5291,555.09528 L 310.5291,555.98695 L 310.5291,555.98695 z M 316.57261,536.46937 C 316.77076,533.59623 316.77076,531.21846 319.04946,531.31753 C 321.32816,531.41661 321.82353,533.6953 321.62538,541.02678 C 321.52631,541.91845 321.22909,543.80085 321.13001,544.39529 C 321.13001,544.69252 320.0402,544.79159 319.44576,544.79159 C 316.96891,544.69252 316.47354,541.81937 316.57261,536.46937 L 316.57261,536.46937 z"
   id="path3949" /><path
   d="M 298.93744,530.22772 C 293.09208,530.42587 290.71431,533.6953 290.81338,537.1629 C 290.91245,540.23418 293.38931,542.41382 296.16338,543.80085 C 293.68652,544.69252 290.71431,546.2777 290.81338,550.33973 C 291.01153,554.40176 294.77634,556.38324 298.83837,556.28417 C 304.08929,556.08602 307.4578,553.01473 307.25966,548.45733 C 307.16059,544.98973 304.68374,542.51289 301.4143,540.72955 C 303.39577,539.93697 306.36799,538.54993 306.26892,535.37956 C 306.16985,533.29901 304.58466,530.02957 298.93744,530.22772 L 298.93744,530.22772 z M 295.46986,534.4879 C 295.46986,532.90272 296.65875,531.41661 298.44207,531.31753 C 301.21614,531.21846 301.81059,533.79438 301.90967,535.77586 C 301.90967,537.95548 301.31522,538.84715 300.52263,540.03604 C 300.12633,539.93697 295.56893,537.85641 295.46986,534.4879 L 295.46986,534.4879 z M 295.37078,550.04251 C 295.27171,547.36751 295.96523,546.17863 297.05504,544.49437 C 299.63096,546.07955 302.10781,547.56566 302.20688,550.63695 C 302.20688,551.52862 302.30596,554.89713 299.03652,555.09528 C 296.65875,555.19298 295.46986,552.71751 295.37078,550.04251 z"
   id="path3951" /><path
   d="M 350.25776,161.17722 C 354.71608,164.14944 356.49941,171.67907 353.42813,176.33553 C 351.14942,179.70406 343.12443,182.47812 343.12443,182.47812 C 337.77444,182.47812 332.91981,179.40683 331.63186,173.95776 C 331.0374,171.77814 330.74019,169.69758 330.93833,167.7161 C 328.95686,167.41889 326.48001,167.02259 323.90408,166.62629 C 322.51704,169.89573 319.74297,175.44388 315.28465,180.2985 C 312.01521,183.76608 296.85689,185.64849 296.85689,185.64849 C 296.85689,185.64849 296.85689,180.00127 304.68374,173.26425 C 307.16059,171.08461 314.29391,167.91426 319.44576,165.8337 C 318.35595,165.63555 317.3652,165.4374 316.57261,165.23925 C 314.98742,164.84296 311.42077,163.15871 307.25966,160.88 C 306.66522,164.05036 304.98095,169.00407 300.42356,173.56147 C 295.76708,178.21794 281.00505,178.91146 281.00505,178.91146 C 281.00505,178.91146 281.40135,172.17444 287.64302,165.73462 C 289.72357,163.65408 298.343,160.58278 303.59392,158.89853 C 300.22541,157.01612 296.65875,155.03463 293.58745,153.25131 C 292.59671,156.42167 290.31801,161.87074 286.5532,166.13092 C 283.58098,169.49943 268.91804,174.25498 268.91804,174.25498 C 268.91804,174.25498 268.22451,164.34759 274.96155,157.90778 C 277.63654,155.43093 285.85969,152.85501 290.71431,151.56705 C 287.14764,149.4865 284.67079,148.00039 284.67079,148.00039 L 287.84116,142.65039 C 287.84116,142.65039 293.58745,146.11799 300.12633,149.88279 C 303.99022,146.91057 310.9254,142.35317 319.04946,142.05595 C 331.0374,141.75872 333.21704,145.62261 333.21704,145.62261 C 333.21704,145.62261 322.41797,150.27908 317.26613,150.57631 C 312.01521,150.97261 305.77355,149.88279 304.28744,150.27908 C 303.89114,150.37817 302.99948,150.67538 302.00874,150.97261 C 306.66522,153.54853 311.32169,156.22353 314.59114,157.80871 C 316.67168,156.42167 320.13927,154.44019 325.39019,152.65686 C 337.08092,148.49576 337.08092,152.95408 337.08092,152.95408 C 337.08092,152.95408 334.30685,158.70037 330.04667,158.9976 C 327.86704,159.19574 323.40871,159.39389 319.44576,159.49297 C 323.50778,160.28555 330.54204,161.37537 333.41518,161.77167 C 337.27907,158.10593 345.99758,158.30407 350.25776,161.17722 L 350.25776,161.17722 z M 342.03462,176.23646 C 343.91703,175.54295 347.48368,174.05684 348.27628,172.86795 C 348.47442,172.57072 348.67258,171.77814 348.67258,170.68833 L 348.67258,170.68833 C 348.77165,169.00407 348.27628,167.3198 346.79017,166.32907 C 344.61054,164.84296 338.96332,164.74389 337.47722,167.12166 C 336.68462,168.31054 336.7837,169.89573 337.27907,171.77814 C 338.17073,175.24572 338.76518,175.04758 342.03462,176.23646 z"
   id="path3953" /><polygon
   points="364.468,177.605 360.58,170.19 356.98,177.534 364.468,177.605 "
   id="polygon3955"
   transform="matrix(1.3760272,0,0,1.3760272,-111.63054,-146.12544)"
   style="fill:#ffffff" /><path
   d="M 364.32626,76.171769 C 362.642,76.964359 360.66052,77.261579 358.57997,77.063429 C 353.32905,76.568059 352.63553,77.063429 348.77165,79.837509 C 349.76239,80.531019 350.4559,81.026389 351.24849,81.422689 L 364.32626,81.422689 L 364.32626,76.171769 L 364.32626,76.171769 z"
   id="path3957"
   style="fill:#ffffff" /><path
   d="M 348.87072,91.328709 C 347.87998,92.715739 346.79017,94.003709 345.70035,95.291669 C 344.80869,96.282409 343.91703,97.273149 343.02536,98.164809 L 352.53646,98.263879 L 348.87072,91.328709 z"
   id="path3959"
   style="fill:#fbd129" /><path
   d="M 275.95229,56.654199 C 272.08841,56.456049 265.6486,56.059749 262.28008,56.059749 C 251.77824,56.059749 248.01343,61.013449 239.98844,66.561589 C 237.80881,65.768999 236.42178,65.768999 233.84586,66.561589 C 240.68196,67.255109 249.00417,68.047699 254.84953,70.920849 C 256.83101,71.911589 261.19027,71.317139 265.74767,70.722699 C 270.60229,70.029179 274.86247,69.930109 278.52821,70.722699 C 281.20321,68.245849 284.57172,67.750479 287.54394,67.255109 C 289.03004,66.957889 292.00227,67.056959 289.82264,64.976409 C 285.46339,60.716229 280.41061,63.886599 275.95229,56.654199 z"
   id="path3961"
   style="fill:#00a352" /><path
   d="M 310.1328,53.087539 C 305.67448,49.025499 303.59392,49.917169 297.9467,51.106059 C 295.07356,51.700499 288.93097,51.700499 287.24672,51.700499 C 286.9495,51.700499 284.17542,53.880129 282.59024,55.168089 C 284.47265,56.852349 287.04857,56.654199 289.32727,57.347719 C 292.69578,58.536599 295.76708,61.310669 296.46059,64.877339 C 297.05504,67.651409 296.0643,70.326399 293.68652,71.812509 C 297.9467,71.317139 302.80133,71.317139 306.66522,73.397699 C 309.53836,70.920849 312.70873,69.236589 315.97817,67.750479 C 312.90687,63.490299 310.33096,58.536599 310.1328,53.087539 z"
   id="path3963"
   style="fill:#fbd129" /><path
   d="M 336.68462,55.564379 C 332.91981,55.267159 329.05593,54.276419 326.57908,53.285679 C 324.30038,52.394019 324.20131,51.997719 321.9226,52.988459 C 320.13927,53.781049 318.25686,54.474569 316.47354,54.771789 C 316.77076,56.257899 317.26613,57.843089 317.95965,59.230119 L 317.95965,59.230119 C 318.95039,61.310669 320.23835,63.391229 321.72446,65.372709 C 326.67815,63.292149 334.00963,60.716229 336.68462,55.564379 z"
   id="path3965"
   style="fill:#00a352" /><path
   d="M 339.26055,79.143989 C 345.8985,74.190289 349.76239,70.029179 359.07534,70.920849 C 363.0383,71.317139 365.51514,66.066219 364.62348,65.868079 C 360.56145,65.075479 358.77812,67.056959 355.31053,67.453259 L 355.31053,67.453259 C 353.03183,67.750479 351.05035,66.363449 350.95128,63.886599 C 350.8522,61.607899 353.32905,57.050489 356.00404,56.257899 C 358.67904,55.465309 362.04756,57.545859 364.72256,59.031969 C 366.80311,60.121789 368.48737,61.013449 369.8744,58.041229 C 372.74755,52.493089 367.29848,50.907909 362.93922,50.016239 C 353.1309,48.133839 351.24849,52.195869 343.42166,54.870869 C 341.14295,64.084749 331.73093,67.750479 323.90408,71.019919 C 319.54483,72.902329 314.98742,74.487509 311.22261,77.459729 C 313.89761,80.927319 316.07724,84.692129 318.85132,88.159719 L 318.85132,88.159719 C 319.54483,89.051379 320.23835,89.943049 320.93186,90.834709 L 339.26055,79.143989 z"
   id="path3967"
   style="fill:#fbd129" /><path
   d="M 340.64759,91.825449 L 344.31331,84.394909 C 344.11517,84.097689 343.81794,83.899539 343.52073,83.701389 L 329.74945,92.518969 C 332.2263,93.113419 334.80222,94.005079 336.88277,95.491189 C 338.17073,94.401379 339.45869,93.113419 340.64759,91.825449 z"
   id="path3969"
   style="fill:#fbd129" /><path
   d="M 315.87909,111.54117 C 316.96891,111.34302 318.05872,111.24395 319.2476,111.14487 C 321.03094,104.70507 321.22909,101.03933 315.38372,93.608789 C 315.28465,93.509709 314.78928,92.915269 314.09577,91.924529 L 314.09577,91.924529 C 305.5754,81.026389 305.27818,75.775469 288.73283,78.648619 C 289.52542,80.233799 290.02079,82.116209 290.41708,84.295829 C 290.51616,85.286569 290.61523,86.178239 290.61523,87.069899 C 299.73004,94.598149 308.15132,102.82128 315.87909,111.54117 z"
   id="path3971"
   style="fill:#00a352" /><path
   d="M 269.41341,129.96892 C 270.70137,121.44856 276.44766,115.50413 286.1569,117.38654 C 286.5532,117.08931 287.04857,116.79208 287.44486,116.3958 C 286.5532,111.14487 286.05783,105.79488 285.76061,100.44489 C 282.59024,103.61525 278.23099,105.59673 273.27729,106.58747 C 264.856,108.27172 257.92083,111.54117 256.03842,120.65598 C 257.42546,120.55689 258.8125,120.35875 260.19952,120.45645 L 260.19952,120.45645 C 265.35137,120.85274 267.03563,125.31108 268.42267,128.67959 C 268.52174,129.17634 268.91804,129.57126 269.41341,129.96892 z"
   id="path3973"
   style="fill:#00a352" /><path
   d="M 309.63743,113.7208 C 303.99022,107.47914 297.9467,101.43563 291.60597,95.887489 C 291.9032,101.73285 292.29949,107.57821 293.19115,113.42357 C 298.343,111.54117 303.99022,111.44209 309.14206,114.01802 C 309.34021,113.91756 309.53836,113.81987 309.63743,113.7208 z"
   id="path3975"
   style="fill:#fbd129" /><path
   d="M 342.23276,113.3245 C 341.53925,112.9282 340.9448,112.5319 340.35036,112.03653 C 340.15222,112.43283 339.95406,112.82913 339.75592,113.22543 C 340.64759,113.22543 341.44017,113.22543 342.23276,113.3245 z"
   id="path3977"
   style="fill:#fbd129" /><path
   d="M 363.13737,117.8819 C 364.22719,113.81987 365.7133,108.27172 366.10959,105.69581 C 366.40681,104.2097 365.81237,101.43563 364.9207,98.562479 C 362.04756,89.051379 361.25496,89.546749 351.94202,88.159719 C 353.92349,91.924529 355.90497,95.590259 357.88645,99.355069 C 358.48089,100.64303 358.87719,101.33655 358.87719,103.11988 C 358.87719,107.38007 356.59849,111.14487 353.03183,113.02727 L 351.94202,115.50413 C 353.62627,116.19764 355.01331,117.18838 356.2022,118.37727 C 358.48089,117.98098 360.75959,117.78283 363.13737,117.8819 z"
   id="path3979"
   style="fill:#fbd129" /><path
   d="M 281.00505,321.18029 C 280.80691,321.18029 280.60877,321.27936 280.41061,321.27936 C 277.0421,322.17103 274.96155,320.3877 275.35785,317.41548 C 274.3671,318.50529 273.47544,319.69418 272.98006,320.78399 C 271.89025,323.45899 272.98006,324.74695 275.75414,324.15251 C 277.53747,323.75759 279.41987,322.5687 281.00505,321.18029 z"
   id="path3981"
   style="fill:#ffffff" /><path
   d="M 285.36432,316.8224 C 285.16616,316.92149 284.96802,316.92149 284.76986,317.02056 C 281.30228,317.81315 279.22173,316.02982 279.7171,313.15668 C 278.62728,314.14741 277.83469,315.3363 277.33932,316.52519 C 276.15043,319.10111 277.33932,320.48814 280.1134,319.79463 C 281.89672,319.39833 283.77913,318.20944 285.36432,316.8224 z"
   id="path3983"
   style="fill:#d3365e" /><path
   d="M 289.6245,312.46315 C 289.42634,312.56222 289.2282,312.56222 289.03004,312.66131 C 285.66153,313.45389 283.58098,311.67057 283.97728,308.79741 C 282.98654,309.78816 282.09487,310.97704 281.5995,312.16594 C 280.50968,314.74186 281.5995,316.12889 284.37358,315.43538 C 286.1569,315.03908 288.13839,313.94926 289.6245,312.46315 z"
   id="path3985"
   style="fill:#ffffff" /><path
   d="M 293.98375,308.1039 C 293.7856,308.20297 293.58745,308.20297 293.38931,308.30204 C 289.92171,309.09464 287.84116,307.31131 288.33653,304.43816 C 287.34579,305.4289 286.45413,306.61779 285.95876,307.80668 C 284.86895,310.3826 285.95876,311.76964 288.73283,311.07612 C 290.51616,310.67982 292.39857,309.59001 293.98375,308.1039 z"
   id="path3987"
   style="fill:#d3365e" /><path
   d="M 298.24393,303.74465 C 298.04578,303.84372 297.84763,303.94279 297.64949,303.94279 C 294.28097,304.73539 292.20041,302.95205 292.69578,300.07891 C 291.60597,301.16872 290.71431,302.25854 290.21894,303.44742 C 289.12913,306.02335 290.21894,307.41039 292.99301,306.71686 C 294.77634,306.32057 296.75782,305.23076 298.24393,303.74465 z"
   id="path3989"
   style="fill:#ffffff" /><path
   d="M 302.60318,299.48447 C 302.40504,299.48447 302.20688,299.58354 302.00874,299.58354 C 298.54115,300.37614 296.46059,298.5928 296.95596,295.71966 C 295.96523,296.80947 295.07356,297.89928 294.57819,299.08817 C 293.48838,301.76317 294.57819,303.05113 297.35226,302.45668 C 299.13559,301.96132 301.018,300.8715 302.60318,299.48447 z"
   id="path3991"
   style="fill:#d3365e" /><path
   d="M 307.06151,287.89281 C 303.89114,288.68541 300.22541,291.75669 298.83837,294.72892 C 297.74856,297.40391 298.83837,298.69187 301.61244,298.09743 C 304.88188,297.30484 308.54762,294.23355 309.7365,291.16225 C 310.82632,288.58496 309.7365,287.29699 307.06151,287.89281 z"
   id="path3993"
   style="fill:#ffffff" /><polygon
   points="249.34,305.333 251.644,310.95 263.668,310.95 266.62,305.406 249.34,305.333 "
   id="polygon3995"
   transform="matrix(1.3760272,0,0,1.3760272,-111.63054,-146.12544)"
   style="fill:#e6ddcf" /><polygon
   points="281.092,303.39 283.396,309.006 295.348,308.934 298.3,303.462 281.092,303.39 "
   id="polygon3997"
   transform="matrix(1.3760272,0,0,1.3760272,-111.63054,-146.12544)"
   style="fill:#e6ddcf" /><path
   d="M 343.32258,323.06407 L 343.32258,331.18813 L 348.07812,331.18813 L 348.17721,323.06407 L 343.32258,323.06407 L 343.32258,323.06407 z M 332.2263,323.06407 L 332.2263,331.18813 L 337.08092,331.18813 L 337.08092,323.06407 L 332.2263,323.06407 L 332.2263,323.06407 z M 314.78928,331.28721 L 314.78928,322.96499 L 309.83558,322.96499 L 309.83558,331.28721 L 314.78928,331.28721 L 314.78928,331.28721 z M 321.03094,322.96499 L 321.03094,331.18813 L 325.88556,331.18813 L 325.88556,322.96499 L 321.03094,322.96499 L 321.03094,322.96499 z M 309.83558,318.90296 L 348.17721,319.00204 L 348.27628,311.67057 L 346.59202,311.57149 C 345.8985,312.76038 344.61054,313.65205 343.2235,313.65205 C 341.7374,313.65205 340.44943,312.76038 339.75592,311.57149 L 332.52352,311.47241 C 331.83,312.76038 330.54204,313.65205 329.05593,313.65205 C 327.56982,313.65205 326.18278,312.76038 325.58834,311.47241 L 318.45502,311.37334 C 317.76149,312.66131 316.47354,313.65205 314.88835,313.65205 C 313.30317,313.65205 312.01521,312.66131 311.32169,311.37334 L 309.93466,311.27427 L 309.83558,318.90296 z"
   id="path3999"
   style="fill:#d3dae1" /><polygon
   points="291.82,352.062 291.82,401.382 303.124,401.526 303.196,382.59 291.82,352.062 "
   id="polygon4001"
   transform="matrix(1.3760272,0,0,1.3760272,-111.63054,-146.12544)"
   style="fill:#d3365e" /><polygon
   points="258.196,372.078 262.804,380.43 268.204,380.501 263.74,372.149 258.196,372.078 "
   id="polygon4003"
   transform="matrix(1.3760272,0,0,1.3760272,-111.63054,-146.12544)"
   style="fill:#e6ddcf" /><polygon
   points="264.46,383.454 269.572,392.598 274.684,392.598 269.788,383.454 264.46,383.454 "
   id="polygon4005"
   transform="matrix(1.3760272,0,0,1.3760272,-111.63054,-146.12544)"
   style="fill:#e6ddcf" /><path
   d="M 261.58656,398.06305 L 274.3671,421.14729 L 312.21336,420.75099 C 316.96891,418.4723 322.41797,417.6797 327.56982,417.2834 L 327.56982,410.74452 L 286.9495,410.24915 L 280.50968,398.06305 L 261.58656,398.06305 z"
   id="path4007"
   style="fill:#e6ddcf" /><path
   d="M 306.46706,424.9121 L 271.98932,425.20932 L 256.93009,398.06305 L 241.17733,398.06305 L 265.2523,436.90005 L 303.09855,435.61209 C 302.60318,431.45098 303.59392,427.88295 306.46706,424.9121 z"
   id="path4009"
   style="fill:#e6ddcf" /><polygon
   points="266.188,392.598 261.076,383.382 254.956,383.382 259.636,392.598 266.188,392.598 "
   id="polygon4011"
   transform="matrix(1.3760272,0,0,1.3760272,-111.63054,-146.12544)"
   style="fill:#e6ddcf" /><polygon
   points="259.42,380.43 254.74,372.078 249.124,372.006 253.444,380.43 259.42,380.43 "
   id="polygon4013"
   transform="matrix(1.3760272,0,0,1.3760272,-111.63054,-146.12544)"
   style="fill:#e6ddcf" /><polygon
   points="267.052,372.149 271.516,380.501 276.988,380.501 272.596,372.222 267.052,372.149 "
   id="polygon4015"
   transform="matrix(1.3760272,0,0,1.3760272,-111.63054,-146.12544)"
   style="fill:#e6ddcf" /><polygon
   points="273.1,383.454 277.996,392.598 283.396,392.598 278.572,383.454 273.1,383.454 "
   id="polygon4017"
   transform="matrix(1.3760272,0,0,1.3760272,-111.63054,-146.12544)"
   style="fill:#e6ddcf" /><path
   d="M 109.11174,169.29991 C 107.82378,162.8601 105.94137,153.05178 103.86081,152.55641 C 102.07749,152.06104 99.600641,152.16011 97.024711,154.63697 C 88.504351,162.76103 87.711763,180.49527 88.999721,191.29433 L 97.222861,190.30359 L 91.377501,195.55451 C 94.349721,199.51747 97.222861,201.79617 101.2849,204.66931 L 97.718231,209.72208 C 92.665461,206.2545 89.296941,203.1832 85.63121,198.32858 C 81.271955,200.60728 80.281216,201.3008 77.705293,205.56098 C 84.442322,206.84894 89.098801,208.03783 95.142311,211.50542 L 91.971941,216.85541 C 85.928431,213.28875 80.083067,212.19893 73.147891,211.01005 C 72.652521,211.50542 72.058077,212.00079 71.36456,212.49616 C 67.104379,215.56745 66.609009,217.54893 65.221974,222.30448 C 71.36456,222.10633 77.308997,221.80911 83.451583,222.6017 L 82.758065,228.74428 C 75.921961,228.05077 69.38308,228.34799 62.546977,228.74428 C 62.150681,229.33873 61.655311,230.03225 61.060868,230.72577 C 58.385871,234.29243 58.286797,235.97669 58.286797,240.43501 C 63.934013,237.95817 70.37382,237.0665 76.417332,236.07576 L 77.408071,242.21835 C 70.770115,243.20908 63.240495,244.19982 57.395131,247.86556 C 56.10717,252.22481 54.422912,253.80999 56.305317,258.7637 C 62.447903,255.09796 68.590488,252.32389 75.030295,249.35167 L 77.705293,254.8998 C 70.671042,258.26833 64.033087,261.33962 57.296057,265.40165 C 57.196983,266.59053 56.800688,267.97757 56.305317,269.66183 C 55.413652,273.03034 54.918282,273.42664 57.097909,276.00256 C 57.494205,276.49793 57.890501,276.9933 58.088649,277.3896 C 63.63679,272.73312 69.482154,268.86924 75.327518,264.70813 L 78.993254,269.7609 C 72.454373,274.41738 66.212714,278.67756 60.070128,283.82941 C 60.070128,284.72107 59.971054,285.71181 59.87198,286.9007 C 59.574758,289.87291 59.475684,290.66551 61.556237,292.84514 C 61.754385,293.04328 61.952534,293.34051 62.150681,293.53865 C 67.401601,288.7831 73.048816,284.52292 78.101588,279.56923 L 82.460843,283.92848 C 77.011775,289.47662 70.671042,294.13309 64.924752,299.48309 C 65.023826,300.27568 65.1229,301.06827 65.221974,302.05901 C 65.420122,305.32845 65.321048,305.72475 67.797896,307.8053 C 67.89697,307.90438 68.095119,308.00345 68.194193,308.2016 C 72.751595,303.74327 77.209923,299.78031 80.875659,294.72754 L 85.928431,298.39327 C 81.866399,304.04049 76.714553,308.49882 71.760855,313.45251 C 72.058077,314.54234 72.157151,315.83029 72.157151,317.41548 C 72.355299,320.3877 71.760855,320.68492 74.534926,321.47751 C 75.525666,321.77473 76.417332,321.97288 77.308997,322.46824 C 84.046026,321.8738 88.405281,325.93584 94.547861,328.90806 C 100.69045,331.97935 106.83304,333.56453 113.57007,335.05064 C 110.99415,321.77473 108.71544,322.07196 96.628421,313.35344 L 100.29416,308.30067 C 117.92932,320.98214 117.6321,321.08122 121.19876,343.1747 C 111.09322,340.99508 101.08675,339.21175 91.773791,334.55527 C 88.900651,333.06916 86.324727,331.18676 83.649731,329.89879 C 86.126579,333.36776 88.405281,336.63582 90.287681,340.00434 C 94.250641,347.23674 95.340461,356.5497 94.845091,365.56542 C 94.151571,378.14781 90.485831,390.43298 87.513615,396.37742 C 80.974733,411.43667 55.710873,439.96996 55.11643,455.52458 C 55.314578,462.45976 57.890501,480.49122 64.825678,484.45417 L 61.457163,489.60602 C 52.342359,483.5625 49.171992,465.53104 48.874771,455.72272 C 48.577549,445.51811 59.178462,431.15238 65.221974,416.19222 C 71.463633,400.53853 75.822887,374.97745 74.634,359.42284 C 72.751595,340.30156 67.104379,330.88953 60.664571,326.43121 L 60.763645,326.43121 C 51.252545,319.79325 38.571079,320.3877 31.33868,329.5025 C 22.917393,340.10342 23.214615,350.01081 22.818319,362.69228 C 22.521097,370.32097 22.322949,377.8506 21.530358,381.12004 L 21.530358,381.12004 C 20.83684,383.8941 19.053508,388.74873 17.369251,392.90984 C 23.11554,389.6404 25.889612,386.47003 30.050718,381.71448 C 32.626641,387.46077 33.022937,390.92835 32.626641,397.56631 C 36.193303,394.29686 40.156262,390.13577 42.534038,385.87559 C 45.704404,380.22837 44.812738,372.69875 44.614591,366.45709 C 44.317368,359.91821 42.633111,345.35433 51.946063,345.35433 C 60.169202,345.35433 61.754385,355.3608 61.754385,365.2682 C 61.754385,375.96819 60.36735,385.28114 56.899762,395.48576 C 53.134951,406.48296 48.082179,419.06536 46.001626,423.62277 C 38.670153,439.87089 28.168313,453.34494 33.518307,471.57456 C 36.490526,481.28381 41.741446,488.81343 47.091439,497.23471 C 38.174783,503.47638 29.753496,514.67173 38.769227,524.6782 C 42.236815,520.1208 47.784957,511.10507 54.224764,510.70877 C 56.800688,510.51062 59.475684,510.6097 62.051607,510.80785 C 66.807157,504.26896 70.472894,502.38656 76.219184,497.43286 L 80.182141,502.18841 C 74.733074,506.84489 71.265486,508.52914 67.005306,514.57266 C 67.005306,521.21061 69.87845,528.34393 77.804367,527.94764 C 84.541396,527.65042 90.882131,523.48931 97.222861,521.21061 C 104.35618,518.53561 113.76821,515.95969 123.47746,513.87914 C 141.60799,510.01525 157.75706,508.43007 175.98666,508.13284 C 183.81351,510.41155 185.39869,510.01525 192.92831,506.74581 C 202.34033,516.25692 198.97182,515.06803 211.95051,514.27543 C 211.95051,514.27543 211.95051,514.17636 212.04958,514.17636 C 210.16718,511.69951 208.68106,508.82637 207.29403,506.0523 L 212.84217,503.17915 C 214.62551,506.84489 216.50791,510.01525 219.08383,513.18562 C 221.4616,512.69025 223.74031,511.99674 226.31624,511.10507 C 219.77735,504.16989 215.71532,498.8199 206.30329,495.7486 C 204.22274,488.11991 200.25979,486.03936 192.82924,486.6338 C 188.86627,486.93103 184.80425,488.02084 181.43573,489.40787 C 169.54686,494.26249 154.58669,494.65879 140.41911,494.65879 C 128.03487,494.75786 114.16451,494.06435 102.17656,497.33379 L 100.4923,491.29028 C 110.00341,488.81343 120.40617,488.51621 130.41264,488.51621 L 128.92653,486.33658 C 139.03207,479.50048 146.66077,475.2403 152.01076,464.63938 C 156.0728,456.51531 158.05427,444.82458 165.68297,439.0783 C 169.94315,436.00701 174.99592,434.32275 180.14777,433.62923 C 190.94683,432.14313 188.96535,423.52368 188.56906,413.31907 C 187.67739,412.13018 186.58758,411.13944 185.49776,410.34685 C 173.01444,401.92557 158.05427,412.42741 148.34503,419.6598 C 140.51818,425.50517 130.21449,426.19868 121.39691,430.35979 C 104.95063,438.08756 92.962681,472.76345 87.117319,487.72361 L 81.271955,485.44491 C 83.253434,480.49122 85.63121,474.15048 88.405281,467.51252 L 82.262694,471.47549 L 78.795106,466.32364 L 93.061761,457.01068 C 99.600641,443.14033 108.12099,429.76535 118.72191,424.81165 C 127.44042,420.65054 137.34781,419.85796 145.27373,414.30981 C 148.8404,411.73388 153.49688,408.46444 155.6765,406.87926 L 155.87465,399.05242 C 155.18113,399.54779 154.38853,399.94408 153.89316,400.24131 L 153.89316,400.24131 C 151.41632,401.4302 149.03854,402.02464 149.03854,402.02464 L 147.55243,396.0802 C 147.55243,396.0802 149.33577,395.6839 151.1191,394.79224 L 151.1191,394.79224 C 157.36076,391.5228 173.21259,372.30245 179.35517,358.82839 C 181.83203,353.37933 182.22832,351.79415 181.13851,346.246 C 180.74221,344.06637 180.14777,341.49045 179.6524,339.40989 C 172.81629,343.76915 169.24963,346.246 162.01724,348.5247 C 162.11631,353.0821 162.51261,359.62098 160.43205,363.78209 C 158.3515,367.84412 154.28946,370.51912 148.14688,365.96172 C 146.66077,383.29966 138.14041,374.18486 131.00708,367.05153 L 135.46541,362.69228 C 138.73485,366.75431 140.41911,367.9432 141.31078,367.1506 C 143.29225,365.46634 142.79689,357.83765 143.68855,351.59599 C 148.0478,356.94598 150.82188,360.21542 152.60521,360.80988 C 156.56816,362.09783 155.77557,353.18117 155.87465,343.86823 C 166.77279,340.59879 174.10425,335.64508 183.51628,329.5025 C 184.90332,334.95157 186.38943,340.40063 187.38016,345.94878 C 188.66813,352.6858 187.87553,354.27099 185.00239,361.00802 C 183.21906,365.07006 181.33665,368.93394 180.94036,369.62745 C 182.12924,372.20338 184.01165,372.79782 188.86627,368.43857 L 193.12645,372.99596 C 190.05516,376.16633 183.91258,390.92835 193.02738,387.55984 C 195.10794,384.58762 203.232,372.50059 204.51997,366.06079 C 206.40237,356.05433 202.34033,343.37286 201.05237,332.97009 C 200.06163,324.5488 201.3496,308.99419 197.58479,302.55438 C 195.60331,299.08679 188.96535,294.52939 186.38943,292.84514 C 180.34591,293.93495 175.98666,295.71828 171.23111,298.88865 L 140.22096,319.89233 L 136.6543,314.74048 L 167.8626,293.63772 C 162.11631,285.81089 157.9552,280.85718 150.12835,274.91275 C 143.58948,269.85998 141.80615,269.06738 140.51818,264.01462 C 129.62005,264.50998 118.52377,263.61832 111.29136,254.40443 C 112.6784,265.99609 117.2358,269.16646 126.35061,277.98404 L 121.99135,282.44237 C 105.8423,266.78869 104.85156,263.81646 104.15804,240.83131 L 110.30062,239.74149 C 115.05617,255.09796 124.66635,258.56554 139.72559,257.87203 C 143.58948,255.09796 147.65151,252.32389 151.1191,249.05444 C 157.06353,243.60538 162.61168,241.22761 170.73574,242.21835 C 182.82277,243.80353 185.39869,245.19056 183.41721,235.58039 C 176.9774,234.49058 175.09499,234.49058 169.05148,236.37299 L 167.07,230.52762 C 174.20333,228.24891 178.06722,228.34799 185.49776,229.73503 C 187.57832,228.84336 189.36164,227.65447 190.64961,225.67299 C 185.69591,226.06929 181.73295,224.78133 178.76073,220.42208 L 183.81351,216.85541 C 186.09221,220.02578 188.86627,219.82763 192.33387,219.33227 C 192.33387,218.14337 192.13571,216.95448 191.73942,215.7656 C 188.86627,207.14617 174.89685,204.66931 167.16907,202.39062 C 161.81908,200.70636 157.45983,199.31932 152.90243,196.3471 C 148.24595,193.27581 140.22096,189.51099 135.76263,189.11471 C 130.70986,188.61934 125.2608,188.22304 120.70339,185.54804 C 118.22654,184.45823 112.6784,183.86378 112.6784,183.86378 C 111.09322,179.10823 110.10248,174.25498 109.11174,169.29991 L 109.11174,169.29991 z M 140.61725,175.74109 C 146.06633,175.44388 153.00151,175.14665 154.48762,175.24572 C 159.73853,175.74109 159.54038,176.03832 155.77557,178.91146 C 152.90243,181.09109 148.8404,183.66701 145.67003,185.64849 C 142.79689,184.36052 139.92374,183.46887 137.54597,183.07257 C 138.43763,180.89294 139.42837,178.41609 140.61725,175.74109 L 140.61725,175.74109 z M 117.13673,176.13739 C 116.64136,174.45313 116.14599,172.6698 115.7497,170.88647 L 115.7497,170.88647 C 115.65062,170.3911 115.45247,169.30129 115.25433,168.1124 C 114.75896,165.8337 114.26359,163.25778 113.57007,160.58278 C 116.54228,157.11519 119.21728,157.51149 122.38765,161.07815 C 120.40617,166.52722 118.52377,171.97628 117.13673,176.13739 z"
   id="path4019"
   style="fill:#fbd129" /><path
   d="M 123.67561,205.76051 C 123.67561,205.76051 129.91727,203.18458 134.17745,201.00496 C 138.43763,198.72625 146.26447,196.74478 146.26447,196.74478 C 146.26447,196.74478 145.7691,201.2031 144.38207,201.9957 C 143.09411,202.78828 139.92374,204.47254 139.92374,204.47254 C 139.92374,204.47254 141.31078,207.44476 141.40985,208.53458 C 141.60799,209.52532 141.01355,211.01143 141.01355,211.01143 C 141.01355,211.01143 133.48393,209.82253 131.40338,208.73272 C 129.4219,207.74198 123.67561,205.76051 123.67561,205.76051 z"
   id="path4021" /><path
   d="M 131.10616,182.47812 C 134.27653,174.75035 141.01355,158.50223 144.48114,149.68464 C 147.35429,142.65039 150.02928,135.41799 151.1191,127.88837 C 152.40706,118.17912 150.02928,116.29671 144.67929,124.91616 C 140.71634,131.35596 136.85244,139.28188 134.17745,146.31613 C 130.80894,154.83649 125.35987,170.88647 122.38765,179.60497 C 125.45894,180.6948 127.73764,181.88368 131.10616,182.47812 z"
   id="path4023"
   style="fill:#d3dae1" /><polygon
   points="256.324,392.598 251.644,383.382 245.74,383.382 250.276,392.598 256.324,392.598 "
   id="polygon4025"
   transform="matrix(1.3760272,0,0,1.3760272,-111.63054,-146.12544)"
   style="fill:#e6ddcf" /><polygon
   points="250.132,380.43 245.812,372.006 240.124,371.934 244.3,380.43 250.132,380.43 "
   id="polygon4027"
   transform="matrix(1.3760272,0,0,1.3760272,-111.63054,-146.12544)"
   style="fill:#e6ddcf" /><path
   d="M 216.80514,308.40113 C 216.70606,314.74186 216.40884,320.98351 216.30977,327.22517 C 216.21069,335.15109 219.08383,343.07701 221.4616,350.40849 C 225.72178,343.37423 232.1616,337.52886 240.78103,337.33072 C 252.07546,337.03349 263.07268,341.9872 272.58378,347.63441 C 269.51248,337.62794 266.44119,329.10758 264.95508,319.99277 C 263.46896,310.28353 264.36063,300.07891 263.36989,290.27059 C 248.40972,290.17151 238.60141,292.64836 226.61345,300.97058 C 223.24494,303.34835 220.17365,305.72613 216.80514,308.40113 z"
   id="path4029"
   style="fill:#ffffff" /><polygon
   points="320.404,312.75 307.948,326.574 332.86,326.862 320.404,312.75 "
   id="polygon4031"
   transform="matrix(1.3760272,0,0,1.3760272,-111.63054,-146.12544)"
   style="fill:#d3dae1" /><path
   d="M 326.38094,276.69746 L 326.28186,268.67247 C 322.7152,269.26691 319.2476,269.86135 315.78002,271.14932 C 314.29391,271.74376 312.70873,272.14005 311.22261,272.63542 L 311.22261,280.36319 C 312.8078,279.76875 314.49205,279.37245 316.17632,278.97615 C 319.54483,278.18219 323.01241,277.49005 326.38094,276.69746 z"
   id="path4033"
   style="fill:#ffffff" /><path
   d="M 326.38094,273.62616 L 326.28186,271.9419 C 325.09297,272.14005 323.90408,272.3382 322.7152,272.53635 L 322.7152,272.53635 C 321.52631,272.7345 320.33742,272.93265 319.14853,273.22987 L 319.14853,270.15858 C 318.55409,270.25765 318.05872,270.45579 317.56335,270.55487 L 317.56335,273.72523 C 315.48279,274.41876 313.40224,275.0132 311.22261,275.4095 L 311.22261,277.09375 C 313.40224,276.59838 315.48279,276.10301 317.56335,275.4095 L 317.66242,278.67894 C 318.15779,278.57987 318.75223,278.38171 319.2476,278.28264 L 319.2476,274.91413 C 320.4365,274.6169 321.72446,274.31968 323.01241,274.12153 L 323.01241,274.12153 C 324.10223,273.92339 325.19204,273.72523 326.38094,273.62616 z"
   id="path4035"
   style="fill:#d3365e" /><path
   d="M 402.66788,268.77154 C 399.29937,269.36598 396.02993,269.96042 392.76048,271.24839 C 391.27438,271.84283 389.6892,272.14005 388.20308,272.63542 L 388.20308,280.46226 C 389.78827,279.86782 391.47252,279.37245 393.15678,278.97615 C 396.32715,278.28264 399.59658,277.58912 402.76695,276.8956 L 402.66788,268.77154 z"
   id="path4037"
   style="fill:#ffffff" /><path
   d="M 402.76695,272.04098 C 401.67714,272.23913 400.6864,272.3382 399.69567,272.53635 L 399.69567,272.53635 C 398.50677,272.7345 397.31789,273.03172 396.129,273.32894 L 396.129,270.15858 C 395.53456,270.25765 395.03919,270.45579 394.54382,270.65395 L 394.54382,273.72523 C 392.46326,274.41876 390.38271,275.0132 388.20308,275.50857 L 388.20308,277.09375 C 390.38271,276.69746 392.46326,276.10301 394.54382,275.4095 L 394.64289,278.67894 C 395.13826,278.57987 395.7327,278.48078 396.22807,278.28264 L 396.22807,274.91413 C 397.41696,274.6169 398.70493,274.41876 399.99288,274.12153 L 399.99288,274.12153 C 400.88455,274.02246 401.77621,273.82431 402.76695,273.72523 L 402.76695,272.04098 z"
   id="path4039"
   style="fill:#d3365e" /><path
   d="M 348.07812,335.25016 L 309.7365,335.34924 L 309.63743,352.29089 C 312.8078,349.41774 317.06798,348.22886 321.22909,348.72422 C 331.23556,349.91311 331.92907,356.25385 331.92907,363.6844 L 331.63186,417.08526 C 336.09018,417.08526 340.15222,418.17507 344.4124,419.85933 C 345.40313,419.26488 346.49295,418.67044 347.58276,418.17507 L 348.07812,335.25016 z"
   id="path4041"
   style="fill:#d3dae1" /><path
   d="M 382.55586,337.03212 C 381.96142,337.42842 381.26791,337.62657 380.47531,337.62657 C 378.89013,337.62657 377.40403,336.63582 376.90865,335.14971 L 369.97348,335.24879 C 369.37904,336.63582 367.992,337.62657 366.30774,337.62657 C 364.72256,337.62657 363.33552,336.63582 362.74107,335.24879 L 355.8059,335.24879 C 355.21146,336.63582 353.82442,337.62657 352.23923,337.62657 L 352.14016,337.62657 L 351.64479,416.39036 C 354.31979,415.39962 356.99478,414.60703 359.57071,414.40888 C 364.72256,414.11166 369.08181,416.39036 373.83736,417.67832 C 376.80957,416.9848 379.7818,415.99406 382.65494,415.30055 L 382.55586,337.03212 z"
   id="path4043"
   style="fill:#d3dae1" /><path
   d="M 509.96498,169.29991 C 511.25294,162.8601 513.13535,153.05178 515.2159,152.55641 C 516.99923,152.06104 519.47608,152.16011 522.05201,154.63697 C 530.57237,162.76103 531.36495,180.49527 530.077,191.29433 L 521.85385,190.30359 L 527.69922,195.55451 C 524.727,199.51747 521.85385,201.79617 517.79183,204.66931 L 521.35848,209.72208 C 526.41126,206.2545 529.77977,203.1832 533.44551,198.32858 C 537.80476,200.60728 538.7955,201.3008 541.37143,205.56098 C 534.63439,206.84894 529.97791,208.03783 523.93441,211.50542 L 527.10477,216.85541 C 533.14828,213.28875 538.99365,212.19893 545.92882,211.01005 C 546.42419,211.50542 547.01863,212.00079 547.71216,212.49616 C 551.97234,215.56745 552.46771,217.54893 553.85474,222.30448 C 547.71216,222.10633 541.76772,221.80911 535.62513,222.6017 L 536.31865,228.74428 C 543.15475,228.05077 549.69364,228.34799 556.52974,228.74428 C 556.92603,229.33873 557.42141,230.03225 558.01585,230.72577 C 560.69084,234.29243 560.78992,235.97669 560.78992,240.43501 C 555.14271,237.95817 548.7029,237.0665 542.65938,236.07576 L 541.66864,242.21835 C 548.3066,243.20908 555.83622,244.19982 561.68159,247.86556 C 562.96954,252.22481 564.65381,253.80999 562.7714,258.7637 C 556.62882,255.09796 550.48623,252.32389 543.94735,249.35167 L 541.37143,254.8998 C 548.40567,258.26833 555.04363,261.33962 561.78066,265.40165 C 561.87973,266.59053 562.27603,267.97757 562.7714,269.66183 C 563.66307,273.03034 564.15844,273.42664 561.97881,276.00256 C 561.58251,276.49793 561.18621,276.9933 560.98807,277.3896 C 555.43992,272.73312 549.59456,268.86924 543.7492,264.70813 L 540.08346,269.7609 C 546.62235,274.41738 552.864,278.67756 559.00659,283.82941 C 559.00659,284.72107 559.10566,285.71181 559.20473,286.9007 C 559.50196,289.87291 559.60103,290.66551 557.52048,292.84514 C 557.32233,293.04328 557.12418,293.34051 556.92603,293.53865 C 551.67511,288.7831 546.0279,284.52292 540.97513,279.56923 L 536.61587,283.92848 C 542.06494,289.47662 548.40567,294.13309 554.15197,299.48309 C 554.05289,300.27568 553.95382,301.06827 553.85474,302.05901 C 553.6566,305.32845 553.75567,305.72475 551.27882,307.8053 C 551.17974,307.90438 550.9816,308.00345 550.88253,308.2016 C 546.32512,303.74327 541.8668,299.78031 538.20106,294.72754 L 533.14828,298.39327 C 537.21032,304.04049 542.36217,308.49882 547.31586,313.45251 C 547.01863,314.54234 546.91956,315.83029 546.91956,317.41548 C 546.72142,320.3877 547.31586,320.68492 544.54179,321.47751 C 543.55105,321.77473 542.65938,321.97288 541.76772,322.46824 C 535.03069,321.8738 530.67144,325.93584 524.52885,328.90806 C 518.38627,331.97935 512.24368,333.56453 505.50665,335.05064 C 508.08257,321.77473 510.36128,322.07196 522.44829,313.35344 L 518.78256,308.30067 C 501.14739,320.98214 501.44462,321.08122 497.87795,343.1747 C 507.9835,340.99508 517.98997,339.21175 527.30292,334.55527 C 530.17607,333.06916 532.75199,331.18676 535.42699,329.89879 C 532.95014,333.36776 530.67144,336.63582 528.78903,340.00434 C 524.82608,347.23674 523.73626,356.5497 524.23163,365.56542 C 524.92515,378.14781 528.59088,390.43298 531.5631,396.37742 C 538.10199,411.43667 563.36584,439.96996 563.96028,455.52458 C 563.76214,462.45976 561.18621,480.49122 554.25104,484.45417 L 557.61955,489.60602 C 566.73436,483.5625 569.90473,465.53104 570.20195,455.72272 C 570.49917,445.51811 559.89826,431.15238 553.85474,416.19222 C 547.61309,400.53853 543.25383,374.97745 544.44272,359.42284 C 546.32512,340.30156 551.97234,330.88953 558.41215,326.43121 L 558.31307,326.43121 C 567.82418,319.79325 580.50563,320.3877 587.73804,329.5025 C 596.15933,340.10342 595.8621,350.01081 596.2584,362.69228 C 596.55562,370.32097 596.75377,377.8506 597.54635,381.12004 L 597.54635,381.12004 C 598.23988,383.8941 600.02321,388.74873 601.70746,392.90984 C 595.96118,389.6404 593.1871,386.47003 589.02599,381.71448 C 586.45008,387.46077 586.05378,390.92835 586.45008,397.56631 C 582.88341,394.29686 578.92045,390.13577 576.54268,385.87559 C 573.37231,380.22837 574.26398,372.69875 574.46213,366.45709 C 574.75935,359.91821 576.44361,345.35433 567.13065,345.35433 C 558.90752,345.35433 557.32233,355.3608 557.32233,365.2682 C 557.32233,375.96819 558.70936,385.28114 562.17696,395.48576 C 565.94177,406.48296 570.99454,419.06536 573.07509,423.62277 C 580.40656,439.87089 590.9084,453.34494 585.55841,471.57456 C 582.58619,481.28381 577.33527,488.81343 571.98527,497.23471 C 580.90193,503.47638 589.32322,514.67173 580.30749,524.6782 C 576.83991,520.1208 571.29176,511.10507 564.85195,510.70877 C 562.27603,510.51062 559.60103,510.6097 557.02511,510.80785 C 552.26956,504.26896 548.60382,502.38656 542.85754,497.43286 L 538.89457,502.18841 C 544.34364,506.84489 547.81123,508.52914 552.07141,514.57266 C 552.07141,521.21061 549.19827,528.34393 541.27235,527.94764 C 534.53532,527.65042 528.19459,523.48931 521.85385,521.21061 C 514.72053,518.53561 505.3085,515.95969 495.59926,513.87914 C 477.46872,510.01525 461.31966,508.43007 443.09006,508.13284 C 435.26321,510.41155 433.67803,510.01525 426.14841,506.74581 C 416.73639,516.25692 420.1049,515.06803 407.1262,514.27543 C 407.1262,514.27543 407.1262,514.17636 407.02713,514.17636 C 408.90954,511.69951 410.39565,508.82637 411.78268,506.0523 L 406.23455,503.17915 C 404.45121,506.84489 402.56881,510.01525 399.99288,513.18562 C 397.61511,512.69025 395.3364,511.99674 392.76048,511.10507 C 399.29937,504.16989 403.36139,498.8199 412.77342,495.7486 C 414.85398,488.11991 418.81693,486.03936 426.24748,486.6338 C 430.21044,486.93103 434.27248,488.02084 437.64099,489.40787 C 449.52986,494.26249 464.49003,494.65879 478.65761,494.65879 C 491.04185,494.75786 504.9122,494.06435 516.90016,497.33379 L 518.58441,491.29028 C 509.07331,488.81343 498.67055,488.51621 488.66408,488.51621 L 490.15019,486.33658 C 480.04465,479.50048 472.41595,475.2403 467.06595,464.63938 C 463.00393,456.51531 461.02244,444.82458 453.39374,439.0783 C 449.13356,436.00701 444.0808,434.32275 438.92895,433.62923 C 428.12989,432.14313 430.11137,423.52368 430.50766,413.31907 C 431.39933,412.13018 432.48914,411.13944 433.57895,410.34685 C 446.06228,401.92557 461.02244,412.42741 470.73169,419.6598 C 478.55854,425.50517 488.86222,426.19868 497.67981,430.35979 C 514.12609,438.08756 526.11403,472.76345 531.9594,487.72361 L 537.80476,485.44491 C 535.82328,480.49122 533.44551,474.15048 530.67144,467.51252 L 536.81402,471.47549 L 540.28161,466.32364 L 526.01496,457.01068 C 519.47608,443.14033 510.95572,429.76535 500.35481,424.81165 C 491.63629,420.65054 481.7289,419.85796 473.80299,414.30981 C 470.23632,411.73388 465.57984,408.46444 463.40022,406.87926 L 463.20207,399.05242 C 463.89559,399.54779 464.68818,399.94408 465.18355,400.24131 L 465.18355,400.24131 C 467.56132,401.4302 470.03818,402.02464 470.03818,402.02464 L 471.52429,396.0802 C 471.52429,396.0802 469.74095,395.6839 467.95762,394.79224 L 467.95762,394.79224 C 461.71596,391.5228 445.86412,372.30245 439.72154,358.82839 C 437.14562,353.37933 436.84839,351.79415 437.93821,346.246 C 438.3345,344.06637 438.92895,341.49045 439.42432,339.40989 C 446.26042,343.76915 449.82709,346.246 457.05948,348.5247 C 456.96041,353.0821 456.56411,359.62098 458.64466,363.78209 C 460.72522,367.84412 464.78725,370.51912 470.92983,365.96172 C 472.41595,383.29966 480.93631,374.18486 488.06964,367.05153 L 483.6113,362.69228 C 480.34186,366.75431 478.65761,367.9432 477.76594,367.1506 C 475.78447,365.46634 476.27984,357.83765 475.38817,351.59599 C 471.02892,356.94598 468.25484,360.21542 466.47151,360.80988 C 462.50856,362.09783 463.30114,353.18117 463.20207,343.86823 C 452.30393,340.59879 444.97247,335.64508 435.56044,329.5025 C 434.1734,334.95157 432.6873,340.40063 431.69655,345.94878 C 430.40859,352.6858 431.20118,354.27099 434.07432,361.00802 C 435.85766,365.07006 437.74006,368.93394 438.13636,369.62745 C 436.94748,372.20338 435.06507,372.79782 430.21044,368.43857 L 425.95026,372.99596 C 429.02156,376.16633 435.16414,390.92835 426.04933,387.55984 C 423.96878,384.58762 415.84472,372.50059 414.55675,366.06079 C 412.67435,356.05433 416.73639,343.37286 418.02434,332.97009 C 419.01509,324.5488 417.72712,308.99419 421.49193,302.55438 C 423.47341,299.08679 430.11137,294.52939 432.6873,292.84514 C 438.7308,293.93495 443.09006,295.71828 447.84561,298.88865 L 478.85575,319.89233 L 482.42242,314.74048 L 451.21412,293.63772 C 456.96041,285.81089 461.12152,280.85718 468.94836,274.91275 C 475.48724,269.85998 477.27057,269.06738 478.55854,264.01462 C 489.45667,264.50998 500.55295,263.61832 507.78535,254.40443 C 506.39832,265.99609 501.84092,269.16646 492.72611,277.98404 L 497.08537,282.44237 C 513.23442,266.78869 514.22516,263.81646 514.91868,240.83131 L 508.7761,239.74149 C 504.02054,255.09796 494.41037,258.56554 479.35112,257.87203 C 475.48724,255.09796 471.42521,252.32389 467.95762,249.05444 C 462.01319,243.60538 456.46504,241.22761 448.34098,242.21835 C 436.25395,243.80353 433.67803,245.19056 435.65951,235.58039 C 442.09931,234.49058 443.98172,234.49058 450.02523,236.37299 L 452.00671,230.52762 C 444.87338,228.24891 441.0095,228.34799 433.57895,229.73503 C 431.4984,228.84336 429.71507,227.65447 428.42711,225.67299 C 433.38081,226.06929 437.34376,224.78133 440.31599,220.42208 L 435.26321,216.85541 C 432.98451,220.02578 430.21044,219.82763 426.74285,219.33227 C 426.74285,218.14337 426.941,216.95448 427.33729,215.7656 C 430.21044,207.14617 444.17987,204.66931 451.90764,202.39062 C 457.25764,200.70636 461.61689,199.31932 466.17429,196.3471 C 470.83076,193.27581 478.85575,189.51099 483.31409,189.11471 C 488.36685,188.61934 493.81592,188.22304 498.37333,185.54804 C 500.85018,184.45823 506.39832,183.86378 506.39832,183.86378 C 507.9835,179.10823 508.97424,174.25498 509.96498,169.29991 L 509.96498,169.29991 z M 478.45946,175.74109 C 473.01039,175.44388 466.07521,175.14665 464.58911,175.24572 C 459.33819,175.74109 459.53633,176.03832 463.30114,178.91146 C 466.17429,181.09109 470.23632,183.66701 473.40669,185.64849 C 476.27984,184.36052 479.15298,183.46887 481.53075,183.07257 C 480.63909,180.89294 479.64835,178.41609 478.45946,175.74109 L 478.45946,175.74109 z M 501.93999,176.13739 C 502.43536,174.45313 502.93073,172.6698 503.32702,170.88647 L 503.32702,170.88647 C 503.4261,170.3911 503.62425,169.30129 503.82239,168.1124 C 504.31776,165.8337 504.81313,163.25778 505.50665,160.58278 C 502.53443,157.11519 499.85944,157.51149 496.68907,161.07815 C 498.67055,166.52722 500.55295,171.97628 501.93999,176.13739 z"
   id="path4045"
   style="fill:#fbd129" /><path
   d="M 495.4011,205.76051 C 495.4011,205.76051 489.15945,203.18458 484.89927,201.00496 C 480.63909,198.72625 472.81224,196.74478 472.81224,196.74478 C 472.81224,196.74478 473.30761,201.2031 474.69465,201.9957 C 475.98261,202.78828 479.15298,204.47254 479.15298,204.47254 C 479.15298,204.47254 477.76594,207.44476 477.66687,208.53458 C 477.46872,209.52532 478.06317,211.01143 478.06317,211.01143 C 478.06317,211.01143 485.59278,209.82253 487.67334,208.73272 C 489.65482,207.74198 495.4011,205.76051 495.4011,205.76051 z"
   id="path4047" /><path
   d="M 136.75337,488.51758 C 137.74411,488.51758 138.73485,488.51758 139.82467,488.51758 C 146.36354,488.51758 152.40706,488.61665 155.47835,488.61665 C 159.24316,479.00648 162.51261,469.49538 167.76352,460.57873 C 169.94315,456.81392 174.50055,453.4454 178.66166,450.37411 L 178.66166,450.37411 C 180.24684,449.18522 181.73295,448.0954 182.72369,447.30282 L 182.72369,447.30282 C 182.92184,447.10466 183.41721,446.70837 183.91258,446.31208 C 187.38016,443.53801 193.12645,438.9806 193.62182,430.36117 C 191.93757,435.31486 188.46998,438.78246 181.03943,439.7732 C 176.87833,440.36764 172.81629,441.6556 169.44778,444.13245 C 163.30519,448.59077 160.72927,461.27224 157.5589,467.41483 C 152.40706,477.61807 145.67003,482.47407 136.75337,488.51758 z"
   id="path4049"
   style="fill:#fbd129" /><path
   d="M 69.581228,326.23443 C 74.931222,332.4761 79.191402,342.58164 80.776585,358.82976 C 81.965473,370.71865 78.497885,390.43436 75.525666,404.20564 C 77.90344,400.53991 80.281216,396.7751 81.965473,393.60473 C 84.64047,388.25474 88.008984,376.86123 88.603431,365.26958 C 89.098801,357.14551 88.207131,349.02145 84.838618,342.97794 C 82.857139,339.3122 80.083067,335.64646 77.110849,331.58443 C 75.327518,329.20666 75.426592,328.21592 72.850668,327.42332 C 71.760855,327.1261 70.671042,326.82751 69.581228,326.23443 z"
   id="path4051"
   style="fill:#ffffff" /><path
   d="M 482.32335,488.51758 C 481.3326,488.51758 480.34186,488.51758 479.25205,488.51758 C 472.71317,488.51758 466.66965,488.61665 463.59837,488.61665 C 459.83356,479.00648 456.56411,469.49538 451.3132,460.57873 C 449.13356,456.81392 444.57617,453.4454 440.41506,450.37411 L 440.41506,450.37411 C 438.82988,449.18522 437.34376,448.0954 436.35302,447.30282 L 436.35302,447.30282 C 436.15488,447.10466 435.65951,446.70837 435.16414,446.31208 C 431.69655,443.53801 425.95026,438.9806 425.45489,430.36117 C 427.13915,435.31486 430.60674,438.78246 438.03729,439.7732 C 442.19839,440.36764 446.26042,441.6556 449.62893,444.13245 C 455.77152,448.59077 458.34745,461.27224 461.51782,467.41483 C 466.66965,477.61807 473.40669,482.47407 482.32335,488.51758 z"
   id="path4053"
   style="fill:#fbd129" /><path
   d="M 549.49549,326.23443 C 544.14549,332.4761 539.88531,342.58164 538.30013,358.82976 C 537.11125,370.71865 540.57883,390.43436 543.55105,404.20564 C 541.17328,400.53991 538.7955,396.7751 537.11125,393.60473 C 534.43625,388.25474 531.06774,376.86123 530.47328,365.26958 C 529.97791,357.14551 530.86958,349.02145 534.23809,342.97794 C 536.21958,339.3122 538.99365,335.64646 541.96587,331.58443 C 543.7492,329.20666 543.65012,328.21592 546.22605,327.42332 C 547.31586,327.1261 548.40567,326.82751 549.49549,326.23443 z"
   id="path4055"
   style="fill:#ffffff" /><path
   d="M 487.97056,182.47812 C 484.8002,174.75035 478.06317,158.50223 474.59557,149.68464 C 471.72243,142.65039 469.04743,135.41799 467.95762,127.88837 C 466.66965,118.17912 469.04743,116.29671 474.39743,124.91616 C 478.36038,131.35596 482.22427,139.28188 484.89927,146.31613 C 488.26778,154.83649 493.71685,170.88647 496.68907,179.60497 C 493.61777,180.6948 491.33908,181.88368 487.97056,182.47812 z"
   id="path4057"
   style="fill:#d3dae1" /><path
   d="M 416.14193,255.09933 L 382.15958,255.09933 C 378.89013,258.46785 374.92717,261.14285 371.75681,261.73729 C 364.22719,263.42154 359.47164,261.83636 356.59849,259.35951 C 352.23923,262.23266 345.50221,264.21414 341.3411,262.72803 C 338.96332,261.83636 335.39667,258.86415 332.72167,256.3873 C 328.46149,259.45859 323.50778,261.63822 319.04946,262.13359 C 313.79854,262.72803 309.53836,261.34099 307.16059,258.56692 C 298.44207,260.64748 289.6245,262.8271 281.10414,263.81784 C 269.01711,265.40303 260.59582,264.41229 251.67916,255.09933 L 202.93478,255.09933 C 202.8357,262.23266 202.63756,275.21134 202.53848,298.79095 C 202.63756,298.9891 202.8357,299.18724 202.93478,299.3854 C 207.59125,307.41039 206.10515,322.5687 207.19496,332.27795 C 208.58199,343.37423 212.64403,356.35292 210.56347,367.25105 C 209.96903,370.22327 208.28478,373.98808 206.40237,377.75289 C 212.24773,398.85565 224.03753,418.37321 237.70974,435.31486 C 243.85233,432.1445 250.78751,430.75747 257.6236,432.24357 L 236.42178,398.06305 L 230.18012,398.06305 L 229.68475,396.97324 L 212.24773,361.50476 L 241.2764,361.80199 L 241.2764,341.39275 C 230.08105,341.49183 225.52364,351.89459 220.86716,359.91958 C 216.40884,350.60663 212.14866,337.23165 212.24773,327.22517 C 212.3468,320.29 212.64403,313.35482 212.7431,306.41964 C 216.50791,303.44742 220.27272,300.47521 224.23568,297.70114 C 229.4866,294.0354 235.23289,290.46874 241.37548,288.58633 L 241.37548,283.43449 L 233.54863,283.43449 L 229.09031,272.3382 L 241.47455,272.43728 L 241.47455,267.7808 L 245.53658,267.7808 L 245.53658,272.43728 L 257.92083,272.53635 L 252.07546,283.33542 L 245.43751,283.33542 L 245.43751,287.5956 C 252.57083,286.10948 259.80324,286.10948 266.93656,286.20856 C 268.3236,297.50299 267.33286,308.99557 269.21526,320.19093 C 271.39488,332.4761 275.85322,343.67145 279.7171,356.94736 C 270.00785,349.91311 257.42546,342.77978 245.33843,341.5909 L 245.33843,361.80199 L 265.94582,362.00013 L 285.85969,399.54917 L 285.85969,318.50667 C 285.46339,318.80389 284.96802,319.10111 284.57172,319.39833 C 282.68932,322.37055 279.3208,324.94648 276.15043,325.63999 C 272.08841,326.63073 269.90878,324.05481 271.59304,320.19093 C 272.48469,318.0113 274.46618,315.83167 276.6458,314.34556 C 277.73562,312.76038 279.3208,311.17519 281.00505,309.98631 C 282.09487,308.40113 283.58098,306.81594 285.26523,305.62705 C 285.46339,305.4289 285.66153,305.13168 285.85969,304.93353 L 285.85969,280.66041 L 277.24025,280.75949 L 272.68285,269.66321 L 285.85969,269.76228 L 285.85969,266.79006 L 289.92171,266.79006 L 289.92171,269.76228 L 301.51337,269.86135 L 295.76708,280.66041 L 289.92171,280.66041 L 289.92171,300.8715 C 290.91245,299.3854 292.39857,297.99836 293.98375,297.00762 C 294.97449,295.32336 296.55967,293.83725 298.24393,292.64836 C 300.12633,289.67614 303.59392,287.10023 306.66522,286.4067 C 310.62817,285.41596 312.8078,288.09096 311.12354,291.85578 C 310.23187,294.0354 308.34947,296.21503 306.16985,297.70114 C 305.08003,299.3854 303.49485,300.8715 301.81059,302.06039 C 300.72077,303.74465 299.23467,305.23076 297.5504,306.41964 C 296.46059,308.00483 294.87541,309.59001 293.19115,310.7789 C 292.39857,312.06686 291.20968,313.25575 289.92171,314.34556 L 289.92171,326.7298 L 305.67448,368.93531 L 305.67448,359.72143 L 305.5754,359.72143 C 305.67448,359.62236 305.67448,359.52329 305.67448,359.42422 L 305.97169,307.31131 L 303.19762,307.21223 L 326.48001,281.25486 L 326.38094,278.38171 C 323.1115,279.07524 319.84205,279.86782 316.47354,280.56134 C 314.09577,281.05671 311.81706,281.8493 309.63743,282.84005 L 309.63743,271.44653 C 311.42077,270.75302 313.40224,270.35672 315.18558,269.66321 C 318.85132,268.27617 322.51704,267.68172 326.28186,266.98821 L 326.18278,264.41229 L 330.24482,264.31321 L 330.44296,279.47152 L 355.4096,307.80668 L 352.3383,307.80668 L 352.14016,331.18813 L 382.65494,331.08906 L 382.65494,307.31131 L 379.3855,307.21223 L 402.76695,281.25486 L 402.76695,278.48078 C 399.69567,279.17431 396.62437,279.86782 393.55308,280.56134 C 391.07622,281.05671 388.8966,281.8493 386.6179,282.84005 L 386.6179,271.44653 C 388.40123,270.75302 390.38271,270.35672 392.26512,269.66321 C 395.63363,268.37524 399.10121,267.68172 402.66788,267.08728 L 402.56881,264.41229 L 406.63084,264.31321 L 406.82899,279.47152 L 416.53823,290.46874 C 416.43916,272.04098 416.24102,261.34099 416.14193,255.09933 z"
   id="path4059"
   style="fill:#d3365e" /><path
   d="M 405.6401,284.22707 L 388.40123,303.24928 L 414.35861,303.5465 C 414.85398,302.06039 415.44842,300.67335 416.14193,299.3854 C 416.24102,299.18724 416.43916,298.89002 416.63731,298.69187 L 416.63731,296.61132 L 405.6401,284.22707 z"
   id="path4061"
   style="fill:#d3dae1" /><path
   d="M 386.71697,318.90296 L 412.47621,319.00204 C 412.57528,316.52519 412.77342,313.94926 412.97157,311.57149 L 409.40491,311.47241 C 408.71139,312.76038 407.42343,313.65205 405.93732,313.65205 C 404.35214,313.65205 403.06418,312.76038 402.37066,311.47241 L 395.23733,311.37334 C 394.64289,312.66131 393.35493,313.65205 391.76975,313.65205 C 390.18457,313.65205 388.79753,312.66131 388.20308,311.37334 L 386.71697,311.27427 L 386.71697,318.90296 L 386.71697,318.90296 z"
   id="path4063"
   style="fill:#d3dae1" /><rect
   x="397.91232"
   y="322.96503"
   width="4.8546243"
   height="8.2231388"
   id="rect4065"
   style="fill:#d3dae1" /><polygon
   points="365.692,346.95 365.692,340.902 362.164,340.902 362.092,346.95 365.692,346.95 "
   id="polygon4067"
   transform="matrix(1.3760272,0,0,1.3760272,-111.63054,-146.12544)"
   style="fill:#d3dae1" /><path
   d="M 409.00861,323.06407 L 409.00861,331.18813 L 411.98084,331.18813 C 412.17898,328.71129 412.27805,325.93722 412.37713,323.06407 L 409.00861,323.06407 z"
   id="path4069"
   style="fill:#d3dae1" /><path
   d="M 395.03919,416.29266 C 402.66788,404.30472 408.90954,391.4251 412.67435,377.75289 C 410.79194,373.98808 409.10769,370.22327 408.51324,367.25105 C 406.53176,357.34366 409.80121,345.55385 411.48547,335.15109 L 386.6179,335.15109 L 386.71697,414.6084 C 389.59012,414.31119 392.36419,414.70748 395.03919,416.29266 z"
   id="path4071"
   style="fill:#d3dae1" /><path
   d="M 433.38081,282.93774 C 433.38081,284.12662 433.38081,285.41459 433.38081,286.60348 C 437.93821,287.39606 441.60394,288.58496 445.76505,290.46736 C 447.44931,288.18866 448.93542,286.20718 450.42153,284.42385 C 447.25116,282.64052 443.6845,280.85718 441.4058,281.05534 C 439.42432,281.25486 436.35302,282.04745 433.38081,282.93774 z"
   id="path4073"
   style="fill:#fbd129" /><path
   d="M 185.69591,282.93774 C 182.72369,282.04607 179.6524,281.25348 177.67092,281.05534 C 175.39222,280.85718 171.82555,282.64052 168.65519,284.42385 C 170.1413,286.20718 171.62741,288.18866 173.31166,290.46736 C 177.47277,288.58496 181.13851,287.39606 185.69591,286.60348 C 185.69591,285.41596 185.69591,284.128 185.69591,282.93774 z"
   id="path4075"
   style="fill:#fbd129" /></svg>