<?xml version="1.0" encoding="utf-8"?>
<!-- Generator: Adobe Illustrator 15.0.0, SVG Export Plug-In . SVG Version: 6.00 Build 0)  -->
<!DOCTYPE svg PUBLIC "-//W3C//DTD SVG 1.0//EN" "http://www.w3.org/TR/2001/REC-SVG-20010904/DTD/svg10.dtd">
<svg version="1.0"
	 id="Layer_1" inkscape:version="0.47 r22583" sodipodi:docname="Cardiff Blues.svg" xmlns:dc="http://purl.org/dc/elements/1.1/" xmlns:cc="http://creativecommons.org/ns#" xmlns:rdf="http://www.w3.org/1999/02/22-rdf-syntax-ns#" xmlns:svg="http://www.w3.org/2000/svg" xmlns:sodipodi="http://sodipodi.sourceforge.net/DTD/sodipodi-0.dtd" xmlns:inkscape="http://www.inkscape.org/namespaces/inkscape"
	 xmlns="http://www.w3.org/2000/svg" xmlns:xlink="http://www.w3.org/1999/xlink" x="0px" y="0px" width="37.039px"
	 height="51.959px" viewBox="136.591 158.854 37.039 51.959" enable-background="new 136.591 158.854 37.039 51.959"
	 xml:space="preserve">
<defs>
	
	
		<inkscape:perspective  id="perspective1169" inkscape:persp3d-origin="297.638 : 280.63 : 1" inkscape:vp_x="0 : 420.94501 : 1" sodipodi:type="inkscape:persp3d" inkscape:vp_z="595.276 : 420.94501 : 1" inkscape:vp_y="0 : 1000 : 0">
		</inkscape:perspective>
</defs>
<sodipodi:namedview  id="namedview1163" inkscape:cy="631.1267" inkscape:cx="260.01675" inkscape:zoom="1.3450006" showgrid="false" borderopacity="1" bordercolor="#666666" pagecolor="#ffffff" guidetolerance="10" gridtolerance="10" objecttolerance="10" inkscape:window-maximized="1" inkscape:current-layer="Layer_1" inkscape:window-y="-8" inkscape:window-x="-8" inkscape:window-height="838" inkscape:window-width="1600" inkscape:pageshadow="2" inkscape:pageopacity="0">
	</sodipodi:namedview>
<g>
	<g>
		<g>
			<defs>
				<rect id="SVGID_1_" x="-221.236" y="-247.234" width="756.98" height="860.207"/>
			</defs>
			<clipPath id="SVGID_2_">
				<use xlink:href="#SVGID_1_"  overflow="visible"/>
			</clipPath>
			<path id="path960" clip-path="url(#SVGID_2_)" fill="#002B5C" d="M173.294,158.854h-36.703v30.707
				c0,6.354,3.227,12.039,9.334,16.438c4.589,3.307,9.246,4.751,9.293,4.765l0.097,0.03l0.097-0.029
				c0.046-0.014,4.602-1.396,9.091-4.673c5.971-4.359,9.127-10.075,9.127-16.53v-30.708H173.294z M172.958,159.526v30.036
				c0,3.472-0.926,6.707-2.752,9.62c-1.465,2.338-3.512,4.477-6.083,6.355c-4.055,2.964-8.156,4.345-8.806,4.553
				c-0.659-0.215-4.86-1.651-9.014-4.647c-2.631-1.897-4.726-4.042-6.226-6.37c-1.867-2.898-2.814-6.099-2.814-9.512v-30.035
				H172.958z"/>
		</g>
	</g>
	<g>
		<g>
			<defs>
				<rect id="SVGID_3_" x="-221.236" y="-247.234" width="756.98" height="860.207"/>
			</defs>
			<clipPath id="SVGID_4_">
				<use xlink:href="#SVGID_3_"  overflow="visible"/>
			</clipPath>
			<path id="path962" clip-path="url(#SVGID_4_)" fill="#6CADDF" d="M143.444,163.17c-0.276,0.051-0.574,0.093-0.862,0.093
				c-1.224,0-2.075-0.477-2.075-1.472c0-1.008,0.791-1.573,2.075-1.573c0.25,0,0.58,0.038,0.857,0.122l-0.055,0.498
				c-0.287-0.126-0.547-0.156-0.818-0.156c-0.78,0-1.268,0.464-1.268,1.067c0,0.599,0.477,1.05,1.284,1.05
				c0.298,0,0.651-0.051,0.829-0.122L143.444,163.17z"/>
		</g>
	</g>
	<g>
		<g>
			<defs>
				<rect id="SVGID_5_" x="-221.236" y="-247.234" width="756.98" height="860.207"/>
			</defs>
			<clipPath id="SVGID_6_">
				<use xlink:href="#SVGID_5_"  overflow="visible"/>
			</clipPath>
			<path id="path964" clip-path="url(#SVGID_6_)" fill="#6CADDF" d="M147.404,162.073h-1.105l0.547-1.214h0.011L147.404,162.073
				L147.404,162.073z M144.966,163.212h0.786l0.33-0.675h1.534l0.325,0.675h0.84l-1.485-2.943h-0.856L144.966,163.212
				L144.966,163.212z"/>
		</g>
	</g>
	<g>
		<g>
			<defs>
				<rect id="SVGID_7_" x="-221.236" y="-247.234" width="756.98" height="860.207"/>
			</defs>
			<clipPath id="SVGID_8_">
				<use xlink:href="#SVGID_7_"  overflow="visible"/>
			</clipPath>
			<path id="path966" clip-path="url(#SVGID_8_)" fill="#6CADDF" d="M151.317,160.733h0.249c0.379,0,0.802,0.03,0.802,0.385
				c0,0.366-0.428,0.408-0.802,0.408h-0.249V160.733z M150.558,163.212h0.759v-1.223h0.243c0.32,0,0.418,0.084,0.526,0.305
				l0.455,0.919h0.845l-0.606-1.151c-0.076-0.131-0.195-0.291-0.401-0.304v-0.008c0.482-0.052,0.78-0.338,0.78-0.684
				c0-0.817-0.97-0.797-1.783-0.797h-0.818V163.212z"/>
		</g>
	</g>
	<g>
		<g>
			<defs>
				<rect id="SVGID_9_" x="-221.236" y="-247.234" width="756.98" height="860.207"/>
			</defs>
			<clipPath id="SVGID_10_">
				<use xlink:href="#SVGID_9_"  overflow="visible"/>
			</clipPath>
			<path id="path968" clip-path="url(#SVGID_10_)" fill="#6CADDF" d="M156.047,160.733h0.422c0.634,0,1.247,0.367,1.247,1.009
				c0,0.641-0.613,1.008-1.247,1.008h-0.422V160.733z M155.288,163.212h1.035c1.16,0,2.184-0.304,2.184-1.473
				c0-1.168-1.024-1.471-2.184-1.471h-1.035V163.212z"/>
		</g>
	</g>
	<g>
		<g>
			<defs>
				<rect id="SVGID_11_" x="-221.236" y="-247.234" width="756.98" height="860.207"/>
			</defs>
			<clipPath id="SVGID_12_">
				<use xlink:href="#SVGID_11_"  overflow="visible"/>
			</clipPath>
			<rect id="rect970" x="160.49" y="160.269" clip-path="url(#SVGID_12_)" fill="#6CADDF" width="0.759" height="2.943"/>
		</g>
	</g>
	<g>
		<g>
			<defs>
				<rect id="SVGID_13_" x="-221.236" y="-247.234" width="756.98" height="860.207"/>
			</defs>
			<clipPath id="SVGID_14_">
				<use xlink:href="#SVGID_13_"  overflow="visible"/>
			</clipPath>
			<polygon id="polygon972" clip-path="url(#SVGID_14_)" fill="#6CADDF" points="164.175,161.922 164.175,163.212 163.417,163.212 
				163.417,160.269 165.519,160.269 165.519,160.733 164.175,160.733 164.175,161.458 165.454,161.458 165.454,161.922 			"/>
		</g>
	</g>
	<g>
		<g>
			<defs>
				<rect id="SVGID_15_" x="-221.236" y="-247.234" width="756.98" height="860.207"/>
			</defs>
			<clipPath id="SVGID_16_">
				<use xlink:href="#SVGID_15_"  overflow="visible"/>
			</clipPath>
			<polygon id="polygon974" clip-path="url(#SVGID_16_)" fill="#6CADDF" points="168.239,161.922 168.239,163.212 167.48,163.212 
				167.48,160.269 169.583,160.269 169.583,160.733 168.239,160.733 168.239,161.458 169.517,161.458 169.517,161.922 			"/>
		</g>
	</g>
	<g>
		<g>
			<defs>
				<rect id="SVGID_17_" x="-221.236" y="-247.234" width="756.98" height="860.207"/>
			</defs>
			<clipPath id="SVGID_18_">
				<use xlink:href="#SVGID_17_"  overflow="visible"/>
			</clipPath>
			<path id="path976" clip-path="url(#SVGID_18_)" fill="#6CADDF" d="M164.932,169.683L164.932,169.683v0.11
				c1.001,0.023,1.791,0.225,2.28,0.613c3.045,2.42,2.977,14.994-3.442,22.957c-5.534,6.865-16.81,10.832-20.173,8.061l-0.001-0.001
				l-0.098,0.097c4.977,5.286,11.815,7.475,11.815,7.475s16.526-5.17,16.526-19.754v-19.558H164.932z"/>
		</g>
	</g>
	<g>
		<g>
			<defs>
				<rect id="SVGID_19_" x="-221.236" y="-247.234" width="756.98" height="860.207"/>
			</defs>
			<clipPath id="SVGID_20_">
				<use xlink:href="#SVGID_19_"  overflow="visible"/>
			</clipPath>
			<path id="path978" clip-path="url(#SVGID_20_)" fill="#002B5C" d="M143.596,201.423c-2.817-2.327-2.328-15.297,3.205-22.161
				c4.941-6.13,13.652-9.575,18.131-9.468v-0.111h-26.518v19.557c0,5.222,2.238,9.258,5.085,12.28L143.596,201.423z"/>
		</g>
	</g>
	<g>
		<g>
			<defs>
				<rect id="SVGID_21_" x="-221.236" y="-247.234" width="756.98" height="860.207"/>
			</defs>
			<clipPath id="SVGID_22_">
				<use xlink:href="#SVGID_21_"  overflow="visible"/>
			</clipPath>
			<path id="path980" clip-path="url(#SVGID_22_)" fill="#002B5C" d="M140.497,164.653h0.579c0.305,0,0.805,0.117,0.805,0.551
				c0,0.337-0.265,0.658-1.021,0.658h-0.363V164.653z M140.497,166.691h0.589c0.717,0,0.992,0.264,0.992,0.666
				c0,0.499-0.462,0.771-1.188,0.771h-0.393V166.691z M141.253,168.955c1.944,0,2.936-0.63,2.936-1.568
				c0-0.711-0.992-1.173-1.787-1.202v-0.015c0.432-0.146,1.345-0.381,1.345-1.181c0-0.746-0.903-1.164-2.268-1.164h-3.054v5.13
				H141.253L141.253,168.955z"/>
		</g>
	</g>
	<g>
		<g>
			<defs>
				<rect id="SVGID_23_" x="-221.236" y="-247.234" width="756.98" height="860.207"/>
			</defs>
			<clipPath id="SVGID_24_">
				<use xlink:href="#SVGID_23_"  overflow="visible"/>
			</clipPath>
			<polygon id="polygon982" clip-path="url(#SVGID_24_)" fill="#002B5C" points="148.136,163.825 148.136,167.995 150.649,167.995 
				150.649,168.955 146.064,168.955 146.064,163.825 			"/>
		</g>
	</g>
	<g>
		<g>
			<defs>
				<rect id="SVGID_25_" x="-221.236" y="-247.234" width="756.98" height="860.207"/>
			</defs>
			<clipPath id="SVGID_26_">
				<use xlink:href="#SVGID_25_"  overflow="visible"/>
			</clipPath>
			<path id="path984" clip-path="url(#SVGID_26_)" fill="#002B5C" d="M154.646,163.825v2.682c0,0.924,0.187,1.466,1.061,1.466
				c0.687,0,1.08-0.513,1.08-1.488v-2.659h1.787v3.1c0,1.532-1.395,2.118-2.966,2.118c-1.757,0-3.034-0.55-3.034-2.081v-3.137
				H154.646L154.646,163.825z"/>
		</g>
	</g>
	<g>
		<g>
			<defs>
				<rect id="SVGID_27_" x="-221.236" y="-247.234" width="756.98" height="860.207"/>
			</defs>
			<clipPath id="SVGID_28_">
				<use xlink:href="#SVGID_27_"  overflow="visible"/>
			</clipPath>
			<polygon id="polygon986" clip-path="url(#SVGID_28_)" fill="#002B5C" points="165.368,167.995 165.368,168.955 160.773,168.955 
				160.773,163.825 164.946,163.825 164.946,164.785 162.845,164.785 162.845,165.796 164.897,165.796 164.897,166.756 
				162.845,166.756 162.845,167.995 			"/>
		</g>
	</g>
	<g>
		<g>
			<defs>
				<rect id="SVGID_29_" x="-221.236" y="-247.234" width="756.98" height="860.207"/>
			</defs>
			<clipPath id="SVGID_30_">
				<use xlink:href="#SVGID_29_"  overflow="visible"/>
			</clipPath>
			<path id="path988" clip-path="url(#SVGID_30_)" fill="#002B5C" d="M171.093,164.888c-0.275-0.125-0.628-0.191-1.011-0.191
				c-0.403,0-0.609,0.147-0.609,0.316c0,0.285,0.579,0.521,1.247,0.982c0.884,0.614,1.1,1.004,1.1,1.539
				c0,0.453-0.501,1.509-2.563,1.509c-0.805,0-1.611-0.14-2.16-0.47l0.628-0.85c0.295,0.169,0.687,0.359,1.178,0.359
				c0.413,0,0.865-0.154,0.865-0.535c0-0.41-0.668-0.711-1.208-1.063c-0.717-0.469-1.139-0.74-1.139-1.371
				c0-0.82,1.109-1.378,2.405-1.378c0.874,0,1.562,0.235,1.797,0.346L171.093,164.888L171.093,164.888z"/>
		</g>
	</g>
	<g>
		<g>
			<defs>
				<rect id="SVGID_31_" x="-221.236" y="-247.234" width="756.98" height="860.207"/>
			</defs>
			<clipPath id="SVGID_32_">
				<use xlink:href="#SVGID_31_"  overflow="visible"/>
			</clipPath>
			<path id="path990" clip-path="url(#SVGID_32_)" fill="#C2D8F0" d="M165.079,173.162l-17.44,23.384
				c2.242,1.624,9.817,1.301,14.797-5.409C167.424,184.417,167.271,174.771,165.079,173.162"/>
		</g>
	</g>
	<g id="g992" transform="matrix(15.402388,0,0,15.402388,-922.51063,-748.61767)">
		<g>
			<g>
				<defs>
					<path id="SVGID_33_" d="M69.478,61.363c-0.13-0.097-0.271-0.589,0.054-1.024c0.321-0.43,0.944-0.591,1.078-0.494
						c0.144,0.105,0.152,0.736-0.171,1.17c-0.224,0.3-0.527,0.403-0.741,0.403C69.601,61.418,69.523,61.397,69.478,61.363
						 M69.472,60.297c-0.324,0.435-0.368,1.213-0.198,1.34c0.204,0.152,0.903-0.136,1.227-0.571
						c0.324-0.434,0.383-1.208,0.201-1.343c-0.027-0.02-0.07-0.03-0.124-0.03C70.305,59.693,69.742,59.935,69.472,60.297"/>
				</defs>
				<clipPath id="SVGID_34_">
					<use xlink:href="#SVGID_33_"  overflow="visible"/>
				</clipPath>
				
					<linearGradient id="polygon1015_1_" gradientUnits="userSpaceOnUse" x1="56.075" y1="39.9206" x2="57.075" y2="39.9206" gradientTransform="matrix(-14.8156 -13.7543 13.34 -14.1101 307.7143 1339.1146)">
					<stop  offset="0" style="stop-color:#002B5C"/>
					<stop  offset="0.1701" style="stop-color:#014A7C"/>
					<stop  offset="0.3443" style="stop-color:#2D699C"/>
					<stop  offset="0.5173" style="stop-color:#4884B7"/>
					<stop  offset="0.6862" style="stop-color:#5B99CB"/>
					<stop  offset="0.8493" style="stop-color:#67A7D8"/>
					<stop  offset="1" style="stop-color:#6CADDF"/>
				</linearGradient>
				<polygon id="polygon1015" clip-path="url(#SVGID_34_)" fill="url(#polygon1015_1_)" points="68.048,60.809 69.936,58.812 
					71.94,60.673 70.052,62.67 				"/>
			</g>
		</g>
	</g>
	<g>
		<g>
			<defs>
				<rect id="SVGID_35_" x="-221.236" y="-247.234" width="756.98" height="860.207"/>
			</defs>
			<clipPath id="SVGID_36_">
				<use xlink:href="#SVGID_35_"  overflow="visible"/>
			</clipPath>
			<polyline id="polyline1025" clip-path="url(#SVGID_36_)" fill="#002B5C" points="159.25,180.976 160.138,193.653 
				156.256,184.988 159.25,180.976 156.256,184.988 			"/>
		</g>
	</g>
	<g>
		<g>
			<defs>
				<rect id="SVGID_37_" x="-221.236" y="-247.234" width="756.98" height="860.207"/>
			</defs>
			<clipPath id="SVGID_38_">
				<use xlink:href="#SVGID_37_"  overflow="visible"/>
			</clipPath>
			<polygon id="polygon1027" clip-path="url(#SVGID_38_)" fill="#002B5C" points="157.019,195.808 153.697,188.423 156.176,185.094 
							"/>
		</g>
	</g>
	<g>
		<g>
			<defs>
				<rect id="SVGID_39_" x="-221.236" y="-247.234" width="756.98" height="860.207"/>
			</defs>
			<clipPath id="SVGID_40_">
				<use xlink:href="#SVGID_39_"  overflow="visible"/>
			</clipPath>
			<polygon id="polygon1029" clip-path="url(#SVGID_40_)" fill="#002B5C" points="163.356,189.757 159.31,180.9 162.275,176.92 			
				"/>
		</g>
	</g>
	<g>
		<g>
			<defs>
				<rect id="SVGID_41_" x="-221.236" y="-247.234" width="756.98" height="860.207"/>
			</defs>
			<clipPath id="SVGID_42_">
				<use xlink:href="#SVGID_41_"  overflow="visible"/>
			</clipPath>
			<polygon id="polygon1031" clip-path="url(#SVGID_42_)" fill="#6CADDF" points="156.256,184.988 159.25,180.976 146.723,183.65 
				146.732,183.651 			"/>
		</g>
	</g>
	<g>
		<g>
			<defs>
				<rect id="SVGID_43_" x="-221.236" y="-247.234" width="756.98" height="860.207"/>
			</defs>
			<clipPath id="SVGID_44_">
				<use xlink:href="#SVGID_43_"  overflow="visible"/>
			</clipPath>
			<polygon id="polygon1033" clip-path="url(#SVGID_44_)" fill="#6CADDF" points="145.576,187.375 153.697,188.423 156.176,185.094 
							"/>
		</g>
	</g>
	<g>
		<g>
			<defs>
				<rect id="SVGID_45_" x="-221.236" y="-247.234" width="756.98" height="860.207"/>
			</defs>
			<clipPath id="SVGID_46_">
				<use xlink:href="#SVGID_45_"  overflow="visible"/>
			</clipPath>
			<polygon id="polygon1035" clip-path="url(#SVGID_46_)" fill="#6CADDF" points="162.275,176.919 159.31,180.9 149.502,179.472 
				149.508,179.474 			"/>
		</g>
	</g>
</g>
</svg>
