<?xml version="1.0" encoding="UTF-8" standalone="no"?>
<!-- Created with Inkscape (http://www.inkscape.org/) -->

<svg
   xmlns:dc="http://purl.org/dc/elements/1.1/"
   xmlns:cc="http://creativecommons.org/ns#"
   xmlns:rdf="http://www.w3.org/1999/02/22-rdf-syntax-ns#"
   xmlns:svg="http://www.w3.org/2000/svg"
   xmlns="http://www.w3.org/2000/svg"
   xmlns:xlink="http://www.w3.org/1999/xlink"
   xmlns:sodipodi="http://sodipodi.sourceforge.net/DTD/sodipodi-0.dtd"
   xmlns:inkscape="http://www.inkscape.org/namespaces/inkscape"
   width="400"
   height="400"
   viewBox="0 0 400 400.00001"
   id="svg8236"
   version="1.1"
   inkscape:version="0.91 r13725"
   sodipodi:docname="Crawley_Town_FC_logo.svg">
  <defs
     id="defs8238">
    <linearGradient
       inkscape:collect="always"
       id="linearGradient7478">
      <stop
         style="stop-color:#18204b;stop-opacity:1"
         offset="0"
         id="stop7480" />
      <stop
         id="stop8134"
         offset="0.28421351"
         style="stop-color:#18204b;stop-opacity:1" />
      <stop
         style="stop-color:#c9e2f2;stop-opacity:1"
         offset="1"
         id="stop7482" />
    </linearGradient>
    <linearGradient
       inkscape:collect="always"
       xlink:href="#linearGradient7478"
       id="linearGradient10603"
       gradientUnits="userSpaceOnUse"
       x1="14413"
       y1="23945"
       x2="13646.117"
       y2="23545.15" />
    <linearGradient
       inkscape:collect="always"
       xlink:href="#linearGradient7478"
       id="linearGradient10605"
       gradientUnits="userSpaceOnUse"
       x1="14413"
       y1="23945"
       x2="13646.117"
       y2="23545.15" />
    <linearGradient
       inkscape:collect="always"
       xlink:href="#linearGradient7478"
       id="linearGradient10607"
       gradientUnits="userSpaceOnUse"
       x1="14413"
       y1="23945"
       x2="13646.117"
       y2="23545.15" />
    <linearGradient
       inkscape:collect="always"
       xlink:href="#linearGradient7478"
       id="linearGradient10609"
       gradientUnits="userSpaceOnUse"
       x1="14413"
       y1="23945"
       x2="13646.117"
       y2="23545.15" />
    <linearGradient
       inkscape:collect="always"
       xlink:href="#linearGradient7478"
       id="linearGradient10611"
       gradientUnits="userSpaceOnUse"
       x1="14413"
       y1="23945"
       x2="13646.117"
       y2="23545.15" />
    <linearGradient
       inkscape:collect="always"
       xlink:href="#linearGradient7478"
       id="linearGradient10613"
       gradientUnits="userSpaceOnUse"
       x1="14413"
       y1="23945"
       x2="13646.117"
       y2="23545.15" />
    <linearGradient
       inkscape:collect="always"
       xlink:href="#linearGradient7478"
       id="linearGradient10615"
       gradientUnits="userSpaceOnUse"
       x1="14413"
       y1="23945"
       x2="13646.117"
       y2="23545.15" />
    <linearGradient
       inkscape:collect="always"
       xlink:href="#linearGradient7478"
       id="linearGradient10617"
       gradientUnits="userSpaceOnUse"
       x1="14413"
       y1="23945"
       x2="13646.117"
       y2="23545.15" />
    <linearGradient
       inkscape:collect="always"
       xlink:href="#linearGradient7478"
       id="linearGradient10619"
       gradientUnits="userSpaceOnUse"
       x1="14413"
       y1="23945"
       x2="13646.117"
       y2="23545.15" />
    <linearGradient
       inkscape:collect="always"
       xlink:href="#linearGradient7478"
       id="linearGradient10621"
       gradientUnits="userSpaceOnUse"
       x1="14413"
       y1="23945"
       x2="13646.117"
       y2="23545.15" />
    <linearGradient
       inkscape:collect="always"
       xlink:href="#linearGradient7478"
       id="linearGradient10623"
       gradientUnits="userSpaceOnUse"
       x1="14413"
       y1="23945"
       x2="13646.117"
       y2="23545.15" />
    <linearGradient
       inkscape:collect="always"
       xlink:href="#linearGradient7478"
       id="linearGradient10625"
       gradientUnits="userSpaceOnUse"
       x1="14413"
       y1="23945"
       x2="13646.117"
       y2="23545.15" />
    <linearGradient
       inkscape:collect="always"
       xlink:href="#linearGradient7478"
       id="linearGradient10627"
       gradientUnits="userSpaceOnUse"
       x1="14413"
       y1="23945"
       x2="13646.117"
       y2="23545.15" />
    <linearGradient
       inkscape:collect="always"
       xlink:href="#linearGradient7478"
       id="linearGradient10629"
       gradientUnits="userSpaceOnUse"
       x1="14413"
       y1="23945"
       x2="13646.117"
       y2="23545.15" />
    <linearGradient
       inkscape:collect="always"
       xlink:href="#linearGradient7478"
       id="linearGradient10631"
       gradientUnits="userSpaceOnUse"
       x1="14413"
       y1="23945"
       x2="13646.117"
       y2="23545.15" />
    <linearGradient
       inkscape:collect="always"
       xlink:href="#linearGradient7478"
       id="linearGradient10633"
       gradientUnits="userSpaceOnUse"
       x1="14413"
       y1="23945"
       x2="13646.117"
       y2="23545.15" />
  </defs>
  <sodipodi:namedview
     id="base"
     pagecolor="#ffffff"
     bordercolor="#666666"
     borderopacity="1.0"
     inkscape:pageopacity="0.0"
     inkscape:pageshadow="2"
     inkscape:zoom="1.4"
     inkscape:cx="180.12147"
     inkscape:cy="330.00598"
     inkscape:document-units="px"
     inkscape:current-layer="layer1"
     showgrid="false"
     units="px"
     inkscape:window-width="1280"
     inkscape:window-height="985"
     inkscape:window-x="1920"
     inkscape:window-y="0"
     inkscape:window-maximized="1" />
  <metadata
     id="metadata8241">
    <rdf:RDF>
      <cc:Work
         rdf:about="">
        <dc:format>image/svg+xml</dc:format>
        <dc:type
           rdf:resource="http://purl.org/dc/dcmitype/StillImage" />
        <dc:title></dc:title>
      </cc:Work>
    </rdf:RDF>
  </metadata>
  <g
     inkscape:label="Layer 1"
     inkscape:groupmode="layer"
     id="layer1"
     transform="translate(0,-652.36216)">
    <g
       transform="matrix(0.019999,0,0,0.019999,-9.9994995,555.36701)"
       style="fill-rule:evenodd;stroke-width:28.22200012;stroke-linejoin:round"
       id="g9153">
      <g
         class="com.sun.star.drawing.ClosedBezierShape"
         id="g58">
        <g
           id="id3">
          <path
             d="m 10501,4850 0,0 c 1841,0 3405,419 5000,1340 1594,920 2740,2066 3660,3660 921,1595 1340,3159 1340,5001 l 0,0 0,0 c 0,1841 -419,3405 -1340,5000 -920,1594 -2066,2740 -3660,3660 -1595,921 -3159,1340 -5000,1340 -1842,0 -3406,-419 -5001,-1340 C 3906,22591 2760,21445 1840,19851 919,18256 500,16692 500,14851 500,13009 919,11445 1840,9850 2760,8256 3906,7110 5500,6190 7095,5269 8659,4850 10501,4850 Z"
             id="path61"
             inkscape:connector-curvature="0"
             style="fill:#000200;stroke:none" />
        </g>
      </g>
      <g
         class="com.sun.star.drawing.ClosedBezierShape"
         id="g63">
        <g
           id="id4">
          <path
             d="m 10501,5529 0,0 c 1716,0 3175,391 4661,1249 1486,858 2554,1926 3412,3412 858,1486 1249,2945 1249,4661 l 0,0 0,0 c 0,1716 -391,3175 -1249,4661 -858,1486 -1926,2554 -3412,3412 -1486,858 -2945,1249 -4661,1249 -1716,0 -3175,-391 -4661,-1249 C 4354,22066 3286,20998 2428,19512 1570,18026 1179,16567 1179,14851 1179,13135 1570,11676 2428,10190 3286,8704 4354,7636 5840,6778 7326,5920 8785,5529 10501,5529 Z"
             id="path66"
             inkscape:connector-curvature="0"
             style="fill:#ffffff;stroke:none" />
        </g>
      </g>
      <g
         class="com.sun.star.drawing.ClosedBezierShape"
         id="g68">
        <g
           id="id5">
          <path
             d="m 16160,15406 c -251,1012 -718,2116 -1216,3031 -1025,1885 -2428,3446 -4110,4768 l -77,61 0,-7919 5418,0 -15,59 z"
             id="path71"
             inkscape:connector-curvature="0"
             style="fill:#d71023;stroke:none" />
        </g>
      </g>
      <g
         class="com.sun.star.drawing.ClosedBezierShape"
         id="g73">
        <g
           id="id6">
          <path
             d="m 16114,15395 c -220,889 -684,2048 -1211,3018 -965,1774 -2304,3344 -4098,4754 l 0,-7772 5309,0 z"
             id="path76"
             inkscape:connector-curvature="0"
             style="fill:#ffffff;stroke:none" />
        </g>
      </g>
      <g
         class="com.sun.star.drawing.ClosedBezierShape"
         id="g78">
        <g
           id="id7">
          <path
             d="m 10805,9276 c 1887,42 4249,300 5783,1531 147,1553 -59,2900 -296,3995 -15,69 -31,140 -49,211 l -5438,0 0,-5737 z"
             id="path81"
             inkscape:connector-curvature="0"
             style="fill:#d71023;stroke:none" />
        </g>
      </g>
      <g
         class="com.sun.star.drawing.ClosedBezierShape"
         id="g83">
        <g
           id="id8">
          <path
             d="m 10416,15371 0,7821 c -807,-602 -2975,-2287 -4527,-5571 -336,-713 -610,-1477 -822,-2250 l 5349,0 z"
             id="path86"
             inkscape:connector-curvature="0"
             style="fill:#d71023;stroke:none" />
        </g>
      </g>
      <g
         class="com.sun.star.drawing.ClosedBezierShape"
         id="g88">
        <g
           id="id9">
          <path
             d="M 4601,10766 C 6201,9689 8512,9251 10417,9246 l 48,0 0,5790 -5519,0 -9,-36 c -358,-1392 -475,-2768 -357,-4198 l 2,-23 19,-13 z"
             id="path91"
             inkscape:connector-curvature="0"
             style="fill:#d71023;stroke:none" />
        </g>
      </g>
      <g
         class="com.sun.star.drawing.ClosedBezierShape"
         id="g93"
         transform="translate(-3.9327333,0)">
        <g
           id="id10">
          <path
             d="M 4628,10806 C 6217,9736 8521,9298 10417,9294 l 0,5694 -5434,0 c -371,-1443 -470,-2797 -355,-4182 z"
             id="path96"
             inkscape:connector-curvature="0"
             style="fill:#ffffff;stroke:none" />
        </g>
      </g>
      <g
         class="com.sun.star.drawing.ClosedBezierShape"
         id="g98">
        <g
           id="id11">
          <path
             d="m 4386,18311 c -58,353 189,589 160,1504 -8,242 4,389 -12,613 -26,389 312,659 816,740 247,39 488,-11 741,-51 336,-53 631,33 854,91 114,-1353 -588,-1462 -28,-1737 -791,-6 -1414,-84 -1870,-285 -402,-177 -643,-461 -661,-875 z"
             id="path101"
             inkscape:connector-curvature="0"
             style="fill:#295e9b;stroke:none" />
        </g>
      </g>
      <g
         class="com.sun.star.drawing.ClosedBezierShape"
         id="g103">
        <g
           id="id12">
          <path
             d="m 16963,18320 c 60,353 -177,579 -148,1495 8,241 -4,389 11,613 28,390 -314,659 -821,740 -249,40 -492,-11 -746,-51 -340,-53 -637,34 -861,91 -85,-1015 334,-1369 234,-1571 -34,-69 -86,-123 -294,-171 836,10 1513,-79 1972,-280 405,-178 635,-452 653,-866 z"
             id="path106"
             inkscape:connector-curvature="0"
             style="fill:#295e9b;stroke:none" />
        </g>
      </g>
      <g
         class="com.sun.star.drawing.ClosedBezierShape"
         id="g108">
        <g
           id="id13">
          <path
             d="m 5500,19207 c -713,-214 -977,-522 -966,-924 3,-111 164,-239 360,-248 254,-11 550,161 567,380 22,283 -40,545 39,792 z"
             id="path111"
             inkscape:connector-curvature="0"
             style="fill:#9b2025;stroke:none" />
        </g>
      </g>
      <g
         class="com.sun.star.drawing.ClosedBezierShape"
         id="g113">
        <g
           id="id14">
          <path
             d="m 5501,19208 c -220,-66 -397,-141 -537,-225 10,-170 -8,-385 -27,-451 97,69 237,110 344,103 115,-6 183,-68 182,-210 20,279 -40,538 38,783 z"
             id="path116"
             inkscape:connector-curvature="0"
             style="fill:#d71023;stroke:none" />
        </g>
      </g>
      <g
         class="com.sun.star.drawing.ClosedBezierShape"
         id="g118">
        <g
           id="id15">
          <path
             d="m 15861,19203 c 713,-214 978,-522 965,-924 -3,-111 -164,-239 -360,-248 -253,-11 -550,161 -567,380 -22,283 41,545 -38,792 z"
             id="path121"
             inkscape:connector-curvature="0"
             style="fill:#9b2025;stroke:none" />
        </g>
      </g>
      <g
         class="com.sun.star.drawing.ClosedBezierShape"
         id="g123">
        <g
           id="id16">
          <path
             d="m 15861,19203 c 220,-66 397,-141 537,-225 -10,-171 8,-388 27,-455 -97,70 -238,109 -344,103 -114,-7 -182,-66 -182,-206 -21,278 40,538 -38,783 z"
             id="path126"
             inkscape:connector-curvature="0"
             style="fill:#d71023;stroke:none" />
        </g>
      </g>
      <g
         class="Group"
         id="g128">
        <g
           class="com.sun.star.drawing.ClosedBezierShape"
           id="g130">
          <g
             id="id17">
            <path
               d="m 7171,16698 2,0 c 3,3 9,9 18,19 8,9 19,21 32,35 13,13 27,29 43,46 16,16 32,34 50,53 17,18 35,36 53,54 21,21 43,43 66,66 23,23 45,45 67,67 21,22 42,42 61,60 19,19 35,34 48,47 4,4 9,9 14,12 4,4 9,6 13,6 4,0 7,-2 8,-6 2,-4 3,-11 3,-20 l 9,-516 c 0,-15 1,-28 3,-37 2,-9 5,-17 9,-22 5,-5 11,-8 18,-10 5,-2 9,-2 13,-3 4,0 8,0 12,0 10,0 14,-2 14,-7 0,-3 -1,-5 -5,-6 -3,-1 -8,-2 -13,-2 -14,0 -26,1 -37,1 -11,0 -20,1 -27,1 -8,1 -13,1 -16,1 -6,0 -14,0 -24,-1 -10,0 -22,-1 -35,-1 -12,0 -27,-1 -41,-1 -6,0 -12,1 -15,2 -4,1 -6,3 -6,6 0,2 1,4 2,5 2,1 6,2 11,2 4,0 8,0 13,0 5,0 11,1 16,1 6,1 11,2 15,4 6,3 12,6 16,12 4,5 7,12 9,22 1,10 2,23 3,39 l 8,368 -4,0 c -3,-3 -9,-9 -19,-19 -9,-10 -21,-22 -35,-36 -14,-14 -28,-29 -44,-45 -15,-16 -30,-32 -44,-46 -15,-16 -28,-30 -39,-41 -24,-24 -48,-48 -71,-72 -24,-24 -46,-47 -67,-68 -21,-22 -40,-42 -56,-59 -18,-18 -31,-32 -42,-43 -10,-11 -16,-18 -18,-20 -7,-8 -13,-14 -17,-18 -5,-5 -9,-7 -13,-7 -4,0 -7,2 -9,7 -1,5 -2,12 -2,20 l -7,485 c 0,23 -1,42 -3,56 -1,14 -3,25 -7,32 -3,7 -9,11 -16,13 -6,2 -12,3 -18,3 -7,1 -13,1 -18,1 -5,0 -8,1 -10,2 -2,1 -3,2 -3,5 0,3 1,6 5,7 3,1 7,1 12,1 15,0 28,0 41,-1 12,0 23,0 31,-1 9,0 14,-1 17,-1 7,1 20,1 36,2 17,0 40,1 66,1 6,0 10,-1 14,-2 3,-1 5,-3 5,-6 0,-3 -1,-4 -4,-5 -2,-1 -6,-2 -10,-2 -7,0 -14,0 -21,-1 -7,-1 -15,-2 -23,-4 -5,-2 -10,-6 -14,-12 -4,-7 -7,-16 -10,-29 -2,-12 -4,-29 -4,-50 l -9,-344 z"
               id="path133"
               inkscape:connector-curvature="0"
               style="fill:#ffffff;stroke:none" />
          </g>
        </g>
        <g
           class="com.sun.star.drawing.ClosedBezierShape"
           id="g135">
          <g
             id="id18">
            <path
               d="m 8205,17164 c 42,0 81,-6 116,-17 35,-11 66,-27 93,-47 28,-20 51,-44 71,-72 19,-28 34,-59 44,-92 10,-34 15,-69 15,-108 0,-47 -8,-89 -23,-127 -15,-37 -37,-69 -66,-96 -28,-27 -63,-47 -104,-61 -40,-14 -86,-21 -137,-21 -42,0 -79,4 -111,14 -33,9 -62,21 -86,38 -25,16 -47,34 -65,55 -18,21 -32,44 -44,68 -11,24 -19,48 -24,72 -6,25 -8,49 -8,74 0,24 2,49 8,74 5,25 13,49 25,73 11,24 26,46 43,67 18,21 39,39 63,55 25,16 52,28 84,37 31,9 67,14 106,14 z m 0,0 0,0 z m 35,-41 c -32,0 -61,-5 -87,-15 -26,-10 -50,-25 -70,-43 -20,-19 -38,-41 -52,-66 -14,-25 -24,-53 -32,-84 -7,-30 -11,-62 -11,-98 0,-40 4,-75 12,-104 8,-30 18,-54 32,-74 13,-19 29,-35 46,-46 17,-11 35,-19 54,-24 19,-5 38,-7 57,-7 35,0 66,7 95,20 29,14 54,34 76,59 22,26 39,57 51,94 12,36 18,77 19,124 -1,39 -4,73 -11,102 -6,28 -15,52 -26,72 -11,19 -23,35 -37,47 -13,12 -27,21 -41,27 -15,6 -28,11 -41,13 -13,2 -24,3 -34,3 z"
               id="path138"
               inkscape:connector-curvature="0"
               style="fill:#ffffff;stroke:none" />
          </g>
        </g>
        <g
           class="com.sun.star.drawing.ClosedBezierShape"
           id="g140">
          <g
             id="id19">
            <path
               d="m 8872,16771 c 0,-24 0,-45 0,-63 0,-17 0,-32 0,-44 0,-11 0,-21 1,-29 0,-8 0,-15 0,-21 0,-5 1,-11 1,-16 0,-14 3,-25 7,-32 5,-8 12,-12 23,-14 6,-1 12,-2 17,-2 6,-1 11,-1 16,-1 5,0 8,0 11,-1 2,-1 4,-3 4,-6 0,-3 -2,-5 -5,-6 -3,-1 -7,-1 -13,-1 -8,0 -17,0 -29,0 -10,0 -21,0 -32,1 -10,0 -20,0 -30,1 -8,0 -16,0 -21,0 -5,0 -12,0 -21,0 -9,-1 -18,-1 -28,-1 -11,-1 -21,-1 -32,-1 -11,0 -21,0 -31,0 -6,0 -10,0 -13,1 -3,1 -4,3 -4,6 0,3 1,5 3,6 2,1 6,1 10,1 6,0 11,0 15,1 5,0 9,1 12,2 9,1 16,4 21,8 5,4 8,9 11,15 2,6 3,14 3,23 1,5 1,11 1,16 0,6 1,13 1,21 0,8 0,18 0,29 0,12 0,27 0,44 0,18 0,39 0,63 l 0,145 c 0,25 0,49 0,71 0,22 -1,42 -1,59 -1,18 -2,33 -3,44 -1,8 -2,15 -4,22 -2,6 -4,11 -7,15 -3,4 -7,7 -13,8 -3,1 -8,2 -12,2 -5,1 -11,1 -17,1 -5,0 -8,1 -10,2 -2,1 -3,3 -3,5 0,3 1,5 4,6 3,1 7,2 12,2 8,0 18,0 27,-1 10,0 20,-1 30,-1 9,0 19,0 27,0 8,0 14,0 19,0 11,0 22,0 33,0 10,0 21,0 32,1 11,0 23,1 36,1 18,0 38,1 60,2 23,0 49,1 78,1 10,0 19,-1 25,-1 6,-1 11,-2 15,-4 3,-1 6,-4 7,-6 2,-3 3,-7 4,-12 2,-4 3,-10 4,-18 1,-7 2,-14 3,-22 1,-8 2,-16 3,-23 1,-8 1,-14 2,-20 0,-5 1,-9 1,-10 0,-5 -1,-9 -2,-11 0,-2 -2,-3 -5,-3 -3,0 -5,1 -7,3 -1,2 -2,5 -2,9 -1,5 -2,11 -4,17 -2,6 -5,12 -8,18 -3,6 -6,10 -9,14 -7,7 -15,12 -24,16 -10,3 -20,5 -32,6 -12,0 -25,1 -40,1 -21,0 -38,-1 -51,-2 -13,-2 -23,-3 -31,-6 -7,-3 -13,-6 -18,-10 -5,-5 -9,-15 -12,-29 -2,-14 -4,-34 -4,-58 -1,-24 -1,-54 -1,-89 l 0,-145 z"
               id="path143"
               inkscape:connector-curvature="0"
               style="fill:#ffffff;stroke:none" />
          </g>
        </g>
        <g
           class="com.sun.star.drawing.ClosedBezierShape"
           id="g145">
          <g
             id="id20">
            <path
               d="m 9323,16916 c 0,27 0,51 0,74 0,23 0,43 -1,60 0,18 -1,33 -3,44 -1,12 -4,21 -7,28 -4,7 -9,11 -17,13 -4,1 -8,2 -13,2 -5,1 -11,1 -17,1 -5,0 -8,1 -10,2 -2,1 -3,3 -3,5 0,3 1,5 4,6 3,1 7,2 12,2 9,0 18,0 28,0 10,-1 19,-1 30,-1 10,0 19,-1 27,-1 8,0 15,0 19,0 8,0 18,0 31,0 13,1 28,1 45,1 17,1 35,1 53,1 4,0 8,-1 11,-2 3,-1 4,-3 4,-6 0,-2 -1,-4 -3,-5 -2,-1 -5,-2 -10,-2 -4,0 -8,0 -13,0 -5,0 -10,-1 -15,-1 -5,-1 -9,-1 -13,-2 -8,-1 -16,-3 -20,-7 -5,-3 -8,-8 -10,-14 -2,-5 -3,-12 -4,-19 -1,-12 -2,-26 -2,-44 -1,-18 -1,-38 -1,-61 0,-23 0,-47 0,-74 l 0,-145 c 0,-24 0,-45 0,-63 0,-17 0,-32 0,-44 0,-12 0,-21 0,-29 0,-8 0,-15 0,-21 1,-5 1,-11 1,-16 1,-14 3,-25 8,-32 4,-8 12,-12 24,-14 4,-1 9,-2 12,-2 4,-1 8,-1 12,-1 4,0 7,0 10,-1 2,-2 3,-4 3,-7 0,-2 -2,-4 -5,-5 -3,-1 -7,-1 -12,-1 -8,0 -17,0 -26,0 -10,0 -19,0 -29,1 -9,0 -18,0 -26,1 -8,0 -15,0 -20,0 -6,0 -13,0 -22,0 -9,-1 -18,-1 -28,-1 -11,-1 -21,-1 -30,-1 -10,0 -19,0 -27,0 -6,0 -11,0 -15,1 -3,1 -4,3 -4,5 0,3 1,5 3,7 2,1 5,1 10,1 4,0 9,0 15,1 5,0 9,1 14,2 9,2 16,7 20,14 5,8 8,18 9,32 0,5 0,11 1,16 0,6 0,13 0,21 0,8 0,17 0,29 0,12 0,27 0,44 0,18 0,39 0,63 l 0,145 z"
               id="path148"
               inkscape:connector-curvature="0"
               style="fill:#ffffff;stroke:none" />
          </g>
        </g>
        <g
           class="com.sun.star.drawing.ClosedBezierShape"
           id="g150">
          <g
             id="id21">
            <path
               d="m 6776,18146 c 13,0 27,0 40,-1 15,-1 29,-2 42,-4 13,-1 25,-3 37,-5 11,-3 21,-6 29,-9 5,-2 8,-4 11,-5 2,-2 5,-5 6,-8 2,-2 3,-6 4,-11 2,-5 4,-12 5,-21 2,-8 4,-17 5,-26 2,-9 3,-18 4,-27 2,-8 2,-16 3,-22 1,-6 1,-10 1,-12 0,-4 0,-6 -1,-9 -1,-2 -3,-3 -6,-3 -3,-1 -6,1 -7,3 -1,2 -3,7 -4,13 -1,5 -3,11 -5,17 -3,6 -6,13 -10,19 -4,7 -8,12 -13,18 -10,12 -23,22 -37,28 -14,7 -30,12 -48,14 -20,2 -41,4 -65,4 -18,0 -37,-3 -57,-8 -20,-6 -39,-14 -58,-25 -20,-10 -38,-24 -55,-40 -17,-16 -32,-35 -45,-57 -13,-21 -24,-45 -32,-72 -7,-27 -11,-57 -11,-90 0,-27 2,-53 6,-78 4,-26 12,-50 24,-72 11,-23 26,-43 46,-62 12,-11 25,-20 40,-27 15,-8 31,-14 50,-18 19,-4 40,-5 63,-5 26,0 49,2 71,6 23,5 42,11 58,18 16,8 29,17 38,26 10,11 18,23 24,36 5,13 8,26 8,39 0,6 1,11 2,14 1,3 3,4 6,4 4,0 6,-1 8,-4 1,-4 2,-8 2,-14 0,-5 1,-10 1,-17 0,-7 0,-15 0,-24 0,-8 1,-17 1,-25 0,-8 0,-16 1,-23 0,-9 1,-17 1,-23 1,-5 2,-10 2,-13 0,-4 1,-7 1,-9 0,-2 -1,-4 -3,-6 -2,-2 -5,-3 -10,-3 -12,-2 -25,-4 -38,-7 -13,-3 -28,-5 -43,-7 -13,-2 -25,-3 -36,-5 -13,-1 -26,-2 -39,-3 -13,0 -28,0 -45,0 -40,0 -76,3 -108,10 -31,7 -59,17 -84,30 -26,13 -47,28 -67,46 -19,18 -35,37 -48,58 -12,20 -22,40 -29,60 -7,20 -12,39 -15,58 -2,18 -3,34 -3,48 0,21 1,41 4,62 3,21 9,42 16,63 8,21 18,41 31,61 13,20 30,38 50,56 25,21 53,39 82,52 29,13 60,22 93,28 33,6 69,9 106,9 z"
               id="path153"
               inkscape:connector-curvature="0"
               style="fill:#ffffff;stroke:none" />
          </g>
        </g>
        <g
           class="com.sun.star.drawing.ClosedBezierShape"
           id="g155">
          <g
             id="id22">
            <path
               d="m 7193,17898 c 0,25 0,48 0,71 0,23 -1,42 -1,60 -1,18 -2,32 -3,44 -1,8 -2,15 -4,21 -2,6 -4,12 -7,16 -3,4 -7,7 -13,8 -3,0 -8,1 -13,2 -4,0 -10,1 -16,1 -5,0 -8,0 -10,2 -2,1 -3,2 -3,4 0,3 1,5 4,7 3,1 7,2 12,2 8,-1 18,-1 27,-1 10,-1 20,-1 29,-1 10,0 19,-1 28,-1 8,0 14,0 19,0 12,0 25,0 39,1 13,0 29,1 47,2 17,0 38,1 61,1 23,1 50,1 80,1 11,0 19,0 24,-1 6,0 10,-2 13,-5 3,-3 6,-8 7,-15 1,-4 3,-11 4,-19 1,-8 2,-16 3,-26 1,-9 2,-18 3,-26 1,-8 1,-15 1,-20 0,-4 0,-7 -1,-10 0,-3 -2,-4 -6,-5 -2,0 -4,1 -6,3 -1,2 -2,5 -3,10 -2,16 -6,29 -12,39 -6,9 -14,16 -24,21 -7,3 -16,6 -25,7 -9,1 -18,2 -27,3 -10,0 -18,0 -25,0 -21,0 -37,-1 -50,-3 -13,-2 -23,-5 -31,-10 -6,-5 -11,-12 -14,-21 -2,-9 -4,-21 -4,-35 0,-5 0,-11 0,-19 0,-8 0,-18 0,-29 0,-9 0,-19 0,-30 0,-10 0,-19 0,-28 0,-9 0,-16 0,-21 l 0,-65 c 0,-2 0,-4 1,-6 1,-1 2,-2 4,-2 4,0 10,0 19,0 8,0 17,0 27,0 10,1 19,1 29,1 10,0 18,0 26,0 7,1 13,1 16,1 10,2 18,4 24,7 6,2 11,6 15,10 3,5 5,10 7,15 1,6 1,11 2,16 0,5 1,10 1,14 0,2 0,4 1,5 1,1 3,2 6,2 3,0 4,-1 5,-3 1,-1 2,-3 2,-6 1,-2 1,-4 1,-6 0,-2 0,-5 0,-9 0,-4 0,-9 1,-15 0,-5 1,-11 1,-17 0,-5 1,-10 1,-14 1,-14 2,-25 3,-33 1,-8 2,-14 2,-18 1,-4 1,-7 1,-9 0,-2 0,-4 -1,-5 -1,-1 -3,-1 -4,-1 -2,0 -4,1 -6,2 -2,2 -5,5 -7,8 -4,4 -9,7 -15,9 -7,2 -15,3 -25,4 -4,0 -10,0 -19,0 -8,0 -18,1 -30,1 -11,0 -22,0 -33,0 -11,0 -21,0 -30,0 -9,0 -16,0 -19,0 -3,0 -4,-1 -5,-2 -1,-2 -1,-4 -1,-7 l 0,-207 c 0,-3 0,-5 1,-7 1,-1 3,-2 5,-2 3,0 9,0 18,0 8,1 17,1 26,1 11,0 21,0 31,1 10,0 18,0 26,1 7,0 13,0 16,1 13,1 23,3 31,6 7,3 12,6 16,10 3,4 6,8 7,13 2,3 3,7 4,11 0,3 1,7 1,10 0,4 0,6 0,8 0,4 1,7 2,9 1,2 3,3 6,3 2,0 4,-1 6,-3 1,-2 2,-4 2,-6 0,-3 1,-7 1,-12 0,-5 1,-10 1,-16 1,-5 1,-11 1,-16 0,-4 1,-8 1,-10 1,-12 2,-22 3,-29 1,-7 2,-13 2,-16 1,-4 1,-6 1,-8 0,-2 0,-4 -1,-5 0,-2 -1,-2 -3,-2 -3,0 -5,0 -7,1 -2,1 -5,1 -7,2 -3,1 -8,1 -14,2 -6,1 -13,2 -21,3 -2,0 -9,0 -18,0 -10,0 -22,0 -36,0 -14,0 -28,0 -44,0 -15,0 -30,0 -46,0 -14,0 -27,0 -38,0 -11,0 -18,0 -23,0 -6,0 -13,0 -22,0 -9,0 -19,-1 -29,-1 -11,0 -21,0 -33,-1 -11,0 -22,0 -34,0 -6,0 -10,0 -13,2 -3,1 -4,3 -4,5 0,3 1,5 3,6 2,1 6,2 10,2 6,0 12,0 18,0 6,1 11,1 14,2 9,2 16,5 21,9 5,3 8,8 11,15 2,6 3,14 3,23 1,5 1,10 1,16 0,6 1,12 1,20 0,8 0,18 0,30 0,12 0,27 0,45 0,17 0,38 0,63 l 0,144 z"
               id="path158"
               inkscape:connector-curvature="0"
               style="fill:#ffffff;stroke:none" />
          </g>
        </g>
        <g
           class="com.sun.star.drawing.ClosedBezierShape"
           id="g160">
          <g
             id="id23">
            <path
               d="m 7766,17897 c 0,25 0,49 0,71 0,23 -1,43 -1,60 -1,18 -2,33 -3,44 -1,8 -2,15 -4,22 -2,6 -4,11 -7,15 -3,4 -7,7 -13,8 -3,1 -8,2 -13,2 -4,1 -10,1 -16,1 -5,0 -8,1 -10,2 -2,1 -3,3 -3,5 0,3 1,5 4,6 3,1 7,2 12,2 8,0 18,0 27,-1 10,0 20,-1 29,-1 10,0 19,0 28,0 8,0 14,0 19,0 10,0 22,0 36,1 14,1 28,2 44,4 16,1 32,2 48,3 16,1 31,1 46,1 39,0 72,-3 102,-9 30,-6 56,-15 78,-24 23,-10 42,-21 57,-32 16,-11 28,-21 38,-31 11,-12 22,-25 33,-41 10,-15 20,-34 28,-53 9,-19 15,-40 20,-62 5,-23 8,-47 8,-73 -1,-32 -4,-61 -12,-87 -7,-26 -17,-49 -29,-70 -12,-20 -25,-37 -39,-51 -17,-19 -37,-34 -58,-46 -21,-12 -43,-21 -66,-27 -23,-7 -46,-12 -69,-14 -24,-3 -47,-5 -70,-6 -23,0 -45,0 -65,0 -17,0 -33,0 -49,0 -16,1 -31,1 -44,1 -13,1 -24,1 -33,1 -8,0 -18,0 -31,-1 -13,0 -27,0 -42,-1 -15,0 -30,0 -45,0 -6,0 -10,0 -13,1 -3,1 -4,3 -4,6 0,3 1,5 3,6 2,1 6,1 10,1 6,0 12,0 18,1 6,0 11,1 14,2 9,1 16,4 21,8 5,4 8,9 11,15 2,6 3,14 3,23 1,5 1,11 1,16 0,6 1,13 1,21 0,8 0,18 0,29 0,12 0,28 0,45 0,18 0,39 0,63 l 0,144 z m 0,0 0,0 z m 102,-157 c 0,-16 0,-32 0,-49 0,-16 0,-32 0,-47 0,-15 0,-28 1,-40 0,-12 0,-21 0,-28 0,-5 1,-8 2,-10 2,-3 4,-5 8,-6 2,-1 4,-2 8,-3 5,0 9,-1 15,-1 5,-1 10,-1 16,-2 5,0 10,0 14,0 16,0 33,1 52,3 19,1 40,5 61,11 20,5 40,14 61,24 20,11 40,26 59,44 9,8 18,18 27,31 9,14 17,28 25,45 8,17 14,37 19,58 5,21 7,45 7,71 0,28 -2,55 -6,80 -4,25 -11,48 -21,70 -10,21 -24,39 -41,54 -17,14 -34,26 -52,34 -19,9 -39,15 -61,19 -23,4 -49,6 -76,6 -22,0 -40,-2 -54,-5 -15,-3 -27,-7 -35,-12 -9,-5 -15,-10 -18,-16 -2,-3 -4,-8 -5,-15 -2,-7 -3,-15 -3,-24 -1,-8 -1,-16 -1,-23 -1,-5 -1,-15 -1,-31 0,-15 0,-34 -1,-57 0,-23 0,-49 0,-78 l 0,-103 z"
               id="path163"
               inkscape:connector-curvature="0"
               style="fill:#ffffff;stroke:none" />
          </g>
        </g>
        <g
           class="com.sun.star.drawing.ClosedBezierShape"
           id="g165">
          <g
             id="id24">
            <path
               d="m 8588,17898 c 0,25 0,48 0,71 0,23 -1,42 -1,60 -1,18 -2,32 -3,44 -1,8 -2,15 -4,21 -2,6 -4,12 -7,16 -3,4 -7,7 -13,8 -3,0 -8,1 -13,2 -4,0 -10,1 -16,1 -5,0 -8,0 -10,2 -2,1 -3,2 -3,4 0,3 1,5 4,7 3,1 7,2 12,2 8,-1 18,-1 27,-1 10,-1 20,-1 29,-1 10,0 19,-1 28,-1 8,0 14,0 19,0 12,0 25,0 39,1 13,0 29,1 47,2 17,0 38,1 61,1 23,1 50,1 80,1 11,0 19,0 24,-1 6,0 10,-2 13,-5 3,-3 6,-8 7,-15 1,-4 3,-11 4,-19 1,-8 2,-16 3,-26 1,-9 2,-18 3,-26 1,-8 1,-15 1,-20 0,-4 0,-7 -1,-10 0,-3 -2,-4 -6,-5 -2,0 -4,1 -6,3 -1,2 -2,5 -3,10 -2,16 -6,29 -12,39 -6,9 -14,16 -24,21 -7,3 -16,6 -25,7 -9,1 -18,2 -27,3 -10,0 -18,0 -25,0 -21,0 -37,-1 -50,-3 -13,-2 -23,-5 -31,-10 -6,-5 -11,-12 -14,-21 -2,-9 -4,-21 -4,-35 0,-5 0,-11 0,-19 0,-8 0,-18 0,-29 0,-9 0,-19 0,-30 0,-10 0,-19 0,-28 0,-9 0,-16 0,-21 l 0,-65 c 0,-2 0,-4 1,-6 1,-1 2,-2 4,-2 4,0 10,0 19,0 8,0 17,0 27,0 10,1 19,1 29,1 10,0 18,0 26,0 7,1 13,1 16,1 10,2 18,4 24,7 6,2 11,6 15,10 3,5 5,10 7,15 1,6 1,11 2,16 0,5 1,10 1,14 0,2 0,4 1,5 1,1 3,2 6,2 3,0 4,-1 5,-3 1,-1 2,-3 2,-6 1,-2 1,-4 1,-6 0,-2 0,-5 0,-9 0,-4 0,-9 1,-15 0,-5 1,-11 1,-17 0,-5 1,-10 1,-14 1,-14 2,-25 3,-33 1,-8 2,-14 2,-18 1,-4 1,-7 1,-9 0,-2 0,-4 -1,-5 -1,-1 -3,-1 -4,-1 -2,0 -4,1 -6,2 -2,2 -5,5 -7,8 -4,4 -9,7 -15,9 -7,2 -15,3 -25,4 -4,0 -10,0 -19,0 -8,0 -18,1 -30,1 -11,0 -22,0 -33,0 -11,0 -21,0 -30,0 -9,0 -16,0 -19,0 -3,0 -4,-1 -5,-2 -1,-2 -1,-4 -1,-7 l 0,-207 c 0,-3 0,-5 1,-7 1,-1 3,-2 5,-2 3,0 9,0 18,0 8,1 17,1 26,1 11,0 21,0 31,1 10,0 18,0 26,1 7,0 13,0 16,1 13,1 23,3 31,6 7,3 12,6 16,10 3,4 6,8 7,13 2,3 3,7 4,11 0,3 1,7 1,10 0,4 0,6 0,8 0,4 1,7 2,9 1,2 3,3 6,3 2,0 4,-1 6,-3 1,-2 2,-4 2,-6 0,-3 1,-7 1,-12 0,-5 1,-10 1,-16 1,-5 1,-11 1,-16 0,-4 1,-8 1,-10 1,-12 2,-22 3,-29 1,-7 2,-13 2,-16 1,-4 1,-6 1,-8 0,-2 0,-4 -1,-5 0,-2 -1,-2 -3,-2 -3,0 -5,0 -7,1 -2,1 -5,1 -7,2 -3,1 -8,1 -14,2 -6,1 -13,2 -21,3 -2,0 -9,0 -18,0 -10,0 -22,0 -36,0 -14,0 -28,0 -44,0 -15,0 -30,0 -46,0 -14,0 -27,0 -38,0 -11,0 -18,0 -23,0 -6,0 -13,0 -22,0 -9,0 -19,-1 -29,-1 -11,0 -21,0 -33,-1 -11,0 -22,0 -34,0 -6,0 -10,0 -13,2 -3,1 -4,3 -4,5 0,3 1,5 3,6 2,1 6,2 10,2 6,0 12,0 18,0 6,1 11,1 14,2 9,2 16,5 21,9 5,3 8,8 11,15 2,6 3,14 3,23 1,5 1,10 1,16 0,6 1,12 1,20 0,8 0,18 0,30 0,12 0,27 0,45 0,17 0,38 0,63 l 0,144 z"
               id="path168"
               inkscape:connector-curvature="0"
               style="fill:#ffffff;stroke:none" />
          </g>
        </g>
        <g
           class="com.sun.star.drawing.ClosedBezierShape"
           id="g170">
          <g
             id="id25">
            <path
               d="m 9161,17897 c 0,25 0,49 0,71 0,22 -1,42 -1,59 -1,18 -2,33 -3,44 -1,8 -2,15 -4,22 -2,6 -4,11 -7,15 -3,4 -7,7 -13,8 -3,1 -8,2 -13,2 -4,1 -10,1 -16,1 -5,0 -8,1 -10,2 -2,1 -3,3 -3,5 0,3 1,5 4,6 3,1 7,2 12,2 8,0 18,0 27,0 10,-1 20,-1 29,-1 10,0 19,-1 26,-1 8,0 14,0 18,0 3,0 9,0 17,0 8,0 18,1 30,1 11,0 23,0 36,1 12,0 25,0 37,0 5,0 9,-1 12,-2 3,-1 4,-3 4,-6 0,-2 -1,-4 -2,-5 -2,-1 -4,-2 -8,-2 -3,0 -7,0 -12,0 -4,0 -9,-1 -14,-1 -5,-1 -9,-1 -14,-2 -8,-1 -14,-4 -18,-8 -5,-4 -8,-9 -10,-15 -1,-7 -3,-14 -4,-22 -1,-11 -2,-26 -2,-44 -1,-17 -1,-37 -1,-59 -1,-22 -1,-46 -1,-72 l 0,-11 c 0,-3 1,-4 2,-5 1,-1 3,-2 5,-2 l 71,2 c 3,0 6,0 8,1 2,1 5,2 7,5 2,3 7,8 12,16 6,8 12,17 20,28 7,10 15,22 25,34 8,11 16,23 25,34 15,21 29,40 41,55 13,16 25,29 36,40 11,11 23,19 34,26 7,3 15,6 22,9 8,2 17,4 28,5 10,1 23,1 38,1 l 77,0 c 5,0 9,0 12,-2 3,-1 4,-3 4,-6 0,-2 -1,-4 -2,-5 -2,-1 -5,-2 -8,-2 -3,0 -7,0 -10,0 -4,-1 -8,-1 -13,-2 -3,-1 -7,-2 -13,-3 -5,-2 -12,-4 -20,-8 -8,-4 -17,-9 -26,-16 -10,-7 -21,-17 -32,-29 -24,-25 -51,-56 -80,-92 -29,-36 -61,-77 -97,-122 27,-24 48,-45 64,-65 16,-21 27,-40 34,-60 6,-20 10,-39 9,-59 0,-14 -1,-27 -5,-39 -4,-12 -8,-22 -14,-32 -5,-10 -11,-18 -18,-25 -6,-7 -12,-12 -18,-16 -15,-10 -31,-18 -47,-23 -17,-5 -35,-8 -52,-10 -18,-2 -35,-2 -52,-2 -7,0 -15,0 -25,0 -10,0 -21,0 -32,1 -11,0 -22,0 -32,1 -11,0 -20,0 -27,0 -4,0 -10,0 -18,0 -8,-1 -17,-1 -28,-1 -10,-1 -21,-1 -32,-1 -11,0 -23,0 -34,0 -6,0 -10,0 -13,1 -3,1 -4,3 -4,6 0,3 1,5 3,6 2,1 6,1 10,1 6,0 12,0 18,1 6,0 11,1 14,2 9,1 16,4 21,8 5,4 8,9 11,15 2,6 3,14 3,23 1,5 1,11 1,16 0,6 1,13 1,21 0,8 0,18 0,29 0,12 0,27 0,44 0,18 0,39 0,63 l 0,145 z m 0,0 0,0 z m 96,-328 c 0,-4 1,-6 2,-8 1,-2 3,-3 6,-4 4,-1 10,-2 17,-2 7,-1 16,-1 26,-1 10,0 20,1 31,4 12,3 23,8 34,15 11,7 21,16 31,28 9,11 16,25 22,42 5,17 8,37 8,60 0,23 -2,42 -7,58 -5,16 -11,29 -18,40 -7,11 -16,19 -24,26 -5,3 -10,6 -14,8 -5,2 -11,4 -18,5 -7,0 -15,1 -26,1 -7,0 -14,0 -22,-1 -7,-1 -14,-1 -21,-3 -7,-1 -13,-2 -19,-4 -3,-1 -5,-3 -6,-5 -1,-2 -2,-7 -2,-11 l 0,-248 z"
               id="path173"
               inkscape:connector-curvature="0"
               style="fill:#ffffff;stroke:none" />
          </g>
        </g>
        <g
           class="com.sun.star.drawing.ClosedBezierShape"
           id="g175">
          <g
             id="id26">
            <path
               d="m 9835,17898 c 0,25 0,48 0,71 0,23 -1,42 -1,60 -1,18 -2,32 -3,44 -1,8 -2,15 -4,21 -2,6 -4,12 -7,16 -3,4 -7,7 -13,8 -3,0 -8,1 -13,2 -4,0 -10,1 -16,1 -5,0 -8,0 -10,2 -2,1 -3,2 -3,4 0,3 1,5 4,7 3,1 7,2 12,2 8,-1 18,-1 27,-1 10,-1 20,-1 29,-1 10,0 19,-1 28,-1 8,0 14,0 19,0 12,0 25,0 39,1 13,0 29,1 47,2 17,0 38,1 61,1 23,1 50,1 80,1 11,0 19,0 24,-1 6,0 10,-2 13,-5 3,-3 6,-8 7,-15 1,-4 3,-11 4,-19 1,-8 2,-16 3,-26 1,-9 2,-18 3,-26 1,-8 1,-15 1,-20 0,-4 0,-7 -1,-10 0,-3 -2,-4 -6,-5 -2,0 -4,1 -6,3 -1,2 -2,5 -3,10 -2,16 -6,29 -12,39 -6,9 -14,16 -24,21 -7,3 -16,6 -25,7 -9,1 -18,2 -27,3 -10,0 -18,0 -25,0 -21,0 -37,-1 -50,-3 -13,-2 -23,-5 -31,-10 -6,-5 -11,-12 -14,-21 -2,-9 -4,-21 -4,-35 0,-5 0,-11 0,-19 0,-8 0,-18 0,-29 0,-9 0,-19 0,-30 0,-10 0,-19 0,-28 0,-9 0,-16 0,-21 l 0,-65 c 0,-2 0,-4 1,-6 1,-1 2,-2 4,-2 4,0 10,0 19,0 8,0 17,0 27,0 10,1 19,1 29,1 10,0 18,0 26,0 7,1 13,1 16,1 10,2 18,4 24,7 6,2 11,6 15,10 3,5 5,10 7,15 1,6 1,11 2,16 0,5 1,10 1,14 0,2 0,4 1,5 1,1 3,2 6,2 3,0 4,-1 5,-3 1,-1 2,-3 2,-6 1,-2 1,-4 1,-6 0,-2 0,-5 0,-9 0,-4 0,-9 1,-15 0,-5 1,-11 1,-17 0,-5 1,-10 1,-14 1,-14 2,-25 3,-33 1,-8 2,-14 2,-18 1,-4 1,-7 1,-9 0,-2 0,-4 -1,-5 -1,-1 -3,-1 -4,-1 -2,0 -4,1 -6,2 -2,2 -5,5 -7,8 -4,4 -9,7 -15,9 -7,2 -15,3 -25,4 -4,0 -10,0 -19,0 -8,0 -18,1 -30,1 -11,0 -22,0 -33,0 -11,0 -21,0 -30,0 -9,0 -16,0 -19,0 -3,0 -4,-1 -5,-2 -1,-2 -1,-4 -1,-7 l 0,-207 c 0,-3 0,-5 1,-7 1,-1 3,-2 5,-2 3,0 9,0 18,0 8,1 17,1 26,1 11,0 21,0 31,1 10,0 18,0 26,1 7,0 13,0 16,1 13,1 23,3 31,6 7,3 12,6 16,10 3,4 6,8 7,13 2,3 3,7 4,11 0,3 1,7 1,10 0,4 0,6 0,8 0,4 1,7 2,9 1,2 3,3 6,3 2,0 4,-1 6,-3 1,-2 2,-4 2,-6 0,-3 1,-7 1,-12 0,-5 1,-10 1,-16 1,-5 1,-11 1,-16 0,-4 1,-8 1,-10 1,-12 2,-22 3,-29 1,-7 2,-13 2,-16 1,-4 1,-6 1,-8 0,-2 0,-4 -1,-5 0,-2 -1,-2 -3,-2 -3,0 -5,0 -7,1 -2,1 -5,1 -7,2 -3,1 -8,1 -14,2 -6,1 -13,2 -21,3 -2,0 -9,0 -18,0 -10,0 -22,0 -36,0 -14,0 -28,0 -44,0 -15,0 -30,0 -46,0 -14,0 -27,0 -38,0 -11,0 -18,0 -23,0 -6,0 -13,0 -22,0 -9,0 -19,-1 -29,-1 -11,0 -21,0 -33,-1 -11,0 -22,0 -34,0 -6,0 -10,0 -13,2 -3,1 -4,3 -4,5 0,3 1,5 3,6 2,1 6,2 10,2 6,0 12,0 18,0 6,1 11,1 14,2 9,2 16,5 21,9 5,3 8,8 11,15 2,6 3,14 3,23 1,5 1,10 1,16 0,6 1,12 1,20 0,8 0,18 0,30 0,12 0,27 0,45 0,17 0,38 0,63 l 0,144 z"
               id="path178"
               inkscape:connector-curvature="0"
               style="fill:#ffffff;stroke:none" />
          </g>
        </g>
      </g>
      <g
         class="Group"
         id="g180">
        <g
           class="com.sun.star.drawing.ClosedBezierShape"
           id="g182">
          <g
             id="id27">
            <path
               d="m 5261,20293 c -1,33 -2,63 -4,92 -2,29 -4,55 -5,78 -2,22 -4,41 -7,56 -1,11 -3,19 -5,26 -3,7 -7,13 -13,17 -5,4 -14,7 -25,8 -5,1 -11,2 -19,2 -8,1 -16,1 -24,1 -9,1 -16,1 -23,1 -7,0 -12,0 -15,0 -2,0 -4,0 -6,2 -1,1 -2,4 -2,7 0,4 1,6 4,8 2,1 7,2 12,2 16,1 33,2 51,2 18,1 35,1 52,2 16,0 30,0 43,1 12,0 21,0 27,0 9,1 22,2 39,3 16,1 35,3 58,4 22,2 46,3 72,4 5,1 9,0 12,-1 3,-1 4,-3 4,-7 0,-3 -1,-6 -2,-8 -2,-1 -4,-2 -6,-2 -2,0 -6,-1 -12,-1 -5,-1 -12,-2 -19,-3 -7,-1 -13,-1 -20,-3 -6,-1 -12,-1 -15,-2 -11,-3 -19,-7 -25,-12 -5,-4 -9,-10 -11,-18 -2,-7 -3,-16 -3,-27 -1,-15 0,-34 0,-57 1,-23 1,-49 3,-77 1,-29 2,-60 4,-92 l 9,-187 c 2,-51 6,-96 9,-134 3,-38 5,-68 7,-90 2,-22 3,-34 3,-37 1,-5 0,-10 -2,-14 -1,-5 -4,-7 -9,-7 -4,0 -9,1 -14,3 -4,3 -9,5 -13,8 -7,5 -17,11 -30,19 -14,9 -30,18 -48,29 -18,11 -36,22 -54,33 -19,11 -37,21 -53,30 -16,10 -29,17 -39,23 -10,6 -16,9 -17,10 -3,1 -5,3 -7,5 -2,3 -3,5 -4,9 0,3 1,5 3,7 2,3 3,4 5,4 2,0 4,0 7,-1 2,-1 5,-1 7,-2 5,-2 11,-5 19,-8 8,-3 17,-7 27,-11 10,-4 21,-8 30,-12 10,-3 19,-6 27,-9 7,-2 13,-3 17,-3 5,0 8,2 10,5 2,2 4,6 4,12 0,5 0,12 -1,20 0,17 -1,36 -2,58 -2,22 -3,46 -4,74 l -7,160 z"
               id="path185"
               inkscape:connector-curvature="0"
               style="fill:#ffffff;stroke:none" />
          </g>
        </g>
        <g
           class="com.sun.star.drawing.ClosedBezierShape"
           id="g187">
          <g
             id="id28">
            <path
               d="m 5973,20647 c 44,2 82,-2 115,-12 34,-11 62,-26 86,-45 24,-20 42,-43 55,-69 14,-26 21,-54 22,-84 1,-25 -1,-47 -9,-68 -6,-21 -16,-39 -29,-56 -12,-17 -26,-32 -41,-45 -16,-15 -31,-27 -47,-37 -16,-11 -31,-20 -46,-29 12,-3 24,-9 38,-15 13,-7 27,-15 40,-25 14,-10 26,-22 38,-35 11,-14 21,-29 28,-46 8,-17 12,-36 13,-57 1,-33 -6,-61 -22,-85 -16,-24 -39,-42 -70,-56 -30,-13 -65,-21 -107,-23 -34,-1 -65,1 -92,7 -26,6 -49,15 -68,27 -20,12 -35,25 -48,40 -13,15 -22,31 -29,48 -6,16 -10,32 -10,48 -1,29 4,54 15,77 12,23 28,44 49,63 21,18 45,36 72,51 -25,9 -49,20 -71,34 -23,13 -43,29 -62,46 -18,18 -32,39 -43,61 -12,23 -18,49 -19,76 -1,31 3,59 14,84 11,25 27,47 49,65 22,18 48,32 78,42 30,11 64,17 101,18 z m 0,0 0,0 z m -128,-209 c 1,-26 6,-49 14,-69 8,-20 18,-38 30,-54 13,-15 26,-28 41,-39 14,-11 28,-20 42,-28 23,15 44,29 64,43 20,14 37,29 52,45 15,16 27,34 35,54 8,19 12,42 11,67 -2,23 -6,44 -14,62 -9,18 -19,34 -33,46 -14,13 -29,22 -47,29 -17,6 -36,9 -56,8 -21,-2 -40,-6 -57,-15 -17,-9 -32,-20 -45,-35 -13,-15 -22,-32 -29,-51 -7,-20 -9,-41 -8,-63 z m 0,0 0,0 z m 284,-411 c -1,21 -4,39 -10,54 -5,15 -13,28 -21,39 -8,12 -17,21 -26,28 -9,8 -18,14 -27,18 -8,5 -16,8 -22,11 -29,-19 -55,-37 -74,-53 -19,-17 -33,-34 -42,-52 -9,-17 -13,-36 -12,-57 1,-14 4,-28 9,-42 5,-13 13,-26 23,-37 11,-11 24,-19 40,-26 16,-6 35,-8 57,-7 21,1 39,6 55,17 16,10 29,24 38,42 9,19 13,40 12,65 z"
               id="path190"
               inkscape:connector-curvature="0"
               style="fill:#ffffff;stroke:none" />
          </g>
        </g>
        <g
           class="com.sun.star.drawing.ClosedBezierShape"
           id="g192">
          <g
             id="id29">
            <path
               d="m 15319,19882 c -39,3 -73,12 -104,26 -30,14 -56,32 -77,55 -21,23 -36,49 -46,78 -10,30 -12,61 -11,95 2,17 6,34 12,52 6,18 16,34 27,50 12,16 26,30 44,42 17,13 37,22 60,28 23,6 49,8 78,6 17,-1 34,-4 51,-9 16,-5 31,-11 45,-19 13,-9 24,-19 33,-30 1,-1 2,-3 3,-5 1,-3 2,-5 1,-6 0,-3 -1,-5 -3,-7 -1,-1 -3,-2 -5,-2 -2,0 -5,2 -7,4 -3,2 -7,5 -12,9 -7,4 -15,7 -25,10 -11,4 -25,6 -43,8 -8,0 -17,-1 -28,-3 -11,-3 -23,-8 -36,-15 -13,-7 -26,-18 -38,-31 -12,-14 -22,-31 -31,-52 -8,-22 -14,-47 -17,-78 -2,-29 1,-55 9,-78 8,-23 21,-42 38,-56 17,-15 37,-23 62,-25 19,-2 38,1 58,10 19,9 37,23 53,42 16,20 29,46 41,77 11,32 18,70 22,114 3,47 1,92 -6,135 -8,43 -20,82 -35,118 -16,37 -34,70 -55,100 -21,30 -43,56 -65,78 -22,23 -43,41 -63,56 -2,2 -5,5 -7,8 -2,3 -3,6 -3,10 0,2 1,4 3,6 2,2 4,3 6,3 4,0 8,-1 11,-2 2,-1 5,-2 7,-4 17,-9 36,-22 57,-37 22,-15 43,-32 65,-52 23,-19 44,-41 66,-66 21,-24 41,-50 59,-79 19,-29 35,-60 48,-92 13,-33 23,-68 29,-105 7,-37 8,-75 5,-115 -3,-39 -12,-74 -25,-106 -14,-32 -32,-60 -56,-83 -23,-23 -51,-40 -84,-51 -32,-11 -69,-15 -111,-12 z"
               id="path195"
               inkscape:connector-curvature="0"
               style="fill:#ffffff;stroke:none" />
          </g>
        </g>
        <g
           class="com.sun.star.drawing.ClosedBezierShape"
           id="g197">
          <g
             id="id30">
            <path
               d="m 16082,20601 c 37,-3 71,-12 101,-26 31,-15 57,-35 79,-59 22,-25 38,-54 49,-86 11,-33 15,-69 12,-108 -2,-18 -6,-36 -13,-55 -6,-18 -16,-36 -28,-52 -12,-18 -26,-33 -44,-46 -17,-12 -37,-22 -60,-28 -23,-7 -48,-9 -77,-7 -27,3 -53,8 -74,17 -22,8 -40,18 -54,30 -3,3 -5,5 -7,7 -2,3 -3,6 -3,9 1,4 2,6 3,9 2,1 4,2 6,2 3,-1 6,-2 10,-4 4,-2 8,-4 12,-5 6,-3 13,-5 21,-7 8,-2 18,-4 30,-5 18,-1 35,2 52,8 18,7 34,18 49,34 15,15 28,35 38,59 10,25 17,55 20,89 2,30 1,55 -4,77 -5,21 -12,40 -23,54 -10,15 -23,26 -37,34 -15,8 -31,13 -48,14 -21,2 -40,-1 -57,-9 -17,-8 -33,-19 -46,-34 -14,-15 -25,-33 -35,-53 -10,-20 -18,-41 -24,-64 -6,-23 -10,-46 -12,-70 -4,-48 -2,-93 5,-137 6,-42 17,-81 31,-118 14,-36 31,-69 51,-99 20,-30 41,-57 64,-79 23,-23 45,-42 68,-57 3,-3 7,-5 10,-8 4,-2 7,-5 9,-8 3,-2 4,-5 4,-8 -1,-3 -2,-6 -4,-7 -3,-1 -6,-1 -9,-1 -3,0 -6,1 -9,2 -4,1 -8,3 -13,5 -42,22 -82,47 -117,76 -36,30 -68,62 -96,97 -28,36 -51,73 -70,112 -19,39 -33,79 -41,120 -9,40 -10,80 -8,119 4,46 13,86 29,120 16,35 37,63 63,86 25,23 55,40 88,50 33,10 69,13 109,10 z"
               id="path200"
               inkscape:connector-curvature="0"
               style="fill:#ffffff;stroke:none" />
          </g>
        </g>
      </g>
      <g
         class="Group"
         id="g202">
        <g
           class="com.sun.star.drawing.ClosedBezierShape"
           id="g204">
          <g
             id="id31">
            <path
               d="m 7708,9909 c 19,245 103,395 252,452 l -504,0 c 172,-89 235,-247 252,-452 z"
               id="path207"
               inkscape:connector-curvature="0"
               style="fill:#1d2f53;stroke:none" />
          </g>
        </g>
        <g
           class="com.sun.star.drawing.ClosedBezierShape"
           id="g209">
          <g
             id="id32">
            <path
               d="m 6303,10216 c 161,185 317,258 471,214 l -407,299 c 87,-173 44,-338 -64,-513 z"
               id="path212"
               inkscape:connector-curvature="0"
               style="fill:#1d2f53;stroke:none" />
          </g>
        </g>
        <g
           class="com.sun.star.drawing.PolyPolygonShape"
           id="g214">
          <g
             id="id33">
            <path
               d="m 6534,10552 759,1577 155,-310 -914,-1267 z"
               id="path217"
               inkscape:connector-curvature="0"
               style="fill:#1d2f53;stroke:none" />
          </g>
        </g>
        <g
           class="com.sun.star.drawing.ClosedBezierShape"
           id="g219">
          <g
             id="id34">
            <path
               d="m 9044,10169 c -149,195 -301,276 -457,242 l 424,274 c -97,-167 -64,-334 33,-516 z"
               id="path222"
               inkscape:connector-curvature="0"
               style="fill:#1d2f53;stroke:none" />
          </g>
        </g>
        <g
           class="com.sun.star.drawing.PolyPolygonShape"
           id="g224">
          <g
             id="id35">
            <path
               d="m 8832,10521 -654,1632 -172,-300 826,-1332 z"
               id="path227"
               inkscape:connector-curvature="0"
               style="fill:#1d2f53;stroke:none" />
          </g>
        </g>
        <g
           class="com.sun.star.drawing.PolyPolygonShape"
           id="g229">
          <g
             id="id36">
            <path
               d="m 7705,10315 121,956 -65,-227 -40,-80 -37,78 -58,205 79,-932 z"
               id="path232"
               inkscape:connector-curvature="0"
               style="fill:#1d2f53;stroke:none" />
          </g>
        </g>
        <g
           class="Group"
           id="g234"
           transform="translate(-7770.2768,-10983.109)">
          <g
             class="com.sun.star.drawing.PolyPolygonShape"
             id="g236"
             transform="translate(1057.592,0)"
             style="fill:url(#linearGradient10609);fill-opacity:1">
            <g
               id="id37"
               style="fill:url(#linearGradient10607);fill-opacity:1">
              <g
                 id="g239"
                 style="fill:url(#linearGradient10605);fill-opacity:1">
                <defs
                   id="defs241">
                  <linearGradient
                     id="gradient1"
                     x1="13157"
                     y1="22588"
                     x2="14700"
                     y2="23408"
                     gradientUnits="userSpaceOnUse">
                    <stop
                       offset="0"
                       style="stop-color:rgb(199, 219, 230);fill-opacity:1;fill:url(#linearGradient7990)"
                       id="stop244" />
                    <stop
                       offset="1"
                       style="stop-color:rgb(203, 223, 232);fill-opacity:1;fill:url(#linearGradient7990)"
                       id="stop246" />
                  </linearGradient>
                </defs>
                <path
                   style="fill:url(#linearGradient10603);fill-opacity:1"
                   d="m 13444,23945 969,-1893 0,1893 -969,0 z"
                   id="path248"
                   inkscape:connector-curvature="0" />
              </g>
            </g>
          </g>
          <g
             style="fill:url(#linearGradient10617);fill-opacity:1"
             transform="matrix(-1,0,0,1,29926.956,0)"
             id="use7472"
             class="com.sun.star.drawing.PolyPolygonShape">
            <g
               style="fill:url(#linearGradient10615);fill-opacity:1"
               id="g9083">
              <g
                 style="fill:url(#linearGradient10613);fill-opacity:1"
                 id="g9085">
                <defs
                   id="defs9087">
                  <linearGradient
                     gradientUnits="userSpaceOnUse"
                     y2="23408"
                     x2="14700"
                     y1="22588"
                     x1="13157"
                     id="linearGradient9089">
                    <stop
                       id="stop9091"
                       style="stop-color:rgb(199, 219, 230);fill-opacity:1;fill:url(#linearGradient7990)"
                       offset="0" />
                    <stop
                       id="stop9093"
                       style="stop-color:rgb(203, 223, 232);fill-opacity:1;fill:url(#linearGradient7990)"
                       offset="1" />
                  </linearGradient>
                </defs>
                <path
                   inkscape:connector-curvature="0"
                   id="path9095"
                   d="m 13444,23945 969,-1893 0,1893 -969,0 z"
                   style="fill:url(#linearGradient10611);fill-opacity:1" />
              </g>
            </g>
          </g>
          <g
             style="fill:url(#linearGradient10625);fill-opacity:1"
             transform="matrix(-1,0,0,-1,29926.956,47923.825)"
             id="use7474"
             class="com.sun.star.drawing.PolyPolygonShape">
            <g
               style="fill:url(#linearGradient10623);fill-opacity:1"
               id="g9107">
              <g
                 style="fill:url(#linearGradient10621);fill-opacity:1"
                 id="g9109">
                <defs
                   id="defs9111">
                  <linearGradient
                     gradientUnits="userSpaceOnUse"
                     y2="23408"
                     x2="14700"
                     y1="22588"
                     x1="13157"
                     id="linearGradient9113">
                    <stop
                       id="stop9115"
                       style="stop-color:rgb(199, 219, 230);fill-opacity:1;fill:url(#linearGradient7990)"
                       offset="0" />
                    <stop
                       id="stop9117"
                       style="stop-color:rgb(203, 223, 232);fill-opacity:1;fill:url(#linearGradient7990)"
                       offset="1" />
                  </linearGradient>
                </defs>
                <path
                   inkscape:connector-curvature="0"
                   id="path9119"
                   d="m 13444,23945 969,-1893 0,1893 -969,0 z"
                   style="fill:url(#linearGradient10619);fill-opacity:1" />
              </g>
            </g>
          </g>
          <g
             style="fill:url(#linearGradient10633);fill-opacity:1"
             transform="matrix(1,0,0,-1,1057.7233,47924.731)"
             id="use7476"
             class="com.sun.star.drawing.PolyPolygonShape">
            <g
               style="fill:url(#linearGradient10631);fill-opacity:1"
               id="g9131">
              <g
                 style="fill:url(#linearGradient10629);fill-opacity:1"
                 id="g9133">
                <defs
                   id="defs9135">
                  <linearGradient
                     gradientUnits="userSpaceOnUse"
                     y2="23408"
                     x2="14700"
                     y1="22588"
                     x1="13157"
                     id="linearGradient9137">
                    <stop
                       id="stop9139"
                       style="stop-color:rgb(199, 219, 230);fill-opacity:1;fill:url(#linearGradient7990)"
                       offset="0" />
                    <stop
                       id="stop9141"
                       style="stop-color:rgb(203, 223, 232);fill-opacity:1;fill:url(#linearGradient7990)"
                       offset="1" />
                  </linearGradient>
                </defs>
                <path
                   inkscape:connector-curvature="0"
                   id="path9143"
                   d="m 13444,23945 969,-1893 0,1893 -969,0 z"
                   style="fill:url(#linearGradient10627);fill-opacity:1" />
              </g>
            </g>
          </g>
        </g>
      </g>
      <g
         class="com.sun.star.drawing.ClosedBezierShape"
         id="g292">
        <g
           id="id41">
          <path
             d="m 13666,10151 c 1235,0 2236,1000 2236,2235 0,1235 -1001,2236 -2236,2236 -1235,0 -2235,-1001 -2235,-2236 0,-1235 1000,-2235 2235,-2235 z m 0,0 0,0 z m 0,115 c 1171,0 2120,949 2120,2120 0,1171 -949,2120 -2120,2120 -1171,0 -2120,-949 -2120,-2120 0,-1171 949,-2120 2120,-2120 z"
             id="path295"
             inkscape:connector-curvature="0"
             style="fill:#ffffff;stroke:none" />
        </g>
      </g>
      <g
         class="com.sun.star.drawing.ClosedBezierShape"
         id="g297">
        <g
           id="id42">
          <path
             d="m 13670,10947 0,0 1,0 c 265,0 491,60 721,193 229,133 394,298 527,527 133,230 193,456 193,721 l 0,0 0,0 c 0,265 -60,491 -193,720 -133,230 -298,395 -527,528 -230,133 -456,193 -721,193 -265,0 -491,-60 -720,-193 -230,-133 -395,-298 -528,-528 -133,-229 -193,-455 -193,-720 0,-265 60,-491 193,-721 133,-229 298,-394 528,-527 229,-132 454,-193 719,-193 z"
             id="path300"
             inkscape:connector-curvature="0"
             style="fill:#ffffff;stroke:none" />
        </g>
      </g>
      <g
         class="com.sun.star.drawing.ClosedBezierShape"
         id="g302">
        <g
           id="id43">
          <path
             d="m 13155,11303 c -142,159 -229,271 -315,417 102,105 209,207 312,312 -39,210 -57,424 -49,637 -116,74 -249,174 -365,246 49,156 134,327 224,450 -33,41 -68,81 -104,120 10,7 19,14 29,21 36,-38 70,-78 104,-118 152,35 326,70 497,71 142,102 271,169 437,218 l -35,59 c 248,-40 475,-147 659,-301 l -75,-11 c 57,-162 98,-332 122,-502 122,-130 207,-257 265,-405 57,4 113,5 170,6 1,-12 2,-24 3,-36 -57,-1 -115,-2 -172,-6 -32,-139 -97,-298 -176,-431 4,-165 -3,-335 -30,-497 l 99,3 c -160,-208 -379,-369 -632,-457 l 23,76 c -172,32 -318,82 -468,154 -148,-22 -329,-41 -490,-40 -17,-53 -33,-106 -47,-160 -11,5 -22,10 -33,15 14,53 30,106 47,159 z m 0,0 0,0 z m -819,1374 c -20,-93 -30,-190 -30,-290 0,-182 35,-356 101,-516 l 42,92 c 76,-75 161,-137 256,-189 30,-17 75,-39 97,-47 l 14,17 c -49,22 -99,58 -144,87 -81,51 -155,112 -222,182 -53,176 -70,404 -52,565 99,114 213,216 327,308 l -13,16 c -99,-59 -219,-164 -322,-279 l -54,54 z m 0,0 0,0 z m 851,-638 c 184,-84 336,-152 525,-230 l -4,-455 c 147,-69 291,-116 462,-147 l 447,329 c 28,159 37,326 34,489 l -423,120 c -153,-136 -348,-262 -482,-329 l -10,17 c 158,97 328,211 473,343 -16,170 -32,380 -48,548 -175,111 -366,200 -561,271 -139,-97 -320,-223 -461,-321 -8,-212 10,-426 48,-635 z m 0,0 0,0 z m 338,1403 87,-413 c 197,-71 390,-162 567,-274 l 377,189 c -25,166 -66,330 -122,488 l -480,216 c -165,-46 -291,-109 -429,-206 z"
             id="path305"
             inkscape:connector-curvature="0"
             style="fill:#000200;stroke:none" />
        </g>
      </g>
      <g
         class="Group"
         id="g307">
        <g
           class="com.sun.star.drawing.ClosedBezierShape"
           id="g309">
          <g
             id="id44">
            <path
               d="m 12006,19676 -1,0 c 74,0 136,17 199,53 64,37 109,82 146,146 36,63 53,125 53,198 l 0,1 0,0 c 0,73 -17,135 -53,198 -37,64 -82,109 -146,146 -63,36 -125,53 -198,53 -74,0 -136,-17 -199,-53 -64,-37 -109,-82 -146,-146 -36,-63 -53,-125 -53,-198 0,-74 17,-136 53,-199 37,-64 82,-109 146,-146 63,-36 125,-53 198,-53 l 1,0 z"
               id="path312"
               inkscape:connector-curvature="0"
               style="fill:#000200;stroke:none" />
          </g>
        </g>
        <g
           class="com.sun.star.drawing.ClosedBezierShape"
           id="g314">
          <g
             id="id45">
            <path
               d="m 12006,19697 c 44,0 86,7 124,21 l 7,21 c -47,9 -88,22 -129,42 -41,-6 -91,-11 -135,-11 -5,-15 -9,-29 -13,-44 45,-19 94,-29 146,-29 z m 0,0 0,0 z m 299,147 c 49,63 78,142 78,230 0,9 0,18 -1,27 -16,0 -31,-1 -47,-2 -9,-39 -27,-83 -49,-119 2,-46 0,-93 -8,-137 l 27,1 z m 0,0 0,0 z m 76,267 c -9,100 -59,189 -132,251 l -21,-3 c 16,-45 27,-91 33,-138 34,-36 57,-71 74,-112 15,1 31,2 46,2 z m 0,0 0,0 z m -315,334 c -19,3 -39,5 -60,5 -80,0 -155,-25 -217,-68 10,-11 20,-22 29,-33 43,10 90,19 137,20 40,28 75,46 121,60 l -10,16 z m 0,0 0,0 z m -285,-69 c -72,-54 -124,-132 -143,-223 l 14,-15 c 29,32 62,61 89,77 l 4,-4 c -32,-26 -63,-54 -90,-85 -6,-44 -1,-108 14,-156 18,-20 39,-36 61,-51 13,-8 26,-17 40,-24 l -4,-4 c -6,2 -19,8 -27,13 -26,14 -49,31 -70,52 l -12,-26 c 36,-88 106,-160 194,-200 4,15 8,29 13,44 -39,44 -64,75 -88,115 29,29 59,57 87,86 -11,58 -16,117 -14,176 -32,20 -69,48 -101,68 14,43 37,90 62,124 -9,11 -19,22 -29,33 z m 0,0 0,0 z m 92,-399 c 50,-24 92,-42 144,-64 l -1,-125 c 41,-19 80,-32 128,-41 l 123,91 c 8,44 10,90 10,135 l -117,33 c -43,-37 -97,-72 -133,-91 l -3,5 c 43,27 90,58 130,94 -4,47 -9,106 -13,152 -48,31 -101,55 -155,75 -38,-27 -88,-62 -127,-89 -2,-58 3,-118 14,-175 z m 0,0 0,0 z m 93,387 24,-114 c 54,-19 107,-45 156,-75 l 105,52 c -7,45 -19,91 -34,134 l -133,60 c -45,-13 -80,-30 -118,-57 z"
               id="path317"
               inkscape:connector-curvature="0"
               style="fill:#ffffff;stroke:none" />
          </g>
        </g>
      </g>
      <g
         class="Group"
         id="g319">
        <g
           class="com.sun.star.drawing.ClosedBezierShape"
           id="g321">
          <g
             id="id46">
            <path
               d="m 14014,17714 c 33,199 6,357 -128,519 10,31 26,31 29,65 3,31 -1,47 -9,79 -15,-30 -24,-39 -42,-64 -20,-28 -44,-45 -81,-57 -21,-7 -43,-1 -66,0 8,41 16,75 -6,115 -12,23 -23,36 -41,57 3,-35 -3,-63 -15,-95 -24,-61 -90,-107 -152,-116 -26,-4 -49,1 -69,11 -21,24 -43,48 -61,72 30,54 53,125 68,188 9,38 79,106 96,149 -47,-30 -102,-22 -128,-35 23,105 75,180 122,290 -33,0 -40,73 -31,163 6,64 42,131 98,187 -75,7 -146,-96 -173,-94 -3,50 -5,92 -2,137 5,84 47,107 53,252 4,100 21,283 34,526 2,51 29,24 51,72 34,73 6,156 18,238 -65,-6 -117,-12 -183,-19 2,-28 -8,-56 -7,-84 -8,-45 -39,-52 -70,-56 26,-22 75,-45 63,-75 -57,-142 -176,-414 -210,-562 -31,-132 31,-232 8,-271 -24,-38 -60,-89 -79,-120 -16,38 -35,44 -63,58 15,-37 3,-79 -4,-113 -16,5 -51,14 -99,4 49,-39 48,-56 54,-93 3,-21 -31,-63 -45,-96 -12,-30 -11,-84 -27,-113 -51,-15 -57,-24 -81,-54 -34,24 -58,58 -167,63 39,-31 38,-57 31,-83 -52,22 -94,46 -143,55 14,-22 28,-56 5,-57 -64,-3 -109,-2 -171,13 -43,10 -68,37 -77,59 -23,-20 -33,-39 -59,-35 0,143 -161,221 -108,523 1,7 9,8 70,4 -4,22 -23,50 -37,72 13,34 38,41 82,66 -33,9 -80,26 -84,39 2,96 8,181 -2,269 -4,34 -256,40 -286,-46 0,-2 -1,-4 -1,-7 -23,-18 -40,-46 -34,-74 15,-70 66,-128 112,-182 -20,-57 -13,-124 27,-181 -32,-213 -64,-452 -96,-683 -9,-68 -49,-127 -46,-196 2,-69 61,-122 126,-131 -10,-22 5,-46 14,-66 35,42 26,33 67,48 -4,-26 21,-51 48,-54 56,-6 99,0 192,13 -33,-26 -38,-56 -40,-96 26,24 84,52 147,58 53,4 121,5 156,3 45,-3 54,-50 48,-66 -22,-63 -29,-91 -47,-146 -17,-52 -34,-145 -43,-227 -11,-107 0,-166 -8,-157 -72,80 -179,171 -281,233 -69,42 -122,43 -134,29 -113,-139 -177,-400 -236,-515 -15,-28 -38,-21 -66,-26 l -539,3242 -77,-18 579,-3241 c -22,-15 -49,-23 -71,-35 -11,-4 -22,-9 -33,-14 -37,-17 -33,-57 -9,-73 -30,-15 -30,-55 -9,-73 9,-6 30,-12 46,-14 -1,-2 -3,-3 -4,-5 -12,-13 -22,-24 -27,-34 -6,-13 -5,-25 -3,-33 5,-24 33,-43 62,-26 4,2 8,5 12,7 -10,-18 -11,-41 -1,-55 13,-19 39,-26 58,-8 14,14 26,23 38,31 l 20,-112 c -225,-61 -268,-218 -264,-381 5,-187 122,-436 178,-549 l -80,3 178,-163 c -146,285 -224,510 -238,677 -18,210 65,327 245,371 21,-193 44,-411 77,-606 36,-226 82,-418 139,-608 -18,209 -42,455 -80,632 -40,188 -78,399 -125,586 l 0,1 c 187,19 306,-65 359,-270 41,-162 41,-401 -2,-718 l 114,213 -75,-29 c 16,124 45,398 -12,577 -50,156 -144,291 -381,273 l -13,76 c 4,-11 10,-21 19,-28 16,-14 49,-30 72,-11 19,15 -17,82 -24,103 -8,22 -12,44 -12,59 -1,16 5,30 11,44 6,19 13,43 14,65 2,34 -3,63 9,78 67,85 164,239 252,369 88,-162 272,-320 374,-380 33,-20 77,-29 118,-33 19,-2 36,-10 51,-17 -16,-21 -30,-41 -41,-61 -42,-72 -9,-133 0,-169 -19,2 -39,-2 -48,-16 -27,-44 8,-138 -58,-214 18,-2 32,-1 43,3 -17,-82 10,-159 101,-201 20,-9 27,-7 13,10 -29,37 -34,75 -24,110 3,12 7,23 13,33 43,-80 150,-94 196,-98 50,-3 144,21 191,86 21,-43 25,-92 -14,-140 -13,-17 -6,-19 14,-10 98,45 121,131 96,220 16,-7 33,-10 51,-2 -58,62 -27,160 -49,199 -8,15 -44,21 -54,20 13,27 35,49 29,103 -3,29 -43,85 -91,140 9,10 19,18 36,24 61,23 145,25 158,34 75,49 69,81 143,163 79,87 166,173 280,315 38,48 55,66 12,125 -16,22 -38,49 -62,81 -30,42 -68,90 -109,142 23,9 47,18 72,29 80,32 151,36 209,-39 72,-91 92,-208 76,-320 l -112,80 50,-442 289,339 -137,-1 z m 0,0 0,0 z m -819,401 c 54,-46 104,-71 155,-80 25,-98 53,-195 114,-279 -94,-6 -138,-62 -153,-101 -8,-22 -17,-36 -17,-30 -15,85 -37,219 -64,337 -13,59 -28,108 -35,153 z"
               id="path324"
               inkscape:connector-curvature="0"
               style="fill:#000200;stroke:none" />
          </g>
        </g>
        <g
           class="com.sun.star.drawing.ClosedBezierShape"
           id="g326">
          <g
             id="id47">
            <path
               d="m 13237,16740 c -14,5 -30,12 -43,22 -30,22 -61,59 -70,108 l -15,5 c 3,-36 3,-75 3,-119 4,-67 -45,-113 -96,-109 -57,5 -51,55 -76,57 -26,2 -37,-57 -87,-60 -49,-2 -77,34 -90,83 -11,43 -8,92 3,148 l -21,-1 c -15,-47 -61,-121 -111,-140 37,72 12,142 35,180 5,7 22,8 29,7 15,-2 40,-11 60,-3 -24,27 -44,44 -53,79 -9,34 -11,64 12,104 34,58 88,122 144,160 26,17 59,0 72,-17 18,17 47,37 78,14 45,-33 164,-159 170,-216 2,-26 -1,-41 -9,-56 -17,-38 -42,-54 -61,-66 24,-13 49,-1 63,1 18,2 30,-5 34,-10 21,-36 -5,-106 29,-171 z m 0,0 0,0 z m -162,26 c 0,-17 -110,17 -112,113 0,14 2,29 10,41 16,21 47,22 69,7 19,-12 29,-40 31,-62 4,-25 3,-77 2,-99 z m 0,0 0,0 z m -279,6 c -1,-17 111,17 112,113 1,14 -1,29 -9,41 -16,21 -44,24 -66,9 -25,-17 -31,-43 -34,-65 -3,-25 -1,-65 -3,-98 z m 0,0 0,0 z m 162,343 c 1,20 68,47 28,56 -29,6 -48,-44 -60,-68 48,-6 99,-4 135,-88 9,65 -38,100 -103,100 z m 0,0 0,0 z m -96,-130 c -9,8 -3,23 9,21 15,-3 26,-3 35,2 14,8 12,21 17,28 3,3 11,6 17,6 6,0 17,-1 21,-7 5,-8 4,-22 14,-28 10,-6 24,-6 31,-4 12,3 21,-5 16,-16 -10,-22 -38,-13 -52,2 -9,8 -12,22 -15,30 -4,8 -17,12 -24,2 -2,-3 -4,-15 -15,-26 -8,-7 -17,-13 -26,-15 -10,-2 -18,-4 -28,5 z"
               id="path329"
               inkscape:connector-curvature="0"
               style="fill:#d61023;stroke:none" />
          </g>
        </g>
        <g
           class="com.sun.star.drawing.ClosedBezierShape"
           id="g331">
          <g
             id="id48">
            <path
               d="m 12746,16711 c -28,-35 -59,-100 -34,-160 -58,41 -71,104 -52,175 30,16 55,44 74,65 0,-34 4,-66 12,-80 z"
               id="path334"
               inkscape:connector-curvature="0"
               style="fill:#ffffff;stroke:none" />
          </g>
        </g>
        <g
           class="com.sun.star.drawing.ClosedBezierShape"
           id="g336">
          <g
             id="id49">
            <path
               d="m 13126,16701 c 7,25 8,48 6,89 26,-35 51,-45 67,-54 27,-78 16,-149 -47,-193 26,60 3,115 -26,158 z"
               id="path339"
               inkscape:connector-curvature="0"
               style="fill:#ffffff;stroke:none" />
          </g>
        </g>
        <g
           class="com.sun.star.drawing.ClosedBezierShape"
           id="g341">
          <g
             id="id50">
            <path
               d="m 12814,16789 c -3,25 -4,50 -1,77 2,20 10,44 29,56 32,16 50,-16 49,-24 -31,10 -51,-7 -54,-27 -3,-21 10,-44 31,-44 -14,-19 -35,-36 -54,-38 z"
               id="path344"
               inkscape:connector-curvature="0"
               style="fill:#ffffff;stroke:none" />
          </g>
        </g>
        <g
           class="com.sun.star.drawing.ClosedBezierShape"
           id="g346">
          <g
             id="id51">
            <path
               d="m 13059,16783 c 4,25 4,50 1,77 -3,20 -10,44 -29,56 -33,16 -50,-16 -49,-24 26,8 40,-2 48,-15 13,-20 1,-56 -25,-56 14,-19 35,-36 54,-38 z"
               id="path349"
               inkscape:connector-curvature="0"
               style="fill:#ffffff;stroke:none" />
          </g>
        </g>
        <g
           class="com.sun.star.drawing.ClosedBezierShape"
           id="g351">
          <g
             id="id52">
            <path
               d="m 12875,16846 c 5,0 13,17 13,25 -3,9 -22,4 -22,-11 0,-4 2,-11 9,-14 z"
               id="path354"
               inkscape:connector-curvature="0"
               style="fill:#ffffff;stroke:none" />
          </g>
        </g>
        <g
           class="com.sun.star.drawing.ClosedBezierShape"
           id="g356">
          <g
             id="id53">
            <path
               d="m 12995,16842 c -5,0 -12,17 -12,26 3,9 23,3 22,-12 0,-4 -3,-12 -10,-14 z"
               id="path359"
               inkscape:connector-curvature="0"
               style="fill:#ffffff;stroke:none" />
          </g>
        </g>
        <g
           class="com.sun.star.drawing.ClosedBezierShape"
           id="g361">
          <g
             id="id54">
            <path
               d="m 11765,16932 c -16,-14 -44,10 -25,34 29,33 58,54 102,67 24,8 36,-22 14,-37 -32,-20 -52,-25 -91,-64 z"
               id="path364"
               inkscape:connector-curvature="0"
               style="fill:#d61023;stroke:none" />
          </g>
        </g>
        <g
           class="com.sun.star.drawing.ClosedBezierShape"
           id="g366">
          <g
             id="id55">
            <path
               d="m 11700,16991 c -25,-13 -47,18 -22,38 23,18 43,32 69,45 15,8 32,11 50,14 25,4 32,-32 7,-42 -16,-6 -32,-10 -46,-18 -18,-8 -32,-22 -58,-37 z"
               id="path369"
               inkscape:connector-curvature="0"
               style="fill:#d61023;stroke:none" />
          </g>
        </g>
        <g
           class="com.sun.star.drawing.ClosedBezierShape"
           id="g371">
          <g
             id="id56">
            <path
               d="m 11666,17098 c -27,-3 -34,40 -4,48 42,11 89,15 133,13 25,0 25,-40 -1,-45 -34,-6 -71,-10 -128,-16 z"
               id="path374"
               inkscape:connector-curvature="0"
               style="fill:#d61023;stroke:none" />
          </g>
        </g>
        <g
           class="com.sun.star.drawing.ClosedBezierShape"
           id="g376">
          <g
             id="id57">
            <path
               d="m 11676,17174 c -28,-8 -42,27 -14,41 40,18 70,24 113,31 25,4 32,-30 8,-40 -33,-12 -52,-15 -107,-32 z"
               id="path379"
               inkscape:connector-curvature="0"
               style="fill:#d61023;stroke:none" />
          </g>
        </g>
        <g
           class="com.sun.star.drawing.ClosedBezierShape"
           id="g381">
          <g
             id="id58">
            <path
               d="m 13876,17425 232,271 -118,-1 c 51,267 -21,409 -119,526 -23,28 30,29 25,105 -31,-53 -65,-74 -108,-88 -35,-11 -65,5 -95,-2 8,53 26,93 -9,141 -5,-107 -114,-169 -178,-179 -17,-2 -33,-2 -47,2 32,-39 64,-78 94,-115 27,9 53,20 78,30 83,35 166,42 232,-43 71,-88 106,-216 76,-367 l -102,72 39,-352 z m 0,0 0,0 z m -684,722 c 51,-51 102,-77 151,-87 -14,55 -29,111 -49,164 -31,-12 -63,-12 -94,-6 -7,-25 -8,-48 -8,-71 z"
               id="path384"
               inkscape:connector-curvature="0"
               style="fill:#d61023;stroke:none" />
          </g>
        </g>
        <g
           class="com.sun.star.drawing.ClosedBezierShape"
           id="g386">
          <g
             id="id59">
            <path
               d="m 13271,18236 c -21,-4 -45,-4 -65,0 4,16 9,27 19,43 l 13,20 -24,-5 c -61,-13 -98,-26 -135,-79 l -5,-9 16,-11 6,8 c 29,42 57,56 100,66 -5,-11 -9,-23 -12,-38 l -3,-9 0,-1 c -24,-88 11,-175 30,-262 25,-111 44,-224 63,-336 1,-2 1,-13 14,-18 24,-9 36,28 42,43 22,57 76,85 134,88 l 36,2 -20,31 c -91,128 -109,297 -160,443 l -7,18 c 17,10 39,30 50,52 l 13,-15 c 96,-114 197,-231 284,-351 20,-28 42,-54 62,-81 35,-49 22,-58 -12,-102 -89,-111 -184,-209 -279,-315 -50,-55 -75,-117 -138,-159 -31,-13 -106,-13 -155,-32 -15,-6 -26,-13 -35,-21 -24,26 -46,52 -67,76 -18,19 -51,67 -72,97 -14,22 -19,30 -31,27 -8,-3 -20,-27 -41,-55 -18,-24 -46,-52 -62,-72 -25,-31 -55,-60 -84,-90 -15,9 -33,17 -54,19 -36,4 -79,12 -110,31 -130,77 -294,238 -367,372 l -15,29 -19,-27 c -81,-121 -161,-254 -251,-368 -17,-22 -11,-62 -13,-89 -1,-20 -7,-41 -13,-60 -6,-18 -12,-30 -12,-48 1,-15 2,-40 10,-65 10,-30 42,-79 31,-88 -14,-10 -54,3 -64,53 -2,11 0,20 -5,29 l 2,1 c 41,26 16,86 -30,73 l 0,1 c 6,14 3,31 -7,42 l -3,19 c 12,19 9,47 -10,59 l -5,33 c 11,18 7,43 -9,55 l -4,19 c 30,6 61,-3 81,36 83,161 114,366 233,512 21,13 91,-22 109,-32 97,-61 199,-146 276,-231 2,-1 8,-10 21,-7 23,6 17,45 16,62 0,38 2,76 6,114 8,71 19,157 41,223 16,49 30,97 47,145 15,41 -20,90 -65,92 -51,3 -108,1 -159,-3 -37,-3 -82,-15 -120,-35 5,14 13,26 27,38 l 57,46 -72,-11 c -62,-8 -125,-20 -187,-13 -14,2 -34,16 -31,31 l 5,33 -32,-11 c -34,-13 -40,-14 -54,-29 -3,8 -4,15 -1,21 l 9,24 -25,3 c -55,8 -106,54 -108,112 -2,64 37,128 46,193 31,227 62,455 95,682 l 2,8 -5,7 c -41,58 -47,134 -9,195 l 7,11 -6,11 c -19,31 -97,176 -92,210 19,56 208,70 246,45 10,-86 4,-174 2,-261 l -1,-3 1,-3 c 5,-17 29,-30 53,-39 -21,-13 -40,-28 -50,-55 l -4,-9 6,-8 c 6,-10 16,-25 23,-39 -26,2 -56,0 -59,-23 -19,-105 -16,-203 23,-303 23,-59 64,-120 79,-179 4,-14 6,-29 6,-45 l 0,-17 17,-2 c 27,-4 42,8 57,23 19,-24 48,-40 77,-47 62,-14 114,-16 177,-13 30,1 33,24 28,47 34,-12 68,-30 101,-44 l 21,-9 6,22 c 6,26 5,46 -4,64 46,-6 61,-21 110,-55 l 15,-10 12,14 c 26,32 30,35 72,48 l 7,2 4,7 c 20,36 14,80 28,115 12,29 50,77 46,106 -5,36 -10,55 -27,75 16,0 32,-3 47,-7 l 21,-7 5,22 c 5,26 11,52 11,78 6,-6 12,-14 17,-27 l 15,-36 20,33 c 25,41 54,80 79,120 18,29 2,83 -4,115 -10,55 -14,107 -1,163 41,179 139,386 209,559 13,32 -11,55 -36,74 23,10 38,28 44,60 l 1,3 0,2 c -1,22 4,44 6,66 47,4 94,10 141,14 -4,-68 13,-149 -14,-207 -18,-38 -51,-18 -54,-79 -9,-175 -26,-352 -33,-526 -4,-107 -49,-169 -53,-253 -3,-47 -1,-93 2,-140 l 1,-17 17,-2 c 31,-2 72,52 118,79 -33,-44 -57,-96 -62,-149 -3,-35 -13,-143 25,-176 -41,-91 -94,-176 -115,-275 l -9,-39 36,17 c 23,10 47,9 74,14 -27,-35 -61,-71 -69,-106 -11,-48 -27,-101 -48,-148 -24,-53 -43,-92 -102,-109 z m 0,0 0,0 z m -1494,-1057 -17,-1 16,6 1,-5 z m 0,0 0,0 z m 1559,2065 c -4,-33 6,-68 20,-95 l 5,-9 18,9 -5,9 c -15,29 -25,70 -13,101 l 8,23 -22,-10 c -50,-23 -80,-56 -103,-105 l -5,-9 19,-9 4,9 c 18,39 40,66 74,86 z m 0,0 0,0 z m -1377,-775 c 12,-17 28,-30 50,-33 l 10,-2 3,20 -10,2 c -21,3 -35,19 -43,38 l -8,15 -10,-14 c -24,-34 -36,-93 2,-121 l 8,-6 12,16 -8,6 c -23,18 -18,53 -6,79 z m 0,0 0,0 z m 866,-226 c 30,-4 56,-15 80,-37 l 6,-6 7,6 c 36,31 37,75 84,101 2,-28 6,-51 32,-72 l 8,-7 13,16 -8,6 c -25,21 -24,44 -25,73 l 0,15 -14,-6 c -66,-26 -64,-71 -97,-105 -28,24 -60,35 -97,37 l -12,1 2,-12 c 4,-32 -14,-60 -42,-74 l -9,-5 10,-18 9,5 c 31,16 53,47 53,82 z m 0,0 0,0 z m -775,377 c 32,13 68,9 87,-24 l 4,-8 17,7 -3,9 c -18,49 -14,112 8,162 4,-31 9,-57 36,-84 l 7,-7 14,14 -7,7 c -31,32 -28,65 -33,105 l -3,28 -15,-24 c -31,-47 -45,-112 -36,-170 -29,18 -67,15 -99,-3 l -12,-7 11,-10 c 44,-37 28,-73 33,-120 l 1,-10 20,2 -1,10 c -5,49 9,84 -29,123 z m 0,0 0,0 z m 714,-600 c 7,6 19,10 28,10 l 202,0 c 11,0 20,-3 28,-12 l 7,-7 15,15 -7,7 c -13,12 -26,18 -43,18 l -202,0 c -14,0 -29,-6 -40,-14 l -9,-6 12,-17 9,6 z m 0,0 0,0 z m 7,-129 c 8,5 19,10 28,10 l 202,0 c 12,0 20,-3 29,-12 l 7,-7 14,14 -7,8 c -12,12 -26,17 -43,17 l -202,0 c -13,0 -28,-6 -39,-13 l -10,-6 13,-17 8,6 z m 0,0 0,0 z m -118,-166 c 36,12 99,16 138,14 46,-2 80,-6 80,-61 l 0,-107 20,0 0,107 c 0,68 -42,80 -99,82 -42,2 -107,-1 -145,-15 l -10,-4 7,-19 9,3 z m 0,0 0,0 z m 497,23 c -38,14 -103,17 -144,15 -58,-2 -99,-17 -99,-84 l 0,-105 20,0 0,105 c 0,55 33,61 80,63 38,2 101,-2 136,-14 l 10,-3 7,19 -10,4 z"
               id="path389"
               inkscape:connector-curvature="0"
               style="fill:#d61023;stroke:none" />
          </g>
        </g>
        <g
           class="com.sun.star.drawing.ClosedBezierShape"
           id="g391">
          <g
             id="id60">
            <path
               d="m 11985,19492 -9,-14 c -35,40 -88,104 -102,167 -2,16 6,33 19,46 22,-79 61,-142 92,-199 z"
               id="path394"
               inkscape:connector-curvature="0"
               style="fill:#d61023;stroke:none" />
            <path
               d="m 11985,19492 -9,-14 c -35,40 -88,104 -102,167 -2,16 6,33 19,46 22,-79 61,-142 92,-199 z"
               id="path396"
               inkscape:connector-curvature="0"
               style="fill:none;stroke:#000200;stroke-width:50.00210571" />
          </g>
        </g>
      </g>
      <g
         class="com.sun.star.drawing.ClosedBezierShape"
         id="g398">
        <g
           id="id61">
          <path
             d="m 6702,19770 c 123,545 126,1438 66,1852 -48,328 411,556 1084,682 739,139 1746,254 2773,251 713,-2 1565,-58 2184,-139 1084,-142 1835,-370 1756,-799 -80,-436 -86,-1184 72,-1842 -248,382 -924,522 -1856,609 -702,66 -1625,121 -2199,119 -514,-3 -1368,-46 -2018,-111 -983,-99 -1677,-242 -1862,-622 z"
             id="path401"
             inkscape:connector-curvature="0"
             style="fill:#000200;stroke:none" />
        </g>
      </g>
      <g
         class="Group"
         id="g403">
        <g
           class="com.sun.star.drawing.PolyPolygonShape"
           id="g405">
          <g
             id="id62">
            <path
               d="m 10025,8986 -7,-449 -333,-657 216,-4 215,444 158,-451 215,-3 -269,645 9,471 -204,4 z"
               id="path408"
               inkscape:connector-curvature="0"
               style="fill:#000200;stroke:none" />
          </g>
        </g>
        <g
           class="com.sun.star.drawing.PolyPolygonShape"
           id="g410">
          <g
             id="id63">
            <path
               d="m 9061,9045 -83,-1087 554,-42 13,170 -351,27 21,270 279,-21 13,172 -279,21 24,308 381,-29 12,166 -584,45 z"
               id="path413"
               inkscape:connector-curvature="0"
               style="fill:#000200;stroke:none" />
          </g>
        </g>
        <g
           class="com.sun.star.drawing.PolyPolygonShape"
           id="g415">
          <g
             id="id64">
            <path
               d="m 8417,9121 -136,-1082 204,-25 113,916 335,-40 21,166 -537,65 z"
               id="path418"
               inkscape:connector-curvature="0"
               style="fill:#000200;stroke:none" />
          </g>
        </g>
        <g
           class="com.sun.star.drawing.PolyPolygonShape"
           id="g420">
          <g
             id="id65">
            <path
               d="m 8079,9182 -195,39 -320,-737 -15,803 -177,36 -451,-1019 182,-36 310,717 -3,-778 190,-37 312,716 -16,-775 189,-37 -6,1108 z"
               id="path423"
               inkscape:connector-curvature="0"
               style="fill:#000200;stroke:none" />
          </g>
        </g>
        <g
           class="com.sun.star.drawing.PolyPolygonShape"
           id="g425">
          <g
             id="id66">
            <path
               d="m 13475,9222 -198,-33 -35,-806 -302,748 -179,-30 -57,-1117 184,31 32,783 276,-730 194,32 35,784 271,-735 191,33 -412,1040 z"
               id="path428"
               inkscape:connector-curvature="0"
               style="fill:#000200;stroke:none" />
          </g>
        </g>
        <g
           class="com.sun.star.drawing.PolyPolygonShape"
           id="g430">
          <g
             id="id67">
            <path
               d="m 6566,9135 210,-57 -241,-451 31,508 z m 0,0 0,0 z m 411,305 -115,-210 -286,85 17,237 -189,54 -57,-1131 253,-69 568,978 -191,56 z"
               id="path433"
               inkscape:connector-curvature="0"
               style="fill:#000200;stroke:none" />
          </g>
        </g>
        <g
           class="com.sun.star.drawing.ClosedBezierShape"
           id="g435">
          <g
             id="id68">
            <path
               d="m 5558,8940 120,302 111,-44 c 83,-33 124,-101 80,-211 -40,-103 -123,-121 -213,-86 l -98,39 z m 0,0 0,0 z m -245,-79 245,-97 c 133,-53 274,-98 402,10 41,35 73,82 96,141 28,69 35,133 23,193 -12,59 -39,110 -73,142 l 375,370 -204,81 -329,-351 -110,44 165,415 -187,75 -403,-1023 z"
               id="path438"
               inkscape:connector-curvature="0"
               style="fill:#000200;stroke:none" />
          </g>
        </g>
        <g
           class="com.sun.star.drawing.ClosedBezierShape"
           id="g440">
          <g
             id="id69">
            <path
               d="m 11827,8248 c 4,-56 13,-99 24,-129 18,-49 45,-91 83,-124 34,-30 72,-52 117,-65 46,-13 95,-15 151,-11 101,8 170,40 233,103 80,81 87,186 78,288 l -27,333 c -9,95 -21,255 -126,335 -70,53 -137,77 -244,69 -55,-5 -105,-17 -148,-38 -43,-20 -79,-48 -108,-83 -32,-38 -52,-83 -62,-135 -9,-52 -6,-104 2,-214 l 27,-329 z m 0,0 0,0 z m 487,15 c 9,-122 -54,-172 -125,-179 -121,-12 -154,77 -161,172 l -37,462 c -8,94 47,152 130,157 111,6 149,-55 156,-140 l 37,-472 z"
               id="path443"
               inkscape:connector-curvature="0"
               style="fill:#000200;stroke:none" />
          </g>
        </g>
        <g
           class="com.sun.star.drawing.ClosedBezierShape"
           id="g445">
          <g
             id="id70">
            <path
               d="m 16007,9206 c 28,-47 54,-82 77,-105 37,-37 80,-62 129,-76 44,-12 87,-15 134,-8 48,7 92,26 140,54 88,50 137,109 166,193 37,107 -1,205 -53,293 l -7,14 -176,-102 23,-40 c 61,-105 26,-177 -36,-215 -103,-62 -171,4 -219,86 l -231,402 c -47,81 -23,157 50,197 96,53 157,14 200,-59 l 37,-64 174,101 c -50,82 -126,194 -240,217 -87,18 -158,11 -250,-42 -48,-28 -87,-60 -117,-97 -30,-37 -51,-78 -62,-122 -11,-48 -10,-98 2,-149 13,-50 38,-96 93,-192 l 166,-286 z"
               id="path448"
               inkscape:connector-curvature="0"
               style="fill:#000200;stroke:none" />
          </g>
        </g>
        <g
           class="com.sun.star.drawing.ClosedBezierShape"
           id="g450">
          <g
             id="id71">
            <path
               d="m 4619,9583 c -26,-49 -41,-89 -48,-121 -10,-51 -9,-101 4,-149 13,-44 33,-82 64,-118 32,-36 72,-64 121,-90 91,-46 166,-56 253,-37 111,26 172,110 220,201 l 7,14 -180,94 -21,-41 c -57,-107 -137,-116 -201,-84 -109,54 -89,147 -44,230 l 216,411 c 44,83 120,103 193,63 98,-54 97,-126 58,-201 l -35,-64 179,-95 c 43,87 96,210 56,319 -31,83 -75,139 -169,189 -50,25 -98,41 -146,47 -47,6 -93,2 -136,-12 -47,-16 -89,-43 -125,-81 -36,-38 -60,-84 -113,-182 l -153,-293 z"
               id="path453"
               inkscape:connector-curvature="0"
               style="fill:#000200;stroke:none" />
          </g>
        </g>
        <g
           class="com.sun.star.drawing.PolyPolygonShape"
           id="g455">
          <g
             id="id72">
            <path
               d="m 11205,8983 38,-933 -237,-10 6,-168 689,27 -7,164 -241,-9 -38,933 -210,-4 z"
               id="path458"
               inkscape:connector-curvature="0"
               style="fill:#000200;stroke:none" />
          </g>
        </g>
        <g
           class="com.sun.star.drawing.PolyPolygonShape"
           id="g460">
          <g
             id="id73">
            <path
               d="m 13825,9299 277,-1068 206,53 129,767 175,-688 177,46 -278,1068 -179,-46 -141,-849 -199,760 -167,-43 z"
               id="path463"
               inkscape:connector-curvature="0"
               style="fill:#000200;stroke:none" />
          </g>
        </g>
        <g
           class="com.sun.star.drawing.PolyPolygonShape"
           id="g465">
          <g
             id="id74">
            <path
               d="m 15070,9660 402,-1014 512,200 -62,160 -327,-128 -99,253 260,102 -64,159 -259,-102 -178,447 -185,-77 z"
               id="path468"
               inkscape:connector-curvature="0"
               style="fill:#000200;stroke:none" />
          </g>
        </g>
      </g>
      <g
         class="Group"
         id="g470">
        <g
           class="com.sun.star.drawing.ClosedBezierShape"
           id="g472">
          <g
             id="id75">
            <path
               d="m 7502,20833 0,324 110,18 c 85,13 143,-26 143,-144 0,-110 -65,-168 -156,-182 l -97,-16 z m 0,0 0,0 z m -185,-193 245,39 c 133,21 271,52 344,212 23,51 35,109 35,172 0,74 -15,134 -46,181 -31,46 -71,76 -112,87 l 200,515 -207,-36 -164,-472 -110,-18 1,447 -187,-30 1,-1097 z"
               id="path475"
               inkscape:connector-curvature="0"
               style="fill:#ffffff;stroke:none" />
          </g>
        </g>
        <g
           class="com.sun.star.drawing.PolyPolygonShape"
           id="g477">
          <g
             id="id76">
            <path
               d="m 10800,22075 -1,-1106 562,0 -1,213 -355,0 0,225 284,1 0,195 -283,0 0,263 373,-1 1,209 -580,1 z"
               id="path480"
               inkscape:connector-curvature="0"
               style="fill:#ffffff;stroke:none" />
          </g>
        </g>
        <g
           class="com.sun.star.drawing.ClosedBezierShape"
           id="g482">
          <g
             id="id77">
            <path
               d="m 10000,22074 -1,-1105 318,0 c 187,0 321,115 321,373 l 0,318 c -1,231 -73,414 -318,414 l -320,0 z m 0,0 0,0 z m 304,-904 -98,0 1,707 105,0 c 83,0 118,-73 118,-140 l 1,-397 c 0,-93 -39,-170 -127,-170 z"
               id="path485"
               inkscape:connector-curvature="0"
               style="fill:#ffffff;stroke:none" />
          </g>
        </g>
        <g
           class="com.sun.star.drawing.ClosedBezierShape"
           id="g487">
          <g
             id="id78">
            <path
               d="m 8800,21985 -1,-1104 307,34 c 181,21 311,137 311,408 l 0,319 c -1,253 -86,403 -351,373 l -266,-30 z m 0,0 0,0 z m 293,-870 -94,-11 0,707 73,8 c 88,10 145,-25 145,-122 l 0,-399 c 0,-92 -38,-174 -124,-183 z"
               id="path490"
               inkscape:connector-curvature="0"
               style="fill:#ffffff;stroke:none" />
          </g>
        </g>
        <g
           class="com.sun.star.drawing.PolyPolygonShape"
           id="g492">
          <g
             id="id79">
            <path
               d="m 8095,21874 -1,-1106 544,85 0,212 -337,-52 0,225 248,41 0,197 -247,-42 0,263 343,52 0,209 -550,-84 z"
               id="path495"
               inkscape:connector-curvature="0"
               style="fill:#ffffff;stroke:none" />
          </g>
        </g>
        <g
           class="com.sun.star.drawing.PolyPolygonShape"
           id="g497">
          <g
             id="id80">
            <path
               d="m 12752,21954 0,-1094 200,-19 1,899 315,-41 1,195 -517,60 z"
               id="path500"
               inkscape:connector-curvature="0"
               style="fill:#ffffff;stroke:none" />
          </g>
        </g>
        <g
           class="com.sun.star.drawing.PolyPolygonShape"
           id="g502">
          <g
             id="id81">
            <path
               d="m 12355,22002 0,-1095 200,-14 1,1092 -201,17 z"
               id="path505"
               inkscape:connector-curvature="0"
               style="fill:#ffffff;stroke:none" />
          </g>
        </g>
        <g
           class="com.sun.star.drawing.PolyPolygonShape"
           id="g507">
          <g
             id="id82">
            <path
               d="m 11726,22064 -251,-1099 198,-11 169,752 171,-771 207,-11 -264,1127 -230,13 z"
               id="path510"
               inkscape:connector-curvature="0"
               style="fill:#ffffff;stroke:none" />
          </g>
        </g>
        <g
           class="com.sun.star.drawing.ClosedBezierShape"
           id="g512">
          <g
             id="id83">
            <path
               d="m 13817,21019 188,-78 c -55,-173 -154,-255 -307,-243 -167,14 -375,168 -326,421 50,257 415,205 434,384 10,95 -47,142 -105,150 -111,16 -140,-67 -154,-147 l -205,70 c 56,231 201,280 334,273 174,-8 351,-169 351,-371 1,-316 -425,-300 -447,-445 -14,-89 48,-139 110,-142 58,-2 109,40 127,128 z"
               id="path515"
               inkscape:connector-curvature="0"
               style="fill:#ffffff;stroke:none" />
          </g>
        </g>
      </g>
      <g
         class="com.sun.star.drawing.PolyPolygonShape"
         id="g517">
        <g
           id="id84">
          <path
             d="m 13238,10878 -77,28 -149,-222 39,266 -73,28 -237,-347 83,-31 146,229 -41,-269 70,-27 147,226 -55,-260 81,-33 66,412 z"
             id="path520"
             inkscape:connector-curvature="0"
             style="fill:#ffffff;stroke:none" />
        </g>
      </g>
      <g
         class="com.sun.star.drawing.PolyPolygonShape"
         id="g522">
        <g
           id="id85">
          <path
             d="m 14320,14269 -155,-379 243,-99 30,74 -169,69 27,65 122,-51 30,75 -122,51 37,90 182,-74 31,74 -256,105 z"
             id="path525"
             inkscape:connector-curvature="0"
             style="fill:#ffffff;stroke:none" />
        </g>
      </g>
      <g
         class="com.sun.star.drawing.PolyPolygonShape"
         id="g527">
        <g
           id="id86">
          <path
             d="m 13413,10833 -13,-410 263,-8 3,80 -183,5 2,71 131,-4 4,80 -132,4 3,99 197,-6 2,80 -277,9 z"
             id="path530"
             inkscape:connector-curvature="0"
             style="fill:#ffffff;stroke:none" />
        </g>
      </g>
      <g
         class="com.sun.star.drawing.ClosedBezierShape"
         id="g532">
        <g
           id="id87">
          <path
             d="m 13798,10731 83,-11 c 8,22 16,39 27,50 23,23 65,31 87,18 26,-15 31,-45 19,-67 -11,-23 -31,-26 -51,-38 -56,-35 -131,-69 -116,-151 6,-36 23,-65 51,-82 28,-17 71,-21 111,-13 54,13 94,52 113,98 l -67,34 c -14,-31 -33,-57 -68,-64 -19,-3 -51,1 -55,35 -3,27 27,46 47,59 7,4 20,9 31,17 62,38 107,72 92,150 -17,78 -92,111 -164,99 -32,-6 -60,-18 -81,-35 -22,-18 -43,-45 -59,-99 z"
             id="path535"
             inkscape:connector-curvature="0"
             style="fill:#ffffff;stroke:none" />
        </g>
      </g>
      <g
         class="com.sun.star.drawing.ClosedBezierShape"
         id="g537">
        <g
           id="id88">
          <path
             d="m 12560,13927 81,23 c -1,23 1,41 6,55 12,31 45,52 71,50 41,-4 50,-27 46,-53 -4,-25 -20,-36 -33,-55 -14,-20 -30,-41 -43,-63 -22,-37 -33,-88 -5,-131 20,-30 47,-42 81,-46 44,-3 79,9 111,33 45,33 61,84 60,135 l -74,4 c -1,-34 -8,-65 -38,-86 -16,-10 -49,-23 -66,7 -14,24 10,57 23,76 4,6 14,16 22,28 23,34 41,63 45,97 2,27 -1,60 -20,88 -23,32 -57,42 -92,43 -33,1 -69,-9 -99,-29 -27,-17 -47,-37 -60,-62 -13,-26 -21,-59 -16,-114 z"
             id="path540"
             inkscape:connector-curvature="0"
             style="fill:#ffffff;stroke:none" />
        </g>
      </g>
      <g
         class="com.sun.star.drawing.ClosedBezierShape"
         id="g542">
        <g
           id="id89">
          <path
             d="m 13404,14261 82,-13 c 10,21 18,38 30,48 23,22 63,27 86,14 17,-10 22,-21 24,-33 2,-11 1,-24 -6,-34 -14,-21 -33,-25 -53,-36 -22,-12 -46,-25 -67,-39 -35,-24 -66,-65 -59,-116 4,-36 24,-59 52,-76 38,-22 76,-24 116,-18 54,11 90,49 111,95 l -65,37 c -16,-31 -35,-57 -71,-62 -19,-2 -55,1 -57,34 -2,28 33,48 53,60 6,4 20,9 32,16 36,20 64,39 82,69 14,22 24,52 17,86 -9,39 -31,64 -61,79 -30,16 -66,22 -103,17 -31,-4 -58,-14 -81,-31 -22,-17 -50,-43 -62,-97 z"
             id="path545"
             inkscape:connector-curvature="0"
             style="fill:#ffffff;stroke:none" />
        </g>
      </g>
      <g
         class="com.sun.star.drawing.ClosedBezierShape"
         id="g547">
        <g
           id="id90">
          <path
             d="m 13834,14276 76,-34 c 15,19 27,33 41,40 29,15 68,11 86,-8 14,-14 17,-26 16,-38 -1,-11 -5,-23 -14,-32 -19,-16 -38,-16 -60,-22 -24,-6 -51,-12 -75,-21 -40,-15 -80,-46 -86,-97 -3,-36 10,-63 32,-87 32,-32 67,-43 107,-45 57,-2 101,25 132,64 l -54,52 c -23,-27 -48,-47 -85,-42 -18,2 -52,13 -46,47 5,26 44,37 66,44 7,2 22,4 35,8 40,11 72,22 97,46 18,18 36,45 37,79 1,41 -15,70 -40,93 -24,22 -59,37 -94,41 -33,4 -61,0 -87,-11 -26,-10 -59,-29 -84,-77 z"
             id="path550"
             inkscape:connector-curvature="0"
             style="fill:#ffffff;stroke:none" />
        </g>
      </g>
      <g
         class="com.sun.star.drawing.PolyPolygonShape"
         id="g552">
        <g
           id="id91">
          <path
             d="m 14252,10936 135,-305 -95,-41 31,-69 272,121 -31,69 -94,-42 -136,304 -82,-37 z"
             id="path555"
             inkscape:connector-curvature="0"
             style="fill:#ffffff;stroke:none" />
        </g>
      </g>
      <g
         class="com.sun.star.drawing.ClosedBezierShape"
         id="g557">
        <g
           id="id92">
          <path
             d="m 13127,13873 -80,248 c -14,42 1,85 50,100 57,18 88,-16 101,-57 l 78,-243 76,24 -81,254 c -19,59 -54,84 -85,95 -29,11 -58,10 -105,-5 -47,-15 -80,-32 -100,-63 -27,-41 -24,-82 -11,-127 l 81,-250 76,24 z"
             id="path560"
             inkscape:connector-curvature="0"
             style="fill:#ffffff;stroke:none" />
        </g>
      </g>
      <g
         class="com.sun.star.drawing.PolyPolygonShape"
         id="g562">
        <g
           id="id93">
          <path
             d="m 14951,13913 -75,53 -128,-63 15,141 -74,53 -25,-235 -208,-102 74,-53 124,60 -15,-135 75,-52 25,230 212,103 z"
             id="path565"
             inkscape:connector-curvature="0"
             style="fill:#ffffff;stroke:none" />
        </g>
      </g>
    </g>
  </g>
</svg>
