<?xml version="1.0" encoding="UTF-8" standalone="no"?>
<!-- Created with Inkscape (http://www.inkscape.org/) -->

<svg
   xmlns:dc="http://purl.org/dc/elements/1.1/"
   xmlns:cc="http://creativecommons.org/ns#"
   xmlns:rdf="http://www.w3.org/1999/02/22-rdf-syntax-ns#"
   xmlns:svg="http://www.w3.org/2000/svg"
   xmlns="http://www.w3.org/2000/svg"
   version="1.1"
   width="367.09265"
   height="476.86374"
   id="svg5584">
  <defs
     id="defs5586" />
  <metadata
     id="metadata5589">
    <rdf:RDF>
      <cc:Work
         rdf:about="">
        <dc:format>image/svg+xml</dc:format>
        <dc:type
           rdf:resource="http://purl.org/dc/dcmitype/StillImage" />
        <dc:title></dc:title>
      </cc:Work>
    </rdf:RDF>
  </metadata>
  <g
     transform="translate(-166.45367,-293.93031)"
     id="layer1">
    <path
       d="m 350.00335,770.79406 c 0,0 -184.82741,-55.74956 -183.54302,-236.71618 l 0,-240.14757 367.086,0 0,240.14757 c 0,190.40198 -183.54298,236.71618 -183.54298,236.71618"
       id="path1042"
       style="fill:#ffffff;fill-opacity:1;fill-rule:nonzero;stroke:none" />
    <path
       d="m 522.18058,387.63031 -0.2128,159.95651 c 0,0 -5.29338,157.93492 -171.17784,211.47289 l -1.21599,-371.646 172.60663,0.21675"
       id="path1046"
       style="fill:#1a5dad;fill-opacity:1;fill-rule:nonzero;stroke:none" />
    <path
       d="m 522.18058,387.63031 -0.2128,159.95651 c 0,0 -5.29338,157.93492 -171.17784,211.47289 l -1.21599,-371.646 172.60663,0.21675 z"
       id="path1050"
       style="fill:none;stroke:#231f20;stroke-width:0.3001987;stroke-linecap:butt;stroke-linejoin:miter;stroke-miterlimit:4;stroke-opacity:1;stroke-dasharray:none" />
    <path
       d="m 176.75069,305.07946 345.64268,0 0,235.86119 c 0,0 0,162.9547 -172.39382,217.84546"
       id="path1054"
       style="fill:none;stroke:#231f20;stroke-width:3.43138504;stroke-linecap:butt;stroke-linejoin:miter;stroke-miterlimit:4;stroke-opacity:1;stroke-dasharray:none" />
    <path
       d="m 178.03889,304.22447 0,235.85738 c 0,0 2.14319,159.52712 171.96446,218.70806"
       id="path1058"
       style="fill:none;stroke:#231f20;stroke-width:3.43138504;stroke-linecap:butt;stroke-linejoin:miter;stroke-miterlimit:4;stroke-opacity:1;stroke-dasharray:none" />
    <path
       d="m 522.39337,388.2763 -344.78388,0"
       id="path1062"
       style="fill:none;stroke:#231f20;stroke-width:3.43138504;stroke-linecap:butt;stroke-linejoin:miter;stroke-miterlimit:4;stroke-opacity:1;stroke-dasharray:none" />
    <path
       d="m 257.02915,333.58314 c -2.1812,0.24715 -3.03239,0.3534 -3.03239,3.24519 l 0,4.47638 c -1.69099,1.19699 -6.44857,2.18499 -9.51136,2.18499 -8.81216,0 -12.76035,-6.23958 -12.76035,-12.37275 0,-6.94257 4.86398,-12.65395 12.47535,-12.65395 3.17299,0 5.88618,1.729 6.80197,1.729 0.95,0 1.2692,-0.741 1.62639,-1.6226 l 0.9462,0 0,8.24977 -0.8778,0 c -1.23499,-3.06659 -4.19518,-7.19337 -8.21176,-7.19337 -5.11098,0 -6.52077,5.35798 -6.52077,11.42275 0,2.50039 0.2128,11.27835 6.87037,11.27835 3.10078,0 3.66698,-1.06019 3.66698,-2.57639 l 0,-3.69738 c 0,-2.25719 -1.12859,-2.32939 -3.56058,-2.46999 l 0,-0.8816 12.08775,0 0,0.8816"
       id="path1066"
       style="fill:#1a5dad;fill-opacity:1;fill-rule:nonzero;stroke:none" />
    <path
       d="m 257.02915,333.58314 c -2.1812,0.24715 -3.03239,0.3534 -3.03239,3.24519 l 0,4.47638 c -1.69099,1.19699 -6.44857,2.18499 -9.51136,2.18499 -8.81216,0 -12.76035,-6.23958 -12.76035,-12.37275 0,-6.94257 4.86398,-12.65395 12.47535,-12.65395 3.17299,0 5.88618,1.729 6.80197,1.729 0.95,0 1.2692,-0.741 1.62639,-1.6226 l 0.9462,0 0,8.24977 -0.8778,0 c -1.23499,-3.06659 -4.19518,-7.19337 -8.21176,-7.19337 -5.11098,0 -6.52077,5.35798 -6.52077,11.42275 0,2.50039 0.2128,11.27835 6.87037,11.27835 3.10078,0 3.66698,-1.06019 3.66698,-2.57639 l 0,-3.69738 c 0,-2.25719 -1.12859,-2.32939 -3.56058,-2.46999 l 0,-0.8816 12.08775,0 0,0.8816 z"
       id="path1070"
       style="fill:none;stroke:#231f20;stroke-width:0.3001987;stroke-linecap:butt;stroke-linejoin:miter;stroke-miterlimit:4;stroke-opacity:1;stroke-dasharray:none" />
    <path
       d="m 270.88389,342.8171 -12.33855,0 0,-0.8816 c 1.90379,-0.1748 3.27938,-0.3154 3.27938,-2.50039 l 0,-17.05812 c 0,-2.32559 -1.65679,-2.39779 -3.27938,-2.50419 l 0,-0.8778 12.33855,0 0,0.8778 c -1.6606,0.0724 -3.35159,0.1064 -3.35159,2.50419 l 0,17.05812 c 0,2.25719 1.40979,2.35979 3.35159,2.50039 l 0,0.8816"
       id="path1074"
       style="fill:#1a5dad;fill-opacity:1;fill-rule:nonzero;stroke:none" />
    <path
       d="m 270.88389,342.8171 -12.33855,0 0,-0.8816 c 1.90379,-0.1748 3.27938,-0.3154 3.27938,-2.50039 l 0,-17.05812 c 0,-2.32559 -1.65679,-2.39779 -3.27938,-2.50419 l 0,-0.8778 12.33855,0 0,0.8778 c -1.6606,0.0724 -3.35159,0.1064 -3.35159,2.50419 l 0,17.05812 c 0,2.25719 1.40979,2.35979 3.35159,2.50039 l 0,0.8816 z"
       id="path1078"
       style="fill:none;stroke:#231f20;stroke-width:0.3001987;stroke-linecap:butt;stroke-linejoin:miter;stroke-miterlimit:4;stroke-opacity:1;stroke-dasharray:none" />
    <path
       d="m 293.44819,342.8171 -20.36791,0 0,-0.8816 c 1.97219,-0.2432 3.02858,-0.35339 3.02858,-2.50039 l 0,-17.05812 c 0,-2.32559 -1.44019,-2.39779 -3.02858,-2.50419 l 0,-0.8778 12.29674,0 0,0.8778 c -2.46619,0.1064 -3.55678,0.14045 -3.55678,3.24138 l 0,16.63633 c 0,1.691 0.7752,1.97599 3.13499,1.97599 5.31997,0 7.29976,-2.92598 8.91856,-6.90837 l 1.02219,0 -1.44779,7.99897"
       id="path1082"
       style="fill:#1a5dad;fill-opacity:1;fill-rule:nonzero;stroke:none" />
    <path
       d="m 293.44819,342.8171 -20.36791,0 0,-0.8816 c 1.97219,-0.2432 3.02858,-0.35339 3.02858,-2.50039 l 0,-17.05812 c 0,-2.32559 -1.44019,-2.39779 -3.02858,-2.50419 l 0,-0.8778 12.29674,0 0,0.8778 c -2.46619,0.1064 -3.55678,0.14045 -3.55678,3.24138 l 0,16.63633 c 0,1.691 0.7752,1.97599 3.13499,1.97599 5.31997,0 7.29976,-2.92598 8.91856,-6.90837 l 1.02219,0 -1.44779,7.99897 z"
       id="path1086"
       style="fill:none;stroke:#231f20;stroke-width:0.3001987;stroke-linecap:butt;stroke-linejoin:miter;stroke-miterlimit:4;stroke-opacity:1;stroke-dasharray:none" />
    <path
       d="m 316.10749,342.8171 -20.37551,0 0,-0.8816 c 1.97599,-0.2432 3.03619,-0.35339 3.03619,-2.50039 l 0,-17.05812 c 0,-2.32559 -1.4478,-2.39779 -3.03619,-2.50419 l 0,-0.8778 12.30435,0 0,0.8778 c -2.46999,0.1064 -3.56059,0.14045 -3.56059,3.24138 l 0,16.63633 c 0,1.691 0.7752,1.97599 3.13499,1.97599 5.32378,0 7.29597,-2.92598 8.91856,-6.90837 l 1.0222,0 -1.444,7.99897"
       id="path1090"
       style="fill:#1a5dad;fill-opacity:1;fill-rule:nonzero;stroke:none" />
    <path
       d="m 316.10749,342.8171 -20.37551,0 0,-0.8816 c 1.97599,-0.2432 3.03619,-0.35339 3.03619,-2.50039 l 0,-17.05812 c 0,-2.32559 -1.4478,-2.39779 -3.03619,-2.50419 l 0,-0.8778 12.30435,0 0,0.8778 c -2.46999,0.1064 -3.56059,0.14045 -3.56059,3.24138 l 0,16.63633 c 0,1.691 0.7752,1.97599 3.13499,1.97599 5.32378,0 7.29597,-2.92598 8.91856,-6.90837 l 1.0222,0 -1.444,7.99897 z"
       id="path1094"
       style="fill:none;stroke:#231f20;stroke-width:0.3001987;stroke-linecap:butt;stroke-linejoin:miter;stroke-miterlimit:4;stroke-opacity:1;stroke-dasharray:none" />
    <path
       d="m 331.61902,342.8171 -12.33854,0 0,-0.8816 c 1.90379,-0.1748 3.27938,-0.3154 3.27938,-2.50039 l 0,-17.05812 c 0,-2.32559 -1.66059,-2.39779 -3.27938,-2.50419 l 0,-0.8778 12.33854,0 0,0.8778 c -1.66059,0.0724 -3.35158,0.1064 -3.35158,2.50419 l 0,17.05812 c 0,2.25719 1.41359,2.35979 3.35158,2.50039 l 0,0.8816"
       id="path1098"
       style="fill:#1a5dad;fill-opacity:1;fill-rule:nonzero;stroke:none" />
    <path
       d="m 331.61902,342.8171 -12.33854,0 0,-0.8816 c 1.90379,-0.1748 3.27938,-0.3154 3.27938,-2.50039 l 0,-17.05812 c 0,-2.32559 -1.66059,-2.39779 -3.27938,-2.50419 l 0,-0.8778 12.33854,0 0,0.8778 c -1.66059,0.0724 -3.35158,0.1064 -3.35158,2.50419 l 0,17.05812 c 0,2.25719 1.41359,2.35979 3.35158,2.50039 l 0,0.8816 z"
       id="path1102"
       style="fill:none;stroke:#231f20;stroke-width:0.3001987;stroke-linecap:butt;stroke-linejoin:miter;stroke-miterlimit:4;stroke-opacity:1;stroke-dasharray:none" />
    <path
       d="m 333.70902,341.9355 c 2.11659,-0.24715 3.10458,-0.49399 3.10458,-2.81958 l 0,-16.70473 c -1.97599,-2.43199 -2.53839,-2.53839 -2.99438,-2.53839 l 0,-0.8778 7.43656,0 12.22835,15.04794 0.0684,0 0,-10.68176 c 0,-2.11279 -0.4218,-3.27558 -3.27559,-3.48838 l 0,-0.8778 7.57337,0 0,0.8778 c -2.53459,0.3192 -2.74359,1.12859 -2.74359,2.81959 l 0,20.75931 -0.99179,0 -15.67873,-19.10252 -0.0724,0 0,14.09794 c 0,2.53839 0.741,3.20718 3.34779,3.48838 l 0,0.8816 -8.00277,0 0,-0.8816"
       id="path1106"
       style="fill:#1a5dad;fill-opacity:1;fill-rule:nonzero;stroke:none" />
    <path
       d="m 333.70902,341.9355 c 2.11659,-0.24715 3.10458,-0.49399 3.10458,-2.81958 l 0,-16.70473 c -1.97599,-2.43199 -2.53839,-2.53839 -2.99438,-2.53839 l 0,-0.8778 7.43656,0 12.22835,15.04794 0.0684,0 0,-10.68176 c 0,-2.11279 -0.4218,-3.27558 -3.27559,-3.48838 l 0,-0.8778 7.57337,0 0,0.8778 c -2.53459,0.3192 -2.74359,1.12859 -2.74359,2.81959 l 0,20.75931 -0.99179,0 -15.67873,-19.10252 -0.0724,0 0,14.09794 c 0,2.53839 0.741,3.20718 3.34779,3.48838 l 0,0.8816 -8.00277,0 0,-0.8816 z"
       id="path1110"
       style="fill:none;stroke:#231f20;stroke-width:0.3001987;stroke-linecap:butt;stroke-linejoin:miter;stroke-miterlimit:4;stroke-opacity:1;stroke-dasharray:none" />
    <path
       d="m 384.3476,333.58314 c -2.18499,0.24715 -3.03239,0.3534 -3.03239,3.24519 l 0,4.47638 c -1.69479,1.19699 -6.45237,2.18499 -9.51516,2.18499 -8.81216,0 -12.76034,-6.23958 -12.76034,-12.37275 0,-6.94257 4.86398,-12.65395 12.47914,-12.65395 3.16919,0 5.88618,1.729 6.80197,1.729 0.95,0 1.2692,-0.741 1.6226,-1.6226 l 0.94999,0 0,8.24977 -0.88159,0 c -1.235,-3.06659 -4.19139,-7.19337 -8.21177,-7.19337 -5.11098,0 -6.52077,5.35798 -6.52077,11.42275 0,2.50039 0.2128,11.27835 6.87417,11.27835 3.09699,0 3.66698,-1.06019 3.66698,-2.57639 l 0,-3.69738 c 0,-2.25719 -1.13239,-2.32939 -3.56438,-2.46999 l 0,-0.8816 12.09155,0 0,0.8816"
       id="path1114"
       style="fill:#1a5dad;fill-opacity:1;fill-rule:nonzero;stroke:none" />
    <path
       d="m 384.3476,333.58314 c -2.18499,0.24715 -3.03239,0.3534 -3.03239,3.24519 l 0,4.47638 c -1.69479,1.19699 -6.45237,2.18499 -9.51516,2.18499 -8.81216,0 -12.76034,-6.23958 -12.76034,-12.37275 0,-6.94257 4.86398,-12.65395 12.47914,-12.65395 3.16919,0 5.88618,1.729 6.80197,1.729 0.95,0 1.2692,-0.741 1.6226,-1.6226 l 0.94999,0 0,8.24977 -0.88159,0 c -1.235,-3.06659 -4.19139,-7.19337 -8.21177,-7.19337 -5.11098,0 -6.52077,5.35798 -6.52077,11.42275 0,2.50039 0.2128,11.27835 6.87417,11.27835 3.09699,0 3.66698,-1.06019 3.66698,-2.57639 l 0,-3.69738 c 0,-2.25719 -1.13239,-2.32939 -3.56438,-2.46999 l 0,-0.8816 12.09155,0 0,0.8816 z"
       id="path1118"
       style="fill:none;stroke:#231f20;stroke-width:0.3001987;stroke-linecap:butt;stroke-linejoin:miter;stroke-miterlimit:4;stroke-opacity:1;stroke-dasharray:none" />
    <path
       d="m 411.05008,342.8171 -11.98895,0 0,-0.8816 c 1.8696,-0.20915 3.17679,-0.35339 3.17679,-2.50039 l 0,-8.10536 -8.49296,0 0,8.10536 c 0,2.147 1.29959,2.29139 3.16918,2.50039 l 0,0.8816 -11.87874,0 0,-0.8816 c 1.86959,-0.2432 2.99818,-0.42179 2.99818,-2.50039 l 0,-17.05812 c 0,-2.29139 -1.51619,-2.36359 -2.99818,-2.50419 l 0,-0.8778 11.87874,0 0,0.8778 c -1.55039,0.1064 -3.16918,0.17845 -3.16918,2.50419 l 0,7.29597 8.49296,0 0,-7.29597 c 0,-2.32559 -1.62259,-2.39779 -3.17679,-2.50419 l 0,-0.8778 11.98895,0 0,0.8778 c -1.51619,0.1064 -3.10458,0.2128 -3.10458,2.50419 l 0,17.05812 c 0,2.1128 1.23499,2.25719 3.10458,2.50039 l 0,0.8816"
       id="path1122"
       style="fill:#1a5dad;fill-opacity:1;fill-rule:nonzero;stroke:none" />
    <path
       d="m 411.05008,342.8171 -11.98895,0 0,-0.8816 c 1.8696,-0.20915 3.17679,-0.35339 3.17679,-2.50039 l 0,-8.10536 -8.49296,0 0,8.10536 c 0,2.147 1.29959,2.29139 3.16918,2.50039 l 0,0.8816 -11.87874,0 0,-0.8816 c 1.86959,-0.2432 2.99818,-0.42179 2.99818,-2.50039 l 0,-17.05812 c 0,-2.29139 -1.51619,-2.36359 -2.99818,-2.50419 l 0,-0.8778 11.87874,0 0,0.8778 c -1.55039,0.1064 -3.16918,0.17845 -3.16918,2.50419 l 0,7.29597 8.49296,0 0,-7.29597 c 0,-2.32559 -1.62259,-2.39779 -3.17679,-2.50419 l 0,-0.8778 11.98895,0 0,0.8778 c -1.51619,0.1064 -3.10458,0.2128 -3.10458,2.50419 l 0,17.05812 c 0,2.1128 1.23499,2.25719 3.10458,2.50039 l 0,0.8816 z"
       id="path1126"
       style="fill:none;stroke:#231f20;stroke-width:0.3001987;stroke-linecap:butt;stroke-linejoin:miter;stroke-miterlimit:4;stroke-opacity:1;stroke-dasharray:none" />
    <path
       d="m 426.10942,334.49894 -3.56059,-8.56517 -3.31358,8.56517 6.87417,0 z m 10.75015,8.31816 -11.41895,0 0,-0.8816 c 2.18499,-0.1748 2.81959,-0.2128 2.81959,-1.37179 0,-0.9538 -1.1286,-3.56439 -1.61879,-4.68918 l -7.93057,0 c -0.988,2.53459 -1.55419,3.98238 -1.55419,4.54478 0,1.34139 1.69479,1.44399 2.89178,1.51619 l 0,0.8816 -7.15536,0 0,-0.8816 c 1.90379,-0.2812 2.39779,-1.48199 3.45418,-4.12298 l 7.82797,-19.31152 0.98419,0 7.85837,18.53632 c 1.58839,3.76959 2.15079,4.97038 3.84178,4.89818 l 0,0.8816"
       id="path1130"
       style="fill:#1a5dad;fill-opacity:1;fill-rule:nonzero;stroke:none" />
    <path
       d="m 426.10942,334.49894 -3.56059,-8.56517 -3.31358,8.56517 6.87417,0 z"
       id="path1134"
       style="fill:none;stroke:#231f20;stroke-width:0.3001987;stroke-linecap:butt;stroke-linejoin:miter;stroke-miterlimit:4;stroke-opacity:1;stroke-dasharray:none" />
    <path
       d="m 436.85957,342.8171 -11.41895,0 0,-0.8816 c 2.18499,-0.1748 2.81959,-0.20915 2.81959,-1.37179 0,-0.9538 -1.1286,-3.56439 -1.61879,-4.68918 l -7.93437,0 c -0.9842,2.53839 -1.55039,3.98238 -1.55039,4.54858 0,1.33759 1.69479,1.44399 2.89178,1.51239 l 0,0.8816 -7.15536,0 0,-0.8816 c 1.90379,-0.2812 2.39399,-1.47819 3.45418,-4.11918 l 7.82417,-19.31532 0.98799,0 7.85837,18.53632 c 1.58459,3.76959 2.15079,4.97038 3.84178,4.89818 l 0,0.8816 z"
       id="path1138"
       style="fill:none;stroke:#231f20;stroke-width:0.3001987;stroke-linecap:butt;stroke-linejoin:miter;stroke-miterlimit:4;stroke-opacity:1;stroke-dasharray:none" />
    <path
       d="m 470.4856,342.8171 -11.70012,0 0,-0.8816 c 2.11279,-0.20915 3.13498,-0.3154 3.13498,-2.64099 l 0,-17.76492 -0.0684,0 -8.81217,21.28751 -0.94999,0 -8.81217,-20.75931 -0.0684,0 0,16.38933 c 0,2.46619 0.63459,3.31358 3.56058,3.48838 l 0,0.8816 -8.24976,0 0,-0.8816 c 2.74738,-0.2432 3.20718,-0.77519 3.20718,-2.81958 l 0,-16.73893 c 0,-1.83159 -0.6346,-2.32559 -3.13878,-2.50419 l 0,-0.8778 8.91856,0 7.04517,16.63253 7.05277,-16.63253 8.88053,0 0,0.8778 c -1.97596,0.14045 -3.10076,0.2128 -3.10076,3.24138 l 0,15.57994 c 0,2.81959 0.7752,2.92598 3.10076,3.24138 l 0,0.8816"
       id="path1142"
       style="fill:#1a5dad;fill-opacity:1;fill-rule:nonzero;stroke:none" />
    <path
       d="m 470.4856,342.8171 -11.70012,0 0,-0.8816 c 2.11279,-0.20915 3.13498,-0.3154 3.13498,-2.64099 l 0,-17.76492 -0.0684,0 -8.81217,21.28751 -0.94999,0 -8.81217,-20.75931 -0.0684,0 0,16.38933 c 0,2.46619 0.63459,3.31358 3.56058,3.48838 l 0,0.8816 -8.24976,0 0,-0.8816 c 2.74738,-0.2432 3.20718,-0.77519 3.20718,-2.81958 l 0,-16.73893 c 0,-1.83159 -0.6346,-2.32559 -3.13878,-2.50419 l 0,-0.8778 8.91856,0 7.04517,16.63253 7.05277,-16.63253 8.88053,0 0,0.8778 c -1.97596,0.14045 -3.10076,0.2128 -3.10076,3.24138 l 0,15.57994 c 0,2.81959 0.7752,2.92598 3.10076,3.24138 l 0,0.8816 z"
       id="path1146"
       style="fill:none;stroke:#231f20;stroke-width:0.3001987;stroke-linecap:butt;stroke-linejoin:miter;stroke-miterlimit:4;stroke-opacity:1;stroke-dasharray:none" />
    <path
       d="m 200.97559,354.24365 19.98411,0 0,7.08697 -0.8474,0 c -0.77519,-3.66698 -1.72899,-5.88997 -7.78996,-5.88997 -1.89999,0 -2.53459,0.14439 -2.53459,1.66059 l 0,8.17376 c 4.36998,0.0724 4.90198,-2.43199 5.39218,-5.25157 l 0.87779,0 0,11.91294 -0.87779,0 c -0.3914,-2.88798 -0.95,-5.46057 -5.39218,-5.46057 l 0,8.21176 c 0,2.32559 1.40599,2.39399 3.87598,2.50039 l 0,0.8816 -12.68814,0 0,-0.8816 c 2.01019,-0.2128 3.10458,-0.3154 3.10458,-2.50039 l 0,-17.06192 c 0,-2.32179 -1.44779,-2.39399 -3.10458,-2.50039 l 0,-0.8816"
       id="path1150"
       style="fill:#1a5dad;fill-opacity:1;fill-rule:nonzero;stroke:none" />
    <path
       d="m 200.97559,354.24365 19.98411,0 0,7.08697 -0.8474,0 c -0.77519,-3.66698 -1.72899,-5.88997 -7.78996,-5.88997 -1.89999,0 -2.53459,0.14439 -2.53459,1.66059 l 0,8.17376 c 4.36998,0.0724 4.90198,-2.43199 5.39218,-5.25157 l 0.87779,0 0,11.91294 -0.87779,0 c -0.3914,-2.88798 -0.95,-5.46057 -5.39218,-5.46057 l 0,8.21176 c 0,2.32559 1.40599,2.39399 3.87598,2.50039 l 0,0.8816 -12.68814,0 0,-0.8816 c 2.01019,-0.2128 3.10458,-0.3154 3.10458,-2.50039 l 0,-17.06192 c 0,-2.32179 -1.44779,-2.39399 -3.10458,-2.50039 l 0,-0.8816 z"
       id="path1154"
       style="fill:none;stroke:#231f20;stroke-width:0.3001987;stroke-linecap:butt;stroke-linejoin:miter;stroke-miterlimit:4;stroke-opacity:1;stroke-dasharray:none" />
    <path
       d="m 228.55967,366.2288 c 0,3.06659 0.2128,11.34675 6.23957,11.34675 6.02678,0 6.23577,-8.28016 6.23577,-11.34675 0,-5.14518 -1.30339,-11.35055 -6.23577,-11.35055 -4.93618,0 -6.23957,6.20537 -6.23957,11.35055 z m 18.71112,0 c 0,7.39857 -5.25158,12.50955 -12.47155,12.50955 -7.22377,0 -12.47915,-5.11098 -12.47915,-12.50955 0,-7.68357 5.67718,-12.51335 12.47915,-12.51335 6.79817,0 12.47155,4.82978 12.47155,12.51335"
       id="path1158"
       style="fill:#1a5dad;fill-opacity:1;fill-rule:nonzero;stroke:none" />
    <path
       d="m 228.55967,366.2288 c 0,3.06659 0.2128,11.34675 6.23957,11.34675 6.02678,0 6.23577,-8.28016 6.23577,-11.34675 0,-5.14518 -1.30339,-11.35055 -6.23577,-11.35055 -4.93618,0 -6.23957,6.20537 -6.23957,11.35055 z"
       id="path1162"
       style="fill:none;stroke:#231f20;stroke-width:0.3001987;stroke-linecap:butt;stroke-linejoin:miter;stroke-miterlimit:4;stroke-opacity:1;stroke-dasharray:none" />
    <path
       d="m 247.27079,366.2288 c 0,7.39857 -5.25158,12.50955 -12.47155,12.50955 -7.22377,0 -12.47915,-5.11098 -12.47915,-12.50955 0,-7.68357 5.67718,-12.51335 12.47915,-12.51335 6.79817,0 12.47155,4.82978 12.47155,12.51335 z"
       id="path1166"
       style="fill:none;stroke:#231f20;stroke-width:0.3001987;stroke-linecap:butt;stroke-linejoin:miter;stroke-miterlimit:4;stroke-opacity:1;stroke-dasharray:none" />
    <path
       d="m 255.98035,366.2288 c 0,3.06659 0.20915,11.34675 6.23577,11.34675 6.02678,0 6.23578,-8.28016 6.23578,-11.34675 0,-5.14518 -1.3034,-11.35055 -6.23578,-11.35055 -4.93238,0 -6.23577,6.20537 -6.23577,11.35055 z m 18.71492,0 c 0,7.39857 -5.25538,12.50955 -12.47915,12.50955 -7.22377,0 -12.47534,-5.11098 -12.47534,-12.50955 0,-7.68357 5.67337,-12.51335 12.47534,-12.51335 6.80197,0 12.47915,4.82978 12.47915,12.51335"
       id="path1170"
       style="fill:#1a5dad;fill-opacity:1;fill-rule:nonzero;stroke:none" />
    <path
       d="m 255.98035,366.2288 c 0,3.06659 0.20915,11.34675 6.23577,11.34675 6.02678,0 6.23578,-8.28016 6.23578,-11.34675 0,-5.14518 -1.3034,-11.35055 -6.23578,-11.35055 -4.93238,0 -6.23577,6.20537 -6.23577,11.35055 z"
       id="path1174"
       style="fill:none;stroke:#231f20;stroke-width:0.3001987;stroke-linecap:butt;stroke-linejoin:miter;stroke-miterlimit:4;stroke-opacity:1;stroke-dasharray:none" />
    <path
       d="m 274.69527,366.2288 c 0,7.39857 -5.25538,12.50955 -12.47915,12.50955 -7.22377,0 -12.47534,-5.11098 -12.47534,-12.50955 0,-7.68357 5.67337,-12.51335 12.47534,-12.51335 6.80197,0 12.47915,4.82978 12.47915,12.51335 z"
       id="path1178"
       style="fill:none;stroke:#231f20;stroke-width:0.3001987;stroke-linecap:butt;stroke-linejoin:miter;stroke-miterlimit:4;stroke-opacity:1;stroke-dasharray:none" />
    <path
       d="m 293.14799,378.06955 -12.58175,0 0,-0.8816 c 2.57259,-0.20915 3.41999,-0.2812 3.41999,-3.24138 l 0,-18.57052 c -2.46619,0.1368 -6.09517,0.31539 -6.80197,5.95457 l -1.0184,0 0.10245,-7.08697 21.14311,0 0.0723,7.08697 -1.02219,0 c -0.7068,-5.63918 -4.33199,-5.81777 -6.76777,-5.95457 l 0,18.57052 c 0,2.99438 0.85119,3.06658 3.45418,3.24138 l 0,0.8816"
       id="path1182"
       style="fill:#1a5dad;fill-opacity:1;fill-rule:nonzero;stroke:none" />
    <path
       d="m 293.14799,378.06955 -12.58175,0 0,-0.8816 c 2.57259,-0.20915 3.41999,-0.2812 3.41999,-3.24138 l 0,-18.57052 c -2.46619,0.1368 -6.09517,0.31539 -6.80197,5.95457 l -1.0184,0 0.10245,-7.08697 21.14311,0 0.0723,7.08697 -1.02219,0 c -0.7068,-5.63918 -4.33199,-5.81777 -6.76777,-5.95457 l 0,18.57052 c 0,2.99438 0.85119,3.06658 3.45418,3.24138 l 0,0.8816 z"
       id="path1186"
       style="fill:none;stroke:#231f20;stroke-width:0.3001987;stroke-linecap:butt;stroke-linejoin:miter;stroke-miterlimit:4;stroke-opacity:1;stroke-dasharray:none" />
    <path
       d="m 308.74692,364.9254 c 4.72338,0 5.49858,-1.48199 5.49858,-5.07677 0,-2.46619 -0.7752,-4.54478 -3.63278,-4.54478 -1.7974,0 -1.8316,0.91579 -1.8658,1.72519 l 0,7.89636 z m 0,9.86856 c 0,1.5846 0.6346,2.14699 2.11279,2.14699 3.87979,0 4.33959,-3.13498 4.33959,-5.28197 0,-5.04258 -3.10459,-5.57078 -5.39218,-5.67718 l -1.0602,0 0,8.81216 z m -8.74376,2.39399 c 1.97599,-0.20915 3.10459,-0.3496 3.10459,-2.50039 l 0,-17.05812 c 0,-2.32559 -1.482,-2.39779 -3.10459,-2.50039 l 0,-0.8854 10.89455,0 c 1.9722,0 9.16176,0.1444 9.16176,5.64298 0,3.91018 -3.98238,4.82598 -5.46057,5.28577 l 0,0.0684 c 2.95639,0.494 6.66137,2.25719 6.66137,6.27378 0,2.96398 -2.46999,6.41437 -9.90656,6.55497 l -11.35055,0 0,-0.8816"
       id="path1190"
       style="fill:#1a5dad;fill-opacity:1;fill-rule:nonzero;stroke:none" />
    <path
       d="m 308.74692,364.9254 c 4.72338,0 5.49858,-1.48199 5.49858,-5.07677 0,-2.46619 -0.7752,-4.54478 -3.63278,-4.54478 -1.7974,0 -1.8316,0.91579 -1.8658,1.72519 l 0,7.89636 z"
       id="path1194"
       style="fill:none;stroke:#231f20;stroke-width:0.3001987;stroke-linecap:butt;stroke-linejoin:miter;stroke-miterlimit:4;stroke-opacity:1;stroke-dasharray:none" />
    <path
       d="m 308.74692,374.79396 c 0,1.5846 0.6346,2.14699 2.11279,2.14699 3.87979,0 4.33959,-3.13498 4.33959,-5.28197 0,-5.04258 -3.10459,-5.57078 -5.39218,-5.67718 l -1.0602,0 0,8.81216 z"
       id="path1198"
       style="fill:none;stroke:#231f20;stroke-width:0.3001987;stroke-linecap:butt;stroke-linejoin:miter;stroke-miterlimit:4;stroke-opacity:1;stroke-dasharray:none" />
    <path
       d="m 300.00316,377.18795 c 1.97599,-0.20915 3.10459,-0.3496 3.10459,-2.50039 l 0,-17.06192 c 0,-2.32179 -1.482,-2.39399 -3.10459,-2.50039 l 0,-0.8816 10.89455,0 c 1.9684,0 9.15796,0.14045 9.15796,5.64298 0,3.91018 -3.97858,4.82598 -5.46057,5.28197 l 0,0.0724 c 2.96019,0.49399 6.66137,2.25719 6.66137,6.27377 0,2.96019 -2.46619,6.41437 -9.90276,6.55497 l -11.35055,0 0,-0.8816 z"
       id="path1202"
       style="fill:none;stroke:#231f20;stroke-width:0.3001987;stroke-linecap:butt;stroke-linejoin:miter;stroke-miterlimit:4;stroke-opacity:1;stroke-dasharray:none" />
    <path
       d="m 335.62801,369.75138 -3.55679,-8.56516 -3.31358,8.56516 6.87037,0 z m 10.75015,8.31817 -11.41895,0 0,-0.8816 c 2.18499,-0.1748 2.81959,-0.2128 2.81959,-1.37179 0,-0.9538 -1.1286,-3.56059 -1.61879,-4.68918 l -7.93057,0 c -0.988,2.53839 -1.55039,3.98238 -1.55039,4.54478 0,1.34139 1.69099,1.44779 2.88798,1.51619 l 0,0.8816 -7.15157,0 0,-0.8816 c 1.9,-0.2812 2.39399,-1.47819 3.45039,-4.12298 l 7.82797,-19.31152 0.98419,0 7.85837,18.53632 c 1.58839,3.76959 2.15079,4.97038 3.84178,4.89818 l 0,0.8816"
       id="path1206"
       style="fill:#1a5dad;fill-opacity:1;fill-rule:nonzero;stroke:none" />
    <path
       d="m 335.62801,369.75138 -3.55679,-8.56516 -3.31358,8.56516 6.87037,0 z"
       id="path1210"
       style="fill:none;stroke:#231f20;stroke-width:0.3001987;stroke-linecap:butt;stroke-linejoin:miter;stroke-miterlimit:4;stroke-opacity:1;stroke-dasharray:none" />
    <path
       d="m 346.37816,378.06955 -11.41895,0 0,-0.8816 c 2.18499,-0.1748 2.81959,-0.20915 2.81959,-1.37179 0,-0.9538 -1.1286,-3.56059 -1.61879,-4.68918 l -7.93437,0 c -0.9842,2.53839 -1.54659,3.98238 -1.54659,4.54858 0,1.33759 1.69099,1.44399 2.88798,1.51239 l 0,0.8816 -7.15537,0 0,-0.8816 c 1.9038,-0.2812 2.39399,-1.47819 3.45419,-4.12298 l 7.82417,-19.31152 0.98799,0 7.85837,18.53632 c 1.58459,3.76959 2.15079,4.97038 3.84178,4.89818 l 0,0.8816 z"
       id="path1214"
       style="fill:none;stroke:#231f20;stroke-width:0.3001987;stroke-linecap:butt;stroke-linejoin:miter;stroke-miterlimit:4;stroke-opacity:1;stroke-dasharray:none" />
    <path
       d="m 369.44406,378.06955 -20.37171,0 0,-0.8816 c 1.97219,-0.24715 3.02859,-0.3496 3.02859,-2.50039 l 0,-17.05812 c 0,-2.32559 -1.444,-2.39779 -3.02859,-2.50039 l 0,-0.8854 12.29675,0 0,0.8854 c -2.46619,0.10244 -3.55679,0.1368 -3.55679,3.24138 l 0,16.63253 c 0,1.69479 0.7752,1.97599 3.13499,1.97599 5.32378,0 7.29597,-2.92598 8.91856,-6.90837 l 1.0222,0 -1.444,7.99897"
       id="path1218"
       style="fill:#1a5dad;fill-opacity:1;fill-rule:nonzero;stroke:none" />
    <path
       d="m 369.44406,378.06955 -20.37171,0 0,-0.8816 c 1.97219,-0.24715 3.02859,-0.3496 3.02859,-2.50039 l 0,-17.05812 c 0,-2.32559 -1.444,-2.39779 -3.02859,-2.50039 l 0,-0.8854 12.29675,0 0,0.8854 c -2.46619,0.10244 -3.55679,0.1368 -3.55679,3.24138 l 0,16.63253 c 0,1.69479 0.7752,1.97599 3.13499,1.97599 5.32378,0 7.29597,-2.92598 8.91856,-6.90837 l 1.0222,0 -1.444,7.99897 z"
       id="path1222"
       style="fill:none;stroke:#231f20;stroke-width:0.3001987;stroke-linecap:butt;stroke-linejoin:miter;stroke-miterlimit:4;stroke-opacity:1;stroke-dasharray:none" />
    <path
       d="m 392.95456,378.06955 -20.37171,0 0,-0.8816 c 1.97219,-0.24715 3.03619,-0.3496 3.03619,-2.50039 l 0,-17.05812 c 0,-2.32559 -1.4478,-2.39779 -3.03619,-2.50039 l 0,-0.8854 12.30055,0 0,0.8854 c -2.46619,0.10244 -3.56059,0.1368 -3.56059,3.24138 l 0,16.63253 c 0,1.69479 0.779,1.97599 3.13499,1.97599 5.32377,0 7.29597,-2.92598 8.92236,-6.90837 l 1.0222,0 -1.4478,7.99897"
       id="path1226"
       style="fill:#1a5dad;fill-opacity:1;fill-rule:nonzero;stroke:none" />
    <path
       d="m 392.95456,378.06955 -20.37171,0 0,-0.8816 c 1.97219,-0.24715 3.03619,-0.3496 3.03619,-2.50039 l 0,-17.05812 c 0,-2.32559 -1.4478,-2.39779 -3.03619,-2.50039 l 0,-0.8854 12.30055,0 0,0.8854 c -2.46619,0.10244 -3.56059,0.1368 -3.56059,3.24138 l 0,16.63253 c 0,1.69479 0.779,1.97599 3.13499,1.97599 5.32377,0 7.29597,-2.92598 8.92236,-6.90837 l 1.0222,0 -1.4478,7.99897 z"
       id="path1230"
       style="fill:none;stroke:#231f20;stroke-width:0.3001987;stroke-linecap:butt;stroke-linejoin:miter;stroke-miterlimit:4;stroke-opacity:1;stroke-dasharray:none" />
    <path
       d="m 428.45781,373.59317 c -2.57639,2.92598 -5.32758,5.14518 -9.83436,5.14518 -8.21176,0 -12.65394,-5.77978 -12.65394,-12.36895 0,-7.15537 5.07677,-12.65395 12.47534,-12.65395 3.17299,0 5.88618,1.7252 6.80577,1.7252 0.95,0 1.2654,-0.7372 1.6226,-1.6188 l 0.94999,0 0,8.24597 -0.88159,0 c -1.235,-3.06659 -4.19519,-7.18957 -8.21177,-7.18957 -5.14898,0 -6.52077,5.39217 -6.52077,11.35055 0,2.11279 0.2128,5.49478 1.51619,7.75197 1.4782,2.53838 4.26738,3.06658 5.35418,3.06658 2.75119,0 5.39218,-1.05639 8.31816,-4.33578 l 1.0602,0.8816"
       id="path1234"
       style="fill:#1a5dad;fill-opacity:1;fill-rule:nonzero;stroke:none" />
    <path
       d="m 428.45781,373.59317 c -2.57639,2.92598 -5.32758,5.14518 -9.83436,5.14518 -8.21176,0 -12.65394,-5.77978 -12.65394,-12.36895 0,-7.15537 5.07677,-12.65395 12.47534,-12.65395 3.17299,0 5.88618,1.7252 6.80577,1.7252 0.95,0 1.2654,-0.7372 1.6226,-1.6188 l 0.94999,0 0,8.24597 -0.88159,0 c -1.235,-3.06659 -4.19519,-7.18957 -8.21177,-7.18957 -5.14898,0 -6.52077,5.39217 -6.52077,11.35055 0,2.11279 0.2128,5.49478 1.51619,7.75197 1.4782,2.53838 4.26738,3.06658 5.35418,3.06658 2.75119,0 5.39218,-1.05639 8.31816,-4.33578 l 1.0602,0.8816 z"
       id="path1238"
       style="fill:none;stroke:#231f20;stroke-width:0.3001987;stroke-linecap:butt;stroke-linejoin:miter;stroke-miterlimit:4;stroke-opacity:1;stroke-dasharray:none" />
    <path
       d="m 450.72951,378.06955 -20.37171,0 0,-0.8816 c 1.97599,-0.24715 3.03239,-0.3496 3.03239,-2.50039 l 0,-17.05812 c 0,-2.32559 -1.4402,-2.39779 -3.03239,-2.50039 l 0,-0.8854 12.30055,0 0,0.8854 c -2.46619,0.10244 -3.55679,0.1368 -3.55679,3.24138 l 0,16.63253 c 0,1.69479 0.7752,1.97599 3.13499,1.97599 5.32378,0 7.29597,-2.92598 8.91856,-6.90837 l 1.0222,0 -1.4478,7.99897"
       id="path1242"
       style="fill:#1a5dad;fill-opacity:1;fill-rule:nonzero;stroke:none" />
    <path
       d="m 450.72951,378.06955 -20.37171,0 0,-0.8816 c 1.97599,-0.24715 3.03239,-0.3496 3.03239,-2.50039 l 0,-17.05812 c 0,-2.32559 -1.4402,-2.39779 -3.03239,-2.50039 l 0,-0.8854 12.30055,0 0,0.8854 c -2.46619,0.10244 -3.55679,0.1368 -3.55679,3.24138 l 0,16.63253 c 0,1.69479 0.7752,1.97599 3.13499,1.97599 5.32378,0 7.29597,-2.92598 8.91856,-6.90837 l 1.0222,0 -1.4478,7.99897 z"
       id="path1246"
       style="fill:none;stroke:#231f20;stroke-width:0.3001987;stroke-linecap:butt;stroke-linejoin:miter;stroke-miterlimit:4;stroke-opacity:1;stroke-dasharray:none" />
    <path
       d="m 476.19317,355.12525 c -1.93419,0.2812 -2.74739,0.66879 -2.74739,2.99438 l 0,11.24416 c 0,2.07859 -0.49399,5.21357 -1.97599,6.80197 -1.75936,1.89999 -4.82595,2.57259 -6.93874,2.57259 -1.55039,0 -4.86778,-0.20916 -7.15537,-2.2192 -1.51619,-1.34139 -2.43199,-2.57258 -2.43199,-6.38017 l 0,-11.77235 c 0,-2.96018 -0.91959,-3.03238 -2.88798,-3.24138 l 0,-0.8816 11.90915,0 0,0.8816 c -2.32559,0.1064 -3.41619,0.14044 -3.41619,3.24138 l 0,11.77235 c 0,2.00639 0,6.87037 5.07298,6.87037 6.20154,0 6.27374,-5.39217 6.27374,-7.64556 l 0,-10.75016 c 0,-2.15079 -0.4256,-3.34778 -3.45415,-3.48838 l 0,-0.8816 7.75193,0 0,0.8816"
       id="path1250"
       style="fill:#1a5dad;fill-opacity:1;fill-rule:nonzero;stroke:none" />
    <path
       d="m 476.19317,355.12525 c -1.93419,0.2812 -2.74739,0.66879 -2.74739,2.99438 l 0,11.24416 c 0,2.07859 -0.49399,5.21357 -1.97599,6.80197 -1.75936,1.89999 -4.82595,2.57259 -6.93874,2.57259 -1.55039,0 -4.86778,-0.20916 -7.15537,-2.2192 -1.51619,-1.34139 -2.43199,-2.57258 -2.43199,-6.38017 l 0,-11.77235 c 0,-2.96018 -0.91959,-3.03238 -2.88798,-3.24138 l 0,-0.8816 11.90915,0 0,0.8816 c -2.32559,0.1064 -3.41619,0.14044 -3.41619,3.24138 l 0,11.77235 c 0,2.00639 0,6.87037 5.07298,6.87037 6.20154,0 6.27374,-5.39217 6.27374,-7.64556 l 0,-10.75016 c 0,-2.15079 -0.4256,-3.34778 -3.45415,-3.48838 l 0,-0.8816 7.75193,0 0,0.8816 z"
       id="path1254"
       style="fill:none;stroke:#231f20;stroke-width:0.3001987;stroke-linecap:butt;stroke-linejoin:miter;stroke-miterlimit:4;stroke-opacity:1;stroke-dasharray:none" />
    <path
       d="m 487.09913,364.9254 c 4.72338,0 5.49857,-1.48199 5.49857,-5.07677 0,-2.46619 -0.77519,-4.54478 -3.63278,-4.54478 -1.79739,0 -1.82779,0.91579 -1.86579,1.72519 l 0,7.89636 z m 0,9.86856 c 0,1.5846 0.63459,2.14699 2.11279,2.14699 3.87598,0 4.33578,-3.13498 4.33578,-5.28197 0,-5.04258 -3.09699,-5.57078 -5.38838,-5.67718 l -1.06019,0 0,8.81216 z m -8.73997,2.39399 c 1.9722,-0.20915 3.10079,-0.3496 3.10079,-2.50039 l 0,-17.05812 c 0,-2.32559 -1.48199,-2.39779 -3.10079,-2.50039 l 0,-0.8854 10.89076,0 c 1.97219,0 9.16176,0.1444 9.16176,5.64298 0,3.91018 -3.98239,4.82598 -5.46438,5.28577 l 0,0.0684 c 2.96019,0.494 6.66517,2.25719 6.66517,6.27378 0,2.96398 -2.46999,6.41437 -9.90656,6.55497 l -11.34675,0 0,-0.8816"
       id="path1258"
       style="fill:#1a5dad;fill-opacity:1;fill-rule:nonzero;stroke:none" />
    <path
       d="m 487.09913,364.9254 c 4.72338,0 5.49857,-1.48199 5.49857,-5.07677 0,-2.46619 -0.77519,-4.54478 -3.63278,-4.54478 -1.79739,0 -1.82779,0.91579 -1.86579,1.72519 l 0,7.89636 z"
       id="path1262"
       style="fill:none;stroke:#231f20;stroke-width:0.3001987;stroke-linecap:butt;stroke-linejoin:miter;stroke-miterlimit:4;stroke-opacity:1;stroke-dasharray:none" />
    <path
       d="m 487.09913,374.79396 c 0,1.5846 0.63459,2.14699 2.11279,2.14699 3.87598,0 4.33578,-3.13498 4.33578,-5.28197 0,-5.04258 -3.09699,-5.57078 -5.38838,-5.67718 l -1.06019,0 0,8.81216 z"
       id="path1266"
       style="fill:none;stroke:#231f20;stroke-width:0.3001987;stroke-linecap:butt;stroke-linejoin:miter;stroke-miterlimit:4;stroke-opacity:1;stroke-dasharray:none" />
    <path
       d="m 478.35916,377.18795 c 1.9722,-0.20915 3.10079,-0.3496 3.10079,-2.50039 l 0,-17.06192 c 0,-2.32179 -1.48199,-2.39399 -3.10079,-2.50039 l 0,-0.8816 10.89076,0 c 1.96839,0 9.15796,0.14045 9.15796,5.64298 0,3.91018 -3.97859,4.82598 -5.46058,5.28197 l 0,0.0724 c 2.96019,0.49399 6.66137,2.25719 6.66137,6.27377 0,2.96019 -2.46619,6.41437 -9.90276,6.55497 l -11.34675,0 0,-0.8816 z"
       id="path1270"
       style="fill:none;stroke:#231f20;stroke-width:0.3001987;stroke-linecap:butt;stroke-linejoin:miter;stroke-miterlimit:4;stroke-opacity:1;stroke-dasharray:none" />
    <path
       d="m 349.50175,760.3403 0.4294,0.14045 0.55479,-0.0836 0.304,-1.33759 -1.93039,-0.14805 0.6422,1.42879"
       id="path1274"
       style="fill:#231f20;fill-opacity:1;fill-rule:nonzero;stroke:none" />
    <path
       d="m 350.00335,757.98432 0,-369.71182"
       id="path1278"
       style="fill:none;stroke:#231f20;stroke-width:3.43138504;stroke-linecap:butt;stroke-linejoin:miter;stroke-miterlimit:4;stroke-opacity:1;stroke-dasharray:none" />
    <path
       d="m 290.3056,388.2725 0,340.49754 31.70327,19.26212 0,-359.79766 -31.70327,0.038"
       id="path1282"
       style="fill:#231f20;fill-opacity:1;fill-rule:nonzero;stroke:none" />
    <path
       d="m 230.35706,389.3821 -0.3648,284.47438 31.90466,36.31264 0.1672,-320.82502 -31.70706,0.038"
       id="path1286"
       style="fill:#231f20;fill-opacity:1;fill-rule:nonzero;stroke:none" />
    <path
       d="m 177.60949,388.2725 1.71379,160.38211 c 0,0 1.71759,45.02981 24.58589,83.19685 l 0,-243.57896 -26.29968,0"
       id="path1290"
       style="fill:#231f20;fill-opacity:1;fill-rule:nonzero;stroke:none" />
    <path
       d="m 425.26202,455.24342 0,-4.14579 c 0,0 0,-1.28439 2.14699,-2.57258 2.14319,-1.2844 14.02954,-9.13137 16.72373,-11.57855 0.6232,-0.5624 0.7866,-1.2464 1.1742,-1.6074 1.10579,-1.01079 1.71759,-1.07539 1.71759,-1.07539 l 0.11035,-2.46239 c 0,0 3.43139,-0.8588 5.14518,-4.71958 l 2.14319,0 0.4294,-6.85897 4.29018,2.14319 2.99819,-5.14518 c 0,0 6.86277,4.71578 8.14716,9.00596 l 6.00774,0.4294 -1.28819,1.71379 4.29018,0.4294 c 0,0 -14.15491,10.29036 -7.72157,14.58054 0,0 21.87271,20.58071 -4.29015,38.16703 0,0 -6.96157,4.50298 -21.4395,-0.85879 l -0.4256,1.71379 c 0,0 -3.68599,-1.46299 -7.72157,4.28638 0,0 -3.85698,4.71958 -5.57458,6.43337 l 1.8582,2.64859 c 0,0 -2.28759,3.78479 -4.86018,7.14397 0,0 -3.35919,3.50359 -8.15097,-1.21599 0,0 -5.14518,6.43337 6.86277,9.43536 l 0.931,9.50756 3.57198,-2.2154 -0.2128,7.50497 3.21479,-1.57319 c 0,0 -1.71379,9.86096 4.93238,10.79195 0,0 -0.3534,-11.79135 4.21798,-13.58114 l 3.21479,-1.56939 5.14518,-4.50298 c 0,0 2.01399,-0.7866 2.36359,-0.1444 0.42179,0.79419 -0.893,3.12358 -2.0748,4.07358 l -1.14379,2.78539 4.57518,-0.7828 c 0,0 2.16599,9.80016 6.85897,12.86295 7.00337,4.57518 10.43473,11.29355 10.43473,11.29355 0,0 1.71379,1.85819 1.14379,5.00458 0,0 4.35098,3.26038 16.38553,-14.21194 1.0564,-1.5314 1.84299,-3.65939 3.34019,-5.08818 0,0 9.12756,-8.03317 15.56853,4.08118 1.51239,2.85379 3.51878,7.49737 3.72778,10.49936 0,0 1.71759,10.29035 -4.28638,19.72951 0,0 -2.57259,6.42957 -2.14319,17.57873 0,0 0,5.57457 -0.4294,6.85897 -0.4294,1.28819 -0.4294,1.28819 -0.4294,1.28819 l -2.99818,-8.14716 c 0,0 -1.6644,-1.9304 -1.7176,0.86259 0,0 4.71578,12.00415 -1.71379,21.01011 0,0 -4.71958,6.85897 -5.14898,9.00216 0,0 -1.71379,-5.14137 -1.28439,-9.00216 0,0 -3.43519,4.71578 -3.86458,8.57657 0,0 -1.7138,6.00397 -3.85699,7.28836 0,0 0.4294,-7.28836 -2.14319,-12.86294 0,0 -2.99819,-4.28638 -1.28819,-9.00596 0,0 -0.855,-2.14319 -2.14319,-0.4294 l -1.7138,2.57259 c 0,0 1.2844,-9.00596 -0.85499,-14.57674 0,0 -5.71898,-16.86813 9.42776,-24.87469 4.17238,-2.20399 8.15096,-9.43536 8.15096,-9.43536 0,0 1.57319,-7.00337 -4.71958,-3.43139 0,0 -14.14734,13.29615 -18.86692,13.72555 0,0 -0.85499,1.71379 -3.82275,4.16858 -3.39339,4.56378 -7.69117,12.93514 -6.89697,25.41809 0,0 2.99819,1.71759 -0.4294,6.86277 0,0 -7.71777,17.58252 -7.71777,21.01391 l 0.8588,3.00199 -3.00199,9.43535 c 0,0 -3.00198,-3.43138 -10.29415,-3.43138 l 2.99819,-6.86277 5.57837,-18.01192 c 0,0 1.71759,-3.42759 -1.71379,-6.86277 l -10.72356,-15.43554 c 0,0 -3.85698,-2.57259 -2.56878,-9.43536 0,0 1.28439,-13.29234 2.14319,-20.58451 0,0 -21.44711,-8.57656 -24.4453,-47.1692 0,0 -7.29217,1.2844 -11.15295,-2.14699 0,0 -0.5358,-1.60739 -8.78936,-0.96519 0,0 -3.21099,-1.501 -7.50117,2.68279 0,0 -2.46619,7.71776 -4.50298,9.64815 l -1.0754,6.64618 c 0,0 -6.43337,2.57258 -10.71975,0.85879 l 2.99819,-9.00596 3.43518,-5.14518 1.82399,-5.89757 c 0,0 -0.53959,-7.93437 7.93057,-7.72157 0,0 8.68296,-1.82019 12.54375,-3.10839 0,0 10.29415,-4.71577 15.86873,-4.28638 l -1.71759,-1.28439 c 0,0 -0.855,-6.86277 13.72174,-12.00795 l -0.855,3.85698 c 0,0 7.28837,-12.43734 24.44529,-14.15114 0,0 9.00217,1.7138 14.57674,-2.57258 0,0 -16.29433,6.43337 -19.30011,-4.71958 l -0.4256,2.14699 c 0,0 -2.57259,0.42939 -3.86079,1.28819 0,0 -4.71578,2.99819 -9.00596,1.2844 l 2.57639,-3.86079 -0.5016,-1.78599 -7.21997,0.7866"
       id="path1294"
       style="fill:#ffffff;fill-opacity:1;fill-rule:nonzero;stroke:none" />
    <path
       d="m 450.99551,443.37987 3.42759,-3.43139 6.00397,-0.4294 -3.16159,3.53779 -0.69539,1.60739 c 0,0 -1.71759,1.71759 -3.00199,0.8588 l 0.4294,-2.57259 -3.00199,0.4294"
       id="path1298"
       style="fill:#1a5dad;fill-opacity:1;fill-rule:nonzero;stroke:none" />
    <path
       d="m 425.90802,456.71401 4.28638,-0.6346 -2.08619,3.47319 -2.20019,-2.83859"
       id="path1302"
       style="fill:#ffffff;fill-opacity:1;fill-rule:nonzero;stroke:none" />
    <path
       d="m 474.15258,438.23469 c 0,0 2.67899,-5.09198 9.43536,-9.00596 0.589,-0.266 2.50419,-1.3756 4.50298,0.3762 1.92279,1.69859 8.35997,7.39476 10.93255,15.06313 l -4.29018,2.57259 c 0,0 -3.91018,-8.41696 -8.20036,-11.41895 0,0 -3.37439,1.98359 -5.95078,4.98558 l 3.64419,5.28958 2.57639,-1.8582 3.64038,5.57458 c 0,0 -7.71397,5.41498 -8.03696,5.62778 -0.2508,0.16719 -1.5086,-4.46119 -4.07359,-7.93437 -0.91199,-1.23119 -1.24259,-2.18119 -2.09379,-3.00199 -3.21478,-3.10838 -3.80378,-3.21478 -2.08619,-6.26997"
       id="path1306"
       style="fill:#ffffff;fill-opacity:1;fill-rule:nonzero;stroke:none" />
    <path
       d="m 482.72914,457.53101 c -0.31919,-0.6422 10.50696,-0.9652 17.36593,-7.82417 0,0 3.00579,7.18197 2.14699,10.18396 0,0 -13.83194,0.37239 -19.35332,6.64617 0,0 1.235,-6.21678 -0.1596,-9.00596"
       id="path1310"
       style="fill:#ffffff;fill-opacity:1;fill-rule:nonzero;stroke:none" />
    <path
       d="m 482.72914,468.25076 c 0,0 11.15296,1.2882 20.15512,-1.28439 0,0 0.4256,4.33958 -0.8588,6.85897 0,0 -12.00795,1.28819 -13.29234,0.85879 0,0 -2.89559,5.14518 -3.75058,6.00398 0,0 -9.32896,-1.501 -8.95657,-2.24959 0.3762,-0.7524 2.84239,-2.03679 6.70317,-10.18776"
       id="path1314"
       style="fill:#ffffff;fill-opacity:1;fill-rule:nonzero;stroke:none" />
    <path
       d="m 474.63138,480.41831 c 0,0 11.52535,4.55618 23.9627,2.41299 0,0 -1.7138,6.00397 -4.29018,7.28837 0,0 -14.58054,-0.4294 -16.72373,-1.7138 l -5.14518,5.14518 -9.00593,-8.14716 c 0,0 4.60938,0.4294 11.20232,-4.98558"
       id="path1318"
       style="fill:#ffffff;fill-opacity:1;fill-rule:nonzero;stroke:none" />
    <path
       d="m 448.74212,483.90289 c 0,0 9.00596,2.68279 13.29234,1.824 l 3.32119,4.28638 -6.42957,1.93039 2.57259,3.43138 6.96917,-2.46619 c 0,0 5.78734,5.57458 17.90549,7.93437 0,0 -7.93817,9.75456 -17.3697,15.75853 l -6.11037,-5.35797 5.68098,-4.07739 -3.43139,-3.43138 -6.75257,2.78919 c 0,0 -12.65395,-11.47215 -9.64816,-22.62131"
       id="path1322"
       style="fill:#ffffff;fill-opacity:1;fill-rule:nonzero;stroke:none" />
    <path
       d="m 438.97236,489.65607 c 0,0 3.42379,-4.98178 5.80258,-4.14578 0,0 0.11005,15.24553 11.68495,23.1571 l 6.43717,-2.67899 2.35219,2.03679 c 0,0 -9.13136,5.50998 -14.14734,5.89757 l -2.14319,1.6074 -2.46619,2.35979 -3.64418,1.71379 c 0,0 -3.41999,1.57319 -3.67839,8.71336 0,0 -0.3306,1.3832 -0.71819,1.89999 -0.5168,1.0298 -1.8582,-2.22299 -0.703,-10.13455 l -3.15019,1.73659 0.3914,-7.46317 -3.73538,2.44339 -0.8322,-7.52397 c 0,0 -8.15856,-0.0723 -7.94577,-4.57518 0,0 5.69238,3.86839 12.18655,-1.59979 l -2.31039,0.1292 4.24078,-6.30417 c 0,0 -2.34839,-1.93039 -1.54279,-2.70179 1.0906,-1.0488 3.92158,-4.56758 3.92158,-4.56758"
       id="path1326"
       style="fill:#ffffff;fill-opacity:1;fill-rule:nonzero;stroke:none" />
    <path
       d="m 461.06927,511.88597 -5.93178,8.14717 10.32836,-3.32499 -4.39658,-4.82218"
       id="path1330"
       style="fill:#ffffff;fill-opacity:1;fill-rule:nonzero;stroke:none" />
    <path
       d="m 413.39847,475.96853 c 1.2882,-1.1438 5.43018,-3.10839 5.43018,-3.10839 0,0 -12.00415,-10.61335 -15.00614,-15.76233 0,0 -1.71759,-7.28837 -9.43535,-6.42957 0,0 -7.28837,0 -9.86096,-1.7176 0,0 -3.86079,-1.71379 -6.00778,-1.71379 l -5.57457,-0.4294 c 0,0 -2.57259,-1.28819 -4.28638,0 l 3.85698,9.86476 5.14898,-1.28819 c 0,0 11.65075,0.70299 13.18594,3.64418 5.91277,3.35539 12.33475,9.68996 18.65412,22.6251 0,0 2.60679,-4.54098 3.89498,-5.68477"
       id="path1334"
       style="fill:#ffffff;fill-opacity:1;fill-rule:nonzero;stroke:none" />
    <path
       d="m 367.80247,524.42972 c 0,0 7.71777,0.4294 10.71975,-0.8588 l 2.14319,3.86079 c 0,0 -2.99818,6.00397 -6.42957,7.29216 l -9.00976,0 2.57639,-10.29415"
       id="path1338"
       style="fill:#ffffff;fill-opacity:1;fill-rule:nonzero;stroke:none" />
    <path
       d="m 415.40106,531.28869 c 0,0 5.21738,14.72494 18.00813,21.58391 l -0.9272,9.79255 -8.92996,-3.50358 c 0,0 -3.86078,-3.00199 -2.14319,7.29217 0,0 0.5662,5.50237 -8.58036,5.57457 0,0 -18.43752,4.29019 -25.3003,11.14536 0,0 -2.14699,-7.71397 -4.71958,-10.28656 0,0 11.15296,-1.28819 17.15693,-5.57838 0,0 4.71198,-1.70999 6.00018,-2.57258 0,0 3.00198,-1.2844 -0.4294,-9.00597 0,0 -6.00018,-26.58468 9.86475,-24.44149"
       id="path1342"
       style="fill:#ffffff;fill-opacity:1;fill-rule:nonzero;stroke:none" />
    <path
       d="m 384.5262,582.32247 -3.00579,4.71578 c 0,0 -12.43355,2.14699 -14.14734,-2.14319 0,0 2.14319,-7.29217 7.71397,-10.29416 0,0 7.72156,-3.42758 9.43916,7.72157"
       id="path1346"
       style="fill:#ffffff;fill-opacity:1;fill-rule:nonzero;stroke:none" />
    <path
       d="m 440.27196,631.63866 c 0,0 4.71578,-0.855 9.43536,2.57259 l 0,7.71776 c 0,0 -6.00778,7.29217 -13.29615,-0.42939 0,0 -0.85879,-4.28639 3.86079,-9.86096"
       id="path1350"
       style="fill:#ffffff;fill-opacity:1;fill-rule:nonzero;stroke:none" />
    <path
       d="m 463.85846,433.08571 c 0,0 -4.71958,-3.86078 -0.8588,-12.43734 l 5.14898,5.57457 -1.2882,7.72157"
       id="path1354"
       style="fill:#ffffff;fill-opacity:1;fill-rule:nonzero;stroke:none" />
    <path
       d="m 463.85846,433.08571 c 0,0 -4.71958,-3.86078 -0.8588,-12.43734 l 5.14898,5.57457 -1.2882,7.72157"
       id="path1358"
       style="fill:none;stroke:#1a5dad;stroke-width:0.8587963;stroke-linecap:butt;stroke-linejoin:miter;stroke-miterlimit:4;stroke-opacity:1;stroke-dasharray:none" />
    <path
       d="m 362.65349,449.38384 4.29018,0.4294 3.85699,7.28837 -1.2844,6.43337 -11.58235,-3.00199 c 0,0 -5.57457,0 4.71958,-11.14915"
       id="path1362"
       style="fill:#ffffff;fill-opacity:1;fill-rule:nonzero;stroke:none" />
    <path
       d="m 411.96968,504.704 c 0,0 3.47318,-0.63839 4.71958,-1.28439 0,0 -3.93298,2.92979 -5.14518,2.78539 -1.21979,-0.1444 0.4256,-1.501 0.4256,-1.501"
       id="path1366"
       style="fill:#1a5dad;fill-opacity:1;fill-rule:nonzero;stroke:none" />
  </g>
</svg>
