<?xml version="1.0" encoding="UTF-8" standalone="no"?>
<svg
   xmlns:dc="http://purl.org/dc/elements/1.1/"
   xmlns:cc="http://creativecommons.org/ns#"
   xmlns:rdf="http://www.w3.org/1999/02/22-rdf-syntax-ns#"
   xmlns:svg="http://www.w3.org/2000/svg"
   xmlns="http://www.w3.org/2000/svg"
   xmlns:sodipodi="http://sodipodi.sourceforge.net/DTD/sodipodi-0.dtd"
   xmlns:inkscape="http://www.inkscape.org/namespaces/inkscape"
   version="1.1"
   width="400"
   height="400"
   id="svg3132"
   inkscape:version="0.91 r13725"
   sodipodi:docname="London_Wasps_logo.svg"
   viewBox="0 0 400 400">
  <metadata
     id="metadata5156">
    <rdf:RDF>
      <cc:Work
         rdf:about="">
        <dc:format>image/svg+xml</dc:format>
        <dc:type
           rdf:resource="http://purl.org/dc/dcmitype/StillImage" />
        <dc:title></dc:title>
      </cc:Work>
    </rdf:RDF>
  </metadata>
  <sodipodi:namedview
     pagecolor="#ffffff"
     bordercolor="#666666"
     borderopacity="1"
     objecttolerance="10"
     gridtolerance="10"
     guidetolerance="10"
     inkscape:pageopacity="0"
     inkscape:pageshadow="2"
     inkscape:window-width="3840"
     inkscape:window-height="2086"
     id="namedview5154"
     showgrid="false"
     fit-margin-top="0"
     fit-margin-left="0"
     fit-margin-right="0"
     fit-margin-bottom="0"
     inkscape:zoom="0.94711931"
     inkscape:cx="-128.4708"
     inkscape:cy="254.96918"
     inkscape:window-x="3200"
     inkscape:window-y="0"
     inkscape:window-maximized="1"
     inkscape:current-layer="layer5" />
  <defs
     id="defs3134">
    <clipPath
       id="clipPath402-8-3">
      <path
         inkscape:connector-curvature="0"
         d="m 497.1081,154.2981 c 0,0 7.7357,13.7774 13.3793,18.8949 6.3466,5.7554 20.948,16.1422 18.8946,6.8228 -2.1842,-9.9122 -0.3556,-10.2343 -0.3556,-10.2343 0,0 11.0352,5.0435 9.9364,-0.712 -0.8891,-4.6572 -2.4245,-4.5995 -2.491,-7.8014 -0.0891,-4.3012 2.3229,-9.0069 -7.179,-8.6911 -21.4164,0.7117 -26.6075,-4.657 -26.8739,-4.0344 -0.7098,1.6554 -5.3108,5.7555 -5.3108,5.7555"
         id="path404-8-1" />
    </clipPath>
    <clipPath
       id="clipPath418-2-3">
      <path
         inkscape:connector-curvature="0"
         d="m 499.2739,140.3853 c 0,0 -2.0461,-3.6476 -0.9782,-7.1478 1.0673,-3.5006 1.423,-5.0128 1.1565,-8.2469 -0.267,-3.2331 -0.0309,-8.2464 1.5122,-10.8569 1.5431,-2.611 3.5006,-7.949 2.611,-9.2252 -0.8901,-1.2761 12.2804,6.0498 12.2804,19.6064 0,13.5572 -11.716,18.5702 -12.903,18.4811 -1.1875,-0.0888 -3.6789,-2.6107 -3.6789,-2.6107"
         id="path420-4-2" />
    </clipPath>
  </defs>
  <g
     inkscape:groupmode="layer"
     inkscape:label="Vector"
     style="display:inline"
     transform="translate(-0.9881387,-82.5)"
     id="layer5">
    <g
       transform="matrix(0.80881361,0,0,0.80881361,-48.587455,-124.32107)"
       id="layer1"
       preserveAspectRatio="xMaxYMax meet">
      <path
         d="m 297.36922,655.3912 c -7.58719,0.002 -13.65536,2.17049 -18.25,6.46875 -4.59823,4.2987 -6.90625,9.68555 -6.90625,16.15625 0,4.88789 1.9308,9.32605 5.8125,13.375 2.09667,2.13074 4.91002,4.25919 8.4375,6.34375 l 11.71875,6.8125 c 6.73749,3.9243 11.15244,6.88205 13.25,8.84375 3.21271,3.08985 4.84375,6.7014 4.84375,10.875 0,4.63589 -1.63104,8.25789 -4.84375,10.84375 -3.16832,2.58855 -6.93981,3.875 -11.3125,3.875 -6.53472,0 -13.70575,-1.9378 -19.09375,-5.84375 -0.74187,-1.32566 -1.52333,-2.83967 -2.40625,-4.71875 l -34.125,-72.71875 -2.6875,0 -28.59375,62.9375 c -4.28705,9.4359 -7.30961,15.21525 -9.09375,17.34375 -1.74199,2.13074 -4.38102,3.3756 -7.90625,3.75 l 0,2.3125 27.1875,0 0,-2.3125 c -3.21495,-0.24975 -5.40386,-0.6237 -6.5625,-1.125 -1.87471,-0.83669 -2.8125,-2.33025 -2.8125,-4.5 0,-1.0842 0.331,-2.5375 1,-4.375 0.71294,-1.87651 2.86743,-7.0151 6.4375,-15.40625 l 35.875,0 5.6875,12.3125 c 0.80351,1.75634 1.42796,3.44575 1.875,5.03125 0.4457,1.58775 0.65625,2.68386 0.65625,3.3125 -0.003,1.87651 -0.55966,3.06299 -1.71875,3.5625 -1.16088,0.46229 -3.76548,0.85704 -7.78125,1.1875 l 0,2.3125 33.6875,0 c 3.97118,1.12601 7.79737,1.6875 11.46875,1.6875 8.43375,0 15.3496,-2.241 20.75,-6.75 5.44299,-4.50631 8.15625,-10.1233 8.15625,-16.84375 -0.002,-5.0103 -1.5287,-9.3567 -4.5625,-13.03125 -3.08043,-3.63061 -8.39739,-7.59485 -15.9375,-11.9375 l -12.03125,-6.96875 c -4.5081,-2.58586 -7.8259,-5.05969 -9.96875,-7.4375 -2.14151,-2.3388 -3.21875,-5.16861 -3.21875,-8.46875 0,-3.66962 1.3879,-6.5174 4.15625,-8.5625 2.8105,-2.0868 6.09522,-3.125 9.84375,-3.125 4.81973,0 9.68434,1.6188 14.59375,4.875 4.9538,3.25889 8.51792,8.99619 10.75,17.21875 l 3.28125,0 -3,-27.3125 -2.8125,0 c -0.35647,1.377 -0.86091,2.43645 -1.53125,3.1875 -0.6255,0.7515 -1.80778,1.125 -3.5,1.125 -0.62774,0 -3.14363,-0.70406 -7.5625,-2.125 -4.37359,-1.46085 -8.12607,-2.1875 -11.25,-2.1875 z m 131.71875,0 c -7.58495,0.002 -13.65312,2.17049 -18.25,6.46875 -4.59868,4.2987 -6.90625,9.68555 -6.90625,16.15625 0,4.88789 1.92766,9.32605 5.8125,13.375 2.09353,2.13074 4.91092,4.25919 8.4375,6.34375 l 11.71875,6.8125 c 6.73929,3.9243 11.15378,6.88205 13.25,8.84375 3.2145,3.08985 4.84375,6.7014 4.84375,10.875 0,4.63589 -1.62925,8.25789 -4.84375,10.84375 -3.16832,2.58855 -6.94026,3.875 -11.3125,3.875 -8.07952,0 -14.83646,-2.9681 -20.28125,-8.9375 -3.12213,-3.42479 -5.83584,-8.02214 -8.15625,-13.78125 l -3.15625,0 4.09375,27.28125 3,0 c 0.17801,-1.04206 0.55748,-2.01965 1.09375,-2.9375 0.57977,-0.9174 1.67288,-1.375 3.28125,-1.375 0.6681,0 3.27408,0.7479 7.875,2.25 4.63858,1.5021 9.10334,2.25 13.34375,2.25 8.43509,0 15.34916,-2.241 20.75,-6.75 5.44255,-4.50631 8.15625,-10.1233 8.15625,-16.84375 -0.002,-5.0103 -1.52825,-9.3567 -4.5625,-13.03125 -3.08312,-3.63061 -8.39649,-7.59485 -15.9375,-11.9375 l -12.03125,-6.96875 c -4.509,-2.58586 -7.82635,-5.05969 -9.96875,-7.4375 -2.13971,-2.3388 -3.21875,-5.16861 -3.21875,-8.46875 0,-3.66962 1.3879,-6.5174 4.15625,-8.5625 2.81005,-2.0868 6.09298,-3.125 9.84375,-3.125 4.81839,0 9.68524,1.6188 14.59375,4.875 4.95515,3.25889 8.51792,8.99619 10.75,17.21875 l 3.28125,0 -3,-27.3125 -2.8125,0 c -0.35826,1.377 -0.86091,2.43645 -1.53125,3.1875 -0.62371,0.7515 -1.80599,1.125 -3.5,1.125 -0.62595,0 -3.14363,-0.70406 -7.5625,-2.125 -4.37224,-1.46085 -8.12563,-2.1875 -11.25,-2.1875 z m -327.5625,1.8125 0,2.375 c 4.01577,0.21029 6.96948,1.7559 8.84375,4.59375 1.91821,2.7984 5.32158,10.36205 10.1875,22.71875 l 11.78125,30 9.8125,26.65625 2.09375,0 21.09375,-54.28125 16.3125,39.46875 5.5625,14.8125 2.0625,0 8.25,-23.28125 5.6875,-14.71875 14.59375,-38.125 c 1.16043,-2.96295 2.8961,-5.03935 5.21875,-6.25 1.29181,-0.70756 3.16873,-1.2588 5.625,-1.59375 l 0,-2.375 -27.1875,0 0,2.375 c 2.67778,0.0856 4.69281,0.42575 6.03125,0.96875 2.41009,0.91965 3.625,2.55969 3.625,4.9375 -0.002,0.6681 -0.12269,1.5408 -0.34375,2.625 -0.35781,1.92269 -1.01982,4.10129 -2,6.5625 l -17.15625,43.53125 -19.8125,-48.09375 c -0.71563,-1.7541 -1.16529,-2.8945 -1.34375,-3.4375 -0.17936,-0.58246 -0.25,-1.24895 -0.25,-2 0,-2.21145 1.00753,-3.66341 3.0625,-4.375 1.29315,-0.4161 3.6564,-0.67481 7.09375,-0.71875 l 0,-2.375 -36.65625,0 0,2.375 c 2.90018,0.0439 5.04063,0.38629 6.46875,0.96875 2.41054,0.96135 4.23223,2.8492 5.4375,5.6875 l 6.5,15.46875 -14.59375,36.1875 -19.8125,-48.21875 c -0.49188,-1.25235 -0.88901,-2.2702 -1.15625,-3.0625 -0.22464,-0.79275 -0.3125,-1.60081 -0.3125,-2.4375 0,-1.87875 1.00888,-3.16341 3.0625,-3.875 1.15909,-0.3744 3.08943,-0.63311 5.8125,-0.71875 l 0,-2.375 z m 227.15625,0 0,2.375 c 4.90627,0.37889 8.07412,1.2996 9.5,2.71875 1.47475,1.42094 2.1875,4.3452 2.1875,8.8125 l 0,55.53125 c -0.003,5.30354 -0.64345,8.71665 -1.9375,10.21875 -1.29405,1.4604 -4.52941,2.41719 -9.75,2.875 l 0,2.3125 38.34375,0 0,-2.3125 c -5.48873,-0.3744 -9.04788,-1.1847 -10.65625,-2.4375 -1.56219,-1.25235 -2.34375,-4.3123 -2.34375,-9.15625 l 0,-23.28125 c 1.1138,0.002 2.81728,0.0421 5.09375,0.125 2.31996,0.0439 4.21544,0.0625 5.6875,0.0625 10.26317,0 18.82953,-1.94846 25.65625,-5.875 6.82896,-3.92385 10.21875,-10.24489 10.21875,-18.96875 0,-6.88905 -3.06013,-12.4387 -9.21875,-16.65625 -6.15862,-4.2153 -15.05508,-6.34375 -26.65625,-6.34375 z m 31.5,4.78125 c 5.93488,0.002 10.86785,0.7877 14.75,2.375 7.22893,2.9235 10.84375,8.31034 10.84375,16.15625 0,8.34945 -3.28247,14.0456 -9.84375,17.09375 -3.61446,1.66846 -8.58455,2.5 -14.875,2.5 -0.71877,0 -1.42972,-0.0186 -2.1875,-0.0625 -0.76047,-0.0395 -2.39196,-0.16426 -4.84375,-0.375 l 0,-33.4375 c 0,-1.7958 0.3111,-2.9362 0.9375,-3.4375 0.67034,-0.54076 2.40645,-0.8125 5.21875,-0.8125 z m -120.65625,11.8125 15.875,35.3125 -31.53125,0 z"
         id="path388"
         style="fill:#000000;fill-opacity:1;fill-rule:evenodd;stroke:none"
         inkscape:connector-curvature="0"
         sodipodi:nodetypes="ccsccccscscccccccccccsccccccccccsccccccscsccccccsccccsccccscsccccccscsccccccscsccccccsccccccccccccccccccccccccccccscccccccccccscccccccscccccccsccscscscccscsccscccccc" />
      <path
         inkscape:connector-curvature="0"
         d="m 99.169524,464.54731 c 8.423436,-53.18789 99.747266,-82.92146 203.980206,-66.41044 104.23429,16.51103 181.90198,73.01163 173.4763,126.20132 -8.42164,53.18969 -99.74502,82.92056 -203.97841,66.41088 C 168.41333,574.23715 90.746986,517.7379 99.169524,464.54731"
         id="path390"
         style="fill:#fbb400;fill-opacity:1;fill-rule:nonzero;stroke:none" />
      <path
         inkscape:connector-curvature="0"
         d="m 99.169524,464.54731 c 8.423436,-53.18789 99.747266,-82.92146 203.980206,-66.41044 104.23429,16.51103 181.90198,73.01163 173.4763,126.20132 -8.42164,53.18969 -99.74502,82.92056 -203.97841,66.41088 C 168.41333,574.23715 90.746986,517.7379 99.169524,464.54731 Z"
         id="path392"
         style="fill:none;stroke:#231f20;stroke-width:5.17799568;stroke-linecap:butt;stroke-linejoin:miter;stroke-miterlimit:3.86369991;stroke-dasharray:none;stroke-opacity:1" />
      <path
         inkscape:connector-curvature="0"
         d="m 469.18172,262.23495 c -18.76537,-3.7e-4 -54.98672,20.61794 -80.5625,41.21875 -38.97038,31.39126 -71.96875,94.84375 -71.96875,94.84375 0,0 -30.97206,-19.70088 -55.84375,-15.3125 -2.00295,0.35333 -0.40642,-24.875 -31,-24.875 -6.59274,0.99446 -12.1634,2.42608 -16.90625,4.15625 -3.12056,-4.33392 -11.48728,-13.625 -26.03125,-13.625 -18.96058,0 -31.15625,14.5625 -31.15625,14.5625 0,0 -2.98963,5.35871 3.625,3.46875 7.37021,-2.1054 24.56018,-21.27248 45.21875,-0.625 -0.29,0.16131 -0.59419,0.30514 -0.875,0.46875 -2.36246,-1.6787 -6.49713,-3.9375 -11.8125,-3.9375 -8.50504,0 -24.19423,4.97384 -28.78125,13 -1.88996,3.30732 0.93384,5.98529 5.34375,3.9375 2.94652,-1.36807 12.53586,-11.13906 27.375,-7.09375 -9.94756,9.5464 -9.375,19.875 -9.375,19.875 0,24.07266 35.78125,25.6875 35.78125,25.6875 12.50377,0 18.90625,-2.8125 18.90625,-2.8125 0.63737,8.6587 5.49438,16.743 12.40625,23.875 -2.76391,4.41877 -9.26706,13.94769 -14.5625,15.0625 -3.27458,0.68962 -14.86241,0.0186 -16.3125,-0.34375 -1.44874,-0.3623 -4.33318,-4 -9.40625,-4 -5.07487,0 -7.96875,2.53125 -7.96875,2.53125 0,0 -10.90152,-0.007 -15.25,-1.09375 -4.34803,-1.08779 -11.21358,-6.14355 -15.5625,-5.78125 -4.34892,0.36364 -7.61241,1.79991 -9.0625,3.25 -1.45009,1.44874 -6.17097,1.44886 -10.15625,1.8125 -3.98707,0.36185 -23.55948,6.52417 -10.875,9.0625 12.68358,2.53654 16.66367,2.17345 19.5625,1.8125 2.90018,-0.36364 5.80822,1.4375 10.15625,1.4375 4.34892,0 7.25809,-2.5054 13.78125,-1.78125 6.52227,0.7246 12.6875,0.71875 12.6875,0.71875 0,0 4.71358,4.35555 9.0625,4.71875 4.34892,0.36095 11.95616,-0.36331 13.40625,-1.8125 1.45009,-1.44964 11.24427,-0.75 13.78125,-0.75 2.53654,0 10.1272,2.67536 12.6875,1.46875 5.5171,-2.59829 13.82165,-13.96319 15.59375,-16.4375 2.18292,1.57913 4.44265,3.08133 6.71875,4.5 -4.26624,5.33849 -15.8932,19.56777 -21.21875,22.53125 -6.52316,3.62881 -8.32016,1.09386 -14.125,2.90625 -5.80305,1.81239 -8.70031,3.62567 -10.875,7.25 -2.17469,3.62433 -7.23156,4.34375 -9.40625,4.34375 -2.17424,0 -6.90063,-2.54205 -11.25,-1.09375 -4.34892,1.45054 -8.34375,5.4375 -8.34375,5.4375 0,0 -10.51293,1.09375 -14.5,1.09375 -3.98663,0 -8.35128,-1.46875 -13.0625,-1.46875 -4.71122,0 -7.94773,0.72594 -19.1875,7.25 -11.24066,6.52182 3.2509,9.06969 10.5,8.34375 7.24776,-0.72549 29.72628,-3.25674 34.4375,-2.53125 4.70988,0.7237 11.59545,-0.0145 16.3125,-0.375 4.7166,-0.36499 8.33116,-3.98606 9.78125,-5.4375 1.44874,-1.44874 6.51956,-0.72381 7.96875,-1.8125 1.45009,-1.08824 10.17052,-2.51956 14.15625,-3.96875 3.98663,-1.45099 7.62646,-5.80047 9.4375,-9.0625 1.81239,-3.26024 12.32733,-8.70627 18.125,-11.96875 3.29527,-1.85313 8.63768,-7.06319 12.6875,-11.25 -0.4826,3.20887 -0.23464,7.52904 -0.71875,9.21875 -0.69635,2.42623 -2.60111,11.95974 -4.59375,13 -1.99174,1.04071 -4.86305,8.12965 -5.65625,12.375 -0.79455,4.24759 2.71875,9.8125 2.71875,9.8125 0,0 -1.69566,5.87063 -2.6875,12.28125 -0.99184,6.41331 -4.58854,8.5903 -5.78125,12.75 -1.19271,4.1597 0.007,7.3771 -1.1875,10.0625 -1.19361,2.68764 -2.68672,6.42021 -3.375,19.15625 -0.68738,12.73111 11.44571,-4.52478 12.9375,-8.25 1.49179,-3.72522 2.78951,-8.23875 4.78125,-9.28125 1.99174,-1.03981 4.47117,-3.80318 6.0625,-7.875 1.59088,-4.07182 -2.09016,-11.86507 -2.09375,-16.28125 -0.002,-4.42112 2.96875,-14.84375 2.96875,-14.84375 0,0 3.60865,-2.14709 5,-7 1.3918,-4.85291 -1.8125,-8.49579 -1.8125,-9.96875 -10e-4,-1.47341 2.4374,-12.71961 4.09375,-15.6875 1.51377,-2.71215 6.14566,-5.18316 10.90625,-7.09375 9.53548,0.73515 19.4375,0.28125 19.4375,0.28125 -16.49309,44.55462 6.92583,47.73383 0.40625,84.3125 -3.03784,17.04102 10.09446,38.57453 16.875,57.0625 6.78278,18.48797 1.59375,29.78125 1.59375,29.78125 0,0 77.5625,-17.2743 77.5625,-98.40625 0,-81.13239 -65.0625,-92.84375 -65.0625,-92.84375 -1.19944,-5.9833 -1.59375,-7.3125 -1.59375,-7.3125 24.46859,-7.57867 49.48264,-18.09375 133.40625,-18.09375 16.80831,0 26.4285,-15.11915 23.6875,-33 -4.7861,-31.25271 12.7252,-28.63388 9.71875,-51.3125 -4.35834,-32.90457 -46.3125,-14.125 -46.3125,-14.125 0,0 -1.56905,-12.49424 5.75,-40.15625 3.77905,-14.28696 -1.26427,-19.93731 -11.09375,-19.9375 z"
         id="path394"
         style="fill:#000000;fill-opacity:1;fill-rule:nonzero;stroke:none" />
      <path
         inkscape:connector-curvature="0"
         d="m 324.63832,403.87356 c 0,0 34.68603,-61.77634 59.9913,-84.72264 28.45746,-25.80658 93.92852,-72.37984 84.7213,-30.59268 -9.79371,44.44521 -1.59447,45.88947 -1.59447,45.88947 0,0 49.48062,-22.6145 44.55372,3.19253 -3.98663,20.88237 -10.87119,20.62365 -11.16937,34.98061 -0.39951,19.28611 10.41563,40.38595 -32.18984,38.96993 -96.02877,-3.19118 -119.30509,20.88148 -120.4996,18.08981 -3.18266,-7.42263 -23.81304,-25.80703 -23.81304,-25.80703"
         id="path396"
         style="fill:#92a0a9;fill-opacity:1;fill-rule:nonzero;stroke:none" />
      <g
         transform="matrix(4.4838895,0,0,-4.4838895,-1904.3394,1095.7292)"
         id="g398">
        <g
           clip-path="url(#clipPath402-8-3)"
           id="g400">
          <path
             inkscape:connector-curvature="0"
             d="m 593.0625,400.6875 c -9.17449,21.68005 -43.36754,59.05712 -44.5625,50.28125 -1.19944,-8.77587 17.5625,-36.1875 17.5625,-36.1875 -8.11853,4.52604 -20.09446,28.8715 -26.875,39.78125 -5.85641,9.41886 -19.28125,22.46597 -19.28125,17.28125 0,-13.65524 7.96875,-22.21875 7.96875,-22.21875 0,0 -5.99218,4.54103 -12.375,16.90625 -6.38057,12.36746 -37.78125,63.90625 -37.78125,63.90625 l 4.125,2.65625 c 66.77408,-66.37233 131.4375,-81.75 131.4375,-81.75 L 612.4375,441.25 c -52.27229,14.89727 -111.00946,64.42693 -104.25,53.46875 7.71902,-12.50377 6.92411,-10.09958 19.6875,-18.875 10.72771,-7.3742 9.01362,-7.44865 26.21875,-15.3125 C 584.64518,446.56797 590.25,438.0625 590.25,438.0625 c -9.76636,6.14921 -25.40625,11.5625 -25.40625,11.5625 24.07355,-25.40706 28.21875,-48.9375 28.21875,-48.9375 z m 55.0625,49.875 c -18.08801,18.88749 -57.48141,35.2439 -54.6875,28.0625 2.79167,-7.18005 17.3125,-20.46875 17.3125,-20.46875 -6.38057,1.99399 -24.07462,16.47709 -30.59375,23.65625 -6.52182,7.18005 -25.53125,11.0625 -25.53125,11.0625 13.16784,-23.96415 -5.9375,1.78125 -5.9375,1.78125 -23.07768,10.34971 -61.8125,44.0625 -61.8125,44.0625 l 3.84375,5.78125 c 0,0 3.9953,-7.24616 25.59375,-19.96875 20.91017,-12.31769 10.7467,-5.7784 38.96875,-6.125 32.58981,-0.39817 58.25089,-0.0163 72.75,-6 C 642.5308,506.4234 638,496.71875 638,496.71875 c -2.79167,10.50979 -23.0114,16.48797 -19.28125,12.5 3.7297,-3.98976 9.3125,-12.90625 9.3125,-12.90625 -20.87968,21.67916 -35.375,13.3125 -35.375,13.3125 l 7.96875,-13.6875 c 0,0 -6.38928,7.56475 -16.5,13.6875 -12.454,7.54011 -48.125,-1.59375 -48.125,-1.59375 14.49686,-7.97774 49.48418,-23.02362 74.75,-22.625 25.27075,0.39951 29.65625,-11.96875 29.65625,-11.96875 -10.11341,6.52137 -24.86925,6.77892 -15.15625,1.59375 9.71076,-5.18607 22.875,-24.46875 22.875,-24.46875 z"
             transform="matrix(0.22302066,0,0,-0.22302066,392.28414,270.44612)"
             id="path406"
             style="fill:#000000;fill-opacity:1;fill-rule:evenodd;stroke:none" />
        </g>
      </g>
      <g
         transform="matrix(4.4838895,0,0,-4.4838895,-1904.3394,1095.7292)"
         id="g410">
        <path
           inkscape:connector-curvature="0"
           d="m 499.2739,140.3853 c 0,0 -2.0461,-3.6476 -0.9782,-7.1478 1.0673,-3.5006 1.423,-5.0128 1.1565,-8.2469 -0.267,-3.2331 -0.0309,-8.2464 1.5122,-10.8569 1.5431,-2.611 3.5006,-7.949 2.611,-9.2252 -0.8901,-1.2761 12.2804,6.0498 12.2804,19.6064 0,13.5572 -11.716,18.5702 -12.903,18.4811 -1.1875,-0.0888 -3.6789,-2.6107 -3.6789,-2.6107"
           id="path412"
           style="fill:#000000;fill-opacity:1;fill-rule:nonzero;stroke:none" />
        <g
           id="g414">
          <g
             clip-path="url(#clipPath418-2-3)"
             id="g416">
            <path
               inkscape:connector-curvature="0"
               d="m 514.75,562.09375 c -7.30144,0.0136 -20.125,4.59375 -20.125,4.59375 l -17.28125,9.96875 -1.59375,13.6875 c 0,0 15.29812,6.78934 37.375,-15.6875 9.65883,-9.83362 7.30389,-12.57311 1.625,-12.5625 z m 9.9375,23.46875 c -27.00422,28.59959 -53.0625,24.09375 -53.0625,24.09375 l 3.3125,12.09375 c 45.88947,1.19675 58.25,-29 58.25,-29 l -8.5,-7.1875 z m 20.09375,21.28125 c -25.80434,31.79078 -66.65625,29.8125 -66.65625,29.8125 l -0.78125,7.96875 c 37.37591,13.70187 73.53125,-24.46875 73.53125,-24.46875 l -6.09375,-13.3125 z m 10.5,31 c -30.45189,34.582 -76.75,26.875 -76.75,26.875 l 0,8.5 c 47.08667,13.30191 78.75,-18.875 78.75,-18.875 l -2,-16.5 z m -2.40625,43.75 c -41.76205,21.27964 -71.9375,10.125 -71.9375,10.125 l 2.78125,11.15625 c 40.16489,7.97998 64.25,-4.375 64.25,-4.375 l 4.90625,-16.90625 z m -56.71875,39.875 1.59375,23.78125 17.28125,-8.90625 14.75,-14.875 c -12.50512,9.17449 -33.625,0 -33.625,0 z"
               id="path422"
               style="fill:#fbb400;fill-opacity:1;fill-rule:nonzero;stroke:none"
               transform="matrix(0.22302066,0,0,-0.22302066,392.28414,270.44612)" />
          </g>
        </g>
        <path
           inkscape:connector-curvature="0"
           d="m 472.9026,159.889 c 0,0.467 0.5446,0.8453 1.2163,0.8453 0.6722,0 1.2165,-0.3783 1.2165,-0.8453 0,-0.4666 -0.5443,-0.8449 -1.2165,-0.8449 -0.6717,0 -1.2163,0.3783 -1.2163,0.8449"
           id="path434"
           style="fill:#ffffff;fill-opacity:1;fill-rule:nonzero;stroke:none" />
      </g>
    </g>
  </g>
</svg>
