<?xml version="1.0" encoding="UTF-8" standalone="no"?>
<svg
   xmlns:dc="http://purl.org/dc/elements/1.1/"
   xmlns:cc="http://creativecommons.org/ns#"
   xmlns:rdf="http://www.w3.org/1999/02/22-rdf-syntax-ns#"
   xmlns:svg="http://www.w3.org/2000/svg"
   xmlns="http://www.w3.org/2000/svg"
   xmlns:sodipodi="http://sodipodi.sourceforge.net/DTD/sodipodi-0.dtd"
   xmlns:inkscape="http://www.inkscape.org/namespaces/inkscape"
   id="svg3788"
   viewBox="0 0 69 85"
   height="85"
   width="69"
   version="1.1"
   inkscape:version="0.91 r13725"
   sodipodi:docname="London_Welsh.svg">
  <sodipodi:namedview
     pagecolor="#ffffff"
     bordercolor="#666666"
     borderopacity="1"
     objecttolerance="10"
     gridtolerance="10"
     guidetolerance="10"
     inkscape:pageopacity="0"
     inkscape:pageshadow="2"
     inkscape:window-width="1920"
     inkscape:window-height="1014"
     id="namedview6037"
     showgrid="false"
     inkscape:zoom="7.8530447"
     inkscape:cx="-17.414484"
     inkscape:cy="41.451565"
     inkscape:window-x="0"
     inkscape:window-y="27"
     inkscape:window-maximized="1"
     inkscape:current-layer="svg3788" />
  <metadata
     id="metadata3794">
    <rdf:RDF>
      <cc:Work
         rdf:about="">
        <dc:format>image/svg+xml</dc:format>
        <dc:type
           rdf:resource="http://purl.org/dc/dcmitype/StillImage" />
        <dc:title></dc:title>
      </cc:Work>
    </rdf:RDF>
  </metadata>
  <defs
     id="defs3792">
    <linearGradient
       id="linearGradient6056">
      <stop
         offset="0"
         style="stop-color:#000000;stop-opacity:1"
         id="stop6058" />
    </linearGradient>
    <linearGradient
       id="linearGradient4616">
      <stop
         offset="0"
         style="stop-color:#508041;stop-opacity:1"
         id="stop4618" />
    </linearGradient>
  </defs>
  <g
     style="display:inline"
     id="layer2" />
  <g
     id="g4473"
     transform="matrix(0.08385923,0,0,0.0844976,0.48309037,-3.1121118e-6)">
    <path
       d="m 45.378,19.418 81.925,0.077 66.88,24.008 53.161,41.157 75.455,-6.86 41.158,3.43 51.445,10.29 54.877,22.293 c 0,0 138.903,3.43 228.078,101.178 l 6.859,24.008 c 0,0 -137.191,-41.157 -257.231,-27.438 0,0 10.288,-27.438 -30.868,-25.723 -41.156,1.715 0,-5.145 0,-5.145 l -197.209,15.434 -5.145,-20.579 c 0,0 -41.156,-24.007 -84.028,-3.43 0,0 -63.45,42.872 -84.029,5.145 L 45.378,19.418 Z"
       id="path4405"
       style="fill:#ffffff"
       inkscape:connector-curvature="0" />
    <g
       id="g4407">
      <g
         id="g4409">
        <path
           d="M 720.266,231.921 C 707.529,197.028 637.19,159.368 637.19,159.368 557.439,107.306 474.914,107.306 474.914,107.306 L 440.788,91.021 404.575,76.844 C 326.35,55.321 251.16,74.076 251.16,74.076 223.468,49.707 171.961,24.784 171.961,24.784 93.869,-6.232 54.302,14.444 54.302,14.444 56.24,8.075 48.454,4.292 48.454,4.292 31.839,-5.677 13.008,4.844 13.008,4.844 c -19.94,10.163 4.431,24.37 4.431,24.37 l 5.54,761.536 c -4.43,0.554 -7.754,2.767 -7.754,2.767 -4.984,7.755 6.092,9.417 6.092,9.417 l 28.245,0 c 8.861,-1.107 8.309,-7.752 8.309,-7.752 -1.661,-4.432 -9.416,-6.647 -9.416,-6.647 l 0,-600.92 c 22.708,33.785 79.2,-2.769 79.2,-2.769 50.953,-22.154 75.877,-2.77 75.877,-2.77 -2.215,14.953 11.077,22.708 11.077,22.708 27.138,4.431 96.368,-3.877 96.368,-3.877 109.66,-7.753 124.061,4.432 124.061,4.432 -3.321,16.062 3.322,19.938 3.322,19.938 129.599,-29.354 252,22.154 252,22.154 18.279,12.738 26.584,10.522 26.584,10.522 13.845,-5.538 3.322,-26.032 3.322,-26.032 z M 369.682,91.223 c 0,0 49.1,2.243 98.03,30.462 0,0 3.322,16.615 1.107,22.707 0,0 -15.251,-24.423 -99.432,-29.407 10e-4,-0.001 2.511,-14.347 0.295,-23.762 z M 47.898,28.638 c 0,0 122.953,-21.6 194.4,60.369 0,0 2.215,8.862 -0.554,19.385 0,0 -29.909,-20.492 -88.062,-21.047 C 35.159,97.868 52.422,92.32 47.898,92.884 l 0,-64.246 z m -2.52,-9.22 c 0,0 -3.511,2.487 -6.73,2.633 l -0.689,8.075 3.218,761.508 -9.936,-0.523 -6.602,-762.448 -0.556,-6.117 c 0,0 -12.792,-7.956 -4.162,-12.199 -1.493,1.019 9.577,-4.429 19.897,-1.17 0.001,0.001 10.096,3.511 5.56,10.241 z M 92.205,180.392 C 63.959,189.808 48.452,168.761 48.452,168.761 l -0.554,-42.646 c 27.138,13.291 56.491,0.554 56.491,0.554 59.262,-16.615 101.908,4.431 101.908,4.431 17.169,9.415 31.569,11.077 31.569,11.077 -4.431,21.046 -12.739,32.123 -12.739,32.123 -52.613,-40.43 -132.922,6.092 -132.922,6.092 z m 227.63,1.66 c 0,0 -68.676,11.631 -90.83,6.093 0,0 13.292,-13.293 17.723,-47.077 0,0 63.692,-7.755 82.522,0 l -9.415,40.984 z m 16.617,-67.568 c -19.384,-8.309 -85.845,-2.215 -85.845,-2.215 3.323,-7.199 0.554,-23.815 0.554,-23.815 61.008,-7.214 84.184,0 84.184,0 9.415,7.754 1.107,26.03 1.107,26.03 z m 108.551,79.753 c 0,0 -5.539,-16.061 -36.554,-15.507 l -54.829,1.662 c 0,0 8.862,-18.831 13.292,-34.892 0,0 59.818,-7.753 91.939,24.922 0,0 -3.879,17.169 -13.848,23.815 z m 234.277,31.016 c 0,0 -76.982,-40.431 -225.968,-22.154 0,0 16.615,-19.383 19.384,-28.246 0,0 100.249,-9.416 208.245,47.63 l -1.661,2.77 z m 7.201,-13.846 C 587.896,149.376 481.56,148.823 481.56,148.823 l -1.664,-26.03 c 109.11,3.878 207.692,85.292 207.692,85.292 l -1.107,3.322 z"
           id="path4411"
           style="fill:#e30613"
           inkscape:connector-curvature="0" />
      </g>
    </g>
    <path
       d="m 81.133,28.466 c 0,0 -3.526,17.412 -2.644,24.466 l -12.784,-0.22 -0.221,7.494 12.344,0.441 0.661,14.767 6.833,0.221 1.984,-16.09 12.564,-0.441 -0.662,-5.951 -13.005,-1.323 -1.982,-24.025 -2.866,0"
       id="path4413"
       style="fill:#e30613"
       inkscape:connector-curvature="0" />
    <g
       id="g4415">
      <g
         id="g4417">
        <path
           d="m 775.138,687.979 c 0,-12.02 -16.695,-15.359 -16.695,-15.359 -42.071,3.34 -47.414,-20.034 -47.414,-20.034 -19.368,-46.077 -12.689,-94.159 -12.689,-94.159 -3.338,-14.023 -14.022,0.669 -14.022,0.669 l -20.701,19.364 c -22.703,12.687 -38.733,2.003 -38.733,2.003 10.017,-34.057 -8.68,-74.125 -8.68,-74.125 20.701,-54.759 56.097,-46.745 56.097,-46.745 -27.381,38.732 -1.34,58.766 -1.34,58.766 28.717,22.703 50.754,-1.335 50.754,-1.335 32.723,-30.719 -2.004,-64.109 -2.004,-64.109 20.09,-12.683 10.685,-65.443 10.685,-65.443 8.684,-2.672 41.406,6.677 41.406,6.677 18.031,-2.671 2.669,-17.362 2.669,-17.362 l -24.71,-13.356 c -27.377,-14.024 -54.758,-52.756 -54.758,-52.756 -3.341,-3.338 -4.674,1.336 -4.674,1.336 l 0,16.026 c 2.005,40.735 -15.359,78.8 -15.359,78.8 -8.683,18.699 2.002,18.698 2.002,18.698 6.014,4.675 10.685,-0.667 10.685,-0.667 1.337,-9.35 24.042,-30.72 24.042,-30.72 0,0 -0.137,0.589 0,1.336 8.14,45.386 -17.363,43.406 -17.363,43.406 -62.104,-18.031 -103.507,35.393 -103.507,35.393 -38.065,-16.026 -58.099,22.037 -58.099,22.037 -28.048,-2.004 -42.074,28.047 -42.074,28.047 -16.026,-8.014 -20.701,-6.01 -20.701,-6.01 2.002,-4.675 -1.333,-12.688 -1.333,-12.688 -2.005,-32.054 -48.75,-78.132 -48.75,-78.132 53.424,2.67 60.103,30.051 60.103,30.051 -26.712,18.698 -0.668,54.091 -0.668,54.091 6.676,12.021 13.354,-2.671 13.354,-2.671 6.679,-17.364 22.038,-17.362 22.038,-17.362 14.022,4.008 10.685,-9.349 10.685,-9.349 -10.685,-7.345 -23.371,-24.04 -23.371,-24.04 -15.358,-31.386 -68.783,-40.069 -68.783,-40.069 -20.033,-2.003 -35.395,0.668 -35.395,0.668 -7.348,6.011 4.674,15.36 4.674,15.36 20.704,14.023 33.391,40.067 33.391,40.067 -8.684,0.667 -15.359,14.692 -15.359,14.692 -6.567,26.974 8.016,36.06 8.016,36.06 7.344,0.668 14.22,-11.344 14.22,-11.344 4.675,-5.342 8.483,-1.343 8.483,-1.343 l 1.683,6.143 c -7.347,-0.669 -27.059,18.564 -27.059,18.564 -18.7,10.017 -17.363,-10.017 -17.363,-10.017 14.022,-53.423 -24.708,-108.85 -24.708,-108.85 l 26.712,-16.026 c 4.675,11.353 34.725,8.681 34.725,8.681 43.407,-0.667 76.13,13.356 76.13,13.356 -24.042,18.03 -6.679,39.4 -6.679,39.4 5.342,3.338 12.689,11.352 12.689,11.352 5.342,12.021 13.354,1.336 13.354,1.336 14.022,-16.027 35.392,-19.367 35.392,-19.367 9.349,-3.338 3.338,-12.688 3.338,-12.688 l -7.344,-6.011 C 532.732,395.483 446.585,400.825 446.585,400.825 l -0.668,-3.339 c 8.681,0 16.027,-4.675 16.027,-4.675 15.359,-8.014 54.761,-10.686 54.761,-10.686 49.414,0.668 78.799,-8.013 78.799,-8.013 l 0,17.363 c -32.054,-1.335 -34.059,17.362 -34.059,17.362 -6.008,22.705 29.385,33.39 29.385,33.39 0.668,10.017 10.685,9.349 10.685,9.349 11.354,-4.008 4.675,-12.021 4.675,-12.021 -3.342,-3.34 -0.669,-8.013 -0.669,-8.013 3.338,-8.682 38.733,-10.018 38.733,-10.018 14.022,-2.003 7.344,-14.691 7.344,-14.691 l -5.342,-10.685 c 1.333,-6.01 2.004,-39.4 2.004,-39.4 2.002,-11.353 36.729,-44.075 36.729,-44.075 4.007,-17.363 -10.685,-6.009 -10.685,-6.009 -52.091,52.755 -124.208,54.091 -124.208,54.091 -112.19,4.673 -174.966,48.75 -174.966,48.75 -22.704,18.03 -14.691,26.711 -14.691,26.711 2.671,34.725 -30.718,38.064 -30.718,38.064 -10.686,-2.004 -43.407,0 -43.407,0 -12.688,0 -12.02,-6.678 -12.02,-6.678 2.671,-26.712 -3.339,-33.389 -3.339,-33.389 5.342,-6.011 4.006,-32.055 4.006,-32.055 -5.342,-7.346 -4.673,-20.035 -4.673,-20.035 0.668,-7.346 6.677,-0.667 6.677,-0.667 l 0.668,13.357 4.673,14.022 c -8.014,14.692 2.672,20.702 2.672,20.702 -6.679,24.708 4.007,38.064 4.007,38.064 l 4.007,0 4.007,-9.349 c 7.345,9.349 20.034,9.349 20.034,9.349 35.393,6.01 34.725,-28.048 34.725,-28.048 -2.004,-4.675 2.671,-12.021 2.671,-12.021 20.033,-37.396 72.123,-52.755 72.123,-52.755 60.104,-23.373 158.268,-26.712 158.268,-26.712 6.008,-51.42 52.088,-81.471 52.088,-81.471 6.011,-8.681 -7.348,-8.013 -7.348,-8.013 -44.076,26.05 -188.32,68.789 -188.32,68.789 -80.805,30.05 -101.506,65.444 -101.506,65.444 -14.024,20.034 -7.345,34.725 -7.345,34.725 8.013,8.014 9.349,17.363 9.349,17.363 -3.339,22.705 -24.041,15.359 -24.041,15.359 -8.682,-2.671 -8.014,-7.346 -8.014,-7.346 24.041,7.346 22.706,-8.013 22.706,-8.013 0.667,-13.355 -15.359,-10.685 -15.359,-10.685 -5.343,-0.668 -8.682,-6.678 -8.682,-6.678 -5.342,-5.342 6.678,-10.685 6.678,-10.685 10.684,-4.675 7.346,-14.691 7.346,-14.691 6.679,-2.003 12.688,-12.689 12.688,-12.689 6.678,-18.03 42.739,-52.087 42.739,-52.087 4.674,-10.018 -3.339,-9.35 -3.339,-9.35 l -15.359,7.346 c -10.017,6.011 -24.041,8.014 -24.041,8.014 -8.681,0 -24.041,9.349 -24.041,9.349 l -12.021,6.678 c -4.006,0 -7.346,-9.35 -7.346,-9.35 0,0 6.679,2.004 9.349,2.671 2.67,0.668 8.014,-3.339 10.018,-4.673 2.004,-1.336 22.037,-9.349 22.037,-9.349 5.342,-2.671 15.359,-12.021 15.359,-12.021 2.003,-8.014 24.708,-27.379 24.708,-27.379 9.35,-13.356 -7.344,-10.019 -7.344,-10.019 -13.357,2.003 -44.744,18.031 -44.744,18.031 -14.692,7.345 -33.389,38.064 -33.389,38.064 -10.686,-15.359 -28.048,-9.348 -28.048,-9.348 -10.017,0 -28.716,-12.021 -28.716,-12.021 -17.363,-8.682 -24.708,-1.336 -24.708,-1.336 -31.385,14.691 -68.783,0 -68.783,0 -10.685,-3.338 -11.351,6.679 -11.351,6.679 l 4.675,8.681 c 0,-5.342 5.342,-0.667 5.342,-0.667 0,7.346 -8.014,4.007 -8.014,4.007 l 0.669,7.346 c 8.681,10.685 59.433,20.701 59.433,20.701 l 0,2.671 -11.353,1.336 c -9.348,4.007 -26.043,1.334 -26.043,1.334 -8.015,-2.003 -22.706,-8.681 -22.706,-8.681 l -1.335,-10.685 c -2.004,-4.006 -7.345,-1.335 -7.345,-1.335 -4.007,6.678 -16.028,9.349 -16.028,9.349 -15.359,2.003 -16.026,4.007 -16.026,4.007 -11.353,6.678 2.671,6.678 2.671,6.678 19.366,-1.334 28.715,12.688 28.715,12.688 11.352,2.671 11.353,-8.681 11.353,-8.681 21.369,11.352 47.414,4.675 47.414,4.675 22.705,-2.004 23.372,5.342 23.372,5.342 0.667,14.691 -28.047,7.345 -28.047,7.345 -14.024,-5.342 -25.376,-4.007 -25.376,-4.007 -16.693,2.671 -12.02,17.363 -12.02,17.363 7.346,8.015 2.672,15.36 2.672,15.36 -10.685,18.699 2.671,18.03 2.671,18.03 14.023,8.014 20.033,-12.688 20.033,-12.688 l 4.675,-2.003 c 59.434,4.007 89.483,-24.041 89.483,-24.041 9.35,-8.013 2.671,6.011 2.671,6.011 -6.01,12.021 -38.731,28.047 -38.731,28.047 -17.364,12.021 7.346,21.37 7.346,21.37 -4.007,5.342 -32.723,11.353 -32.723,11.353 -15.359,2.671 -5.342,8.681 -5.342,8.681 4.674,18.03 24.041,16.027 24.041,16.027 31.386,1.335 49.417,-26.712 49.417,-26.712 4.675,50.752 -30.72,63.439 -30.72,63.439 l 0,6.679 c 6.01,4.005 -4.006,16.694 -4.006,16.694 -10.017,7.346 -20.034,20.034 -20.034,20.034 -4.675,3.34 -10.685,14.024 -10.685,14.024 -7.345,3.34 -4.006,-4.676 -4.006,-4.676 l 9.349,-12.02 c 2.671,-12.021 23.372,-36.062 23.372,-36.062 l 1.336,-8.013 c 21.369,-10.685 29.383,-39.4 29.383,-39.4 2.003,-6.01 -4.675,-4.007 -4.675,-4.007 l -12.688,10.685 c -20.034,18.03 -52.088,12.688 -52.088,12.688 -24.708,1.336 -19.366,20.035 -19.366,20.035 3.339,28.046 41.403,8.013 41.403,8.013 l 2.004,3.339 c -16.026,18.03 -40.736,9.351 -40.736,9.351 -4.006,-16.696 -17.363,-6.679 -17.363,-6.679 -14.691,13.355 -19.366,-4.007 -19.366,-4.007 1.335,-19.367 -14.023,-38.731 -14.023,-38.731 6.677,-20.034 -2.671,-77.465 -2.671,-77.465 -0.669,-9.349 -14.023,-8.682 -14.023,-8.682 -8.682,-12.021 -20.034,-10.017 -20.034,-10.017 -26.044,2.671 -16.027,16.695 -16.027,16.695 21.37,0.667 20.702,10.017 20.702,10.017 1.336,13.357 11.352,17.362 11.352,17.362 2.67,9.349 -3.338,15.359 -3.338,15.359 L 87.31,450.91 c -8.014,-4.008 -12.688,-13.356 -12.688,-13.356 -0.668,-6.01 -7.346,-9.349 -7.346,-9.349 l -12.021,-2.671 c -6.011,-7.345 -29.382,-1.335 -29.382,-1.335 -10.685,6.01 -14.692,23.372 -14.692,23.372 l 18.03,1.336 c 22.705,-9.349 16.027,0.667 16.027,0.667 16.026,-1.336 19.365,10.685 19.365,10.685 l 14.024,2.003 c 12.688,6.011 2.671,12.021 2.671,12.021 l -28.047,2.004 C 38.559,464.266 25.203,472.948 25.203,472.948 2.497,482.297 1.831,507.673 1.831,507.673 c -1.335,20.032 7.346,9.349 7.346,9.349 16.694,-28.048 41.403,-13.356 41.403,-13.356 11.352,-18.03 32.722,-15.359 32.722,-15.359 l 1.336,11.353 c -2.004,15.36 -20.035,18.698 -20.035,18.698 -16.027,4.675 -20.7,24.04 -20.7,24.04 -10.017,12.021 -24.041,0 -24.041,0 -10.017,13.355 14.691,26.712 14.691,26.712 19.367,19.364 33.39,-13.356 33.39,-13.356 14.691,0.668 16.026,-6.677 16.026,-6.677 -1.335,-10.017 3.339,-19.367 3.339,-19.367 4.006,-7.347 8.014,1.335 8.014,1.335 l 4.674,10.017 c -6.01,17.362 3.338,45.41 3.338,45.41 6.678,16.695 16.028,80.136 16.028,80.136 0,15.359 10.684,4.675 10.684,4.675 1.335,-9.351 14.024,-21.37 14.024,-21.37 -0.667,-15.358 18.03,-29.383 18.03,-29.383 9.902,13.027 26.24,14.068 32.941,13.896 -10.858,2.391 -23.592,22.166 -23.592,22.166 -15.359,0 -14.691,17.361 -14.691,17.361 -13.355,-0.668 -11.353,12.689 -11.353,12.689 -9.349,0 -12.718,15.57 -12.718,15.57 -6.011,1.335 -9.413,10.982 -9.413,10.982 -14.023,-34.727 -45.316,-23.883 -45.316,-23.883 -10.684,-7.346 -21.37,8.682 -21.37,8.682 -34.057,-2.003 -37.396,23.373 -37.396,23.373 -6.679,27.38 8.681,14.691 8.681,14.691 12.02,-13.355 21.37,0 21.37,0 20.033,17.364 38.732,0 38.732,0 l -7.345,12.688 c -43.407,12.687 -18.03,32.721 -18.03,32.721 0,18.03 12.021,12.689 12.021,12.689 -2.003,-19.366 8.681,-20.701 8.681,-20.701 47.295,28.112 62.105,-23.373 62.105,-23.373 13.355,-17.361 38.064,-6.011 38.064,-6.011 33.39,11.352 42.07,-6.679 42.07,-6.679 4.007,0 7.345,10.687 7.345,10.687 4.674,10.019 8.682,-2.673 8.682,-2.673 l 6.01,-12.688 C 249.582,707.341 222.203,712.682 222.203,712.682 216.861,700.662 190.816,704 190.816,704 l 2.003,-5.342 c 37.396,-35.395 71.455,-32.054 71.455,-32.054 10.686,2.67 16.694,0 16.694,0 11.353,-6.677 -4.674,-20.701 -4.674,-20.701 -11.352,-9.35 -6.679,-20.033 -6.679,-20.033 12.021,-2.004 46.746,-24.041 46.746,-24.041 -7.345,27.379 -32.722,24.708 -32.722,24.708 -13.355,-0.668 -6.01,10.685 -6.01,10.685 2.671,16.025 40.067,16.695 40.067,16.695 17.362,14.692 36.062,-12.02 36.062,-12.02 48.748,-11.352 87.481,-41.404 87.481,-41.404 l 0.668,2.671 c -22.703,28.049 20.701,45.411 20.701,45.411 l -0.668,5.342 -35.393,13.356 c -13.354,-1.335 -22.037,20.033 -22.037,20.033 -9.352,8.682 -30.72,-2.003 -30.72,-2.003 -20.033,-9.351 -28.047,-1.337 -28.047,-1.337 -4.674,-6.677 -13.356,-4.006 -13.356,-4.006 -22.706,2.003 -17.363,24.039 -17.363,24.039 0,9.349 8.681,2.673 8.681,2.673 11.353,-12.02 19.367,-4.676 19.367,-4.676 -8.681,1.335 -12.688,12.689 -12.688,12.689 -11.353,-4.674 -19.366,5.343 -19.366,5.343 -10.685,20.033 2.671,32.053 2.671,32.053 14.024,6.011 9.35,-5.343 9.35,-5.343 -0.667,-13.357 7.345,-12.02 7.345,-12.02 17.362,15.359 29.383,2.003 29.383,2.003 l 20.704,-20.701 c 11.353,-8.016 14.022,1.335 14.022,1.335 0,16.695 -16.696,19.366 -16.696,19.366 -12.689,4.008 -21.37,14.024 -21.37,14.024 -14.691,24.709 13.356,38.731 13.356,38.731 9.35,2.001 7.346,-5.343 7.346,-5.343 -10.687,-3.341 -6.009,-12.02 -6.009,-12.02 5.341,0 9.347,-4.006 9.347,-4.006 5.343,4.006 16.695,6.678 16.695,6.678 23.374,0 18.7,-48.75 18.7,-48.75 28.714,-8.016 44.072,10.018 44.072,10.018 16.027,12.021 20.701,1.335 20.701,1.335 14.026,-4.004 20.033,8.683 20.033,8.683 0,5.342 3.342,6.009 3.342,6.009 9.348,-0.669 8.68,-12.687 8.68,-12.687 4.675,-23.373 -23.371,-29.383 -23.371,-29.383 -12.021,-12.688 -39.401,-6.679 -39.401,-6.679 l -0.668,-4.007 c 8.684,-1.336 20.701,-9.35 20.701,-9.35 22.038,-14.024 46.749,-18.03 46.749,-18.03 13.354,-0.668 34.724,-4.008 34.724,-4.008 12.689,-6.677 0.668,-14.023 0.668,-14.023 l -9.349,-6.678 c -9.348,-13.357 -2.004,-27.38 -2.004,-27.38 2.673,-5.343 4.674,-2.002 4.674,-2.002 l 19.368,23.373 c 57.43,14.692 84.143,-2.005 84.143,-2.005 l 8.012,16.029 0.668,14.69 14.69,12.688 c 7.348,8.682 2.673,12.021 2.673,12.021 -10.017,4.006 -10.685,-4.676 -10.685,-4.676 -2.005,-8.016 -13.357,-22.704 -13.357,-22.704 -16.692,-17.364 -28.049,-3.34 -28.049,-3.34 -28.045,-8.68 -36.06,15.359 -36.06,15.359 -4.675,15.36 6.679,9.349 6.679,9.349 10.685,-9.351 24.707,-2.004 24.707,-2.004 l 0.668,3.34 c -8.68,11.352 -27.38,5.343 -27.38,5.343 -24.039,3.338 -18.697,28.047 -18.697,28.047 l 6.011,2.671 c 2.673,-12.02 15.359,-8.014 15.359,-8.014 21.369,35.394 58.767,4.008 58.767,4.008 -6.014,15.358 8.012,36.062 8.012,36.062 -14.748,43.995 30.718,43.404 30.718,43.404 6.014,-2.003 0.668,-8.68 0.668,-8.68 l -8.68,-2.672 c -9.349,-8.682 2.67,-22.036 2.67,-22.036 24.042,-4.008 20.704,-22.706 20.704,-22.706 0.668,-33.391 28.045,-34.058 28.045,-34.058 38.065,15.359 36.061,2.004 36.061,2.004 9.349,3.339 7.348,31.386 7.348,31.386 0.664,3.338 6.01,0.668 6.01,0.668 4.675,-4.674 14.023,-28.048 14.023,-28.048 4.009,-26.703 -23.371,-29.373 -23.371,-29.373 z M 695.874,466.9 c 4.706,-1.046 6.797,0.522 6.797,0.522 8.89,5.753 7.847,19.348 7.847,19.348 -1.569,17.256 -20.396,15.165 -20.396,15.165 -23.009,-17.256 5.752,-35.035 5.752,-35.035 z M 208.179,356.752 c -9.349,0 -6.01,-6.01 -6.01,-6.01 -5.342,-2.671 -4.007,-8.682 -4.007,-8.682 l 10.017,-0.667 c -4.674,7.346 3.339,9.349 3.339,9.349 5.342,0 6.677,-6.678 6.677,-6.678 2.003,0.667 2.671,7.346 2.671,7.346 -1.334,4.676 -12.687,5.342 -12.687,5.342 z m -113.665,64.13 -4.184,0 -3.139,-2.614 0,-5.229 6.275,1.569 c 0.001,-10e-4 2.617,4.182 1.048,6.274 z m -47.941,18.01 c 0,0 -16.696,-2.672 -21.37,0 l -0.573,-1.928 -0.095,-0.075 c 0,0 14.023,-8.014 20.702,-2.671 10e-4,-0.001 2.218,2.542 1.336,4.674 z m -21.37,54.091 -10.684,8.014 -3.339,0 5.343,-10.685 c 0,0 6.678,-8.681 9.349,-4.674 0,0 3.338,6.008 -0.669,7.345 z m 16.391,65.698 C 29.573,564.022 25.568,556.01 25.568,556.01 l 1.334,-3.338 c 7.346,1.335 18.699,-3.34 18.699,-3.34 1.334,8.682 -4.007,9.349 -4.007,9.349 z m 135.867,40.482 c -6.011,2.673 -12.021,0.667 -12.021,0.667 -29.383,-14.024 -10.686,-48.082 -10.686,-48.082 5.343,-5.342 8.014,0.67 8.014,0.67 -4.007,4.006 -4.007,12.688 -4.007,12.688 -5.341,34.726 21.37,27.381 21.37,27.381 6.681,0.667 -2.67,6.676 -2.67,6.676 z m -132.223,116.863 -8.014,2.67 -6.01,1.338 c -1.335,-8.683 14.023,-12.021 14.023,-12.021 l 0.668,-1.337 -0.667,9.35 z m 34.058,-4.008 -5.343,0.668 c -10.017,-2.003 -4.007,-9.35 -4.007,-9.35 l 11.353,6.012 -2.003,2.67 z m -8.014,57.432 -4.675,7.344 c -6.678,-9.35 2.004,-15.358 2.004,-15.358 l 6.011,-0.667 2.002,6.677 -5.342,2.004 z m 156.264,-46.747 c 12.021,4.008 10.017,11.354 10.017,11.354 l -12.021,-5.341 2.004,-6.013 z m 119.783,-94.649 c 0,0 -2.541,4.235 -5.365,1.128 0,0 -1.978,-3.669 0.564,-6.492 0,0 7.341,-16.942 6.777,-23.438 l 3.106,0 c 10e-4,-10e-4 -0.281,22.308 -5.082,28.802 z m 27.39,-154.461 c 2.826,-3.954 2.259,-35.014 2.259,-35.014 11.575,9.036 11.579,42.921 11.579,42.921 -3.105,-6.212 -13.838,-7.06 -13.838,-7.06 l 0,-0.847 z m -4.517,139.214 -3.389,6.777 c 0,0 1.129,5.645 -5.083,3.668 0,0 -3.67,-19.483 3.107,-31.343 0,0 6.777,-2.824 7.624,5.083 0,0.001 1.695,10.167 -2.259,15.815 z m -3.389,-97.14 c -3.672,-5.648 0.282,-18.354 0.282,-18.354 2.541,-3.105 4.52,0.847 4.52,0.847 l 0.847,0.564 c 0.564,2.258 6.212,7.06 6.212,7.06 0.284,2.825 6.778,4.8 6.778,4.8 1.412,6.212 -3.955,12.708 -3.955,12.708 -10.732,4.8 -14.684,-7.625 -14.684,-7.625 z m 26.262,84.433 c -0.846,6.212 -4.518,14.118 -4.518,14.118 -6.494,5.366 -5.365,0.846 -5.365,0.846 l 1.413,-5.646 0.563,-13.837 -2.543,-6.214 c -1.129,-5.648 5.648,-7.341 6.494,-7.341 l 0.566,-0.564 c 7.908,1.977 3.39,18.638 3.39,18.638 z m 17.223,-3.955 c 0,0 0,2.825 -2.542,3.106 l -2.539,-3.953 0,-11.013 c 0,0 -1.413,-6.214 -0.85,-9.319 0,0 -0.283,-3.671 3.389,-4.235 0,0 1.413,-0.847 2.825,2.824 l -0.283,22.59 z m 16.945,-10.165 c 0,0 -1.13,1.13 -3.672,-1.412 l -1.13,-14.684 3.105,-3.953 2.263,2.541 c 0,0 1.126,14.966 -0.566,17.508 z m 18.073,-12.425 c 0,0 -1.13,3.955 -4.802,4.236 l -1.13,-7.625 0.283,-8.471 3.105,-2.825 3.105,1.131 -0.561,13.554 z M 339.067,691.318 c -10.686,-3.339 -16.027,4.675 -16.027,4.675 0.667,-10.017 16.695,-10.017 16.695,-10.017 l -0.668,5.342 z m -12.02,36.06 c -6.011,0.669 -11.353,12.688 -11.353,12.688 -6.01,-6.678 2.671,-13.356 2.671,-13.356 4.007,-7.346 10.017,-4.674 10.017,-4.674 l -1.335,5.342 z m 35.393,46.746 -2.671,-3.339 1.335,-12.687 4.675,-4.008 0,-2.004 2.671,10.687 -6.01,11.351 z m 128.883,-51.421 c 0,0 14.025,2.673 15.362,11.354 l -0.669,6.678 c 0,0 -8.68,-10.685 -15.358,-10.685 l 0.665,-7.347 z m 2.841,-156.207 c 0,0 2.546,-12.427 2.263,-15.532 0,0 4.231,-3.105 6.211,-1.411 0,0 1.692,2.544 0,7.061 l -3.672,11.013 c 0,0 0,3.104 -3.105,3.67 -10e-4,-0.002 -3.39,-1.413 -1.697,-4.801 z m -17.224,-11.861 3.389,-3.105 0.563,-0.566 c 3.672,1.13 3.389,3.389 3.389,4.236 0,0.847 -1.692,14.12 -1.692,14.12 -3.389,3.107 -5.082,0.281 -5.082,0.281 -2.826,-5.366 -0.567,-14.966 -0.567,-14.966 z m -17.507,22.026 c 0,0 -2.262,0.283 -2.542,-2.541 -0.28,-2.824 0.847,-21.742 0.847,-21.742 l 0.846,0 c 0,0 4.521,-2.823 6.215,0.847 0,0 0.003,12.426 -1.413,17.79 -0.001,-10e-4 -1.414,4.799 -3.953,5.646 z m 47.44,15.812 c 0,0 -17.79,-4.517 -31.062,-1.975 0,0 -8.471,4.517 -11.576,-0.283 0,0 2.256,-8.188 14.118,-7.624 l 16.094,0.563 c 0,0 6.215,-1.128 14.401,5.649 0,10e-4 3.952,3.67 -1.975,3.67 z m 13.837,-27.955 -6.494,10.731 -3.955,0 -0.283,-0.565 c -1.973,-7.906 1.695,-12.988 1.695,-12.988 2.26,-6.777 5.932,-5.931 5.932,-5.931 7.058,0.567 3.105,8.753 3.105,8.753 z m 17.507,10.166 c 0.28,1.128 -1.696,7.06 -1.696,7.06 -2.259,5.93 -6.211,3.672 -6.211,3.672 -4.802,-1.694 -1.695,-9.318 -1.695,-9.318 l 4.801,-5.931 c 7.057,-2.258 4.518,3.388 4.801,4.517 z m 7.624,17.509 c -5.648,1.13 -5.085,-1.413 -5.085,-1.413 l 1.976,-7.059 4.802,-1.978 c 3.672,3.954 -1.693,10.45 -1.693,10.45 z m 18.353,8.47 -2.825,7.626 -3.105,4.235 -3.672,-0.566 -2.539,-2.822 c -2.543,-2.541 0,-6.213 0,-6.213 l 4.801,-8.755 7.341,-0.563 c 1.692,5.645 -0.001,7.058 -0.001,7.058 z m 14.684,15.812 -2.259,7.626 -3.108,4.234 -4.799,-1.977 0,-6.212 3.669,-9.317 c 0,0 4.519,-3.672 5.651,-3.672 l 0,-0.847 c 3.669,3.673 0.846,10.165 0.846,10.165 z m 16.944,11.578 -3.672,3.672 -3.672,-1.411 c 0,0 1.13,-11.013 1.977,-12.426 0.846,-1.414 3.951,-1.413 3.951,-1.413 l 0.566,-0.562 c 3.389,3.106 0.85,12.14 0.85,12.14 z m 19.13,3.363 c -1.482,3.601 -4.448,1.693 -4.448,1.693 -2.116,-1.058 -1.479,-6.562 -1.479,-6.562 0.423,-5.082 4.655,-4.658 4.655,-4.658 4.234,2.963 1.272,9.527 1.272,9.527 z m 21.284,-0.869 -4.007,-1.335 2.005,-7.346 6.011,-2.004 2.67,7.347 -6.679,3.338 z m 27.38,4.008 -4.006,-7.346 0,-19.366 5.342,1.336 1.337,22.038 -2.673,3.338 z m -46.745,42.739 -18.7,-0.668 0,-2.672 c 0,0 12.692,-9.35 20.036,1.337 l -1.336,2.003 z m -24.043,29.383 -12.686,5.343 c 0,-10.684 14.025,-10.017 14.025,-10.017 l -1.339,4.674 z m 81.606,82.865 c -14.694,-11.351 -5.476,-26.101 -5.476,-26.101 l 10.016,2.003 c -5.342,6.679 -4.54,24.098 -4.54,24.098 z m 112.725,-69.508 -4.009,-8.683 -8.681,-8.013 2.005,-5.343 11.354,6.009 2.004,14.694 -2.673,1.336 z"
           id="path4419"
           style="fill:#e30613"
           inkscape:connector-curvature="0" />
      </g>
    </g>
    <path
       d="m 16.355,881.971 c 0,13.241 0.355,19.005 1.958,20.626 1.423,1.44 3.739,2.072 10.683,2.072 4.719,0 8.636,-0.091 10.772,-2.703 1.157,-1.441 2.047,-3.693 2.314,-5.404 0.089,-0.721 0.268,-1.17 0.801,-1.17 0.445,0 0.535,0.359 0.535,1.351 0,0.99 -0.624,6.396 -1.336,9.007 -0.624,2.071 -0.89,2.433 -5.609,2.433 -6.41,0 -11.04,-0.182 -14.778,-0.272 -3.739,-0.18 -6.499,-0.269 -9.081,-0.269 -0.356,0 -1.87,0.089 -3.65,0.089 -1.78,0.091 -3.739,0.18 -5.074,0.18 -0.979,0 -1.425,-0.18 -1.425,-0.719 0,-0.271 0.178,-0.541 0.713,-0.541 0.801,0 1.869,-0.18 2.67,-0.359 1.781,-0.361 2.226,-2.342 2.582,-4.954 0.445,-3.784 0.445,-10.898 0.445,-19.545 l 0,-15.853 c 0,-14.051 0,-16.573 -0.178,-19.455 -0.178,-3.062 -0.891,-4.503 -3.829,-5.133 -0.711,-0.18 -2.225,-0.272 -3.026,-0.272 -0.356,0 -0.712,-0.18 -0.712,-0.539 0,-0.541 0.444,-0.721 1.424,-0.721 4.006,0 9.615,0.271 10.06,0.271 0.445,0 6.944,-0.271 9.615,-0.271 0.979,0 1.424,0.18 1.424,0.721 0,0.359 -0.356,0.539 -0.712,0.539 -0.624,0 -1.87,0.093 -2.938,0.272 -2.582,0.448 -3.294,1.98 -3.472,5.133 -0.177,2.882 -0.177,5.404 -0.177,19.455 l 0,16.031 z"
       id="path4421"
       style="fill:#e30613;stroke:#e30613;stroke-width:11.21793175"
       inkscape:connector-curvature="0" />
    <path
       d="m 84.372,838.557 c 20.032,0 34.988,12.791 34.988,33.777 0,20.175 -14.066,36.837 -35.522,36.837 -24.394,0 -34.542,-19.186 -34.542,-35.396 -10e-4,-14.591 10.504,-35.218 35.076,-35.218 z m 1.87,67.193 c 8.012,0 24.571,-4.684 24.571,-30.895 0,-21.616 -12.998,-33.235 -27.064,-33.235 -14.868,0 -25.996,9.908 -25.996,29.633 0,20.986 12.463,34.497 28.489,34.497 z"
       id="path4423"
       style="fill:#e30613;stroke:#e30613;stroke-width:11.21793175"
       inkscape:connector-curvature="0" />
    <path
       d="m 140.637,895.662 c 0.178,7.385 1.068,9.729 3.472,10.449 1.691,0.448 3.65,0.539 4.452,0.539 0.445,0 0.712,0.182 0.712,0.541 0,0.539 -0.534,0.719 -1.602,0.719 -5.075,0 -8.636,-0.269 -9.438,-0.269 -0.801,0 -4.54,0.269 -8.546,0.269 -0.891,0 -1.424,-0.089 -1.424,-0.719 0,-0.359 0.267,-0.541 0.712,-0.541 0.712,0 2.315,-0.091 3.651,-0.539 2.225,-0.632 2.67,-3.244 2.67,-11.439 l 0.089,-51.61 c 0,-3.513 0.267,-4.504 0.979,-4.504 0.712,0 2.226,1.982 3.116,2.883 1.335,1.53 14.601,16.032 28.311,30.895 8.814,9.546 18.518,20.534 21.367,23.507 l -0.979,-45.755 c -0.089,-5.854 -0.712,-7.837 -3.471,-8.556 -1.603,-0.359 -3.65,-0.452 -4.362,-0.452 -0.624,0 -0.713,-0.269 -0.713,-0.628 0,-0.541 0.713,-0.632 1.78,-0.632 4.007,0 8.28,0.271 9.259,0.271 0.979,0 3.917,-0.271 7.567,-0.271 0.979,0 1.603,0.091 1.603,0.632 0,0.359 -0.356,0.628 -0.979,0.628 -0.445,0 -1.069,0 -2.137,0.272 -2.938,0.63 -3.294,2.61 -3.294,8.015 l -0.178,52.78 c 0,5.945 -0.178,6.396 -0.802,6.396 -0.712,0 -1.78,-0.989 -6.499,-5.764 -0.979,-0.901 -13.799,-14.143 -23.236,-24.41 -10.328,-11.258 -20.387,-22.605 -23.236,-25.85 l 1.156,43.143 z"
       id="path4425"
       style="fill:#e30613;stroke:#e30613;stroke-width:11.21793175"
       inkscape:connector-curvature="0" />
    <path
       d="m 219.284,865.939 c 0,-14.051 0,-16.573 -0.177,-19.455 -0.178,-3.062 -0.891,-4.503 -3.829,-5.133 -0.712,-0.18 -2.226,-0.272 -3.027,-0.272 -0.356,0 -0.712,-0.18 -0.712,-0.539 0,-0.541 0.444,-0.721 1.424,-0.721 4.006,0 9.615,0.271 10.06,0.271 1.068,0 6.677,-0.271 12.019,-0.271 8.814,0 25.106,-0.81 35.7,10.268 4.451,4.683 8.635,12.16 8.635,22.878 0,11.349 -4.629,20.086 -9.615,25.399 -3.829,4.054 -11.84,10.357 -26.975,10.357 -3.829,0 -8.547,-0.271 -12.375,-0.539 -3.917,-0.272 -6.943,-0.541 -7.389,-0.541 -0.178,0 -1.691,0 -3.561,0.089 -1.78,0 -3.828,0.18 -5.164,0.18 -0.979,0 -1.425,-0.18 -1.425,-0.719 0,-0.271 0.178,-0.541 0.713,-0.541 0.801,0 1.87,-0.18 2.67,-0.359 1.781,-0.361 2.226,-2.342 2.582,-4.954 0.445,-3.784 0.445,-10.898 0.445,-19.545 l 0,-15.853 z m 7.478,9.728 c 0,9.547 0.089,17.833 0.178,19.546 0.089,2.251 0.268,5.854 0.979,6.845 1.157,1.71 4.629,3.602 15.134,3.602 8.28,0 15.937,-3.062 21.189,-8.376 4.629,-4.594 7.122,-13.24 7.122,-21.526 0,-11.438 -4.896,-18.825 -8.546,-22.697 -8.369,-8.916 -18.518,-10.178 -29.112,-10.178 -1.78,0 -5.075,0.269 -5.787,0.63 -0.801,0.359 -1.068,0.812 -1.068,1.801 -0.089,3.064 -0.089,12.251 -0.089,19.186 l 0,11.167 z"
       id="path4427"
       style="fill:#e30613;stroke:#e30613;stroke-width:11.21793175"
       inkscape:connector-curvature="0" />
    <path
       d="m 325.85,838.557 c 20.032,0 34.988,12.791 34.988,33.777 0,20.175 -14.066,36.837 -35.522,36.837 -24.394,0 -34.542,-19.186 -34.542,-35.396 -10e-4,-14.591 10.504,-35.218 35.076,-35.218 z m 1.87,67.193 c 8.012,0 24.571,-4.684 24.571,-30.895 0,-21.616 -12.998,-33.235 -27.064,-33.235 -14.868,0 -25.996,9.908 -25.996,29.633 0,20.986 12.463,34.497 28.489,34.497 z"
       id="path4429"
       style="fill:#e30613;stroke:#e30613;stroke-width:11.21793175"
       inkscape:connector-curvature="0" />
    <path
       d="m 382.115,895.662 c 0.179,7.385 1.068,9.729 3.472,10.449 1.691,0.448 3.649,0.539 4.451,0.539 0.446,0 0.713,0.182 0.713,0.541 0,0.539 -0.534,0.719 -1.604,0.719 -5.073,0 -8.636,-0.269 -9.436,-0.269 -0.802,0 -4.541,0.269 -8.547,0.269 -0.891,0 -1.425,-0.089 -1.425,-0.719 0,-0.359 0.267,-0.541 0.712,-0.541 0.713,0 2.315,-0.091 3.65,-0.539 2.226,-0.632 2.671,-3.244 2.671,-11.439 l 0.089,-51.61 c 0,-3.513 0.267,-4.504 0.98,-4.504 0.711,0 2.226,1.982 3.115,2.883 1.337,1.53 14.601,16.032 28.312,30.895 8.813,9.546 18.519,20.534 21.366,23.507 l -0.979,-45.755 c -0.089,-5.854 -0.713,-7.837 -3.473,-8.556 -1.603,-0.359 -3.65,-0.452 -4.362,-0.452 -0.622,0 -0.712,-0.269 -0.712,-0.628 0,-0.541 0.712,-0.632 1.78,-0.632 4.007,0 8.279,0.271 9.258,0.271 0.98,0 3.919,-0.271 7.568,-0.271 0.98,0 1.603,0.091 1.603,0.632 0,0.359 -0.356,0.628 -0.979,0.628 -0.446,0 -1.069,0 -2.137,0.272 -2.938,0.63 -3.295,2.61 -3.295,8.015 l -0.179,52.78 c 0,5.945 -0.178,6.396 -0.8,6.396 -0.713,0 -1.78,-0.989 -6.499,-5.764 -0.98,-0.901 -13.8,-14.143 -23.237,-24.41 -10.327,-11.258 -20.387,-22.605 -23.236,-25.85 l 1.16,43.143 z"
       id="path4431"
       style="fill:#e30613;stroke:#e30613;stroke-width:11.21793175"
       inkscape:connector-curvature="0" />
    <path
       d="m 548.151,895.481 0.356,0 c 2.404,-8.287 10.594,-34.405 13.711,-45.935 0.89,-3.332 0.979,-4.594 0.979,-5.765 0,-1.621 -0.979,-2.703 -5.073,-2.703 -0.446,0 -0.802,-0.269 -0.802,-0.628 0,-0.452 0.445,-0.632 1.513,-0.632 4.54,0 8.279,0.271 9.081,0.271 0.623,0 4.451,-0.271 7.212,-0.271 0.8,0 1.245,0.18 1.245,0.539 0,0.452 -0.267,0.721 -0.8,0.721 -0.356,0 -2.048,0.093 -3.027,0.452 -2.672,0.989 -4.096,4.772 -5.786,9.727 -3.919,11.438 -12.909,40.081 -16.383,50.168 -2.314,6.666 -2.759,7.746 -3.738,7.746 -0.891,0 -1.424,-1.171 -2.671,-4.684 l -17.45,-50.078 -0.178,0 c -3.204,8.646 -15.402,41.612 -18.606,49.987 -1.424,3.785 -1.869,4.774 -2.938,4.774 -0.889,0 -1.335,-0.989 -3.115,-7.114 l -15.847,-53.412 c -1.425,-4.774 -2.583,-6.125 -4.897,-7.025 -1.156,-0.448 -3.382,-0.541 -4.006,-0.541 -0.445,0 -0.802,-0.089 -0.802,-0.628 0,-0.452 0.534,-0.632 1.426,-0.632 4.629,0 9.524,0.271 10.505,0.271 0.802,0 4.719,-0.271 9.17,-0.271 1.246,0 1.603,0.271 1.603,0.632 0,0.539 -0.446,0.628 -0.892,0.628 -0.711,0 -2.402,0 -3.471,0.541 -0.535,0.272 -1.157,0.991 -1.157,2.162 0,1.171 0.801,4.323 1.691,8.287 1.335,5.765 10.594,38.819 11.929,43.593 l 0.179,0 18.873,-51.339 c 1.336,-3.692 1.692,-4.145 2.226,-4.145 0.624,0 1.158,1.173 2.226,4.233 l 17.714,51.071 z"
       id="path4433"
       style="fill:#e30613;stroke:#e30613;stroke-width:11.21793175"
       inkscape:connector-curvature="0" />
    <path
       d="m 590.884,865.939 c 0,-14.051 0,-16.573 -0.179,-19.455 -0.178,-3.062 -0.891,-4.503 -3.828,-5.133 -0.712,-0.18 -2.226,-0.272 -3.027,-0.272 -0.356,0 -0.713,-0.18 -0.713,-0.539 0,-0.541 0.446,-0.721 1.426,-0.721 2.048,0 4.451,0 6.411,0.091 l 3.648,0.18 c 0.624,0 18.341,0 20.388,-0.091 1.691,-0.089 3.115,-0.269 3.828,-0.45 0.445,-0.091 0.8,-0.45 1.246,-0.45 0.267,0 0.356,0.359 0.356,0.812 0,0.63 -0.446,1.71 -0.713,4.233 -0.09,0.9 -0.266,4.862 -0.444,5.943 -0.089,0.45 -0.267,0.99 -0.623,0.99 -0.535,0 -0.713,-0.449 -0.713,-1.17 0,-0.63 -0.089,-2.162 -0.535,-3.243 -0.622,-1.44 -1.513,-2.521 -6.32,-3.062 -1.513,-0.18 -11.217,-0.271 -12.196,-0.271 -0.356,0 -0.535,0.271 -0.535,0.9 l 0,24.858 c 0,0.631 0.09,0.902 0.535,0.902 1.156,0 12.107,0 14.154,-0.182 2.139,-0.18 3.384,-0.359 4.186,-1.26 0.623,-0.721 0.979,-1.171 1.335,-1.171 0.268,0 0.446,0.18 0.446,0.721 0,0.541 -0.446,2.071 -0.713,5.043 -0.179,1.802 -0.356,5.135 -0.356,5.765 0,0.721 0,1.712 -0.622,1.712 -0.445,0 -0.624,-0.359 -0.624,-0.812 0,-0.9 0,-1.801 -0.356,-2.972 -0.356,-1.262 -1.156,-2.793 -4.63,-3.152 -2.403,-0.271 -11.218,-0.451 -12.73,-0.451 -0.445,0 -0.624,0.271 -0.624,0.631 l 0,7.927 c 0,3.061 -0.089,13.51 0,15.4 0.268,6.216 1.604,7.387 10.327,7.387 2.315,0 6.233,0 8.548,-0.991 2.313,-0.99 3.383,-2.792 4.007,-6.484 0.178,-0.99 0.354,-1.352 0.8,-1.352 0.535,0 0.535,0.72 0.535,1.352 0,0.721 -0.713,6.846 -1.157,8.735 -0.624,2.344 -1.336,2.344 -4.808,2.344 -6.678,0 -11.574,-0.182 -15.046,-0.272 -3.473,-0.18 -5.609,-0.269 -6.944,-0.269 -0.178,0 -1.691,0 -3.561,0.089 -1.782,0 -3.829,0.18 -5.164,0.18 -0.98,0 -1.424,-0.18 -1.424,-0.719 0,-0.271 0.178,-0.541 0.711,-0.541 0.802,0 1.869,-0.18 2.671,-0.359 1.78,-0.361 2.226,-2.342 2.582,-4.954 0.446,-3.784 0.446,-10.898 0.446,-19.545 l 0,-15.852 z"
       id="path4435"
       style="fill:#e30613;stroke:#e30613;stroke-width:11.21793175"
       inkscape:connector-curvature="0" />
    <path
       d="m 652.667,881.971 c 0,13.241 0.356,19.005 1.959,20.626 1.425,1.44 3.74,2.072 10.683,2.072 4.719,0 8.636,-0.091 10.773,-2.703 1.157,-1.441 2.048,-3.693 2.314,-5.404 0.089,-0.721 0.268,-1.17 0.802,-1.17 0.445,0 0.534,0.359 0.534,1.351 0,0.99 -0.624,6.396 -1.336,9.007 -0.623,2.071 -0.89,2.433 -5.608,2.433 -6.41,0 -11.04,-0.182 -14.778,-0.272 -3.739,-0.18 -6.499,-0.269 -9.081,-0.269 -0.356,0 -1.87,0.089 -3.649,0.089 -1.782,0.091 -3.741,0.18 -5.075,0.18 -0.98,0 -1.424,-0.18 -1.424,-0.719 0,-0.271 0.178,-0.541 0.711,-0.541 0.802,0 1.869,-0.18 2.671,-0.359 1.78,-0.361 2.226,-2.342 2.582,-4.954 0.445,-3.784 0.445,-10.898 0.445,-19.545 l 0,-15.853 c 0,-14.051 0,-16.573 -0.178,-19.455 -0.179,-3.062 -0.891,-4.503 -3.828,-5.133 -0.713,-0.18 -2.226,-0.272 -3.027,-0.272 -0.356,0 -0.713,-0.18 -0.713,-0.539 0,-0.541 0.445,-0.721 1.426,-0.721 4.006,0 9.614,0.271 10.06,0.271 0.446,0 6.944,-0.271 9.615,-0.271 0.979,0 1.424,0.18 1.424,0.721 0,0.359 -0.356,0.539 -0.713,0.539 -0.623,0 -1.869,0.093 -2.937,0.272 -2.582,0.448 -3.295,1.98 -3.473,5.133 -0.179,2.882 -0.179,5.404 -0.179,19.455 l 0,16.031 z"
       id="path4437"
       style="fill:#e30613;stroke:#e30613;stroke-width:11.21793175"
       inkscape:connector-curvature="0" />
    <path
       d="m 692.196,906.741 c -1.246,-0.63 -1.335,-0.991 -1.335,-3.423 0,-4.504 0.356,-8.105 0.445,-9.547 0.089,-0.992 0.268,-1.441 0.711,-1.441 0.535,0 0.624,0.269 0.624,0.989 0,0.812 0,2.073 0.267,3.333 1.335,6.666 7.212,9.187 13.177,9.187 8.547,0 12.73,-6.213 12.73,-11.979 0,-6.214 -2.582,-9.817 -10.237,-16.213 l -4.006,-3.332 c -9.438,-7.835 -11.574,-13.419 -11.574,-19.546 0,-9.637 7.122,-16.212 18.428,-16.212 3.473,0 6.055,0.359 8.28,0.9 1.691,0.361 2.404,0.452 3.115,0.452 0.713,0 0.892,0.18 0.892,0.63 0,0.45 -0.356,3.422 -0.356,9.547 0,1.441 -0.179,2.072 -0.624,2.072 -0.533,0 -0.622,-0.45 -0.711,-1.171 -0.089,-1.081 -0.624,-3.514 -1.158,-4.504 -0.535,-0.99 -2.938,-4.773 -11.129,-4.773 -6.143,0 -10.95,3.874 -10.95,10.448 0,5.134 2.314,8.376 10.861,15.131 l 2.493,1.982 c 10.505,8.375 12.998,13.961 12.998,21.166 0,3.692 -1.424,10.538 -7.566,14.952 -3.83,2.701 -8.636,3.781 -13.444,3.781 -4.185,0.001 -8.281,-0.628 -11.931,-2.429 z"
       id="path4439"
       style="fill:#e30613;stroke:#e30613;stroke-width:11.21793175"
       inkscape:connector-curvature="0" />
    <path
       d="m 802.412,881.792 c 0,8.646 0,15.761 0.445,19.545 0.268,2.612 0.8,4.593 3.472,4.954 1.247,0.18 3.205,0.359 4.006,0.359 0.534,0 0.713,0.271 0.713,0.541 0,0.45 -0.445,0.719 -1.426,0.719 -4.896,0 -10.505,-0.269 -10.949,-0.269 -0.445,0 -6.055,0.269 -8.725,0.269 -0.979,0 -1.426,-0.18 -1.426,-0.719 0,-0.271 0.179,-0.541 0.713,-0.541 0.802,0 1.87,-0.18 2.672,-0.359 1.78,-0.361 2.226,-2.342 2.582,-4.954 0.443,-3.784 0.443,-10.898 0.443,-19.545 l 0,-9.457 c 0,-0.361 -0.267,-0.541 -0.533,-0.541 l -37.748,0 c -0.267,0 -0.534,0.089 -0.534,0.541 l 0,9.457 c 0,8.646 0,15.761 0.445,19.545 0.268,2.612 0.802,4.593 3.472,4.954 1.247,0.18 3.205,0.359 4.007,0.359 0.533,0 0.712,0.271 0.712,0.541 0,0.45 -0.446,0.719 -1.424,0.719 -4.897,0 -10.506,-0.269 -10.951,-0.269 -0.445,0 -6.054,0.269 -8.725,0.269 -0.979,0 -1.424,-0.18 -1.424,-0.719 0,-0.271 0.179,-0.541 0.711,-0.541 0.802,0 1.87,-0.18 2.672,-0.359 1.78,-0.361 2.226,-2.342 2.582,-4.954 0.445,-3.784 0.445,-10.898 0.445,-19.545 l 0,-15.853 c 0,-14.051 0,-16.573 -0.179,-19.455 -0.178,-3.062 -0.891,-4.503 -3.827,-5.133 -0.713,-0.18 -2.226,-0.272 -3.028,-0.272 -0.355,0 -0.712,-0.18 -0.712,-0.539 0,-0.541 0.445,-0.721 1.425,-0.721 4.006,0 9.614,0.271 10.06,0.271 0.446,0 6.054,-0.271 8.725,-0.271 0.979,0 1.425,0.18 1.425,0.721 0,0.359 -0.356,0.539 -0.712,0.539 -0.623,0 -1.158,0.093 -2.226,0.272 -2.404,0.448 -3.116,1.98 -3.295,5.133 -0.178,2.882 -0.178,5.404 -0.178,19.455 l 0,1.892 c 0,0.45 0.268,0.539 0.534,0.539 l 37.748,0 c 0.267,0 0.533,-0.089 0.533,-0.539 l 0,-1.892 c 0,-14.051 0,-16.573 -0.178,-19.455 -0.177,-3.062 -0.89,-4.503 -3.828,-5.133 -0.711,-0.18 -2.226,-0.272 -3.026,-0.272 -0.355,0 -0.712,-0.18 -0.712,-0.539 0,-0.541 0.445,-0.721 1.424,-0.721 4.006,0 9.615,0.271 10.061,0.271 0.444,0 6.054,-0.271 8.725,-0.271 0.979,0 1.425,0.18 1.425,0.721 0,0.359 -0.356,0.539 -0.713,0.539 -0.622,0 -1.157,0.093 -2.227,0.272 -2.403,0.448 -3.114,1.98 -3.293,5.133 -0.178,2.882 -0.178,5.404 -0.178,19.455 l 0,15.853 z"
       id="path4441"
       style="fill:#e30613;stroke:#e30613;stroke-width:11.21793175"
       inkscape:connector-curvature="0" />
    <path
       d="m 10.377,991.204 c -7.917,-7.088 -9.876,-16.372 -9.876,-24.11 0,-5.459 1.876,-14.988 9.142,-22.238 4.897,-4.888 12.325,-8.717 24.895,-8.717 3.265,0 7.836,0.245 11.836,0.979 3.102,0.569 5.713,1.058 8.326,1.222 0.898,0.081 1.061,0.407 1.061,0.896 0,0.652 -0.245,1.629 -0.408,4.562 -0.163,2.688 -0.163,7.169 -0.245,8.391 -0.082,1.222 -0.245,1.71 -0.734,1.71 -0.572,0 -0.654,-0.569 -0.654,-1.71 0,-3.178 -1.306,-6.517 -3.428,-8.31 -2.856,-2.443 -9.142,-4.643 -16.325,-4.643 -10.857,0 -15.917,3.177 -18.774,5.947 -5.958,5.702 -7.346,12.95 -7.346,21.26 0,15.558 11.999,29.812 29.466,29.812 6.122,0 10.938,-0.733 14.203,-4.072 1.714,-1.792 2.775,-5.376 3.021,-6.843 0.163,-0.896 0.326,-1.223 0.816,-1.223 0.408,0 0.571,0.571 0.571,1.223 0,0.57 -0.979,7.657 -1.795,10.427 -0.49,1.548 -0.653,1.71 -2.123,2.362 -3.266,1.301 -9.469,1.871 -14.693,1.871 -12.244,0 -20.488,-3.013 -26.936,-8.796 z"
       id="path4443"
       style="fill:#e30613;stroke:#e30613;stroke-width:11.8915062"
       inkscape:connector-curvature="0" />
    <path
       d="m 85.798,977.763 c 0,-4.398 -0.816,-6.19 -1.877,-8.553 -0.572,-1.303 -11.51,-19.225 -14.367,-23.46 -2.04,-3.014 -4.081,-5.05 -5.55,-6.028 -1.225,-0.814 -2.775,-1.303 -3.51,-1.303 -0.408,0 -0.817,-0.162 -0.817,-0.569 0,-0.326 0.327,-0.571 1.062,-0.571 1.551,0 7.672,0.245 8.08,0.245 0.573,0 3.674,-0.245 6.857,-0.245 0.898,0 1.062,0.245 1.062,0.571 0,0.324 -0.49,0.407 -1.224,0.731 -0.653,0.326 -1.062,0.814 -1.062,1.467 0,0.977 0.408,1.955 1.062,3.178 1.305,2.362 13.549,23.377 15.018,25.739 1.551,-3.42 11.917,-21.26 13.55,-23.948 1.061,-1.71 1.387,-3.095 1.387,-4.154 0,-1.141 -0.326,-2.036 -1.306,-2.281 -0.734,-0.243 -1.224,-0.407 -1.224,-0.814 0,-0.324 0.49,-0.488 1.306,-0.488 2.123,0 4.733,0.245 5.387,0.245 0.49,0 6.367,-0.245 7.917,-0.245 0.572,0 1.062,0.164 1.062,0.488 0,0.407 -0.408,0.652 -1.062,0.652 -0.897,0 -2.448,0.326 -3.754,1.141 -1.632,0.977 -2.531,1.955 -4.326,4.154 -2.694,3.258 -14.122,22.4 -15.591,25.903 -1.224,2.933 -1.224,5.457 -1.224,8.146 l 0,7.005 c 0,1.304 0,4.726 0.245,8.146 0.163,2.362 0.898,4.153 3.347,4.479 1.142,0.162 2.938,0.326 3.672,0.326 0.49,0 0.653,0.243 0.653,0.488 0,0.407 -0.408,0.652 -1.306,0.652 -4.489,0 -9.632,-0.245 -10.04,-0.245 -0.408,0 -5.55,0.245 -8,0.245 -0.897,0 -1.305,-0.164 -1.305,-0.652 0,-0.245 0.163,-0.488 0.653,-0.488 0.734,0 1.713,-0.164 2.449,-0.326 1.632,-0.326 2.367,-2.117 2.53,-4.479 0.245,-3.421 0.245,-6.843 0.245,-8.146 l 0,-7.006 z"
       id="path4445"
       style="fill:#e30613;stroke:#e30613;stroke-width:11.8915062"
       inkscape:connector-curvature="0" />
    <path
       d="m 190.196,988.353 c 0.326,2.932 0.897,7.493 4.408,8.634 2.366,0.733 4.489,0.733 5.305,0.733 0.408,0 0.653,0.081 0.653,0.407 0,0.488 -0.734,0.733 -1.714,0.733 -1.795,0 -10.611,-0.245 -13.631,-0.49 -1.877,-0.162 -2.285,-0.407 -2.285,-0.814 0,-0.324 0.163,-0.488 0.572,-0.569 0.408,-0.081 0.489,-1.467 0.326,-2.932 l -3.917,-42.033 -0.245,0 -19.999,42.359 c -1.714,3.582 -1.959,4.315 -2.693,4.315 -0.571,0 -0.98,-0.814 -2.53,-3.746 -2.123,-3.992 -9.143,-18.083 -9.55,-18.897 -0.734,-1.467 -9.877,-21.017 -10.774,-23.217 l -0.327,0 -3.265,37.796 c -0.082,1.305 -0.082,2.771 -0.082,4.156 0,1.222 0.898,2.279 2.123,2.524 1.387,0.326 2.612,0.407 3.102,0.407 0.327,0 0.653,0.162 0.653,0.407 0,0.569 -0.49,0.733 -1.469,0.733 -3.021,0 -6.938,-0.245 -7.591,-0.245 -0.734,0 -4.653,0.245 -6.856,0.245 -0.816,0 -1.387,-0.164 -1.387,-0.733 0,-0.245 0.408,-0.407 0.816,-0.407 0.653,0 1.225,0 2.449,-0.245 2.693,-0.488 2.938,-3.665 3.265,-6.76 l 5.877,-53.11 c 0.082,-0.896 0.409,-1.467 0.898,-1.467 0.49,0 0.816,0.326 1.224,1.222 l 24.977,51.236 23.998,-51.153 c 0.327,-0.733 0.653,-1.305 1.224,-1.305 0.572,0 0.816,0.652 0.98,2.2 l 5.465,50.016 z"
       id="path4447"
       style="fill:#e30613;stroke:#e30613;stroke-width:11.8915062"
       inkscape:connector-curvature="0" />
    <path
       d="m 215.172,960.901 c 0,-12.707 0,-14.988 -0.163,-17.594 -0.164,-2.771 -0.817,-4.073 -3.51,-4.643 -0.653,-0.164 -2.041,-0.245 -2.775,-0.245 -0.327,0 -0.653,-0.162 -0.653,-0.488 0,-0.488 0.408,-0.652 1.305,-0.652 3.673,0 8.815,0.245 9.224,0.245 0.898,0 7.102,-0.245 9.632,-0.245 5.142,0 10.611,0.488 14.938,3.584 2.04,1.467 5.632,5.457 5.632,11.078 0,6.028 -2.53,12.057 -9.876,18.817 6.693,8.554 12.243,15.802 16.978,20.853 4.408,4.643 7.917,5.538 9.958,5.864 1.551,0.245 2.694,0.245 3.183,0.245 0.408,0 0.735,0.243 0.735,0.488 0,0.488 -0.49,0.652 -1.959,0.652 l -5.795,0 c -4.572,0 -6.612,-0.407 -8.734,-1.548 -3.51,-1.874 -6.366,-5.866 -11.019,-11.975 -3.428,-4.48 -7.265,-9.938 -8.897,-12.055 -0.326,-0.326 -0.571,-0.488 -1.062,-0.488 l -10.04,-0.164 c -0.408,0 -0.571,0.245 -0.571,0.652 l 0,1.955 c 0,7.819 0,14.255 0.408,17.676 0.245,2.362 0.734,4.153 3.184,4.479 1.142,0.162 2.938,0.326 3.673,0.326 0.49,0 0.653,0.243 0.653,0.488 0,0.407 -0.408,0.652 -1.306,0.652 -4.49,0 -9.631,-0.245 -10.04,-0.245 -0.082,0 -5.224,0.245 -7.672,0.245 -0.898,0 -1.306,-0.164 -1.306,-0.652 0,-0.245 0.163,-0.488 0.653,-0.488 0.734,0 1.714,-0.164 2.449,-0.326 1.632,-0.326 2.041,-2.117 2.367,-4.479 0.408,-3.421 0.408,-9.856 0.408,-17.676 l 0,-14.336 z m 6.53,7.088 c 0,0.407 0.163,0.733 0.571,0.977 1.224,0.733 4.979,1.304 8.57,1.304 1.959,0 4.245,-0.244 6.122,-1.547 2.856,-1.955 4.979,-6.354 4.979,-12.545 0,-10.182 -5.387,-16.291 -14.121,-16.291 -2.449,0 -4.653,0.243 -5.469,0.488 -0.408,0.162 -0.653,0.488 -0.653,0.977 l 0,26.637 z"
       id="path4449"
       style="fill:#e30613;stroke:#e30613;stroke-width:11.8915062"
       inkscape:connector-curvature="0" />
    <path
       d="m 284.146,977.763 c 0,-4.398 -0.816,-6.19 -1.877,-8.553 -0.572,-1.303 -11.51,-19.225 -14.366,-23.46 -2.041,-3.014 -4.082,-5.05 -5.551,-6.028 -1.225,-0.814 -2.775,-1.303 -3.51,-1.303 -0.408,0 -0.816,-0.162 -0.816,-0.569 0,-0.326 0.326,-0.571 1.062,-0.571 1.551,0 7.672,0.245 8.08,0.245 0.572,0 3.674,-0.245 6.857,-0.245 0.898,0 1.062,0.245 1.062,0.571 0,0.324 -0.49,0.407 -1.225,0.731 -0.653,0.326 -1.061,0.814 -1.061,1.467 0,0.977 0.408,1.955 1.061,3.178 1.306,2.362 13.549,23.377 15.019,25.739 1.551,-3.42 11.917,-21.26 13.55,-23.948 1.061,-1.71 1.387,-3.095 1.387,-4.154 0,-1.141 -0.326,-2.036 -1.306,-2.281 -0.734,-0.243 -1.224,-0.407 -1.224,-0.814 0,-0.324 0.49,-0.488 1.306,-0.488 2.122,0 4.734,0.245 5.387,0.245 0.49,0 6.367,-0.245 7.917,-0.245 0.572,0 1.061,0.164 1.061,0.488 0,0.407 -0.408,0.652 -1.061,0.652 -0.897,0 -2.448,0.326 -3.754,1.141 -1.632,0.977 -2.531,1.955 -4.326,4.154 -2.693,3.258 -14.121,22.4 -15.59,25.903 -1.224,2.933 -1.224,5.457 -1.224,8.146 l 0,7.005 c 0,1.304 0,4.726 0.245,8.146 0.163,2.362 0.898,4.153 3.346,4.479 1.143,0.162 2.938,0.326 3.673,0.326 0.49,0 0.653,0.243 0.653,0.488 0,0.407 -0.408,0.652 -1.306,0.652 -4.489,0 -9.632,-0.245 -10.04,-0.245 -0.408,0 -5.55,0.245 -7.999,0.245 -0.897,0 -1.306,-0.164 -1.306,-0.652 0,-0.245 0.163,-0.488 0.653,-0.488 0.734,0 1.713,-0.164 2.448,-0.326 1.632,-0.326 2.368,-2.117 2.531,-4.479 0.245,-3.421 0.245,-6.843 0.245,-8.146 l 0,-7.006 z"
       id="path4451"
       style="fill:#e30613;stroke:#e30613;stroke-width:11.8915062"
       inkscape:connector-curvature="0" />
    <path
       d="m 361.852,975.401 c 0,11.974 0.327,17.188 1.795,18.654 1.306,1.303 3.428,1.872 9.795,1.872 4.326,0 7.918,-0.081 9.877,-2.443 1.061,-1.303 1.877,-3.34 2.122,-4.888 0.081,-0.65 0.245,-1.058 0.735,-1.058 0.407,0 0.488,0.326 0.488,1.222 0,0.896 -0.571,5.783 -1.224,8.146 -0.571,1.873 -0.816,2.198 -5.142,2.198 -5.877,0 -10.122,-0.162 -13.551,-0.243 -3.428,-0.164 -5.958,-0.245 -8.326,-0.245 -0.326,0 -1.713,0.081 -3.346,0.081 -1.632,0.082 -3.428,0.164 -4.652,0.164 -0.898,0 -1.307,-0.164 -1.307,-0.652 0,-0.245 0.163,-0.488 0.653,-0.488 0.734,0 1.714,-0.164 2.448,-0.326 1.632,-0.326 2.041,-2.117 2.368,-4.479 0.408,-3.421 0.408,-9.856 0.408,-17.676 l 0,-14.338 c 0,-12.707 0,-14.988 -0.163,-17.594 -0.164,-2.771 -0.817,-4.073 -3.51,-4.643 -0.653,-0.164 -2.041,-0.245 -2.774,-0.245 -0.327,0 -0.653,-0.162 -0.653,-0.488 0,-0.488 0.408,-0.652 1.306,-0.652 3.673,0 8.815,0.245 9.223,0.245 0.408,0 6.366,-0.245 8.816,-0.245 0.897,0 1.306,0.164 1.306,0.652 0,0.326 -0.328,0.488 -0.654,0.488 -0.571,0 -1.713,0.081 -2.693,0.245 -2.368,0.407 -3.02,1.791 -3.184,4.643 -0.163,2.605 -0.163,4.887 -0.163,17.594 l 0,14.499 z"
       id="path4453"
       style="fill:#e30613;stroke:#e30613;stroke-width:11.8915062"
       inkscape:connector-curvature="0" />
    <path
       d="m 410.173,975.401 c 0,11.974 0.326,17.188 1.796,18.654 1.306,1.303 3.429,1.872 9.794,1.872 4.327,0 7.918,-0.081 9.877,-2.443 1.061,-1.303 1.879,-3.34 2.122,-4.888 0.083,-0.65 0.245,-1.058 0.734,-1.058 0.409,0 0.49,0.326 0.49,1.222 0,0.896 -0.571,5.783 -1.225,8.146 -0.571,1.873 -0.816,2.198 -5.143,2.198 -5.877,0 -10.121,-0.162 -13.55,-0.243 -3.427,-0.164 -5.958,-0.245 -8.325,-0.245 -0.326,0 -1.714,0.081 -3.346,0.081 -1.633,0.082 -3.429,0.164 -4.653,0.164 -0.897,0 -1.307,-0.164 -1.307,-0.652 0,-0.245 0.164,-0.488 0.654,-0.488 0.734,0 1.713,-0.164 2.448,-0.326 1.632,-0.326 2.041,-2.117 2.367,-4.479 0.407,-3.421 0.407,-9.856 0.407,-17.676 l 0,-14.338 c 0,-12.707 0,-14.988 -0.162,-17.594 -0.164,-2.771 -0.816,-4.073 -3.51,-4.643 -0.653,-0.164 -2.041,-0.245 -2.776,-0.245 -0.326,0 -0.652,-0.162 -0.652,-0.488 0,-0.488 0.407,-0.652 1.307,-0.652 3.672,0 8.815,0.245 9.223,0.245 0.409,0 6.367,-0.245 8.815,-0.245 0.898,0 1.306,0.164 1.306,0.652 0,0.326 -0.326,0.488 -0.651,0.488 -0.571,0 -1.716,0.081 -2.694,0.245 -2.367,0.407 -3.021,1.791 -3.183,4.643 -0.164,2.605 -0.164,4.887 -0.164,17.594 l 0,14.499 z"
       id="path4455"
       style="fill:#e30613;stroke:#e30613;stroke-width:11.8915062"
       inkscape:connector-curvature="0" />
    <path
       d="m 446.417,960.901 c 0,-12.707 0,-14.988 -0.164,-17.594 -0.164,-2.771 -0.816,-4.073 -3.51,-4.643 -0.653,-0.164 -2.041,-0.245 -2.774,-0.245 -0.328,0 -0.654,-0.162 -0.654,-0.488 0,-0.488 0.409,-0.652 1.307,-0.652 3.674,0 8.651,0.245 9.387,0.245 0.734,0 5.632,-0.245 8.08,-0.245 0.899,0 1.307,0.164 1.307,0.652 0,0.326 -0.326,0.488 -0.652,0.488 -0.571,0 -1.062,0.081 -2.041,0.245 -2.204,0.324 -2.857,1.791 -3.02,4.643 -0.164,2.605 -0.164,4.887 -0.164,17.594 l 0,11.404 c 0,11.729 2.612,16.781 6.122,20.12 3.999,3.747 7.673,4.48 12.324,4.48 4.98,0 9.877,-2.362 12.815,-5.866 3.755,-4.642 4.734,-11.565 4.734,-19.956 l 0,-10.183 c 0,-12.707 0,-14.988 -0.163,-17.594 -0.163,-2.771 -0.816,-4.073 -3.51,-4.643 -0.652,-0.164 -2.04,-0.245 -2.774,-0.245 -0.326,0 -0.654,-0.162 -0.654,-0.488 0,-0.488 0.409,-0.652 1.306,-0.652 3.674,0 8.163,0.245 8.653,0.245 0.571,0 4.407,-0.245 6.855,-0.245 0.899,0 1.307,0.164 1.307,0.652 0,0.326 -0.326,0.488 -0.652,0.488 -0.571,0 -1.062,0.081 -2.041,0.245 -2.204,0.488 -2.856,1.791 -3.02,4.643 -0.164,2.605 -0.164,4.887 -0.164,17.594 l 0,8.717 c 0,8.797 -0.979,18.571 -7.51,24.356 -5.877,5.212 -11.999,6.026 -16.814,6.026 -2.774,0 -11.019,-0.325 -16.814,-5.783 -4,-3.828 -7.101,-9.53 -7.101,-21.422 l 0,-11.893 z"
       id="path4457"
       style="fill:#e30613;stroke:#e30613;stroke-width:11.8915062"
       inkscape:connector-curvature="0" />
    <path
       d="m 521.102,987.782 c 0.162,6.681 0.979,8.798 3.184,9.45 1.549,0.407 3.346,0.488 4.08,0.488 0.407,0 0.652,0.162 0.652,0.488 0,0.488 -0.489,0.652 -1.468,0.652 -4.654,0 -7.919,-0.245 -8.653,-0.245 -0.733,0 -4.162,0.245 -7.836,0.245 -0.815,0 -1.306,-0.082 -1.306,-0.652 0,-0.326 0.245,-0.488 0.653,-0.488 0.652,0 2.123,-0.081 3.346,-0.488 2.042,-0.571 2.449,-2.934 2.449,-10.346 l 0.082,-46.676 c 0,-3.175 0.245,-4.072 0.897,-4.072 0.652,0 2.041,1.793 2.857,2.607 1.224,1.384 13.387,14.498 25.956,27.94 8.081,8.634 16.978,18.571 19.59,21.26 l -0.897,-41.381 c -0.081,-5.295 -0.654,-7.086 -3.184,-7.738 -1.47,-0.326 -3.348,-0.407 -4,-0.407 -0.57,0 -0.652,-0.245 -0.652,-0.569 0,-0.49 0.652,-0.571 1.633,-0.571 3.672,0 7.591,0.245 8.487,0.245 0.899,0 3.593,-0.245 6.938,-0.245 0.898,0 1.47,0.081 1.47,0.571 0,0.324 -0.326,0.569 -0.896,0.569 -0.409,0 -0.98,0 -1.961,0.245 -2.693,0.569 -3.02,2.36 -3.02,7.248 l -0.163,47.735 c 0,5.375 -0.163,5.782 -0.733,5.782 -0.654,0 -1.635,-0.896 -5.96,-5.213 -0.897,-0.814 -12.651,-12.788 -21.305,-22.074 -9.468,-10.183 -18.691,-20.445 -21.303,-23.379 l 1.063,39.019 z"
       id="path4459"
       style="fill:#e30613;stroke:#e30613;stroke-width:11.8915062"
       inkscape:connector-curvature="0" />
    <path
       d="m 589.256,960.901 c 0,-12.707 0,-14.988 -0.162,-17.594 -0.164,-2.771 -0.816,-4.073 -3.51,-4.643 -0.654,-0.164 -2.041,-0.245 -2.776,-0.245 -0.326,0 -0.652,-0.162 -0.652,-0.488 0,-0.488 0.407,-0.652 1.307,-0.652 3.672,0 8.815,0.245 9.223,0.245 0.979,0 6.122,-0.245 11.021,-0.245 8.08,0 23.018,-0.733 32.73,9.286 4.081,4.235 7.918,10.997 7.918,20.69 0,10.263 -4.245,18.165 -8.815,22.97 -3.51,3.666 -10.856,9.368 -24.732,9.368 -3.51,0 -7.836,-0.244 -11.346,-0.489 -3.592,-0.243 -6.367,-0.488 -6.775,-0.488 -0.162,0 -1.552,0 -3.265,0.081 -1.633,0 -3.51,0.164 -4.735,0.164 -0.896,0 -1.306,-0.164 -1.306,-0.652 0,-0.245 0.164,-0.488 0.654,-0.488 0.734,0 1.713,-0.164 2.448,-0.326 1.632,-0.326 2.041,-2.117 2.367,-4.479 0.407,-3.421 0.407,-9.856 0.407,-17.676 l 0,-14.339 z m 6.858,8.798 c 0,8.635 0.081,16.129 0.163,17.676 0.081,2.036 0.245,5.295 0.897,6.191 1.062,1.547 4.245,3.259 13.876,3.259 7.591,0 14.611,-2.77 19.428,-7.576 4.244,-4.154 6.529,-11.974 6.529,-19.469 0,-10.344 -4.49,-17.024 -7.836,-20.526 -7.673,-8.064 -16.979,-9.205 -26.691,-9.205 -1.632,0 -4.651,0.245 -5.306,0.569 -0.735,0.326 -0.979,0.733 -0.979,1.63 -0.081,2.77 -0.081,11.079 -0.081,17.351 l 0,10.1 z"
       id="path4461"
       style="fill:#e30613;stroke:#e30613;stroke-width:11.8915062"
       inkscape:connector-curvature="0" />
    <path
       d="m 673.003,939.315 c 0.98,-2.687 1.307,-3.177 1.797,-3.177 0.489,0 0.815,0.407 1.796,2.934 1.224,3.095 14.038,36.736 19.019,49.117 2.938,7.25 5.306,8.553 7.019,9.043 1.226,0.407 2.45,0.488 3.267,0.488 0.488,0 0.816,0.081 0.816,0.488 0,0.488 -0.735,0.652 -1.633,0.652 -1.225,0 -7.183,0 -12.814,-0.164 -1.552,-0.081 -2.45,-0.081 -2.45,-0.569 0,-0.326 0.245,-0.488 0.572,-0.571 0.489,-0.162 0.979,-0.896 0.489,-2.198 L 683.29,975.32 c -0.164,-0.326 -0.326,-0.488 -0.735,-0.488 l -17.55,0 c -0.407,0 -0.652,0.243 -0.816,0.65 l -4.896,14.419 c -0.735,2.036 -1.143,3.99 -1.143,5.457 0,1.629 1.714,2.362 3.101,2.362 l 0.816,0 c 0.573,0 0.818,0.162 0.818,0.488 0,0.488 -0.49,0.652 -1.226,0.652 -1.958,0 -5.47,-0.245 -6.367,-0.245 -0.897,0 -5.387,0.245 -9.223,0.245 -1.061,0 -1.551,-0.164 -1.551,-0.652 0,-0.326 0.326,-0.488 0.733,-0.488 0.572,0 1.715,-0.081 2.367,-0.164 3.755,-0.488 5.389,-3.582 6.857,-7.655 l 18.528,-50.586 z m 8.49,32.583 c 0.409,0 0.409,-0.244 0.326,-0.57 l -7.754,-21.993 c -0.407,-1.222 -0.816,-1.222 -1.224,0 l -7.183,21.993 c -0.164,0.408 0,0.57 0.245,0.57 l 15.59,0 z"
       id="path4463"
       style="fill:#e30613;stroke:#e30613;stroke-width:11.8915062"
       inkscape:connector-curvature="0" />
    <path
       d="m 725.244,975.239 c 0,7.819 0,14.255 0.409,17.676 0.245,2.362 0.733,4.153 3.184,4.479 1.143,0.162 2.938,0.326 3.672,0.326 0.49,0 0.654,0.243 0.654,0.488 0,0.407 -0.409,0.652 -1.307,0.652 -4.489,0 -9.632,-0.245 -10.04,-0.245 -0.407,0 -5.551,0.245 -8,0.245 -0.896,0 -1.306,-0.164 -1.306,-0.652 0,-0.245 0.164,-0.488 0.653,-0.488 0.735,0 1.714,-0.164 2.449,-0.326 1.632,-0.326 2.041,-2.117 2.367,-4.479 0.407,-3.421 0.407,-9.856 0.407,-17.676 l 0,-14.338 c 0,-12.707 0,-14.988 -0.162,-17.594 -0.164,-2.771 -0.98,-4.154 -2.776,-4.562 -0.897,-0.245 -1.959,-0.326 -2.529,-0.326 -0.326,0 -0.654,-0.162 -0.654,-0.488 0,-0.488 0.409,-0.652 1.307,-0.652 2.693,0 7.837,0.245 8.244,0.245 0.408,0 5.551,-0.245 7.999,-0.245 0.898,0 1.306,0.164 1.306,0.652 0,0.326 -0.326,0.488 -0.652,0.488 -0.572,0 -1.061,0.081 -2.041,0.245 -2.203,0.407 -2.857,1.791 -3.02,4.643 -0.164,2.605 -0.164,4.887 -0.164,17.594 l 0,14.338 z"
       id="path4465"
       style="fill:#e30613;stroke:#e30613;stroke-width:11.8915062"
       inkscape:connector-curvature="0" />
    <path
       d="m 756.506,987.782 c 0.162,6.681 0.979,8.798 3.184,9.45 1.55,0.407 3.346,0.488 4.081,0.488 0.406,0 0.651,0.162 0.651,0.488 0,0.488 -0.489,0.652 -1.468,0.652 -4.654,0 -7.918,-0.245 -8.653,-0.245 -0.733,0 -4.162,0.245 -7.836,0.245 -0.815,0 -1.306,-0.082 -1.306,-0.652 0,-0.326 0.245,-0.488 0.653,-0.488 0.652,0 2.123,-0.081 3.347,-0.488 2.041,-0.571 2.448,-2.934 2.448,-10.346 l 0.083,-46.676 c 0,-3.175 0.244,-4.072 0.896,-4.072 0.652,0 2.041,1.793 2.857,2.607 1.224,1.384 13.387,14.498 25.956,27.94 8.081,8.634 16.978,18.571 19.59,21.26 l -0.897,-41.381 c -0.081,-5.295 -0.654,-7.086 -3.184,-7.738 -1.469,-0.326 -3.348,-0.407 -3.999,-0.407 -0.571,0 -0.652,-0.245 -0.652,-0.569 0,-0.49 0.652,-0.571 1.632,-0.571 3.672,0 7.591,0.245 8.488,0.245 0.898,0 3.592,-0.245 6.938,-0.245 0.899,0 1.47,0.081 1.47,0.571 0,0.324 -0.325,0.569 -0.896,0.569 -0.409,0 -0.98,0 -1.96,0.245 -2.694,0.569 -3.02,2.36 -3.02,7.248 l -0.164,47.735 c 0,5.375 -0.162,5.782 -0.733,5.782 -0.654,0 -1.634,-0.896 -5.96,-5.213 -0.897,-0.814 -12.651,-12.788 -21.305,-22.074 -9.467,-10.183 -18.691,-20.445 -21.303,-23.379 l 1.062,39.019 z"
       id="path4467"
       style="fill:#e30613;stroke:#e30613;stroke-width:11.8915062"
       inkscape:connector-curvature="0" />
  </g>
</svg>
