<?xml version="1.0" encoding="UTF-8"?>
<!-- Generator: Adobe Illustrator 15.0.0, SVG Export Plug-In . SVG Version: 6.00 Build 0)  -->
<!DOCTYPE svg PUBLIC "-//W3C//DTD SVG 1.0//EN" "http://www.w3.org/TR/2001/REC-SVG-20010904/DTD/svg10.dtd">
<svg version="1.0" id="Layer_1" xmlns="http://www.w3.org/2000/svg" xmlns:xlink="http://www.w3.org/1999/xlink" x="0px" y="0px" width="249.613px" height="339.948px" viewBox="0 0 249.613 339.948" enable-background="new 0 0 249.613 339.948" xml:space="preserve">
<g>
	<g>
		<path fill="#00704A" d="M124.57,284.675c48.133-20.579,80.4-58.955,96.686-89.583c40.563-76.365-1.978-165.9-1.978-165.9    S192.863,5.688,125.101,5.688c-65.788,0-100.048,23.891-100.048,23.891s-34.02,89.037,3.295,165.933    C44.006,227.809,75.422,266.105,124.57,284.675"/>
		<path fill="#110B15" d="M127.413,289.514c32.75-14.132,60.628-37.427,82.091-65.724c9.614-12.685,17.684-26.446,23.632-41.205    c6.979-17.251,10.275-35.852,11.078-54.388c1.239-28.779-4.051-58.055-13.505-85.195c-1.962-5.577-4.084-11.125-6.56-16.495    c-1.333-2.893-5.836-5.031-8.392-6.525C194.295,7.056,168.089,2.408,143.492,0.688c-33.377-2.363-68.297,1.191-99.631,13.41    c-6.88,2.685-13.729,5.723-20.064,9.582c-1.864,1.158-3.359,2.235-4.196,4.436c-0.562,1.496-1.077,2.992-1.56,4.519    c-7.7,23.407-11.783,48.278-12.667,72.861c-1.336,36.384,5.997,72.862,24.34,104.533c16.703,28.843,41.205,53.297,70.369,69.485    c7.394,4.1,15.113,7.557,22.99,10.563c2.894,1.093,6.175-1.189,6.93-3.907c0.884-3.183-1.063-5.834-3.907-6.928    c-32.106-12.236-59.565-34.809-79.083-62.943C26.836,187.2,17.221,153.197,16.5,117.973c-0.402-20.677,2.024-41.319,6.623-61.432    c1.961-8.586,4.195-17.252,7.331-25.483c-0.851,1.126-1.72,2.251-2.573,3.361c3.426-2.396,7.268-4.262,11.047-6.06    c4.452-2.123,7.957-3.521,12.989-5.322c6.287-2.235,12.719-4.117,19.213-5.675c17.684-4.278,35.835-6.03,53.972-6.063    c17.571-0.031,35.16,1.576,52.231,5.69c10.483,2.543,19.985,5.806,29.005,10.547c2.492,1.334,4.934,2.766,7.267,4.357    c0.563,0.386,2.895,2.154,0.853,0.579c0.272,0.209,0.563,0.434,0.819,0.676c-0.948-0.836-1.046-1.577-0.563-0.548    c0.337,0.789,0.691,1.575,1.014,2.363c0.417,1.012-0.549-1.334-0.13-0.241c0.161,0.289,0.289,0.596,0.403,0.901    c0.288,0.707,0.563,1.415,0.834,2.122c0.757,1.863,1.479,3.778,2.156,5.675c4.083,11.143,7.249,22.573,9.693,34.18    c6.979,33.424,6.463,68.793-5.915,100.915c-11.447,29.695-33.635,55.949-58.168,75.725c-12.99,10.418-27.541,18.987-42.828,25.579    c-2.813,1.206-3.425,5.272-2.012,7.669C121.417,290.367,124.616,290.72,127.413,289.514"/>
		<path fill="#FFFFFF" d="M124.906,262.713c41.351-17.396,65.738-49.036,79.775-74.92c33.278-61.302-1.656-147.555-1.656-147.555    S175.227,24.37,124.6,24.37S40.694,40.303,40.694,40.303s-28.456,83.438,3.633,148.438    C57.785,216.057,82.657,247.037,124.906,262.713"/>
		<path fill="#110B15" d="M125.114,263.596c31.061-13.198,56.562-36.108,74.567-64.484c8.504-13.425,14.612-27.75,17.781-43.344    c3.199-15.835,3.488-32.169,2.17-48.23c-1.817-22.058-6.753-44.164-14.39-64.921c-0.29-0.771-0.644-2.668-1.448-3.101    c-1.558-0.836-3.118-1.561-4.709-2.268c-10.097-4.469-20.804-7.507-31.592-9.742c-34.84-7.219-71.88-5.21-106.012,4.533    c-7.074,2.025-14.196,4.375-20.9,7.459c-0.869,0.419-1.012,1.784-1.286,2.604c-0.9,2.911-1.703,5.884-2.508,8.843    c-7.009,26.817-10.113,55.033-7.861,82.7c2.636,32.59,14.694,63.056,35.722,88.168c15.853,18.97,36.529,33.214,59.63,41.897    c1.302,0.498,1.865-1.591,0.579-2.075c-32.266-12.138-58.263-35.353-75.16-65.225C32.382,165.833,28.395,130.381,31.272,95.85    c1.544-18.458,4.791-37.396,10.709-55.017c-0.306,0.853-0.579,0.659,0.433,0.209c1.158-0.515,2.332-1.013,3.504-1.48    c4.357-1.72,8.81-3.23,13.282-4.598c15.916-4.872,32.409-7.732,48.986-8.938c30.145-2.219,62.604,0.9,90.482,13.376    c0.995,0.465,1.977,0.915,2.956,1.415c0.981,0.481,1.029,0.965,0.596-0.064c0.548,1.349,1.045,2.685,1.543,4.051    c3.103,8.714,5.676,17.653,7.798,26.655c7.267,30.37,9.921,63.137,1.496,93.568c-4.246,15.146-11.995,28.907-21.079,41.673    c-9.71,13.681-21.526,25.933-34.935,36.061c-10.16,7.702-21.318,13.989-33.022,18.986    C122.752,262.279,123.862,264.161,125.114,263.596"/>
		<path fill="#110B15" d="M73.251,142.745c0,0-0.755-88.906-0.755-91.333c0-0.209-2.251-5.982-2.878-6.061    c-0.66-0.114-3.104,5.191-3.104,5.191l-1.543,90.901L73.251,142.745L73.251,142.745z M73.251,142.745"/>
		<path fill="#110B15" d="M66.819,147.392l0.017-5.048l4.388,0.707l-0.014,5.035L66.819,147.392z M66.819,147.392"/>
		<path fill="#110B15" d="M72.849,164.611c0,1.768-1.689,2.941-3.778,2.62c-2.059-0.321-3.731-2.025-3.731-3.809    c0.017-1.77,1.689-2.942,3.764-2.621C71.176,161.138,72.849,162.842,72.849,164.611"/>
		<path fill="#110B15" d="M72.544,153.919c-0.017,5.242-1.641,9.261-3.585,8.956c-1.961-0.323-3.569-4.823-3.538-10.063    c0.016-5.257,1.641-9.262,3.585-8.971C71,144.161,72.56,148.677,72.544,153.919"/>
		<path fill="#110B15" d="M69.296,144.803c-4.726-0.74-10.739-2.86-13.248-5.433c-0.483-0.484-0.338-0.563-0.064-0.934l0.9-1.125    c0.241-0.338,0.241-0.37,0.708-0.047c1.913,1.27,5.642,3.488,11.719,4.453"/>
		<path fill="#110B15" d="M68.911,144.74c4.727,0.755,10.74,0.514,13.279-1.239c0.481-0.338,0.338-0.48,0.064-0.915l-0.884-1.432    c-0.257-0.386-0.243-0.418-0.707-0.24c-1.93,0.643-5.675,1.687-11.738,0.739"/>
		<path fill="#00704A" d="M165.309,136.331c-1.367,2.041-3.795,3.555-3.795,3.555s0.305-1.545,1.815-4.52    c3.152-6.221,9.263-17.187,6.544-30.53c-0.595-2.99-1.913-8.698-1.913-8.698C170.114,96.878,180.726,113.1,165.309,136.331"/>
		<path fill="#00704A" d="M164.938,88.709c-3.424-0.159-13.824-4.645-15.304-5.384c-1.497-0.789-10.967-7.09-15.419-0.87    c-4.229,5.918-1.769,16.512,7.09,20.128c3.104,1.271,6.124,0.563,6.124,0.563s-0.545,7.444,4.276,11.802    c4.712,4.26,10.354,4.662,11.979-0.981c1.673-5.642-0.9-17.718,2.267-21.334c0.95-1.077,2.638-1.398,4.438,0.064    c0,0,4.374,3.167,9.341,11.478c10.242,17.026,26.85,6.094,12.524-8.15c0,0,3.23,0,5.193-2.637    c1.543-2.073,4.564-8.908-3.233-16.655c-6.283-6.189-11.075-1.801-13.102,0.014c-2.042,1.801-7.09,8.748-10.192,10.307    c-2.284,1.157-1.513-2.316-0.467-4.453c18.843-38.777-10.127-46.334-15.513-31.206c-0.468,1.351-0.82,3.023-0.82,3.023    s-0.935-0.884-1.737-1.577c-2.781-2.33-7.604-4.131-12.009-1.027c-4.889,3.471-7.797,16.929,8.262,24.293    c7.959,3.647,11.77,6.413,13.844,8.166C165.485,86.783,166.771,88.807,164.938,88.709"/>
		<path fill="#00704A" d="M146.932,222.73c-1.11,0.224-2.154-0.017-2.154-0.017s0.708-0.819,2.252-1.222    c3.214-0.804,8.632-2.797,12.652-7.412c0.963-1.094,3.021-3.311,3.021-3.311C162.912,211.717,160.966,219.9,146.932,222.73"/>
		<path fill="#00704A" d="M164.649,207.649c-0.644-0.916-1.432-4.646-1.497-5.209c-0.078-0.563-0.128-4.485-2.925-4.148    c-2.652,0.339-6.062,3.955-5.354,7.091c0.274,1.094,1.446,1.817,1.446,1.817s-2.475,1.012-2.813,3.295    c-0.322,2.218,1.19,3.812,3.232,2.895c2.056-0.935,5.178-4.485,6.911-4.55c0.531-0.018,0.981,0.338,0.917,1.157    c0,0-0.063,1.896-1.543,5.129c-3.055,6.703,5.515,5.546,5.515,0.434c0,0,1.334,1.11,2.525,0.996    c0.931-0.112,3.103-0.884,3.84-4.741c0.579-3.087-2.362-2.83-3.342-2.895c-0.965-0.098-4.1,0.273-5.193-0.128    c-0.82-0.305,0.369-1.013,1.239-1.191c16.221-3.488,11.928-13.696,6.268-11.445c-0.498,0.208-1.092,0.513-1.092,0.513    s0.096-0.464,0.129-0.819c0.129-1.27-0.321-2.926-2.155-3.312c-2.06-0.417-7.202,2.573-6.142,8.44    c0.547,2.911,0.628,3.569,0.514,4.967C165.002,207.294,164.987,208.131,164.649,207.649"/>
		<path fill="#00704A" d="M162.624,183.259c0,0,8.874-18.296,20.803-26.848c1.607-1.124,2.525-0.884,2.525-0.884    s-0.146,1.141-0.981,1.818c-13.522,10.932-19.503,26.026-22.105,30.898c-0.613,1.19-1.206,0.531-1.239,0.29    c-0.547-4.1-1.527-11.752-7.429-17.652c-1.655-1.656-3.102-3.602-3.102-3.602C152.236,167.04,159.407,171.284,162.624,183.259"/>
		<path fill="#00704A" d="M148.973,162.938c-1.56,0.338-6.944-0.675-7.699-0.884c-0.805-0.21-6.063-2.268-7.092,1.398    c-0.979,3.504,1.786,8.539,6.352,9.293c1.592,0.288,2.847-0.419,2.847-0.419s0.915,3.795,3.744,5.417    c2.797,1.577,5.387,1.126,5.242-1.944c-0.146-3.022-3.153-8.81-2.315-10.997c0.256-0.66,0.98-1.029,2.026-0.498    c0,0,2.459,1.078,5.996,4.646c7.249,7.38,13.022-0.129,4.357-5.58c0,0,1.494-0.386,1.944-1.943c0.355-1.24,0.66-5.049-4.067-8.008    c-3.747-2.38-5.273,0.417-5.917,1.56c-0.61,1.158-1.784,5.256-2.957,6.431c-0.852,0.836-1.046-0.997-0.917-2.205    c2.444-21.783-11.785-22.119-11.832-13.84c-0.018,0.707,0.08,1.591,0.08,1.591s-0.548-0.353-1.013-0.58    c-1.641-0.85-4.084-1.171-5.579,0.918c-1.672,2.346-0.884,9.453,7.507,11.254c4.164,0.882,6.304,1.832,7.509,2.458    C148.908,161.909,149.826,162.779,148.973,162.938"/>
		<path fill="#00704A" d="M189.537,151.765c1.67,0.661,7.876,0.546,8.793,0.468c0.933-0.082,7.171-1.334,7.635,2.941    c0.437,4.084-3.632,9.179-8.856,9.163c-1.817,0-3.071-1.044-3.071-1.044s-1.736,4.083-5.225,5.336    c-3.392,1.239-6.222,0.228-5.481-3.151c0.722-3.375,5.19-9.227,4.677-11.864c-0.192-0.771-0.915-1.303-2.185-0.932    c0,0-2.928,0.739-7.574,4.067c-9.5,6.833-14.518-2.654-3.809-7.09c0,0-1.544-0.708-1.753-2.557    c-0.21-1.415,0.192-5.739,6.046-8.135c4.676-1.944,5.787,1.463,6.284,2.878c0.498,1.415,1.029,6.205,2.105,7.733    c0.789,1.094,1.352-0.902,1.416-2.282c1.446-24.792,17.396-22.445,15.868-13.215c-0.128,0.82-0.419,1.798-0.419,1.798    s0.724-0.288,1.272-0.464c1.977-0.627,4.757-0.531,6.027,2.089c1.415,2.909-0.82,10.724-10.499,11.126    c-4.822,0.209-7.379,0.819-8.89,1.287C189.777,150.624,188.62,151.395,189.537,151.765"/>
		<path fill="#E31B23" d="M136.53,228.002l-0.098-30.178c-6.688-0.964-13.119-2.089-19.275-3.327V29.771    C106.659,30.093,96,31.138,96,31.138l0.064,158.375c-32.188-8.664-52.059-19.001-52.059-19.001    c0.948,4.532,10.387,24.259,10.387,24.259c-1.32-0.948,15.802,13.923,41.671,24.116l0.017,22.732    c11.864,8.088,21.093,11.029,21.093,11.029v-27.281C123.364,226.715,129.857,227.681,136.53,228.002"/>
	</g>
	<path fill="#110B15" d="M0,339.385V309.69h9.165v22.092h13.151v7.604H0z M0,339.385"/>
	<path fill="#110B15" d="M35.707,339.948c-8.133,0-11.767-5.37-11.767-11.35c0-5.999,3.648-11.318,11.767-11.318   s11.754,5.319,11.754,11.318C47.475,334.578,43.825,339.948,35.707,339.948 M35.707,323.243c-3.118,0-3.552,3.04-3.552,5.339   c0,2.282,0.417,5.37,3.552,5.37c3.104,0,3.538-3.088,3.538-5.37C39.244,326.283,38.81,323.243,35.707,323.243"/>
	<path fill="#110B15" d="M49.808,317.809h7.925v2.749h0.096c1.561-2.171,3.73-3.295,7.025-3.295c3.876,0,7.396,2.395,7.396,7.33   v14.792h-8.216v-11.302c0-2.477-0.289-4.228-2.717-4.228c-1.415,0-3.28,0.69-3.28,4.146v11.383h-8.231V317.809L49.808,317.809z    M49.808,317.809"/>
	<path fill="#110B15" d="M97.973,339.385h-7.94v-2.363h-0.081c-1.046,1.364-2.316,2.909-6.335,2.909   c-6.125,0-9.067-6.044-9.067-11.446c0-5.063,1.944-11.222,9.179-11.222c2.461,0,4.646,1.077,5.9,2.908h0.082V309.69h8.262V339.385   L97.973,339.385z M86.398,323.243c-2.957,0-3.633,2.799-3.633,5.339c0,2.573,0.676,5.37,3.633,5.37c2.958,0,3.635-2.797,3.635-5.37   C90.033,326.042,89.356,323.243,86.398,323.243"/>
	<path fill="#110B15" d="M112.074,339.948c-8.135,0-11.769-5.37-11.769-11.35c0-5.999,3.65-11.318,11.769-11.318   c8.103,0,11.752,5.319,11.752,11.318C123.843,334.578,120.177,339.948,112.074,339.948 M112.074,323.243   c-3.119,0-3.554,3.04-3.554,5.339c0,2.282,0.418,5.37,3.554,5.37c3.102,0,3.535-3.088,3.535-5.37   C115.609,326.283,115.176,323.243,112.074,323.243"/>
	<path fill="#110B15" d="M126.173,317.809h7.943v2.749h0.081c1.543-2.171,3.728-3.295,7.024-3.295c3.874,0,7.396,2.395,7.396,7.33   v14.792h-8.215v-11.302c0-2.477-0.308-4.228-2.718-4.228c-1.416,0-3.281,0.69-3.281,4.146v11.383h-8.23V317.809L126.173,317.809z    M126.173,317.809"/>
	<path fill="#110B15" d="M161.736,309.69h9.147v29.695h-9.147V309.69L161.736,309.69z M161.736,309.69"/>
	<path fill="#110B15" d="M174.212,317.809h7.893v3.442h0.081c1.318-2.573,3.071-3.988,6.061-3.988c0.854,0,1.641,0.146,2.428,0.339   v7.282c-0.836-0.291-1.591-0.548-3.246-0.548c-3.233,0-5.001,1.913-5.001,6.527v8.521h-8.23v-21.576H174.212z M174.212,317.809"/>
	<path fill="#110B15" d="M201.076,315.479h-8.263v-5.772h8.263V315.479L201.076,315.479z M192.845,317.809h8.265v21.576h-8.265   V317.809L192.845,317.809z M192.845,317.809"/>
	<path fill="#110B15" d="M217.009,324.096c-0.048-0.691-0.417-1.254-0.981-1.625c-0.498-0.417-1.155-0.644-1.815-0.644   c-1.157,0-2.492,0.273-2.492,1.689c0,0.626,0.481,0.899,0.948,1.124c1.398,0.564,4.518,0.741,7.252,1.658   c2.749,0.884,5.177,2.492,5.177,6.027c0,5.996-5.755,7.621-11.014,7.621c-5.064,0-10.658-2.042-10.772-7.621h7.861   c0.033,0.741,0.386,1.385,0.981,1.914c0.419,0.37,1.206,0.626,2.235,0.626c1.062,0,2.797-0.401,2.797-1.64   c0-1.27-0.722-1.639-4.534-2.315c-6.301-1.077-8.826-3.07-8.826-6.769c0-5.45,5.854-6.863,10.178-6.863   c4.662,0,10.305,1.286,10.481,6.816H217.009L217.009,324.096z M217.009,324.096"/>
	<path fill="#110B15" d="M227.153,309.69h8.247v10.451h0.081c1.415-1.673,3.232-2.878,6.72-2.878c3.908,0,7.412,2.38,7.412,7.313   v14.809h-8.23v-11.302c0-2.492-0.322-4.245-2.701-4.245c-1.416,0-3.281,0.708-3.281,4.148v11.398h-8.247V309.69L227.153,309.69z    M227.153,309.69"/>
</g>
</svg>