<?xml version="1.0" encoding="UTF-8" standalone="no"?>
<!-- Created with Inkscape (http://www.inkscape.org/) -->

<svg
   xmlns:dc="http://purl.org/dc/elements/1.1/"
   xmlns:cc="http://creativecommons.org/ns#"
   xmlns:rdf="http://www.w3.org/1999/02/22-rdf-syntax-ns#"
   xmlns:svg="http://www.w3.org/2000/svg"
   xmlns="http://www.w3.org/2000/svg"
   xmlns:sodipodi="http://sodipodi.sourceforge.net/DTD/sodipodi-0.dtd"
   xmlns:inkscape="http://www.inkscape.org/namespaces/inkscape"
   id="svg2"
   version="1.1"
   inkscape:version="0.49 r12742"
   width="629.95966"
   height="564.88934"
   viewBox="0 0 629.95966 564.88934"
   sodipodi:docname="MK_Dons.svg">
  <metadata
     id="metadata8">
    <rdf:RDF>
      <cc:Work
         rdf:about="">
        <dc:format>image/svg+xml</dc:format>
        <dc:type
           rdf:resource="http://purl.org/dc/dcmitype/StillImage" />
        <dc:title></dc:title>
      </cc:Work>
    </rdf:RDF>
  </metadata>
  <defs
     id="defs6" />
  <sodipodi:namedview
     pagecolor="#ffffff"
     bordercolor="#666666"
     borderopacity="1"
     objecttolerance="10"
     gridtolerance="10"
     guidetolerance="10"
     inkscape:pageopacity="0"
     inkscape:pageshadow="2"
     inkscape:window-width="3200"
     inkscape:window-height="1687"
     id="namedview4"
     showgrid="false"
     fit-margin-top="0"
     fit-margin-left="0"
     fit-margin-right="0"
     fit-margin-bottom="0"
     inkscape:zoom="1.2482645"
     inkscape:cx="289.79"
     inkscape:cy="365.08498"
     inkscape:window-x="0"
     inkscape:window-y="55"
     inkscape:window-maximized="1"
     inkscape:current-layer="g4064" />
  <g
     id="g4064"
     transform="translate(-188.63349,-86.24771)">
    <path
       style="fill:#ceb294"
       d="m 205.69727,649.38485 c -7.23417,-2.57706 -10.97735,-5.73117 -14.13477,-11.91039 -8.28285,-16.20988 1.93844,-35.4349 18.90303,-35.55433 l 6.40947,-0.0451 0,4.24921 c 0,3.8419 -0.47928,4.4115 -5,5.94226 -9.41123,3.18674 -13.27962,11.98962 -9.2018,20.93948 1.60032,3.51234 7.95707,6.99405 12.7694,6.99405 7.74329,0 10.62483,-3.26434 15.10965,-17.11694 2.48863,-7.68676 6.27935,-13.57007 10.99345,-17.06215 4.18331,-3.09887 15.64431,-4.17392 23.0987,-2.16666 9.97079,2.68485 17.8007,12.62395 17.8007,22.59575 0,5.7949 -3.79796,13.91621 -8.08498,17.28837 -4.03393,3.17309 -14.87316,6.66597 -17.52647,5.64779 -2.71883,-1.04331 -2.43381,-9.07176 0.35385,-9.96756 7.11986,-2.28793 9.36896,-3.68539 10.99645,-6.83259 2.93172,-5.66934 2.2965,-10.84787 -1.8378,-14.98216 -3.04474,-3.04475 -4.67543,-3.65385 -9.7821,-3.65385 -7.9721,0 -10.50061,2.67315 -14.70161,15.54255 -1.76549,5.40844 -4.39802,11.50195 -5.85005,13.54114 -5.35369,7.51857 -19.19992,10.51077 -30.31512,6.55116 z m 159.74898,-0.61805 c -6.42445,-2.60765 -6.69625,-4.26616 -6.69625,-40.86111 0,-34.63975 0.52666,-39.11542 4.85681,-41.27443 1.11,-0.55344 34.90229,-1.28751 75.09398,-1.63126 l 73.07578,-0.625 -74.95078,-59.76841 c -41.22294,-32.87264 -75.65975,-61.11513 -76.52628,-62.76109 -1.25,-2.37442 -1.50824,-38.92094 -1.25,-176.90464 L 359.375,91.028904 362.32597,88.639451 C 365.08076,86.408864 367.70196,86.25 401.75121,86.25 l 36.47424,0 58.69977,46.86246 c 32.28488,25.77435 59.26228,46.86146 59.94978,46.86025 0.6875,-0.001 27.68317,-21.08932 59.9904,-46.86246 L 675.6058,86.25 l 36.62891,0 36.62893,0 3.06817,3.068181 3.06819,3.068183 0,174.488636 0,174.48864 -2.8125,2.76906 c -1.54688,1.52299 -35.94895,29.20055 -76.44905,61.50569 L 602.10189,564.375 676.00707,565 c 68.77374,0.5816 74.06012,0.77985 76.13655,2.8553 2.02064,2.01966 2.26594,5.63741 2.59737,38.30561 l 0.36598,36.07532 -3.07016,3.56938 -3.07016,3.56939 -190.42083,0.23955 C 452.83927,649.74752 366.93327,649.37039 365.44625,648.7668 Z M 614.41403,446.27455 670,401.92409 670,300.96205 C 670,245.43292 669.6988,200 669.33066,200 c -0.36813,0 -19.91501,15.36039 -43.4375,34.13418 -23.52249,18.77379 -48.57137,38.74947 -55.66419,44.39037 -8.52342,6.77865 -13.46852,9.9331 -14.58447,9.30331 -0.92864,-0.52407 -26.16247,-20.49974 -56.07518,-44.39036 C 469.65663,219.54687 444.86026,200 444.4663,200 c -0.39396,0 -0.71518,45.42187 -0.71379,100.9375 l 0.003,100.9375 13.33641,10.625 c 7.33503,5.84375 32.50578,25.95219 55.93499,44.68541 23.42921,18.73324 43.31927,33.92074 44.2001,33.75 0.88084,-0.17072 26.61521,-20.26811 57.1875,-44.66086 z m -66.43094,32.12955 c -20.33799,-15.73502 -97.43875,-77.6291 -98.27645,-78.89324 -0.5051,-0.76222 -0.92698,-42.88789 -0.9375,-93.61259 -0.0168,-80.60301 0.21582,-92.3169 1.84516,-92.94213 1.20292,-0.4616 20.26621,14.00333 53.73509,40.77337 28.52891,22.81883 52.40082,41.29904 53.04868,41.06713 0.64787,-0.2319 24.30259,-18.89487 52.56607,-41.47325 32.36835,-25.8576 52.06317,-40.79258 53.21198,-40.35174 1.57572,0.60466 1.82388,13.2586 1.82388,93.00021 0,71.96564 -0.34424,92.73045 -1.5625,94.2527 -1.64171,2.05137 -98.65295,79.47091 -103.84264,82.87133 -2.90036,1.90038 -3.29984,1.73897 -11.61177,-4.69179 z M 608.75,434.11949 656.875,395.625 l 0.3215,-83.0535 c 0.18626,-48.11588 -0.1524,-83.5274 -0.80506,-84.18006 -0.66875,-0.66875 -20.54375,14.41441 -48.90755,37.116 C 578.05084,289.06482 558.668,303.75 557.00785,303.75 c -1.65594,0 -21.13155,-14.69939 -50.51283,-38.125 -26.29978,-20.96875 -48.36391,-38.125 -49.03141,-38.125 -0.77272,0 -1.21361,30.39542 -1.21361,83.6697 l 0,83.66971 9.0625,7.38559 c 4.98437,4.06208 27.51119,22.10365 50.05957,40.09239 33.23848,26.51712 41.39979,32.47874 43.125,31.5017 1.17037,-0.66282 23.78418,-18.52763 50.25293,-39.6996 z M 190.75874,586.77276 c -1.034,-2.69455 -0.92308,-8.3353 0.1979,-10.06395 0.5051,-0.7789 14.98086,-10.51516 32.16836,-21.63614 17.1875,-11.12097 31.78437,-20.74931 32.4375,-21.39631 C 256.3049,532.94092 244.80271,532.5 224.875,532.5 191.24694,532.5 190,532.2936 190,526.72724 190,519.67577 187.82345,520 235.16054,520 l 43.64306,0 1.44679,3.17536 c 2.68409,5.89093 0.1359,9.21728 -14.30985,18.67983 -7.36352,4.8234 -21.9781,14.39481 -32.47687,21.26981 l -19.08867,12.5 32.22395,0.33367 32.22395,0.33368 1.41419,3.10382 c 1.0538,2.31284 1.05133,3.90022 -0.01,6.22883 l -1.42384,3.125 -43.64306,0 c -38.64365,0 -43.72998,-0.2265 -44.4018,-1.97724 z m 198.72022,-33.79011 c -42.6833,-35.20718 -73.5622,-84.67141 -86.91837,-139.23265 -5.3823,-21.9872 -6.90355,-35.72735 -6.85054,-61.875 0.0882,-43.53596 9.47659,-82.30276 28.95901,-119.57939 7.6625,-14.66099 24.3055,-39.17061 26.5984,-39.17061 1.62687,0 1.93515,15.54922 2.48254,125.21213 l 0.625,125.21212 3.125,3.36014 c 1.71875,1.84808 33.10401,27.2687 69.74504,56.49027 36.64101,29.22158 66.40677,53.7703 66.14612,54.55274 -0.34058,1.0224 -13.82151,1.51461 -47.92161,1.7497 l -47.44771,0.32711 -8.54288,-7.04656 z m 83.47854,-1.46163 c 0.33277,-0.53843 -24.80353,-21.21031 -55.85845,-45.9375 -61.321,-48.82627 -66.40475,-53.11505 -69.07002,-58.26911 C 346.52832,444.41239 346.25,425.97035 346.25,329.43708 346.25,259.93396 345.79473,215 345.0905,215 c -2.87209,0 -19.6017,32.11806 -26.69501,51.25 -5.43885,14.66954 -10.20681,33.92662 -12.72898,51.41043 -2.51828,17.45696 -2.4991,51.82666 0.0391,70.02476 6.95189,49.84293 29.08315,97.01568 62.86677,134.00046 9.9026,10.8409 28.61185,28.10936 32.05261,29.58425 3.13859,1.34536 71.50953,1.58272 72.3325,0.25112 z M 620.625,558.75 c -0.4249,-0.6875 -0.50094,-1.67188 -0.16899,-2.1875 0.33196,-0.51563 30.99676,-25.125 68.144,-54.6875 45.95943,-36.57541 68.15705,-55.00859 69.47022,-57.68891 C 759.77022,440.71619 760,425.58076 760,317.07236 c 0,-92.42934 0.36365,-123.39957 1.45689,-124.07522 2.87762,-1.77848 18.19359,20.79776 29.90027,44.074 44.54157,88.56137 33.81692,195.77781 -27.52221,275.14517 -10.09381,13.06049 -27.02665,30.54443 -39.39066,40.67269 l -8.68072,7.111 -47.18301,0 c -30.10699,0 -47.46261,-0.45239 -47.95556,-1.25 z m 99.61914,-12.80275 c 26.20162,-21.80521 49.53145,-51.64096 64.6826,-82.72048 17.40659,-35.70605 25.20202,-69.9615 25.19786,-110.72677 -0.004,-34.30725 -5.40792,-62.92278 -17.6941,-93.68728 -6.52935,-16.34945 -20.67814,-42.60359 -23.45937,-43.53068 -1.12104,-0.37368 -1.47113,26.78647 -1.47113,114.1311 0,113.52782 -0.0246,114.66532 -2.58263,119.21664 -1.81748,3.23378 -20.66938,19.02278 -63.63175,53.29341 -33.57701,26.78402 -60.78787,49.12091 -60.46859,49.63752 0.31928,0.51661 16.54936,0.93929 36.06684,0.93929 l 35.48634,0 7.87393,-6.55275 z M 220.35755,504.43656 c -12.3055,-3.84576 -23.17121,-13.1661 -28.30995,-24.28356 -3.83823,-8.30384 -3.82264,-27.03468 0.0295,-35.37259 6.25432,-13.53761 18.88311,-22.43464 35.1116,-24.73625 24.72274,-3.50632 46.50491,8.9109 52.97017,30.19634 7.28868,23.99637 -5.08461,47.1991 -28.8232,54.05007 -8.14215,2.34984 -23.69181,2.42312 -30.97807,0.14599 z m 34.20904,-15.41193 c 17.4562,-9.08542 20.91237,-32.91604 6.76461,-46.64256 -13.27979,-12.88438 -36.95419,-12.88633 -51.62606,-0.004 -6.24188,5.48042 -8.88651,12.92128 -8.23411,23.16713 0.70428,11.0606 5.0429,17.26667 16.08008,23.00133 7.81532,4.06066 8.4542,4.17877 19.94889,3.68771 9.02093,-0.38539 13.12276,-1.15674 17.06659,-3.20937 z m -34.77113,-82.67318 c -12.96,-4.14473 -21.33255,-11.15025 -26.26482,-21.97645 -2.42016,-5.31219 -2.91686,-8.83756 -3.31019,-23.49466 -0.25452,-9.48457 -0.11625,-18.62519 0.3072,-20.3125 l 0.76997,-3.06784 43.68222,0 c 41.908,0 43.73476,0.0983 44.97618,2.41782 1.66341,3.10809 1.65419,23.37084 -0.0153,33.65955 -2.67106,16.46124 -12.34346,28.1117 -27.13062,32.67899 -10.11206,3.1233 -23.42595,3.16165 -33.01465,0.0951 z m 29.13149,-12.80215 c 2.6631,-0.79788 7.04349,-3.33509 9.73419,-5.63824 6.73916,-5.76847 9.41462,-13.32304 9.44202,-26.66106 l 0.0219,-10.625 -32.8125,-0.33325 -32.8125,-0.33326 0.007,10.33326 c 0.004,5.68329 0.59701,12.458 1.31819,15.05491 2.24167,8.07226 10.3139,15.56436 19.91675,18.48541 4.89397,1.48868 19.83226,1.32097 25.18503,-0.28277 z M 223.66169,329.54079 C 211.28487,326.20365 200.35201,317.11327 194.14681,305 c -3.1693,-6.18685 -3.52181,-8.12619 -3.52181,-19.375 0,-11.33946 0.33955,-13.1705 3.6572,-19.72195 4.46767,-8.82243 13.53182,-17.54059 22.51034,-21.65109 25.22005,-11.54611 55.544,3.03744 62.53185,30.07316 2.41772,9.35409 2.4157,13.26805 -0.0113,22.58739 -6.29901,24.18355 -31.71166,39.08303 -55.65103,32.62828 z M 190.83334,246.66666 C 190.375,246.20834 190,243.34026 190,240.29318 c 0,-6.58873 0.12025,-6.71468 23.5453,-24.66818 8.97025,-6.875 16.34221,-12.92188 16.38213,-13.4375 0.0399,-0.51563 -8.586,-0.9375 -19.16869,-0.9375 C 190.09306,201.25 190,201.2198 190,194.52276 c 0,-5.69615 0.60922,-5.77276 45.90594,-5.77276 l 42.90593,0 1.29347,3.40207 c 0.89218,2.34662 0.8909,4.2856 -0.004,6.25 -1.26064,2.7668 -1.79688,2.84793 -18.8244,2.84793 -9.63974,0 -17.50029,0.42187 -17.46789,0.9375 0.0324,0.51562 8.18713,7.6746 18.12161,15.90882 15.1261,12.53733 18.19038,15.652 18.84814,19.15815 0.81697,4.35485 -1.22291,10.74584 -3.20178,10.03122 -0.62547,-0.22588 -9.65712,-7.86382 -20.07033,-16.97319 -10.41322,-9.10938 -19.59652,-16.54901 -20.40734,-16.53251 -0.81081,0.0165 -10.73695,7.61023 -22.05808,16.875 -19.73448,16.14992 -22.34373,17.87575 -24.2078,16.01167 z m 0.68255,-74.40077 c -0.83374,-0.83374 -1.50728,-2.95027 -1.49675,-4.70339 0.0414,-6.88024 0.0729,-6.88781 31.47944,-7.5625 l 29.09367,-0.625 -28.95266,-12.2593 c -15.92395,-6.74261 -29.65398,-13.10435 -30.51115,-14.13719 -1.0821,-1.30382 -1.2062,-2.85585 -0.40598,-5.07711 0.9749,-2.70616 5.55459,-5.08986 29.71397,-15.46591 15.70878,-6.74667 28.88066,-12.585909 29.27083,-12.976083 C 250.09744,99.069234 237.49791,98.75 221.70834,98.75 191.42589,98.75 190,98.490405 190,92.977234 190,85.92626 187.83011,86.25 235.08976,86.25 c 43.01939,0 43.59015,0.03339 44.98068,2.631621 0.77462,1.447392 1.06326,4.471375 0.64142,6.719963 -0.8717,4.646556 1.12019,3.615343 -43.49215,22.516146 -14.24791,6.03638 -25.68892,11.31993 -25.42446,11.74124 0.26445,0.42132 15.22289,6.95353 33.24096,14.51603 35.97124,15.09775 37.46139,16.11207 35.47591,24.14776 l -1.13712,4.60224 -43.17161,0.32839 c -32.53363,0.24747 -43.54514,-0.0451 -44.6875,-1.1875 z m 362.17136,-0.67158 c -5.63854,-3.89606 -78.05035,-62.0249 -78.95455,-63.38103 -1.6804,-2.5203 2.15598,-4.32957 17.1423,-8.08448 22.19581,-5.561288 40.03396,-7.6288 65.82005,-7.6288 25.34955,0 41.18074,1.874069 64.17472,7.59689 16.23888,4.04159 19.17187,5.61142 16.57996,8.8741 -1.63085,2.0529 -73.43284,59.32225 -78.71555,62.78362 -2.72479,1.78534 -3.25132,1.77139 -6.04693,-0.1603 z m 38.07065,-35.1642 c 17.59565,-13.99469 31.9921,-25.92138 31.9921,-26.50375 0,-1.46855 -6.91758,-3.30172 -23.75,-6.29377 -18.44699,-3.27906 -49.9885,-4.423463 -68.125,-2.47175 -19.77436,2.12798 -41.875,6.70173 -41.875,8.66608 0,0.5393 14.93886,12.90232 33.19746,27.47338 22.41215,17.88574 33.74504,26.18124 34.8829,25.53376 0.92699,-0.52749 16.08188,-12.40926 33.67754,-26.40395 z"
       id="path4078"
       inkscape:connector-curvature="0" />
    <path
       style="fill:#eecb00"
       d="M 207.20505,648.82004 C 196.48662,645.38996 190,636.76252 190,625.93673 c 0,-6.84937 1.66371,-11.71772 5.39576,-15.78913 3.57743,-3.9027 11.69325,-7.5857 16.79174,-7.62015 3.5224,-0.0238 4.0625,0.39391 4.0625,3.14197 0,2.54943 -1.06325,3.62519 -5.4354,5.4993 -7.54589,3.23455 -10.8146,7.75976 -10.8146,14.97172 0,6.91411 2.49949,10.96462 8.24821,13.3666 11.06668,4.62395 18.5667,0.36007 22.31066,-12.68393 3.26762,-11.3844 7.57257,-17.91296 13.62362,-20.6605 12.86716,-5.84246 29.5343,-0.75437 34.68572,10.58873 3.10404,6.8349 2.97265,12.79721 -0.43071,19.5463 -3.00732,5.96371 -10.39785,10.7161 -17.8125,11.45411 -3.24955,0.32344 -3.80161,-0.0734 -4.13671,-2.97292 -0.33306,-2.88189 0.3607,-3.67756 5,-5.73437 6.92197,-3.06882 8.67877,-5.30211 9.43271,-11.99107 0.5292,-4.69496 0.1205,-5.99576 -2.96611,-9.44068 -6.60808,-7.37512 -18.18852,-7.26762 -22.7191,0.21089 -1.34993,2.22828 -3.34658,7.18049 -4.437,11.00494 -2.26932,7.95912 -6.1429,14.18247 -11.12475,17.87315 -3.83997,2.84472 -16.47642,4.03607 -22.46899,2.11835 z m 156.01111,-3.28245 c -1.07932,-1.07933 -2.27147,-3.1938 -2.64921,-4.69885 -0.37774,-1.50504 -0.51921,-17.82868 -0.31438,-36.27474 0.37238,-33.53348 0.37285,-33.53865 3.3234,-35.92615 2.83009,-2.29002 5.96665,-2.38785 76.5625,-2.38785 40.48634,0 73.61153,-0.46708 73.61153,-1.03795 0,-0.57088 -34.07292,-28.20637 -75.71761,-61.41222 C 392.18864,467.24581 361.85812,442.2245 361.15739,440.3814 360.46791,438.56795 360,367.86068 360,265.48681 l 0,-171.850446 3.06819,-3.068183 3.06817,-3.068181 35.55264,0 35.55264,0 8.56668,6.639842 c 4.71168,3.651913 31.21012,24.745668 58.88542,46.874998 27.67531,22.12934 51.15056,40.23516 52.16721,40.23516 1.01666,0 25.34199,-18.72524 54.05626,-41.61164 28.71429,-22.88641 55.21143,-43.980157 58.88254,-46.875004 L 676.4745,87.5 l 35.56956,0 35.56958,0 3.06817,3.068181 3.06819,3.068183 0,172.638996 c 0,112.79903 -0.43364,173.44925 -1.25105,174.9766 -0.68808,1.28569 -35.28183,29.4844 -76.875,62.6638 C 634.03078,537.09517 600,564.69376 600,565.24598 c 0,0.55221 33.21306,1.00402 73.80681,1.00402 l 73.80683,0 3.06817,3.06819 3.06819,3.06817 0,33.889 c 0,33.35561 -0.46264,37.73935 -4.24963,40.268 -0.75646,0.5051 -87.53832,0.92698 -192.84858,0.9375 -172.33863,0.0172 -191.66933,-0.17697 -193.43563,-1.94327 z M 615,447.71156 670.625,403.125 670.9449,301.3199 c 0.17595,-55.9928 -0.10525,-102.22231 -0.625,-102.73225 -0.51969,-0.50994 -25.92661,19.00549 -56.45981,43.3676 -30.53322,24.36211 -56.19106,44.29475 -57.01745,44.29475 -0.8264,0 -26.44027,-19.93321 -56.91972,-44.29604 -30.47945,-24.36282 -55.86847,-44.01712 -56.42004,-43.67622 -0.55159,0.34088 -1.00288,46.33231 -1.00288,102.20314 l 0,101.58333 2.8125,2.56387 c 11.15946,10.1729 110.20037,87.85109 111.90936,87.77098 1.18423,-0.0555 27.18439,-20.1649 57.77814,-44.6875 z M 504.72392,442.39101 C 477.03201,420.33107 453.39062,401.14376 452.1875,399.75254 450.14731,397.39337 450,391.08745 450,306.11152 450,225.52491 450.21893,215 451.89521,215 c 1.04238,0 24.47029,18.07468 52.06204,40.16594 27.59175,22.09126 51.07844,40.40432 52.19262,40.69568 1.26371,0.33048 21.49542,-14.99203 53.78017,-40.73046 28.46491,-22.69312 52.21914,-40.97299 52.78716,-40.62192 0.56804,0.35107 1.0328,41.92835 1.0328,92.39395 l 0,91.75565 -52.517,41.92057 C 582.34865,463.63574 557.89629,482.5 556.89442,482.5 c -1.00186,0 -24.47858,-18.04904 -52.1705,-40.10899 z M 606.875,437.44966 c 26.8125,-21.33586 49.45312,-39.72285 50.3125,-40.85999 2.03728,-2.69572 2.3053,-169.73306 0.27436,-170.98825 -0.70847,-0.43785 -22.17856,15.92219 -47.71131,36.35565 -25.53275,20.43348 -47.93634,38.02019 -49.78575,39.0816 -3.09832,1.7782 -3.65368,1.73955 -7.06721,-0.49191 -2.03757,-1.33197 -24.10604,-18.73426 -49.04107,-38.67176 -24.93502,-19.9375 -45.98781,-36.25 -46.78396,-36.25 -1.69707,0 -2.77676,167.08864 -1.09906,170.08652 1.30049,2.32384 99.27494,80.50939 100.9015,80.5214 0.6875,0.005 23.1875,-17.4474 50,-38.78326 z m -414.79166,149.217 c -1.68759,-1.68757 -0.78078,-8.82432 1.35416,-10.65755 1.20312,-1.03309 16.39062,-11.01669 33.75,-22.18577 17.35937,-11.16908 31.5625,-20.81725 31.5625,-21.44038 0,-0.64876 -14.14678,-1.13296 -33.10119,-1.13296 l -33.10119,0 -0.78361,-3.1222 c -1.77786,-7.08353 -3.08865,-6.8778 43.82176,-6.8778 l 43.16423,0 0,5.48883 0,5.48882 -32.71506,21.09385 c -17.99328,11.60161 -32.94327,21.77846 -33.22218,22.61523 -0.388,1.16397 7.22419,1.59972 32.40255,1.85482 l 32.90969,0.33345 0.38796,4.6875 0.38795,4.6875 -42.99212,0 c -23.64566,0 -43.36713,-0.375 -43.82545,-0.83334 z M 392.4524,553.59457 c -17.88565,-14.13778 -38.91718,-37.28062 -52.68104,-57.96957 -8.90821,-13.39025 -24.49872,-44.79213 -29.10167,-58.6156 -9.71173,-29.16601 -13.4677,-52.70209 -13.48634,-84.5094 -0.0254,-43.22654 8.58251,-79.45536 27.93454,-117.57125 7.57225,-14.91435 23.07814,-38.70243 25.82425,-39.6178 1.23679,-0.41226 1.55786,24.866 1.55786,122.65106 0,95.86666 0.34636,123.93359 1.5625,126.6134 0.97369,2.14558 27.11676,23.83284 69.375,57.55075 37.29687,29.75925 67.8125,54.67384 67.8125,55.36578 0,0.82136 -16.0155,1.25806 -46.13775,1.25806 l -46.13775,0 -6.5221,-5.15543 z m 83.32165,-1.71957 c 0.19605,-0.6875 -27.63723,-23.52435 -61.85171,-50.74855 -47.2881,-37.62678 -62.71353,-50.56354 -64.31525,-53.93891 C 347.6784,443.12311 347.5,433.00656 347.5,327.69736 c 0,-74.68952 -0.43476,-115.31851 -1.2393,-115.81575 -1.51588,-0.93686 -9.19364,10.93144 -17.38151,26.86839 -20.0842,39.09209 -29.92137,88.15765 -26.4396,131.875 4.20686,52.82196 22.85645,100.13382 55.43215,140.625 11.0228,13.70121 29.10027,31.88536 38.38377,38.61029 l 5.42004,3.92626 36.87102,-0.33077 c 23.22285,-0.20834 37.00298,-0.79348 37.22748,-1.58078 z M 622.5,557.56856 c 0,-0.6498 30.39129,-25.45922 67.53619,-55.13206 39.38359,-31.4612 68.30271,-55.4329 69.375,-57.50649 C 760.99311,441.87092 761.25,424.16426 761.25,318.18707 761.25,239.57062 761.688,195 762.46058,195 c 3.24,0 19.74143,26.26255 29.8529,47.51181 35.92336,75.49301 32.64353,164.33829 -8.77145,237.60449 -14.56948,25.77451 -38.26174,54.13034 -59.55369,71.27619 l -9.13665,7.35751 -46.17585,0 c -28.1642,0 -46.17584,-0.46084 -46.17584,-1.18144 z m 95.12495,-7.73513 c 8.32218,-5.9262 33.36833,-31.62304 42.2114,-43.30803 57.85151,-76.44324 68.41645,-176.55894 27.6812,-262.31313 -8.24094,-17.3485 -18.21865,-33.44906 -20.03362,-32.32733 -0.79744,0.49283 -1.23393,41.46037 -1.23393,115.81242 0,105.60388 -0.17412,115.41677 -2.12082,119.51913 -1.61508,3.40351 -16.14672,15.63538 -60.9375,51.29356 -63.42252,50.49099 -65.93419,52.58627 -64.94847,54.18123 0.35989,0.5823 17.13049,1.05872 37.26802,1.05872 l 36.61367,0 5.50005,-3.91657 z M 221.16169,503.36047 C 202.24851,498.03026 190,481.96951 190,462.5 c 0,-16.28382 7.67829,-29.05057 21.80176,-36.25 8.40779,-4.28586 8.89075,-4.375 23.70295,-4.375 14.8325,0 15.26983,0.0811 22.97681,4.26013 18.52167,10.04318 26.56669,29.66176 20.43784,49.83966 -5.45362,17.95488 -19.67697,27.93615 -40.79436,28.62752 -6.5586,0.21473 -13.63253,-0.30314 -16.96331,-1.24184 z m 31.62212,-12.39665 c 7.56526,-3.197 15.375,-11.6335 17.2765,-18.66302 2.15026,-7.94915 0.80962,-18.72174 -3.17636,-25.52329 -10.42009,-17.78055 -41.72775,-20.56222 -57.97409,-5.15099 -5.92232,5.61792 -8.8497,12.61339 -8.88241,21.22613 -0.0475,12.49525 5.16954,20.86134 16.66636,26.72651 11.43658,5.83443 24.38467,6.3312 36.09,1.38466 z M 219.375,405.03321 c -10.7619,-3.56845 -19.15413,-10.41308 -23.7278,-19.35224 -3.71918,-7.26903 -3.7722,-7.64632 -3.7722,-26.83932 l 0,-19.46665 43.4375,-0.3287 43.4375,-0.3287 0,18.71931 c 0,15.59625 -0.41285,19.82199 -2.47463,25.3287 -3.53413,9.43924 -8.86936,15.25863 -18.20075,19.85245 -10.725,5.27991 -26.99732,6.29543 -38.69962,2.41515 z m 23.90167,-8.90135 c 10.76607,-1.87484 17.69722,-6.53122 22.28718,-14.97266 3.3689,-6.1958 3.69415,-7.86835 3.75,-19.2842 l 0.0611,-12.5 -33.75,0 -33.75,0 0,13.22912 c 0,12.52942 0.19835,13.54719 3.75,19.2424 4.37619,7.01739 13.55783,12.80499 22.77214,14.3543 3.28783,0.55283 6.21304,1.07129 6.50048,1.15215 0.28742,0.0809 4.05801,-0.46863 8.37906,-1.22111 z M 226.69381,328.7524 c -12.98506,-2.69969 -25.25926,-12.411 -31.34217,-24.79783 -3.02024,-6.1502 -3.47664,-8.55642 -3.47664,-18.32957 0,-9.77126 0.45666,-12.17991 3.47419,-18.32457 4.73823,-9.64861 12.04453,-16.79709 21.86476,-21.39253 6.94201,-3.24856 9.72176,-3.85141 17.69828,-3.83823 31.61911,0.0522 52.41402,30.19304 41.25491,59.79612 -7.03532,18.66341 -29.72256,30.99295 -49.47333,26.88661 z m -34.61047,-83.33574 c -0.45834,-0.45832 -0.83334,-2.94609 -0.83334,-5.52834 0,-5.28378 0.86581,-6.13273 27.25591,-26.72506 7.77201,-6.06454 13.66548,-11.49187 13.09659,-12.06076 -0.56887,-0.56887 -9.74029,-1.19029 -20.38091,-1.38091 L 191.875,199.375 l -0.3757,-3.232 c -0.70718,-6.08359 0.19166,-6.20065 44.89932,-5.84755 l 41.72638,0.32955 0.38796,4.6875 0.38795,4.6875 -18.12669,0 c -9.96967,0 -18.43435,0.49781 -18.81038,1.10626 -0.37604,0.60844 7.74701,8.21704 18.05122,16.908 L 278.75,233.816 l 0,5.592 c 0,3.21679 -0.58115,5.592 -1.36823,5.592 -0.75252,0 -9.5122,-7.17188 -19.46595,-15.9375 -9.95374,-8.76563 -19.07976,-16.10388 -20.28003,-16.30723 -1.30453,-0.22101 -10.44372,6.4258 -22.72155,16.52509 -11.29658,9.29215 -20.86737,16.91166 -21.2684,16.93223 -0.40105,0.0206 -1.10418,-0.33759 -1.5625,-0.79593 z m 0.4874,-74.70644 c -0.83197,-1.00243 -1.32884,-3.1192 -1.10419,-4.70392 l 0.40845,-2.8813 31.25,-0.70162 c 17.1875,-0.3859 31.50312,-0.80778 31.8125,-0.9375 1.58782,-0.66583 -4.37484,-3.4993 -32.09739,-15.2528 -31.00531,-13.1453 -34.31784,-15.29108 -30.1066,-19.5023 0.95726,-0.95727 14.93695,-7.401 31.06598,-14.31942 16.12903,-6.91842 29.85988,-13.103742 30.51301,-13.745155 C 255.04787,97.944021 243.80294,97.5 224.77805,97.5 c -33.06639,0 -34.20071,-0.221122 -33.3115,-6.493697 L 191.875,88.125 l 43.50665,-0.328776 43.50666,-0.328776 -0.38166,5.933962 -0.38165,5.933963 -34.14831,14.505377 c -18.78158,7.97795 -34.18332,15.01812 -34.22609,15.64481 -0.0427,0.62669 15.4926,7.81775 34.52305,15.98013 l 34.60081,14.84068 -0.37472,5.78432 -0.37474,5.78431 -42.02081,0.32892 c -35.57348,0.27847 -42.2529,0.0493 -43.53345,-1.4937 z M 515.625,139.90701 c -21.3125,-17.13964 -38.93635,-31.72067 -39.1641,-32.4023 -0.54239,-1.62323 2.8481,-2.84505 18.60716,-6.7054 35.64474,-8.731574 78.91752,-9.47661 114.92283,-1.978647 15.60442,3.249557 26.60114,6.580407 27.14874,8.223217 0.60005,1.80013 -77.8783,64.22919 -80.59912,64.11612 -1.19104,-0.0495 -19.60301,-14.11334 -40.91551,-31.25299 z m 76.25,-1.7411 c 18.5625,-14.74567 33.92145,-27.62372 34.131,-28.61788 0.9098,-4.31634 -40.99461,-10.811497 -69.50753,-10.773626 -27.84252,0.03697 -69.67013,6.541236 -68.75485,10.691486 0.42444,1.92457 67.15318,55.50286 69.13138,55.50743 0.6875,0.001 16.4375,-12.06175 35,-26.80741 z"
       id="path4076"
       inkscape:connector-curvature="0" />
    <path
       style="fill:#b78f58"
       d="M 207.20505,648.82004 C 196.48662,645.38996 190,636.76252 190,625.93673 c 0,-6.84937 1.66371,-11.71772 5.39576,-15.78913 3.57743,-3.9027 11.69325,-7.5857 16.79174,-7.62015 3.5224,-0.0238 4.0625,0.39391 4.0625,3.14197 0,2.54943 -1.06325,3.62519 -5.4354,5.4993 -7.54589,3.23455 -10.8146,7.75976 -10.8146,14.97172 0,6.91411 2.49949,10.96462 8.24821,13.3666 11.06668,4.62395 18.5667,0.36007 22.31066,-12.68393 3.26762,-11.3844 7.57257,-17.91296 13.62362,-20.6605 12.86716,-5.84246 29.5343,-0.75437 34.68572,10.58873 3.10404,6.8349 2.97265,12.79721 -0.43071,19.5463 -3.00732,5.96371 -10.39785,10.7161 -17.8125,11.45411 -3.24955,0.32344 -3.80161,-0.0734 -4.13671,-2.97292 -0.33306,-2.88189 0.3607,-3.67756 5,-5.73437 6.92197,-3.06882 8.67877,-5.30211 9.43271,-11.99107 0.5292,-4.69496 0.1205,-5.99576 -2.96611,-9.44068 -6.60808,-7.37512 -18.18852,-7.26762 -22.7191,0.21089 -1.34993,2.22828 -3.34658,7.18049 -4.437,11.00494 -2.26932,7.95912 -6.1429,14.18247 -11.12475,17.87315 -3.83997,2.84472 -16.47642,4.03607 -22.46899,2.11835 z m 156.01111,-3.28245 c -1.07932,-1.07933 -2.27147,-3.1938 -2.64921,-4.69885 -0.37774,-1.50504 -0.51921,-17.82868 -0.31438,-36.27474 0.37238,-33.53348 0.37285,-33.53865 3.3234,-35.92615 2.83009,-2.29002 5.96665,-2.38785 76.5625,-2.38785 40.48634,0 73.61153,-0.46708 73.61153,-1.03795 0,-0.57088 -34.07292,-28.20637 -75.71761,-61.41222 C 392.18864,467.24581 361.85812,442.2245 361.15739,440.3814 360.46791,438.56795 360,367.86068 360,265.48681 l 0,-171.850446 3.06819,-3.068183 3.06817,-3.068181 35.55264,0 35.55264,0 8.56668,6.639842 c 4.71168,3.651913 31.21012,24.745668 58.88542,46.874998 27.67531,22.12934 51.15056,40.23516 52.16721,40.23516 1.01666,0 25.34199,-18.72524 54.05626,-41.61164 28.71429,-22.88641 55.21143,-43.980157 58.88254,-46.875004 L 676.4745,87.5 l 35.56956,0 35.56958,0 3.06817,3.068181 3.06819,3.068183 0,172.638996 c 0,112.79903 -0.43364,173.44925 -1.25105,174.9766 -0.68808,1.28569 -35.28183,29.4844 -76.875,62.6638 C 634.03078,537.09517 600,564.69376 600,565.24598 c 0,0.55221 33.21306,1.00402 73.80681,1.00402 l 73.80683,0 3.06817,3.06819 3.06819,3.06817 0,33.889 c 0,33.35561 -0.46264,37.73935 -4.24963,40.268 -0.75646,0.5051 -87.53832,0.92698 -192.84858,0.9375 -172.33863,0.0172 -191.66933,-0.17697 -193.43563,-1.94327 z M 743.45973,607.1875 743.125,576.875 658.4375,576.55376 c -79.59367,-0.30191 -84.68416,-0.45228 -84.63196,-2.5 0.0345,-1.35342 29.23446,-25.38071 77.08395,-63.42876 42.36564,-33.6875 80.59266,-64.24006 84.94896,-67.89459 l 7.92052,-6.64459 L 743.44199,267.10541 743.125,98.125 711.89994,97.790035 c -30.56068,-0.327837 -31.3054,-0.275867 -35,2.442455 -2.07622,1.52758 -28.65776,22.61336 -59.0701,46.85728 -30.41235,24.24394 -56.63247,44.9561 -58.26693,46.02704 -3.5522,2.3275 2.13774,6.49008 -70.58209,-51.63562 -27.7168,-22.15433 -51.68022,-41.12324 -53.25203,-42.153135 -2.38247,-1.561049 -8.03506,-1.816855 -33.98083,-1.537797 L 370.625,98.125 l 0,169.375 0,169.375 84.63154,67.5 c 52.56516,41.92466 84.65274,68.32552 84.6875,69.67876 0.0526,2.04773 -5.03768,2.19809 -84.63154,2.5 l -84.6875,0.32124 -0.33473,30.3125 -0.33472,30.3125 186.91945,0 186.91945,0 -0.33472,-30.3125 z m -260.90197,14.12465 c -1.44361,-0.91321 -1.52716,-1.74451 -0.40639,-4.04335 1.94903,-3.99768 2.84047,-17.59416 1.33044,-20.29241 -1.6637,-2.97289 0.47313,-5.0097 4.25889,-4.05954 2.06031,0.51711 4.13564,3.19142 7.0275,9.05582 2.25707,4.57712 4.49821,7.94484 4.98029,7.48385 0.48208,-0.46098 2.56401,-4.32417 4.62651,-8.58485 3.35987,-6.94075 4.14012,-7.74667 7.5,-7.74667 3.09814,0 3.65536,0.43457 3.20559,2.5 -1.09948,5.04896 -0.4467,20.5527 0.93548,22.21814 2.99302,3.60636 -5.04801,6.4271 -9.76607,3.42586 -1.54545,-0.98309 -1.60037,-1.63584 -0.3125,-3.7139 1.70199,-2.74624 2.13478,-8.82309 0.625,-8.77564 -0.51563,0.0163 -2.16727,2.8287 -3.67034,6.25 -1.61455,3.67509 -3.53932,6.22054 -4.70373,6.22054 -1.0977,0 -3.1817,-2.49216 -4.70375,-5.625 -1.50307,-3.09375 -3.18325,-5.625 -3.73377,-5.625 -1.45671,0 -1.22489,4.74585 0.37815,7.74115 1.05884,1.97846 0.98628,2.82567 -0.3125,3.64867 -2.19628,1.39173 -4.98311,1.3619 -7.2588,-0.0776 z m 50,0 c -1.54177,-0.97531 -1.56405,-1.62261 -0.14695,-4.27051 1.16318,-2.1734 1.49211,-6.19876 1.08344,-13.25842 -0.32278,-5.57561 -0.084,-10.44821 0.53049,-10.82802 3.20576,-1.98126 6.83137,1.08416 10.79931,9.13072 l 4.15961,8.43527 4.57068,-8.6981 c 3.797,-7.22579 5.09962,-8.69809 7.69566,-8.69809 3.12482,0 3.12497,6.3e-4 2.69317,10.76339 -0.30082,7.49812 0.0784,11.5862 1.25,13.47565 1.43249,2.31015 1.40386,2.88906 -0.19317,3.90496 -2.37539,1.51103 -6.34071,1.53071 -8.69224,0.0431 -1.55381,-0.98292 -1.57009,-1.61133 -0.11225,-4.33526 1.20339,-2.24855 1.34838,-3.98479 0.49288,-5.90205 -1.1083,-2.48379 -1.44947,-2.1645 -3.98497,3.72941 -1.52508,3.54517 -3.59152,6.44575 -4.59207,6.44575 -1.00056,0 -3.3648,-2.95312 -5.25388,-6.5625 -3.17223,-6.06106 -3.46627,-6.30456 -3.84812,-3.18681 -0.22739,1.85663 0.24181,4.60004 1.04267,6.09646 1.14843,2.14584 1.09868,2.94729 -0.23542,3.79268 -2.19629,1.39172 -4.98311,1.3619 -7.2588,-0.0776 z m 50.56724,0.46447 c -0.74017,-0.31147 -1.19334,-6.26167 -1.11108,-14.58882 l 0.13893,-14.0628 4.0776,0 4.07759,0 0.15849,14.04901 c 0.12024,10.66065 -0.24303,14.203 -1.50627,14.6875 -1.88086,0.72139 -3.99225,0.69066 -5.83526,-0.0849 z m 34.75414,-0.2923 c -0.77661,-0.47997 -3.1883,-5.36967 -5.35931,-10.86599 -2.17102,-5.49633 -4.80349,-11.31909 -5.84994,-12.93945 -2.43953,-3.77749 -0.80709,-5.48711 4.73366,-4.95743 3.29645,0.31512 4.23084,0.97363 4.26429,3.0052 0.0578,3.50715 3.25866,13.02335 4.38059,13.02335 1.4415,0 4.23196,-7.71808 4.2813,-11.84154 0.036,-3.01081 0.64907,-3.86888 3.00195,-4.20178 5.17027,-0.73154 5.80255,1.56631 2.41737,8.78547 -1.71064,3.64806 -4.11485,9.29674 -5.3427,12.55261 -2.47356,6.55914 -4.39966,8.75445 -6.52721,7.43956 z M 553.581,504.00252 c -2.88246,-2.00766 -105.19898,-83.53741 -115.77503,-92.25401 l -5.31903,-4.38386 0.31903,-114.61982 c 0.25059,-90.03269 0.65063,-114.61983 1.86489,-114.61983 0.85023,0 28.32777,21.375 61.06119,47.5 32.73342,26.125 60.24215,47.5 61.13049,47.5 0.88835,0 27.34705,-20.53125 58.79712,-45.625 63.19919,-50.42611 64.02133,-51.04055 64.969,-48.55624 0.35274,0.92468 0.49621,52.86874 0.31884,115.43124 L 680.625,408.125 620,456.54643 c -33.34375,26.63178 -61.26355,48.66747 -62.044,48.9682 -0.78045,0.30072 -2.7492,-0.37973 -4.375,-1.5121 z M 615,447.71156 670.625,403.125 670.9449,301.3199 c 0.17595,-55.9928 -0.10525,-102.22231 -0.625,-102.73225 -0.51969,-0.50994 -25.92661,19.00549 -56.45981,43.3676 -30.53322,24.36211 -56.19106,44.29475 -57.01745,44.29475 -0.8264,0 -26.44027,-19.93321 -56.91972,-44.29604 -30.47945,-24.36282 -55.86847,-44.01712 -56.42004,-43.67622 -0.55159,0.34088 -1.00288,46.33231 -1.00288,102.20314 l 0,101.58333 2.8125,2.56387 c 11.15946,10.1729 110.20037,87.85109 111.90936,87.77098 1.18423,-0.0555 27.18439,-20.1649 57.77814,-44.6875 z M 504.72392,442.39101 C 477.03201,420.33107 453.39062,401.14376 452.1875,399.75254 450.14731,397.39337 450,391.08745 450,306.11152 450,225.52491 450.21893,215 451.89521,215 c 1.04238,0 24.47029,18.07468 52.06204,40.16594 27.59175,22.09126 51.07844,40.40432 52.19262,40.69568 1.26371,0.33048 21.49542,-14.99203 53.78017,-40.73046 28.46491,-22.69312 52.21914,-40.97299 52.78716,-40.62192 0.56804,0.35107 1.0328,41.92835 1.0328,92.39395 l 0,91.75565 -52.517,41.92057 C 582.34865,463.63574 557.89629,482.5 556.89442,482.5 c -1.00186,0 -24.47858,-18.04904 -52.1705,-40.10899 z M 606.875,437.44966 c 26.8125,-21.33586 49.45312,-39.72285 50.3125,-40.85999 2.03728,-2.69572 2.3053,-169.73306 0.27436,-170.98825 -0.70847,-0.43785 -22.17856,15.92219 -47.71131,36.35565 -25.53275,20.43348 -47.93634,38.02019 -49.78575,39.0816 -3.09832,1.7782 -3.65368,1.73955 -7.06721,-0.49191 -2.03757,-1.33197 -24.10604,-18.73426 -49.04107,-38.67176 -24.93502,-19.9375 -45.98781,-36.25 -46.78396,-36.25 -1.69707,0 -2.77676,167.08864 -1.09906,170.08652 1.30049,2.32384 99.27494,80.50939 100.9015,80.5214 0.6875,0.005 23.1875,-17.4474 50,-38.78326 z m -414.79166,149.217 c -1.68759,-1.68757 -0.78078,-8.82432 1.35416,-10.65755 1.20312,-1.03309 16.39062,-11.01669 33.75,-22.18577 17.35937,-11.16908 31.5625,-20.81725 31.5625,-21.44038 0,-0.64876 -14.14678,-1.13296 -33.10119,-1.13296 l -33.10119,0 -0.78361,-3.1222 c -1.77786,-7.08353 -3.08865,-6.8778 43.82176,-6.8778 l 43.16423,0 0,5.48883 0,5.48882 -32.71506,21.09385 c -17.99328,11.60161 -32.94327,21.77846 -33.22218,22.61523 -0.388,1.16397 7.22419,1.59972 32.40255,1.85482 l 32.90969,0.33345 0.38796,4.6875 0.38795,4.6875 -42.99212,0 c -23.64566,0 -43.36713,-0.375 -43.82545,-0.83334 z M 392.4524,553.59457 c -17.88565,-14.13778 -38.91718,-37.28062 -52.68104,-57.96957 -8.90821,-13.39025 -24.49872,-44.79213 -29.10167,-58.6156 -9.71173,-29.16601 -13.4677,-52.70209 -13.48634,-84.5094 -0.0254,-43.22654 8.58251,-79.45536 27.93454,-117.57125 7.57225,-14.91435 23.07814,-38.70243 25.82425,-39.6178 1.23679,-0.41226 1.55786,24.866 1.55786,122.65106 0,95.86666 0.34636,123.93359 1.5625,126.6134 0.97369,2.14558 27.11676,23.83284 69.375,57.55075 37.29687,29.75925 67.8125,54.67384 67.8125,55.36578 0,0.82136 -16.0155,1.25806 -46.13775,1.25806 l -46.13775,0 -6.5221,-5.15543 z m 83.32165,-1.71957 c 0.19605,-0.6875 -27.63723,-23.52435 -61.85171,-50.74855 -47.2881,-37.62678 -62.71353,-50.56354 -64.31525,-53.93891 C 347.6784,443.12311 347.5,433.00656 347.5,327.69736 c 0,-74.68952 -0.43476,-115.31851 -1.2393,-115.81575 -1.51588,-0.93686 -9.19364,10.93144 -17.38151,26.86839 -20.0842,39.09209 -29.92137,88.15765 -26.4396,131.875 4.20686,52.82196 22.85645,100.13382 55.43215,140.625 11.0228,13.70121 29.10027,31.88536 38.38377,38.61029 l 5.42004,3.92626 36.87102,-0.33077 c 23.22285,-0.20834 37.00298,-0.79348 37.22748,-1.58078 z M 622.5,557.56856 c 0,-0.6498 30.39129,-25.45922 67.53619,-55.13206 39.38359,-31.4612 68.30271,-55.4329 69.375,-57.50649 C 760.99311,441.87092 761.25,424.16426 761.25,318.18707 761.25,239.57062 761.688,195 762.46058,195 c 3.24,0 19.74143,26.26255 29.8529,47.51181 35.92336,75.49301 32.64353,164.33829 -8.77145,237.60449 -14.56948,25.77451 -38.26174,54.13034 -59.55369,71.27619 l -9.13665,7.35751 -46.17585,0 c -28.1642,0 -46.17584,-0.46084 -46.17584,-1.18144 z m 95.12495,-7.73513 c 8.32218,-5.9262 33.36833,-31.62304 42.2114,-43.30803 57.85151,-76.44324 68.41645,-176.55894 27.6812,-262.31313 -8.24094,-17.3485 -18.21865,-33.44906 -20.03362,-32.32733 -0.79744,0.49283 -1.23393,41.46037 -1.23393,115.81242 0,105.60388 -0.17412,115.41677 -2.12082,119.51913 -1.61508,3.40351 -16.14672,15.63538 -60.9375,51.29356 -63.42252,50.49099 -65.93419,52.58627 -64.94847,54.18123 0.35989,0.5823 17.13049,1.05872 37.26802,1.05872 l 36.61367,0 5.50005,-3.91657 z M 221.16169,503.36047 C 202.24851,498.03026 190,481.96951 190,462.5 c 0,-16.28382 7.67829,-29.05057 21.80176,-36.25 8.40779,-4.28586 8.89075,-4.375 23.70295,-4.375 14.8325,0 15.26983,0.0811 22.97681,4.26013 18.52167,10.04318 26.56669,29.66176 20.43784,49.83966 -5.45362,17.95488 -19.67697,27.93615 -40.79436,28.62752 -6.5586,0.21473 -13.63253,-0.30314 -16.96331,-1.24184 z m 31.62212,-12.39665 c 7.56526,-3.197 15.375,-11.6335 17.2765,-18.66302 2.15026,-7.94915 0.80962,-18.72174 -3.17636,-25.52329 -10.42009,-17.78055 -41.72775,-20.56222 -57.97409,-5.15099 -5.92232,5.61792 -8.8497,12.61339 -8.88241,21.22613 -0.0475,12.49525 5.16954,20.86134 16.66636,26.72651 11.43658,5.83443 24.38467,6.3312 36.09,1.38466 z M 219.375,405.03321 c -10.7619,-3.56845 -19.15413,-10.41308 -23.7278,-19.35224 -3.71918,-7.26903 -3.7722,-7.64632 -3.7722,-26.83932 l 0,-19.46665 43.4375,-0.3287 43.4375,-0.3287 0,18.71931 c 0,15.59625 -0.41285,19.82199 -2.47463,25.3287 -3.53413,9.43924 -8.86936,15.25863 -18.20075,19.85245 -10.725,5.27991 -26.99732,6.29543 -38.69962,2.41515 z m 23.90167,-8.90135 c 10.76607,-1.87484 17.69722,-6.53122 22.28718,-14.97266 3.3689,-6.1958 3.69415,-7.86835 3.75,-19.2842 l 0.0611,-12.5 -33.75,0 -33.75,0 0,13.22912 c 0,12.52942 0.19835,13.54719 3.75,19.2424 4.37619,7.01739 13.55783,12.80499 22.77214,14.3543 3.28783,0.55283 6.21304,1.07129 6.50048,1.15215 0.28742,0.0809 4.05801,-0.46863 8.37906,-1.22111 z M 226.69381,328.7524 c -12.98506,-2.69969 -25.25926,-12.411 -31.34217,-24.79783 -3.02024,-6.1502 -3.47664,-8.55642 -3.47664,-18.32957 0,-9.77126 0.45666,-12.17991 3.47419,-18.32457 4.73823,-9.64861 12.04453,-16.79709 21.86476,-21.39253 6.94201,-3.24856 9.72176,-3.85141 17.69828,-3.83823 31.61911,0.0522 52.41402,30.19304 41.25491,59.79612 -7.03532,18.66341 -29.72256,30.99295 -49.47333,26.88661 z m -34.61047,-83.33574 c -0.45834,-0.45832 -0.83334,-2.94609 -0.83334,-5.52834 0,-5.28378 0.86581,-6.13273 27.25591,-26.72506 7.77201,-6.06454 13.66548,-11.49187 13.09659,-12.06076 -0.56887,-0.56887 -9.74029,-1.19029 -20.38091,-1.38091 L 191.875,199.375 l -0.3757,-3.232 c -0.70718,-6.08359 0.19166,-6.20065 44.89932,-5.84755 l 41.72638,0.32955 0.38796,4.6875 0.38795,4.6875 -18.12669,0 c -9.96967,0 -18.43435,0.49781 -18.81038,1.10626 -0.37604,0.60844 7.74701,8.21704 18.05122,16.908 L 278.75,233.816 l 0,5.592 c 0,3.21679 -0.58115,5.592 -1.36823,5.592 -0.75252,0 -9.5122,-7.17188 -19.46595,-15.9375 -9.95374,-8.76563 -19.07976,-16.10388 -20.28003,-16.30723 -1.30453,-0.22101 -10.44372,6.4258 -22.72155,16.52509 -11.29658,9.29215 -20.86737,16.91166 -21.2684,16.93223 -0.40105,0.0206 -1.10418,-0.33759 -1.5625,-0.79593 z m 0.4874,-74.70644 c -0.83197,-1.00243 -1.32884,-3.1192 -1.10419,-4.70392 l 0.40845,-2.8813 31.25,-0.70162 c 17.1875,-0.3859 31.50312,-0.80778 31.8125,-0.9375 1.58782,-0.66583 -4.37484,-3.4993 -32.09739,-15.2528 -31.00531,-13.1453 -34.31784,-15.29108 -30.1066,-19.5023 0.95726,-0.95727 14.93695,-7.401 31.06598,-14.31942 16.12903,-6.91842 29.85988,-13.103742 30.51301,-13.745155 C 255.04787,97.944021 243.80294,97.5 224.77805,97.5 c -33.06639,0 -34.20071,-0.221122 -33.3115,-6.493697 L 191.875,88.125 l 43.50665,-0.328776 43.50666,-0.328776 -0.38166,5.933962 -0.38165,5.933963 -34.14831,14.505377 c -18.78158,7.97795 -34.18332,15.01812 -34.22609,15.64481 -0.0427,0.62669 15.4926,7.81775 34.52305,15.98013 l 34.60081,14.84068 -0.37472,5.78432 -0.37474,5.78431 -42.02081,0.32892 c -35.57348,0.27847 -42.2529,0.0493 -43.53345,-1.4937 z M 515.625,139.90701 c -21.3125,-17.13964 -38.93635,-31.72067 -39.1641,-32.4023 -0.54239,-1.62323 2.8481,-2.84505 18.60716,-6.7054 35.64474,-8.731574 78.91752,-9.47661 114.92283,-1.978647 15.60442,3.249557 26.60114,6.580407 27.14874,8.223217 0.60005,1.80013 -77.8783,64.22919 -80.59912,64.11612 -1.19104,-0.0495 -19.60301,-14.11334 -40.91551,-31.25299 z m 76.25,-1.7411 c 18.5625,-14.74567 33.92145,-27.62372 34.131,-28.61788 0.9098,-4.31634 -40.99461,-10.811497 -69.50753,-10.773626 -27.84252,0.03697 -69.67013,6.541236 -68.75485,10.691486 0.42444,1.92457 67.15318,55.50286 69.13138,55.50743 0.6875,0.001 16.4375,-12.06175 35,-26.80741 z"
       id="path4074"
       inkscape:connector-curvature="0" />
    <path
       style="fill:#d6ab03"
       d="m 205.18145,647.41256 c -9.40162,-3.76557 -14.11002,-11.02055 -14.11002,-21.74155 0,-10.71356 4.93796,-17.68291 15.05882,-21.25376 6.87721,-2.42642 8.41419,-2.40739 9.38257,0.11625 1.03585,2.69936 -1.13531,5.1301 -5.42352,6.07195 -8.2926,1.82136 -13.61556,13.38148 -10.08564,21.90345 3.20475,7.73696 13.4893,11.69896 21.58625,8.31584 4.94784,-2.06734 6.86616,-5.07045 10.91363,-17.08516 4.91318,-14.58459 9.97697,-18.8459 22.46583,-18.90564 14.23069,-0.068 23.6136,7.10864 24.7495,18.9301 1.12433,11.70108 -4.05992,19.13509 -15.75462,22.59146 -4.47218,1.32176 -5.59049,1.30835 -6.44685,-0.0773 -1.64866,-2.66759 -0.23004,-4.5654 4.92687,-6.59109 6.11787,-2.40316 9.43073,-7.42496 9.43073,-14.29555 0,-7.4251 -5.40753,-12.89231 -13.67305,-13.82395 -10.21463,-1.15133 -13.07695,1.68411 -18.81198,18.63541 -4.77603,14.11677 -10.45173,18.59798 -23.3904,18.46779 -4.33101,-0.0436 -9.19917,-0.60976 -10.81812,-1.2582 z m 157.91516,-4.15546 c -1.68568,-2.57267 -1.90911,-7.82947 -1.59131,-37.43947 0.28106,-26.18828 0.7591,-34.83569 1.99395,-36.06961 1.28123,-1.28026 17.45053,-1.75501 76.56339,-2.24802 48.39455,-0.40361 75.04951,-1.06777 75.25075,-1.875 0.17139,-0.6875 -33.99208,-28.6816 -75.91879,-62.20911 -41.92672,-33.5275 -76.66696,-62.13923 -77.20054,-63.58162 -0.53356,-1.44237 -0.82363,-80.22803 -0.64458,-175.07925 C 361.86861,95.680142 361.92259,92.26348 364.30141,90.524135 366.26106,89.091286 373.50687,88.75 401.96789,88.75 l 35.24007,0 58.7934,46.875 c 32.33638,25.78125 59.73194,46.875 60.87903,46.875 1.14708,0 12.30264,-8.12385 24.79011,-18.05301 12.48748,-9.92915 38.98021,-31.0229 58.87274,-46.875 L 676.71148,88.75 l 35.15535,0 c 28.38786,0 35.62243,0.341525 37.58176,1.774136 2.379,1.739468 2.43277,5.16847 2.75185,175.470534 0.30781,164.28729 0.20623,173.83409 -1.875,176.23792 -1.21024,1.39783 -35.80981,29.30338 -76.88794,62.01233 -41.07813,32.70896 -74.6875,60.32229 -74.6875,61.36296 0,1.66822 8.77249,1.89212 74.13609,1.89212 62.02378,0 74.53251,0.28962 76.5625,1.77273 2.28445,1.66901 2.44803,3.79757 2.79611,36.3821 0.31789,29.75776 0.0949,35.02892 -1.59131,37.60227 l -1.96103,2.9929 -191.81736,0 -191.81736,0 -1.96103,-2.9929 z M 743.45973,607.1875 743.125,576.875 658.4375,576.55376 c -79.59367,-0.30191 -84.68416,-0.45228 -84.63196,-2.5 0.0345,-1.35342 29.23446,-25.38071 77.08395,-63.42876 42.36564,-33.6875 80.59266,-64.24006 84.94896,-67.89459 l 7.92052,-6.64459 L 743.44199,267.10541 743.125,98.125 711.89994,97.790035 c -30.56068,-0.327837 -31.3054,-0.275867 -35,2.442455 -2.07622,1.52758 -28.65776,22.61336 -59.0701,46.85728 -30.41235,24.24394 -56.63247,44.9561 -58.26693,46.02704 -3.5522,2.3275 2.13774,6.49008 -70.58209,-51.63562 -27.7168,-22.15433 -51.68022,-41.12324 -53.25203,-42.153135 -2.38247,-1.561049 -8.03506,-1.816855 -33.98083,-1.537797 L 370.625,98.125 l 0,169.375 0,169.375 84.63154,67.5 c 52.56516,41.92466 84.65274,68.32552 84.6875,69.67876 0.0526,2.04773 -5.03768,2.19809 -84.63154,2.5 l -84.6875,0.32124 -0.33473,30.3125 -0.33472,30.3125 186.91945,0 186.91945,0 -0.33472,-30.3125 z m -260.90197,14.12465 c -1.44361,-0.91321 -1.52716,-1.74451 -0.40639,-4.04335 1.94903,-3.99768 2.84047,-17.59416 1.33044,-20.29241 -1.6637,-2.97289 0.47313,-5.0097 4.25889,-4.05954 2.06031,0.51711 4.13564,3.19142 7.0275,9.05582 2.25707,4.57712 4.49821,7.94484 4.98029,7.48385 0.48208,-0.46098 2.56401,-4.32417 4.62651,-8.58485 3.35987,-6.94075 4.14012,-7.74667 7.5,-7.74667 3.09814,0 3.65536,0.43457 3.20559,2.5 -1.09948,5.04896 -0.4467,20.5527 0.93548,22.21814 2.99302,3.60636 -5.04801,6.4271 -9.76607,3.42586 -1.54545,-0.98309 -1.60037,-1.63584 -0.3125,-3.7139 1.70199,-2.74624 2.13478,-8.82309 0.625,-8.77564 -0.51563,0.0163 -2.16727,2.8287 -3.67034,6.25 -1.61455,3.67509 -3.53932,6.22054 -4.70373,6.22054 -1.0977,0 -3.1817,-2.49216 -4.70375,-5.625 -1.50307,-3.09375 -3.18325,-5.625 -3.73377,-5.625 -1.45671,0 -1.22489,4.74585 0.37815,7.74115 1.05884,1.97846 0.98628,2.82567 -0.3125,3.64867 -2.19628,1.39173 -4.98311,1.3619 -7.2588,-0.0776 z m 50,0 c -1.54177,-0.97531 -1.56405,-1.62261 -0.14695,-4.27051 1.16318,-2.1734 1.49211,-6.19876 1.08344,-13.25842 -0.32278,-5.57561 -0.084,-10.44821 0.53049,-10.82802 3.20576,-1.98126 6.83137,1.08416 10.79931,9.13072 l 4.15961,8.43527 4.57068,-8.6981 c 3.797,-7.22579 5.09962,-8.69809 7.69566,-8.69809 3.12482,0 3.12497,6.3e-4 2.69317,10.76339 -0.30082,7.49812 0.0784,11.5862 1.25,13.47565 1.43249,2.31015 1.40386,2.88906 -0.19317,3.90496 -2.37539,1.51103 -6.34071,1.53071 -8.69224,0.0431 -1.55381,-0.98292 -1.57009,-1.61133 -0.11225,-4.33526 1.20339,-2.24855 1.34838,-3.98479 0.49288,-5.90205 -1.1083,-2.48379 -1.44947,-2.1645 -3.98497,3.72941 -1.52508,3.54517 -3.59152,6.44575 -4.59207,6.44575 -1.00056,0 -3.3648,-2.95312 -5.25388,-6.5625 -3.17223,-6.06106 -3.46627,-6.30456 -3.84812,-3.18681 -0.22739,1.85663 0.24181,4.60004 1.04267,6.09646 1.14843,2.14584 1.09868,2.94729 -0.23542,3.79268 -2.19629,1.39172 -4.98311,1.3619 -7.2588,-0.0776 z m 50.56724,0.46447 c -0.74017,-0.31147 -1.19334,-6.26167 -1.11108,-14.58882 l 0.13893,-14.0628 4.0776,0 4.07759,0 0.15849,14.04901 c 0.12024,10.66065 -0.24303,14.203 -1.50627,14.6875 -1.88086,0.72139 -3.99225,0.69066 -5.83526,-0.0849 z m 34.75414,-0.2923 c -0.77661,-0.47997 -3.1883,-5.36967 -5.35931,-10.86599 -2.17102,-5.49633 -4.80349,-11.31909 -5.84994,-12.93945 -2.43953,-3.77749 -0.80709,-5.48711 4.73366,-4.95743 3.29645,0.31512 4.23084,0.97363 4.26429,3.0052 0.0578,3.50715 3.25866,13.02335 4.38059,13.02335 1.4415,0 4.23196,-7.71808 4.2813,-11.84154 0.036,-3.01081 0.64907,-3.86888 3.00195,-4.20178 5.17027,-0.73154 5.80255,1.56631 2.41737,8.78547 -1.71064,3.64806 -4.11485,9.29674 -5.3427,12.55261 -2.47356,6.55914 -4.39966,8.75445 -6.52721,7.43956 z M 553.581,504.00252 c -2.88246,-2.00766 -105.19898,-83.53741 -115.77503,-92.25401 l -5.31903,-4.38386 0.31903,-114.61982 c 0.25059,-90.03269 0.65063,-114.61983 1.86489,-114.61983 0.85023,0 28.32777,21.375 61.06119,47.5 32.73342,26.125 60.24215,47.5 61.13049,47.5 0.88835,0 27.34705,-20.53125 58.79712,-45.625 63.19919,-50.42611 64.02133,-51.04055 64.969,-48.55624 0.35274,0.92468 0.49621,52.86874 0.31884,115.43124 L 680.625,408.125 620,456.54643 c -33.34375,26.63178 -61.26355,48.66747 -62.044,48.9682 -0.78045,0.30072 -2.7492,-0.37973 -4.375,-1.5121 z m 62.16246,-55.45641 56.75654,-45.20388 0,-103.54612 C 672.5,215.4869 672.19708,196.25 670.86943,196.25 c -0.89683,0 -26.6312,19.96364 -57.1875,44.36364 -30.55632,24.40001 -56.11943,44.36835 -56.80693,44.37408 -0.6875,0.006 -26.23195,-19.97432 -56.76545,-44.40015 -30.5335,-24.42583 -56.12725,-44.20671 -56.875,-43.9575 -1.58592,0.52857 -2.62352,203.71933 -1.05437,206.47497 1.81125,3.18081 112.21247,90.51973 114.50078,90.58211 1.26828,0.0345 27.8464,-20.2789 59.0625,-45.14104 z M 504.375,440.48635 c -28.1875,-22.47549 -51.66326,-41.48256 -52.16836,-42.23794 -1.3351,-1.99666 -1.18029,-180.46265 0.15727,-181.2893 0.61265,-0.37864 23.95029,17.58816 51.86141,39.92623 27.91114,22.33806 51.58413,40.61466 52.60667,40.61466 1.02252,0 24.79426,-18.27671 52.82607,-40.6149 28.03182,-22.3382 51.38881,-40.61945 51.90444,-40.625 0.51562,-0.005 0.9366,40.91177 0.93551,90.9274 l -0.003,90.9375 -51.49572,41.11931 c -28.32216,22.61561 -52.36814,41.34144 -53.43501,41.61293 -1.14003,0.29011 -23.06977,-16.35452 -53.18978,-40.37089 z m 104.6223,-3.29885 50.3777,-40.3125 0,-86.23287 c 0,-75.66583 -0.22976,-86.27488 -1.875,-86.57556 -1.03125,-0.18845 -23.69489,17.10072 -50.36365,38.42039 -26.66876,21.31968 -49.22711,38.76304 -50.12966,38.76304 -0.90256,0 -23.52016,-17.43899 -50.26135,-38.75329 -26.74119,-21.31431 -49.46409,-38.60349 -50.49534,-38.42039 -1.64533,0.29214 -1.875,10.89564 -1.875,86.5658 l 0,86.23288 50.49711,40.3125 c 27.77343,22.17187 51.22845,40.3125 52.1223,40.3125 0.89385,0 24.29515,-18.14063 52.00289,-40.3125 z M 193.96977,586.41228 c -0.99176,-0.62879 -1.4928,-2.73303 -1.25,-5.24967 0.3864,-4.00512 1.85693,-5.13993 31.65523,-24.4288 38.65733,-25.02342 37.59771,-24.25744 35.44394,-25.62217 -0.93166,-0.59034 -16.45957,-1.08198 -34.50644,-1.0925 L 192.5,530 l 0,-3.61626 c 0,-2.14445 0.80474,-3.92508 1.97724,-4.375 3.04765,-1.16949 80.92756,-0.86006 82.80299,0.32898 0.98447,0.62417 1.49102,2.71771 1.25,5.1662 -0.3845,3.90625 -2.14712,5.24173 -34.4687,26.11601 -18.73492,12.09957 -33.87599,22.56305 -33.64686,23.25215 0.25767,0.77487 13.25467,1.4914 34.06348,1.87792 l 33.64685,0.625 0.42186,2.98364 c 0.23203,1.641 -0.33047,3.46051 -1.25,4.04336 -2.17292,1.37733 -81.15555,1.38706 -83.32709,0.01 z M 391.0024,550.9494 C 299.39835,474.77434 271.75976,343.88979 324.93274,238.07182 333.0283,221.96109 348.28712,197.5 350.24144,197.5 c 0.55471,0 1.00856,54.87169 1.00856,121.93707 0,132.72852 -0.41323,125.02048 7.0759,131.99149 1.95201,1.81697 31.95535,25.9094 66.6741,53.53874 34.71875,27.62935 63.3125,50.75211 63.54166,51.38394 0.24839,0.6848 -17.77362,1.14876 -44.6226,1.14876 l -45.03927,0 -7.87739,-6.5506 z m 87.3868,2.00927 C 478.64863,552.1797 450.85156,529.1837 416.61794,501.85646 382.38432,474.52921 353.25,450.42254 351.875,448.28607 c -2.44289,-3.79575 -2.51428,-6.56688 -3.125,-121.29377 -0.48555,-91.21181 -0.96736,-117.52336 -2.15934,-117.92056 -4.10191,-1.3669 -25.41249,39.99922 -33.45481,64.93937 -13.75206,42.64668 -16.27261,85.91033 -7.52221,129.11389 7.85647,38.78999 26.54882,78.46063 51.53626,109.375 8.33119,10.30732 29.02107,31.11645 37.8501,38.06824 l 5.625,4.42901 38.64626,-0.31113 c 27.43122,-0.22083 38.78314,-0.72213 39.11794,-1.72745 z m 146.65388,3.60383 c 0.0237,-0.51563 29.72958,-24.5625 66.0131,-53.4375 36.2835,-28.875 67.06098,-53.90625 68.39441,-55.625 2.3565,-3.03746 2.43367,-6.58281 2.75485,-126.5625 0.18174,-67.89063 0.77621,-123.4375 1.32106,-123.4375 1.95684,0 17.26385,24.59746 25.50023,40.97737 25.44238,50.59791 33.05511,109.06899 21.59926,165.89763 -11.27045,55.90895 -44.09814,110.69293 -87.87839,146.65444 l -7.87739,6.47056 -44.93511,0 c -24.7143,0 -44.91571,-0.42188 -44.89202,-0.9375 z m 96.75798,-8.60462 c 79.60649,-65.66314 111.34153,-176.5585 78.74074,-275.1528 -7.90109,-23.89518 -29.45764,-65.04122 -33.38899,-63.73117 -1.18334,0.39433 -1.66872,26.97825 -2.15281,117.9051 -0.61037,114.6481 -0.68351,117.49052 -3.125,121.4342 -1.40131,2.26352 -28.86863,24.98387 -62.5,51.69859 -33,26.2132 -61.05264,48.66739 -62.3392,49.8982 -4.83,4.62072 -2.03305,4.99 37.79476,4.99 l 38.43301,0 8.53749,-7.04212 z M 226.40052,503.59084 c -20.4258,-3.39261 -35.19167,-19.87808 -35.35882,-39.4766 -0.0895,-10.49705 1.55887,-16.81233 6.36739,-24.39456 7.6473,-12.05854 20.22495,-17.90078 38.21591,-17.75104 14.89074,0.12387 23.72082,3.46415 32.58152,12.32484 8.83197,8.83196 12.23688,17.93137 11.49011,30.70652 -0.3484,5.96005 -1.58285,11.75501 -3.38892,15.90881 -3.25783,7.49275 -11.52995,15.7242 -19.22065,19.12617 -4.63585,2.05066 -19.38301,5.17347 -22.71206,4.80945 -0.6875,-0.0751 -4.27601,-0.63929 -7.97447,-1.25359 z m 23.1147,-10.43768 c 7.56072,-2.24528 15.88337,-9.11427 19.50718,-16.09997 4.02679,-7.76251 3.8814,-20.72631 -0.32477,-28.95909 -10.21888,-20.00154 -43.53242,-23.4886 -60.57497,-6.34064 -6.85022,6.89259 -9.37266,12.87528 -9.37266,22.22991 0,7.22387 5.378,17.82893 11.5062,22.68947 9.66641,7.66686 26.11874,10.38257 39.25902,6.48032 z M 228.6458,406.19148 c -7.88824,-0.92397 -18.66153,-5.46884 -24.32836,-10.26328 -2.09417,-1.77177 -5.46917,-6.22106 -7.5,-9.8873 -3.56807,-6.44136 -3.70685,-7.31364 -4.1203,-25.89584 -0.33572,-15.08886 -0.0665,-19.45894 1.25,-20.29335 1.89108,-1.19857 79.75575,-1.521 82.82562,-0.34297 1.65326,0.63441 1.97724,3.25396 1.97724,15.98737 0,17.05414 -2.06743,27.40785 -6.95404,34.826 -7.80102,11.84241 -24.64452,18.03695 -43.15016,15.86936 z m 26.46487,-13.2769 c 4.67909,-2.63188 7.92034,-5.65852 10.51433,-9.81814 3.60474,-5.78044 3.75,-6.57421 3.75,-20.4924 l 0,-14.47904 -32.97154,-0.33356 c -23.27842,-0.2355 -33.47601,0.0851 -34.6875,1.09055 -2.34336,1.94482 -2.26907,18.80175 0.11825,26.8409 2.41173,8.12117 10.60974,16.25405 19.62219,19.46631 10.34974,3.6889 24.78674,2.71313 33.65423,-2.27462 z M 221.6248,326.42236 c -11.88476,-4.10655 -18.98824,-10.42061 -25.50694,-22.67236 -2.58288,-4.85447 -2.99272,-7.33729 -2.9919,-18.125 8.6e-4,-11.2563 0.34714,-13.15719 3.48019,-19.10519 4.64141,-8.81155 12.10664,-16.05182 20.7089,-20.08486 6.03558,-2.82969 8.69228,-3.30301 18.30995,-3.26214 9.87283,0.042 12.14314,0.49409 18.546,3.69345 19.0064,9.49708 28.49521,30.74265 22.59863,50.59863 -4.37003,14.7155 -14.58093,24.93223 -29.2809,29.29766 -8.68864,2.58025 -17.75712,2.46097 -25.86393,-0.34019 z M 192.5,240.09665 c 0,-5.5273 0.6651,-6.18486 27.1875,-26.87953 7.73437,-6.03491 14.0625,-11.4776 14.0625,-12.09485 0,-0.61725 -8.57813,-1.13088 -19.0625,-1.14141 -10.48438,-0.01 -19.81484,-0.49602 -20.73436,-1.07886 -0.91953,-0.58285 -1.48203,-2.40236 -1.25,-4.04336 l 0.42186,-2.98364 42.5,0 42.5,0 0.42186,2.98364 c 0.23203,1.641 -0.33047,3.46051 -1.25,4.04336 -0.91952,0.58284 -9.73436,1.06834 -19.58852,1.07886 -12.3078,0.0131 -17.77527,0.44336 -17.46496,1.37427 0.24843,0.74531 8.87343,8.48853 19.16666,17.20717 17.49724,14.82061 18.74062,16.16276 19.10932,20.6273 0.30835,3.73385 -0.0166,4.68366 -1.49035,4.35532 -1.0366,-0.23096 -10.05496,-7.5918 -20.04081,-16.35742 -9.98585,-8.76563 -18.87901,-15.9375 -19.76258,-15.9375 -0.88356,0 -10.88508,7.59375 -22.22562,16.875 C 203.65946,237.40625 193.95766,245 193.44042,245 192.92319,245 192.5,242.7935 192.5,240.09665 Z m 0.48645,-70.63196 c -0.38384,-1.00027 -0.50224,-2.83589 -0.26311,-4.07918 0.40397,-2.1004 2.71337,-2.28414 32.60571,-2.59411 20.01945,-0.2076 32.17095,-0.79778 32.17095,-1.5625 0,-0.6759 -0.14063,-1.23361 -0.3125,-1.23937 -0.17188,-0.006 -14.65625,-6.14599 -32.1875,-13.64495 -25.39819,-10.86403 -31.95406,-14.14775 -32.26409,-16.16053 -0.52804,-3.42819 0.81578,-4.14706 34.45159,-18.42991 15.98437,-6.78748 29.0625,-13.042949 29.0625,-13.901043 0,-1.196883 -7.34935,-1.637933 -31.5625,-1.894133 L 193.125,95.625 192.70314,92.641362 c -0.23203,-1.640999 0.33047,-3.460512 1.25,-4.043358 1.88693,-1.196046 79.75563,-1.515033 82.81962,-0.339268 2.39836,0.920334 2.70283,8.37132 0.41474,10.149318 -0.85938,0.66779 -13.9375,6.432426 -29.0625,12.810296 -41.99704,17.7092 -41.28623,17.36565 -39.56628,19.12311 0.82544,0.84345 16.81553,8.01634 35.53354,15.93977 l 34.03274,14.40622 0,4.96878 0,4.96877 -42.22034,0.32916 c -36.00619,0.28073 -42.32305,0.0615 -42.91821,-1.48947 z M 517.14536,139.43924 C 496.02791,122.54823 478.75,108.2106 478.75,107.57785 c 0,-2.44626 28.15505,-8.868623 49.9156,-11.386093 16.65526,-1.926841 55.5155,-0.913866 70.7094,1.843193 15.85002,2.87612 32.90387,7.138 34.95731,8.73609 1.37435,1.06958 -6.29741,7.75782 -36.52641,31.84367 -21.0464,16.76934 -39.16595,30.725 -40.26568,31.01259 -1.22263,0.31972 -16.91716,-11.40918 -40.39486,-30.18806 z m 75.74557,-0.5474 c 18.85741,-15.047 34.63391,-27.92076 35.05888,-28.60837 1.20959,-1.95717 -1.6939,-3.64891 -9.82481,-5.72452 -26.20598,-6.689714 -64.54649,-8.887174 -92.5,-5.301576 -21.98254,2.819696 -38.6174,6.963046 -39.13811,9.748366 -0.28082,1.50208 9.82022,10.26112 34.23603,29.6875 19.04891,15.15622 35.36504,27.55676 36.25808,27.55676 0.89302,0 17.0525,-12.31118 35.90992,-27.35816 z"
       id="path4072"
       inkscape:connector-curvature="0" />
    <path
       style="fill:#eb1a23"
       d="m 205.18145,647.41256 c -9.40162,-3.76557 -14.11002,-11.02055 -14.11002,-21.74155 0,-10.71356 4.93796,-17.68291 15.05882,-21.25376 6.87721,-2.42642 8.41419,-2.40739 9.38257,0.11625 1.03585,2.69936 -1.13531,5.1301 -5.42352,6.07195 -8.2926,1.82136 -13.61556,13.38148 -10.08564,21.90345 3.20475,7.73696 13.4893,11.69896 21.58625,8.31584 4.94784,-2.06734 6.86616,-5.07045 10.91363,-17.08516 4.91318,-14.58459 9.97697,-18.8459 22.46583,-18.90564 14.23069,-0.068 23.6136,7.10864 24.7495,18.9301 1.12433,11.70108 -4.05992,19.13509 -15.75462,22.59146 -4.47218,1.32176 -5.59049,1.30835 -6.44685,-0.0773 -1.64866,-2.66759 -0.23004,-4.5654 4.92687,-6.59109 6.11787,-2.40316 9.43073,-7.42496 9.43073,-14.29555 0,-7.4251 -5.40753,-12.89231 -13.67305,-13.82395 -10.21463,-1.15133 -13.07695,1.68411 -18.81198,18.63541 -4.77603,14.11677 -10.45173,18.59798 -23.3904,18.46779 -4.33101,-0.0436 -9.19917,-0.60976 -10.81812,-1.2582 z m 157.91516,-4.15546 c -1.68568,-2.57267 -1.90911,-7.82947 -1.59131,-37.43947 0.28106,-26.18828 0.7591,-34.83569 1.99395,-36.06961 1.28123,-1.28026 17.45053,-1.75501 76.56339,-2.24802 48.39455,-0.40361 75.04951,-1.06777 75.25075,-1.875 0.17139,-0.6875 -33.99208,-28.6816 -75.91879,-62.20911 -41.92672,-33.5275 -76.66696,-62.13923 -77.20054,-63.58162 -0.53356,-1.44237 -0.82363,-80.22803 -0.64458,-175.07925 C 361.86861,95.680142 361.92259,92.26348 364.30141,90.524135 366.26106,89.091286 373.50687,88.75 401.96789,88.75 l 35.24007,0 58.7934,46.875 c 32.33638,25.78125 59.73194,46.875 60.87903,46.875 1.14708,0 12.30264,-8.12385 24.79011,-18.05301 12.48748,-9.92915 38.98021,-31.0229 58.87274,-46.875 L 676.71148,88.75 l 35.15535,0 c 28.38786,0 35.62243,0.341525 37.58176,1.774136 2.379,1.739468 2.43277,5.16847 2.75185,175.470534 0.30781,164.28729 0.20623,173.83409 -1.875,176.23792 -1.21024,1.39783 -35.80981,29.30338 -76.88794,62.01233 -41.07813,32.70896 -74.6875,60.32229 -74.6875,61.36296 0,1.66822 8.77249,1.89212 74.13609,1.89212 62.02378,0 74.53251,0.28962 76.5625,1.77273 2.28445,1.66901 2.44803,3.79757 2.79611,36.3821 0.31789,29.75776 0.0949,35.02892 -1.59131,37.60227 l -1.96103,2.9929 -191.81736,0 -191.81736,0 -1.96103,-2.9929 z M 744.7086,607.1875 745.0422,575 l -83.69733,0 c -46.03353,0 -83.99518,-0.48195 -84.35924,-1.071 -0.36405,-0.58905 37.29026,-31.37031 83.67623,-68.40281 L 745,438.19437 745,267.35593 C 745,112.72671 744.8124,96.445482 743.02276,95.758736 741.93529,95.341431 727.43545,95 710.8009,95 c -26.549,0 -30.62229,0.262241 -33.33526,2.146146 -1.69985,1.18038 -28.26133,22.260384 -59.0255,46.844454 -30.76417,24.58406 -57.2854,45.58321 -58.93607,46.66477 -2.95981,1.93934 -3.77463,1.35027 -59.06513,-42.70113 -30.83517,-24.56719 -58.49765,-46.53211 -61.47219,-48.810927 L 433.55851,95 403.13149,95 c -16.73487,0 -31.31678,0.341431 -32.40425,0.758736 C 368.9376,96.445485 368.75,112.73464 368.75,267.44587 l 0,170.9284 14.6875,11.60198 c 75.65664,59.7628 153.91941,122.994 153.35765,123.90295 -0.3974,0.64301 -36.36336,1.1208 -84.36892,1.1208 l -83.67623,0 0,31.66666 c 0,17.41668 0.37683,32.0435 0.83739,32.50406 0.46056,0.46057 84.97619,0.69494 187.8125,0.52084 L 744.375,639.375 l 0.3336,-32.1875 z m -235.27055,11.25 c -1.35444,-4.37715 -1.60054,-20.77501 -0.33085,-22.0447 2.8535,-2.8535 3.3928,-1.08799 3.3928,11.1072 0,7.75359 -0.48954,12.5 -1.28923,12.5 -0.70908,0 -1.50681,-0.70313 -1.77272,-1.5625 z m 50.003,0 c -0.26426,-0.85938 -0.79372,-5.82476 -1.17659,-11.03419 -0.64092,-8.72109 0.22845,-12.40948 2.92304,-12.4012 0.37813,10e-4 0.83402,5.62617 1.01311,12.5 0.20953,8.04184 -0.13872,12.49789 -0.97672,12.49789 -0.71629,0 -1.51858,-0.70313 -1.78284,-1.5625 z M 585,608.85416 c 0,-6.24479 0,-11.77604 0,-12.29166 0,-0.51563 0.63587,-0.9375 1.41304,-0.9375 0.95111,0 1.41305,3.86428 1.41305,11.82065 0,7.67861 -0.49514,11.9857 -1.41305,12.29168 C 585.43146,620.06451 585,616.74145 585,608.85416 Z m -90.69572,3.48529 c -1.86552,-3.69295 -4.44089,-8.05594 -5.72305,-9.69553 -2.64661,-3.38436 -3.13837,-8.10033 -0.76873,-7.372 0.85937,0.26414 3.62789,4.38914 6.15225,9.16667 2.52436,4.77752 4.98968,9.42735 5.47848,10.33293 0.48879,0.90559 0.29566,2.23959 -0.42919,2.96444 -0.9239,0.9239 -2.332,-0.68951 -4.70976,-5.39651 z m 49.64354,-0.69756 c -2.0591,-4.07907 -4.63347,-8.15482 -5.72082,-9.05724 C 536.06602,600.7912 535.49892,595 537.48429,595 c 0.67885,0 3.214,3.79687 5.63365,8.4375 2.41965,4.64062 5.08596,9.40639 5.92512,10.5906 1.1505,1.62356 1.17194,2.5069 0.0871,3.59167 -1.08478,1.08478 -2.35934,-0.38543 -5.1824,-5.97788 z m 69.87258,-3.20439 c -2.23891,-5.67188 -4.37775,-11.07268 -4.75296,-12.00178 -0.44601,-1.1044 0.0625,-1.53718 1.46886,-1.25 1.36455,0.27867 3.0706,3.18157 4.66594,7.93928 1.38319,4.125 3.378,8.46343 4.43292,9.64094 1.89352,2.11356 1.47286,5.98406 -0.65036,5.98406 -0.60151,0 -2.92549,-4.64063 -5.1644,-10.3125 z M 497.25691,456.76884 c -32.52255,-25.84715 -60.1193,-48.13502 -61.3261,-49.52858 -2.06214,-2.38126 -2.17498,-9.23918 -1.875,-113.9495 0.25516,-89.06721 0.63761,-111.41576 1.90668,-111.41576 0.87312,0 28.31189,21.28807 60.97502,47.30684 32.66314,26.01876 60.07378,47.02463 60.91251,46.67971 0.83874,-0.34491 27.96248,-21.76832 60.27498,-47.60757 32.3125,-25.83926 59.3125,-46.79828 60,-46.57562 2.01499,0.65261 2.32949,222.24659 0.31918,224.88505 -1.73059,2.27133 -116.54213,94.22243 -119.93727,96.05621 -1.69338,0.91465 -13.9742,-8.27857 -61.25,-45.85078 z m 118.48655,-8.22273 56.75654,-45.20388 0,-103.54612 C 672.5,215.4869 672.19708,196.25 670.86943,196.25 c -0.89683,0 -26.6312,19.96364 -57.1875,44.36364 -30.55632,24.40001 -56.11943,44.36835 -56.80693,44.37408 -0.6875,0.006 -26.23195,-19.97432 -56.76545,-44.40015 -30.5335,-24.42583 -56.12725,-44.20671 -56.875,-43.9575 -1.58592,0.52857 -2.62352,203.71933 -1.05437,206.47497 1.81125,3.18081 112.21247,90.51973 114.50078,90.58211 1.26828,0.0345 27.8464,-20.2789 59.0625,-45.14104 z M 504.375,440.48635 c -28.1875,-22.47549 -51.66326,-41.48256 -52.16836,-42.23794 -1.3351,-1.99666 -1.18029,-180.46265 0.15727,-181.2893 0.61265,-0.37864 23.95029,17.58816 51.86141,39.92623 27.91114,22.33806 51.58413,40.61466 52.60667,40.61466 1.02252,0 24.79426,-18.27671 52.82607,-40.6149 28.03182,-22.3382 51.38881,-40.61945 51.90444,-40.625 0.51562,-0.005 0.9366,40.91177 0.93551,90.9274 l -0.003,90.9375 -51.49572,41.11931 c -28.32216,22.61561 -52.36814,41.34144 -53.43501,41.61293 -1.14003,0.29011 -23.06977,-16.35452 -53.18978,-40.37089 z m 104.6223,-3.29885 50.3777,-40.3125 0,-86.23287 c 0,-75.66583 -0.22976,-86.27488 -1.875,-86.57556 -1.03125,-0.18845 -23.69489,17.10072 -50.36365,38.42039 -26.66876,21.31968 -49.22711,38.76304 -50.12966,38.76304 -0.90256,0 -23.52016,-17.43899 -50.26135,-38.75329 -26.74119,-21.31431 -49.46409,-38.60349 -50.49534,-38.42039 -1.64533,0.29214 -1.875,10.89564 -1.875,86.5658 l 0,86.23288 50.49711,40.3125 c 27.77343,22.17187 51.22845,40.3125 52.1223,40.3125 0.89385,0 24.29515,-18.14063 52.00289,-40.3125 z M 193.96977,586.41228 c -0.99176,-0.62879 -1.4928,-2.73303 -1.25,-5.24967 0.3864,-4.00512 1.85693,-5.13993 31.65523,-24.4288 38.65733,-25.02342 37.59771,-24.25744 35.44394,-25.62217 -0.93166,-0.59034 -16.45957,-1.08198 -34.50644,-1.0925 L 192.5,530 l 0,-3.61626 c 0,-2.14445 0.80474,-3.92508 1.97724,-4.375 3.04765,-1.16949 80.92756,-0.86006 82.80299,0.32898 0.98447,0.62417 1.49102,2.71771 1.25,5.1662 -0.3845,3.90625 -2.14712,5.24173 -34.4687,26.11601 -18.73492,12.09957 -33.87599,22.56305 -33.64686,23.25215 0.25767,0.77487 13.25467,1.4914 34.06348,1.87792 l 33.64685,0.625 0.42186,2.98364 c 0.23203,1.641 -0.33047,3.46051 -1.25,4.04336 -2.17292,1.37733 -81.15555,1.38706 -83.32709,0.01 z M 391.0024,550.9494 C 299.39835,474.77434 271.75976,343.88979 324.93274,238.07182 333.0283,221.96109 348.28712,197.5 350.24144,197.5 c 0.55471,0 1.00856,54.87169 1.00856,121.93707 0,132.72852 -0.41323,125.02048 7.0759,131.99149 1.95201,1.81697 31.95535,25.9094 66.6741,53.53874 34.71875,27.62935 63.3125,50.75211 63.54166,51.38394 0.24839,0.6848 -17.77362,1.14876 -44.6226,1.14876 l -45.03927,0 -7.87739,-6.5506 z m 87.3868,2.00927 C 478.64863,552.1797 450.85156,529.1837 416.61794,501.85646 382.38432,474.52921 353.25,450.42254 351.875,448.28607 c -2.44289,-3.79575 -2.51428,-6.56688 -3.125,-121.29377 -0.48555,-91.21181 -0.96736,-117.52336 -2.15934,-117.92056 -4.10191,-1.3669 -25.41249,39.99922 -33.45481,64.93937 -13.75206,42.64668 -16.27261,85.91033 -7.52221,129.11389 7.85647,38.78999 26.54882,78.46063 51.53626,109.375 8.33119,10.30732 29.02107,31.11645 37.8501,38.06824 l 5.625,4.42901 38.64626,-0.31113 c 27.43122,-0.22083 38.78314,-0.72213 39.11794,-1.72745 z m 146.65388,3.60383 c 0.0237,-0.51563 29.72958,-24.5625 66.0131,-53.4375 36.2835,-28.875 67.06098,-53.90625 68.39441,-55.625 2.3565,-3.03746 2.43367,-6.58281 2.75485,-126.5625 0.18174,-67.89063 0.77621,-123.4375 1.32106,-123.4375 1.95684,0 17.26385,24.59746 25.50023,40.97737 25.44238,50.59791 33.05511,109.06899 21.59926,165.89763 -11.27045,55.90895 -44.09814,110.69293 -87.87839,146.65444 l -7.87739,6.47056 -44.93511,0 c -24.7143,0 -44.91571,-0.42188 -44.89202,-0.9375 z m 96.75798,-8.60462 c 79.60649,-65.66314 111.34153,-176.5585 78.74074,-275.1528 -7.90109,-23.89518 -29.45764,-65.04122 -33.38899,-63.73117 -1.18334,0.39433 -1.66872,26.97825 -2.15281,117.9051 -0.61037,114.6481 -0.68351,117.49052 -3.125,121.4342 -1.40131,2.26352 -28.86863,24.98387 -62.5,51.69859 -33,26.2132 -61.05264,48.66739 -62.3392,49.8982 -4.83,4.62072 -2.03305,4.99 37.79476,4.99 l 38.43301,0 8.53749,-7.04212 z M 226.40052,503.59084 c -20.4258,-3.39261 -35.19167,-19.87808 -35.35882,-39.4766 -0.0895,-10.49705 1.55887,-16.81233 6.36739,-24.39456 7.6473,-12.05854 20.22495,-17.90078 38.21591,-17.75104 14.89074,0.12387 23.72082,3.46415 32.58152,12.32484 8.83197,8.83196 12.23688,17.93137 11.49011,30.70652 -0.3484,5.96005 -1.58285,11.75501 -3.38892,15.90881 -3.25783,7.49275 -11.52995,15.7242 -19.22065,19.12617 -4.63585,2.05066 -19.38301,5.17347 -22.71206,4.80945 -0.6875,-0.0751 -4.27601,-0.63929 -7.97447,-1.25359 z m 23.1147,-10.43768 c 7.56072,-2.24528 15.88337,-9.11427 19.50718,-16.09997 4.02679,-7.76251 3.8814,-20.72631 -0.32477,-28.95909 -10.21888,-20.00154 -43.53242,-23.4886 -60.57497,-6.34064 -6.85022,6.89259 -9.37266,12.87528 -9.37266,22.22991 0,7.22387 5.378,17.82893 11.5062,22.68947 9.66641,7.66686 26.11874,10.38257 39.25902,6.48032 z M 228.6458,406.19148 c -7.88824,-0.92397 -18.66153,-5.46884 -24.32836,-10.26328 -2.09417,-1.77177 -5.46917,-6.22106 -7.5,-9.8873 -3.56807,-6.44136 -3.70685,-7.31364 -4.1203,-25.89584 -0.33572,-15.08886 -0.0665,-19.45894 1.25,-20.29335 1.89108,-1.19857 79.75575,-1.521 82.82562,-0.34297 1.65326,0.63441 1.97724,3.25396 1.97724,15.98737 0,17.05414 -2.06743,27.40785 -6.95404,34.826 -7.80102,11.84241 -24.64452,18.03695 -43.15016,15.86936 z m 26.46487,-13.2769 c 4.67909,-2.63188 7.92034,-5.65852 10.51433,-9.81814 3.60474,-5.78044 3.75,-6.57421 3.75,-20.4924 l 0,-14.47904 -32.97154,-0.33356 c -23.27842,-0.2355 -33.47601,0.0851 -34.6875,1.09055 -2.34336,1.94482 -2.26907,18.80175 0.11825,26.8409 2.41173,8.12117 10.60974,16.25405 19.62219,19.46631 10.34974,3.6889 24.78674,2.71313 33.65423,-2.27462 z M 221.6248,326.42236 c -11.88476,-4.10655 -18.98824,-10.42061 -25.50694,-22.67236 -2.58288,-4.85447 -2.99272,-7.33729 -2.9919,-18.125 8.6e-4,-11.2563 0.34714,-13.15719 3.48019,-19.10519 4.64141,-8.81155 12.10664,-16.05182 20.7089,-20.08486 6.03558,-2.82969 8.69228,-3.30301 18.30995,-3.26214 9.87283,0.042 12.14314,0.49409 18.546,3.69345 19.0064,9.49708 28.49521,30.74265 22.59863,50.59863 -4.37003,14.7155 -14.58093,24.93223 -29.2809,29.29766 -8.68864,2.58025 -17.75712,2.46097 -25.86393,-0.34019 z M 192.5,240.09665 c 0,-5.5273 0.6651,-6.18486 27.1875,-26.87953 7.73437,-6.03491 14.0625,-11.4776 14.0625,-12.09485 0,-0.61725 -8.57813,-1.13088 -19.0625,-1.14141 -10.48438,-0.01 -19.81484,-0.49602 -20.73436,-1.07886 -0.91953,-0.58285 -1.48203,-2.40236 -1.25,-4.04336 l 0.42186,-2.98364 42.5,0 42.5,0 0.42186,2.98364 c 0.23203,1.641 -0.33047,3.46051 -1.25,4.04336 -0.91952,0.58284 -9.73436,1.06834 -19.58852,1.07886 -12.3078,0.0131 -17.77527,0.44336 -17.46496,1.37427 0.24843,0.74531 8.87343,8.48853 19.16666,17.20717 17.49724,14.82061 18.74062,16.16276 19.10932,20.6273 0.30835,3.73385 -0.0166,4.68366 -1.49035,4.35532 -1.0366,-0.23096 -10.05496,-7.5918 -20.04081,-16.35742 -9.98585,-8.76563 -18.87901,-15.9375 -19.76258,-15.9375 -0.88356,0 -10.88508,7.59375 -22.22562,16.875 C 203.65946,237.40625 193.95766,245 193.44042,245 192.92319,245 192.5,242.7935 192.5,240.09665 Z m 0.48645,-70.63196 c -0.38384,-1.00027 -0.50224,-2.83589 -0.26311,-4.07918 0.40397,-2.1004 2.71337,-2.28414 32.60571,-2.59411 20.01945,-0.2076 32.17095,-0.79778 32.17095,-1.5625 0,-0.6759 -0.14063,-1.23361 -0.3125,-1.23937 -0.17188,-0.006 -14.65625,-6.14599 -32.1875,-13.64495 -25.39819,-10.86403 -31.95406,-14.14775 -32.26409,-16.16053 -0.52804,-3.42819 0.81578,-4.14706 34.45159,-18.42991 15.98437,-6.78748 29.0625,-13.042949 29.0625,-13.901043 0,-1.196883 -7.34935,-1.637933 -31.5625,-1.894133 L 193.125,95.625 192.70314,92.641362 c -0.23203,-1.640999 0.33047,-3.460512 1.25,-4.043358 1.88693,-1.196046 79.75563,-1.515033 82.81962,-0.339268 2.39836,0.920334 2.70283,8.37132 0.41474,10.149318 -0.85938,0.66779 -13.9375,6.432426 -29.0625,12.810296 -41.99704,17.7092 -41.28623,17.36565 -39.56628,19.12311 0.82544,0.84345 16.81553,8.01634 35.53354,15.93977 l 34.03274,14.40622 0,4.96878 0,4.96877 -42.22034,0.32916 c -36.00619,0.28073 -42.32305,0.0615 -42.91821,-1.48947 z M 517.14536,139.43924 C 496.02791,122.54823 478.75,108.2106 478.75,107.57785 c 0,-2.44626 28.15505,-8.868623 49.9156,-11.386093 16.65526,-1.926841 55.5155,-0.913866 70.7094,1.843193 15.85002,2.87612 32.90387,7.138 34.95731,8.73609 1.37435,1.06958 -6.29741,7.75782 -36.52641,31.84367 -21.0464,16.76934 -39.16595,30.725 -40.26568,31.01259 -1.22263,0.31972 -16.91716,-11.40918 -40.39486,-30.18806 z m 75.74557,-0.5474 c 18.85741,-15.047 34.63391,-27.92076 35.05888,-28.60837 1.20959,-1.95717 -1.6939,-3.64891 -9.82481,-5.72452 -26.20598,-6.689714 -64.54649,-8.887174 -92.5,-5.301576 -21.98254,2.819696 -38.6174,6.963046 -39.13811,9.748366 -0.28082,1.50208 9.82022,10.26112 34.23603,29.6875 19.04891,15.15622 35.36504,27.55676 36.25808,27.55676 0.89302,0 17.0525,-12.31118 35.90992,-27.35816 z"
       id="path4070"
       inkscape:connector-curvature="0" />
    <path
       style="fill:#a36916"
       d="m 205.18145,647.41256 c -9.40162,-3.76557 -14.11002,-11.02055 -14.11002,-21.74155 0,-10.71356 4.93796,-17.68291 15.05882,-21.25376 6.87721,-2.42642 8.41419,-2.40739 9.38257,0.11625 1.03585,2.69936 -1.13531,5.1301 -5.42352,6.07195 -8.2926,1.82136 -13.61556,13.38148 -10.08564,21.90345 3.20475,7.73696 13.4893,11.69896 21.58625,8.31584 4.94784,-2.06734 6.86616,-5.07045 10.91363,-17.08516 4.91318,-14.58459 9.97697,-18.8459 22.46583,-18.90564 14.23069,-0.068 23.6136,7.10864 24.7495,18.9301 1.12433,11.70108 -4.05992,19.13509 -15.75462,22.59146 -4.47218,1.32176 -5.59049,1.30835 -6.44685,-0.0773 -1.64866,-2.66759 -0.23004,-4.5654 4.92687,-6.59109 6.11787,-2.40316 9.43073,-7.42496 9.43073,-14.29555 0,-7.4251 -5.40753,-12.89231 -13.67305,-13.82395 -10.21463,-1.15133 -13.07695,1.68411 -18.81198,18.63541 -4.77603,14.11677 -10.45173,18.59798 -23.3904,18.46779 -4.33101,-0.0436 -9.19917,-0.60976 -10.81812,-1.2582 z m 157.91516,-4.15546 c -1.68568,-2.57267 -1.90911,-7.82947 -1.59131,-37.43947 0.28106,-26.18828 0.7591,-34.83569 1.99395,-36.06961 1.28123,-1.28026 17.45053,-1.75501 76.56339,-2.24802 48.39455,-0.40361 75.04951,-1.06777 75.25075,-1.875 0.17139,-0.6875 -33.99208,-28.6816 -75.91879,-62.20911 -41.92672,-33.5275 -76.66696,-62.13923 -77.20054,-63.58162 -0.53356,-1.44237 -0.82363,-80.22803 -0.64458,-175.07925 C 361.86861,95.680142 361.92259,92.26348 364.30141,90.524135 366.26106,89.091286 373.50687,88.75 401.96789,88.75 l 35.24007,0 58.7934,46.875 c 32.33638,25.78125 59.73194,46.875 60.87903,46.875 1.14708,0 12.30264,-8.12385 24.79011,-18.05301 12.48748,-9.92915 38.98021,-31.0229 58.87274,-46.875 L 676.71148,88.75 l 35.15535,0 c 28.38786,0 35.62243,0.341525 37.58176,1.774136 2.379,1.739468 2.43277,5.16847 2.75185,175.470534 0.30781,164.28729 0.20623,173.83409 -1.875,176.23792 -1.21024,1.39783 -35.80981,29.30338 -76.88794,62.01233 -41.07813,32.70896 -74.6875,60.32229 -74.6875,61.36296 0,1.66822 8.77249,1.89212 74.13609,1.89212 62.02378,0 74.53251,0.28962 76.5625,1.77273 2.28445,1.66901 2.44803,3.79757 2.79611,36.3821 0.31789,29.75776 0.0949,35.02892 -1.59131,37.60227 l -1.96103,2.9929 -191.81736,0 -191.81736,0 -1.96103,-2.9929 z M 744.7086,607.1875 745.0422,575 l -83.69733,0 c -46.03353,0 -83.99518,-0.48195 -84.35924,-1.071 -0.36405,-0.58905 37.29026,-31.37031 83.67623,-68.40281 L 745,438.19437 745,267.35593 C 745,112.72671 744.8124,96.445482 743.02276,95.758736 741.93529,95.341431 727.43545,95 710.8009,95 c -26.549,0 -30.62229,0.262241 -33.33526,2.146146 -1.69985,1.18038 -28.26133,22.260384 -59.0255,46.844454 -30.76417,24.58406 -57.2854,45.58321 -58.93607,46.66477 -2.95981,1.93934 -3.77463,1.35027 -59.06513,-42.70113 -30.83517,-24.56719 -58.49765,-46.53211 -61.47219,-48.810927 L 433.55851,95 403.13149,95 c -16.73487,0 -31.31678,0.341431 -32.40425,0.758736 C 368.9376,96.445485 368.75,112.73464 368.75,267.44587 l 0,170.9284 14.6875,11.60198 c 75.65664,59.7628 153.91941,122.994 153.35765,123.90295 -0.3974,0.64301 -36.36336,1.1208 -84.36892,1.1208 l -83.67623,0 0,31.66666 c 0,17.41668 0.37683,32.0435 0.83739,32.50406 0.46056,0.46057 84.97619,0.69494 187.8125,0.52084 L 744.375,639.375 l 0.3336,-32.1875 z m -235.27055,11.25 c -1.35444,-4.37715 -1.60054,-20.77501 -0.33085,-22.0447 2.8535,-2.8535 3.3928,-1.08799 3.3928,11.1072 0,7.75359 -0.48954,12.5 -1.28923,12.5 -0.70908,0 -1.50681,-0.70313 -1.77272,-1.5625 z m 50.003,0 c -0.26426,-0.85938 -0.79372,-5.82476 -1.17659,-11.03419 -0.64092,-8.72109 0.22845,-12.40948 2.92304,-12.4012 0.37813,10e-4 0.83402,5.62617 1.01311,12.5 0.20953,8.04184 -0.13872,12.49789 -0.97672,12.49789 -0.71629,0 -1.51858,-0.70313 -1.78284,-1.5625 z M 585,608.85416 c 0,-6.24479 0,-11.77604 0,-12.29166 0,-0.51563 0.63587,-0.9375 1.41304,-0.9375 0.95111,0 1.41305,3.86428 1.41305,11.82065 0,7.67861 -0.49514,11.9857 -1.41305,12.29168 C 585.43146,620.06451 585,616.74145 585,608.85416 Z m -90.69572,3.48529 c -1.86552,-3.69295 -4.44089,-8.05594 -5.72305,-9.69553 -2.64661,-3.38436 -3.13837,-8.10033 -0.76873,-7.372 0.85937,0.26414 3.62789,4.38914 6.15225,9.16667 2.52436,4.77752 4.98968,9.42735 5.47848,10.33293 0.48879,0.90559 0.29566,2.23959 -0.42919,2.96444 -0.9239,0.9239 -2.332,-0.68951 -4.70976,-5.39651 z m 49.64354,-0.69756 c -2.0591,-4.07907 -4.63347,-8.15482 -5.72082,-9.05724 C 536.06602,600.7912 535.49892,595 537.48429,595 c 0.67885,0 3.214,3.79687 5.63365,8.4375 2.41965,4.64062 5.08596,9.40639 5.92512,10.5906 1.1505,1.62356 1.17194,2.5069 0.0871,3.59167 -1.08478,1.08478 -2.35934,-0.38543 -5.1824,-5.97788 z m 69.87258,-3.20439 c -2.23891,-5.67188 -4.37775,-11.07268 -4.75296,-12.00178 -0.44601,-1.1044 0.0625,-1.53718 1.46886,-1.25 1.36455,0.27867 3.0706,3.18157 4.66594,7.93928 1.38319,4.125 3.378,8.46343 4.43292,9.64094 1.89352,2.11356 1.47286,5.98406 -0.65036,5.98406 -0.60151,0 -2.92549,-4.64063 -5.1644,-10.3125 z M 497.25691,456.76884 c -32.52255,-25.84715 -60.1193,-48.13502 -61.3261,-49.52858 -2.06214,-2.38126 -2.17498,-9.23918 -1.875,-113.9495 0.25516,-89.06721 0.63761,-111.41576 1.90668,-111.41576 0.87312,0 28.31189,21.28807 60.97502,47.30684 32.66314,26.01876 60.07378,47.02463 60.91251,46.67971 0.83874,-0.34491 27.96248,-21.76832 60.27498,-47.60757 32.3125,-25.83926 59.3125,-46.79828 60,-46.57562 2.01499,0.65261 2.32949,222.24659 0.31918,224.88505 -1.73059,2.27133 -116.54213,94.22243 -119.93727,96.05621 -1.69338,0.91465 -13.9742,-8.27857 -61.25,-45.85078 z m 118.48655,-8.22273 56.75654,-45.20388 0,-103.54612 C 672.5,215.4869 672.19708,196.25 670.86943,196.25 c -0.89683,0 -26.6312,19.96364 -57.1875,44.36364 -30.55632,24.40001 -56.11943,44.36835 -56.80693,44.37408 -0.6875,0.006 -26.23195,-19.97432 -56.76545,-44.40015 -30.5335,-24.42583 -56.12725,-44.20671 -56.875,-43.9575 -1.58592,0.52857 -2.62352,203.71933 -1.05437,206.47497 1.81125,3.18081 112.21247,90.51973 114.50078,90.58211 1.26828,0.0345 27.8464,-20.2789 59.0625,-45.14104 z M 504.375,440.48635 c -28.1875,-22.47549 -51.66326,-41.48256 -52.16836,-42.23794 -1.3351,-1.99666 -1.18029,-180.46265 0.15727,-181.2893 0.61265,-0.37864 23.95029,17.58816 51.86141,39.92623 27.91114,22.33806 51.58413,40.61466 52.60667,40.61466 1.02252,0 24.79426,-18.27671 52.82607,-40.6149 28.03182,-22.3382 51.38881,-40.61945 51.90444,-40.625 0.51562,-0.005 0.9366,40.91177 0.93551,90.9274 l -0.003,90.9375 -51.49572,41.11931 c -28.32216,22.61561 -52.36814,41.34144 -53.43501,41.61293 -1.14003,0.29011 -23.06977,-16.35452 -53.18978,-40.37089 z m 104.6223,-3.29885 50.3777,-40.3125 0,-86.23287 c 0,-75.66583 -0.22976,-86.27488 -1.875,-86.57556 -1.03125,-0.18845 -23.69489,17.10072 -50.36365,38.42039 -26.66876,21.31968 -49.22711,38.76304 -50.12966,38.76304 -0.90256,0 -23.52016,-17.43899 -50.26135,-38.75329 -26.74119,-21.31431 -49.46409,-38.60349 -50.49534,-38.42039 -1.64533,0.29214 -1.875,10.89564 -1.875,86.5658 l 0,86.23288 50.49711,40.3125 c 27.77343,22.17187 51.22845,40.3125 52.1223,40.3125 0.89385,0 24.29515,-18.14063 52.00289,-40.3125 z M 193.96977,586.41228 c -0.99176,-0.62879 -1.4928,-2.73303 -1.25,-5.24967 0.3864,-4.00512 1.85693,-5.13993 31.65523,-24.4288 38.65733,-25.02342 37.59771,-24.25744 35.44394,-25.62217 -0.93166,-0.59034 -16.45957,-1.08198 -34.50644,-1.0925 L 192.5,530 l 0,-3.61626 c 0,-2.14445 0.80474,-3.92508 1.97724,-4.375 3.04765,-1.16949 80.92756,-0.86006 82.80299,0.32898 0.98447,0.62417 1.49102,2.71771 1.25,5.1662 -0.3845,3.90625 -2.14712,5.24173 -34.4687,26.11601 -18.73492,12.09957 -33.87599,22.56305 -33.64686,23.25215 0.25767,0.77487 13.25467,1.4914 34.06348,1.87792 l 33.64685,0.625 0.42186,2.98364 c 0.23203,1.641 -0.33047,3.46051 -1.25,4.04336 -2.17292,1.37733 -81.15555,1.38706 -83.32709,0.01 z M 391.0024,550.9494 C 299.39835,474.77434 271.75976,343.88979 324.93274,238.07182 333.0283,221.96109 348.28712,197.5 350.24144,197.5 c 0.55471,0 1.00856,54.87169 1.00856,121.93707 0,132.72852 -0.41323,125.02048 7.0759,131.99149 1.95201,1.81697 31.95535,25.9094 66.6741,53.53874 34.71875,27.62935 63.3125,50.75211 63.54166,51.38394 0.24839,0.6848 -17.77362,1.14876 -44.6226,1.14876 l -45.03927,0 -7.87739,-6.5506 z m 87.3868,2.00927 C 478.64863,552.1797 450.85156,529.1837 416.61794,501.85646 382.38432,474.52921 353.25,450.42254 351.875,448.28607 c -2.44289,-3.79575 -2.51428,-6.56688 -3.125,-121.29377 -0.48555,-91.21181 -0.96736,-117.52336 -2.15934,-117.92056 -4.10191,-1.3669 -25.41249,39.99922 -33.45481,64.93937 -13.75206,42.64668 -16.27261,85.91033 -7.52221,129.11389 7.85647,38.78999 26.54882,78.46063 51.53626,109.375 8.33119,10.30732 29.02107,31.11645 37.8501,38.06824 l 5.625,4.42901 38.64626,-0.31113 c 27.43122,-0.22083 38.78314,-0.72213 39.11794,-1.72745 z m 146.65388,3.60383 c 0.0237,-0.51563 29.72958,-24.5625 66.0131,-53.4375 36.2835,-28.875 67.06098,-53.90625 68.39441,-55.625 2.3565,-3.03746 2.43367,-6.58281 2.75485,-126.5625 0.18174,-67.89063 0.77621,-123.4375 1.32106,-123.4375 1.95684,0 17.26385,24.59746 25.50023,40.97737 25.44238,50.59791 33.05511,109.06899 21.59926,165.89763 -11.27045,55.90895 -44.09814,110.69293 -87.87839,146.65444 l -7.87739,6.47056 -44.93511,0 c -24.7143,0 -44.91571,-0.42188 -44.89202,-0.9375 z m 96.75798,-8.60462 c 79.60649,-65.66314 111.34153,-176.5585 78.74074,-275.1528 -7.90109,-23.89518 -29.45764,-65.04122 -33.38899,-63.73117 -1.18334,0.39433 -1.66872,26.97825 -2.15281,117.9051 -0.61037,114.6481 -0.68351,117.49052 -3.125,121.4342 -1.40131,2.26352 -28.86863,24.98387 -62.5,51.69859 -33,26.2132 -61.05264,48.66739 -62.3392,49.8982 -4.83,4.62072 -2.03305,4.99 37.79476,4.99 l 38.43301,0 8.53749,-7.04212 z M 226.40052,503.59084 c -20.4258,-3.39261 -35.19167,-19.87808 -35.35882,-39.4766 -0.0895,-10.49705 1.55887,-16.81233 6.36739,-24.39456 7.6473,-12.05854 20.22495,-17.90078 38.21591,-17.75104 14.89074,0.12387 23.72082,3.46415 32.58152,12.32484 8.83197,8.83196 12.23688,17.93137 11.49011,30.70652 -0.3484,5.96005 -1.58285,11.75501 -3.38892,15.90881 -3.25783,7.49275 -11.52995,15.7242 -19.22065,19.12617 -4.63585,2.05066 -19.38301,5.17347 -22.71206,4.80945 -0.6875,-0.0751 -4.27601,-0.63929 -7.97447,-1.25359 z m 23.1147,-10.43768 c 7.56072,-2.24528 15.88337,-9.11427 19.50718,-16.09997 4.02679,-7.76251 3.8814,-20.72631 -0.32477,-28.95909 -10.21888,-20.00154 -43.53242,-23.4886 -60.57497,-6.34064 -6.85022,6.89259 -9.37266,12.87528 -9.37266,22.22991 0,7.22387 5.378,17.82893 11.5062,22.68947 9.66641,7.66686 26.11874,10.38257 39.25902,6.48032 z M 228.6458,406.19148 c -7.88824,-0.92397 -18.66153,-5.46884 -24.32836,-10.26328 -2.09417,-1.77177 -5.46917,-6.22106 -7.5,-9.8873 -3.56807,-6.44136 -3.70685,-7.31364 -4.1203,-25.89584 -0.33572,-15.08886 -0.0665,-19.45894 1.25,-20.29335 1.89108,-1.19857 79.75575,-1.521 82.82562,-0.34297 1.65326,0.63441 1.97724,3.25396 1.97724,15.98737 0,17.05414 -2.06743,27.40785 -6.95404,34.826 -7.80102,11.84241 -24.64452,18.03695 -43.15016,15.86936 z m 26.46487,-13.2769 c 4.67909,-2.63188 7.92034,-5.65852 10.51433,-9.81814 3.60474,-5.78044 3.75,-6.57421 3.75,-20.4924 l 0,-14.47904 -32.97154,-0.33356 c -23.27842,-0.2355 -33.47601,0.0851 -34.6875,1.09055 -2.34336,1.94482 -2.26907,18.80175 0.11825,26.8409 2.41173,8.12117 10.60974,16.25405 19.62219,19.46631 10.34974,3.6889 24.78674,2.71313 33.65423,-2.27462 z M 192.5,240.09665 c 0,-5.5273 0.6651,-6.18486 27.1875,-26.87953 7.73437,-6.03491 14.0625,-11.4776 14.0625,-12.09485 0,-0.61725 -8.57813,-1.13088 -19.0625,-1.14141 -10.48438,-0.01 -19.81484,-0.49602 -20.73436,-1.07886 -0.91953,-0.58285 -1.48203,-2.40236 -1.25,-4.04336 l 0.42186,-2.98364 42.5,0 42.5,0 0.42186,2.98364 c 0.23203,1.641 -0.33047,3.46051 -1.25,4.04336 -0.91952,0.58284 -9.73436,1.06834 -19.58852,1.07886 -12.3078,0.0131 -17.77527,0.44336 -17.46496,1.37427 0.24843,0.74531 8.87343,8.48853 19.16666,17.20717 17.49724,14.82061 18.74062,16.16276 19.10932,20.6273 0.30835,3.73385 -0.0166,4.68366 -1.49035,4.35532 -1.0366,-0.23096 -10.05496,-7.5918 -20.04081,-16.35742 -9.98585,-8.76563 -18.87901,-15.9375 -19.76258,-15.9375 -0.88356,0 -10.88508,7.59375 -22.22562,16.875 C 203.65946,237.40625 193.95766,245 193.44042,245 192.92319,245 192.5,242.7935 192.5,240.09665 Z m 0.48645,-70.63196 c -0.38384,-1.00027 -0.50224,-2.83589 -0.26311,-4.07918 0.40397,-2.1004 2.71337,-2.28414 32.60571,-2.59411 20.01945,-0.2076 32.17095,-0.79778 32.17095,-1.5625 0,-0.6759 -0.14063,-1.23361 -0.3125,-1.23937 -0.17188,-0.006 -14.65625,-6.14599 -32.1875,-13.64495 -25.39819,-10.86403 -31.95406,-14.14775 -32.26409,-16.16053 -0.52804,-3.42819 0.81578,-4.14706 34.45159,-18.42991 15.98437,-6.78748 29.0625,-13.042949 29.0625,-13.901043 0,-1.196883 -7.34935,-1.637933 -31.5625,-1.894133 L 193.125,95.625 192.70314,92.641362 c -0.23203,-1.640999 0.33047,-3.460512 1.25,-4.043358 1.88693,-1.196046 79.75563,-1.515033 82.81962,-0.339268 2.39836,0.920334 2.70283,8.37132 0.41474,10.149318 -0.85938,0.66779 -13.9375,6.432426 -29.0625,12.810296 -41.99704,17.7092 -41.28623,17.36565 -39.56628,19.12311 0.82544,0.84345 16.81553,8.01634 35.53354,15.93977 l 34.03274,14.40622 0,4.96878 0,4.96877 -42.22034,0.32916 c -36.00619,0.28073 -42.32305,0.0615 -42.91821,-1.48947 z M 517.14536,139.43924 C 496.02791,122.54823 478.75,108.2106 478.75,107.57785 c 0,-2.44626 28.15505,-8.868623 49.9156,-11.386093 16.65526,-1.926841 55.5155,-0.913866 70.7094,1.843193 15.85002,2.87612 32.90387,7.138 34.95731,8.73609 1.37435,1.06958 -6.29741,7.75782 -36.52641,31.84367 -21.0464,16.76934 -39.16595,30.725 -40.26568,31.01259 -1.22263,0.31972 -16.91716,-11.40918 -40.39486,-30.18806 z m 75.74557,-0.5474 c 18.85741,-15.047 34.63391,-27.92076 35.05888,-28.60837 1.20959,-1.95717 -1.6939,-3.64891 -9.82481,-5.72452 -26.20598,-6.689714 -64.54649,-8.887174 -92.5,-5.301576 -21.98254,2.819696 -38.6174,6.963046 -39.13811,9.748366 -0.28082,1.50208 9.82022,10.26112 34.23603,29.6875 19.04891,15.15622 35.36504,27.55676 36.25808,27.55676 0.89302,0 17.0525,-12.31118 35.90992,-27.35816 z"
       id="path4068"
       inkscape:connector-curvature="0" />
    <path
       style="fill:#393536"
       d="m 205.18145,647.41256 c -9.40162,-3.76557 -14.11002,-11.02055 -14.11002,-21.74155 0,-10.71356 4.93796,-17.68291 15.05882,-21.25376 6.87721,-2.42642 8.41419,-2.40739 9.38257,0.11625 1.03585,2.69936 -1.13531,5.1301 -5.42352,6.07195 -8.2926,1.82136 -13.61556,13.38148 -10.08564,21.90345 3.20475,7.73696 13.4893,11.69896 21.58625,8.31584 4.94784,-2.06734 6.86616,-5.07045 10.91363,-17.08516 4.91318,-14.58459 9.97697,-18.8459 22.46583,-18.90564 14.23069,-0.068 23.6136,7.10864 24.7495,18.9301 1.12433,11.70108 -4.05992,19.13509 -15.75462,22.59146 -4.47218,1.32176 -5.59049,1.30835 -6.44685,-0.0773 -1.64866,-2.66759 -0.23004,-4.5654 4.92687,-6.59109 6.11787,-2.40316 9.43073,-7.42496 9.43073,-14.29555 0,-7.4251 -5.40753,-12.89231 -13.67305,-13.82395 -10.21463,-1.15133 -13.07695,1.68411 -18.81198,18.63541 -4.77603,14.11677 -10.45173,18.59798 -23.3904,18.46779 -4.33101,-0.0436 -9.19917,-0.60976 -10.81812,-1.2582 z m -11.21167,-61.00028 c -0.99177,-0.62879 -1.49281,-2.73303 -1.25,-5.24967 0.3864,-4.00512 1.85692,-5.13993 31.65522,-24.4288 38.65733,-25.02342 37.59771,-24.25743 35.44394,-25.62217 -0.93166,-0.59034 -16.45957,-1.08198 -34.50644,-1.0925 L 192.5,530 l 0,-3.61626 c 0,-2.14445 0.80474,-3.92508 1.97724,-4.375 3.04765,-1.16949 80.92756,-0.86006 82.80299,0.32898 0.98447,0.62417 1.49102,2.71771 1.25,5.1662 -0.3845,3.90625 -2.14712,5.24173 -34.4687,26.11601 -18.73492,12.09957 -33.87599,22.56305 -33.64686,23.25215 0.25767,0.77487 13.25467,1.4914 34.06348,1.87792 l 33.64685,0.625 0.42186,2.98364 c 0.23203,1.641 -0.33047,3.46051 -1.25,4.04336 -2.17292,1.37733 -81.15555,1.38706 -83.32709,0.01 z m 32.43075,-82.82144 c -20.4258,-3.39261 -35.19168,-19.87808 -35.35883,-39.4766 -0.0895,-10.49705 1.55888,-16.81233 6.36739,-24.39456 7.6473,-12.05854 20.22495,-17.90078 38.21591,-17.75104 14.89074,0.12387 23.72083,3.46415 32.58153,12.32484 8.83196,8.83196 12.23687,17.93137 11.4901,30.70652 -0.3484,5.96005 -1.58285,11.75501 -3.38892,15.90881 -3.25783,7.49275 -11.52995,15.7242 -19.22065,19.12617 -4.63585,2.05066 -19.38301,5.17347 -22.71206,4.80945 -0.6875,-0.0751 -4.27601,-0.63929 -7.97447,-1.25359 z m 23.1147,-10.43768 c 7.56071,-2.24528 15.88336,-9.11427 19.50717,-16.09997 4.02679,-7.76251 3.8814,-20.72631 -0.32477,-28.95909 -10.21888,-20.00154 -43.53242,-23.4886 -60.57497,-6.34064 -6.85022,6.89259 -9.37266,12.87528 -9.37266,22.22991 0,7.22387 5.378,17.82893 11.5062,22.68947 9.66641,7.66686 26.11874,10.38257 39.25902,6.48032 z M 228.6458,406.19148 c -7.88824,-0.92397 -18.66152,-5.46884 -24.32836,-10.26328 -2.09416,-1.77177 -5.46916,-6.22106 -7.5,-9.8873 -3.56806,-6.44136 -3.70685,-7.31364 -4.1203,-25.89584 -0.33572,-15.08886 -0.0665,-19.45893 1.25,-20.29335 1.89108,-1.19857 79.75575,-1.521 82.82562,-0.34297 1.65326,0.63441 1.97724,3.25396 1.97724,15.98737 0,17.05414 -2.06743,27.40785 -6.95404,34.826 -7.80102,11.84242 -24.64452,18.03695 -43.15016,15.86937 z m 26.46488,-13.2769 c 4.67908,-2.63188 7.92033,-5.65852 10.51432,-9.81814 3.60474,-5.78044 3.75,-6.57421 3.75,-20.4924 l 0,-14.47904 -32.97154,-0.33356 c -23.27842,-0.2355 -33.47601,0.0851 -34.6875,1.09055 -2.34336,1.94482 -2.26907,18.80175 0.11825,26.8409 2.41173,8.12117 10.60974,16.25405 19.62219,19.46631 10.34974,3.6889 24.78674,2.71313 33.65423,-2.27462 z M 192.5,240.09665 c 0,-5.5273 0.6651,-6.18486 27.1875,-26.87953 7.73437,-6.03491 14.0625,-11.4776 14.0625,-12.09485 0,-0.61725 -8.57813,-1.13088 -19.0625,-1.14141 -10.48438,-0.01 -19.81484,-0.49602 -20.73436,-1.07886 -0.91953,-0.58285 -1.48203,-2.40236 -1.25,-4.04336 l 0.42186,-2.98364 42.5,0 42.5,0 0.42186,2.98364 c 0.23203,1.641 -0.33047,3.46051 -1.25,4.04336 -0.91952,0.58284 -9.73436,1.06834 -19.58852,1.07886 -12.3078,0.0131 -17.77527,0.44336 -17.46496,1.37427 0.24843,0.74531 8.87343,8.48853 19.16666,17.20717 17.49724,14.82061 18.74062,16.16276 19.10932,20.6273 0.30835,3.73385 -0.0166,4.68366 -1.49035,4.35532 -1.0366,-0.23096 -10.05496,-7.5918 -20.04081,-16.35742 -9.98585,-8.76563 -18.87901,-15.9375 -19.76258,-15.9375 -0.88356,0 -10.88508,7.59375 -22.22562,16.875 C 203.65946,237.40625 193.95766,245 193.44042,245 192.92319,245 192.5,242.7935 192.5,240.09665 Z m 0.48645,-70.63196 c -0.38384,-1.00027 -0.50224,-2.83589 -0.26311,-4.07918 0.40397,-2.1004 2.71337,-2.28414 32.60571,-2.59411 20.01945,-0.2076 32.17095,-0.79778 32.17095,-1.5625 0,-0.6759 -0.14063,-1.23361 -0.3125,-1.23937 -0.17188,-0.006 -14.65625,-6.14599 -32.1875,-13.64495 -25.39819,-10.86403 -31.95406,-14.14775 -32.26409,-16.16053 -0.52804,-3.42819 0.81578,-4.14706 34.45159,-18.42991 15.98437,-6.78748 29.0625,-13.042949 29.0625,-13.901043 0,-1.196883 -7.34935,-1.637933 -31.5625,-1.894133 L 193.125,95.625 192.70314,92.641362 c -0.23203,-1.640999 0.33047,-3.460512 1.25,-4.043358 1.88693,-1.196046 79.75563,-1.515033 82.81962,-0.339268 2.39836,0.920334 2.70283,8.37132 0.41474,10.149318 -0.85938,0.66779 -13.9375,6.432426 -29.0625,12.810296 -41.99704,17.7092 -41.28623,17.36565 -39.56628,19.12311 0.82544,0.84345 16.81553,8.01634 35.53354,15.93977 l 34.03274,14.40622 0,4.96878 0,4.96877 -42.22034,0.32916 c -36.00619,0.28073 -42.32305,0.0615 -42.91821,-1.48947 z"
       id="path4066"
       inkscape:connector-curvature="0" />
  </g>
</svg>
