<?xml version="1.0" encoding="UTF-8" standalone="no"?>
<svg
   xmlns:dc="http://purl.org/dc/elements/1.1/"
   xmlns:cc="http://creativecommons.org/ns#"
   xmlns:rdf="http://www.w3.org/1999/02/22-rdf-syntax-ns#"
   xmlns:svg="http://www.w3.org/2000/svg"
   xmlns="http://www.w3.org/2000/svg"
   xmlns:sodipodi="http://sodipodi.sourceforge.net/DTD/sodipodi-0.dtd"
   xmlns:inkscape="http://www.inkscape.org/namespaces/inkscape"
   id="svg3788"
   viewBox="0 0 84 85"
   height="85"
   width="84"
   version="1.1"
   inkscape:version="0.91 r13725"
   sodipodi:docname="Newcastle_Falcons.svg">
  <sodipodi:namedview
     pagecolor="#ffffff"
     bordercolor="#666666"
     borderopacity="1"
     objecttolerance="10"
     gridtolerance="10"
     guidetolerance="10"
     inkscape:pageopacity="0"
     inkscape:pageshadow="2"
     inkscape:window-width="1920"
     inkscape:window-height="1014"
     id="namedview7437"
     showgrid="false"
     inkscape:zoom="7.8530447"
     inkscape:cx="57.853488"
     inkscape:cy="25.944358"
     inkscape:window-x="0"
     inkscape:window-y="27"
     inkscape:window-maximized="1"
     inkscape:current-layer="svg3788" />
  <metadata
     id="metadata3794">
    <rdf:RDF>
      <cc:Work
         rdf:about="">
        <dc:format>image/svg+xml</dc:format>
        <dc:type
           rdf:resource="http://purl.org/dc/dcmitype/StillImage" />
        <dc:title></dc:title>
      </cc:Work>
    </rdf:RDF>
  </metadata>
  <defs
     id="defs3792">
    <linearGradient
       id="linearGradient6056">
      <stop
         offset="0"
         style="stop-color:#000000;stop-opacity:1"
         id="stop6058" />
    </linearGradient>
    <linearGradient
       id="linearGradient4616">
      <stop
         offset="0"
         style="stop-color:#508041;stop-opacity:1"
         id="stop4618" />
    </linearGradient>
  </defs>
  <g
     style="display:inline"
     id="layer2" />
  <g
     id="layer1"
     transform="matrix(0.30342398,0,0,0.30794133,-71.718279,-130.39545)">
    <path
       style="fill:#000000;stroke:#000000;stroke-width:3.6704421;stroke-linecap:butt;stroke-linejoin:miter;stroke-miterlimit:3.86400008;stroke-dasharray:none;stroke-opacity:1"
       id="path44"
       d="m 260.09821,424.23051 c 0,0 8.42353,25.0362 25.0625,43.6875 18.87775,21.15769 30.45769,29.07736 63.40625,43.34375 24.01921,10.40129 73.50866,27.95477 84.21875,32 11.77029,4.44667 14.64718,6.99475 16.0625,10.03125 2.64535,5.65612 -5.21875,9.53125 -5.21875,9.53125 0,0 14.85514,-4.71279 10.59375,-16.375 -3.99891,-10.95198 -18.47399,-17.40946 -44.53125,-24.625 -25.28527,-7.00453 -49.58184,-13.32373 -93.75,-36.40625 -35.48069,-18.54322 -55.84375,-61.1875 -55.84375,-61.1875 z m 9.28125,58.15625 c 0,0 13.04687,19.67287 31.71875,28.875 21.08565,10.40129 57.75,15.34375 57.75,15.34375 0,0 -31.42241,-9.28376 -47.96875,-16.875 -20.91065,-9.59842 -41.5,-27.34375 -41.5,-27.34375 z m 22.6875,39.9375 c 0,0 13.23539,8.78577 26.78125,10.03125 15.30086,1.40502 28.15625,-2.125 28.15625,-2.125 0,0 -8.8803,0.92594 -23.21875,-0.90625 -14.91486,-1.90424 -31.71875,-7 -31.71875,-7 z m 129.3125,27.125 c 0,0 -5.29005,1.87776 -13.40625,8.1875 -15.52731,12.07394 -7.15519,34.07175 21.59375,43.09375 15.47069,4.8584 24.41566,3.57809 26.9375,5.3125 0.85434,0.58671 -0.0188,1.56788 -1.15625,4.1875 -1.08593,2.50125 -0.53295,4.31195 1.0625,6.4375 1.16313,1.55427 2.875,1.90625 2.875,1.90625 0,0 -2.83471,-2.81766 -0.34375,-7.15625 1.94542,-3.38132 5.19541,-4.89929 11.5,-5.1875 9.28962,-0.42202 6.5625,8.625 6.5625,8.625 0,0 6.90532,-9.21787 -3.59375,-11.75 -8.57424,-2.06894 -12.77639,3.33286 -41.03125,-7.5625 -9.22786,-3.5563 -20.08164,-15.40677 -20.375,-25.4375 -0.49407,-16.64927 9.375,-20.65625 9.375,-20.65625 z m -56.4375,76.6875 c -10.40129,0 -16.46875,4.49843 -16.46875,11.75 0,6.73176 6.15184,11.3125 14.46875,11.3125 5.66127,0 9.82583,-2.15248 10.9375,-5.3125 -2.12555,1.73955 -5.172,2.75 -8.65625,2.75 -7.06114,0 -11.9375,-3.64098 -11.9375,-9.75 0,-5.75905 4.18186,-9.21875 11.09375,-9.21875 3.62836,0 6.11005,1.23183 7.46875,3.625 l 0.28125,-4.75 c -2.4189,0 -4.7686,-0.40625 -7.1875,-0.40625 z m 57.5625,0 c -6.284,0 -10.0625,2.55433 -10.0625,5.78125 0,3.46881 3.78427,4.80495 8.8125,6.78125 3.38647,1.31753 5.15625,2.63437 5.15625,4.71875 0,2.39317 -2.4735,4.21875 -6.34375,4.21875 -3.77246,0 -6.80384,-1.24101 -8.6875,-3.53125 l 0,3.78125 c 3.09311,0.83375 5.90171,1.3125 8.5625,1.3125 6.47958,0 11.0625,-3.14186 11.0625,-6.71875 0,-2.70711 -2.50191,-4.50164 -7.4375,-6.375 -3.77246,-1.42046 -6.71875,-2.47742 -6.71875,-4.9375 0,-2.01232 2.27501,-3.5 6.53125,-3.5 2.949,0 5.16555,0.79351 6.375,2.25 l 0,-3.625 -1.21875,0 c -0.386,0 -0.66951,-0.0312 -0.90625,-0.0312 -0.92124,0 -2.65463,-0.125 -5.125,-0.125 z m -127.53125,0.3125 c -2.51154,0 -6.56263,0.0937 -12.21875,0.0937 l -3,0 c 1.20946,0.90066 1.1875,4.40827 1.1875,10.65625 l 0,1.4375 c 0,5.97006 -0.0244,9.28647 -1.1875,10.15625 l 3.9375,0 c 4.06068,0 7.3745,0.0625 9.9375,0.0625 1.93513,0 3.58284,-0.10627 4.84375,-0.28125 l 0.8125,-3.46875 c -2.02776,1.98144 -5.4718,2.40625 -10.9375,2.40625 l -2.8125,0 c -0.33967,-1.08079 -0.4375,-3.52975 -0.4375,-7.3125 l 0,-2.28125 c 0.53525,0 0.96179,0.0625 1.25,0.0625 4.98192,0 8.53771,-0.15789 10.8125,-2.03125 -2.4189,0.31394 -5.18299,0.375 -8.28125,0.375 -1.39987,0 -2.66958,0.004 -3.78125,-0.0625 l 0,-1.15625 c 0,-3.78275 0.0978,-6.20561 0.4375,-7.28125 l 2.71875,0 c 5.0797,0 7.89641,0.17184 8.8125,1.90625 l -0.40625,-3.25 c -0.96756,0 -1.49192,-0.0312 -1.6875,-0.0312 z m 207.84375,0 c -2.51154,0 -6.56263,0.0937 -12.21875,0.0937 l -3,0 c 1.20945,0.90066 1.1875,4.40827 1.1875,10.65625 l 0,1.4375 c 0,5.97006 -0.0244,9.28647 -1.1875,10.15625 l 3.96875,0 c 4.06067,0 7.34324,0.0625 9.90625,0.0625 1.93512,0 3.58283,-0.10627 4.84375,-0.28125 l 0.8125,-3.4687 c -2.03291,1.98144 -5.47181,2.40625 -10.9375,2.40625 l -2.78125,0 c -0.33968,-1.08079 -0.4375,-3.52975 -0.4375,-7.3125 l 0,-2.28125 c 0.53525,0 0.96179,0.0625 1.25,0.0625 4.98191,0 8.50645,-0.15789 10.78125,-2.03125 -2.4189,0.31394 -5.18299,0.375 -8.28125,0.375 -1.39988,0 -2.63833,0.004 -3.75,-0.0625 l 0,-1.15625 c 0,-3.78275 0.0978,-6.20561 0.4375,-7.28125 l 2.6875,0 c 5.0797,0 7.8964,0.17184 8.8125,1.90625 l -0.40625,-3.25 c -0.96756,0 -1.49193,-0.0312 -1.6875,-0.0312 z m -261.375,0.0937 c 1.73956,0.90066 1.8125,3.82326 1.8125,9.0625 0,7.60154 -0.50526,11.9729 -1.8125,13.1875 l 5.625,0 c -1.35355,-1.45644 -1.54228,-4.20657 -1.59375,-8.4062 l -0.15625,-11.1875 c 9.19184,9.7837 15.67196,16.21869 18.71875,19.6875 l 3.15625,0 0,-11.46875 c 0,-6.52075 0.0869,-10.1133 1.25,-10.875 l -4.59375,0 c 1.16314,0.96756 1.25,3.74013 1.25,8.5625 l -0.0312,9.71875 c -5.85169,-5.72302 -10.48972,-11.10225 -14.84375,-15.71875 -1.79101,-1.90424 -2.1494,-2.5625 -3.75,-2.5625 l -5.03125,0 z m 63.78125,0 c 1.35356,0.97271 4.64875,8.55711 7.0625,22.4375 l 4.15625,0 c 1.69324,-4.93045 5.13664,-11.03598 7.84375,-18.8125 l 5.40625,13.75 c 0.62789,1.55942 1.27026,3.22516 1.65625,5.0625 l 4,0 c 4.11214,-12.59889 6.676,-20.14726 9.625,-22.4375 l -6.375,0 c 0.67421,0.69479 0.90625,1.42399 0.90625,2.46875 0,1.07564 -0.53651,3.50327 -1.84375,7.25 l -3.375,9.8125 -5.625,-15.09375 c -0.43746,-1.14255 -0.5625,-1.9004 -0.5625,-2.28125 0,-0.73082 0.39933,-1.42543 1.125,-2.15625 l -8.28125,0 c 0.81831,0.7617 1.25,1.63059 1.25,2.53125 0,1.04476 -0.51337,3.47787 -2.0625,6.84375 l -4.71875,10.15625 c -0.81831,-4.19448 -1.87737,-9.66494 -3.8125,-16.46875 -0.82345,-2.81005 -1.05791,-3.0625 -3.28125,-3.0625 l -3.09375,0 z m 84,0 c 0.24189,0.34482 0.375,0.7129 0.375,1.09375 0,0.48378 -1.33228,3.75013 -4.71875,9.40625 -3.04679,5.13631 -5.94917,9.04289 -9.09375,11.75 l 6.1875,0 c -0.1441,-0.34482 -0.25,-0.68165 -0.25,-1.0625 0,-1.52854 0.90855,-3.10016 1.96875,-4.9375 l 2.09375,-3.65625 11.28125,0 4.875,9.65625 5.28125,0 c -2.75858,-2.81005 -6.97177,-10.20694 -12,-22.25 l -6,0 z m 47.84375,0 -1.15625,2.75 c 1.59545,-0.7617 3.09316,-0.875 4.78125,-0.875 l 5.125,0 c 0.24189,3.29383 0.3125,6.3679 0.3125,9.25 l 0,1.34375 c 0,5.72302 -0.0556,8.91147 -1.21875,9.78125 l 6.5625,0 c -1.20945,-0.90066 -1.1875,-4.37739 -1.1875,-10.65625 0,-2.8821 0.0283,-6.13745 0.21875,-9.78125 l 5.90625,-0.0312 c 2.4189,0 4.0093,-0.42769 5.21875,-1.78125 l -24.5625,0 z m 28.1875,0 c 1.20945,0.90066 1.21875,4.40827 1.21875,10.65625 l 0,1.4375 c 0,5.96492 -0.0556,9.29162 -1.21875,10.15625 l 1.6875,0 c 4.06067,0 7.34324,0.0625 9.90625,0.0625 1.93512,0 3.58798,-0.10627 4.84375,-0.28125 l 1.0625,-3.46875 c -1.88366,1.94027 -4.62687,2.4375 -9.125,2.4375 -0.82346,0 -1.6464,0.005 -2.5625,-0.0312 -0.24189,-0.83375 -0.4375,-3.98687 -0.4375,-9.40625 l 0,-1.4375 c 0,-5.93404 0.0608,-9.25522 1.21875,-10.125 l -6.59375,0 z m -73.46875,2.375 4.53125,8.9375 -9.75,0 5.21875,-8.9375 z m -21.75,35.40625 c -13.67968,0 -21.625,6.53181 -21.625,17 0,9.72194 8.08442,16.3125 19.03125,16.3125 7.44714,0 12.91336,-3.09636 14.375,-7.65625 -2.79975,2.5064 -6.78937,3.96875 -11.375,3.96875 -9.28962,0 -15.71875,-5.27762 -15.71875,-14.09375 0,-8.31691 5.5258,-13.3125 14.625,-13.3125 4.77605,0 8.03177,1.79663 9.8125,5.25 l 0.375,-6.875 c -3.1806,0 -6.31425,-0.59375 -9.5,-0.59375 z m 38.90625,0 c -13.36573,0 -20.5625,6.11312 -20.5625,17.28125 0,10.27262 6.75289,16.03125 18.71875,16.03125 12.53713,0 20.75,-6.86823 20.75,-17.59375 0,-10.41673 -6.36912,-15.71875 -18.90625,-15.71875 z m 86.9375,0 c -8.27059,0 -13.25,3.71732 -13.25,8.375 0,5.00765 4.97522,6.89363 11.59375,9.75 4.45181,1.90424 6.8125,3.80688 6.8125,6.8125 0,3.45852 -3.25376,6.125 -8.34375,6.125 -4.96647,0 -8.98809,-1.78963 -11.46875,-5.09375 l 0,5.4375 c 4.07611,1.20431 7.78156,1.90625 11.28125,1.90625 8.52792,0 14.5625,-4.55671 14.5625,-9.71875 0,-3.90627 -3.28623,-6.51164 -9.78125,-9.21875 -4.96133,-2.0535 -8.875,-3.53745 -8.875,-7.09375 0,-2.90783 2.99424,-5.0625 8.59375,-5.0625 3.88054,0 6.81595,1.15019 8.40625,3.25 l 0,-5.21875 -1.59375,0 c -0.50951,0 -0.86841,-0.0625 -1.1875,-0.0625 -1.20945,0 -3.50249,-0.1875 -6.75,-0.1875 z m -238.21875,0.4375 c -4.8378,0 -8.72931,0.15625 -11.78125,0.15625 l -4.375,0 c 1.59031,1.30209 1.59375,6.38425 1.59375,15.40625 l 0,2.03125 c 0,8.61542 -0.0652,13.43687 -1.59375,14.6875 l 8.65625,0 c -1.5903,-1.39983 -1.59375,-5.47409 -1.59375,-12.43745 l 0,-2.4375 2.34375,0 c 6.93248,0 10.90019,-0.2506 13,-2.90625 -3.11884,0.4529 -6.04473,0.59375 -8.90625,0.59375 -1.78072,0 -3.88993,-0.0533 -6.4375,-0.15625 l 0,-2.40625 c 0,-5.36276 0.1199,-8.75419 0.5625,-10.40625 1.59031,-0.10293 3.12845,-0.15625 4.71875,-0.15625 6.11417,0 9.53763,0.4465 10.9375,2.5 l -0.25,-4.15625 c -1.78072,-0.20072 -4.07524,-0.3125 -6.875,-0.3125 z m 28.34375,0.1563 c 0.31909,0.49922 0.53125,1.01181 0.53125,1.5625 0,0.70508 -1.79304,5.39998 -6.25,13.5625 -4.0092,7.41626 -7.83088,13.09373 -11.96875,17 l 8.15625,0 c -0.19042,-0.49922 -0.3125,-1.01181 -0.3125,-1.5625 0,-2.20789 1.19388,-4.4381 2.59375,-7.09375 l 2.75,-5.28125 14.8125,0 6.4375,13.9375 6.9375,0 c -3.62321,-4.05552 -9.16271,-14.74491 -15.78125,-32.125 l -7.90625,0 z m 33.46875,0 c 1.59031,1.30209 1.59375,6.38425 1.59375,15.40625 l 0,2.03125 c 0,8.61542 -0.0652,13.43173 -1.59375,14.6875 l 2.21875,0 c 5.34218,0 9.68633,0.0937 13.0625,0.0937 2.54243,0 4.72294,-0.15921 6.375,-0.40625 l 1.40625,-5 c -2.48581,2.8049 -6.1439,3.5 -12.0625,3.5 -1.08078,0 -2.13429,0.0151 -3.34375,-0.0312 -0.31909,-1.20431 -0.59375,-5.7812 -0.59375,-13.59375 l 0,-2.03125 c 0,-8.5691 0.0652,-13.40562 1.59375,-14.65625 l -8.65625,0 z m 117.5,0 c 2.29024,1.30209 2.34375,5.52824 2.34375,13.09375 0,10.97256 -0.62993,17.27626 -2.34375,19.03125 l 7.375,0 c -1.78073,-2.10496 -2.03199,-6.0623 -2.09375,-12.125 l -0.1875,-16.1875 c 12.09452,14.12743 20.61579,23.4611 24.625,28.46875 l 4.125,0 0,-16.59375 c 0,-9.41829 0.12771,-14.58613 1.65625,-15.6875 l -6.0625,0 c 1.52854,1.40502 1.6875,5.41164 1.6875,12.375 l -0.0937,14.03125 c -7.69932,-8.26545 -13.80308,-16.02779 -19.53125,-22.6875 -2.35715,-2.75858 -2.80644,-3.71875 -4.90625,-3.71875 l -6.59375,0 z m -28.71875,1.65625 c 8.08532,0 13.21875,5.61078 13.21875,15.28125 0,8.56395 -4.83045,13.375 -12.40625,13.375 -8.84701,0 -14.25,-5.34975 -14.25,-14.96875 0,-8.8676 5.22867,-13.6875 13.4375,-13.6875 z m -118.84375,1.75 5.96875,12.9375 -12.875,0 6.90625,-12.9375 z"
       inkscape:connector-curvature="0" />
  </g>
</svg>
