<?xml version="1.0" encoding="UTF-8" standalone="no"?>
<!-- Generator: Adobe Illustrator 14.0.0, SVG Export Plug-In . SVG Version: 6.00 Build 43363)  -->

<svg
   xmlns:dc="http://purl.org/dc/elements/1.1/"
   xmlns:cc="http://creativecommons.org/ns#"
   xmlns:rdf="http://www.w3.org/1999/02/22-rdf-syntax-ns#"
   xmlns:svg="http://www.w3.org/2000/svg"
   xmlns="http://www.w3.org/2000/svg"
   xmlns:sodipodi="http://sodipodi.sourceforge.net/DTD/sodipodi-0.dtd"
   xmlns:inkscape="http://www.inkscape.org/namespaces/inkscape"
   version="1.1"
   id="Layer_1"
   x="0px"
   y="0px"
   width="105"
   height="85"
   viewBox="0 0 105 85"
   enable-background="new 0 0 506.34 357.987"
   xml:space="preserve"
   inkscape:version="0.48.5 r10040"
   sodipodi:docname="Old_Doncaster_Rovers_FC_logo.svg"><metadata
   id="metadata85"><rdf:RDF><cc:Work
       rdf:about=""><dc:format>image/svg+xml</dc:format><dc:type
         rdf:resource="http://purl.org/dc/dcmitype/StillImage" /><dc:title></dc:title></cc:Work></rdf:RDF></metadata><defs
   id="defs83" /><sodipodi:namedview
   pagecolor="#ffffff"
   bordercolor="#666666"
   borderopacity="1"
   objecttolerance="10"
   gridtolerance="10"
   guidetolerance="10"
   inkscape:pageopacity="0"
   inkscape:pageshadow="2"
   inkscape:window-width="1280"
   inkscape:window-height="975"
   id="namedview81"
   showgrid="false"
   inkscape:zoom="0.6280365"
   inkscape:cx="54.136981"
   inkscape:cy="178.9935"
   inkscape:window-x="-4"
   inkscape:window-y="-4"
   inkscape:window-maximized="1"
   inkscape:current-layer="Layer_1" />
<g
   id="g3"
   transform="matrix(0.20736972,0,0,0.20736972,2.079876e-4,5.382168)">
	<path
   d="m 499.792,280.815 c -8.569,0 -72.024,-64.747 -94.575,-87.3 -22.551,-22.553 -88.592,-64.263 -105.729,-64.263 v -2.183 c 0.809,0 1.939,-1.779 1.939,-3.88 0,-8.489 -12.053,-10.477 -18.484,-15.385 23.454,-25.842 44.195,-48.691 51.645,-56.898 20.62,-22.718 13.4,-34.417 13.4,-34.417 0,0 -13.096,-4.688 -34.111,16.328 -7.389,7.389 -28.149,27.95 -51.963,51.504 -1.921,-3.009 -3.166,-5.659 -3.166,-7.449 0,-11.987 -1.872,-23.459 -4.933,-33.724 2.294,-0.276 4.63,-0.469 7.033,-0.469 33.626,0 34.396,-34.921 33.305,-40.255 -20.05,9.134 -39.991,7.937 -55.245,10.406 C 232.615,4.768 225.682,0 219.462,0 203.7,0 173.387,35.89 173.387,58.2 c 0,5.576 -6.305,7.275 -6.305,11.155 0,2.669 6.063,3.88 6.063,6.547 v 11.64 c 0,0 -2.183,2.667 -2.183,4.123 0,1.456 4.123,5.092 4.123,5.092 v 3.638 c 0,1.333 0.606,2.183 1.94,2.183 v 15.762 c 0,4.486 2.546,7.518 5.82,7.518 h 9.7 c 2.789,0 7.76,2.061 7.76,5.092 v 1.94 c -16.894,0 -73.573,36.591 -94.575,57.23 -21.002,20.64 -55.693,54.479 -70.083,68.871 -14.389,14.387 -23.926,21.824 -30.313,21.824 -2.91,0 -5.335,1.092 -5.335,2.91 0,3.031 7.033,6.548 14.55,6.548 42.76,0 31.605,20.612 63.292,20.612 42.68,0 20.37,22.553 72.993,22.553 21.746,0 25.3,5.82 36.132,5.82 10.08,0 23.601,-3.653 35.837,-7.859 9.009,6.692 18.65,14.388 28.518,24.258 l 2.333,2.33 2.333,-2.33 c 9.4,-9.4 18.591,-16.823 27.228,-23.291 11.138,3.898 24.135,7.135 36.643,7.135 11.962,0 15.356,-5.82 38.8,-5.82 47.529,0 32.173,-23.279 70.082,-23.279 36.296,0 18.673,-19.886 62.808,-19.886 10.831,0 14.793,-3.072 14.793,-6.063 -0.001,-1.697 -2.669,-3.638 -6.549,-3.638 z"
   id="path5"
   inkscape:connector-curvature="0" />
	<g
   id="g7">
		<path
   d="m 370.027,169.701 c -27.543,-19.042 -60.405,-37.148 -70.539,-37.148 0,0 -6.306,-1.118 -11.883,-1.118 -3.88,0 -7.518,1.212 -7.518,3.395 0,2.667 11.64,1.697 27.402,20.127 15.036,1.456 62.538,14.744 62.538,14.744 z"
   id="path9"
   inkscape:connector-curvature="0"
   style="fill:#ecd981" />
		<path
   d="m 14.55,286.973 c -4.365,0 -8.538,-1.542 -10.295,-2.739 0.33,-0.053 0.631,-0.117 1.08,-0.117 7.091,0 16.245,-6.393 32.646,-22.791 0,0 32.102,-31.435 52.957,-44.529 l -65.96,65.96 c 0,-0.001 -3.638,4.216 -10.428,4.216 z"
   id="path11"
   inkscape:connector-curvature="0"
   style="fill:#ecd981" />
		<path
   d="m 243.551,40.093 c -4.526,0 -5.335,-3.88 -14.874,-3.88 -4.85,0 -8.891,4.042 -8.891,12.449 v 3.317 c 9.066,-5.126 23.771,-12.599 41.062,-12.599 9.821,0 17.434,-3.227 22.625,-9.589 5.896,-7.223 7.476,-16.855 7.637,-22.545 -13.351,5.174 -26.35,6.334 -37.948,7.335 -21.443,1.85 -35.706,3.102 -37.895,28.25 -0.075,1.382 -0.351,7.607 0.8,7.607 1.294,0 2.102,-3.073 2.102,-8.407 0,-13.094 5.658,-22.956 32.818,-22.956 19.885,0 34.759,-8.084 36.214,-8.084 0,9.538 -5.174,15.844 -5.983,15.844 -3.07,0 -8.082,-5.82 -14.064,-5.82 -1.453,0 -3.88,0.484 -3.88,1.778 0,1.294 9.378,5.981 9.378,7.598 0,1.617 -11.316,-6.143 -14.065,-6.143 -1.294,0 -3.557,0.324 -3.557,1.455 0,1.131 13.096,10.994 10.994,10.994 -2.103,0 -11.965,-9.862 -14.875,-9.862 -2.91,0 -2.263,1.132 -2.263,2.263 0,1.131 7.072,6.184 6.628,6.628 -6.143,0 -11.802,-7.275 -16.328,-7.275 -4.85,0 -7.76,0.162 -7.76,1.132 0,1.779 14.55,5.174 14.55,9.538 -0.972,0.973 0.001,0.972 -2.425,0.972 z"
   id="path13"
   inkscape:connector-curvature="0"
   style="fill:#ecd981" />
		<path
   d="m 208.567,57.958 c 0,3.111 2.531,5.642 5.642,5.642 3.111,0 5.641,-2.531 5.641,-5.642 0,-3.111 -2.53,-5.641 -5.641,-5.641 -3.111,0 -5.642,2.53 -5.642,5.641 z"
   id="path15"
   inkscape:connector-curvature="0"
   style="fill:#ecd981" />
		<path
   d="m 221.389,54.866 c 0.417,0.948 0.66,1.989 0.66,3.092 0,0.835 -0.166,1.625 -0.407,2.378 9.411,0.363 17.462,0.718 20.706,0.865 -0.179,-4.546 -1.157,-9.652 -2.65,-14.799 -7.322,2.493 -13.556,5.775 -18.309,8.464 z"
   id="path17"
   inkscape:connector-curvature="0"
   style="fill:#ecd981" />
		<path
   d="m 206.368,57.958 c 0,-1.587 0.479,-3.058 1.29,-4.293 l 2.614,-37.332 c -3.453,2.75 -7.543,6.927 -11.529,12.264 -7.889,10.563 -12.53,21.654 -12.98,30.745 5.602,0.029 13.102,0.216 20.846,0.462 -0.144,-0.595 -0.241,-1.207 -0.241,-1.846 z"
   id="path19"
   inkscape:connector-curvature="0"
   style="fill:#ecd981" />
		<path
   d="m 242.386,45.541 c 1.846,6.286 2.943,12.354 2.943,17.187 v 1.524 l -1.522,-0.07 c -0.211,-0.012 -10.948,-0.508 -23.792,-0.996 -1.435,1.592 -3.493,2.613 -5.806,2.613 -2.512,0 -4.722,-1.203 -6.157,-3.039 -8.993,-0.295 -17.794,-0.519 -23.833,-0.519 h -1.455 v -1.455 c 0,-9.952 4.974,-22.32 13.647,-33.932 5.214,-6.981 12.147,-14.008 17.576,-16.341 l -2.817,40.215 c 0.163,-0.068 0.341,-0.1 0.51,-0.157 -0.03,-14.79 2.961,-23.711 8.162,-29.236 l 0.765,-10.919 c 2.331,0.971 4.687,2.919 6.971,5.537 2.353,-1.048 4.918,-1.83 7.67,-2.432 C 229.874,7.03 224.242,3.3 219.464,3.3 c -13.618,0 -42.775,34.466 -42.775,54.9 0,4.399 -2.622,7.041 -4.537,8.969 -0.566,0.57 -1.129,4.253 -0.703,4.43 2.062,0.849 5.82,-3.819 7.518,-3.819 66.445,0 76.436,5.814 76.436,5.814 -0.31,-10.752 -2.127,-20.9 -4.879,-29.974 -2.822,0.489 -5.54,1.14 -8.138,1.921 z"
   id="path21"
   inkscape:connector-curvature="0"
   style="fill:#ecd981" />
		<path
   d="m 249.047,80.268 c -0.97,0 -1.697,0.849 -1.697,1.697 0,0.848 5.82,7.154 5.82,7.154 0,0 -0.121,1.576 -1.576,1.576 -3.395,0 -8.124,-12.974 -10.064,-12.974 -1.94,0 -3.273,1.091 -3.273,1.94 0,2.546 7.396,12.974 7.396,14.187 0,1.212 -0.728,2.546 -1.455,2.546 -0.727,0 -4.971,-11.276 -9.458,-13.337 -0.788,-0.788 -1.091,-0.849 -2.425,-0.849 -1.333,0 -4.365,-0.121 -4.365,2.304 0,2.425 -1.577,3.819 -3.82,3.819 -2.243,0 -6.365,-5.274 -6.365,-7.942 0,-1.697 -0.122,-3.152 -1.576,-3.152 -1.455,0 -2.183,1.94 -2.183,3.031 0,1.94 -0.849,2.364 -2.364,2.364 h -4.668 c 0,0 -0.728,2 -0.728,3.092 0,1.819 6.063,4.607 6.063,6.063 0,1.456 -4.123,1.94 -4.123,9.579 0,1.577 -0.849,2.001 -2,2.001 -1.151,0 -1.697,-0.91 -1.697,-1.698 0,-5.274 4.183,-6.608 4.183,-10.367 0,-2.859 -0.97,-3.274 -1.94,-3.274 -3.88,0 -5.457,12.368 -6.548,12.368 -1.091,0 -2.546,-0.121 -2.546,-0.849 0,-4.729 6.063,-13.216 6.063,-19.764 0,-2.91 -4.001,-6.547 -8.124,-6.547 -6.305,0 -6.063,2.183 -8.851,2.183 -1.819,0 -1.455,-2.062 -4.001,-2.062 l -3.354,-0.064 c 0,1.174 0.403,3.162 1.796,4.171 0,0 5.721,-0.074 5.721,1.891 0,1.964 -7.679,1.722 -7.679,1.722 -1.618,0 -2.763,0.807 -2.763,1.859 v 5.78 c 0,0 -3.697,2.468 -3.135,3.921 0.563,1.453 4.355,-0.737 6.724,-1.116 l 1.276,3.054 c 0,0 -5.093,3.073 -4.083,5.86 0.527,0.527 5.942,0.203 5.942,0.203 v 5.511 c 0,0 -3.477,8.232 -3.477,12.191 0,2.667 1.692,4.217 3.153,4.217 h 9.7 c 1.962,0 10.024,-1.144 10.024,-4.378 0,-3.234 -7.86,-11.376 -5.739,-13.499 1.092,-1.091 11.317,7.355 11.317,14.226 0,1.737 -1.779,2.708 -1.779,4.89 0,2.182 0.97,3.88 4.85,3.88 5.578,0 6.79,-2.304 6.79,-8.002 0,-4.486 -3.88,-4.971 -3.88,-10.185 0,-2.667 1.455,-4.85 1.455,-4.85 h 2.546 v 5.335 c 0,4.729 3.637,5.941 3.637,8.366 0,2.425 -1.333,0.97 -1.333,5.457 0,0.47 0.066,0.924 0.176,1.362 4.32,-4.27 8.729,-8.627 13.168,-13.017 -0.08,-0.743 -0.128,-1.479 -0.128,-2.167 0,-5.092 -4.123,-7.76 -4.123,-7.76 0,0 0.121,-2.062 1.091,-2.062 0.97,0 6.79,4.365 6.79,5.699 0,1.298 0.462,1.389 1.324,1.393 7.623,-7.535 15.261,-15.088 22.62,-22.367 -5.011,-1.92 -10.358,-4.61 -12.305,-4.61 z M 216.795,96.03 c 0,-2.789 1.576,-3.637 1.576,-6.305 0,-1.091 2.259,-1.377 3.031,-0.606 2.183,2.183 -2.667,3.031 -2.667,7.639 -1.339,-10e-4 -1.94,0.485 -1.94,-0.728 z m 8.851,19.642 c -0.97,0 -1.818,-0.728 -1.818,-2.789 0,-7.76 -4.001,-1.212 -4.001,-8.973 0,-3.88 2.667,-7.76 3.516,-6.911 0.849,0.849 -0.97,3.031 -0.97,4.85 0,4.365 4.971,4.607 4.971,9.094 0,2.911 -0.728,4.729 -1.698,4.729 z"
   id="path23"
   inkscape:connector-curvature="0"
   style="fill:#ecd981" />
		<path
   d="m 288.667,114.826 c -2.766,-1.345 -5.626,-2.738 -7.949,-4.56 -0.002,-0.002 -0.004,-0.004 -0.008,-0.006 -1.472,1.624 -2.953,3.257 -4.442,4.897 0,0.299 0,0.582 0,0.818 0,2.971 2.971,4.607 4.607,4.607 5.76,0 7.215,7.214 7.215,7.214 0,0 -3.396,-3.759 -7.639,-3.759 -2.304,0 -4.305,-2.183 -4.305,-4.062 0,-1.879 -2.122,-2.122 -2.122,-2.122 l -0.178,-0.032 c -3.033,3.344 -6.089,6.708 -9.146,10.075 2.96,1.887 6.943,3.779 11.021,3.779 7.639,0 1.576,-1.94 11.883,-1.94 11.64,0 10.524,-6.547 10.524,-6.547 0.001,-3.505 -3.574,-5.498 -9.461,-8.362 z"
   id="path25"
   inkscape:connector-curvature="0"
   style="fill:#ecd981" />
		<path
   d="m 170.842,174.325 c 1.452,-1.434 3.116,-3.079 4.94,-4.88 l -1.566,-4.208 h 5.827 c 8.715,-8.609 20.235,-19.989 32.92,-32.525 -33.802,5.051 -85.22,40.401 -104.921,59.761 0,0 14.407,-8.289 38.62,-14.004 -0.143,-1.243 -0.218,-2.607 -0.218,-4.111 0,-6.261 3.536,-13 11.302,-13 8.053,0 12.554,8.306 12.85,12.997 0.082,-0.011 0.163,-0.021 0.246,-0.03 z"
   id="path27"
   inkscape:connector-curvature="0"
   style="fill:#ecd981" />
		<path
   d="M 226.352,165.237 C 268.085,119.26 332.143,48.689 332.143,48.689 343.734,35.92 345.882,27.126 345.882,22.362 c 0,-0.302 -0.011,-0.583 -0.026,-0.851 L 208.744,165.237 h 17.608 z"
   id="path29"
   inkscape:connector-curvature="0"
   style="fill:#ecd981" />
		<path
   d="M 204.184,165.237 343.288,19.426 c -4.772,0.3 -14.183,2.832 -27.077,15.725 -15.933,15.931 -94.891,93.95 -131.474,130.086 h 19.447 z"
   id="path31"
   inkscape:connector-curvature="0"
   style="fill:#ecd981" />
		<path
   d="m 180.843,189.703 c -1.044,-7.014 -2.771,-13.199 -3.891,-16.776 -3.76,3.713 -6.691,6.608 -8.556,8.449 1.699,1.66 6.043,5.904 10.555,10.31 l 1.892,-1.983 z"
   id="path33"
   inkscape:connector-curvature="0"
   style="fill:#ecd981" />
		<path
   d="m 181.293,207.646 c -7.765,-8.289 -22.446,-23.943 -23.911,-25.408 -2,-2 -2.667,-4.244 -2.667,-6.547 0,-1.455 1.576,-5.093 2.91,-5.093 1.333,0 2,0.849 2,2 0,2.729 -1.758,-0.061 -1.758,3.819 0,3.395 2.182,5.214 2.182,5.214 l 21.564,22.678 c 0.07,-1.131 0.114,-2.296 0.114,-3.52 0,-0.606 -0.023,-1.212 -0.042,-1.821 l -17.999,-17.579 c 0,0 0.287,-0.283 0.833,-0.824 l -0.833,0.097 c 0,0 3.638,-1.576 3.638,-5.82 0,-3.273 -3.517,-10.185 -9.579,-10.185 -6.062,0 -8.002,5.578 -8.002,9.7 0,4.729 0.788,7.942 2.183,9.336 1.143,1.144 21.118,22.179 28.269,29.71 0.455,-1.809 0.835,-3.709 1.098,-5.757 z"
   id="path35"
   inkscape:connector-curvature="0"
   style="fill:#ecd981" />
		<path
   d="m 308.703,165.239 c 0,-0.451 0,-0.828 0,-1.067 0,-2.183 -14.793,-21.583 -29.585,-21.583 -17.218,0 -22.311,13.58 -22.311,19.158 0,1.006 0,2.205 0,3.49 l 51.896,0.002 z"
   id="path37"
   inkscape:connector-curvature="0"
   style="fill:#ecd981" />
		<path
   d="m 329.611,161.958 c -4.708,-0.998 -9.297,-1.583 -13.634,-1.583 -2.804,0 -3.389,1.341 -3.514,4.865 h 15.703 l 1.445,-3.282 z"
   id="path39"
   inkscape:connector-curvature="0"
   style="fill:#ecd981" />
		<path
   d="m 491.547,287.216 c 7.721,0 9.708,-2.679 8.245,-3.1 -30.798,-8.878 -98.455,-106.606 -165.576,-121.065 -0.393,0.712 -0.78,1.451 -1.124,2.188 l -1.655,4.45 c -0.059,0.157 -5.856,15.906 -5.856,31.101 0,10.433 2.713,17.169 5.585,24.304 3.18,7.896 6.783,16.851 6.783,31.472 0,36.345 -19.065,50.043 -43.203,67.385 -2.687,1.929 -5.443,3.93 -5.443,6.01 0,0 18.188,4.448 29.585,4.448 5.82,0 9.7,-1.939 9.7,-3.88 0,-3.152 -11.397,-21.825 -8.729,-21.825 2.667,0 10.185,20.612 14.307,20.612 2.668,0 5.457,-1.939 5.457,-5.456 0,-5.214 -10.792,-25.341 -8.609,-25.341 2.183,0 13.58,29.1 19.158,29.1 3.637,0 5.335,-1.939 5.335,-6.063 0,-8.729 -20.734,-32.495 -18.673,-36.617 3.638,-3.638 26.675,40.255 34.435,40.255 3.881,0 7.518,-1.94 7.518,-5.335 0,-4.365 -35.647,-50.925 -32.979,-50.925 2.667,0 37.587,52.38 42.922,52.38 1.819,-1.818 -32.616,-54.927 -35.162,-59.897 3.88,0 40.255,52.622 43.893,52.622 2.667,0 4.729,-0.97 4.729,-4.729 0,-3.759 -46.924,-55.411 -52.259,-67.051 3.152,0 54.32,65.717 57.958,65.717 1.697,0 2.667,-0.728 2.667,-3.152 0,-4.122 -66.2,-77.361 -64.263,-79.297 5.818,1.939 66.203,78.327 71.538,78.327 2.667,0 3.638,-1.213 3.638,-3.638 0,-4.122 -34.666,-44.066 -37.103,-48.985 3.395,0 45.59,53.593 49.712,53.593 1.94,0 3.152,0 3.152,-3.152 0,-5.82 -74.932,-78.327 -77.357,-85.36 3.88,0 79.54,83.663 85.118,83.663 1.826,0 2.667,-0.971 2.667,-2.425 0,-2.91 -89.482,-89.484 -92.877,-95.304 5.092,0 92.635,93.605 98.697,93.605 2.183,0 4.486,-1.939 4.486,-4.486 0,-4.486 -77.357,-80.268 -101.972,-99.547 23.28,7.275 98.753,96.516 107.186,96.516 1.399,0 2.91,-0.97 2.91,-4.85 0,-8.487 -70.918,-73.363 -76.873,-80.026 9.458,2.425 80.025,80.268 88.998,82.208 2.778,0.603 5.615,1.55 13.334,1.55 z"
   id="path41"
   inkscape:connector-curvature="0"
   style="fill:#ecd981" />
		<path
   d="m 176.143,225.094 c 1.067,-2.652 2.111,-5.251 3.004,-8.002 -5.113,-5.389 -12.061,-12.702 -17.958,-18.905 -2.57,-0.26 -5.244,-0.468 -7.201,-0.468 -6.466,0 -17.46,12.772 -17.46,17.459 0,4.851 -6.951,6.146 -6.951,12.61 0,2.266 1.294,2.91 4.526,2.91 3.395,0 9.378,9.541 15.359,9.541 3.234,0 7.436,8.082 17.298,8.082 1.036,0 2.058,-0.095 3.048,-0.25 1.055,-9.829 3.824,-16.74 6.335,-22.977 z"
   id="path43"
   inkscape:connector-curvature="0"
   style="fill:#ecd981" />
		<path
   d="m 138.307,249.776 c -1.052,-1.05 2.101,-3.881 2.101,-8.083 0,-1.678 -0.593,-3 -1.429,-4.042 -2.633,-1.773 -5.717,-3.073 -8.756,-3.073 -6.305,0 -9.376,4.527 -9.376,7.76 0,3.777 2.329,7.427 6.221,9.681 1.538,-0.007 1.378,-3.86 2.509,-3.86 0.674,0 0.69,2.731 1.021,5.361 1.659,0.496 3.479,0.784 5.445,0.784 6.144,0 10.024,-2.266 10.024,-7.923 0,-0.909 -0.596,-2.183 -1.596,-3.558 -1.961,0 -3.578,8.006 -6.164,6.953 z"
   id="path45"
   inkscape:connector-curvature="0"
   style="fill:#ecd981" />
		<path
   d="m 212.564,323.95 c -24.138,-17.342 -43.204,-31.04 -43.204,-67.385 0,-1.788 0.056,-3.493 0.156,-5.118 -0.901,0.109 -1.824,0.174 -2.758,0.174 -7.451,0 -12.143,-3.85 -15.247,-6.396 -0.799,-0.659 -1.885,-1.546 -2.314,-1.713 -0.198,-0.004 -0.389,-0.053 -0.584,-0.068 0.473,1.05 0.752,2.054 0.752,2.937 0,3.376 -1.298,11.224 -13.323,11.224 -11.578,0 -18.496,-7.765 -18.496,-15.267 0,-4.646 3.698,-9.612 9.851,-10.795 -0.74,-0.963 -1.121,-2.213 -1.121,-3.755 0,-4.839 2.789,-7.604 4.824,-9.624 1.479,-1.467 2.126,-2.19 2.126,-2.986 0,-6.346 12.063,-20.759 20.759,-20.759 1.098,0 2.398,0.063 3.769,0.159 -4.447,-4.674 -7.737,-8.125 -8.163,-8.55 -0.518,-0.517 -0.967,-1.141 -1.355,-1.862 -0.437,-0.064 -0.867,-0.108 -1.283,-0.108 -28.13,0 -113.49,92.15 -113.49,98.456 0,3.395 0.97,3.516 3.517,3.516 6.184,0 72.144,-78.449 104.639,-95.424 -36.375,33.708 -98.455,93.121 -98.455,98.456 0,2.426 2.91,3.638 5.82,3.638 4.85,0 67.779,-69.719 69.113,-68.385 1.333,1.334 -61.353,67.657 -61.353,71.295 0,5.82 5.335,6.548 8.002,6.548 5.092,0 47.045,-53.593 48.257,-52.38 2.183,2.182 -34.677,45.832 -34.677,48.5 0,2.667 1.94,3.637 3.637,3.637 4.365,0 28.373,-38.558 31.04,-38.558 0,3.638 -24.25,32.98 -24.25,39.771 0,1.697 1.212,2.425 3.153,2.425 4.122,0 28.979,-40.134 30.797,-38.314 1.819,1.818 -23.28,33.465 -23.28,38.072 0,3.395 2.667,4.607 3.88,4.607 3.637,0 33.101,-44.983 34.92,-43.165 -11.64,17.945 -28.13,49.47 -26.675,50.925 2.91,2.91 41.225,-53.107 42.195,-52.138 0.97,0.971 -33.223,48.5 -33.223,52.865 0,4.365 5.092,5.335 7.518,5.335 4.607,0 33.344,-43.528 35.163,-41.71 1.818,1.818 -19.158,32.495 -19.158,38.315 0,3.88 2.183,5.335 4.365,5.335 7.517,0 18.43,-30.798 20.612,-30.798 2.182,0 -9.215,23.28 -9.215,27.888 0,3.395 2.667,4.85 4.85,4.85 3.637,0 13.58,-21.825 15.52,-21.825 1.94,0 -8.73,18.915 -8.73,22.068 0,4.364 7.518,5.577 16.248,5.577 11.397,0 27.888,-2.425 27.888,-6.063 0,-0.322 0.032,-0.743 0.077,-1.197 -1.037,-0.751 -2.078,-1.502 -3.094,-2.23 z"
   id="path47"
   inkscape:connector-curvature="0"
   style="fill:#ecd981" />
	</g>
	<g
   id="g49">
		<path
   d="m 287.821,263.905 c 0.853,1.33 1.554,2.777 2.06,4.331 0.621,1.913 0.919,3.868 0.919,5.801 0,4.801 -1.935,9.359 -5.25,12.826 4.359,3.122 8.95,6.415 8.95,6.415 l -10.89,-0.068 c 0.117,0.776 0.198,1.554 0.198,2.334 0,5.889 -2.76,11.644 -7.766,15.277 -5.668,4.119 -12.998,4.593 -19.076,1.717 -1.616,5.089 -3.31,10.42 -3.31,10.42 l -3.313,-10.424 c -6.079,2.88 -13.409,2.41 -19.078,-1.713 -5.004,-3.634 -7.766,-9.389 -7.766,-15.277 0,-0.78 0.082,-1.558 0.199,-2.334 -5.326,0.034 -10.888,0.072 -10.888,0.072 l 8.953,-6.419 c -3.317,-3.471 -5.252,-8.029 -5.252,-12.83 0,-1.929 0.297,-3.884 0.919,-5.797 0.506,-1.554 1.206,-3.001 2.059,-4.331 H 172.97 c 3.566,44.408 40.144,48.875 80.685,89.418 40.541,-40.543 77.119,-45.01 80.687,-89.418 h -46.521 z"
   id="path51"
   inkscape:connector-curvature="0"
   style="fill:#d82127" />
		<path
   d="M 324.78,217.346 H 182.53 c -3.612,11.594 -9.87,20.066 -9.87,39.22 0,1.588 0.038,3.126 0.11,4.623 h 48.85 c 2.715,-2.884 6.293,-4.865 10.213,-5.619 -1.676,-5.043 -3.423,-10.307 -3.424,-10.307 l 8.794,6.476 c 3.229,-5.899 9.444,-9.821 16.452,-9.821 7.007,0 13.221,3.922 16.449,9.817 l 8.791,-6.472 -3.422,10.307 c 3.922,0.754 7.499,2.739 10.216,5.619 h 48.851 c 0.071,-1.497 0.109,-3.035 0.109,-4.623 10e-4,-19.154 -6.257,-27.627 -9.869,-39.22 z"
   id="path53"
   inkscape:connector-curvature="0"
   style="fill:#ffffff" />
		<path
   d="m 183.305,214.629 h 140.699 c -1.038,-3.998 -1.722,-8.443 -1.722,-13.839 0,-16.005 6.063,-32.252 6.063,-32.252 h -149.38 c 0,0 6.063,16.248 6.063,32.252 -0.001,5.396 -0.683,9.841 -1.723,13.839 z"
   id="path55"
   inkscape:connector-curvature="0"
   style="fill:#ffffff" />
		<path
   d="m 270.461,261.48 -3.664,0.443 -0.712,-3.622 c -1.167,-5.911 -6.396,-10.204 -12.43,-10.204 -6.035,0 -11.262,4.293 -12.429,10.204 l -0.713,3.622 -3.665,-0.443 c -5.982,-0.72 -11.678,2.925 -13.542,8.665 -1.864,5.733 0.603,12.034 5.864,14.975 l 3.221,1.8 -1.551,3.346 c -2.533,5.468 -0.828,12.012 4.056,15.558 4.881,3.551 11.633,3.149 16.053,-0.947 l 2.704,-2.508 2.705,2.508 c 4.42,4.097 11.17,4.494 16.05,0.947 4.885,-3.546 6.592,-10.09 4.059,-15.558 l -1.55,-3.35 3.223,-1.796 c 5.261,-2.937 7.728,-9.233 5.863,-14.975 -1.864,-5.736 -7.559,-9.38 -13.542,-8.665 z m -6.477,22.894 c 0.082,0.375 0.131,0.758 0.131,1.147 0,0.338 -0.026,0.679 -0.08,1.02 -0.269,1.701 -1.186,3.194 -2.576,4.206 -2.082,1.512 -4.694,1.47 -6.791,0.276 l -1.012,3.187 -1.013,-3.187 c -2.097,1.193 -4.71,1.235 -6.792,-0.276 -1.733,-1.258 -2.653,-3.225 -2.653,-5.218 0,-0.387 0.046,-0.772 0.128,-1.151 l -3.178,0.019 2.634,-1.887 c -1.279,-1.201 -2.069,-2.842 -2.069,-4.619 0,-0.659 0.103,-1.326 0.316,-1.985 0.791,-2.433 2.905,-4.031 5.289,-4.339 l -1.013,-3.046 2.634,1.939 c 1.014,-2.186 3.149,-3.728 5.715,-3.728 2.566,0 4.7,1.542 5.716,3.725 l 2.63,-1.937 -1.012,3.046 c 2.383,0.308 4.499,1.902 5.289,4.339 0.215,0.655 0.32,1.33 0.32,1.997 0,1.004 -0.236,2 -0.706,2.921 -0.34,0.667 -0.818,1.213 -1.364,1.687 l 2.633,1.887 -3.176,-0.023 z"
   id="path57"
   inkscape:connector-curvature="0"
   style="fill:#ffffff" />
		<path
   d="m 287.789,268.918 c -2.501,-7.691 -10.065,-12.314 -17.801,-11.386 -1.508,-7.646 -8.245,-13.413 -16.332,-13.413 -8.087,0 -14.824,5.767 -16.332,13.413 -7.736,-0.933 -15.303,3.694 -17.802,11.386 -2.5,7.688 0.904,15.88 7.709,19.677 -3.274,7.07 -1.215,15.694 5.328,20.449 6.542,4.756 15.381,4.047 21.095,-1.25 5.713,5.297 14.553,6.002 21.095,1.25 6.544,-4.755 8.604,-13.379 5.329,-20.449 6.805,-3.797 10.208,-11.985 7.711,-19.677 z m -8.988,17.389 c 0,0 -1.429,0.795 -2.122,1.182 0.333,0.724 1.02,2.205 1.02,2.205 0.873,1.884 1.292,3.88 1.292,5.858 0,4.384 -2.058,8.665 -5.782,11.371 -5.403,3.929 -12.879,3.485 -17.772,-1.05 0,0 -1.199,-1.114 -1.782,-1.652 -0.583,0.538 -1.782,1.652 -1.782,1.652 -4.894,4.535 -12.369,4.979 -17.773,1.05 -3.726,-2.706 -5.78,-6.987 -5.78,-11.367 0,-1.979 0.418,-3.979 1.291,-5.862 0,0 0.687,-1.481 1.021,-2.201 -0.693,-0.387 -2.121,-1.186 -2.121,-1.186 -4.521,-2.527 -7.178,-7.294 -7.178,-12.266 0,-1.436 0.222,-2.891 0.684,-4.315 2.065,-6.354 8.372,-10.39 14.997,-9.594 0,0 1.624,0.196 2.413,0.291 0.154,-0.78 0.471,-2.383 0.471,-2.383 1.292,-6.548 7.079,-11.299 13.761,-11.299 6.682,0 12.467,4.751 13.759,11.299 0,0 0.318,1.603 0.472,2.383 0.789,-0.095 2.412,-0.291 2.412,-0.291 6.625,-0.792 12.933,3.243 14.997,9.594 0.463,1.425 0.684,2.88 0.684,4.319 -0.004,4.975 -2.661,9.738 -7.182,12.262 z"
   id="path59"
   inkscape:connector-curvature="0"
   style="fill:#ffffff" />
		<path
   d="m 264.187,276.584 c -0.724,-2.229 -3.119,-3.448 -5.347,-2.725 -0.434,0.144 -0.814,0.359 -1.165,0.613 0.133,-0.409 0.224,-0.841 0.224,-1.296 0,-2.345 -1.9,-4.243 -4.244,-4.243 -2.343,0 -4.244,1.898 -4.244,4.243 0,0.455 0.091,0.887 0.224,1.3 -0.351,-0.254 -0.732,-0.474 -1.166,-0.617 -2.229,-0.724 -4.623,0.496 -5.347,2.725 -0.724,2.231 0.496,4.626 2.725,5.35 0.434,0.141 0.873,0.186 1.306,0.186 -0.352,0.258 -0.678,0.554 -0.947,0.921 -1.377,1.898 -0.957,4.551 0.939,5.93 1.896,1.376 4.551,0.955 5.928,-0.939 0.268,-0.367 0.448,-0.77 0.583,-1.183 0.135,0.409 0.314,0.812 0.582,1.183 1.377,1.895 4.031,2.315 5.928,0.936 1.896,-1.375 2.317,-4.031 0.938,-5.926 -0.267,-0.367 -0.595,-0.663 -0.943,-0.921 0.433,0 0.872,-0.045 1.304,-0.186 2.227,-0.725 3.448,-3.12 2.722,-5.351 z m -10.532,6.031 c -1.439,0 -2.606,-1.167 -2.606,-2.606 0,-1.439 1.167,-2.606 2.606,-2.606 1.44,0 2.607,1.167 2.607,2.606 0,1.439 -1.167,2.606 -2.607,2.606 z"
   id="path61"
   inkscape:connector-curvature="0"
   style="fill:#ffffff" />
	</g>
	<g
   id="g63">
		<path
   d="m 191.552,183.19 h 8.484 c 2.1,0 3.839,0.115 5.216,0.349 1.378,0.233 2.542,0.6 3.492,1.106 1.655,0.87 2.912,2.122 3.77,3.759 0.858,1.637 1.288,3.592 1.288,5.866 0,2.264 -0.429,4.208 -1.288,5.835 -0.858,1.627 -2.115,2.88 -3.77,3.759 -0.97,0.506 -2.141,0.874 -3.514,1.106 -1.373,0.233 -3.104,0.349 -5.194,0.349 h -8.484 V 183.19 z m 6.214,4.547 v 13.004 h 2.18 c 2.331,0 4.1,-0.549 5.311,-1.648 1.21,-1.099 1.816,-2.717 1.816,-4.854 0,-2.137 -0.605,-3.755 -1.816,-4.854 -1.21,-1.099 -2.98,-1.648 -5.311,-1.648 h -2.18 z"
   id="path65"
   inkscape:connector-curvature="0" />
		<path
   d="m 217.409,199.407 h 5.759 v 5.911 h -5.759 v -5.911 z"
   id="path67"
   inkscape:connector-curvature="0" />
		<path
   d="m 227.685,183.19 h 8.999 c 1.738,0 3.125,0.047 4.162,0.144 1.036,0.097 1.933,0.256 2.692,0.478 1.243,0.354 2.215,0.993 2.917,1.917 0.703,0.924 1.055,2.033 1.055,3.327 0,1.425 -0.371,2.598 -1.111,3.516 -0.74,0.919 -1.729,1.435 -2.966,1.546 v 0.152 c 1.323,0.233 2.238,0.676 2.743,1.333 0.505,0.658 0.758,1.971 0.758,3.941 v 1.712 c 0,1.143 0.09,2.01 0.268,2.607 0.18,0.597 0.479,1.082 0.899,1.455 h -6.777 c -0.186,-0.282 -0.318,-0.642 -0.396,-1.076 -0.078,-0.434 -0.117,-1.122 -0.117,-2.061 v -1.091 c 0,-0.546 -0.005,-0.962 -0.015,-1.25 -0.01,-0.288 -0.025,-0.563 -0.044,-0.826 -0.061,-0.888 -0.328,-1.521 -0.8,-1.895 -0.472,-0.373 -1.254,-0.561 -2.348,-0.561 h -3.855 v 8.76 h -6.063 V 183.19 z m 6.062,4.486 v 4.456 h 4.201 c 1.131,0 1.991,-0.191 2.583,-0.574 0.59,-0.383 0.886,-0.936 0.886,-1.662 0,-0.726 -0.296,-1.275 -0.886,-1.654 -0.591,-0.377 -1.451,-0.567 -2.583,-0.567 h -4.201 z"
   id="path69"
   inkscape:connector-curvature="0" />
		<path
   d="m 251.677,199.407 h 5.759 v 5.911 h -5.759 v -5.911 z"
   id="path71"
   inkscape:connector-curvature="0" />
		<path
   d="m 261.953,183.19 h 16.399 v 4.547 h -10.276 v 3.85 h 8.852 v 4.547 h -8.852 v 9.185 h -6.123 V 183.19 z"
   id="path73"
   inkscape:connector-curvature="0" />
		<path
   d="m 274.579,199.407 h 5.759 v 5.911 h -5.759 v -5.911 z"
   id="path75"
   inkscape:connector-curvature="0" />
		<path
   d="m 306.649,190.313 h -6.699 c -0.294,-1.076 -0.768,-1.875 -1.427,-2.398 -0.659,-0.523 -1.516,-0.784 -2.562,-0.784 -1.621,0 -2.917,0.644 -3.891,1.933 -0.971,1.288 -1.457,3.014 -1.457,5.176 0,2.143 0.51,3.863 1.528,5.161 1.02,1.298 2.355,1.948 4.009,1.948 1.141,0 2.088,-0.328 2.838,-0.985 0.751,-0.657 1.194,-1.541 1.325,-2.652 h 6.668 c -0.476,2.552 -1.718,4.568 -3.729,6.051 -2.01,1.483 -4.501,2.224 -7.472,2.224 -1.707,0 -3.261,-0.252 -4.66,-0.76 -1.4,-0.504 -2.666,-1.27 -3.797,-2.291 -1.173,-1.051 -2.044,-2.289 -2.614,-3.711 -0.57,-1.421 -0.856,-3.073 -0.856,-4.954 0,-3.623 1.112,-6.485 3.332,-8.59 2.221,-2.105 5.226,-3.156 9.011,-3.156 2.808,0 5.127,0.682 6.96,2.046 1.835,1.364 2.999,3.278 3.493,5.742 z"
   id="path77"
   inkscape:connector-curvature="0" />
		<path
   d="m 310.21,199.407 h 5.76 v 5.911 h -5.76 v -5.911 z"
   id="path79"
   inkscape:connector-curvature="0" />
	</g>
</g>
</svg>