<?xml version="1.0" encoding="UTF-8" ?>
<!DOCTYPE svg PUBLIC "-//W3C//DTD SVG 1.1//EN" "http://www.w3.org/Graphics/SVG/1.1/DTD/svg11.dtd">
<svg width="1197pt" height="884pt" viewBox="0 0 1197 884" version="1.1" xmlns="http://www.w3.org/2000/svg">
<g id="#fefefeff">
</g>
<g id="#393294ff">
<path fill="#393294" opacity="1.00" d=" M 73.97 50.92 C 81.47 45.49 91.04 44.70 99.99 44.30 C 108.34 44.60 116.72 45.17 124.90 47.00 C 124.78 50.39 124.81 53.79 124.69 57.19 C 114.82 53.89 104.53 50.72 94.01 51.65 C 88.29 52.11 82.79 57.02 82.89 62.99 C 82.31 69.72 88.24 74.45 93.49 77.45 C 101.87 81.87 110.80 85.22 118.97 90.04 C 124.18 93.33 129.12 97.71 131.25 103.67 C 134.22 112.56 132.03 123.50 124.54 129.53 C 116.82 135.72 106.63 137.27 97.04 137.81 C 86.83 138.10 76.66 136.53 66.72 134.31 C 66.63 130.47 67.49 126.36 65.80 122.76 C 73.49 125.16 80.71 129.05 88.79 130.18 C 95.04 131.20 101.81 131.19 107.66 128.51 C 114.55 125.23 117.14 115.47 113.07 109.09 C 111.21 105.61 107.74 103.51 104.52 101.46 C 95.87 96.08 85.96 93.10 77.41 87.56 C 72.75 84.28 68.14 80.14 66.53 74.47 C 63.47 66.20 66.28 55.68 73.97 50.92 Z" />
<path fill="#393294" opacity="1.00" d=" M 158.81 46.23 C 168.78 45.67 178.80 45.94 188.79 46.08 C 201.13 76.22 213.82 106.22 226.23 136.33 C 220.66 136.09 214.72 137.18 209.39 135.79 C 205.33 126.89 202.13 117.62 198.06 108.72 C 185.69 108.54 173.32 108.67 160.96 108.67 C 158.72 108.49 158.40 111.29 157.54 112.77 C 154.43 120.61 151.28 128.43 147.98 136.20 C 144.58 136.29 141.17 136.33 137.78 136.09 C 145.59 117.20 153.60 98.38 161.37 79.47 C 164.65 71.65 168.48 64.01 170.73 55.81 C 171.29 52.32 167.82 49.83 164.74 49.30 C 162.71 48.43 159.43 48.95 158.81 46.23 M 178.15 64.48 C 172.70 76.74 167.39 89.08 162.34 101.52 C 173.28 102.03 184.24 101.52 195.18 101.72 C 192.32 95.00 189.24 88.37 186.29 81.69 C 183.37 76.04 181.44 69.93 178.15 64.48 Z" />
<path fill="#393294" opacity="1.00" d=" M 223.92 46.10 C 234.69 45.65 245.48 46.00 256.26 45.92 C 256.52 66.28 256.36 86.64 256.44 107.00 C 256.54 114.15 255.93 121.39 257.59 128.42 C 259.40 128.89 261.19 129.55 263.07 129.65 C 276.00 129.70 288.94 129.65 301.87 129.78 C 301.78 132.10 301.72 134.43 301.70 136.76 C 280.87 136.85 260.03 136.51 239.20 136.56 C 238.83 111.03 239.19 85.48 239.02 59.94 C 238.90 56.82 238.80 52.99 235.89 51.08 C 232.70 48.91 228.66 48.78 224.98 48.08 C 224.71 47.59 224.19 46.59 223.92 46.10 Z" />
<path fill="#393294" opacity="1.00" d=" M 298.52 45.95 C 324.32 45.97 350.11 45.97 375.91 46.00 C 375.74 48.29 375.65 50.58 375.68 52.88 C 363.77 52.91 351.86 52.94 339.95 52.90 C 337.21 53.07 334.19 53.05 331.86 54.72 C 330.78 56.21 331.07 58.22 330.90 59.96 C 330.97 68.60 330.74 77.25 331.14 85.89 C 346.04 86.03 360.95 85.86 375.85 85.98 C 375.68 88.25 375.61 90.53 375.64 92.81 C 360.79 92.83 345.93 92.74 331.07 92.85 C 330.82 102.24 330.97 111.63 330.98 121.02 C 331.11 123.42 330.99 125.93 331.82 128.23 C 333.39 129.10 335.15 129.63 336.95 129.71 C 349.96 129.85 362.98 129.39 375.99 129.71 C 375.91 132.04 375.87 134.36 375.83 136.69 C 354.99 136.56 334.14 137.06 313.30 136.70 C 313.17 110.12 313.36 83.53 313.01 56.96 C 313.25 51.93 308.17 49.49 303.90 49.04 C 301.93 48.29 298.03 49.11 298.52 45.95 Z" />
<path fill="#393294" opacity="1.00" d=" M 412.20 126.76 C 437.40 138.77 461.22 153.63 483.45 170.50 C 527.56 203.41 564.89 244.86 595.57 290.40 C 602.47 300.32 608.41 310.85 614.66 321.17 C 614.48 281.48 614.56 241.80 614.49 202.11 C 613.96 193.36 614.79 183.36 608.85 176.16 C 601.47 168.67 590.14 168.53 580.40 166.89 C 580.32 165.61 580.25 164.34 580.18 163.07 C 607.12 162.80 634.06 163.06 661.01 162.95 C 682.63 162.78 704.68 163.16 725.53 169.53 C 738.35 173.68 751.13 180.96 757.89 193.06 C 764.23 205.62 764.52 221.02 758.85 233.89 C 755.79 240.94 750.21 246.66 743.78 250.76 C 734.03 256.57 722.87 259.39 711.75 261.15 C 712.28 262.56 712.86 263.97 713.73 265.23 C 730.62 289.43 746.81 314.12 763.52 338.44 C 767.12 343.62 770.67 348.82 774.02 354.16 C 760.68 354.30 747.35 354.17 734.02 354.31 C 723.36 338.28 712.09 322.66 701.28 306.73 C 692.19 293.23 682.71 279.99 673.55 266.54 C 666.76 266.44 659.97 266.62 653.19 266.45 C 652.51 295.85 653.48 325.29 652.82 354.70 C 646.02 354.62 639.22 354.53 632.42 354.60 C 633.95 358.35 635.84 361.96 637.47 365.68 C 645.14 367.58 653.01 368.55 660.73 370.29 C 673.50 373.16 686.18 376.42 699.01 379.03 C 808.70 405.45 914.61 445.20 1018.72 488.25 C 1029.19 492.79 1040.02 496.57 1050.13 501.93 C 1081.70 517.16 1112.20 534.48 1142.45 552.16 C 1137.11 556.25 1130.74 558.73 1124.86 561.93 C 1094.83 576.61 1063.33 587.95 1033.16 602.33 C 1022.79 607.25 1011.22 608.40 1000.02 610.13 C 988.30 611.71 976.52 612.66 964.76 613.76 C 961.12 613.94 958.61 616.84 955.95 618.94 C 942.65 629.98 929.14 640.77 915.83 651.79 C 914.84 652.80 913.43 652.92 912.12 652.78 C 885.05 648.08 858.25 641.88 831.22 636.96 C 813.57 633.54 795.70 631.52 777.86 629.45 C 779.51 634.14 782.24 638.33 784.11 642.92 C 789.58 655.61 793.72 668.88 796.50 682.41 C 797.70 687.63 799.03 692.84 799.35 698.22 C 786.01 690.29 773.71 680.78 760.70 672.36 C 746.85 664.40 733.67 655.37 720.09 646.98 C 699.47 634.26 679.24 620.93 658.38 608.60 C 651.89 604.25 643.76 604.46 636.39 602.77 C 618.56 600.63 600.70 598.61 582.78 597.42 C 578.40 597.33 573.96 595.90 569.63 596.83 C 532.86 612.98 496.39 629.82 460.21 647.27 C 410.65 671.52 361.09 696.07 314.22 725.28 C 307.91 729.18 301.91 733.54 295.82 737.75 C 302.21 718.82 310.99 700.81 320.00 683.01 C 328.77 667.20 337.33 651.27 347.01 636.00 C 358.11 618.15 370.02 600.82 382.13 583.65 C 365.92 584.16 349.80 586.20 333.84 589.06 C 325.02 591.32 315.94 592.54 307.25 595.35 C 279.96 603.31 253.47 614.82 230.18 631.27 C 228.52 632.36 226.79 633.34 225.01 634.21 C 228.09 623.92 232.87 614.21 236.06 603.95 C 229.73 607.78 224.49 613.14 220.05 619.00 C 205.43 636.96 193.70 656.97 181.74 676.72 C 172.50 692.34 163.62 708.19 155.39 724.36 C 138.00 759.88 117.36 793.99 104.52 831.56 C 103.71 833.99 102.82 836.39 101.78 838.73 C 101.24 838.71 100.16 838.67 99.62 838.65 C 88.92 794.83 91.11 748.26 104.29 705.22 C 112.87 676.44 125.99 648.94 143.55 624.55 C 145.02 622.69 146.06 620.49 145.82 618.08 C 146.77 557.99 151.63 498.06 154.26 438.03 C 155.12 426.90 154.79 415.72 155.48 404.58 C 156.38 390.31 155.67 375.99 156.32 361.72 C 158.27 364.93 158.70 368.74 159.75 372.29 C 171.27 413.12 183.74 453.69 197.06 493.98 C 204.34 514.04 210.67 534.56 220.38 553.64 C 222.60 557.68 224.70 561.86 227.97 565.18 C 239.25 552.06 250.41 538.83 261.94 525.94 C 264.84 522.25 268.24 519.00 270.98 515.19 C 266.51 507.15 262.60 498.81 258.15 490.76 C 256.78 488.32 255.62 485.78 254.62 483.18 C 270.78 483.03 286.92 482.51 303.06 481.97 C 304.09 481.87 304.99 481.46 305.74 480.73 C 326.28 462.76 348.88 447.28 372.20 433.17 C 397.34 418.23 423.79 405.48 451.16 395.16 C 434.66 394.59 418.14 395.01 401.64 394.90 C 404.83 392.23 408.76 390.61 411.91 387.88 C 423.13 378.75 429.94 365.48 435.25 352.30 C 439.53 340.48 443.06 328.28 444.42 315.75 C 449.42 257.66 442.98 197.76 420.31 143.72 C 418.03 137.86 414.72 132.50 412.20 126.76 M 656.35 180.38 C 652.77 183.42 652.39 188.58 652.08 192.96 C 652.12 212.83 651.87 232.71 652.21 252.58 C 662.42 252.54 672.65 252.52 682.83 251.76 C 693.90 250.43 705.70 248.04 714.04 240.06 C 721.77 233.47 724.56 222.76 723.83 212.93 C 723.81 201.73 718.58 190.19 708.77 184.30 C 698.65 178.33 686.51 177.20 675.00 176.97 C 668.73 177.28 661.83 176.76 656.35 180.38 M 466.95 197.56 C 467.63 201.80 468.84 205.94 469.91 210.10 C 474.38 228.40 478.31 246.88 480.36 265.63 C 485.33 300.53 484.96 336.14 479.84 371.00 C 477.76 387.38 473.89 403.45 470.94 419.68 C 444.12 427.90 418.56 440.02 394.70 454.71 C 363.75 472.86 335.09 494.62 307.61 517.62 C 279.21 541.36 252.21 566.79 227.14 594.03 C 292.86 572.05 359.45 552.51 427.04 537.13 C 469.89 527.47 513.14 519.23 556.92 515.16 C 561.18 508.94 563.86 501.54 566.63 494.50 C 567.74 492.36 567.35 489.11 569.73 487.90 C 568.10 506.92 569.76 526.05 571.89 544.96 C 572.96 550.73 573.42 556.68 575.40 562.25 C 578.04 548.89 580.13 535.35 584.38 522.38 C 588.36 508.52 592.16 494.59 596.66 480.90 C 600.13 509.98 597.14 540.25 607.52 568.17 C 608.45 552.77 612.64 537.89 616.03 522.92 C 618.61 508.43 622.54 494.21 627.10 480.23 C 627.50 478.88 628.26 477.68 629.12 476.58 C 629.25 484.05 628.40 491.51 628.50 499.00 C 628.33 510.95 629.32 522.88 630.71 534.74 C 632.62 544.86 634.28 555.56 640.08 564.30 C 642.52 538.09 649.47 512.51 658.46 487.85 C 659.98 506.47 659.99 525.49 665.47 543.53 C 667.32 548.43 669.27 553.74 673.49 557.13 C 672.77 540.43 674.54 523.55 679.49 507.57 C 686.18 506.45 693.19 507.15 700.00 506.94 C 740.30 507.75 780.52 512.02 820.06 519.84 C 800.59 505.89 785.80 486.79 770.34 468.77 C 771.45 467.35 772.67 466.02 773.94 464.75 C 793.38 485.20 819.54 497.58 845.67 507.18 C 864.48 514.47 884.01 519.68 903.65 524.23 C 931.81 530.88 960.59 534.40 989.37 537.14 C 986.08 546.35 981.32 554.95 977.84 564.09 C 986.50 557.80 995.17 551.38 1002.51 543.53 C 1004.06 542.32 1005.38 539.91 1007.65 540.38 C 1013.09 540.99 1018.56 541.33 1024.02 541.95 C 1003.44 528.16 982.19 515.34 960.25 503.85 C 937.67 492.07 913.90 482.84 890.13 473.79 C 871.41 466.71 852.72 459.54 833.79 453.03 C 759.24 426.55 681.83 405.86 602.53 401.45 C 588.83 366.11 573.79 331.16 554.78 298.30 C 532.01 259.78 503.29 224.06 466.95 197.56 M 745.85 569.16 C 751.60 572.09 757.55 574.79 763.89 576.17 C 766.62 576.77 769.34 577.49 771.90 578.68 C 769.26 583.84 764.92 587.68 760.91 591.72 C 766.96 591.27 773.06 591.21 779.05 590.14 C 788.27 589.09 797.05 585.95 805.78 582.98 C 801.46 591.48 793.54 597.39 785.90 602.76 C 807.42 605.96 829.54 602.79 849.87 595.30 C 849.15 605.41 841.58 612.69 834.91 619.48 C 847.37 620.70 859.93 618.66 872.08 615.94 C 880.07 614.23 887.56 610.91 895.27 608.30 C 893.48 616.04 886.13 620.22 881.67 626.22 C 889.53 624.94 896.98 622.04 904.39 619.25 C 915.94 614.73 926.40 607.88 936.14 600.29 C 922.38 599.16 908.61 598.27 894.85 597.16 C 876.59 595.84 858.56 592.38 840.33 590.74 C 833.07 590.07 825.95 588.04 819.40 584.86 C 826.14 578.87 835.01 575.70 841.21 568.99 C 809.43 568.98 777.64 568.94 745.85 569.16 Z" />
<path fill="#393294" opacity="1.00" d=" M 106.37 164.35 C 127.11 158.73 148.87 159.61 170.07 161.57 C 179.33 162.42 188.54 163.85 197.73 165.26 C 197.61 172.50 197.92 179.74 197.58 186.98 C 180.64 180.76 163.06 175.76 144.97 174.58 C 134.34 173.71 122.62 174.09 113.71 180.68 C 101.94 188.80 100.37 207.62 110.13 217.92 C 121.07 229.82 136.79 235.26 151.18 241.72 C 167.54 249.09 184.70 255.71 198.50 267.51 C 206.42 274.17 212.20 283.42 214.28 293.59 C 216.91 308.78 212.39 325.34 201.35 336.32 C 188.64 348.48 171.01 353.48 154.02 355.93 C 135.33 358.31 116.29 358.05 97.66 355.25 C 88.05 354.19 78.64 351.92 69.11 350.44 C 68.39 342.50 68.97 334.52 68.71 326.56 C 90.17 336.20 113.16 343.94 136.97 343.56 C 147.13 343.26 157.68 341.16 165.99 334.97 C 175.48 327.65 179.07 314.01 175.27 302.80 C 171.92 293.87 164.12 287.59 156.18 282.82 C 133.28 269.33 106.62 262.86 85.23 246.68 C 78.23 241.34 71.90 234.65 68.65 226.32 C 63.30 212.99 64.75 196.88 72.97 185.01 C 80.96 174.14 93.64 167.87 106.37 164.35 Z" />
<path fill="#393294" opacity="1.00" d=" M 1012.86 165.85 C 1029.54 160.04 1047.48 159.02 1064.99 159.92 C 1080.12 159.91 1095.03 162.79 1110.02 164.41 C 1110.26 171.68 1110.17 178.96 1110.16 186.24 C 1093.62 180.41 1076.64 175.24 1059.04 174.10 C 1048.32 173.14 1036.64 173.18 1027.29 179.27 C 1015.08 186.70 1012.51 205.45 1021.82 216.16 C 1029.35 224.82 1039.85 230.17 1050.15 234.82 C 1061.92 240.06 1073.81 245.05 1085.52 250.40 C 1097.27 256.37 1109.20 262.95 1117.81 273.18 C 1132.70 291.18 1130.42 320.54 1113.24 336.27 C 1102.42 346.63 1087.69 351.56 1073.27 354.35 C 1042.73 359.92 1011.46 356.10 981.36 349.80 C 981.28 341.90 981.22 334.00 981.29 326.10 C 1001.96 335.45 1024.06 343.00 1047.00 342.98 C 1057.74 343.07 1068.97 341.07 1077.96 334.89 C 1087.97 327.61 1091.64 313.62 1087.93 302.05 C 1085.10 293.99 1078.37 288.14 1071.42 283.59 C 1048.82 269.45 1022.17 263.07 1000.26 247.72 C 991.44 241.55 983.45 233.38 980.16 222.89 C 976.05 210.40 977.64 195.95 985.03 184.98 C 991.83 175.71 1001.98 169.29 1012.86 165.85 Z" />
<path fill="#393294" opacity="1.00" d=" M 211.92 162.95 C 236.05 162.99 260.18 162.98 284.30 163.16 C 284.63 191.43 284.50 219.70 284.42 247.97 C 302.59 248.60 320.80 248.09 338.99 248.28 C 351.62 248.22 364.25 248.39 376.88 248.13 C 376.84 230.43 376.94 212.73 376.79 195.04 C 376.34 187.62 375.41 178.85 368.81 174.20 C 361.09 168.83 351.33 168.55 342.42 166.81 C 342.41 165.61 342.39 164.41 342.38 163.21 C 349.91 162.70 357.46 163.32 365.00 163.10 C 381.65 163.29 398.30 163.00 414.95 163.21 C 415.23 226.96 415.15 290.72 415.37 354.47 C 402.59 354.48 389.81 354.76 377.04 354.44 C 376.82 323.72 377.10 293.00 376.82 262.29 C 346.04 262.35 315.27 262.23 284.49 262.35 C 284.50 293.02 284.66 323.68 284.83 354.34 C 272.08 354.72 259.30 354.40 246.54 354.52 C 246.31 302.68 246.31 250.85 246.29 199.01 C 246.10 191.45 246.10 183.02 241.29 176.74 C 233.80 168.88 222.18 168.28 212.07 167.01 C 212.01 165.66 211.96 164.31 211.92 162.95 Z" />
<path fill="#393294" opacity="1.00" d=" M 770.62 162.79 C 794.72 162.98 818.81 162.74 842.90 162.66 C 843.12 193.15 842.93 223.66 843.11 254.15 C 865.28 231.27 886.45 207.46 908.20 184.18 C 914.10 177.77 920.13 171.47 925.89 164.93 C 926.76 164.12 927.55 162.76 928.96 162.97 C 937.10 162.86 945.25 163.01 953.40 162.88 C 945.59 172.82 936.16 181.38 927.86 190.93 C 916.63 203.33 905.02 215.39 893.86 227.85 C 887.99 234.15 881.86 240.23 876.39 246.88 C 906.77 282.75 937.77 318.09 968.07 354.03 C 954.36 354.33 940.64 354.06 926.94 354.18 C 925.51 354.07 923.77 354.46 922.80 353.16 C 896.16 321.74 870.04 289.85 843.14 258.66 C 842.95 290.51 843.13 322.36 843.17 354.21 C 830.48 354.16 817.80 354.21 805.11 354.19 C 804.70 303.18 805.06 252.17 804.71 201.16 C 804.48 192.83 804.82 183.52 799.39 176.60 C 792.08 168.96 780.78 168.05 770.87 166.90 C 770.80 165.53 770.72 164.16 770.62 162.79 Z" />
</g>
</svg>
