<?xml version="1.0" encoding="UTF-8" standalone="no"?>
<!-- Created with Inkscape (http://www.inkscape.org/) -->
<svg xmlns:dc="http://purl.org/dc/elements/1.1/" xmlns:cc="http://creativecommons.org/ns#" xmlns:rdf="http://www.w3.org/1999/02/22-rdf-syntax-ns#" xmlns:svg="http://www.w3.org/2000/svg" xmlns="http://www.w3.org/2000/svg" xmlns:sodipodi="http://sodipodi.sourceforge.net/DTD/sodipodi-0.dtd" xmlns:inkscape="http://www.inkscape.org/namespaces/inkscape" width="105" height="85" viewBox="0 0 105 85" id="svg2985" version="1.1" inkscape:version="0.48.5 r10040" sodipodi:docname="Saracens_FC_logo(white).svg">
  <defs id="defs2987">
    <clipPath clipPathUnits="userSpaceOnUse" id="clipPath5012">
      <path d="m 58.291,462.701 -0.681,-0.054 c 0.003,-0.002 0.005,-0.004 0.008,-0.006 l 0,0 c 0.014,-0.006 0.023,-0.012 0.023,-0.012 l 0,0 c 0,0 0.613,-0.134 1.179,-1.006 l 0,0 c 0,0 0.67,-1.169 1.809,-1.226 l 0,0 c 0,0 -0.851,-0.101 -1.728,0.557 l 0,0 c -1.652,-0.757 -5.419,-3.538 -3.311,-8.539 l 0,0 c 0.02,10e-4 0.017,0 0.04,0.003 l 0,0 c -0.172,1.203 0.09,1.949 0.09,1.949 l 0,0 c 0.108,-0.47 0.305,-0.889 0.435,-1.038 l 0,0 c -1.157,5.297 3.029,6.775 3.029,6.775 l 0,0 c -3.303,-3.204 -1.027,-8.592 -1.027,-8.592 l 0,0 c 0,0 0.013,-0.003 0.025,0.003 l 0,0 c -0.069,0.748 0.038,1.217 0.038,1.217 l 0,0 0.023,-0.004 c 0.717,-2.676 3.664,-4.524 3.664,-4.524 l 0,0 c 0,0 0.015,0.014 0.027,0.024 l 0,0 c -3.313,5.044 -0.892,9.546 2.585,8.724 l 0,0 c -0.002,-0.026 -0.002,-0.007 -0.002,-0.047 l 0,0 c -3.943,-0.587 -5.156,-9.364 1.561,-10.558 l 0,0 c -2.417,-0.329 -4.539,1.2 -6.496,2.73 l 0,0 c -1.953,1.525 -3.743,3.051 -5.498,2.732 l 0,0 c 3.15,-0.391 6.535,-5.768 10.931,-6.101 l 0,0 c 2.304,-0.177 2.282,0.917 1.829,1.093 l 0,0 c -0.061,0.024 -0.114,0.036 -0.157,0.043 l 0,0 c 0.006,0.022 0.01,0.057 0.013,0.109 l 0,0 c 0.024,0.412 0.041,0.384 -0.067,1.414 l 0,0 -0.018,-0.001 c 0,0 -0.363,-0.41 -0.773,-0.823 l 0,0 c -0.044,0.537 -0.039,0.568 -0.056,1.25 l 0,0 c -0.011,0.002 -0.241,-0.385 -0.834,-0.625 l 0,0 c 0.019,0.285 0.118,0.939 0.039,1.018 l 0,0 c -0.016,0.003 -0.351,-0.27 -0.776,-0.328 l 0,0 c 0.364,-0.689 0.905,-1.377 1.687,-1.883 l 0,0 c -3.742,2.137 -3.24,7.009 -1.191,7.258 l 0,0 c 1.884,0.227 1.67,-2.348 4.3,-3.437 l 0,0 c -1.172,0.481 -1.551,0.78 -2.204,1.448 l 0,0 c -0.077,-0.387 -0.212,-0.697 -0.388,-0.952 l 0,0 c 0.683,0.207 0.812,0.28 0.822,0.278 l 0,0 c -0.008,-0.585 -0.369,-1.29 -0.369,-1.29 l 0,0 c 1.061,0.285 1.36,0.655 1.367,0.655 l 0,0 c -0.23,-0.587 -0.315,-0.778 -0.315,-0.778 l 0,0 c 0,0 -0.252,-0.523 -0.248,-0.534 l 0,0 c 0.937,0.095 1.584,0.642 1.815,0.99 l 0,0 c 0.679,-0.131 1.197,0.266 1.271,0.704 l 0,0 c 0.112,1.199 -1.108,1.981 -0.416,2.172 l 0,0 c 0.238,0.067 0.258,-0.489 0.862,-0.695 l 0,0 c 0.219,-0.073 0.593,0.088 0.471,0.446 l 0,0 c -0.311,0.969 -1.547,1.573 -2.771,2.708 l 0,0 c -0.431,0.401 -0.877,2.604 -3.532,4.145 l 0,0 c -1.016,0.588 -2.299,1.122 -3.907,1.243 l 0,0 c -0.418,0.58 -1.317,1.365 -3.165,1.365 l 0,0 c -0.005,0 -0.008,0 -0.013,0 m 6.345,-3.263 -0.008,-0.051 c -5.643,0.4 -5.57,-6.691 -4.595,-8.754 l 0,0 -0.023,-0.02 c -3.408,4.778 -0.818,10.951 4.626,8.825 m -1.578,-1.218 c -0.009,0.029 -0.003,0.013 -0.012,0.046 l 0,0 c 3.516,1.225 4.635,-2.053 5.198,-2.497 l 0,0 c -0.011,-0.015 -0.001,-0.002 -0.018,-0.02 l 0,0 c -0.227,-0.112 -0.72,-0.061 -1.006,0.155 l 0,0 c -0.04,-0.128 -0.13,-0.328 -0.292,-0.419 l 0,0 c -0.095,-0.161 0.028,-0.503 0.028,-0.503 l 0,0 c 0,0 0,-0.007 -0.004,-0.023 l 0,0 c -0.619,0 -0.869,0.925 -1.534,1.052 l 0,0 c 0.007,0.064 0.006,0.048 0.008,0.097 l 0,0 c 0.165,-0.01 0.31,0.084 0.495,0.177 l 0,0 c 0.181,0.09 0.4,0.181 0.717,0.178 l 0,0 0.129,-0.59 c 0,0 0.23,0.051 0.185,0.223 l 0,0 -0.302,0.367 -0.017,0.02 0.001,-0.003 c -0.654,0.715 -1.557,1.677 -3.576,1.74 m 1.187,-2.67 c 0.02,-0.029 0.01,-0.013 0.028,-0.041 l 0,0 c -2.525,-2.144 -1.632,-5.981 -1.151,-6.769 l 0,0 c -0.013,-0.013 -0.011,-0.011 -0.022,-0.023 l 0,0 c -1.118,0.704 -2.489,5.789 1.145,6.833 m 3.019,-1.26 c 0.005,0.009 0.004,0.007 0.007,0.02 l 0,0 c 1.398,-0.502 1.541,-2.313 3.208,-2.924 l 0,0 c -0.044,-0.004 -0.087,-0.006 -0.131,-0.006 l 0,0 c -1.561,0 -2.776,2.716 -3.084,2.91 m -0.81,-0.2 c 1.203,-0.371 2.097,-2.749 3.722,-2.895 l 0,0 c -0.125,-0.039 -0.252,-0.057 -0.378,-0.057 l 0,0 c -1.573,0 -3.127,2.79 -3.344,2.952" id="path5014" inkscape:connector-curvature="0"/>
    </clipPath>
    <clipPath clipPathUnits="userSpaceOnUse" id="clipPath5022">
      <path d="m -1.13605,-0.534027 1.293292,0 0,1.212326 -1.293292,0 0,-1.212326 z" id="path5024" inkscape:connector-curvature="0"/>
    </clipPath>
    <radialGradient fx="0" fy="0" cx="0" cy="0" r="1" gradientUnits="userSpaceOnUse" gradientTransform="matrix(14.164963,0,0,-14.164948,69.573486,455.13977)" spreadMethod="pad" id="radialGradient5026">
      <stop style="stop-opacity:1;stop-color:#ffffff" offset="0" id="stop5028"/>
      <stop style="stop-opacity:1;stop-color:#91b7b1" offset="1" id="stop5030"/>
    </radialGradient>
    <clipPath clipPathUnits="userSpaceOnUse" id="clipPath5138">
      <path d="m 209.572,410.85 c -0.512,-0.461 -1,-0.947 -1.461,-1.457 l 0,0 0,-25.542 29.722,0 0,25.542 c -0.462,0.51 -0.949,0.996 -1.461,1.457 l 0,0 -26.8,0 z" id="path5140" inkscape:connector-curvature="0"/>
    </clipPath>
  </defs>
  <sodipodi:namedview id="base" pagecolor="#505050" bordercolor="#000000" borderopacity="1" inkscape:pageopacity="1" inkscape:pageshadow="2" inkscape:zoom="7.919596" inkscape:cx="44.308601" inkscape:cy="44.138663" inkscape:document-units="px" inkscape:current-layer="layer1" showgrid="false" inkscape:window-width="1280" inkscape:window-height="985" inkscape:window-x="0" inkscape:window-y="0" inkscape:window-maximized="1" fit-margin-top="0" fit-margin-left="0" fit-margin-right="0.7" fit-margin-bottom="0" inkscape:showpageshadow="false"/>
  <metadata id="metadata2990">
    <rdf:RDF>
      <cc:Work rdf:about="">
        <dc:format>image/svg+xml</dc:format>
        <dc:type rdf:resource="http://purl.org/dc/dcmitype/StillImage"/>
        <dc:title/>
      </cc:Work>
    </rdf:RDF>
  </metadata>
  <g inkscape:label="Layer 1" inkscape:groupmode="layer" id="layer1" transform="translate(-6.3402261,-965.11576)">
    <g id="g5008" transform="matrix(3.3353759,0,0,-3.3353759,-691.71626,2333.2889)">
      <g id="g5010" clip-path="url(#clipPath5012)">
        <g id="g5016">
          <g id="g5018">
            <g id="g5020" clip-path="url(#clipPath5022)">
              <path d="m 58.291,462.701 -0.681,-0.054 c 0.003,-0.002 0.005,-0.004 0.008,-0.006 l 0,0 c 0.014,-0.006 0.023,-0.012 0.023,-0.012 l 0,0 c 0,0 0.613,-0.134 1.179,-1.006 l 0,0 c 0,0 0.67,-1.169 1.809,-1.226 l 0,0 c 0,0 -0.851,-0.101 -1.728,0.557 l 0,0 c -1.652,-0.757 -5.419,-3.538 -3.311,-8.539 l 0,0 c 0.02,10e-4 0.017,0 0.04,0.003 l 0,0 c -0.172,1.203 0.09,1.949 0.09,1.949 l 0,0 c 0.108,-0.47 0.305,-0.889 0.435,-1.038 l 0,0 c -1.157,5.297 3.029,6.775 3.029,6.775 l 0,0 c -3.303,-3.204 -1.027,-8.592 -1.027,-8.592 l 0,0 c 0,0 0.013,-0.003 0.025,0.003 l 0,0 c -0.069,0.748 0.038,1.217 0.038,1.217 l 0,0 0.023,-0.004 c 0.717,-2.676 3.664,-4.524 3.664,-4.524 l 0,0 c 0,0 0.015,0.014 0.027,0.024 l 0,0 c -3.313,5.044 -0.892,9.546 2.585,8.724 l 0,0 c -0.002,-0.026 -0.002,-0.007 -0.002,-0.047 l 0,0 c -3.943,-0.587 -5.156,-9.364 1.561,-10.558 l 0,0 c -2.417,-0.329 -4.539,1.2 -6.496,2.73 l 0,0 c -1.953,1.525 -3.743,3.051 -5.498,2.732 l 0,0 c 3.15,-0.391 6.535,-5.768 10.931,-6.101 l 0,0 c 2.304,-0.177 2.282,0.917 1.829,1.093 l 0,0 c -0.061,0.024 -0.114,0.036 -0.157,0.043 l 0,0 c 0.006,0.022 0.01,0.057 0.013,0.109 l 0,0 c 0.024,0.412 0.041,0.384 -0.067,1.414 l 0,0 -0.018,-0.001 c 0,0 -0.363,-0.41 -0.773,-0.823 l 0,0 c -0.044,0.537 -0.039,0.568 -0.056,1.25 l 0,0 c -0.011,0.002 -0.241,-0.385 -0.834,-0.625 l 0,0 c 0.019,0.285 0.118,0.939 0.039,1.018 l 0,0 c -0.016,0.003 -0.351,-0.27 -0.776,-0.328 l 0,0 c 0.364,-0.689 0.905,-1.377 1.687,-1.883 l 0,0 c -3.742,2.137 -3.24,7.009 -1.191,7.258 l 0,0 c 1.884,0.227 1.67,-2.348 4.3,-3.437 l 0,0 c -1.172,0.481 -1.551,0.78 -2.204,1.448 l 0,0 c -0.077,-0.387 -0.212,-0.697 -0.388,-0.952 l 0,0 c 0.683,0.207 0.812,0.28 0.822,0.278 l 0,0 c -0.008,-0.585 -0.369,-1.29 -0.369,-1.29 l 0,0 c 1.061,0.285 1.36,0.655 1.367,0.655 l 0,0 c -0.23,-0.587 -0.315,-0.778 -0.315,-0.778 l 0,0 c 0,0 -0.252,-0.523 -0.248,-0.534 l 0,0 c 0.937,0.095 1.584,0.642 1.815,0.99 l 0,0 c 0.679,-0.131 1.197,0.266 1.271,0.704 l 0,0 c 0.112,1.199 -1.108,1.981 -0.416,2.172 l 0,0 c 0.238,0.067 0.258,-0.489 0.862,-0.695 l 0,0 c 0.219,-0.073 0.593,0.088 0.471,0.446 l 0,0 c -0.311,0.969 -1.547,1.573 -2.771,2.708 l 0,0 c -0.431,0.401 -0.877,2.604 -3.532,4.145 l 0,0 c -1.016,0.588 -2.299,1.122 -3.907,1.243 l 0,0 c -0.418,0.58 -1.317,1.365 -3.165,1.365 l 0,0 c -0.005,0 -0.008,0 -0.013,0 m 6.345,-3.263 -0.008,-0.051 c -5.643,0.4 -5.57,-6.691 -4.595,-8.754 l 0,0 -0.023,-0.02 c -3.408,4.778 -0.818,10.951 4.626,8.825 m -1.578,-1.218 c -0.009,0.029 -0.003,0.013 -0.012,0.046 l 0,0 c 3.516,1.225 4.635,-2.053 5.198,-2.497 l 0,0 c -0.011,-0.015 -0.001,-0.002 -0.018,-0.02 l 0,0 c -0.227,-0.112 -0.72,-0.061 -1.006,0.155 l 0,0 c -0.04,-0.128 -0.13,-0.328 -0.292,-0.419 l 0,0 c -0.095,-0.161 0.028,-0.503 0.028,-0.503 l 0,0 c 0,0 0,-0.007 -0.004,-0.023 l 0,0 c -0.619,0 -0.869,0.925 -1.534,1.052 l 0,0 c 0.007,0.064 0.006,0.048 0.008,0.097 l 0,0 c 0.165,-0.01 0.31,0.084 0.495,0.177 l 0,0 c 0.181,0.09 0.4,0.181 0.717,0.178 l 0,0 0.129,-0.59 c 0,0 0.23,0.051 0.185,0.223 l 0,0 -0.302,0.367 -0.017,0.02 0.001,-0.003 c -0.654,0.715 -1.557,1.677 -3.576,1.74 m 1.187,-2.67 c 0.02,-0.029 0.01,-0.013 0.028,-0.041 l 0,0 c -2.525,-2.144 -1.632,-5.981 -1.151,-6.769 l 0,0 c -0.013,-0.013 -0.011,-0.011 -0.022,-0.023 l 0,0 c -1.118,0.704 -2.489,5.789 1.145,6.833 m 3.019,-1.26 c 0.005,0.009 0.004,0.007 0.007,0.02 l 0,0 c 1.398,-0.502 1.541,-2.313 3.208,-2.924 l 0,0 c -0.044,-0.004 -0.087,-0.006 -0.131,-0.006 l 0,0 c -1.561,0 -2.776,2.716 -3.084,2.91 m -0.81,-0.2 c 1.203,-0.371 2.097,-2.749 3.722,-2.895 l 0,0 c -0.125,-0.039 -0.252,-0.057 -0.378,-0.057 l 0,0 c -1.573,0 -3.127,2.79 -3.344,2.952" style="fill:url(#radialGradient5026);stroke:none" id="path5032" inkscape:connector-curvature="0"/>
            </g>
          </g>
        </g>
      </g>
    </g>
    <g id="g5142" transform="matrix(3.3353759,0,0,-3.3353759,19.591341,1034.3411)" style="fill:#ffffff;stroke:none">
      <path d="m 0,0 c -0.614,0.281 -1.194,0.546 -1.194,1.061 0,0.549 0.557,0.743 1.034,0.743 0.415,0 0.851,-0.162 1.148,-0.418 l 0,0.713 C 0.646,2.202 0.281,2.255 -0.099,2.255 -0.767,2.255 -1.334,2.071 -1.654,1.751 -1.86,1.544 -1.965,1.284 -1.965,0.977 c 0,-0.839 0.729,-1.165 1.433,-1.48 0.613,-0.274 1.192,-0.533 1.192,-1.114 0,-0.184 -0.071,-0.349 -0.212,-0.489 -0.244,-0.245 -0.643,-0.354 -0.929,-0.354 -0.553,0 -1.137,0.207 -1.591,0.557 l 0.183,-0.79 c 0.401,-0.144 0.846,-0.218 1.324,-0.218 1.233,0 1.996,0.794 1.996,1.53 C 1.431,-0.654 0.703,-0.322 0,0" style="fill:#ffffff;fill-opacity:1;fill-rule:nonzero;stroke:none" id="path5144" inkscape:connector-curvature="0"/>
    </g>
    <g id="g5158" transform="matrix(3.3353759,0,0,-3.3353759,66.023776,972.4492)">
      <path d="m 0,0 c -1.327,-0.456 -2.461,-0.917 -3.805,-1.764 -2.79,-1.65 -4.815,-3.858 -4.902,-5.828 -0.287,-1.908 1.721,-3.61 4.274,-3.646 -3.221,-0.754 -5.736,0.382 -6.758,1.98 -0.666,1.269 -0.222,3.145 1.442,4.882 1.853,2.049 5.261,3.763 8.14,4.23 C -1.044,-0.06 -0.485,0.01 0,0" style="fill:#ef3e33;fill-opacity:1;fill-rule:nonzero;stroke:none" id="path5160" inkscape:connector-curvature="0"/>
    </g>
    <g id="g5166" transform="matrix(3.3353759,0,0,-3.3353759,70.956797,975.84694)">
      <path d="m 0,0 c -0.01,-0.88 0.161,-1.685 0.298,-2.511 l 4.077,0.482 C 3.13,-2.767 1.648,-3.412 0.387,-4.187 0.382,-5.12 0.548,-5.995 0.568,-6.924 c -1.04,0.377 -1.908,0.935 -2.915,1.335 -1.474,-0.626 -2.922,-1.496 -4.359,-2.153 0.707,1.004 1.721,2.029 2.461,3.055 C -5,-4.22 -5.88,-3.875 -6.67,-3.43 c 1.263,0.23 2.579,0.344 3.898,0.529 l 0.237,0.153 2.438,2.876 L 0,0 z" style="fill:#ef3e33;fill-opacity:1;fill-rule:nonzero;stroke:none" id="path5168" inkscape:connector-curvature="0"/>
    </g>
    <g id="g5174" transform="matrix(3.3353759,0,0,-3.3353759,30.969976,1032.8735)" style="fill:#ffffff;stroke:none">
      <path d="m 0,0 -0.566,-1.442 1.127,0 L 0,0 z m -0.715,-1.865 -0.298,-0.807 c -0.12,-0.32 -0.16,-0.486 0.115,-0.589 l 0,-0.017 -1.053,0 0,0.017 c 0.332,0.166 0.429,0.486 0.555,0.813 l 0.955,2.385 c 0.081,0.206 0.189,0.446 -0.085,0.532 l 0,0.017 0.904,0 1.189,-2.934 c 0.132,-0.327 0.235,-0.647 0.561,-0.813 l 0,-0.017 -1.173,0 0,0.017 c 0.281,0.126 0.235,0.189 0.08,0.589 l -0.308,0.807 -1.442,0 z" style="fill:#ffffff;fill-opacity:1;fill-rule:nonzero;stroke:none" id="path5176" inkscape:connector-curvature="0"/>
    </g>
    <g id="g5182" transform="matrix(3.3353759,0,0,-3.3353759,43.392583,1031.2519)" style="fill:#ffffff;stroke:none">
      <path d="m 0,0 c 0.767,0 1.184,-0.4 1.184,-0.921 0,-0.504 -0.44,-0.898 -0.909,-1.007 l 0.823,-1.035 c 0.241,-0.298 0.601,-0.595 0.927,-0.801 l -0.526,0 c -0.303,0 -0.492,0.074 -0.664,0.286 l -0.698,0.864 -0.526,0.806 c 0.458,0.069 0.99,0.281 0.99,0.818 0,0.412 -0.355,0.652 -0.738,0.635 C -0.269,-0.36 -0.395,-0.378 -0.526,-0.4 l 0,-2.563 c 0,-0.264 -0.035,-0.681 0.257,-0.784 l 0,-0.017 -1.093,0 0,0.017 c 0.292,0.103 0.252,0.526 0.252,0.784 l 0,2.156 c 0,0.264 0.04,0.681 -0.252,0.79 L -1.362,0 0,0 z" style="fill:#ffffff;fill-opacity:1;fill-rule:nonzero;stroke:none" id="path5184" inkscape:connector-curvature="0"/>
    </g>
    <g id="g5190" transform="matrix(3.3353759,0,0,-3.3353759,55.010031,1032.8735)" style="fill:#ffffff;stroke:none">
      <path d="m 0,0 -0.566,-1.442 1.127,0 L 0,0 z m -0.715,-1.865 -0.298,-0.807 c -0.12,-0.32 -0.16,-0.486 0.115,-0.589 l 0,-0.017 -1.053,0 0,0.017 c 0.332,0.166 0.429,0.486 0.555,0.813 l 0.955,2.385 c 0.081,0.206 0.189,0.446 -0.085,0.532 l 0,0.017 0.904,0 1.189,-2.934 c 0.132,-0.327 0.235,-0.647 0.561,-0.813 l 0,-0.017 -1.173,0 0,0.017 c 0.281,0.126 0.235,0.189 0.08,0.589 l -0.308,0.807 -1.442,0 z" style="fill:#ffffff;fill-opacity:1;fill-rule:nonzero;stroke:none" id="path5192" inkscape:connector-curvature="0"/>
    </g>
    <g id="g5198" transform="matrix(3.3353759,0,0,-3.3353759,71.172596,1033.618)" style="fill:#ffffff;stroke:none">
      <path d="m 0,0 c -0.315,0.2 -0.681,0.326 -1.058,0.326 -0.79,0 -1.339,-0.578 -1.339,-1.407 0,-0.841 0.572,-1.591 1.453,-1.591 0.429,0 0.858,0.155 1.219,0.361 l 0.017,0 L 0,-2.975 c -0.269,-0.126 -0.566,-0.171 -0.864,-0.171 -1.35,0 -2.185,0.755 -2.185,1.979 0,1.184 0.835,1.968 2.008,1.968 0.349,0 0.704,-0.063 1.041,-0.143 L 0,0 z" style="fill:#ffffff;fill-opacity:1;fill-rule:nonzero;stroke:none" id="path5200" inkscape:connector-curvature="0"/>
    </g>
    <g id="g5206" transform="matrix(3.3353759,0,0,-3.3353759,75.674019,1042.2042)" style="fill:#ffffff;stroke:none">
      <path d="m 0,0 0.727,-0.069 c 0.377,-0.034 0.772,0.086 1.058,0.338 l 0.017,0 -0.257,-0.75 -2.386,0 0,0.018 c 0.292,0.103 0.258,0.526 0.258,0.783 l 0,2.157 c 0,0.263 0.034,0.681 -0.258,0.79 l 0,0.017 1.831,0 c 0.097,0 0.194,-0.012 0.269,0.028 l 0.017,0 0,-0.669 -0.017,0 C 1.081,2.849 0.847,2.872 0.584,2.872 0.383,2.872 0.183,2.866 0,2.832 l 0,-1.064 0.681,0 c 0.091,0 0.183,0 0.251,0.034 l 0.018,0 0,-0.606 -0.018,0 C 0.841,1.362 0.601,1.356 0.423,1.356 L 0,1.356 0,0 z" style="fill:#ffffff;fill-opacity:1;fill-rule:nonzero;stroke:none" id="path5208" inkscape:connector-curvature="0"/>
    </g>
    <g id="g5214" transform="matrix(3.3353759,0,0,-3.3353759,85.001398,1041.3267)" style="fill:#ffffff;stroke:none">
      <path d="m 0,0 c 0,-0.32 -0.006,-0.549 0.298,-0.727 l 0,-0.017 -1.013,0 0,0.017 c 0.303,0.178 0.303,0.407 0.303,0.727 l 0,2.283 c 0,0.32 0,0.549 -0.297,0.72 l 0,0.018 0.835,0 0,-0.006 C 0.149,2.946 0.172,2.918 0.212,2.872 l 0.08,-0.115 2.094,-2.643 0,2.169 c 0,0.32 0.005,0.549 -0.298,0.72 l 0,0.018 1.007,0 0,-0.018 C 2.798,2.832 2.798,2.603 2.798,2.283 l 0,-3.21 C 2.391,-0.79 2.214,-0.601 1.962,-0.275 L 0,2.214 0,0 z" style="fill:#ffffff;fill-opacity:1;fill-rule:nonzero;stroke:none" id="path5216" inkscape:connector-curvature="0"/>
    </g>
    <g id="g5222" transform="matrix(3.3353759,0,0,-3.3353759,103.89263,1033.5226)" style="fill:#ffffff;stroke:none">
      <path d="m 0,0 c -0.223,0.229 -0.578,0.36 -0.898,0.36 -0.326,0 -0.738,-0.125 -0.738,-0.52 0,-0.784 1.968,-0.772 1.968,-1.831 0,-0.612 -0.641,-1.184 -1.533,-1.184 -0.349,0 -0.698,0.051 -1.024,0.172 l -0.166,0.715 c 0.337,-0.292 0.806,-0.475 1.253,-0.475 0.326,0 0.818,0.194 0.818,0.595 0,0.892 -1.968,0.732 -1.968,1.945 0,0.721 0.738,0.995 1.436,0.995 0.286,0 0.577,-0.04 0.852,-0.126 L 0,0 z" style="fill:#ffffff;fill-opacity:1;fill-rule:nonzero;stroke:none" id="path5224" inkscape:connector-curvature="0"/>
    </g>
    <g id="g5230" transform="matrix(3.3353759,0,0,-3.3353759,28.854681,1028.3651)" style="fill:#ffffff;stroke:none">
      <path d="m 0,0 22.62,0 c 0.067,0 0.12,0.054 0.12,0.12 0,0.067 -0.053,0.121 -0.12,0.121 L 0,0.241 C -0.066,0.241 -0.12,0.187 -0.12,0.12 -0.12,0.054 -0.066,0 0,0" style="fill:#ffffff;fill-opacity:1;fill-rule:nonzero;stroke:none" id="path5232" inkscape:connector-curvature="0"/>
    </g>
    <g id="g5238" transform="matrix(3.3353759,0,0,-3.3353759,13.64103,1047.8694)" style="fill:#ffffff;stroke:none">
      <path d="m 0,0 27.181,0 c 0.067,0 0.121,0.054 0.121,0.12 0,0.067 -0.054,0.121 -0.121,0.121 L 0,0.241 C -0.066,0.241 -0.12,0.187 -0.12,0.12 -0.12,0.054 -0.066,0 0,0" style="fill:#ffffff;fill-opacity:1;fill-rule:nonzero;stroke:none" id="path5240" inkscape:connector-curvature="0"/>
    </g>
    <g id="g5250" transform="matrix(3.3353759,0,0,-3.3353759,66.279266,1013.2899)" style="fill:#ffffff;stroke:none">
      <path d="M 0,0 C 6.546,1.754 10.882,6.799 10.092,9.749 9.302,12.697 3.024,14.9 -3.523,13.146 -10.069,11.392 -14.404,6.345 -13.614,3.397 -12.824,0.447 -6.546,-1.754 0,0" style="fill:#ffffff;fill-opacity:1;fill-rule:nonzero;stroke:none" id="path5252" inkscape:connector-curvature="0"/>
    </g>
    <g id="g5254" transform="matrix(3.3353759,0,0,-3.3353759,66.023776,972.4492)">
      <path d="m 0,0 c -1.327,-0.456 -2.461,-0.917 -3.805,-1.764 -2.79,-1.65 -4.815,-3.858 -4.902,-5.828 -0.287,-1.908 1.721,-3.61 4.274,-3.646 -3.221,-0.754 -5.736,0.382 -6.758,1.98 -0.666,1.269 -0.222,3.145 1.442,4.882 1.853,2.049 5.261,3.763 8.14,4.23 C -1.044,-0.06 -0.485,0.01 0,0" style="fill:#ef3e33;fill-opacity:1;fill-rule:nonzero;stroke:none" id="path5256" inkscape:connector-curvature="0"/>
    </g>
    <g id="g5258" transform="matrix(3.3353759,0,0,-3.3353759,70.956797,975.84694)">
      <path d="m 0,0 c -0.01,-0.88 0.161,-1.685 0.298,-2.511 l 4.077,0.482 C 3.13,-2.767 1.648,-3.412 0.387,-4.187 0.382,-5.12 0.548,-5.995 0.568,-6.924 c -1.04,0.377 -1.908,0.935 -2.915,1.335 -1.474,-0.626 -2.922,-1.496 -4.359,-2.153 0.707,1.004 1.721,2.029 2.461,3.055 C -5,-4.22 -5.88,-3.875 -6.67,-3.43 c 1.263,0.23 2.579,0.344 3.898,0.529 l 0.237,0.153 2.438,2.876 L 0,0 z" style="fill:#ef3e33;fill-opacity:1;fill-rule:nonzero;stroke:none" id="path5260" inkscape:connector-curvature="0"/>
    </g>
  </g>
</svg>