<?xml version="1.0" encoding="UTF-8" standalone="no"?>
<!-- Created with Inkscape (http://www.inkscape.org/) -->

<svg
   xmlns:dc="http://purl.org/dc/elements/1.1/"
   xmlns:cc="http://creativecommons.org/ns#"
   xmlns:rdf="http://www.w3.org/1999/02/22-rdf-syntax-ns#"
   xmlns:svg="http://www.w3.org/2000/svg"
   xmlns="http://www.w3.org/2000/svg"
   xmlns:xlink="http://www.w3.org/1999/xlink"
   xmlns:sodipodi="http://sodipodi.sourceforge.net/DTD/sodipodi-0.dtd"
   xmlns:inkscape="http://www.inkscape.org/namespaces/inkscape"
   width="97"
   height="85"
   viewBox="0 0 97 85"
   id="svg92396"
   version="1.1"
   inkscape:version="0.91 r13725"
   sodipodi:docname="Scunthorpe_United_FC_logo.svg">
  <defs
     id="defs92398" />
  <sodipodi:namedview
     id="base"
     pagecolor="#ffffff"
     bordercolor="#666666"
     borderopacity="1.0"
     inkscape:pageopacity="0.0"
     inkscape:pageshadow="2"
     inkscape:zoom="5.6"
     inkscape:cx="15.264585"
     inkscape:cy="31.454327"
     inkscape:document-units="px"
     inkscape:current-layer="layer1"
     showgrid="false"
     inkscape:window-width="1920"
     inkscape:window-height="1014"
     inkscape:window-x="0"
     inkscape:window-y="27"
     inkscape:window-maximized="1" />
  <metadata
     id="metadata92401">
    <rdf:RDF>
      <cc:Work
         rdf:about="">
        <dc:format>image/svg+xml</dc:format>
        <dc:type
           rdf:resource="http://purl.org/dc/dcmitype/StillImage" />
        <dc:title></dc:title>
      </cc:Work>
    </rdf:RDF>
  </metadata>
  <g
     inkscape:label="Layer 1"
     inkscape:groupmode="layer"
     id="layer1"
     transform="translate(0,-967.36218)">
    <g
       id="g92425"
       transform="matrix(0.20747675,0,0,0.20747675,0.35419026,967.59242)">
      <g
         id="g92405">
        <defs
           id="defs92407">
          <rect
             height="407.465"
             width="463.98801"
             y="0"
             x="0.059999999"
             id="SVGID_1_" />
        </defs>
        <clipPath
           id="SVGID_2_">
          <use
             id="use92411"
             overflow="visible"
             xlink:href="#SVGID_1_"
             style="overflow:visible"
             x="0"
             y="0"
             width="1"
             height="1" />
        </clipPath>
        <path
           id="path92413"
           d="m 306.224,5.364 c -2.98,3.53 -4.033,8.128 -6.033,12.16 -2.279,0.606 -4.725,0.82 -6.732,2.152 -3.117,1.832 -4.973,5.036 -6.576,8.159 -5.848,-3.012 -12.295,-5.945 -19.028,-5.187 -7.067,1.673 -11.745,7.793 -15.96,13.251 -4.494,-2.27 -9.229,-4.9 -14.432,-4.526 -4.422,0.534 -7.769,3.802 -10.829,6.741 -10.805,9.905 -21.738,19.715 -31.643,30.528 -2.399,2.885 -5.57,5.729 -5.617,9.778 -0.375,6.127 0.94,12.191 1.839,18.224 -27.092,8.518 -54.185,17.052 -81.286,25.539 -3.252,0.98 -6.024,3.02 -8.933,4.693 C 67.335,146.831 33.651,166.768 0,186.736 c 2.024,3.307 5.092,6.207 9.084,6.765 7.586,1.124 15.212,-0.98 22.822,-0.366 3.051,0.295 5.65,2.159 7.913,4.095 5.49,4.965 9.769,11.084 13.809,17.245 6.925,10.772 12.798,22.2 17.89,33.946 2.223,5.361 4.438,10.788 5.673,16.478 1.291,5.506 -1.379,10.941 -4.439,15.364 -4.741,7.076 -11.817,12.12 -16.909,18.885 -2.542,5.012 -0.502,10.87 0.829,15.961 42.958,-22.025 85.821,-44.265 128.732,-66.362 1.952,-0.885 4.733,-1.243 6.151,0.741 2.072,2.854 0.781,6.661 -0.653,9.506 -3.299,6.208 -8.16,11.437 -13.172,16.306 -1.538,1.713 -3.912,1.999 -6,2.612 -12.502,3.299 -24.663,8.925 -33.906,18.152 l 0.007,-0.002 -0.007,0.003 -15.51,90.929 0.001,0 c -0.13,0.727 -0.161,1.476 -0.07,2.24 0.152,4.415 3.124,8.24 6.909,10.304 6.295,3.555 13.562,4.86 20.631,5.952 18.375,2.303 37.165,3.116 55.484,-0.055 15.547,-2.749 30.361,-8.678 44.226,-16.121 7.084,-3.61 13.188,-8.805 19.045,-14.112 12.717,4.064 25.395,8.264 37.986,12.702 8.271,2.932 16.391,6.287 24.82,8.734 13.984,4.15 28.648,7.114 43.293,5.729 12.957,-1.634 24.496,-8.886 34.258,-17.18 l -0.006,0.002 0.006,-0.003 1.834,-108.969 0.002,-0.112 c 0.02,-1.28 -0.117,-2.549 -0.57,-3.755 -1.098,-2.757 -4.189,-3.928 -6.924,-4.24 -4.924,-0.701 -9.555,1.65 -13.506,4.32 -9.363,-13.292 -18.734,-26.591 -28.807,-39.366 -2.725,-3.258 -5.34,-6.709 -6.78,-10.749 -4.05,-10.765 -3.22,-22.662 -0.767,-33.69 0.846,-4.559 3.563,-8.407 5.938,-12.264 13.043,-20.248 27.547,-39.5 40.75,-59.636 2.072,-3.324 4.424,-6.638 5.195,-10.551 1.363,-6.686 0.59,-13.546 0.59,-20.304 1.563,-1.921 3.992,-2.933 5.969,-4.391 17.387,-11.681 34.959,-23.108 52.227,-34.966 -4.344,-1.107 -8.86,-1.593 -13.086,-3.067 -3.529,-5.028 -6.469,-10.471 -9.848,-15.619 -0.686,-1.347 -2.088,-2.661 -1.609,-4.311 0.717,-3.793 1.602,-7.546 2.174,-11.363 -17.666,6.957 -35.221,14.2 -52.822,21.308 -1.434,-0.654 -2.878,-1.299 -4.383,-1.753 C 373.341,28.441 362.313,24.823 351.357,20.998 340.392,16.273 330.718,9.03 321.554,1.483 316.519,-1.784 309.505,0.718 306.222,5.364 l 0.002,0"
           clip-path="url(#SVGID_2_)"
           inkscape:connector-curvature="0"
           style="clip-rule:evenodd;fill:#ffffff;fill-rule:evenodd" />
        <path
           id="path92415"
           d="m 324.644,377.256 3.277,1.037 0,-11.667 8.07,2.479 0,-3.518 -8.07,-2.478 0,-6.153 8.07,2.398 0,-3.438 -11.348,-3.437 0,24.777 m 62.311,-15.265 0.24,-3.677 c -1.438,-0.479 -2.797,-0.718 -4.156,-0.718 -1.357,0 -2.797,0.16 -4.234,0.638 -1.758,0.56 -3.357,1.36 -4.795,2.399 -1.439,1.038 -2.637,2.236 -3.676,3.676 -1.039,1.357 -1.758,2.877 -2.318,4.474 -0.479,1.52 -0.719,3.117 -0.719,4.795 0,1.6 0.24,3.037 0.719,4.396 0.561,1.438 1.279,2.557 2.318,3.516 1.039,0.959 2.236,1.758 3.676,2.157 1.438,0.479 3.037,0.544 4.875,0.4 1.438,-0.08 2.877,-0.48 4.234,-0.959 1.279,-0.56 2.559,-1.278 3.756,-2.237 l 0,-3.916 c -2.557,1.837 -5.113,2.957 -8.312,3.436 -2.396,0.319 -4.313,-0.238 -5.753,-1.678 -1.438,-1.438 -2.078,-3.356 -2.078,-5.834 0,-2.557 0.641,-4.795 2.158,-6.793 1.517,-1.998 3.516,-3.436 6.074,-4.235 2.798,-0.72 5.274,-0.72 7.991,0.16 z m -114.334,-0.638 4.795,1.198 1.039,0.239 c 2.557,0.641 4.314,0.879 5.514,0.879 1.119,-0.079 2.158,-0.398 3.037,-0.959 1.197,-0.799 2.078,-1.918 2.717,-3.437 0.639,-1.438 0.959,-3.196 0.959,-5.354 0,-2.077 -0.32,-4.075 -0.959,-5.913 -0.639,-1.759 -1.52,-3.438 -2.717,-4.875 -0.879,-1.119 -1.918,-1.998 -3.117,-2.718 -1.2,-0.72 -3.355,-1.599 -6.473,-2.637 l -4.795,-1.438 0,25.015 z m 3.596,-2.717 0,-17.581 1.279,0.398 1.277,0.4 c 1.84,0.559 3.117,1.039 3.996,1.518 0.799,0.56 1.52,1.198 2.078,1.918 0.8,1.038 1.359,2.157 1.757,3.437 0.401,1.278 0.642,2.717 0.642,4.235 0,1.518 -0.24,2.798 -0.642,3.837 -0.397,1.037 -0.957,1.918 -1.757,2.476 -0.559,0.401 -1.279,0.64 -2.078,0.64 -0.799,0.08 -1.997,-0.16 -3.596,-0.559 l -2.956,-0.719 z m -47.869,-29.011 5.435,0.881 0,-3.438 -14.385,-2.477 0,3.516 5.594,0.959 0,21.257 3.356,0.48 0,-21.178 z m 17.341,25.175 12.945,2.797 0,-3.597 -9.189,-1.998 0,-8.071 9.189,1.918 0,-3.597 -9.189,-1.838 0,-6.152 9.189,1.758 0,-3.518 -12.945,-2.397 0,24.695 z m -43.393,-6.714 3.037,0 0,-24.692 -3.037,0 0,24.692 z m -62.333,-11.107 0,15.423 c 0,3.357 0.719,5.594 2.078,6.872 1.358,1.2 3.356,1.36 6.233,0.479 2.798,-0.879 4.955,-2.397 6.394,-4.555 1.438,-2.157 2.157,-5.034 2.157,-8.391 l 0,-15.743 -3.437,1.199 0,15.263 c 0,2.318 -0.399,4.156 -1.278,5.515 -0.879,1.438 -2.157,2.478 -3.836,2.956 -1.678,0.561 -2.957,0.399 -3.835,-0.479 -0.8,-0.799 -1.279,-2.398 -1.279,-4.635 l 0,-15.024 -3.197,1.12 z m 27.331,14.383 3.596,-0.398 0,-17.183 c 0.319,0.48 0.719,0.959 1.119,1.279 0.32,0.479 0.719,0.878 1.199,1.198 l 15.502,13.346 0,-25.893 -3.595,0.479 0,17.262 c -0.48,-0.559 -0.959,-1.039 -1.359,-1.518 -0.399,-0.4 -0.879,-0.799 -1.278,-1.2 l -15.184,-12.946 0,25.574 z m 221.522,-4.633 13.663,-3.277 0,-5.595 -7.75,1.838 0,-4.075 7.272,-1.758 0,-5.354 -7.272,1.838 0,-4.316 7.75,-1.918 0,-5.433 -13.663,3.354 0,24.696 z m -22.216,1.437 0,-8.15 2.318,0 c 2.078,0 3.596,-0.161 4.555,-0.4 0.959,-0.24 1.757,-0.639 2.479,-1.119 0.957,-0.719 1.598,-1.599 2.076,-2.717 0.48,-1.119 0.719,-2.396 0.719,-3.916 0,-1.357 -0.238,-2.636 -0.719,-3.756 -0.479,-1.119 -1.199,-2.078 -2.076,-2.796 -0.801,-0.72 -1.76,-1.12 -2.799,-1.439 -1.117,-0.239 -3.115,-0.398 -5.834,-0.398 l -7.031,0 0,24.692 6.312,0 z m 0,-13.506 0,-5.834 1.359,0 c 1.598,0 2.717,0.24 3.275,0.641 0.641,0.479 0.959,1.197 0.959,2.236 0,1.039 -0.318,1.838 -0.959,2.238 -0.639,0.479 -1.758,0.719 -3.355,0.719 l -1.279,0 z m -33.084,9.271 6.074,1.598 0,-9.749 5.674,11.269 7.91,2.157 -7.031,-12.227 c 1.837,0 3.275,-0.4 4.234,-1.439 1.039,-1.039 1.521,-2.557 1.521,-4.635 0,-1.357 -0.241,-2.637 -0.802,-3.836 -0.479,-1.199 -1.197,-2.237 -2.157,-3.196 -0.798,-0.72 -1.757,-1.358 -2.875,-1.839 -1.04,-0.479 -3.038,-0.959 -5.755,-1.517 l -6.793,-1.2 0,24.614 z m 6.074,-11.587 0,-6.634 1.357,0.239 c 1.439,0.321 2.479,0.799 3.116,1.439 0.64,0.719 0.96,1.678 0.96,3.037 0,1.039 -0.32,1.758 -1.039,2.156 -0.719,0.32 -1.758,0.4 -3.117,0.08 l -1.277,-0.317 z m -10.469,-1.52 c 0,-1.838 -0.32,-3.595 -0.959,-5.433 -0.64,-1.839 -1.599,-3.598 -2.797,-5.276 -1.199,-1.677 -2.559,-3.116 -4.156,-4.394 -1.678,-1.28 -3.277,-2.238 -5.035,-2.877 -1.758,-0.641 -3.516,-0.879 -5.113,-0.801 -1.68,0.08 -3.117,0.561 -4.396,1.358 -1.279,0.8 -2.316,1.998 -2.957,3.358 -0.719,1.437 -1.039,3.036 -1.039,4.954 0,1.838 0.32,3.677 1.039,5.595 0.641,1.918 1.678,3.675 2.957,5.433 1.279,1.678 2.717,3.117 4.396,4.316 1.598,1.198 3.355,2.078 5.113,2.636 1.758,0.56 3.357,0.8 5.035,0.64 1.518,-0.159 2.957,-0.719 4.156,-1.519 1.198,-0.878 2.157,-1.918 2.797,-3.276 0.639,-1.356 0.959,-2.956 0.959,-4.714 z m -12.947,3.037 c -1.918,-0.639 -3.516,-1.839 -4.715,-3.757 -1.199,-1.757 -1.838,-3.834 -1.838,-5.993 0,-2.237 0.639,-3.836 1.838,-4.795 1.279,-1.039 2.797,-1.198 4.715,-0.559 1.838,0.72 3.357,1.918 4.555,3.836 1.199,1.838 1.84,3.836 1.84,5.914 0,2.156 -0.641,3.756 -1.84,4.795 -1.198,1.039 -2.717,1.198 -4.555,0.559 z m -60.256,-11.828 6.793,1.28 0,-18.941 5.355,1.199 0,-5.754 -17.822,-4.155 0,5.993 5.674,1.28 0,19.098 z m 18.381,4.477 6.314,1.678 0,-10.149 8.471,2.237 0,10.15 6.473,1.758 0,-25.014 -6.473,-1.679 0,9.749 -8.471,-2.236 0,-9.67 -6.314,-1.599 0,24.775 z m -55.381,-11.429 6.474,1.039 0,-12.227 c 0,-0.64 0,-1.359 -0.08,-2.158 -0.08,-0.798 -0.16,-1.757 -0.32,-2.797 0.479,1.12 0.959,2.158 1.359,2.958 0.399,0.878 0.719,1.438 0.879,1.677 l 9.35,14.465 6.553,1.119 0,-25.094 -6.553,-1.039 0,12.388 c 0,0.56 0.08,1.358 0.08,2.157 0.078,0.799 0.158,1.758 0.318,2.797 -0.479,-1.198 -0.959,-2.237 -1.357,-3.036 -0.4,-0.88 -0.721,-1.438 -0.959,-1.759 l -9.27,-14.224 -6.474,-1.039 0,24.773 z m -37.479,-23.335 c -1.119,-0.318 -2.238,-0.479 -3.277,-0.479 -1.119,-0.08 -2.158,0.08 -3.277,0.318 -1.758,0.4 -3.436,1.039 -4.874,1.918 -1.518,0.96 -2.797,2.158 -3.916,3.677 -1.278,1.518 -2.158,3.117 -2.797,4.875 -0.559,1.678 -0.879,3.516 -0.879,5.354 0,2.398 0.48,4.477 1.438,6.154 0.96,1.758 2.318,3.037 4.156,3.996 0.959,0.479 1.998,0.798 3.116,0.879 1.2,0.16 2.398,0.08 3.756,-0.161 1.119,-0.239 2.158,-0.558 3.277,-1.038 1.039,-0.399 2.158,-1.039 3.277,-1.759 l 0,-7.671 c -0.959,1.199 -1.918,2.238 -2.877,2.877 -0.879,0.639 -1.918,1.119 -2.957,1.357 -1.918,0.32 -3.437,0 -4.715,-1.117 -1.199,-1.119 -1.758,-2.719 -1.758,-4.716 0,-2.157 0.559,-4.075 1.758,-5.674 1.198,-1.599 2.797,-2.558 4.715,-3.037 1.039,-0.159 2.078,-0.159 2.957,0.16 0.959,0.239 1.918,0.879 2.877,1.679 l 0,-7.592 z m -39.158,29.65 -2.717,6.472 c 1.198,0.561 2.477,0.879 3.756,0.799 1.278,-0.158 2.717,-0.559 4.315,-1.356 2.637,-1.36 4.795,-3.278 6.393,-5.755 1.598,-2.478 2.477,-5.034 2.477,-7.751 0,-1.039 -0.159,-1.918 -0.479,-2.639 -0.24,-0.799 -0.639,-1.277 -1.278,-1.599 -0.8,-0.478 -2.558,-0.398 -5.116,0.241 l -0.319,0.08 c -1.119,0.318 -1.918,0.398 -2.317,0.238 -0.48,-0.158 -0.64,-0.479 -0.64,-1.197 -0.08,-0.561 0.24,-1.199 0.64,-1.838 0.479,-0.721 1.118,-1.199 1.918,-1.679 0.639,-0.399 1.438,-0.56 2.237,-0.72 0.72,-0.08 1.438,0.08 2.237,0.32 l 1.999,-6.154 c -1.039,-0.16 -2.158,-0.16 -3.357,0.16 -1.118,0.24 -2.317,0.719 -3.676,1.438 -2.317,1.358 -4.235,3.196 -5.674,5.515 -1.438,2.316 -2.157,4.634 -2.077,7.032 0,1.839 0.399,3.036 1.358,3.597 0.959,0.559 2.478,0.559 4.715,0 1.678,-0.4 2.717,-0.48 3.197,-0.321 0.479,0.241 0.719,0.72 0.719,1.599 0,0.721 -0.24,1.519 -0.799,2.317 -0.56,0.72 -1.279,1.359 -2.079,1.759 -0.878,0.48 -1.757,0.64 -2.716,0.56 -0.879,-0.079 -1.758,-0.481 -2.717,-1.118 z m 46.59,-31.568 0,13.026 c 0,2.717 0.16,4.715 0.479,6.074 0.4,1.277 0.959,2.316 1.678,3.275 0.879,0.959 1.998,1.758 3.516,2.237 1.439,0.48 3.277,0.799 5.355,0.799 2.158,0 3.915,-0.318 5.354,-0.799 1.519,-0.479 2.637,-1.278 3.516,-2.237 0.8,-0.959 1.359,-1.998 1.679,-3.275 0.319,-1.359 0.479,-3.357 0.479,-6.074 l 0,-13.026 -6.713,0 0,11.987 c 0,1.758 -0.08,3.037 -0.16,3.836 -0.079,0.799 -0.24,1.439 -0.479,1.918 -0.24,0.639 -0.719,1.119 -1.359,1.439 -0.639,0.318 -1.358,0.558 -2.317,0.558 -0.879,0 -1.678,-0.239 -2.318,-0.558 -0.639,-0.32 -1.119,-0.801 -1.358,-1.439 -0.24,-0.479 -0.399,-1.119 -0.48,-1.918 -0.079,-0.799 -0.159,-2.078 -0.159,-3.836 l 0,-11.987 -6.713,0 z M 391.647,37.638 c 14.445,-5.945 28.941,-11.793 43.443,-17.603 -0.184,2.43 -1.545,5.188 0.08,7.395 3.961,6.383 7.873,12.805 11.857,19.173 0.836,1.712 2.893,1.832 4.461,2.494 -15.379,10.486 -30.941,20.71 -46.439,31.029 -1.1,-6.853 -1.881,-13.786 -3.889,-20.455 -2.294,-7.682 -5.282,-15.204 -9.513,-22.033 l 0,0 z M 306.224,5.365 c -2.98,3.531 -4.033,8.128 -6.033,12.16 -2.279,0.606 -4.725,0.821 -6.732,2.152 -3.117,1.832 -4.973,5.036 -6.576,8.16 -5.848,-3.013 -12.295,-5.945 -19.028,-5.188 -7.067,1.673 -11.745,7.793 -15.96,13.251 -4.494,-2.27 -9.229,-4.9 -14.432,-4.526 -4.422,0.535 -7.769,3.802 -10.829,6.742 -10.805,9.904 -21.738,19.714 -31.643,30.528 -2.399,2.884 -5.57,5.729 -5.617,9.777 -0.375,6.128 0.94,12.192 1.839,18.224 -27.092,8.518 -54.185,17.052 -81.286,25.539 -3.252,0.98 -6.024,3.02 -8.933,4.694 C 67.335,146.832 33.651,166.769 0,186.737 c 2.024,3.307 5.092,6.208 9.084,6.765 7.586,1.124 15.212,-0.98 22.822,-0.366 3.051,0.295 5.65,2.159 7.913,4.095 5.49,4.965 9.769,11.085 13.809,17.245 6.925,10.772 12.798,22.2 17.89,33.946 2.223,5.361 4.438,10.788 5.673,16.478 1.291,5.506 -1.379,10.941 -4.439,15.364 -4.741,7.076 -11.817,12.12 -16.909,18.885 -2.542,5.012 -0.502,10.87 0.829,15.961 42.958,-22.025 85.821,-44.265 128.732,-66.362 1.952,-0.885 4.733,-1.242 6.151,0.741 2.072,2.854 0.781,6.661 -0.653,9.507 -3.299,6.207 -8.16,11.436 -13.172,16.305 -1.538,1.713 -3.912,1.999 -6,2.612 -12.502,3.299 -24.663,8.926 -33.906,18.152 0.972,-0.39 1.936,-0.796 2.884,-1.227 20.878,-10.177 43.891,-16.949 67.271,-16.392 32.161,0.55 63.668,8.366 94.155,18.088 16.32,5.044 32.576,10.56 49.453,13.396 8.248,1.521 16.678,1.106 25.021,0.876 9.451,-0.392 18.854,-4.334 25.204,-11.443 4.79,-5.41 7.3,-12.438 8.56,-19.459 0.342,-2.486 0.693,-5.146 -0.209,-7.553 -1.098,-2.758 -4.189,-3.929 -6.924,-4.241 -4.924,-0.701 -9.555,1.651 -13.506,4.32 -9.363,-13.292 -18.734,-26.591 -28.807,-39.365 -2.725,-3.259 -5.34,-6.71 -6.78,-10.75 -4.05,-10.765 -3.22,-22.662 -0.767,-33.69 0.846,-4.559 3.563,-8.407 5.938,-12.264 13.043,-20.248 27.547,-39.5 40.75,-59.636 2.072,-3.324 4.424,-6.638 5.195,-10.551 1.363,-6.686 0.59,-13.546 0.59,-20.303 1.563,-1.921 3.992,-2.933 5.969,-4.391 17.387,-11.682 34.959,-23.109 52.227,-34.966 -4.344,-1.108 -8.86,-1.594 -13.086,-3.068 -3.529,-5.028 -6.469,-10.47 -9.848,-15.618 -0.686,-1.348 -2.088,-2.662 -1.609,-4.311 0.717,-3.793 1.602,-7.546 2.174,-11.364 -17.666,6.957 -35.221,14.201 -52.822,21.308 -1.434,-0.653 -2.878,-1.298 -4.383,-1.752 C 373.341,28.441 362.313,24.823 351.357,20.999 340.392,16.273 330.718,9.03 321.554,1.483 316.519,-1.784 309.505,0.719 306.222,5.364 l 0.002,0 z M 141.791,370.971 c -5.634,2.494 -11.316,5.273 -15.73,9.657 -2.279,2.238 -4.216,5.26 -3.817,8.605 0.151,4.415 3.124,8.24 6.908,10.304 6.296,3.555 13.563,4.86 20.631,5.952 18.376,2.303 37.165,3.116 55.485,-0.055 15.546,-2.749 30.36,-8.678 44.225,-16.121 7.084,-3.61 13.188,-8.805 19.045,-14.112 12.719,4.064 25.396,8.264 37.986,12.701 8.271,2.933 16.391,6.287 24.822,8.735 13.984,4.15 28.646,7.114 43.293,5.728 12.957,-1.633 24.494,-8.885 34.257,-17.179 -2.94,1.291 -5.651,3.051 -8.544,4.462 -10.51,5.235 -21.969,9.044 -33.793,9.275 -7.229,-0.167 -14.328,-1.705 -21.324,-3.387 -31.252,-8.041 -60.242,-23.221 -91.814,-30.192 -20.16,-4.018 -40.806,-6.08 -61.365,-4.901 -17.084,1.307 -34.384,3.818 -50.265,10.528 z M 206.664,98.167 c 2.279,0.231 4.558,0.439 6.844,0.565 -0.525,5.459 -1.529,10.878 -1.776,16.352 1.753,3.713 6.263,4.733 9.961,5.331 6.239,0.661 13.14,0.239 18.501,-3.331 1.699,-0.956 2.814,-3.657 5.037,-2.98 1.275,1.769 2.057,4 3.969,5.227 4.246,2.885 9.648,2.845 14.574,2.471 7.881,-0.726 15.816,-4.789 19.563,-12.017 2.709,-0.024 5.529,-0.335 8.111,0.733 3.523,1.331 7.586,1.952 11.164,0.438 5.991,-2.478 10.313,-7.625 13.715,-12.964 4.264,-0.781 6.996,3.091 10.916,3.784 2.398,0.535 4.869,0.287 7.299,0.232 0.049,10.518 0.146,21.18 2.383,31.515 -50.918,36.664 -101.941,73.183 -152.868,109.838 -1.984,1.252 -3.769,3.427 -6.35,3.164 -11.172,-0.335 -22.336,-1.045 -33.524,-1.084 -1.857,-0.135 -4.12,0.367 -5.451,-1.306 -5.506,-5.563 -9.61,-12.328 -13.801,-18.895 -9.085,-14.965 -17.34,-30.44 -24.535,-46.393 -1.156,-2.788 -2.813,-5.585 -2.566,-8.717 0.804,-13.921 5.044,-28.002 13.825,-39.023 1.164,-1.744 3.315,-2.159 5.172,-2.788 30.215,-9.431 60.064,-19.43 89.837,-30.152 z M 336.267,379.55 c 0,-0.511 0.174,-0.939 0.523,-1.303 0.354,-0.357 0.783,-0.538 1.287,-0.538 0.504,0 0.934,0.181 1.287,0.538 0.35,0.363 0.523,0.792 0.523,1.303 0,0.493 -0.174,0.919 -0.523,1.264 -0.354,0.343 -0.783,0.517 -1.287,0.517 -0.504,0 -0.934,-0.174 -1.287,-0.517 -0.35,-0.345 -0.523,-0.771 -0.523,-1.264 z m 55.47,-2.163 c 0,-0.51 0.174,-0.939 0.523,-1.303 0.354,-0.356 0.783,-0.536 1.287,-0.536 0.504,0 0.934,0.18 1.287,0.536 0.35,0.363 0.523,0.793 0.523,1.303 0,0.495 -0.174,0.919 -0.523,1.263 -0.354,0.345 -0.783,0.519 -1.287,0.519 -0.504,0 -0.934,-0.174 -1.287,-0.519 -0.349,-0.344 -0.523,-0.768 -0.523,-1.263 z"
           clip-path="url(#SVGID_2_)"
           inkscape:connector-curvature="0"
           style="clip-rule:evenodd;fill:#a83249;fill-rule:evenodd" />
      </g>
      <path
         id="path92417"
         d="m 206.118,103.466 c 0.023,0.383 0.012,0.796 -0.028,1.316 -10.892,4.136 -22.175,7.076 -33.069,11.204 -17.228,6.375 -34.472,12.821 -51.166,20.511 -2.135,0.773 -3.689,2.454 -4.534,4.542 1.546,-0.391 3.076,-0.845 4.566,-1.402 22.312,-8.471 44.648,-16.87 66.967,-25.324 2.177,-0.805 4.288,-1.817 6.559,-2.311 1.976,-0.136 3.888,0.589 5.801,1.012 -2.988,1.761 -6.263,2.948 -9.435,4.327 -25.865,11.028 -51.739,22.024 -77.606,33.061 -2.039,0.725 -2.565,3.06 -3.609,4.725 17.212,-6.932 34.217,-14.399 51.357,-21.515 3.387,-1.33 6.63,-3.076 10.136,-4.08 1.211,0.55 2.279,1.347 3.371,2.08 -25.021,10.814 -50.178,21.308 -75.239,32.018 1.521,-10.096 5.602,-19.651 10.789,-28.376 1.008,-1.986 3.089,-2.651 5.104,-3.321 l 0.013,-0.005 c 0.29,-0.097 0.578,-0.193 0.862,-0.294 l 83.035,-28.286 6.126,0.118 m 86.225,-57.079 c -0.063,10.622 -0.166,21.244 0.064,31.867 1.641,0.007 3.283,0.023 4.939,0.04 0.199,-10.639 0.121,-21.276 0.041,-31.915 -1.681,-0.006 -3.363,0 -5.044,0.008 l 0,0 z m -29.651,6.217 c -0.119,12.367 -0.135,24.742 0.008,37.11 1.658,-0.009 3.314,-0.017 4.973,-0.033 -0.023,-12.343 -0.057,-24.686 0.015,-37.037 -1.664,-0.026 -3.33,-0.04 -4.996,-0.04 z m -29.332,1.833 c -0.008,14.016 -0.271,28.049 0.135,42.066 1.594,-0.009 3.188,0 4.789,0.016 0.375,-14.033 0.137,-28.074 0.119,-42.106 -1.679,0 -3.361,0.007 -5.043,0.024 z m -70.099,314.749 c 15.722,-4.272 32.209,-5.786 48.441,-4.439 16.256,1.108 32.328,4.168 48.129,8.048 -8.965,6.966 -18.908,12.606 -29.037,17.684 -9.953,4.765 -20.462,8.692 -31.491,9.953 -15.491,1.553 -31.396,1.601 -46.585,-2.201 -4.685,-1.377 -9.745,-2.979 -13.02,-6.82 -2.805,-3.45 -1.323,-8.605 1.714,-11.402 5.944,-5.796 14.072,-8.482 21.849,-10.823 z M 313.181,11.509 c -4.828,6.494 -5.107,15.778 -1.314,22.838 2.805,5.267 7.729,9.092 13.02,11.658 9.666,4.638 20.386,6.279 30.936,7.467 -6.996,11.004 -9.061,24.168 -10.949,36.83 -2,15.562 -2.828,31.276 -2.502,46.959 -1.443,-0.168 -2.877,-0.43 -4.328,-0.383 -1.488,0.431 -2.676,1.49 -3.92,2.367 -24.582,18.367 -49.596,36.161 -74.066,54.672 2.518,4.056 6.216,7.562 10.963,8.749 8.895,2.191 18.871,-0.526 25.285,-7.107 6.934,7.975 18.559,8.764 28.256,6.693 5.115,-1.211 10.885,-3.02 13.619,-7.929 9.02,-15.243 17.371,-30.878 26.408,-46.106 2.771,-4.813 5.767,-9.514 9.361,-13.77 8.479,-10.327 17.867,-20.415 22.703,-33.101 2.334,-6.374 4.23,-13.626 1.475,-20.184 -4.447,-11.451 -11.611,-21.579 -18.68,-31.531 -0.525,-0.821 -1.195,-1.77 -0.699,-2.781 1.258,-3.268 5.178,-5.403 4.35,-9.347 -11.92,-3.005 -23.379,-7.491 -35.006,-11.427 -7.26,-2.367 -13.674,-6.75 -19.172,-11.969 -2.59,-2.215 -4.82,-5.06 -8.057,-6.351 -3.07,-0.78 -5.914,1.466 -7.683,3.753 z m -22.996,25.499 c 0.087,14.368 0.039,28.727 0.031,43.086 -0.168,3.921 1.57,7.849 4.701,10.248 4.543,3.761 11.77,3.538 16.049,-0.542 3.027,-2.59 4.263,-6.653 4.096,-10.55 -0.16,-7.658 0.246,-15.348 -0.176,-22.997 -2.479,-2.431 -6.039,-3.547 -8.438,-6.144 -7.252,-6.734 -10.041,-16.599 -11.588,-26.049 -3.632,3.292 -5.195,8.128 -4.675,12.948 z m 32.558,28.124 c 0,3.975 -0.008,7.951 -0.01,11.926 -0.094,2.17 0.869,4.344 2.602,5.672 2.514,2.082 6.516,1.958 8.885,-0.3 1,-0.856 1.646,-2.002 1.986,-3.245 l 1.242,-4.157 c 0.215,-0.525 0.387,-1.111 0.514,-1.72 l 0.002,-0.001 c 0.256,-1.227 0.336,-2.544 0.223,-3.625 l -7.76,-1.298 -7.684,-3.252 z m 2.82,4.261 -10e-4,2.271 -0.006,5.395 0,0.11 c -0.027,0.652 0.104,1.306 0.373,1.892 0.256,0.555 0.637,1.05 1.123,1.422 l 0.088,0.067 c 0.713,0.59 1.66,0.867 2.609,0.835 0.938,-0.032 1.854,-0.368 2.522,-1.003 l 0.108,-0.099 c 0.252,-0.215 0.463,-0.47 0.637,-0.752 0.207,-0.339 0.361,-0.708 0.465,-1.087 l 0.018,-0.065 -0.006,-0.002 0.08,-0.271 0.516,-1.887 -2.725,-2.172 -2.033,-3.06 -3.768,-1.594 z M 267.321,30.402 c -5.387,1.371 -9.475,6.567 -9.338,12.168 -0.096,14.886 0.023,29.771 -0.057,44.656 -0.07,3.53 0.551,7.307 3.02,10.009 4.041,4.932 12.018,5.673 17.006,1.777 3.418,-2.494 5.045,-6.798 4.836,-10.949 -0.063,-15.427 0.08,-30.862 -0.07,-46.282 -0.033,-7.552 -8.201,-13.394 -15.397,-11.379 z m -31.922,7.763 c -4.789,1.641 -8.238,6.462 -8.23,11.538 -0.127,14.36 0.047,28.727 -0.072,43.094 -0.015,3.427 -0.072,7.108 1.833,10.12 2.558,4.51 8.167,6.869 13.204,5.73 5.793,-1.092 10.145,-6.774 9.904,-12.639 0.057,-14.614 -0.031,-29.236 0.041,-43.85 0.023,-3.172 -0.271,-6.558 -2.201,-9.204 -3.035,-4.615 -9.283,-6.719 -14.479,-4.789 z m 24.282,182.327 c 5.673,10.829 11.594,21.539 17.594,32.193 5.801,-5.554 11.244,-11.459 16.902,-17.141 4.781,-5.067 9.959,-9.754 14.525,-15.021 -16.334,-0.151 -32.678,-0.086 -49.021,-0.031 z m 92.371,26.535 c 1.107,5.244 2.605,10.447 2.988,15.818 0.908,10.813 -1.467,22.271 -8.217,30.958 -0.645,0.899 -1.322,1.808 -1.697,2.859 2.01,2.462 4.184,4.894 6.822,6.701 8.008,1.132 16.766,0.574 23.834,-3.745 3.219,-2.096 6.375,-5.154 6.797,-9.18 0.453,-5.163 -1.428,-10.438 -5.061,-14.145 -8.628,-9.632 -16.517,-19.935 -25.466,-29.266 z m -25.588,-76.41 c 5.148,-1.984 9.205,-5.801 13.283,-9.371 -1.322,8.271 -6.605,15.913 -14.008,19.889 -9.865,5.156 -21.682,3.65 -31.938,0.55 2.82,-3.259 6.199,-5.953 9.355,-8.861 1.154,-0.94 2.461,-2.454 4.104,-1.674 6.223,2.064 13.149,2.152 19.204,-0.533 z M 160.369,379.87 c 4.032,-3.929 9.777,-5.307 15.172,-6.143 -1.873,6.543 -2.98,13.53 -0.821,20.16 -5.012,-1.028 -10.527,-1.96 -14.327,-5.683 -2.375,-2.157 -2.351,-6.141 -0.024,-8.334 z M 299.776,148.729 c -39.58,27.093 -79.159,54.186 -118.731,81.279 -2.391,1.577 -4.622,3.441 -7.227,4.67 -0.766,-0.654 -1.459,-1.37 -2.16,-2.08 29.324,-20.08 58.624,-40.201 87.956,-60.274 3.282,-2.302 6.734,-4.383 9.793,-6.972 -12.766,7.291 -25.156,15.251 -37.793,22.774 -28.385,17.275 -56.848,34.424 -85.184,51.779 9.904,0.646 19.841,0.687 29.754,1.243 1.371,0.19 2.662,-0.319 3.73,-1.147 49.835,-35.961 99.687,-71.917 149.544,-107.837 1.889,-1.156 2.025,-3.547 2.678,-5.435 -10.924,7.123 -21.555,14.692 -32.36,22 z m -78.211,-20.01 c 3.849,6.67 7.689,13.34 11.514,20.017 1.521,-0.765 3.012,-1.593 4.494,-2.438 -3.379,-5.674 -6.526,-11.491 -9.976,-17.124 -2.016,-0.12 -4.024,-0.296 -6.032,-0.455 z m -18.526,5.571 c 7.808,15.013 16.024,29.811 24.016,44.728 3.387,-2.057 6.709,-4.216 10.153,-6.176 0.055,-2.016 0.055,-4.032 0.039,-6.04 -2.781,1.657 -5.514,3.394 -8.319,5.02 -6.2,-11.459 -12.359,-22.941 -18.558,-34.4 -1.117,-2.988 -4.806,-2.423 -7.331,-3.132 z m -24.345,8.606 c -3.442,7.865 -4.175,16.997 -1.394,25.172 3.083,8.702 9.227,16.75 17.889,20.448 5.307,2.486 11.348,2.47 17.045,1.713 -1.618,-1.57 -3.235,-3.195 -5.204,-4.319 -3.474,-0.374 -7.084,-0.526 -10.247,-2.199 -11.674,-5.682 -18.375,-19.938 -15.459,-32.575 0.829,-3.053 -1.371,-5.667 -2.63,-8.24 z m 19.404,11.035 c -0.032,1.642 -0.04,3.284 -0.032,4.925 1.729,0.654 3.889,0.98 4.916,2.709 1.291,2.263 0.478,4.933 0.311,7.363 1.586,0.383 3.164,0.773 4.757,1.148 0.765,-3.857 1.371,-8.279 -1.084,-11.682 -1.896,-3.012 -5.586,-3.945 -8.869,-4.462 l 0.001,-10e-4 z m 33.667,-0.239 c -1.427,3.18 1.043,6.495 3.873,7.85 3.043,1.625 5.969,3.49 9.061,5.027 2.549,-0.613 4.82,-2.047 7.227,-3.059 0.016,-1.817 0.008,-3.642 -0.016,-5.459 -2.191,0.877 -4.295,1.969 -6.51,2.789 -4.807,-1.8 -8.911,-5.114 -13.635,-7.148 z m -100.953,10.025 c 10.127,18.081 20.303,36.121 30.407,54.21 3.713,-2.67 7.778,-4.941 11.14,-8.049 0.191,-1.944 0.072,-3.889 0.024,-5.833 -3.163,2.079 -6.247,4.278 -9.307,6.517 -8.893,-15.219 -17.244,-30.742 -26.073,-45.993 -2.064,-0.286 -4.128,-0.572 -6.191,-0.852 z m 19.889,3.099 c 0.861,1.331 1.705,2.67 2.55,4.009 2.518,-0.741 5.083,-0.534 7.585,0.152 1.148,-0.989 2.136,-2.128 3.156,-3.236 -1.896,-1.203 -3.872,-2.606 -6.215,-2.678 -2.486,-0.175 -4.813,0.877 -7.076,1.753 l 0,0 z m -43.023,9.459 c 10.145,18.654 20.4,37.246 30.767,55.772 4.494,-3.251 9.02,-6.454 13.578,-9.618 0.032,-2.072 0.032,-4.145 0.017,-6.215 -4.017,2.748 -7.961,5.608 -11.929,8.422 -8.415,-15.053 -16.687,-30.186 -25.014,-45.284 -1.195,-2.934 -4.868,-2.408 -7.419,-3.077 z m 54.075,11.913 c 0.877,1.562 1.761,3.124 2.646,4.694 2.398,0.167 5.211,-0.653 7.347,0.582 3.298,4.056 5.371,8.956 7.769,13.57 2.829,-1.688 5.586,-3.498 8.351,-5.283 0.024,-2.024 0.032,-4.057 0.032,-6.08 -2.104,1.362 -4.208,2.725 -6.311,4.079 -2.096,-3.458 -3.65,-7.378 -6.59,-10.239 -3.897,-2.542 -8.869,-1.585 -13.244,-1.323 z m 159.689,-156.414 0.002,-0.013 c 0.217,-0.714 0.387,-1.443 0.518,-2.182 l 0.969,-4.102 0.891,-3.503 1.143,-2.293 0.762,-1.147 -0.889,-1.72 -2.477,-2.102 -2.178,-1.58 c -0.615,-0.693 -1.344,-0.959 -2.123,-0.691 -1.381,0.473 -2.561,2.359 -3.398,4.883 -0.773,2.326 -1.224,5.149 -1.224,7.935 0,2.585 0.39,4.748 1.007,6.229 0.602,1.446 1.452,2.324 2.447,2.324 0.061,0 0.121,-0.003 0.18,-0.01 0.813,0.713 1.7,1.338 2.557,1.868 0.818,-1.231 1.4,-2.537 1.813,-3.891 l 0,-0.005 z"
         inkscape:connector-curvature="0"
         style="clip-rule:evenodd;fill:#00acdd;fill-rule:evenodd" />
    </g>
  </g>
</svg>
