<svg version="1.1" xmlns="http://www.w3.org/2000/svg" fill-rule="evenodd" height="260" width="260" viewBox="0 0 208.00177 207.9993">
<title>Shrewsbury Town FC</title>
<g transform="matrix(0.62208316,0,0,0.62208316,0.00243001,-407.863)">
<path fill-rule="nonzero" fill="#2b58af" d="m282.09,821.54c0,63.262-51.297,114.55-114.55,114.55-63.27,0-114.56-51.293-114.56-114.55,0-63.27,51.293-114.55,114.56-114.55,63.258,0,114.55,51.285,114.55,114.55"/>
<path fill-rule="nonzero" fill="#203764" d="m167.18,936.21c-62.625,0-113.39-50.77-113.39-113.39,0-62.621,50.77-113.39,113.39-113.39,62.621,0,113.39,50.766,113.39,113.39,0,62.625-50.77,113.39-113.39,113.39zm0-279.18c-91.559,0-165.78,74.227-165.78,165.78,0,91.559,74.223,165.78,165.78,165.78,91.555,0,165.78-74.223,165.78-165.78,0-91.555-74.227-165.78-165.78-165.78"/>
<path stroke-linejoin="miter" d="m1337.4,430.28c-501,0-907.16,406.16-907.16,907.16,0,500.97,406.16,907.09,907.16,907.09,500.97,0,907.12-406.12,907.12-907.09,0-501-406.16-907.16-907.12-907.16zm0,2233.4c-732.47,0-1326.3-593.81-1326.3-1326.2,0-732.47,593.81-1326.2,1326.3-1326.2,732.44,0,1326.2,593.78,1326.2,1326.2,0,732.44-593.81,1326.2-1326.2,1326.2z" transform="matrix(0.125,0,0,-0.125,0,990)" stroke="#f9b10c" stroke-linecap="butt" stroke-miterlimit="10" stroke-width="22.35239983" fill="none"/>
<path fill-rule="nonzero" fill="#fff" d="m49.633,866.02s1.3984-7.6875-2.5625-13.273c-3.9531-6.5234-9.7812-5.8242-9.7812-5.8242s-9.0781-0.46485-9.5469,10.016c0.69922,10.246-4.4219,10.707-4.4219,10.707s-9.5469-0.46093-2.3242-13.734l-6.7539-0.46484s-2.0977,20.488,11.18,20.723c10.707,0.69922,9.7734-12.57,9.7734-12.57s0.46875-7.9219,4.6562-8.3867c0,0,4.4258-0.93359,5.3594,3.9609,0.92969,4.8867-3.2617,9.0781-3.2617,9.0781l7.6836-0.23047"/>
<path fill-rule="nonzero" fill="#fff" d="m43.125,829.24-15.477-0.38672,0.23437-14.016,16.016,1.4609-0.07422-7.2383-32.582-4.3125,0.07812,9.6289,12.242,0.0742,0.15625,14.867-12.785,0.15234,0.30859,9.5508,31.883-2.4648,0-7.3164"/>
<path fill-rule="nonzero" fill="#fff" d="M30.648,786.88,19.406,783.8s1.3828-7.6992,7.7773-5.5391c6.3906,2.1524,3.4648,8.6211,3.4648,8.6211zm16.711,4.5469-14.172-3.3867,0.62109-1.3945,16.02-2.3047,2.7695-7.3945-18.023,3.6953s0.85156-11.477-8.3164-11.09c-12.551,0.46484-12.551,21.641-12.551,21.641l32.039,7.8555,1.6133-7.6211"/>
<path fill-rule="nonzero" fill="#fff" d="m63.914,757.15-3.9219-3.082-4.3906,8.6289-10.012-5.625,5.543-8.2383-3.9258-2.7734-5.3125,9.2461-8.0117-4.6211,6.7773-9.3984-4.5469-2.9258-9.8555,16.945,29.188,15.09,8.4688-13.246"/>
<path fill-rule="nonzero" fill="#fff" d="m75.547,741.52-10.703-20.562,19.711,11.855,4.2383-4.0039-11.551-31.578-4.7773,2.8516,8.707,21.871-20.875-11.395-3.6172,4.082,11.246,21.641-21.797-11.398-5.3125,7.6992,31.035,13.02,3.6953-4.082"/>
<path fill-rule="nonzero" fill="#fff" d="m93.184,705.94c3.3086,0.38671,11.781,0.15625,11.781,0.15625s3.3164,0.84765,3.0078,4.3125c-0.3125,3.4648-5.3945,4.9258-5.3945,4.9258s-4.9258,0.15625-6.0078-2.3867l2.2383,6.625s6.4648,0.23047,10.09-3.0039c5.2344-5.2383,3.6953-11.785,3.6953-11.785s-0.85156-6.543-7.8594-7.2383c-6.9297,0.0781-12.164-0.15625-12.164-0.15625s-3.3125-1.2266-1.5391-5.1562c1.7656-3.9297,8.0078-3.9297,10.16-2,0-3.3945,0.38672-5.9336,0.38672-5.9336s-11.012-1.8477-14.25,5.3906c-3.1523,6.6992-0.76562,11.09-0.76562,11.09s3.3125,4.7734,6.6211,5.1602"/>
<path fill-rule="nonzero" fill="#fff" d="m128.77,680.53c1.6953,5.9258-4.7773,7.6289-4.7773,7.6289l-3.6953-10.016s6.7773-3.5391,8.4726,2.3867zm4.5391,14.098c2.2383,7.6211-4.6172,8.4688-4.6172,8.4688l-3.6953-11.785s6.1562-2.8476,8.3125,3.3164zm4.4688,9.0078c2.7734-2,3.6172-6.6992,3.5469-10.242-0.0781-3.543-3.6992-6.7031-9.3242-6.2383,6.707-4.0078,4.9336-9.8555,4.9336-9.8555s-1.3867-7.3203-12.633-4.2422c-10.473,3.9336-12.625,5.0859-12.625,5.0859l11.695,30.574s11.633-3.082,14.406-5.082"/>
<path fill-rule="nonzero" fill="#fff" d="m172.66,690.77c-0.15625,2.7734-2.543,6.1602-8.3164,6.4688-5.7734,0.30468-7.2383-5.0078-7.2383-5.0078l-1.082-24.336-8.7774,0.15234c1.3086,22.492,2.2383,23.184,2.2383,23.184s3.4609,10.477,14.934,10.477c11.477,0,13.477-11.246,13.477-11.246l1.6992-23.645-6.8555,0.0781s0.0781,21.102-0.0781,23.875"/>
<path fill-rule="nonzero" fill="#fff" d="m200.54,673.75c2.4648,0.30468,7.8555,2.3086,5.8555,8.2383-2.0078,5.9336-8.5508,3.6953-8.5508,3.6953l2.6953-11.934zm-3.7774,15.402,1.4688,0,3.9219,16.328,8.7031,3l-5.77-19.48s10.938,1.4648,11.094-7.9297c0.53906-12.168-23.719-12.168-23.719-12.168l-5.6992,32.344,7.9297,2.0781,2.0781-14.168"/>
<path fill-rule="nonzero" fill="#fff" d="m229.34,716.27,6.1602-12.016,20.945-8.625-6.0039-5.2344-14.941,8.625-0.84766-16.406-9.625-4.8516,2.543,23.414-6.0859,10.781,7.8555,4.3125"/>
<path fill-rule="nonzero" fill="#fff" d="m265.31,748.3,21.641-17.793,5.3906,8.0898,4.6172-3.7734-18.402-21.566-3.8516,3.4648,6.5469,7.0859-21.562,18.254,5.6211,6.2383"/>
<path fill-rule="nonzero" fill="#fff" d="m306.12,758.31s5.9297,9.9336-6.2383,15.789c-13.246,6.7774-17.406-1.5391-17.406-1.5391s-4.4648-8.7812,6.5469-14.789c13.09-7.1641,17.098,0.53906,17.098,0.53906zm-22.18-7.8516c-13.633,8.8516-3.625,25.027-3.625,25.027s6.9375,14.09,24.727,5.8477c13.629-7.1562,4.1562-25.102,4.1562-25.102s-7.2344-16.172-25.258-5.7734"/>
<path fill-rule="nonzero" fill="#fff" d="m302.2,822.07,21.336-7.6953-0.23047-6.3164-23.801-5.3906,21.105-9.3945-2.3164-9.8594-29.262,16.941-0.0781,5.3906,23.648,4.0078-21.105,8.3203-0.15625,5.6172,32.117,11.32,0.23438-6.1562-21.492-6.7852"/>
<path fill-rule="nonzero" fill="#fff" d="m290.26,843.41,21.414,2.3906-25.031,13.094-1.3086,4.6211,30.805,10.938,2.2305-5.3906-20.789-6.1641,25.031-14.09,0.14844-6.8555-32.113-3.6211-0.38672,5.0781"/>
<path fill-rule="nonzero" fill="#fff" d="m70.695,902.95c4.7734,0.45703,3.0781,9.3164,3.0781,9.3164l6.0859-3.082s-0.77344-10.707-11.703-10.395c-9.5547,0.53515-9.9375,9.7773-9.9375,9.7773s0.69141,9.7031,0.61328,12.25c-0.07813,2.5391-6.3906,4.1523-7.7773,0-1.3867-4.1641-1.7656-5.9336,0.92187-9.9375-5.5469,2.0781-8.3125,3.2344-8.3125,3.2344s1.6914,10.32,9.0859,13.02c7.3906,2.6914,14.32-0.3125,15.172-5.3164,0.84766-5.0117-1.2344-14.863-1.2344-14.863s-0.76953-4.4688,4.0078-4.0039"/>
<path fill-rule="nonzero" fill="#fff" d="m99.34,930.2,3.082-4.0781-16.637-13.477-4.1602,4,6.625,4.8555-18.328,21.254,6.8516,5.6992,17.176-22.797,5.3906,4.543"/>
<path fill-rule="nonzero" fill="#fff" d="m120.37,941.45,2.6953-4.8477-14.02-6.7031-16.707,28.496,7.7773,4.6172,7.082-13.855,8.3164,4.6172,2.543-4.6172-9.0859-4.082,4.3125-8.0117,7.0859,4.3867"/>
<path fill-rule="nonzero" fill="#fff" d="m134.46,942.22c-9.2422,2.1562-11.473,12.629-11.473,12.629s-2.082,12.094,5.0039,18.562c7.0859,6.4688,20.254,2.2344,20.254,2.2344v-5.4688s-3.5391,3.8476-11.09,2.3906c-7.5469-1.4688-7.3906-10.555-6.8555-15.023,0.53907-4.4609,4.4688-12.551,10.859-12.086,6.3906,0.46093,9.1641,7.1602,9.1641,7.1602l1.8516-7.2383s-8.4766-5.3125-17.715-3.1602"/>
<path fill-rule="nonzero" fill="#fff" d="m183.28,950.08,2.2344,3.3906,4.9297-3.6211,3.2344,25.801,8.625-1.4648-7.3125-33.113-11.711,9.0078"/>
<path fill-rule="nonzero" fill="#fff" d="m228.99,962.72s-4.0312,2.793-6.6719-4.1094c-2.6367-6.9102,0.61719-8.5391,0.61719-8.5391s4.0391-2.1719,6.5195,4.7344c2.4883,6.9102-0.46484,7.9141-0.46484,7.9141zm-11.562-18.312s-2.6406-4.7344,0-6.1328,4.1914,0.15625,5.3594,2.5625c1.1602,2.4023,1.4688,5.5859-0.54687,6.6719-2.0156,1.0859-4.2695-1.8633-4.8125-3.1016zm9.7812,2.8672s3.8008-5.1992,0.85156-9.9297c-2.9492-4.7344-9.5-3.7109-12.512-2.0508,0,0-7.2344,4.082-4.082,11.09,1.9648,4.5,7.0078,4.4688,7.0078,4.4688s-6.5547,4.1094-2.5195,11.945c4.0352,7.8359,15.988,2.6406,15.988,2.6406s9-4.8125,4.0352-14.977c-2.8711-5.3594-8.7695-3.1875-8.7695-3.1875"/>
<path fill-rule="nonzero" fill="#fff" d="m257.88,945.89s-3.3203,3.6055-7.4141-2.5391c-4.0977-6.1602-1.2812-8.4688-1.2812-8.4688s3.457-3.0078,7.4023,3.1797c3.9453,6.1914,1.293,7.8281,1.293,7.8281zm-15.316-15.316s-3.6172-4.0352-1.3516-5.9844c2.2656-1.9414,4.1211-0.76953,5.7852,1.3203,1.6719,2.0898,2.6719,5.1211,0.9414,6.6289-1.7266,1.5039-4.5742-0.87891-5.375-1.9648zm10.172,0.64063s2.5625-5.9062-1.3594-9.8711c-3.918-3.9727-10.086-1.5274-12.656,0.75781,0,0-6.1562,5.5742-1.5312,11.719,2.9024,3.9531,7.8164,2.8086,7.8164,2.8086s-5.4883,5.4531,0.17578,12.211c5.6641,6.75,16.176-0.95313,16.176-0.95313s7.7188-6.6797,0.63672-15.504c-3.9844-4.5898-9.2578-1.168-9.2578-1.168"/>
<path fill-rule="nonzero" fill="#fff" d="m282.54,923.52c-0.84766,1.9453-5.8203,1.7891-8.5352-1.5508-2.7148-3.3359-3.9531-5.1211-1.7852-8.1484,0,0,3.1836-2.4024,7.4492,1.8633,4.2695,4.2695,3.7266,5.8984,2.8711,7.8359zm-11.719-13.191c-2.6367,2.9492-2.0938,6.2891-2.0938,6.2891s-6.5195-6.0547-6.0547-10.559c0.46875-4.5,4.2734-5.4336,4.2734-5.4336l-2.7148-2.4805s-6.9102,6.207-5.3594,12.262c1.5547,6.0547,6.5195,12.645,6.9844,13.27,0.46875,0.62109,11.875,11.25,18.785,2.0976,6.9023-9.1602-0.39062-16.301-0.39062-16.301s-6.7539-6.5156-13.43,0.85547"/>
<path fill-rule="nonzero" fill="#f9b10c" d="m50.219,889.43c0,2.6992-2.1797,4.8867-4.8828,4.8867-2.6953,0-4.8828-2.1875-4.8828-4.8867,0-2.7031,2.1875-4.8828,4.8828-4.8828,2.7031,0,4.8828,2.1797,4.8828,4.8828"/>
<path fill-rule="nonzero" fill="#f9b10c" d="m172.77,961.75c0,2.6953-2.1836,4.8828-4.8828,4.8828-2.6953,0-4.8828-2.1875-4.8828-4.8828,0-2.6992,2.1875-4.8828,4.8828-4.8828,2.6992,0,4.8828,2.1836,4.8828,4.8828"/>
<path fill-rule="nonzero" fill="#f9b10c" d="m296.02,890.04c0,2.6953-2.1875,4.8828-4.8828,4.8828-2.6992,0-4.8828-2.1875-4.8828-4.8828,0-2.6992,2.1836-4.8867,4.8828-4.8867,2.6953,0,4.8828,2.1875,4.8828,4.8867"/>
<path fill-rule="nonzero" fill="#f9b10c" d="m145.64,742.61,0.23438,2.5586,1.6289,1.8633,2.793,1.3984,2.5586,1.6289,0.93359,2.0938-0.46484,2.332-0.23438,2.0938,0.69922,2.0938s1.168,1.3984,1.8672,1.6328c0.69531,0.23047,3.0195,1.3945,3.0195,1.3945l2.5664,0.92969,3.0234,0.92969,2.0977,0.93359,2.0938,1.3984,0.93359-1.3984,2.0938-1.168s0.23438-2.3203-0.93359-2.3203c-1.1602,0-2.5586-0.46875-2.5586-0.46875l-1.6289-2.332,0.46484-2.793,0.92969-3.0273,1.168,2.5664,2.0938-4.4258,0.23047,5.8203,2.5625,0.69921v6.75l-0.46094,2.332,0.69531,2.5586,0.23047,2.5625,1.168,0.23437,1.1602-3.7305,0.93359-2.3242,1.8594-2.5625,0.46875,3.2617,2.0938-1.3984-0.46094-2.5625-0.93359-2.5586-1.6289-2.5625-1.6328-3.0273-0.92969-2.793v-4.6602l-2.7969,2.332v-3.9609l-1.3945-0.23047-2.332,3.2578-1.3945,0.69922-1.1602-2.332,2.3281-1.625,0.46094-2.0938,0.69922-2.8008,0.23437-2.0938,2.332-2.793,2.5547-1.3945,2.7969-0.46875h2.5625l-3.9609,2.7969-2.5586,2.0938-1.3945,2.5586,2.3281-0.69922,2.5586-2.3281,3.2617-1.3945,2.793-1.1641,2.5586-0.69922-2.0938-1.3945-2.332-1.168-4.4219-0.22656h-3.0274l-2.0938,1.3945-2.0976,1.6289-1.8594,1.6289-1.8633,1.3945-1.6328,0.9336,0.23437,2.3281,0.69922,1.6328v2.0938l-2.5586,0.69921-0.9336-2.793-1.3945-2.5664-1.168-2.0938-3.0273,0.69922-1.8594,0.46875h-2.0976l-0.46875-0.9336-1.625-1.6289-2.5625-2.5586,0.46484,3.9531-3.2578,0.23437-3.9609-0.46875,2.0938,1.6328,1.6328,3.4961"/>
<path fill-rule="nonzero" fill="#f9b10c" d="m182.43,742.14-0.92578,3.4961,0.22656,3.7188,1.3984-2.793,1.4023-1.6289,1.625-1.8594,2.0977-1.6328,1.1641,0,2.0938-1.1641,2.0938-1.6289,0-1.6289-2.5547,0.23437-2.7969,1.1602-3.0234,1.8633-2.8008,1.8633"/>
<path fill-rule="nonzero" fill="#f9b10c" d="m200.59,733.3-2.5625,0-0.69922,2.5625,2.5625-0.46875,0.69922-2.0938"/>
<path fill-rule="nonzero" fill="#f9b10c" d="m212.46,761.47,1.3984-1.3945,2.5586-2.5664-0.69921,2.8008-0.92579,2.0938,3.2539,0.46485-1.6289,1.3945-2.5586,2.5664-2.332,2.0938-0.92969-1.168-1.3984-1.3906,1.6328-2.5664,1.6289-2.3281zm8.3789,3.9609c0.93359,0,3.0273-0.69922,3.9609-0.69922h2.793l1.3945,0.46484-3.7227,0.9336-3.0234,1.3945-2.3281,1.1641-1.8672,1.6289-1.8594,1.168,1.8594-4.1953s1.8672-1.8594,2.793-1.8594zm11.875,10.008,3.4961,0.23437,0.46485,1.3984-3.4922,0.23438s-2.5625,0.23047-3.2617,0.23047c-0.69922,0-3.2539,0.23437-3.2539,0.23437l-1.8672,0.23438,0.93359,1.625,1.6289,1.8633,1.625,0.69922,2.1016,1.1641,1.8594,1.4023-3.2617,0.22656-3.0195-0.69531-1.4023-1.1641-2.5586-1.6328-1.3984-1.3945-1.8633-0.9336-1.1641-2.0938-0.69922-1.8672,1.1641-3.2539s1.6328-1.8672,2.793-1.8672h3.2617,3.2617l-4.1953,1.168-3.0273,1.8594-0.46094,1.6328,3.0234,0.23437,4.1914,0.46094h5.1211zm-41.672-31.898-3.0312,2.3281-1.3945,1.8672-1.8633,4.1875,0.69531,2.5664-0.69531,2.793,1.8633,1.1602,1.8594,0.93359v3.2578c0,0.69531,0.46875,1.8633,0.46875,1.8633l2.0976,0.9336,2.7891-0.46875-0.23438-2.3281-0.92578-1.3984-0.46875-2.3242,0.46875-2.0977v-3.4922l1.1602-3.4922,1.1641-3.0273,3.2617-2.3281,5.3555-0.69922-3.7266,2.3281-1.1641,1.3984-0.69922,2.793-1.6289,2.0938-0.46485,2.332,0.9336,1.3945,0.23437,2.5625,0.22656,1.8633,1.168,1.8633-1.3945,1.1602-0.70312,1.8672,0.23437,2.5586,1.8633,1.168,3.2578-0.93359v-2.5625l-1.6328-2.0977s0.46875-1.3945,0.46875-2.0938c0-0.69531-1.3945-1.3945-1.3945-1.3945l0.46094-2.332,1.6328-2.0938s-2.0938-0.92969-2.0938-1.6289c0-0.69922,0.46094-2.0977,0.46094-2.0977l1.3984-2.3281,1.8672-1.6289,2.3281-0.23047,0.22656,1.8594,6.0547,0.69922-2.0938,1.1602-1.3945,0.70313-1.8672,1.6289-1.3945,2.3281-1.3984,2.0938,0.23438,3.0273,0.23047,1.8672,1.4023,2.3281,0.92578,1.8594-0.92578,1.3984-1.6328,1.8633,2.0938,2.5586,1.3984,1.8672h2.5625v1.3945l2.3242,0.46485,2.5664-0.23438-0.23438,2.1016,0.23438,2.0938h1.6289c0.69921,0,2.0938,1.3945,2.0938,1.3945l2.793,0.23437-1.3945,1.1641-1.8633,2.3281h1.8633s3.4883-0.46485,4.1875-0.46485c0.69922,0,1.6328,0.69922,1.6328,0.69922v1.1602l-2.0977,0.69922-3.7227,0.46484,1.8594,0.9336,2.7969,1.168,3.957,1.3945,1.3945,1.6289,1.8672,3.4922,1.6289,2.5586-1.3945,3.9609-3.2617,1.6289-0.93359,1.3984,0.69921,2.0938,3.7266-0.46093,2.5625-0.46875h3.4922,2.5625l5.8203,0.46875,2.3281-0.46875,0.23047-2.0977-1.8633-1.1602v-1.3984l1.3984-1.3984,0.23437-1.8633s-0.93359-1.3945-1.3984-2.0938c-0.46875-0.69922-1.6289-1.1602-1.6289-1.1602l-2.5625-1.4023-2.332-1.6289-2.7891-0.92969-1.8633-1.168,1.1641-0.92579,2.0938-0.69921-0.92579-1.168-1.4023-1.1641h2.5625l2.0938,0.46485,2.793,2.0976,1.3984,2.3281,2.0976,1.3945,0.69922-1.3945v-2.0938l-1.3984-1.8672-2.0976-1.3984-1.625-1.3945,0.23047-2.5586-0.23047-3.2617-0.46875-2.793-2.0977-1.1641-1.8594-1.8633-2.0977-1.6289-1.8633-2.0976-0.46094-2.0938-0.93359-2.5625-1.3945-2.0977-1.6328-1.625,0.23438-1.1641,2.0938-1.3984-0.92969-1.8672,0.69531-1.1602-0.46093-1.3945-0.9336-1.8672-2.332-1.1641-3.4883-0.46875-0.23437-1.8594-0.46485-0.92969-2.0938-0.23047-2.7969-0.23437-2.5625-0.69922-0.23438-1.6328-0.46094-1.8594v-1.8633l-2.3281-0.69922-2.5664-0.23047-2.0938-0.23437-1.6289-1.168,0.69531-2.0938-2.5586,0.23437-2.793,0.23438-1.8633,0.46484-2.793,0.92578-2.793,0.9336-2.5664,1.3984-2.5547,1.6289"/>
<path fill-rule="nonzero" fill="#f9b10c" d="m242.97,819.21h-3.7266c-0.69532,0-2.7969,0.69922-3.4961,1.3945-0.69922,0.69922-5.3516,0.69922-5.3516,0.69922s1.1641,0.9336,3.4922,1.1602c2.3281,0.23437,1.8594,0.70312,1.8594,0.70312l2.332,0.23047,2.7891-0.93359,3.5-0.92578,2.5547-0.23438,1.8672-1.1602-2.0938-1.168-3.7266,0.23437"/>
<path fill-rule="nonzero" fill="#f9b10c" d="m241.57,826.2c-0.92579-0.23437-2.3242-0.46875-2.3242-0.46875s-2.5625-0.23437-3.2617-0.23437h-3.4883l1.6289,2.0977-4.4297,1.8594,4.1953,0.23438,3.0273,0.23046,3.0274,1.168,1.8594-0.69922,2.0977-1.3984,2.0938-0.92969,2.3281-0.93359-3.4922-0.46485s-2.3281-0.23437-3.2617-0.46094"/>
<path fill-rule="nonzero" fill="#f9b10c" d="m207.81,882.08-1.8633-1.6289-2.3281-1.1602,0.46484,2.5547,2.3281,2.7969,0.69921,2.7969-2.3281-1.3984-0.93359-1.3984-2.3242-0.92968-1.4024,2.793-0.46484,1.8594,2.5664,1.6328,1.3945,3.0274,1.3984,2.3281,1.3945-1.8672,1.6328-1.625,1.3945-2.5625,0-2.5586-0.23438-1.8633-1.3945-2.7969"/>
<path fill-rule="nonzero" fill="#f9b10c" d="m197.33,894.19-1.6289,0-2.3242,1.3984-1.6328,3.0273-2.0938-1.8633,0,2.7891,0.46484,2.332,0.69922,1.8633,1.1602,2.5586,1.6289,3.7266,0.9336,3.9609-0.46485,2.793,1.1641,1.1602,1.1641-2.5586,1.6289-1.3945,0-2.793-1.1602-2.3281-1.6328-2.5664-1.3984-2.793,0.23437-3.0273,0.69922-1.625,1.8633,2.7891,1.6289,3.7226,0.23437-2.0938,0.23047-2.5586,0.23438-2.3281-0.23438-2.793-1.3984-1.3984"/>
<path fill-rule="nonzero" fill="#f9b10c" d="m185.23,902.11-0.46875-2.332-1.6328,1.3984-2.0938-2.3242,0,6.0508-1.8594-3.0274-0.46875,3.4883-0.46484,3.9609-1.8633-4.4219-0.46875-2.5586-1.1602-3.9609-0.23437,3.0273,0.93359,3.9531,0.69531,2.5664,0.9336,3.0273,0.23047,3.9609-0.23047,3.4883-0.23438,3.7266,1.3984,1.3945,0.23438-1.8633-0.23438-2.5586,0.69922-1.8672,2.3281-0.92578,0.69532,3.4922,1.3984-1.8672s0.9336-1.8594,1.168-2.5586c0.23047-0.69531,1.3945-1.8633,1.3945-1.8633l0.69922-3.2578v-2.793l-0.23437-2.5625-1.1602-2.793"/>
<path fill-rule="nonzero" fill="#f9b10c" d="m171.95,904.2-0.46875-3.2617,0-3.2578-2.3281,1.3984-0.46484,3.0274s-0.23438,1.8594-0.23438,2.5586v3.0274l1.168,2.0938,0.69531,1.8633v2.332l-2.5625-2.5664-1.3945-2.0938-0.93359-1.6289v-6.7539l-1.3984-1.625-1.1602,2.5586,0.23438,3.2617v3.9531s0.46484,2.5625,0.69922,3.2617c0.22656,0.69921,1.3945,2.793,1.3945,2.793l0.92969,2.5625,1.8633,1.3984,3.2578,2.3281,0.70312-3.9609,1.3984-2.7891v-4.4258l-0.69922-3.0274-0.69922-3.0273"/>
<path fill-rule="nonzero" fill="#f9b10c" d="m162.17,918.17-2.3281-2.5586s-0.69922-3.4961-0.69922-4.1953c0-0.6914-0.69922-3.2539-0.69922-3.2539l-0.69531-3.0274-0.46875-4.4258-1.3984-1.6289-1.6289,2.0938-0.46485,3.2617s-0.93359,1.625-0.93359,2.3281v2.793l2.332,3.0273,3.0234,3.4922,0.93359,2.3281,1.8633,2.332,1.6289,1.3945,2.5625-0.23438-0.9336-2.0938-2.0938-1.6328"/>
<path fill-rule="nonzero" fill="#f9b10c" d="m148.43,892.56-2.0976,2.793-2.0938,2.0938s-0.46094,0.69922-1.1602,1.6328c-0.69922,0.92969-1.6328,2.0938-1.8672,2.793-0.23437,0.69922-0.23437,2.5625-0.23437,3.2617v3.2578l0.93359,1.8633h1.8672s-0.46875-1.8633-0.23438-2.793c0.23438-0.9336,0.92969-2.5625,0.92969-2.5625l3.4922-2.793,1.6328-2.793,1.8594-3.0273s0.92968-1.6328,0.92968-2.332c0-0.69531-1.1602-3.7226-1.1602-3.7226l-2.7969,2.3281"/>
<path fill-rule="nonzero" fill="#f9b10c" d="m145.88,888.6,1.3945-2.3281-0.46484-1.1602-1.8633,0.69532-3.0274,2.3281-3.2578,1.6328-3.0273,1.3984-0.23438,2.3203,3.2617-0.22656,4.1914-1.8672,3.0273-2.793"/>
<path fill-rule="nonzero" fill="#f9b10c" d="m140.75,881.84-1.1641,0.93359,0.23437,2.5586s2.0938-1.3945,2.793-1.625c0.69922-0.23438,2.0938-1.3984,2.0938-1.3984l2.3281-0.92969,0.46875-2.5625-0.9336-2.332-1.8633-2.0938-1.1602,1.8633,0.46094,1.8633-1.1602,2.0938-2.0977,1.6289"/>
<path fill-rule="nonzero" fill="#f9b10c" d="m138.19,874.86,2.793-3.7266-2.0938,0-1.8594,2.793-1.168-3.2617-1.625,2.0976-0.23437,2.5625-2.3281,2.793-2.7969,2.3281-0.92969,3.7266,4.6562-3.7266,3.4922-2.793,2.0938-2.793"/>
<path fill-rule="nonzero" fill="#f9b10c" d="m120.96,872.54-0.46484,2.3281,2.3281,0.23438,1.6328-2.7969-0.46875-2.0977-3.0274,2.332"/>
<path fill-rule="nonzero" fill="#f9b10c" d="m131.21,867.64,2.0938-1.3945,2.3281-2.793,0.69921-2.3281s-1.8672,1.1641-2.5625,1.8633c-0.69921,0.69922-2.793,2.0938-2.793,2.0938l-2.332,3.7266,0.9336,0.9336,1.6328-2.1016"/>
<path fill-rule="nonzero" fill="#f9b10c" d="m126.09,854.61c0.92578-0.23438,1.625-1.8633,1.625-1.8633l0.23437-3.0234-3.2617,1.3945-1.8633,0.69922-2.0938,1.8594-0.46875,3.0274,2.7969-0.9336s2.0976-0.92578,3.0312-1.1602"/>
<path fill-rule="nonzero" fill="#f9b10c" d="m117,835.75c-0.92969,0-3.2578,0.23047-3.2578,0.23047l-2.5625,2.3281-1.3945,1.168s-1.168,1.8594-1.168,2.5586c0,0.69922-1.6289,3.4961-1.6289,3.4961s0.9336,0.92578,1.6289,0.69141c0.69922-0.22656,3.9609-1.8594,3.9609-1.8594l2.0938-2.5625,1.1641-2.0938s0.23437-1.1641,0.92969-1.625c0.69921-0.46875,2.0976-0.70312,2.0976-0.70312l2.0938-1.3984s-3.0234-0.23047-3.957-0.23047"/>
<path fill-rule="nonzero" fill="#f9b10c" d="m110.25,835.51s1.3945-1.3945,2.0938-1.6289c0.69922-0.23047,2.793-0.69922,3.4922-1.1641,0.69531-0.46094,3.4961-0.46094,3.4961-0.46094l1.625-0.93359-4.1914-0.70313h-4.6562l-3.2578,0.9336-1.6289,2.3281-1.8633,2.0938-0.92969,2.3281-0.9336,2.3281-0.93359,1.8633,2.3281-0.46484,2.332-3.4922,3.0273-3.0273"/>
<path fill-rule="nonzero" fill="#f9b10c" d="m114.67,823.64-2.5625-0.23438-2.3242,0.23438-1.168,2.332s-0.69531,0.92969-0.69531,1.6289,1.6289,1.1602,1.6289,1.1602,1.8594-0.23437,2.793-0.23437c0.93359,0,2.793-0.22657,2.793-0.22657l2.3281-0.23437,0.9336-1.3984,3.4922-0.92969-4.1914-1.6328-3.0273-0.46484"/>
<path fill-rule="nonzero" fill="#f9b10c" d="m105.82,818.75,2.0977-0.46875,3.2578,0.46875,2.0976,1.1641,2.793,0.92969,3.2617,0.69922,2.3281,1.1602,1.625,0.9336,2.1016,0.93359,0.69922-1.168-3.7266-3.0195-3.9609-1.6328s-2.793-0.70313-3.4922-0.93359c-0.69531-0.23438-4.8906-1.6289-4.8906-1.6289h-2.5586l-2.5664,0.23437-1.8594,0.46094-0.69531,2.0977-0.9336,1.4023,1.8594-0.23437c0.69922-0.23438,2.5625-1.3984,2.5625-1.3984"/>
<path fill-rule="nonzero" fill="#f9b10c" d="m106.99,806.64s-2.0976-0.46484-2.3242,0.23438c-0.23437,0.69922-0.23437,1.6328-0.23437,1.6328l3.7266,0.92578,4.6562,0.69922,1.8594,1.3945,6.2852,3.0274-3.2578-3.0274s-1.3945-1.3945-2.0938-1.8594c-0.69922-0.46875-4.6602-2.3281-4.6602-2.3281l-3.957-0.69922"/>
<path fill-rule="nonzero" fill="#f9b10c" d="m106.99,797.32,5.3555,0.70312,3.0273-0.46875-0.69921-1.3945-2.5625-1.6328s-2.793-0.46484-4.6524-0.46484c-1.8672,0-1.6328-1.168-1.6328-1.168l2.5586-1.3945s1.8672-1.1602,3.0274-1.3945c1.168-0.23046,3.0273-2.0976,3.0273-2.0976l3.9609-1.8594-2.0938-0.69922-3.0274,0.92969-3.0273,1.3945-3.2617,0.9336-5.8203,1.3984-3.4922,1.6289-3.4922,1.6289-3.4961,1.1641-3.4922,1.3984,2.7969,1.1641-2.5625,3.9609,4.6602-3.0274,0.23047,2.793,0.92969-0.69922,2.0977-1.8633,1.168-1.625,3.4883-1.8672,3.4922,0.9336,3.4922,1.625"/>
<path fill-rule="nonzero" fill="#f9b10c" d="m106.52,781.26-2.0938,0.23438s-0.46875-1.1602-1.8672-1.1602h-2.793l-1.3945-1.168-2.0938-0.23437-1.6328,0.69922-1.1641,2.3281-0.69531,2.332-0.23437,2.5625,0.92969,2.0938,2.0977-1.168,1.1602-2.0938,1.168-2.0938,1.625,0.46485,2.1016,1.3984h8.1484l2.3242-1.6289-4.1875-0.46875-1.3984-2.0977"/>
<path fill-rule="nonzero" fill="#f9b10c" d="m89.992,783.36-2.5625-2.5586-2.7891,0.23438-1.8672,1.3945-0.93359,3.0273,1.6328,0.46485,1.6289-2.5625,1.8594-0.92969,1.168,0.92969,1.8633,0"/>
<path fill-rule="nonzero" fill="#f9b10c" d="m83.473,792.44,1.3945,1.3945,0.69922-1.8594,0.46875-2.3281-1.168-1.6328-1.3945,4.4258"/>
<path fill-rule="nonzero" fill="#f9b10c" d="m79.746,789.64c-0.23047,0.69922-0.23047,2.0938-0.23047,2.0938s-0.46875,0.93359,0,1.6289c0.46484,0.69922,1.625-0.46875,1.625-0.46875l0.69922-2.7891-0.92578-1.6328s-0.93359,0.46875-1.168,1.168"/>
<path fill-rule="nonzero" fill="#f9b10c" d="m110.25,761.94,2.3281-1.3984-3.0274-2.5625c0.69922,0,4.1914,0.23047,4.1914,0.23047s4.1914,0.70313,4.8906,1.168c0.69922,0.46484,3.2578,1.3984,3.2578,1.3984l2.3281,1.3945,1.8672,1.1602,2.5547,2.332-1.8594,0.93359s-2.3281-1.1641-3.2617-1.3984c-0.93359-0.23437-2.3281-0.46484-3.2617-0.69922-0.92578-0.23437-3.9531-0.46484-3.9531-0.46484h-3.0274c-1.168,0-4.1914-0.23438-4.1914-0.23438l1.16-1.86zm8.3828-16.07-1.3984-2.3281,2.5625-0.22656-0.69922-1.8672,4.6562,0,3.0273,0.9336-1.1641,1.8594-2.5625,1.168,1.3984,2.0938,2.0938,1.8594,2.0937,2.7969,2.332,3.4922-2.793-2.0938-1.8672-1.8672-2.0938-1.625-2.793-1.1641-5.5898-0.9336-4.1914-1.6328,6.9883-0.46484zm3.4922,27.711c0.69531,0,3.0273,0.23438,3.0273,0.23438l2.0938,1.1641,1.3945,1.8594,0.46485,2.0938-1.625-0.22657-2.0938-1.8672h-3.2617l-2.5625-1.1641-0.46484-2.0938h3.0273zm-37.953,4.4258,1.8633-3.4961,1.625-2.0938,1.8672-1.8633,2.3281-1.6289,2.0938-1.3984,2.5664-1.3945,2.7891-0.23438-0.92969,1.6289-2.3281,1.1641-1.8633,1.6289-1.168,1.6328-1.8594,2.3281-0.92969,1.3945-0.93359,2.0977-0.23047,2.0938,2.0938-1.1602,2.3281-3.0312,2.3281-3.0234,2.5625-2.0977,1.8594-2.0938,2.1016-0.70312,1.8594,0-0.93359,1.8633-2.793,1.8672-0.93359,2.0938-0.69922,1.1641-0.22656,2.0938,2.0938-0.92969,1.6328-1.3984,0.92578,1.1641,2.0977-1.1641,1.6289-1.3984,1.8633-1.1602,0.46485,1.1602-1.8594,1.6328-1.3984,1.8594,0.69922,1.4024,2.793-1.4024s1.1602-1.3984,1.8594-1.8594c0.69922-0.46485,1.168-0.92969,1.8672-1.1641,0.69922-0.23437,2.3281-0.23437,2.3281-0.23437l0.92578,1.3984,1.168,1.6289,2.0977,1.8672s1.1602,0.92578,2.0938,1.1602c0.92968,0.23047,2.0938,0.23047,2.0938,0.23047l3.2617,1.168h2.793l2.0938-0.46484,0.23438-4.1953-1.1602-3.4883-2.8008-1.8633-3.7227-0.46875-3.957-0.69922-1.8633-1.1602,2.5625-1.168,1.6289,0.23438h1.8633,2.3281l2.5625,0.93359,1.6289,1.3945,1.3945,1.3984,1.168,1.6328v1.625l1.3945-1.1641-0.46484-2.793-2.0977-2.7969-2.0938-2.5586-2.5586-2.5625-3.4961-2.5586,1.8633-1.3984-3.2617-4.4219,7.2226,4.4219-0.93359,1.6328,1.8633,1.8594,1.6289,2.0938,1.6289,2.1016,1.8633,0.92578,3.2617,0.23438,1.3945-1.3945-1.3945-2.332-1.8594-1.6289-2.1016-1.6289v-2.332l-1.8594-2.5586-0.93359-2.5625-2.0938-2.3281-1.1641-1.3984-0.93359-0.92578h3.0312l3.0234,1.1602,0.69922,1.6328,1.3984,2.793,0.46485,1.6289,0.92968,2.5586,1.1641,2.8008,2.0938,0.92969,1.8672,1.1641,3.2578,0.69531,2.0976,0.23438,2.793-0.46875-1.1641-2.3281-3.0273-3.4922,3.2578,1.168-0.46485-2.3281-2.5625-3.9609s-1.3984-1.3945-1.8594-2.3281c-0.46875-0.9336-1.168-2.793-1.168-2.793l-2.793-3.4922-3.2578-3.4961-3.0273-2.3242-2.7969-1.1641-2.793-0.69922h-2.0938c-0.93359,0-3.9609,0.23437-3.9609,0.23437h-2.793l-2.0938,0.69922-2.5664,0.46094-0.92578,0.23437-1.3945,1.625s0,0.46875-0.46875,1.168c-0.46485,0.69922-2.332,1.8672-2.332,1.8672l-2.0938,0.69922-2.3281,0.46094,1.168,2.5586-2.7969,0.70313-2.7969,1.8633-2.3281,1.8594-2.0938,1.8633-1.1641,1.3984s-0.46094,0.93359-1.1641,1.8594c-0.69922,0.93359-1.6289,1.6289-1.6289,1.6289l-0.69922,1.6328s-2.0977,1.168-0.69531,1.6328c1.3945,0.46093,3.0234,0.46093,3.0234,0.46093v1.168l-2.5625,0.69922-2.3281,2.5586-2.793,2.3281-2.3281,1.3945-2.0938,3.0312-1.168,1.3984-0.46484,2.0938-0.46484,2.332,0.23047,1.3906,2.332-1.625"/>
<path fill-rule="nonzero" fill="#f9b10c" d="m215.49,833.42-2.5625-0.23438-1.1641-0.46484,1.1641-0.69531,2.5625-0.46875,1.3984,0-1.3984,1.8633zm-3.0274,2.5586-1.3945,0.9336-0.93359,1.6289-0.23438,3.0274-1.8594-1.8633-0.9336-1.625,1.6328-1.3984-0.46875-2.1016,4.1914,0,0,1.3984zm2.332,10.242,2.7891,0.23437,0.69922,1.3984-3.2617,0.23438-2.793,0.23437-1.1602-1.4023-1.6328-2.0938-2.0938-1.8594,0.69922-1.168,1.8594,1.4024,2.5625,2.3281,2.332,0.69141zm-7.6875,3.5-1.6328,2.0938-0.22656,3.0273,1.1602,1.8594-2.0938,2.3281-2.3281,1.3984-2.332-0.69922,0-2.5586,1.3984-1.4024,0.46875-2.5586-1.6328-1.8633-0.92968-1.625,0-2.332,1.3945-2.0938,0.46875,2.793,1.8633-0.69922,0.92969-2.5625,1.1641-1.3945,1.6289,0.46875,1.1641,1.8594,1.3945,1.8633-1.8594,2.0977zm-9.082,18.391-0.92578,1.8594-3.0312-0.22656-1.1641,1.3945-1.3984,1.3984-2.5586,0.69921-1.8633-0.93359-0.69922-1.1641-2.793,0-2.0938-0.46875-2.3281,0.23437-1.6328,2.0977-2.0938-1.1641-1.168,1.8594-1.8594-0.46094-0.9336-1.168-1.1641-1.3984-2.7891,0.23437-2.332,1.1641-2.0938,1.4023-2.0977-0.23438-1.3984-0.93359-1.6328-1.3984-1.8594-0.93359-2.3281,1.6328-2.0938,0.23438,0-1.6328,0.46094-2.3281-0.69531-2.0938,0-2.5625,0.46875-2.5586,0.46093-2.793,1.1641-2.3281,0.69922-2.332,0.93359-3.957,0.92969-2.0977,0.23437-2.0938,1.625-2.3281,0.9336,3.0273-0.69922,2.3281-0.46094,2.3281,0,1.8594,1.3945,0.93359,1.3984-2.3281,0-3.4922,0.93359-2.0938s0.46094,0.92578,0.46094,1.625c0,0.70312,0.93359,1.4023,0.93359,1.4023l2.5586-1.168,2.1016-2.0938,1.8594-1.3945,2.0938-1.168,2.3281-1.6289,2.3281-1.8633,2.332-1.1602,1.6289-2.0977,0.69922-3.0273-0.23437-4.1953-0.9336-2.7891-3.2578-1.3984-2.7969-1.1641-0.69531-1.6289-0.92969-1.8633-2.3281-0.92969-1.3984-0.70313-1.3984-0.92968-0.69921-1.6289-0.46485-2.793,2.3281,0.92969,2.0938,1.1641,0.93359-1.3945,0.93359-1.6328,2.0938-2.0938h2.3281,4.8906,9.3125l1.6289,0.23437,1.8633,1.1602,2.3281,1.3984-0.46485,2.0938-0.93359,2.5625-1.625,1.8633-1.4023,1.4023-1.625,1.3945-1.6328,1.625-2.0938,1.168-1.3945,1.3984-0.23437,3.2578v2.7969l0.23437,2.3203,2.0938,0.69922,1.8594,0.93359,2.5625,2.1016,2.0938,1.8594,2.0976,1.3945,1.168,1.6328,0.22656,2.5625-1.3945,1.625-0.69922,2.5664-0.69921,1.8594-0.23438,2.3281v2.0938l1.6328,1.168,0.69922,1.625,0.23438,1.3984,2.0938,1.168-2.5625,0.92969-0.92969,2.0938,1.8594,1.1641h2.3281l-1.6289,2.5625zm-45.637-47.961-1.6289-0.9336,1.6289-1.8633,1.1641-1.8633,0.69922-1.8633,0.70312-2.0977,0.23047-2.0938-0.69922-1.6289-1.3984-0.69922,0.23438-1.6289,1.1641-1.3945,2.0938-1.6289,0.93359-2.1016-0.93359-1.3984-2.0938,0.46875-2.332,0.23047-2.3281,0-2.793-0.23047-2.5586-0.23437-1.3945-1.3945-2.332-0.69922-2.0938,0-0.46875-1.3945,2.0938-0.69922,2.5664,0.46484,1.8594,1.168,1.8633,1.1602,2.7969,0.23437,2.7891-0.23437,3.0312-0.46875,0.23437-1.8594-0.93359-0.69922-1.8633,0.69922-2.3281,0.46485-2.793-0.23047-2.5625-1.168-1.6289-0.69922-0.92969-1.3945s-2.1016-0.23047-2.7969-0.46484c-0.69922-0.23438-1.1641-0.23438-1.1641-0.23438l0.46485-1.6289h2.3281l2.0977-1.1641,1.6289-1.168,1.8633-0.69922h2.5625l1.6289,0.46875,1.8594-0.46875-0.92578-1.1602-1.8672-1.6289,2.3281-0.46484,1.8633,1.3945,1.4023,1.1641h1.8594l1.1602-0.92969,2.332-0.46875,2.3281-0.92968v-2.0977l1.8633-0.46484,0.46484,2.0976,1.6328,1.168-1.6328,1.3945,0.23438,1.625h2.0938l1.8594,0.69922-0.92578,2.3281-2.7969,1.168-1.1641,2.793v8.3828l0.46485,2.3281,1.168,2.0977-1.6328,1.625-1.8594,0.23437-1.168,2.0938v2.332l0.69922,3.0234,0.69922,2.332,1.3945,1.6289,2.8008,1.625-1.6328,0.93359h-5.1211l-1.8672-0.23047-1.3945,1.1641,0.46094,1.6328,2.1016,0.92969,2.3242,0.46484-1.3945,1.1602-2.0976-0.22657h-3.0274l-0.92578,0.69532v2.0976l0.46484,2.0938,0.69532,1.6289,0.23437,1.6328,0.69922,1.6328-0.23437,1.3945-1.1602-0.46875-1.168-1.6289-1.1641-2.0977-0.69922-1.625-0.23438-2.5625,0.46485-1.8633,0.69922-1.8633,0.69922-1.8633,0.70312-1.8633,0.23047-1.6289-1.8633,2.0938-0.9336,2.3281-1.6289-1.625,1.168-2.3359,1.3945-0.69141-0.9336-1.6289zm-6.75-37.023,1.3945-1.8672,1.8672-0.92578,0.23047,1.625-0.92969,1.3984-1.3984,1.4023-1.6289,0,0.46484-1.6328zm10.016-7.2188,1.3945,0.92969,1.8594,0,0.93359,1.4023s-0.93359,0.69141-1.3984,1.3906c-0.46875,0.70312-0.69531,2.0976-0.69531,2.0976l-0.46875,1.1641-1.625,1.1641v-2.5625l-0.69922-1.8633-0.46875-2.0938-0.69922-1.6289h1.8672zm20.25,16.066,0-1.8633,0.69922-2.0976,0.69922,1.8672,0.69922,1.8594,1.168,0.93359,1.3945,0.46094-0.46485,1.168-2.5625-0.23437l-0.93359-0.9336c-0.92578-0.92578-0.69922-1.1602-0.69922-1.1602zm9.5469-3.9609,1.8672-0.9336,1.3945-1.3945,1.8633,0.9336-0.92968,1.3945-1.168,0.69922,0,4.4219-1.1602,0.69922-1.168-0.69922-0.69922-1.1602,0-1.6289-1.3945-1.6328,1.3945-0.69922zm15.137,32.598,1.6328,0.9336-1.3984,0.92578-1.8633-0.46094,1.6289-1.3984zm3.4922-23.977-0.69922,0.92578-0.46094,1.3945-2.5664,0-2.3281-0.46093,0-1.3984,1.3945,0,1.8672-0.69531l1.17-1.4s0.92969-0.46875,1.6289-0.46875h2.0938l1.8672,0.69922-1.3984,0.93359-2.5625,0.46875zm-10.941-14.207,1.3945-1.3945,0-2.5625-0.69922-1.8672,1.1641-0.46484,0.46875,0.93359,0.92969,2.3281-0.46485,2.3281-0.69922,0.9336-0.93359,1.6289-2.0938,0.92969,0.93359-2.793zm17.23,27.242,0.46485-1.6289,1.1602-1.3984,1.168-1.8672,0.23438-2.0938,0-2.0938-0.46875-1.8594-0.9336-1.4023-0.69922-2.0938,2.1016,0.69922,2.0938,1.3945,0.46484,1.6289,0.23438,2.7969-0.9336,2.0977,0,2.0938-1.6289,2.332-1.8633,2.3281-1.6289,0.92578,0.23437-1.8594zm26.309,26.543s-1.1641-0.69922-1.8594-1.168c-0.69922-0.46485-1.8672-0.69922-1.8672-0.69922l-2.3281-0.92578s-1.8594-0.69922-2.5586-0.9336c-0.69922-0.22656-2.5625,0-2.5625,0l-2.793,1.3984-3.0274,1.1602-1.1641-0.92578,2.0977-1.168,2.0938-1.3945,0.46093-1.3984-0.69531-1.3984,1.1641-1.8594,2.0977-1.1641,1.3945-0.92968-0.92969-1.4024-1.8633-0.69922,0.23047-1.8594,1.6328-1.8633,2.7891-1.8633s2.1016-1.3945,3.0312-1.8633c0.92968-0.46485,1.6289-0.69922,1.6289-0.69922s3.2617-0.22657,4.1914-0.22657h4.8906l4.1875-0.23437,2.5664-0.46875-0.93359-0.92969h-6.0547l-4.8867-0.46875h-2.0977l-1.3945-1.1641h-3.7266l-1.8633,0.46484-2.0938,0.9336-1.168,1.6328-1.1641,2.0938-1.3945,1.6289-0.69922,2.0976-1.3945,2.5547-0.46875,2.3359-1.1641,2.793-1.8672,1.1602h-1.625l-1.8633,0.69922-1.1641-0.93359-0.69922-1.1602-1.8633-0.46484v-2.0938l1.168-2.3359h2.3281l3.4922-0.22656c0.69532-0.23438-0.23437-1.168-0.23437-1.168l-2.5586-0.23047,1.1602-1.6289,1.1641-1.3984s1.1641-0.46485,1.8633-0.69922c0.69921-0.23438,1.1641-0.69532,1.1641-0.69532l2.5625-1.8672,1.1602-2.0938,0.9336-1.8594,1.1641-1.8672,0.23438-1.3945-0.69922-1.1641,0.46484-1.4023,1.168-1.1602,1.3945-1.8633-0.93359-1.6289,0.69922-2.0938-0.23047-1.8633-0.92969-1.8633-2.0977-0.46875-1.6289-0.23047v-1.1641l-1.3984-1.1641-1.6289-0.23438-0.46484-0.92969-0.93359-0.92968-1.6289,0.23047-0.69922,1.8633-1.3945,0.23047-0.23438-1.1602v-2.0977l-1.3984-1.3945-1.1641-0.93359-0.69531,3.2617-1.8672,1.625-1.8594,0.69922-1.8672,0.46875-2.3281,0.23437-2.0938,1.625-1.6328,1.3984h-2.3203c-0.70312,0-1.6328-0.23047-1.6328-0.23047h-1.6328l0.46484,2.0938-0.23047,1.8594,1.8633,1.3984,1.6289,1.8672,1.6328,1.3945,1.3945,2.3281,1.3984,1.8633,1.3945,2.0976,1.1641,2.793-3.2578-2.793-1.6328-0.93359-0.69531-1.3945-0.23438-1.8672-1.1641-1.1602-2.0938-1.3984-0.93359-0.92969-1.1602-1.8672-1.8672-1.3984-1.3945-0.46093v-1.8594l0.46484-2.1016,0.23438-1.8594,0.23437-2.0938,0.69532-2.1016,1.6328-1.1641,1.625-0.92969,3.4961,0.23438,2.3281,0.23437,2.0976,0.92578,1.3945,1.168,1.3945,0.69922h2.0976l1.1602-1.168-0.22656-1.8594v-2.0938l-0.9336-2.0977-0.93359-1.6289-0.46484-1.3984-1.1602-2.0938-1.8672-2.3281-2.3281-1.3984-1.1641-1.6289-2.0938-1.1641-1.8633-0.46875-2.332-1.8594-2.3281-0.93359-2.5586-0.46875h-2.0938l-2.0938,0.46875-2.5664,1.8594-1.6289,2.332-1.3945,3.957-0.46484,2.332-0.69922,3.4883-1.8672,1.168h-1.1602s-1.168-0.9336-1.168-1.6289c0-0.69922-0.69531-2.1016-0.69531-2.1016l-0.23047-2.5586-0.69922-2.0938-0.70312-1.8633-1.3984-2.5625-1.8594-1.3945-2.3281-1.6289-2.0938-1.168-3.2617-0.46485-3.7266,0.23438-3.0273,0.46484-3.7266,0.93359-2.793,0.92579-2.3281,1.6289,0.46875,2.332,2.5586,0.23438,3.0274-2.0977,3.2617-0.23437-2.3281,2.7969-1.6328,1.8633-1.3945,1.8594-1.8633,1.6328-2.7969,0.93359-2.5586,1.1602-2.0938,1.3945-1.168,2.7969-0.92969,2.7969-0.23047,2.5586-0.46875,2.3281-2.0976,0.46875-1.1602,2.0938-1.8633,1.6289-1.6289,1.6289-0.93359,2.3281-0.92969,3.4922,1.8633,1.6289-0.93359,2.0977v1.8633l-0.23438,4.1914-1.3945-3.0274-1.1602-2.3281-1.6328-0.69922-1.8672-1.1641,0.46875-1.168,1.3984-1.3945-0.9336-1.1602s-2.0938-1.3984-2.0938-2.0977c0-0.69922,1.6289-0.46875,1.6289-0.46875l3.0312-0.92578,1.1602-1.6328,1.8594-1.8633,1.4023-1.8633,1.8594-1.6289,1.3984-2.0938,0.46875-3.2617,0.46094-1.8594v-2.0977l-3.0234,2.332-1.1641,2.3203-1.168,3.2656-2.0938,3.7227-1.6289,2.793-2.332,0.69922v-1.8594l0.46875-2.8008,1.8633-1.625,1.3945-1.3945-1.1602-1.8672-1.3984-0.9336-1.8672-0.92578,0.23437,3.0274-1.8633,2.3242-2.3242,3.0273v5.3555l-2.7969,1.168,2.3281,1.1641-1.3984,1.6289,1.3984,1.1602,1.3984,1.168,2.0977,2.332,1.3945,1.625,1.6289,2.3281,1.8633,2.3281,2.0937,1.8594,2.0977,1.8672-1.6328,0.69922-2.0938-0.69922,0.93359,2.5586,1.6289,3.0273,1.3984,2.3281,1.1602,2.5625,1.8672,2.332-0.46875,1.3945-3.0234-0.69531-3.0273-1.4024,3.0273,5.125-2.7969-1.168-0.92969-0.46093-1.6289,1.8594,1.8594,1.168,2.5625,1.3945,1.8633,2.0938,1.1641,2.0977v6.0547l1.6328,1.6289,1.3945,2.0938-2.0977,1.3984-1.8594,1.168-1.8633,0.46484-1.6289,1.6289-1.8672,2.5586-2.3281,1.6328-1.1641,2.3281,2.7969-0.69922s2.5625-1.1602,3.2578-1.6289c0.69922-0.46484,1.6328-1.3984,1.6328-1.3984l1.625-1.8672,2.1016-1.625,1.3945-1.8633,2.332-0.46485,0.69531,6.7539,0.69922-2.8008,0.23047-1.8594v-2.0938l-0.23047-2.5625-0.9336-1.625-0.69531-2.1016-0.93359-2.0938-1.6328-2.3281-0.92579-2.0977-2.1016-2.793,2.1016-0.46094,2.3242,0.92579,1.168,2.3281,1.6289,2.793,1.1602,3.0273,1.6328,3.4922,2.3281,1.6289,0.23047-1.8594-1.8594-2.3281-0.69922-1.8672-0.69922-3.4883,0.23047-2.0977,1.8672,1.1641,0.46094,3.0274,2.3281,1.8633,1.6328,2.5625,1.3984,2.0938,0.23437,3.2617-1.168,1.8633-2.332,1.8594-0.46094,2.332,0.69532,1.3945,1.3984,1.6328-3.0273,2.5586,3.7266,0.9336-1.1641,1.3945,1.8633,1.6289-1.6289,1.6328,2.3242,2.5586,1.8672,1.168-1.3984,2.3281,0.46485,2.0938,1.3945,1.6328-0.69531,1.8594,2.793,0.46485v2.0976l2.5625-1.1641v1.3945l0.46484,0.93359-1.1641,2.0938,1.1641,0.69922,2.7969-1.8633-0.93359,1.8633,1.1641,2.793,0.69922-1.8594,1.1641-1.3984,1.8594-1.6328v2.7969l1.168,0.92969,2.332-1.3945v3.4883h1.3945l0.46484-2.7891,2.3281,3.0234,0.69922-4.1875,0.93359,0.92969,0.92578,1.8633,0.9336,1.1602,0.69531-1.1602,0.23437-2.793,1.6328,0.92969,0.92968,1.3945,1.1641,1.168,1.6328-0.23437,0.46094-1.1641,1.3984-0.92968,1.168,2.0938,1.8594,0.69531,0.23437-1.8594,0.46485-2.5625,1.6289,2.5625,1.3984,0.23047-0.23437-2.5586,3.7226,1.1641-1.6289-2.7969,1.4023-0.23438,2.0938,1.8672,1.3984,1.3984,1.1602-1.1641-3.2578-4.1953,2.5586-0.23437,0.69922-1.625-1.1602-1.6328-1.3984-1.6289v-1.6289l2.0938-0.69922-1.1641-1.1641-1.1641-1.8594,1.8672-0.23438h2.0938v-1.3945l-1.8672-1.4023,1.3984-0.46485,2.7969-0.46484,0.92968-0.69922,2.0938-0.69531,2.5625,0.46093,1.8594,0.69922,2.7969,2.0977,3.2578,1.8633,2.0938,1.1602,2.8008,1.3984,2.3281-0.46484s-0.23437-1.168-0.46875-2.0938c-0.23437-0.93359-1.1602-2.3281-1.1602-2.3281l-0.9336-2.332-1.3984-2.3281-2.3281-2.793-2.793-2.0938-1.8672-1.3945h-2.0938l-0.69531,1.1602,1.3945,2.0938,2.3281,2.1016-1.8594,0.23047-2.3281-0.46485-0.69922,1.8594-2.5625-1.1602s-0.69922-1.168-0.93359-1.8672c-0.23047-0.69921,0-2.3281,0-2.3281l0.46875-2.0938,1.1602-1.3984,1.8672-1.6328h8.1484l2.793,1.168,2.793,1.8633,2.0938,2.3281,2.0977,2.5625,2.7969,3.0274-0.23438-1.8633-0.69922-2.5625-0.23437-2.0977-1.3945-2.0938-1.1641-2.332-2.5625-1.625-2.5586-0.70313-2.5625-0.46093-2.0938-0.46485v-1.8672l2.0938-0.92579-1.8594-0.70312-0.93359-1.1641,1.6289-0.69532h5.3516l1.4023,0.69532,3.2578,0.69922,1.8633,0.93359,2.793,0.69531,1.3984-1.1641-0.46484-2.3242-2.3281-1.6328-2.5625-0.9336-2.0976-1.1602-2.3281-0.9336s-1.6289-0.46093-2.793-0.92968c-1.1641-0.46485-3.0273-0.9336-3.0273-0.9336l-2.3281-0.46484-1.1641-1.1641,1.6328-0.69532,2.0938,0.22657,2.3281,0.70312,2.3242,1.1641,2.5625,0.9336,2.5664,0.46484,2.0938,1.1602,2.793,1.6289,2.3281,0.69922,0.23047-2.0938-1.1602-0.93359-1.6328-1.1602-2.3281-0.69922-1.8594-0.46875-2.5664-0.69531-2.3281-0.46875s-1.8594-0.69531-2.5586-1.1602c-0.69921-0.46875-2.5625-0.46875-2.5625-0.46875l-2.0938-0.46485,0.92969-0.92969,1.1641-1.6328h4.6562l2.3281-0.23047,4.1914-0.46875-1.8594,1.4024-0.23437,1.8594h2.5625l2.3281,1.1641,1.8633,1.1641,2.3281,0.69922,1.6289-1.168,1.8633-1.1602-0.23437-1.8633-1.1641-1.1641"/>
<path fill-rule="nonzero" fill="#f9b10c" d="m158.91,792.21,0.23437,1.625,1.8633-1.1602,0.92969-1.8672-0.46094-1.3945-1.8672-1.3984-2.3281-0.23438-1.8594,0.69922,1.1602,1.4024,1.6289,0.92578,0.69922,1.4023"/>
<path fill-rule="nonzero" fill="#f9b10c" d="m181.27,813.86s-1.1641-0.69921-1.8672-0.69921c-0.69532,0-2.0938-0.23047-2.0938-0.23047h-3.0274l0.46875,1.8594h2.793l1.8594,0.46485,0.70312,2.0976,0.92969,2.3281v2.0976l2.0938,0.46485,0.23437-3.4922-0.46484-2.5625-1.6289-2.3281"/>
<path fill-rule="nonzero" fill="#f9b10c" d="m187.78,820.15,0.69922-2.332-0.23047-2.793-1.3984,1.3984-0.23047,1.8594-0.93359,2.1016-0.46094,2.5547,2.0938-0.69531,0.46094-2.0938"/>
<path fill-rule="nonzero" fill="#f9b10c" d="m171.25,864.85,9.3164,0,0-1.1602-9.3164,0.23437,0,0.92579"/>
<path fill-rule="nonzero" fill="#f14a1e" d="m171.72,859.73-2.0938-1.1641-1.3984-2.3281-1.8633-1.6289-2.0977-0.46485-1.8633-0.46875,0-1.8594,1.168-1.168,1.6289-1.3945,2.0976-1.6289,1.8594-1.4023,1.6289-1.1602,0.69921,1.1602,0.69922,1.8672,0.9336,1.3984,0.46093,2.0938,0.46875,2.3281,1.3984-0.23438,0.23438-2.793,0.46093-2.5586s0.9336-0.46875,1.6328-0.93359c0.69922-0.46875,2.3281-0.9336,2.3281-0.9336h1.625l0.69922,1.3984,1.6328,0.23438h1.8633l0.23047,1.3984,0.23438,1.8594-0.46485,1.8633-1.1641,2.0977-1.8633,2.0976-2.0938,1.625-2.7969,1.1641-2.5586,0.23437-3.7266-0.69922"/>
<path fill-rule="nonzero" fill="#fff" d="m168.69,865.78-1.8633-0.23438-2.3281-1.625,0-4.6602,0.23047-3.0274,0.46875-1.1602,1.3984,1.1602,1.1602,2.3281,1.3984,1.6289,0.92969,2.0976,0,1.3984-0.23438,1.6289-1.1602,0.46484"/>
<path fill-rule="nonzero" fill="#fff" d="m182.66,865.32-1.1602-2.0977-0.23438-2.3242,1.1602-2.1016,2.1016-1.625,1.3945-1.4024,1.8594-0.6914,0.69922,1.8594,0,3.0274-0.46485,2.3281-0.92968,2.0938-1.6328,1.1641-2.793-0.23046"/>
<path fill-rule="nonzero" fill="#fff" d="m151.7,790.8c0,0.77343-0.625,1.4023-1.3984,1.4023-0.76953,0-1.3945-0.62891-1.3945-1.4023,0-0.76953,0.625-1.3945,1.3945-1.3945,0.77344,0,1.3984,0.625,1.3984,1.3945"/>
<path fill-rule="nonzero" fill="#fff" d="m197.56,790.8c0,0.77343-0.625,1.4023-1.3945,1.4023-0.77344,0-1.3984-0.62891-1.3984-1.4023,0-0.76953,0.625-1.3945,1.3984-1.3945,0.76953,0,1.3945,0.625,1.3945,1.3945"/>
</g>
</svg>
