<?xml version="1.0" encoding="UTF-8" standalone="no"?>
<svg
   xmlns:dc="http://purl.org/dc/elements/1.1/"
   xmlns:cc="http://creativecommons.org/ns#"
   xmlns:rdf="http://www.w3.org/1999/02/22-rdf-syntax-ns#"
   xmlns:svg="http://www.w3.org/2000/svg"
   xmlns="http://www.w3.org/2000/svg"
   xmlns:sodipodi="http://sodipodi.sourceforge.net/DTD/sodipodi-0.dtd"
   xmlns:inkscape="http://www.inkscape.org/namespaces/inkscape"
   version="1.1"
   width="400"
   height="400"
   id="svg3132"
   inkscape:version="0.91 r13725"
   sodipodi:docname="toulon-crest.svg"
   viewBox="0 0 400 400">
  <metadata
     id="metadata5156">
    <rdf:RDF>
      <cc:Work
         rdf:about="">
        <dc:format>image/svg+xml</dc:format>
        <dc:type
           rdf:resource="http://purl.org/dc/dcmitype/StillImage" />
        <dc:title></dc:title>
      </cc:Work>
    </rdf:RDF>
  </metadata>
  <sodipodi:namedview
     pagecolor="#ffffff"
     bordercolor="#666666"
     borderopacity="1"
     objecttolerance="10"
     gridtolerance="10"
     guidetolerance="10"
     inkscape:pageopacity="0"
     inkscape:pageshadow="2"
     inkscape:window-width="1920"
     inkscape:window-height="1014"
     id="namedview5154"
     showgrid="false"
     fit-margin-top="0"
     fit-margin-left="0"
     fit-margin-right="0"
     fit-margin-bottom="0"
     inkscape:zoom="1.8942386"
     inkscape:cx="163.21892"
     inkscape:cy="274.85595"
     inkscape:window-x="0"
     inkscape:window-y="27"
     inkscape:window-maximized="1"
     inkscape:current-layer="layer5" />
  <defs
     id="defs3134">
    <clipPath
       id="clipPath402-8-3">
      <path
         inkscape:connector-curvature="0"
         d="m 497.1081,154.2981 c 0,0 7.7357,13.7774 13.3793,18.8949 6.3466,5.7554 20.948,16.1422 18.8946,6.8228 -2.1842,-9.9122 -0.3556,-10.2343 -0.3556,-10.2343 0,0 11.0352,5.0435 9.9364,-0.712 -0.8891,-4.6572 -2.4245,-4.5995 -2.491,-7.8014 -0.0891,-4.3012 2.3229,-9.0069 -7.179,-8.6911 -21.4164,0.7117 -26.6075,-4.657 -26.8739,-4.0344 -0.7098,1.6554 -5.3108,5.7555 -5.3108,5.7555"
         id="path404-8-1" />
    </clipPath>
    <clipPath
       id="clipPath418-2-3">
      <path
         inkscape:connector-curvature="0"
         d="m 499.2739,140.3853 c 0,0 -2.0461,-3.6476 -0.9782,-7.1478 1.0673,-3.5006 1.423,-5.0128 1.1565,-8.2469 -0.267,-3.2331 -0.0309,-8.2464 1.5122,-10.8569 1.5431,-2.611 3.5006,-7.949 2.611,-9.2252 -0.8901,-1.2761 12.2804,6.0498 12.2804,19.6064 0,13.5572 -11.716,18.5702 -12.903,18.4811 -1.1875,-0.0888 -3.6789,-2.6107 -3.6789,-2.6107"
         id="path420-4-2" />
    </clipPath>
  </defs>
  <g
     inkscape:groupmode="layer"
     inkscape:label="Vector"
     style="display:inline"
     transform="translate(-0.9881387,-82.5)"
     id="layer5">
    <g
       style="overflow:visible"
       id="g4707"
       transform="matrix(0.38999959,0,0,0.38999959,46.250325,87.499999)">
      <path
         id="path4633"
         d="m 101.474,666.607 c 97.817,204.692 267.688,335.087 295.263,333.305 L 396.737,0 C 365.051,10.564 309.789,59.778 5.468,83.326 0.051,83.744 -24.251,403.518 101.474,666.607 Z"
         inkscape:connector-curvature="0"
         style="fill:#e63027" />
      <path
         id="path4635"
         d="M 788.063,83.401 C 483.738,59.852 428.476,10.639 396.79,0.075 l 0,999.908 C 424.365,1001.766 594.236,871.371 692.054,666.682 817.775,403.593 793.477,83.821 788.063,83.401 Z"
         inkscape:connector-curvature="0"
         style="fill:#e63027" />
      <path
         id="path4637"
         d="m 90.605,423.875 c 18.008,100.046 66.613,208.605 123.177,293.452 76.081,114.121 167.558,199.938 182.955,201.296 l 0,-758.537 c 0,0 -85.137,50.041 -320.624,64.532 -6.785,0.417 -1.811,108.686 14.492,199.257 z"
         inkscape:connector-curvature="0" />
      <path
         id="path4639"
         d="M 717.414,224.392 C 481.928,209.9 396.79,159.859 396.79,159.859 l 0,758.538 c 15.397,-1.358 106.874,-87.175 182.955,-201.295 56.564,-84.848 105.169,-193.406 123.177,-293.452 16.303,-90.572 21.277,-198.841 14.492,-199.258 z"
         inkscape:connector-curvature="0" />
      <path
         id="path4641"
         d="m 396.737,790.917 c -10.868,-32.531 -25.36,-65.137 -60.382,-104.988 -35.019,-39.852 -89.362,-84.532 -103.853,-90.572 -14.492,-6.036 -50.72,-45.888 -59.176,-57.965 -8.452,-12.075 -27.773,-51.927 -27.773,-51.927 0,0 -6.039,-3.623 -6.039,3.623 0,7.246 -9.662,74.874 62.795,155.784 72.458,80.909 154.577,143.708 154.577,143.708 l 51.927,43.471 c -10e-4,-0.001 -10.162,-35.405 -12.076,-41.134 z"
         inkscape:connector-curvature="0"
         style="fill:#94ccae" />
      <path
         id="path4643"
         d="m 427.231,859.829 c -5.604,14.634 -7.101,13.784 -12.379,16.904 0,0 2.417,-152.159 50.72,-239.109 48.304,-86.948 138.848,-113.398 153.367,-109.892 8.757,2.112 13.285,123.479 -71.247,206.503 0,0 1.206,-92.987 2.412,-99.027 1.211,-6.036 -51.795,15.903 -101.439,161.822 -9.964,29.288 -16,48.606 -21.434,62.799 z"
         inkscape:connector-curvature="0"
         style="fill:#94ccae" />
      <path
         id="path4645"
         d="m 153.1,305.227 c 4.528,4.528 16.755,17.208 20.831,28.53 3.91,10.861 22.509,22.19 27.172,22.19 4.075,0 18.567,1.358 25.813,-8.604 6.909,-9.499 9.057,-25.813 5.434,-32.153 -6.439,-11.265 -10.416,-16.303 -14.039,-23.548 -3.842,-7.685 -5.887,-14.491 -5.434,-16.756 0.453,-2.264 -10.416,7.246 -10.416,7.246 l -13.585,-4.076 -2.265,14.492 -14.039,-4.529 -2.717,14.492 -16.755,2.716 z"
         inkscape:connector-curvature="0"
         style="fill:#ffffff" />
      <path
         id="path4647"
         d="m 198.576,466.858 c 1.465,-5.905 5.788,-22.07 13.002,-30.936 6.92,-8.509 7.02,-29.195 4.734,-32.988 -1.999,-3.319 -8,-15.776 -19.657,-16.788 -11.12,-0.962 -25.445,5.286 -28.827,11.343 -6.011,10.762 -8.159,16.469 -12.277,22.968 -4.373,6.896 -8.909,11.895 -10.971,12.638 -2.066,0.739 11.003,4.921 11.003,4.921 l 3.343,13.055 12.903,-5.265 3.199,13.643 13.122,-4.893 10.426,12.302 z"
         inkscape:connector-curvature="0"
         style="fill:#ffffff" />
      <path
         id="path4649"
         d="m 302.543,612.491 c 0.523,-5.162 2.218,-19.327 7.238,-27.682 4.815,-8.021 2.399,-25.49 0.011,-28.416 -2.087,-2.559 -8.654,-12.348 -18.617,-11.792 -9.503,0.527 -20.838,7.532 -22.961,13.051 -3.775,9.812 -4.896,14.888 -7.589,20.87 -2.859,6.348 -6.082,11.117 -7.734,11.991 -1.652,0.874 9.881,2.826 9.881,2.826 l 4.397,10.614 10.253,-6.001 4.348,11.131 10.487,-5.718 10.286,9.126 z"
         inkscape:connector-curvature="0"
         style="fill:#ffffff" />
      <path
         id="path4651"
         d="m 228.727,477.313 c -19.926,-0.227 -30.299,20.432 -44.154,52.758 -0.679,1.585 13.812,-0.906 13.812,-0.906 l 4.529,13.359 15.624,-10.642 8.831,11.548 8.378,-7.246 9.736,6.34 c 0,0 3.623,-42.568 1.812,-48.003 -1.811,-5.435 -7.473,-17.081 -18.568,-17.208 z"
         inkscape:connector-curvature="0"
         style="fill:#ffffff" />
      <path
         id="path4653"
         d="m 370.358,320.525 c -5.777,0.198 -21.673,0.453 -31.65,-3.835 -9.573,-4.111 -28.502,1.178 -31.375,4.252 -2.508,2.689 -12.333,11.41 -10.225,22.324 2.01,10.409 11.445,21.875 17.86,23.39 11.396,2.696 17.169,3.173 24.178,5.25 7.437,2.197 13.183,5.042 14.4,6.736 1.213,1.695 1.638,-11.332 1.638,-11.332 l 11.057,-6.45 -8.163,-10.422 11.633,-6.467 -7.882,-10.72 8.529,-12.726 z"
         inkscape:connector-curvature="0"
         style="fill:#ffffff" />
      <path
         id="path4655"
         d="m 350.241,451.107 c 6.093,1.097 22.792,4.412 32.273,11.148 9.1,6.464 30.108,5.19 33.809,2.618 3.234,-2.25 15.482,-9.167 15.737,-21.072 0.241,-11.353 -7.055,-25.48 -13.43,-28.516 -11.325,-5.389 -17.258,-7.189 -24.132,-10.939 -7.292,-3.98 -12.67,-8.254 -13.558,-10.299 -0.892,-2.048 -4.27,11.495 -4.27,11.495 l -13.03,4.263 6.202,12.751 -13.643,4.15 5.841,13.002 -11.799,11.399 z"
         inkscape:connector-curvature="0"
         style="fill:#ffffff" />
      <path
         id="path4657"
         d="m 352.339,522.241 c 4.122,3.559 15.28,13.562 19.441,22.912 3.991,8.973 20.467,17.428 24.423,17.138 3.46,-0.251 15.835,0.003 21.366,-8.897 5.271,-8.488 6.082,-22.459 2.618,-27.614 -6.16,-9.156 -9.847,-13.183 -13.37,-19.105 -3.736,-6.283 -5.894,-11.93 -5.65,-13.879 0.244,-1.946 -8.385,6.793 -8.385,6.793 l -11.778,-2.615 -1.022,12.436 -12.188,-2.975 -1.408,12.464 -14.047,3.342 z"
         inkscape:connector-curvature="0"
         style="fill:#ffffff" />
      <path
         id="path4659"
         d="m 489.138,524.378 c -3.673,2.82 -13.915,10.387 -22.416,12.241 -8.155,1.78 -18.03,14.043 -18.469,17.386 -0.385,2.919 -2.728,13.179 3.733,19.314 6.159,5.852 17.647,8.926 22.536,6.927 8.683,-3.552 12.666,-5.926 18.203,-7.84 5.869,-2.031 10.942,-2.852 12.524,-2.313 1.578,0.537 -4.214,-8.151 -4.214,-8.151 l 4.203,-9.354 -10.172,-2.99 4.571,-9.634 -10.133,-3.315 -0.366,-12.271 z"
         inkscape:connector-curvature="0"
         style="fill:#ffffff" />
      <path
         id="path4661"
         d="m 575.651,488.762 c -5.381,-1.942 -20.081,-7.546 -27.673,-15.153 -7.285,-7.295 -26.62,-9.39 -30.392,-7.621 -3.294,1.55 -15.525,5.955 -17.598,16.759 -1.978,10.306 2.479,24.306 7.814,28.056 9.485,6.662 14.612,9.223 20.29,13.703 6.025,4.755 10.265,9.481 10.76,11.48 0.492,2.002 5.668,-9.811 5.668,-9.811 l 12.528,-1.865 -3.673,-12.574 13.069,-1.67 -3.309,-12.748 12.516,-8.556 z"
         inkscape:connector-curvature="0"
         style="fill:#ffffff" />
      <path
         id="path4663"
         d="m 397.7,347.074 c 5.02,3.623 18.641,13.837 24.277,24.009 5.406,9.761 24.9,17.7 29.351,16.982 3.888,-0.63 17.923,-1.567 23.301,-12.192 5.127,-10.132 4.659,-26.025 0.226,-31.516 -7.882,-9.758 -12.453,-13.95 -17.027,-20.304 -4.854,-6.74 -7.854,-12.921 -7.773,-15.149 0.086,-2.232 -8.82,8.519 -8.82,8.519 l -13.589,-1.793 0.075,14.177 -14.095,-2.155 -0.357,14.248 -15.569,5.174 z"
         inkscape:connector-curvature="0"
         style="fill:#ffffff" />
      <path
         id="path4665"
         d="m 653.841,424.346 c -4.9,-3.782 -18.186,-14.431 -23.492,-24.78 -5.088,-9.931 -24.316,-18.493 -28.785,-17.92 -3.905,0.502 -17.966,0.991 -23.684,11.435 -5.451,9.962 -5.498,25.862 -1.241,31.495 7.564,10.005 11.997,14.343 16.366,20.842 4.632,6.892 7.43,13.165 7.277,15.39 -0.155,2.229 9.09,-8.229 9.09,-8.229 l 13.525,2.229 0.382,-14.169 14.018,2.607 0.817,-14.229 15.727,-4.671 z"
         inkscape:connector-curvature="0"
         style="fill:#ffffff" />
      <path
         id="path4667"
         d="m 625.703,279.166 c -3.676,4.589 -14.018,17.025 -23.938,21.886 -9.521,4.667 -17.982,22.781 -17.512,27.037 0.409,3.719 0.629,17.082 10.454,22.693 9.365,5.349 24.469,5.664 29.893,1.719 9.634,-7.012 13.83,-11.151 20.077,-15.188 6.627,-4.281 12.631,-6.832 14.743,-6.647 2.111,0.184 -7.663,-8.774 -7.663,-8.774 l 2.353,-12.811 -13.455,-0.608 2.718,-13.268 -13.501,-1.019 -4.169,-15.02 z"
         inkscape:connector-curvature="0"
         style="fill:#ffffff" />
      <path
         id="path4669"
         d="m 470.295,267.742 c 3.824,5.236 14.081,19.823 16.391,31.785 2.223,11.473 19.06,25.703 23.723,26.428 4.079,0.633 18.361,4.253 27.161,-4.585 8.392,-8.427 13.083,-24.408 10.447,-31.314 -4.685,-12.273 -7.879,-17.93 -10.377,-25.742 -2.643,-8.286 -3.63,-15.415 -2.823,-17.608 0.807,-2.193 -11.548,5.625 -11.548,5.625 l -12.956,-6.195 -4.521,14.145 -13.338,-6.719 -4.975,14.074 -17.184,0.106 z"
         inkscape:connector-curvature="0"
         style="fill:#ffffff" />
      <path
         id="path4671"
         d="m 409.414,828.526 c 0.357,-6.418 0.531,-12.886 0.531,-19.393 C 409.927,704.534 365.296,589.635 320.728,500.794 276.153,411.96 231.597,349.214 231.561,349.164 l -2.951,2.095 c 0.007,0.011 2.764,3.895 7.621,11.141 34.035,50.696 170.161,265.424 170.09,446.734 0,6.443 -0.169,12.847 -0.523,19.193 l 3.616,0.199 z"
         inkscape:connector-curvature="0"
         style="fill:#94ccae" />
      <path
         id="path4673"
         d="m 574.138,333.622 c -0.227,0.149 -116.559,80.224 -154.722,273.764 l 1.776,0.351 -1.758,-0.438 c -0.042,0.173 -15.45,61.906 -15.45,216.904 l 3.623,0 c 0,-77.379 3.845,-131.428 7.688,-166.114 1.921,-17.339 3.838,-29.839 5.275,-37.994 0.718,-4.079 1.316,-7.068 1.733,-9.032 0.418,-1.967 0.647,-2.883 0.647,-2.887 l 0.011,-0.046 0.007,-0.043 c 18.963,-96.161 57.318,-164.047 90.911,-207.904 16.798,-21.925 32.404,-37.838 43.8,-48.261 5.696,-5.211 10.338,-9.05 13.551,-11.58 1.606,-1.267 2.852,-2.204 3.696,-2.823 0.843,-0.619 1.264,-0.909 1.264,-0.909 l -2.052,-2.988 z"
         inkscape:connector-curvature="0"
         style="fill:#94ccae" />
      <path
         id="path4675"
         d="m 527.23,382.949 c 0.064,-0.152 7.36,-16.558 7.367,-41.461 0,-4.702 -0.263,-9.708 -0.886,-14.962 l -3.594,0.425 c 0.602,5.105 0.853,9.97 0.856,14.538 0,12.096 -1.78,22.13 -3.553,29.121 -0.885,3.5 -1.769,6.234 -2.427,8.084 -0.329,0.927 -0.602,1.631 -0.793,2.102 l -0.282,0.683 3.312,1.47 z"
         inkscape:connector-curvature="0"
         style="fill:#94ccae" />
      <path
         id="path4677"
         d="m 487.132,438.374 c 0,0 0.491,-0.608 1.501,-1.73 7.047,-7.89 38.369,-39.572 82.235,-39.713 l -0.015,-3.623 c -52.213,0.311 -86.393,42.668 -86.537,42.788 l 2.816,2.278 z"
         inkscape:connector-curvature="0"
         style="fill:#94ccae" />
      <path
         id="path4679"
         d="m 476.172,458.006 c 0.01,-0.067 4.999,-22.456 5.006,-43.17 -0.053,-12.394 -1.642,-24.252 -7.985,-30.734 l -2.562,2.562 c 5.01,4.872 6.98,16.111 6.924,28.172 0,10.073 -1.228,20.697 -2.463,28.781 -0.615,4.041 -1.231,7.448 -1.694,9.843 -0.46,2.396 -0.765,3.757 -0.765,3.761 l 3.539,0.785 z"
         inkscape:connector-curvature="0"
         style="fill:#94ccae" />
      <path
         id="path4681"
         d="m 446.537,524.41 c 0.008,-0.06 0.46,-3.665 0.46,-9.485 -0.01,-11.795 -1.832,-32.729 -13.157,-51.675 l -3.106,1.861 c 10.816,18.054 12.648,38.387 12.641,49.814 0,2.816 -0.109,5.091 -0.219,6.651 -0.109,1.56 -0.212,2.378 -0.212,2.381 l 3.593,0.453 z"
         inkscape:connector-curvature="0"
         style="fill:#94ccae" />
      <path
         id="path4683"
         d="m 442.847,534.681 0.054,-0.156 c 0.708,-1.921 8.459,-21.178 48.727,-45.01 l -1.847,-3.12 c -43.544,25.749 -50.263,46.75 -50.394,47.218 l 3.46,1.068 z"
         inkscape:connector-curvature="0"
         style="fill:#94ccae" />
      <path
         id="path4685"
         d="m 420.671,620.455 c 0,0 0.103,-0.371 0.34,-1.107 1.645,-5.151 9.581,-27.051 27.154,-41.695 l -2.321,-2.78 c -21.118,17.683 -28.594,44.447 -28.661,44.6 l 3.488,0.982 z"
         inkscape:connector-curvature="0"
         style="fill:#94ccae" />
      <path
         id="path4687"
         d="m 426.396,592.244 c -0.003,-0.043 -0.343,-6.485 -1.578,-13.849 -1.302,-7.383 -3.202,-15.58 -7.348,-19.738 l -2.519,2.604 c 2.873,2.636 5.162,10.628 6.294,17.735 0.598,3.563 0.983,6.935 1.217,9.407 0.234,2.474 0.315,4.026 0.319,4.03 l 3.615,-0.189 z"
         inkscape:connector-curvature="0"
         style="fill:#94ccae" />
      <path
         id="path4689"
         d="m 346.48,555.105 c -0.046,-0.096 -2.137,-5.081 -6.329,-10.161 -4.171,-5.049 -10.597,-10.352 -19.282,-10.366 -5.01,-0.003 -10.61,1.801 -16.667,6.177 l 2.116,2.937 c 5.607,-4.037 10.423,-5.491 14.551,-5.491 7.087,-0.018 12.634,4.391 16.49,9.05 1.915,2.317 3.375,4.656 4.345,6.403 0.485,0.874 0.85,1.6 1.09,2.102 l 0.347,0.754 3.34,-1.4 0,-0.005 z"
         inkscape:connector-curvature="0"
         style="fill:#94ccae" />
      <path
         id="path4691"
         d="m 309.813,479.372 c -0.067,-0.106 -3.357,-5.364 -9.757,-10.656 -6.393,-5.286 -15.978,-10.635 -28.474,-10.635 -9.365,-0.003 -20.276,3.015 -32.528,11.077 l 1.988,3.028 c 11.792,-7.748 21.96,-10.479 30.54,-10.482 11.428,0 20.188,4.872 26.163,9.803 2.982,2.466 5.25,4.936 6.761,6.779 0.757,0.924 1.323,1.688 1.699,2.215 l 0.538,0.789 3.07,-1.918 z"
         inkscape:connector-curvature="0"
         style="fill:#94ccae" />
      <path
         id="path4693"
         d="m 268.907,407.215 c -0.078,-0.194 -2.08,-5.247 -8.187,-10.278 -6.1,-5.034 -16.307,-9.963 -32.408,-9.952 -3.347,0 -6.948,0.212 -10.822,0.676 l 0.432,3.595 c 3.74,-0.446 7.196,-0.647 10.391,-0.647 15.373,0.01 24.621,4.624 30.104,9.125 2.742,2.257 4.536,4.5 5.64,6.163 0.552,0.832 0.931,1.515 1.167,1.978 l 0.248,0.52 0.06,0.138 3.375,-1.318 z"
         inkscape:connector-curvature="0"
         style="fill:#94ccae" />
      <path
         id="path4695"
         d="m 279.224,425.181 c -0.003,0 -0.272,-0.938 -0.697,-2.689 -1.27,-5.25 -3.821,-17.612 -3.821,-31.731 -0.004,-17.354 3.864,-37.177 18.182,-50.073 l -2.427,-2.689 c -15.479,14.007 -19.37,34.945 -19.377,52.762 0.007,19.402 4.634,35.333 4.659,35.432 l 3.481,-1.012 z"
         inkscape:connector-curvature="0"
         style="fill:#94ccae" />
      <path
         id="path4697"
         d="m 212.788,79.509 37.828,0 c 5.292,0 9.521,0.778 12.687,2.335 5.916,2.958 8.873,8.512 8.873,16.657 0,7.578 -2.115,12.822 -6.343,15.723 -4.228,2.908 -9.977,4.359 -17.24,4.359 l -35.805,0 0,-39.074 z m 0,101.03 0,-49.036 35.259,0 c 6.33,0 10.975,0.701 13.933,2.102 5.19,2.544 7.964,7.55 8.329,15.022 l 0.934,19.07 c 0.209,4.465 0.467,7.472 0.778,9.029 0.312,1.557 0.726,2.831 1.246,3.814 l 18.992,0 0,-2.568 c -2.388,-1.037 -4.047,-3.369 -4.981,-7.005 -0.57,-2.126 -0.934,-5.371 -1.089,-9.729 l -0.545,-15.33 c -0.258,-6.645 -1.518,-11.442 -3.775,-14.403 -2.257,-2.958 -5.618,-5.342 -10.08,-7.161 5.084,-2.646 9.043,-6.149 11.87,-10.508 2.827,-4.359 4.242,-9.963 4.242,-16.812 0,-13.125 -5.371,-22.13 -16.112,-27.008 -5.657,-2.541 -12.843,-3.811 -21.56,-3.811 l -52.928,0 0,114.336 15.487,0 z"
         inkscape:connector-curvature="0"
         style="fill:#ffffff" />
      <path
         id="path4699"
         d="m 396.797,21.132 c 14.478,0 25.71,3.814 33.703,11.442 7.992,7.628 12.429,16.296 13.31,25.997 l -15.1,0 c -1.713,-7.366 -5.126,-13.204 -10.236,-17.513 -5.112,-4.305 -12.287,-6.46 -21.521,-6.46 -11.261,0 -20.354,3.959 -27.281,11.87 -6.928,7.918 -10.391,20.042 -10.391,36.388 0,13.388 3.124,24.246 9.379,32.574 6.251,8.328 15.578,12.493 27.981,12.493 11.417,0 20.106,-4.384 26.075,-13.154 3.163,-4.617 5.526,-10.688 7.083,-18.213 l 15.1,0 c -1.352,12.04 -5.813,22.134 -13.388,30.278 -9.082,9.807 -21.327,14.711 -36.738,14.711 -13.285,0 -24.441,-4.023 -33.469,-12.061 -11.884,-10.639 -17.824,-27.062 -17.824,-49.273 0,-16.861 4.461,-30.691 13.388,-41.486 9.652,-11.726 22.961,-17.593 39.929,-17.593 z"
         inkscape:connector-curvature="0"
         style="fill:#ffffff" />
      <polygon
         id="polygon4701"
         points="584.043,65.75 584.043,79.367 545.519,79.367 545.519,180.086 529.796,180.086 529.796,79.367 491.264,79.367 491.264,65.75 "
         style="fill:#ffffff" />
    </g>
  </g>
</svg>
