<?xml version="1.0" encoding="iso-8859-1"?>
<!-- Generator: Adobe Illustrator 16.0.0, SVG Export Plug-In . SVG Version: 6.00 Build 0)  -->
<!DOCTYPE svg PUBLIC "-//W3C//DTD SVG 1.1//EN" "http://www.w3.org/Graphics/SVG/1.1/DTD/svg11.dtd">
<svg version="1.1" id="Layer_1" xmlns="http://www.w3.org/2000/svg" xmlns:xlink="http://www.w3.org/1999/xlink" x="0px" y="0px"
	 width="192.756px" height="192.756px" viewBox="0 0 192.756 192.756" style="enable-background:new 0 0 192.756 192.756;"
	 xml:space="preserve">
<g>
	<polygon style="fill-rule:evenodd;clip-rule:evenodd;fill:#FFFFFF;" points="0,0 192.756,0 192.756,192.756 0,192.756 0,0 	"/>
	<path style="fill-rule:evenodd;clip-rule:evenodd;fill:#2E4E6C;" d="M112.629,31.562c6.535-0.687,14.139,4.104,20.676,7.601
		c-26.451-11.098-59.594,10.49-86.35-3.8c6.537,6.688,13.531,14.594,23.413,14.138c-22.043,9.121-15.66,36.486-38.311,44.847
		C47.411,82.945,45.13,58.926,65.502,51.172c-2.09-0.378-3.882-0.167-8.21-2.128c-7.146-3.953-10.489-11.401-14.747-17.482
		C63.829,41.291,90.282,33.994,112.629,31.562L112.629,31.562z"/>
	<path style="fill-rule:evenodd;clip-rule:evenodd;fill:#2E4E6C;" d="M121.295,45.699c0,0-10.605-0.823-13.074-0.456
		c-2.471,0.368-1.758,2.6-0.57,4.263c1.215,1.977,3.764,2.579,6.043,2.274c-2.129,1.672-5.17,2.129-7.754,1.064
		c-4.711-0.913-3.801-10.187-9.273-4.409l-0.455,0.608c3.343,3.953,7.144,6.841,12.009,7.146
		c-7.297,2.432-12.923-7.298-19.764-9.882c8.514,1.368,14.291-7.145,22.5-3.345C113.846,45.091,117.646,45.396,121.295,45.699
		L121.295,45.699z"/>
	<path style="fill-rule:evenodd;clip-rule:evenodd;fill:#2E4E6C;" d="M157.477,52.237c1.977,6.081-0.912,11.25-3.953,15.962
		c0.912-6.993,1.672-15.203-4.865-19.763c-5.32-4.561-13.074-4.561-19.609-4.409C138.779,41.138,152.764,41.291,157.477,52.237
		L157.477,52.237z"/>
	<path style="fill-rule:evenodd;clip-rule:evenodd;fill:#E6C43F;" d="M137.105,59.99c-15.354-1.521-30.711,3.8-38.766,17.938
		c12.16,2.281,24.627,5.321,32.838,15.963c-11.707-8.514-24.783-13.53-40.44-12.01C98.492,64.094,118.559,54.82,137.105,59.99
		L137.105,59.99z"/>
	<path style="fill-rule:evenodd;clip-rule:evenodd;fill:#E6C43F;" d="M89.521,84.009c1.577,6.149,22.043,24.172,10.945,38.311
		c11.098-18.7-21.891-27.974-13.074-48.192l4.409-8.666C88.021,72.828,87.944,77.861,89.521,84.009L89.521,84.009z"/>
	<path style="fill-rule:evenodd;clip-rule:evenodd;fill:#2E4E6C;" d="M160.668,80.209l6.082-5.017
		c-3.648,5.929-9.578,12.922-17.027,13.226c-15.354,2.128-23.26-13.682-38.309-12.618C129.656,69.871,143.338,94.347,160.668,80.209
		L160.668,80.209z"/>
	<path style="fill-rule:evenodd;clip-rule:evenodd;fill:#E6C43F;" d="M57.292,125.664c-0.304-19.61,26.3-28.125,23.564-48.8
		c10.337,18.852-11.706,37.246,4.409,53.665c-4.409-3.953-9.426-8.666-9.882-14.747c-1.216-7.145,4.408-12.162,3.192-18.698
		c-7.753,9.273-17.938,18.395-20.675,30.101c-3.193-4.562-3.193-11.25-2.28-16.875c3.041-11.402,16.267-19.155,15.962-31.165
		c-8.361,14.442-29.189,6.385-36.181,22.956c0.607-3.648,3.04-10.946,8.817-13.226c9.729-2.889,20.219-4.257,27.82-12.466
		C78.576,96.932,51.82,105.598,57.292,125.664L57.292,125.664z"/>
	<path style="fill-rule:evenodd;clip-rule:evenodd;fill:#2E4E6C;" d="M127.832,94.955c-6.08-3.192-17.385-5.787-25.629-3.818
		c-1.621,0.387-2.551,1.084-2.801,2.754c-0.031,0.212-1.975-2.888-0.455-4.409c3.49-3.565,10.703-1.629,15.809,0
		C119.326,91.196,123.639,92.691,127.832,94.955L127.832,94.955z"/>
	<path style="fill-rule:evenodd;clip-rule:evenodd;fill:#2E4E6C;" d="M33.442,156.383h-3.811l-2.371-9.645
		c-0.239-0.986-0.346-1.945-0.346-1.945h-0.052c0,0-0.081,0.933-0.32,1.945l-2.318,9.645h-3.836l-4.13-18.33h4.262l1.919,10.71
		c0.186,1.039,0.266,2.079,0.266,2.079h0.053c0,0,0.107-1.04,0.347-2.079l2.424-10.71h3.09l2.372,10.71
		c0.213,1.013,0.319,2.079,0.319,2.079h0.053c0,0,0.081-1.066,0.267-2.079l1.998-10.71h3.916L33.442,156.383L33.442,156.383z"/>
	<path style="fill-rule:evenodd;clip-rule:evenodd;fill:#2E4E6C;" d="M41.541,141.358c-1.225,0-2.211-0.853-2.211-1.945
		c0-1.065,0.986-1.945,2.211-1.945c1.226,0,2.211,0.88,2.211,1.945C43.752,140.506,42.767,141.358,41.541,141.358L41.541,141.358
		L41.541,141.358z M39.463,156.383v-14.36h4.156v14.36H39.463L39.463,156.383z"/>
	<path style="fill-rule:evenodd;clip-rule:evenodd;fill:#2E4E6C;" d="M62.695,156.383v-10.071c0-1.093-0.64-1.945-2.079-1.945
		c-0.719,0-1.332,0.214-1.811,0.693v11.323h-4.157v-10.124c0-1.146-0.799-1.893-2.238-1.893c-0.746,0-1.173,0.081-1.679,0.267v11.75
		h-4.156v-13.562c1.599-0.719,3.304-1.066,5.809-1.066c2.371,0,3.73,0.641,4.556,1.44c0.906-0.773,2.372-1.44,4.742-1.44
		c3.411,0,5.168,2.025,5.168,4.557v10.071H62.695L62.695,156.383z"/>
	<path style="fill-rule:evenodd;clip-rule:evenodd;fill:#2E4E6C;" d="M74.924,156.649c-2.478,0-4.236-0.453-5.195-1.066v-20.115
		h4.156v6.901c0.667-0.32,1.413-0.534,2.665-0.534c3.384,0,5.728,2.719,5.728,6.955C82.277,153.825,79.64,156.649,74.924,156.649
		L74.924,156.649L74.924,156.649z M75.377,144.207c-0.666,0-1.092,0.106-1.492,0.319v9.405c0.32,0.133,0.773,0.213,1.279,0.213
		c2.105,0,3.011-1.864,3.011-5.088C78.175,146.259,77.588,144.207,75.377,144.207L75.377,144.207z"/>
	<polygon style="fill-rule:evenodd;clip-rule:evenodd;fill:#2E4E6C;" points="83.208,156.383 83.208,135.468 87.364,135.468 
		87.364,156.383 83.208,156.383 	"/>
	<path style="fill-rule:evenodd;clip-rule:evenodd;fill:#2E4E6C;" d="M93.112,150.654c0.293,2.105,1.359,3.145,3.463,3.145
		c1.678,0,2.958-0.373,3.731-0.773l0.932,2.585c-1.119,0.56-2.719,1.039-5.142,1.039c-4.396,0-6.927-2.904-6.927-7.487
		c0-4.502,2.345-7.407,6.475-7.407c4.155,0,6.261,2.825,6.073,7.674L93.112,150.654L93.112,150.654L93.112,150.654z M95.483,144.207
		c-1.705,0-2.771,1.466-2.637,4.423l5.01-0.746C97.855,145.326,97.002,144.207,95.483,144.207L95.483,144.207z"/>
	<path style="fill-rule:evenodd;clip-rule:evenodd;fill:#2E4E6C;" d="M109.512,156.649c-4.344,0-7.062-2.559-7.062-7.354
		c0-4.609,2.611-7.434,6.316-7.434c0.852,0,1.57,0.107,2.104,0.24v-6.635h4.129v20.115
		C113.693,156.276,111.988,156.649,109.512,156.649L109.512,156.649L109.512,156.649z M110.869,144.34
		c-0.346-0.106-0.719-0.159-1.145-0.159c-2.291,0-3.172,1.972-3.172,4.929c0,3.117,0.934,4.903,3.037,4.903
		c0.561,0,0.986-0.055,1.279-0.214V144.34L110.869,144.34z"/>
	<path style="fill-rule:evenodd;clip-rule:evenodd;fill:#2E4E6C;" d="M122.742,156.649c-4.156,0-6.342-3.171-6.342-7.461
		c0-4.289,2.186-7.434,6.314-7.434c4.184,0,6.367,3.145,6.367,7.434C129.082,153.479,126.898,156.649,122.742,156.649
		L122.742,156.649L122.742,156.649z M122.742,144.34c-1.84,0-2.211,2.238-2.211,4.796c0,2.584,0.398,4.689,2.211,4.689
		c1.838,0,2.211-2.105,2.211-4.689C124.953,146.578,124.58,144.34,122.742,144.34L122.742,144.34z"/>
	<path style="fill-rule:evenodd;clip-rule:evenodd;fill:#2E4E6C;" d="M139.5,156.383v-10.044c0-1.013-0.453-1.999-2.133-1.999
		c-0.824,0-1.277,0.133-1.758,0.293v11.75h-4.156v-13.562c1.439-0.639,3.465-1.066,6.021-1.066c4.555,0,6.182,1.947,6.182,4.557
		v10.071H139.5L139.5,156.383z"/>
	<polygon style="fill-rule:evenodd;clip-rule:evenodd;fill:#2E4E6C;" points="157.102,140.957 157.102,145.62 161.471,145.62 
		161.471,148.442 157.102,148.442 157.102,156.383 152.758,156.383 152.758,138.053 162.109,138.053 162.109,140.957 
		157.102,140.957 	"/>
	<path style="fill-rule:evenodd;clip-rule:evenodd;fill:#2E4E6C;" d="M172.477,156.649c-4.957,0-7.221-4.477-7.221-9.432
		c0-4.876,2.318-9.432,7.246-9.432c1.785,0,3.064,0.4,3.969,1.065l-0.879,2.612c-0.506-0.32-1.145-0.561-2.158-0.561
		c-2.824,0-3.729,3.144-3.729,6.287c0,3.117,1.039,6.155,3.703,6.155c1.012,0,1.518-0.214,2.104-0.56l0.488,1.37l0.498,1.4
		C175.566,156.276,174.232,156.649,172.477,156.649L172.477,156.649z"/>
</g>
</svg>
