<?xml version="1.0" encoding="utf-8"?>
<!-- Generator: Adobe Illustrator 15.1.0, SVG Export Plug-In  -->
<!DOCTYPE svg PUBLIC "-//W3C//DTD SVG 1.1//EN" "http://www.w3.org/Graphics/SVG/1.1/DTD/svg11.dtd" [
	<!ENTITY ns_flows "http://ns.adobe.com/Flows/1.0/">
]>
<svg version="1.1"
	 xmlns="http://www.w3.org/2000/svg" xmlns:xlink="http://www.w3.org/1999/xlink" xmlns:a="http://ns.adobe.com/AdobeSVGViewerExtensions/3.0/"
	 x="0px" y="0px" width="1000px" height="1000px" viewBox="-74.354 0 1000 1000"
	 overflow="visible" enable-background="new -74.354 0 1000 1000" xml:space="preserve">
<defs>
</defs>
<g>
	<defs>
		<rect id="SVGID_1_" width="851.292" height="1000"/>
	</defs>
	<clipPath id="SVGID_2_">
		<use xlink:href="#SVGID_1_"  overflow="visible"/>
	</clipPath>
	<path clip-path="url(#SVGID_2_)" fill="#004E7D" d="M425.756,974.775c493.322-268.056,397.19-866.338,397.19-866.338
		c-233.204-91.701-397.19-86.732-397.19-86.732s-163.986-4.969-397.188,86.732C28.568,108.437-67.565,706.72,425.756,974.775"/>
	<path clip-path="url(#SVGID_2_)" fill="#102C52" d="M425.648,985.73c0-486.209,0-968.03,0-968.03S260.62,8.227,25.938,100.947
		C25.938,100.947-80.719,713.948,425.648,985.73"/>
</g>
<path fill="#004E7D" d="M715.043,560.076c-5.466-17.062-11.909-26.57-16.616-33.526c-6.027-8.906-7.281-10.761-0.371-29.239
	l4.221-11.061l-10.342-6.828c-1.467-1.016-2.871-1.987-4.14-2.913c-11.764-8.617-11.814-10.466-12.099-20.968
	c-0.229-8.379-0.544-19.849-5.969-36.729c-4.66-14.546-12.992-26.293-24.767-34.915c-12.188-8.92-27.395-13.867-43.979-14.304
	c-9.31-0.246-18.599,1.049-27.272,3.619c-0.432-20.722-8.914-48.013-31.754-64.729c-11.287-8.264-24.384-12.652-38.926-13.036
	l-1.805-0.027c-17.624-0.09-28.647,3.047-37.102,5.45c-3.994,1.152-6.877,1.987-9.11,1.927c-1.983-0.052-5.62-0.849-14.277-7.188
	c-1.422-1.041-2.909-2.199-4.543-3.505l-9.199-7.279l-9.108,7.24c-12.037,9.407-16.51,10.599-19.313,10.525
	c-2.194-0.057-5.098-0.914-8.928-2.053c-7.477-2.214-17.713-5.244-33.555-5.661c-1.039-0.028-2.109-0.038-3.251-0.046
	c-26.251-0.07-48.115,12.738-61.549,36.043c-7.083,12.235-11.197,26.838-11.584,41.114v0.002c-7.312-2.199-15.15-3.477-23.087-3.685
	c-9.667-0.255-19.337,1.08-27.96,3.85c-15.555,4.989-36.027,16.827-45.217,44.827c-5.615,16.948-6,28.438-6.28,36.897
	c-0.337,10.719-0.409,12.948-16.936,23.917l-9.884,6.545l4.155,10.899c6.797,18.576,5.531,20.419-0.546,29.287
	c-4.762,6.894-11.281,16.34-16.899,33.381c-10.088,30.66,0.525,61.148,28.396,81.554c6.868,5.025,14.57,9.024,22.417,11.815
	c-8.169,11.705-13.53,25.713-15.167,39.982c-3.018,26.76,6.988,50.037,28.174,65.558c14.423,10.555,25.245,14.478,33.273,17.391
	c3.696,1.326,6.618,2.375,8.308,3.616c3.031,2.22,5.99,8.702,9.092,19.983l3.213,11.05l11.597-0.339
	c11.295-0.448,18.551,0.393,21.62,2.635c1.718,1.26,3.622,3.758,6.051,6.943c5.11,6.664,12.11,15.789,26.519,26.337
	c20.786,15.224,46.842,17.825,71.014,7.062c13.1-5.855,24.847-15.202,33.52-26.509c5.018,6.617,11.155,12.741,18.065,17.804
	c13.6,9.959,28.769,15.435,43.87,15.83c15.032,0.397,29.702-4.241,42.409-13.395c14.436-10.379,21.513-19.453,26.751-26.17
	c6.548-8.42,7.729-9.934,24.858-9.481c0.931,0.024,1.898,0.054,2.82,0.099l11.74,0.603l3.204-11.335
	c5.444-19.071,7.557-19.814,17.793-23.413c7.901-2.8,18.722-6.632,33.21-17.037c23.896-17.256,28.994-40.334,29.064-56.655
	c0.056-16.812-5.535-34.414-15.312-48.737c13.416-4.651,26.222-12.999,35.773-23.456
	C717.477,609.729,723.056,585.021,715.043,560.076"/>
<polyline fill="#004E7D" points="574.562,782.681 574.565,782.678 574.56,782.681 574.562,782.681 "/>
<g>
	<defs>
		<rect id="SVGID_3_" width="851.292" height="1000"/>
	</defs>
	<clipPath id="SVGID_4_">
		<use xlink:href="#SVGID_3_"  overflow="visible"/>
	</clipPath>
	<path clip-path="url(#SVGID_4_)" fill="#FCB525" d="M430.246,22.151c28.022,0,181.569,4.044,391.265,86.734
		c0,0,95.809,597.974-395.862,865.89C-66.022,706.859,29.79,108.885,29.79,108.885C239.5,26.189,393.046,22.151,421.052,22.151
		c3.033,0,4.596,0.046,4.596,0.046S427.208,22.151,430.246,22.151 M430.249,0h-0.003c-2.231,0-3.776,0.023-4.598,0.042
		C424.827,0.023,423.282,0,421.052,0C391.743,0,234.737,4.256,21.665,88.278L9.917,92.913l-2,12.469
		c-1.003,6.267-24.155,155.609,13.727,340.427C43.97,554.732,83.027,653.182,137.731,738.417
		c68.562,106.833,161.867,192.898,277.319,255.809l10.597,5.774l10.601-5.774C551.7,931.315,645.005,845.25,713.567,738.417
		c54.705-85.235,93.761-183.685,116.089-292.608c37.882-184.818,14.729-334.161,13.727-340.427l-2-12.469l-11.749-4.634
		C616.565,4.258,459.559,0,430.246,0H430.249z"/>
</g>
<path fill="#FCB525" d="M124.558,670.566c-1.787,0.623-2.742,2.524-2.22,4.322c0.536,1.784,2.4,2.875,4.232,2.448
	c0.237-0.066,22.366-8.396,49.747,7.605c5.048-13.923,10.268-27.958,20.419-35.589c-13.274-0.253-39.539-18.356-39.798-18.546
	C150.69,642.571,139.95,664.997,124.558,670.566"/>
<path fill="#FCB525" d="M427.702,816.743c-4.942,12.322-31.178,30.468-31.446,30.642c8.785,10.012,25.949,28.002,25.699,44.37
	c-0.051,1.89,1.387,3.457,3.256,3.607c1.859,0.131,3.538-1.226,3.789-3.089c0.023-0.246,0.077-23.892,24.744-43.821
	C442.511,838.795,431.241,828.941,427.702,816.743"/>
<path fill="#FCB525" d="M726.276,670.201c-0.227-0.088-23.03-6.355-35.775-35.394c-12.267,8.298-24.738,16.58-37.438,16.79
	c10.589,8.006,21.197,38.091,21.298,38.395c11.968-5.846,33.839-17.676,49.564-13.131c1.812,0.547,3.701-0.431,4.336-2.192
	C728.875,672.91,728.01,670.935,726.276,670.201"/>
<path fill="#FCB525" d="M613.019,316.277c-1.481-1.127-3.631-0.916-4.861,0.507c-0.155,0.191-13.161,19.939-44.718,23.087
	c4.1,14.232,8.126,28.653,4.398,40.795c10.889-7.598,42.777-8.391,43.098-8.391c-1.859-13.188-6.352-37.643,2.827-51.195
	C614.843,319.526,614.498,317.427,613.019,316.277"/>
<path fill="#FCB525" d="M246.114,319.585c-1.146-1.505-3.249-1.828-4.799-0.774c-1.531,1.062-1.992,3.169-1.02,4.78
	c0.134,0.207,14.897,18.68,8.139,49.663c14.8,0.499,29.761,1.126,40.159,8.422c-3.863-12.701,5.238-43.275,5.336-43.581
	C280.814,335.789,256.165,332.505,246.114,319.585"/>
<path fill="#FFFFFF" d="M466.984,675.893c5.031-3.792,7.386-6.932,9.286-9.448c3.066-4.078,4.526-5.94,14.605-5.702l0.861,0.029
	l0.224-0.849c2.597-9.794,4.81-10.593,9.577-12.404c2.987-1.091,6.676-2.483,11.684-6.252c6.787-5.07,9.95-12.633,8.881-21.307
	c-0.971-7.773-5.299-15.22-10.761-18.962l0.236-0.005c7.572-0.104,16.306-4.955,21.11-11.814c3.068-4.324,6.055-11.358,2.952-20.374
	c-2.015-5.948-4.284-9.166-6.109-11.742c-2.942-4.214-4.275-6.107-0.904-15.647l0.281-0.831l-0.712-0.459
	c-8.501-5.499-8.623-7.833-8.842-12.969c-0.133-3.148-0.312-7.08-2.319-13.037c-3.378-9.873-12.153-15.702-23.465-15.542
	c-6.011,0.086-11.625,1.953-15.482,4.958c2.09-6.311,0.985-14.875-3.008-21.631c-4.452-7.52-11.581-11.599-20.048-11.478
	c-6.267,0.087-10.023,1.246-13.05,2.184c-1.869,0.564-3.316,0.997-4.802,1.018c-2.669,0.038-5.726-1.405-10.379-4.991l-0.7-0.527
	l-0.663,0.545c-4.595,3.721-7.544,5.246-10.246,5.286c-1.486,0.02-2.944-0.371-4.796-0.882c-3.049-0.85-6.84-1.903-13.106-1.813
	c-8.499,0.122-15.488,4.398-19.713,12.042c-3.824,6.859-4.662,15.451-2.43,21.684c-3.927-2.868-9.605-4.576-15.58-4.491
	c-11.324,0.161-19.917,6.236-23.016,16.199c-1.849,6.004-1.903,9.948-1.982,13.099c-0.039,5.106-0.095,7.475-8.435,13.213
	l-0.73,0.479l0.301,0.822c3.676,9.421,2.374,11.374-0.458,15.669c-1.74,2.627-3.893,5.908-5.74,11.912
	c-2.842,9.097,0.337,16.046,3.494,20.282c5.033,6.72,13.835,11.319,21.44,11.21l0.247-0.002c-5.33,3.897-9.469,11.429-10.195,19.249
	c-0.826,8.702,2.519,16.184,9.446,21.056c5.147,3.611,8.851,4.89,11.837,5.923c4.859,1.672,7.073,2.41,9.946,12.123l0.248,0.845
	l0.872-0.059c10.066-0.522,11.567,1.3,14.753,5.3c1.966,2.449,4.413,5.521,9.559,9.169c4.017,2.837,8.437,4.247,13.128,4.183
	c11.616-0.167,21.983-9.597,24.581-18.469c2.877,8.796,13.494,17.927,25.109,17.764C458.637,680.377,463.005,678.84,466.984,675.893
	 M428.006,602.505c-14.766,0.21-26.941-11.603-27.152-26.414c-0.209-14.767,11.628-26.905,26.394-27.118
	c14.812-0.21,26.952,11.592,27.162,26.359C454.62,590.142,442.817,602.293,428.006,602.505z"/>
<path fill="#FFFFFF" d="M282.724,518.447l8.131-5.406c0.563-4.021,1.547-8.705,3.334-14.077
	c4.731-14.429,14.123-25.789,26.942-32.833l-49.007-68.065c-5.396-1.784-11.346-2.798-17.432-2.958
	c-6.679-0.176-13.266,0.711-19.048,2.567c-13.98,4.484-23.376,13.794-27.931,27.67c-4.407,13.306-4.692,21.811-4.943,29.315
	c-0.438,13.928-2.344,23.3-14.458,34.422l92.844,30.407L282.724,518.447"/>
<path fill="#FFFFFF" d="M274.491,558.846c1.742-5.363,3.724-9.708,5.658-13.27l-3.332-9.091l-1.025-2.8l-92.211-30.198
	c3.133,16.088-0.872,24.749-8.715,36.189c-4.306,6.233-9.133,13.219-13.538,26.595c-6.365,19.334,0.469,38.104,18.753,51.493
	c4.112,3.009,8.623,5.521,13.233,7.387l82.29-26.351C270.566,586.27,270.047,572.313,274.491,558.846"/>
<path fill="#FFFFFF" d="M715.043,560.074c-5.466-17.062-11.909-26.571-16.616-33.527c-6.027-8.906-7.281-10.76-0.371-29.238
	l4.221-11.061l-10.342-6.828c-1.467-1.016-2.871-1.987-4.14-2.913c-11.764-8.617-11.814-10.466-12.099-20.968
	c-0.229-8.379-0.544-19.849-5.969-36.727c-4.66-14.548-12.992-26.295-24.767-34.917c-12.188-8.921-27.395-13.868-43.979-14.305
	c-9.31-0.246-18.599,1.049-27.272,3.62c-0.432-20.723-8.914-48.013-31.754-64.729c-11.287-8.264-24.384-12.652-38.926-13.036
	l-1.805-0.027c-17.624-0.091-28.647,3.047-37.102,5.449c-3.994,1.153-6.877,1.988-9.11,1.928c-1.983-0.053-5.62-0.849-14.277-7.188
	c-1.422-1.041-2.909-2.2-4.543-3.505l-9.199-7.279l-9.108,7.24c-12.037,9.406-16.51,10.598-19.313,10.524
	c-2.194-0.057-5.098-0.913-8.928-2.052c-7.477-2.216-17.713-5.244-33.555-5.661c-1.039-0.028-2.109-0.038-3.251-0.046
	c-26.251-0.069-48.115,12.737-61.549,36.043c-7.083,12.235-11.197,26.837-11.584,41.114v0.002
	c-7.312-2.199-15.15-3.477-23.087-3.685c-9.667-0.255-19.337,1.079-27.96,3.85c-15.555,4.989-36.027,16.826-45.217,44.827
	c-5.615,16.948-6,28.438-6.28,36.897c-0.337,10.719-0.409,12.948-16.936,23.917l-9.884,6.547l4.155,10.897
	c6.797,18.575,5.531,20.419-0.546,29.286c-4.762,6.894-11.281,16.34-16.899,33.381c-10.088,30.662,0.527,61.148,28.396,81.555
	c6.868,5.024,14.57,9.024,22.417,11.814c-8.169,11.706-13.53,25.715-15.167,39.983c-3.018,26.76,6.988,50.036,28.174,65.558
	c14.423,10.555,25.245,14.478,33.273,17.391c3.696,1.326,6.618,2.374,8.308,3.615c3.031,2.222,5.99,8.703,9.092,19.984l3.213,11.05
	l11.597-0.339c11.295-0.448,18.551,0.393,21.62,2.635c1.718,1.261,3.622,3.758,6.051,6.942c5.11,6.664,12.11,15.789,26.519,26.338
	c20.786,15.223,46.842,17.825,71.014,7.062c13.1-5.856,24.847-15.201,33.52-26.509c5.018,6.617,11.155,12.74,18.065,17.805
	c13.6,9.958,28.769,15.433,43.87,15.829c15.032,0.396,29.702-4.242,42.409-13.395c14.436-10.379,21.513-19.452,26.751-26.172
	c6.548-8.419,7.729-9.932,24.858-9.479c0.931,0.023,1.898,0.054,2.82,0.1l11.74,0.599l3.204-11.332
	c5.444-19.07,7.557-19.814,17.793-23.413c7.901-2.8,18.722-6.633,33.21-17.037c23.896-17.255,28.994-40.335,29.064-56.655
	c0.056-16.812-5.535-34.416-15.312-48.737c13.416-4.65,26.222-13,35.773-23.456C717.477,609.727,723.056,585.018,715.043,560.074
	 M301.256,336.647c11.3-19.607,29.609-30.363,51.552-30.302c1.017,0.004,2.011,0.02,2.979,0.044
	c14.423,0.38,23.449,3.073,30.741,5.23c4.451,1.321,8.042,2.386,11.74,2.485c6.653,0.175,13.664-2.775,26.711-12.968l2.032-1.615
	l2.041,1.611c1.723,1.38,3.344,2.641,4.894,3.776c9.401,6.883,15.292,9.256,20.767,9.398c4.029,0.107,7.834-0.993,12.65-2.39
	c7.869-2.235,17.596-5.062,33.806-4.98c0.522,0.002,1.041,0.009,1.561,0.021c12.169,0.323,23.055,3.951,32.425,10.813
	c18.333,13.421,27.153,36.901,27.083,57.352l-66.421,90.651c-3.179-5.752-7.415-10.867-12.709-14.741
	c-7.021-5.146-15.391-7.917-24.295-8.151c-0.323-0.009-0.643-0.014-0.968-0.016c-8.388-0.028-14.25,1.396-18.103,2.441
	c-0.384-0.278-0.743-0.586-1.145-0.883l-12.231-9.734l-12.298,9.631c-0.439,0.341-0.846,0.63-1.167,0.911
	c-3.627-1.071-8.968-2.386-16.548-2.585c-0.5-0.014-1.008-0.022-1.528-0.024c-15.714-0.057-29.331,7.741-37.501,21.409
	l-66.108-91.734C291.543,360.311,294.912,347.597,301.256,336.647z M172.248,630.163c-23.65-17.315-32.714-42.959-24.257-68.659
	c5.064-15.367,10.797-23.721,15.438-30.434c7.344-10.718,10.729-15.617,1.883-39.791l-0.926-2.425l2.201-1.462
	c21.438-14.226,21.675-20.15,22.084-33.153c0.271-8.118,0.599-18.24,5.702-33.643c7.689-23.426,24.786-33.306,37.808-37.482
	c7.625-2.45,15.913-3.514,24.136-3.297c9.366,0.246,18.645,2.156,26.768,5.575l63.941,88.81c-3.119,0.344-6.181,0.953-9.14,1.903
	c-13.553,4.362-23.497,14.204-27.931,27.727c-2.641,7.944-3.1,13.972-3.268,17.934c-0.35,0.257-0.733,0.521-1.231,0.818
	l-13.025,8.659l5.373,14.66c0.207,0.521,0.345,0.974,0.47,1.404c-2.208,3.277-5.413,8.396-8.007,16.372
	c-5.194,15.746-1.311,31.802,10.068,43.719l-106.051,33.96C186.767,639.015,179.203,635.256,172.248,630.163z M418.005,815.223
	c-7.371,10.651-18.477,20.096-31.144,25.755c-8.989,4.003-18.071,5.875-26.921,5.642c-11.488-0.303-22.584-4.148-32.592-11.477
	c-13.061-9.562-19.222-17.588-24.184-24.059c-2.97-3.891-5.324-6.981-8.383-9.227c-4.279-3.131-10.338-4.681-19.954-4.932
	c-2.683-0.072-5.641-0.043-8.917,0.081l-2.583,0.077l-0.726-2.499c-3.977-14.479-7.862-22.042-13.343-26.057
	c-3.053-2.233-6.708-3.546-11.318-5.198c-7.666-2.777-17.206-6.248-30.266-15.812c-17.717-12.975-26.067-32.504-23.534-54.973
	c1.604-13.995,7.406-27.574,15.501-37.889l105.526-33.826c-0.107,0.73-0.247,1.464-0.361,2.203
	c-1.819,16.155,4.528,30.826,17.408,40.258c6.774,4.96,12.349,7.279,16.083,8.645c0.123,0.414,0.245,0.888,0.39,1.434l4.197,15.064
	l15.589-0.576c0.567-0.028,1.083-0.032,1.486-0.062c2.456,3.169,6.323,7.764,13.097,12.719c7.351,5.385,15.674,8.228,24.217,8.454
	c6.458,0.17,13.036-1.157,19.418-4.013c0.628-0.276,1.16-0.619,1.761-0.902L418.005,815.223z M425.477,687.98
	c0,0-12.858,6.112-13.495,6.462c-10.998,4.924-22.584,3.76-32.126-3.22c-5.441-3.98-8.51-7.532-10.797-10.479l-4.04-4.868
	l-13.484,0.717l-3.846-13.478c0,0-13.166-5.08-18.676-9.118c-9.594-7.021-14.129-17.562-12.826-29.218l2.226-15.127l-9.75-10.21
	c-8.536-8.93-11.255-20.654-7.445-32.197c2.044-6.287,4.489-10.357,6.607-13.511l3.011-4.472l-4.469-13.457l11.589-8.035
	c0,0,0.846-14.045,2.942-20.351c3.297-10.06,10.391-17.095,20.518-20.352c5.966-2.074,16.517-2.494,16.517-2.494l9.276-14.634
	c6.115-10.234,15.909-15.847,27.531-15.801l1.307,0.024c6.264,0.165,19.908,3.659,19.908,3.659l10.351-8.462l11.087,8.518
	l5.36-1.458c3.957-1.071,15.757-2.023,15.757-2.023c6.58,0.173,12.732,2.221,17.798,5.932c3.721,2.72,6.892,6.428,9.432,11.021
	l7.288,13.174l12.018,1.838c5.646,0.864,10.84,2.941,15.026,6.007c5.234,3.833,9.118,9.308,11.219,15.816
	c2.046,6.384,2.46,11.104,2.593,14.885l0.197,5.578l11.512,8.052l-4.521,13.483l2.926,4.424c2.091,3.157,4.502,7.248,6.56,13.584
	c3.626,11.337,1.095,22.548-6.99,31.418L533.12,609.82c0,0,2.147,17.868,2.15,19.221c-0.048,10.6-4.613,19.482-13.209,25.688
	c-5.52,3.98-9.997,5.854-13.278,7.042l-4.661,1.678l-4.754,13.688l-14.17-0.088l-3.271,4.045
	c-2.568,3.181-5.677,6.646-11.018,10.474c-9.767,7.067-22.021,7.984-33.066,2.528L425.477,687.98z M667.349,701.788
	c-0.061,13.626-4.296,32.922-24.293,47.365c-13.174,9.464-22.726,12.829-30.382,15.543c-12.274,4.314-17.877,6.311-24.951,31.083
	l-0.713,2.522l-2.566-0.133c-1.072-0.045-2.111-0.084-3.11-0.107c-22.934-0.606-26.607,4.097-34.249,13.92
	c-5.021,6.438-11.234,14.439-24.385,23.886c-10.863,7.832-23.019,11.563-35.385,11.238c-12.616-0.33-25.45-4.883-37.364-13.609
	c-7.138-5.226-13.131-11.45-17.666-18.063l0.452-111.017c6.06,3.003,12.415,4.594,18.732,4.761
	c9.146,0.242,18.213-2.503,26.191-8.287c6.821-4.881,10.735-9.48,13.219-12.554c0.294-0.011,0.598-0.018,0.933-0.01l0.54,0.026
	l15.582,0.682l4.318-15.035c0.163-0.542,0.268-1.009,0.439-1.397c3.736-1.353,9.313-3.631,16.106-8.531
	c11.532-8.324,17.928-20.751,17.983-34.981c0.003-2.086-0.174-4.195-0.431-6.253l106.619,35.122
	C661.85,670.233,667.4,686.381,667.349,701.788z M690.813,621.885c-9.701,10.621-22.74,18.295-35.611,21.761l-104.899-34.539
	c0.561-0.544,1.112-1.035,1.64-1.595c10.96-12.019,14.443-27.633,9.583-42.834c-2.596-7.997-5.75-13.146-7.92-16.423
	c0.122-0.427,0.296-0.885,0.488-1.408l5.464-14.634l-12.972-8.718c-0.409-0.3-0.834-0.566-1.196-0.834
	c-0.14-3.968-0.57-10-3.13-17.986c-2.846-8.817-8.153-16.304-15.386-21.6c-5.914-4.331-12.868-6.995-20.089-8.095l65.35-89.187
	c8.598-3.25,18.507-4.952,28.547-4.688c13.15,0.346,26.523,4.063,37.479,12.083c9.748,7.14,16.693,16.946,20.599,29.136
	c4.965,15.438,5.208,25.564,5.432,33.71c0.321,11.846,0.461,17.797,16.804,29.762c1.53,1.122,3.24,2.298,5.026,3.533l2.201,1.449
	l-0.924,2.425c-9.024,24.125-5.672,29.063,1.597,39.81c4.563,6.737,10.241,15.157,15.181,30.574
	C710.781,584.457,706.056,605.161,690.813,621.885z"/>
<path fill="#FFFFFF" d="M395.534,427.292c4.885,0.129,9.05,0.644,12.517,1.284l7.644-5.985l2.44-1.91l-0.285-97.07
	c-6.972,3.811-13.82,5.977-21.206,5.784c-5.725-0.151-10.571-1.589-15.701-3.112c-6.827-2.021-14.447-4.278-26.781-4.604
	c-0.856-0.021-1.734-0.034-2.634-0.039c-16.438-0.046-29.658,7.779-38.213,22.627c-4.088,7.055-6.739,15.25-7.659,23.515
	l51.72,71.769c10.124-8.003,22.639-12.338,36.283-12.288C394.319,427.265,394.932,427.277,395.534,427.292"/>
<path fill="#FFFFFF" d="M434.692,422.666l7.601,6.051c4.011-0.711,8.77-1.229,14.379-1.212c0.468,0.003,0.896,0.012,1.324,0.022
	c12.066,0.316,23.459,4.157,32.948,11.109c0.979,0.715,1.936,1.464,2.866,2.245l51.69-70.551
	c-1.073-13.233-6.881-30.162-20.622-40.227c-6.893-5.046-14.669-7.614-23.774-7.855c-0.4-0.01-0.804-0.016-1.207-0.018
	c-13.851-0.068-22.033,2.257-29.255,4.31l-0.31,0.089c-5.284,1.532-10.828,3.139-17.247,2.968c-6.49-0.17-12.823-2.101-20.074-6.229
	l0.287,98.189L434.692,422.666"/>
<path fill="#FFFFFF" d="M674.984,541.582c-7.787-11.518-11.743-20.218-8.519-36.224l-90.943,29.845l-6.23,11.459
	c1.876,3.532,3.858,7.912,5.59,13.256c4.478,13.996,3.762,28.197-1.764,40.935l81.001,26.669
	c9.052-3.228,17.684-8.917,24.157-16.007c11.552-12.674,15.007-27.639,9.987-43.271
	C683.969,554.839,679.196,547.796,674.984,541.582"/>
<path fill="#FFFFFF" d="M661.894,490.909c-12.574-11.712-13.891-21.311-14.245-34.445c-0.212-7.74-0.445-16.248-4.702-29.477
	c-2.898-9.05-7.963-16.264-15.065-21.462c-9.797-7.176-21.083-8.925-28.827-9.127c-6.4-0.168-12.767,0.637-18.652,2.345
	l-50.427,68.823c1.635,0.961,3.216,1.999,4.732,3.11c9.827,7.197,17.059,17.311,20.917,29.256c1.726,5.387,2.675,10.128,3.202,14.11
	l11.972,6.759L661.894,490.909"/>
<path fill="#FFFFFF" d="M559.123,643.551c-3.271,13.188-11.011,24.566-22.576,32.913c-4.604,3.323-8.81,5.689-12.417,7.419
	l-2.686,9.353l-0.811,2.821l57.277,78.35c6.942-14.928,15.311-19.582,28.457-24.2c7.121-2.523,15.158-5.37,26.528-13.532
	c11.804-8.526,17.84-20.306,17.904-34.984c0.035-10.299-3.234-21.531-8.881-30.864L559.123,643.551"/>
<polyline fill="#FFFFFF" points="574.562,782.678 574.565,782.676 574.56,782.678 574.562,782.678 "/>
<path fill="#FFFFFF" d="M326.896,692.515l-2.619-9.4c-3.586-1.747-7.763-4.138-12.339-7.489
	c-11.814-8.649-19.568-20.527-22.582-34.055l-81.475,26.117c-5.178,7.821-8.668,17.282-9.734,26.57
	c-1.917,17.002,4.086,31.139,17.364,40.864c11.331,8.295,19.353,11.202,26.43,13.766c5.307,1.906,10.318,3.704,15.152,7.24
	c5.797,4.247,9.846,10.18,12.941,16.842l56.917-80.26L326.896,692.515"/>
<path fill="#FFFFFF" d="M362.778,712.852c-4.554-3.332-8.091-6.595-10.847-9.494l-14.322,0.531l-55.498,78.258
	c8.574,1.021,15.095,3.358,20.5,7.313c4.839,3.543,8.063,7.771,11.479,12.245c4.593,5.992,9.783,12.759,21.091,21.042
	c7.417,5.429,15.472,8.298,23.94,8.518c6.628,0.177,13.454-1.279,20.282-4.318c8.38-3.745,16.232-9.783,22.075-16.902l0.344-85.952
	c-2.052,0.164-4.111,0.221-6.176,0.164C383.914,723.949,372.548,720.004,362.778,712.852"/>
<path fill="#FFFFFF" d="M506.042,704.315l-9.699-0.425c-2.847,2.939-6.409,6.16-10.985,9.432
	c-10.497,7.607-22.803,11.479-35.512,11.145c-1.033-0.028-2.06-0.084-3.084-0.166l-0.352,86.043
	c3.224,3.957,7.097,7.623,11.373,10.755c9.173,6.715,19.102,10.402,28.712,10.652c9.243,0.244,18-2.565,26.021-8.349
	c11.313-8.126,16.557-14.848,21.183-20.777c8.04-10.336,14.873-17.345,31.906-19.36l-57.656-78.865L506.042,704.315"/>
<path fill="#FCB525" d="M539.432,568.012c-2.216-6.705-4.795-10.398-6.666-13.076c-2.381-3.463-2.748-3.995-0.161-11.148
	l1.554-4.546l-3.98-2.603c-6.304-4.145-6.327-4.788-6.475-8.991c-0.114-3.273-0.273-7.76-2.476-14.476
	c-3.966-11.854-14.256-19.02-27.523-19.162l-0.66-0.002c-3.23,0.023-6.413,0.496-9.382,1.363c-0.244-5.354-1.813-10.901-4.581-15.66
	c-5.241-9.004-13.701-14.026-23.823-14.135l-0.542-0.002c-7.014,0.052-11.333,1.353-14.456,2.296
	c-1.466,0.431-2.623,0.768-3.458,0.777c-1.384-0.015-3.791-1.363-7.188-4.019l-3.855-2.97l-3.74,3.03
	c-3.453,2.759-5.797,4.1-7.219,4.111c-0.744-0.009-1.75-0.282-3.306-0.722c-2.99-0.86-7.083-2.037-13.513-2.105l-1.012-0.004
	c-10.375,0.072-18.958,5.215-24.159,14.46c-2.714,4.787-4.218,10.359-4.39,15.731c-2.785-0.772-5.755-1.198-8.758-1.231
	l-0.625-0.002c-13.401,0.09-24.096,7.58-27.918,19.558c-2.063,6.522-2.204,10.978-2.314,14.531
	c-0.061,4.081-0.074,4.818-6.216,8.979l-4.108,2.643l1.683,4.705c2.67,6.99,2.31,7.532-0.044,11.043
	c-1.825,2.712-4.325,6.429-6.449,13.145c-3.555,11.091,0.259,19.63,4.09,24.85c3.898,5.29,9.67,9.45,15.794,11.665
	c-2.947,4.488-4.938,9.903-5.49,15.362c-1.079,10.587,2.961,19.731,11.388,25.753c5.696,4.065,9.942,5.566,13.082,6.676
	c3.963,1.392,4.57,1.61,6.643,8.791l1.341,4.753l4.853-0.281c1.088-0.049,2.065-0.069,2.95-0.06
	c4.835,0.053,5.197,0.516,7.605,3.588c2.03,2.567,4.809,6.092,10.482,10.176c4.749,3.403,9.99,5.16,15.58,5.223h0.499
	c10.11-0.07,17.786-5.991,23.313-13.079c5.507,6.945,15.841,12.63,25.902,12.738h0.476c5.729-0.038,11.112-1.863,16.024-5.448
	c5.612-4.168,8.343-7.736,10.358-10.373c2.458-3.213,2.838-3.71,9.195-3.642l6.129,0.251l1.272-4.755
	c1.979-7.223,2.667-7.479,6.502-8.901c2.906-1.042,7.301-2.615,13.016-6.855c8.236-6.055,12.269-15.488,11.06-25.899
	c-0.639-5.458-2.701-10.843-5.701-15.281c6.097-2.287,11.787-6.519,15.603-11.875C540.98,585.485,542.328,576.635,539.432,568.012
	 M381.606,485.399c3.407-6.057,8.743-9.278,15.433-9.322l0.832,0.002c5.064,0.054,8.13,0.932,10.843,1.711
	c1.876,0.536,3.814,1.087,6.191,1.114h0.014c3.779-0.027,7.216-1.734,10.966-4.457c4.251,2.993,7.534,4.267,11.018,4.304h0.006
	c2.215-0.015,4.152-0.586,6.233-1.196c2.854-0.863,6.088-1.834,12.006-1.872c6.515,0.071,11.769,3.217,15.198,9.106
	c3.159,5.437,4.134,12.466,2.431,17.49l-2.852,8.403l-27.765,37.361c-4.522-2.565-9.715-4.07-15.232-4.131l-0.574-0.002
	c-6.062,0.043-11.703,1.815-16.512,4.801l-28.292-39.601l-2.167-6.195C377.625,497.887,378.517,490.854,381.606,485.399z
	 M426.722,597.446h-0.393c-11.761-0.126-21.395-9.813-21.479-21.592c-0.079-11.956,9.599-21.75,21.97-21.831
	c11.766,0.126,21.402,9.788,21.484,21.535C448.386,587.545,438.705,597.366,426.722,597.446z M325.901,588.388
	c-3.538-4.823-4.417-10.126-2.601-15.791c1.692-5.351,3.558-8.126,5.222-10.594c3.541-5.288,4.926-8.803,2.125-17.345
	c7.297-5.467,8.167-9.155,8.265-15.62c0.095-2.96,0.2-6.316,1.838-11.493c2.518-7.895,9.208-12.449,18.354-12.51h0.448
	c4.567,0.051,9.071,1.397,12.052,3.607l7.235,5.367l26.923,37.689c-6.789,5.885-11.082,14.563-11.017,24.227
	c0.021,2.712,0.42,5.33,1.087,7.85l-45.51,14.001l-7.419-0.081C336.979,597.631,329.826,593.715,325.901,588.388z M402.415,675.914
	l-0.316,0.002c-3.477-0.039-6.773-1.157-9.792-3.322c-4.515-3.25-6.602-5.896-8.47-8.264c-3.561-4.536-6.377-7.301-15.409-7.399
	h-0.45c-2.915-8.55-6.124-10.531-12.118-12.64c-2.812-0.997-5.999-2.123-10.533-5.359c-5.424-3.871-7.916-9.579-7.205-16.507
	c0.624-6.206,3.944-12.465,8.26-15.572l5.769-4.354l45.348-13.952c4.82,10.809,12.351,16.237,25.762,18.814l0.002,45.92
	l-2.349,7.803C418.837,667.98,411.563,675.855,402.415,675.914z M508.672,637.83c-4.533,3.358-7.798,4.533-10.535,5.516
	c-5.898,2.187-9.059,4.21-11.854,12.774c-9.037,0.157-11.95,2.628-15.772,7.631c-1.811,2.365-3.864,5.051-8.297,8.341
	c-3.134,2.289-6.534,3.46-10.402,3.485c-9.145-0.099-19.05-7.685-21.244-14.573l-2.262-7.098v-46.747
	c11.907-1.459,23.913-9.363,28.024-20.216l45.397,14.989l5.484,3.819c4.348,3.031,7.758,9.251,8.489,15.483
	C516.499,628.122,514.077,633.86,508.672,637.83z M527.416,587.018c-3.901,5.484-11.102,9.496-17.262,9.539l-8.88-0.097
	l-43.514-14.37c0.437-2.135,0.665-4.341,0.649-6.602c-0.066-9.916-4.791-18.799-12.065-24.604l28.804-38.759l5.489-4.214
	c3.062-2.346,7.724-3.767,12.48-3.795h0.478c8.896,0.097,15.47,4.563,18.038,12.231c1.746,5.331,1.864,8.693,1.97,11.656
	c0.223,6.33,1.155,9.985,8.495,15.333c-2.663,8.632-1.235,12.119,2.37,17.364c1.697,2.427,3.619,5.184,5.378,10.501
	C531.735,576.841,530.922,582.152,527.416,587.018z"/>
<polyline fill="#FFFFFF" points="89.16,142.782 79.148,146.722 75.748,166.621 59.87,154.305 49.573,158.357 74.503,176.56 
	80.715,192.348 89.526,188.88 83.248,172.918 89.16,142.782 "/>
<path fill="#FFFFFF" d="M145.776,146.84c-3.731-11.646-15.825-18.167-28.473-14.116c-12.643,4.05-18.778,16.54-15.046,28.186
	l0.037,0.12c3.734,11.649,15.826,18.167,28.471,14.118c12.647-4.052,18.781-16.539,15.051-28.192L145.776,146.84 M128.221,166.796
	c-7.262,2.325-14.29-1.876-16.54-8.904l-0.038-0.115c-2.25-7.028,0.946-14.378,8.208-16.703c7.259-2.327,14.285,1.879,16.537,8.905
	l0.037,0.116C138.678,157.122,135.48,164.467,128.221,166.796z"/>
<path fill="#FFFFFF" d="M188.391,128.429l-0.031-0.12c-2.209-8.574-9.439-12.235-19.264-9.707l-19.057,4.909l10.738,41.684
	l9.169-2.361l-3.435-13.339l7.205-1.856l12.37,11.04l10.718-2.762l-14.017-12.265C187.579,140.321,190.125,135.158,188.391,128.429
	 M173.716,139.004l-9.289,2.393l-3.086-11.969l9.114-2.351c4.464-1.147,7.726,0.173,8.738,4.1l0.03,0.118
	C180.129,134.812,178.18,137.852,173.716,139.004z"/>
<polyline fill="#FFFFFF" points="233.118,104.468 221.917,106.758 208.586,128.686 204.814,110.261 195.542,112.159 
	204.171,154.313 213.442,152.415 210.806,139.529 214.647,133.47 231.388,148.74 242.53,146.461 219.617,125.865 233.118,104.468 
	"/>
<path fill="#FFFFFF" d="M277.23,127.98c-1.179-7.402-6.526-9.727-15.501-10.601c-7.642-0.716-9.608-1.338-10.051-4.129l-0.021-0.12
	c-0.327-2.065,1.296-4.004,4.875-4.57c3.58-0.569,7.533,0.42,11.71,2.432l3.736-7.812c-4.857-2.775-10.448-3.879-16.635-2.893
	c-8.679,1.38-14.06,7.458-12.834,15.167l0.018,0.12c1.341,8.436,7.241,9.923,16.146,10.75c7.39,0.692,9.038,1.674,9.417,4.04
	l0.017,0.125c0.396,2.485-1.667,4.373-5.494,4.976c-4.853,0.773-9.178-0.59-13.503-3.143l-4.472,7.496
	c5.821,3.743,12.671,4.955,19.105,3.932c9.164-1.455,14.844-7.212,13.503-15.648L277.23,127.98"/>
<polyline fill="#FFFFFF" points="312.707,119.245 314.663,136.414 324.07,135.338 319.195,92.581 309.788,93.652 311.717,110.573 
	294.365,112.548 292.437,95.627 283.028,96.702 287.906,139.463 297.314,138.392 295.356,121.225 312.707,119.245 "/>
<polyline fill="#FFFFFF" points="344.713,133.71 341.245,90.805 331.805,91.569 335.276,134.473 344.713,133.71 "/>
<path fill="#FFFFFF" d="M364.668,118.584l7.421-0.364l9.879,13.29l11.047-0.54l-11.247-14.824c5.36-2.294,8.889-6.836,8.549-13.772
	l-0.008-0.12c-0.434-8.834-6.771-13.876-16.894-13.379l-19.633,0.964l2.109,42.954l9.448-0.464L364.668,118.584 M363.651,97.903
	l9.386-0.458c4.603-0.228,7.528,1.718,7.729,5.771l0.004,0.125c0.178,3.617-2.339,6.202-6.943,6.424l-9.57,0.471L363.651,97.903z"/>
<polyline fill="#FFFFFF" points="433.458,122.079 410.12,122.308 410.032,113.277 430.3,113.08 430.218,104.665 409.946,104.866 
	409.86,96.143 432.895,95.915 432.812,87.5 400.38,87.822 400.801,130.814 433.541,130.494 433.458,122.079 "/>
<path fill="#FFFFFF" d="M470.586,109.844c0.361-7.362,5.874-13.119,13.114-12.763c4.296,0.21,7.58,2.216,10.748,5.391l6.353-6.643
	c-3.793-4.12-8.509-7.061-16.607-7.458c-13.195-0.647-22.891,8.903-23.493,21.113l-0.002,0.123
	c-0.606,12.331,8.302,22.552,20.942,23.167c8.285,0.409,13.339-2.293,17.985-6.802l-5.714-6.372
	c-3.523,2.904-6.628,4.72-11.538,4.48c-7.363-0.364-12.156-6.747-11.794-14.111L470.586,109.844"/>
<path fill="#FFFFFF" d="M525.913,91.688l-22.423,41.435l9.611,0.904l4.823-9.244l18.121,1.708l3.014,9.98l9.856,0.924
	l-14.309-44.889L525.913,91.688 M522.072,116.775l7.003-13.363l4.386,14.435L522.072,116.775z"/>
<path fill="#FFFFFF" d="M581.325,98.443l-19.484-2.744l-6.002,42.623l9.376,1.322l1.921-13.643l7.369,1.039l7.211,14.925
	l10.959,1.543l-8.267-16.688c5.701-1.244,10.022-5.045,10.992-11.927l0.017-0.118C596.651,106.003,591.37,99.86,581.325,98.443
	 M585.852,113.92l-0.017,0.126c-0.507,3.59-3.469,5.657-8.034,5.014l-9.5-1.338l1.724-12.239l9.315,1.312
	C583.904,107.438,586.417,109.903,585.852,113.92z"/>
<polyline fill="#FFFFFF" points="631.621,133.89 616.762,104.123 608.192,102.496 600.175,144.74 609.349,146.484 614.445,119.627 
	629.807,150.365 637.712,151.867 645.733,109.621 636.559,107.879 631.621,133.89 "/>
<polyline fill="#FFFFFF" points="648.172,154.219 680.018,161.928 682.001,153.743 659.297,148.243 661.423,139.463 681.14,144.235 
	683.125,136.052 663.404,131.275 665.462,122.792 687.867,128.218 689.851,120.031 658.303,112.391 648.172,154.219 "/>
<path fill="#FFFFFF" d="M712.722,154.056l9.123,2.717l-1.754,5.891c-2.786,0.963-5.976,0.909-9.272-0.073
	c-7.301-2.177-10.833-9.256-8.587-16.793l0.034-0.113c2.088-7.012,9.067-11.276,15.66-9.313c4.768,1.424,7.139,3.795,9.531,7.395
	l7.763-5.187c-3.211-4.935-7.092-8.269-14.507-10.477c-12.483-3.722-24.471,3.154-27.965,14.871l-0.034,0.117
	c-3.631,12.188,2.517,23.831,15.353,27.657c7.536,2.245,14.241,1.04,19.553-1.286l5.333-17.901l-17.898-5.336L712.722,154.056"/>
<polyline fill="#FFFFFF" points="749.316,138.006 735.204,178.661 744.146,181.765 758.259,141.109 749.316,138.006 "/>
<polyline fill="#FFFFFF" points="797.683,165.236 800.782,157.409 770.615,145.455 754.765,185.454 785.22,197.521 788.324,189.695 
	766.61,181.09 769.937,172.688 788.795,180.16 791.895,172.33 773.042,164.863 776.256,156.748 797.683,165.236 "/>
<path fill="#FFFFFF" d="M350.209,198.332l-0.017-0.122c-1.236-8.771-8.01-13.216-18.056-11.803l-19.485,2.745l6.003,42.624
	l9.378-1.321l-1.92-13.637l7.368-1.039l11.053,12.352l10.959-1.543l-12.558-13.758C348.075,210.061,351.178,205.212,350.209,198.332
	 M334.444,207.197l-9.498,1.336l-1.723-12.239l9.316-1.312c4.565-0.641,7.659,1.033,8.224,5.05l0.017,0.125
	C341.285,203.75,339.012,206.554,334.444,207.197z"/>
<path fill="#FFFFFF" d="M396.62,180.475l-9.438,0.648l1.692,24.581c0.469,6.8-2.786,10.534-8.545,10.933
	c-5.761,0.397-9.504-2.98-9.984-9.967l-1.671-24.27l-9.44,0.648l1.69,24.518c0.867,12.625,8.358,18.576,19.882,17.784
	c11.523-0.796,18.375-7.672,17.482-20.666L396.62,180.475"/>
<path fill="#FFFFFF" d="M429.781,206.486l9.52,0.108l-0.064,6.139c-2.416,1.697-5.496,2.52-8.935,2.486
	c-7.619-0.088-12.958-5.917-12.874-13.779v-0.124c0.082-7.312,5.613-13.333,12.492-13.257c4.978,0.052,7.908,1.681,11.194,4.484
	l6.038-7.125c-4.443-3.855-9.088-5.991-16.829-6.077c-13.021-0.144-22.653,9.765-22.785,21.986v0.125
	c-0.14,12.715,8.971,22.215,22.363,22.362c7.862,0.085,13.974-2.92,18.438-6.621l0.202-18.674l-18.671-0.202L429.781,206.486"/>
<path fill="#FFFFFF" d="M487.663,203.126c3.185-1.502,5.949-4.013,6.293-8.853l0.008-0.125c0.481-6.742-4.604-11.477-13.366-12.098
	l-19.919-1.414l-3.049,42.901l20.41,1.453c9.683,0.685,16.336-2.784,16.894-10.629l0.009-0.124
	C495.349,208.475,492.489,205.375,487.663,203.126 M469.284,189.561l9.315,0.661c3.982,0.283,6.073,2.037,5.877,4.853l-0.012,0.122
	c-0.223,3.188-2.954,4.348-7.123,4.052l-8.702-0.616L469.284,189.561z M485.639,212.53c-0.229,3.185-2.846,4.476-7.012,4.18
	l-11.218-0.792l0.671-9.441l10.911,0.777c4.842,0.343,6.856,2.272,6.655,5.151L485.639,212.53z"/>
<polyline fill="#FFFFFF" points="522.357,203.922 514.597,185.382 503.64,183.838 516.38,211.96 514.014,228.764 523.395,230.085 
	525.787,213.097 545.773,189.771 535.12,188.27 522.357,203.922 "/>
</svg>
