<svg id="Layer_1" data-name="Layer 1" xmlns="http://www.w3.org/2000/svg" viewBox="0 0 142.56 142.64"><defs><style>.cls-1{fill:#fff;}</style></defs><title>football-icon</title><path id="path3260" class="cls-1" d="M68,146.24l-3.63-.42a71.59,71.59,0,0,1-62-61.93A110.68,110.68,0,0,1,2.39,66a71.74,71.74,0,0,1,62-62,85.91,85.91,0,0,1,8.93-.37A85.92,85.92,0,0,1,82.24,4a71.74,71.74,0,0,1,62,62,110.68,110.68,0,0,1,0,17.86,71.69,71.69,0,0,1-61,61.84A126.16,126.16,0,0,1,68,146.24Zm5.3-17.7H86.83l2.93,2.92,2.93,2.92,2.79-1.06a62.88,62.88,0,0,0,38-41.61,61.56,61.56,0,0,0,1.94-23.16c-0.26-2.22-.5-4.08-0.55-4.12s-2.64-.65-5.77-1.34-5.92-1.33-6.19-1.42-2.1-3.35-5-9.09l-4.47-8.94,2.1-6.3c1.7-5.09,2-6.38,1.76-6.71s-1.72-1.6-3.41-3.05A63.36,63.36,0,0,0,82.38,13.11a79,79,0,0,0-18.14,0A63.26,63.26,0,0,0,32.7,27.6c-1.69,1.45-3.23,2.83-3.41,3.05s0.06,1.62,1.76,6.71l2.1,6.3-4.47,8.94c-2.87,5.73-4.65,9-5,9.09s-3.06.72-6.19,1.42-5.73,1.3-5.77,1.34-0.29,1.9-.55,4.12A62.14,62.14,0,0,0,13,91.32a63,63,0,0,0,38.1,42l2.79,1.06,2.93-2.92,2.93-2.92H73.31ZM35.53,108.6c-6-3.59-11-6.63-11.09-6.77s4-22,4.31-22.31c0.09-.09,5.1-1.16,11.12-2.36,8.69-1.74,11-2.12,11.27-1.84s3.24,5.23,6.81,11.2l6.49,10.85-8.89,8.9c-4.89,4.89-9,8.89-9,8.89S41.5,112.19,35.53,108.6Zm55.53-2.35-8.89-8.9,6.49-10.85c3.57-6,6.64-11,6.81-11.2s2.58,0.1,11.27,1.84c6,1.21,11,2.27,11.12,2.36s1.16,5.1,2.36,11.12c1.74,8.69,2.12,11,1.84,11.27s-21.84,13.23-22,13.23S96,111.15,91.06,106.25ZM59.62,56.48c-0.16-.35-2.15-5.34-4.44-11.1C52,37.48,51.11,34.85,51.35,34.61s5.19-3.21,11.13-6.76L73.3,21.41l10.82,6.44c5.95,3.54,11,6.58,11.14,6.76s-0.73,3-4.09,11.34L86.76,57,73.33,57l-13.43.07-0.28-.63h0Z" transform="translate(-2.03 -3.68)"/></svg>