<svg id="Layer_1" data-name="Layer 1" xmlns="http://www.w3.org/2000/svg" viewBox="0 0 114.99 113.47"><defs><style>.cls-1{fill:#fff;}</style></defs><title>rugby-icon</title><path id="path3310-2" class="cls-1" d="M95.64,132c-21.31-1-40.38-13.32-54.71-28.41A77.55,77.55,0,0,1,19.38,63.4c-0.59-2.07-3.13-12.34,0-5.91C23,65.93,26.23,74.71,32.56,81.56a169.07,169.07,0,0,0,35.27,30c11.09,7,22.37,15.2,35.79,16.73,2.23,0.28,13.11,1.27,6.39,2.82a81.44,81.44,0,0,1-14.36.89h0ZM101,118.34C80.27,117,61,106.68,45.55,93.16,33.62,82.43,22.92,69,19.61,52.93c-2.12-10.21,1.22-21.54,9.61-28,9.38-7.81,22.92-6.28,33.4-1.68C82.11,31.83,97.51,48.05,108,66.34c8.38,15.11,13.39,33.51,8.31,50.51-4.92,1.49-10.17,1.51-15.27,1.49h0Zm29.72-5.69c-1.82-7.58-1.95-15.72-5.75-22.75-6.76-13.59-15.49-26.15-24.93-38C90.14,40.43,79.37,28.56,64.71,23.31c-2.24-1.36-9.15-3.09-8.78-4.7,14.23,2.34,28.46,6.85,39.92,15.89,16.15,12.77,30.06,29.75,35.23,50a62.59,62.59,0,0,1,.28,28.16l-0.29.15-0.32-.17h0Z" transform="translate(-17.85 -18.61)"/></svg>