<svg id="Layer_1" data-name="Layer 1" xmlns="http://www.w3.org/2000/svg" viewBox="0 0 161.89 155.07"><defs><style>.cls-1{fill:#fff;}</style></defs><title>snooker-icon</title><g id="g4795"><g id="g4805"><path id="path3940" class="cls-1" d="M84.92,24.3L17.71,145.85c-7.68,12.72-2,26.93,16.84,26.8l125.65-.13c14.25,0.13,20.19-14,13.07-25.76L109.05,24.3c-6.92-10.46-19.33-7.31-24.14,0h0Zm17,8.83h0l63.64,117.15c4.21,6.53,1.9,14.21-7.25,14l-122.61.52c-9.67,0-14.6-7.16-10.91-14.48L91.28,33.13h0c1.92-4.36,7.92-4.71,10.62,0h0Z" transform="translate(-14.4 -17.58)"/><g id="g4787"><path id="path3942" class="cls-1" d="M113,69.71A17.71,17.71,0,1,1,95.31,52,17.72,17.72,0,0,1,113,69.71Z" transform="translate(-14.4 -17.58)"/><path id="path3944" class="cls-1" d="M91.83,106.89A17.72,17.72,0,1,1,74.11,89.19,17.72,17.72,0,0,1,91.83,106.89Z" transform="translate(-14.4 -17.58)"/><path id="path3946" class="cls-1" d="M131.24,106.89a17.71,17.71,0,1,1-17.72-17.71A17.72,17.72,0,0,1,131.24,106.89Z" transform="translate(-14.4 -17.58)"/><path id="path3948" class="cls-1" d="M71.68,141.44A17.71,17.71,0,1,1,54,123.72,17.71,17.71,0,0,1,71.68,141.44Z" transform="translate(-14.4 -17.58)"/><path id="path3950" class="cls-1" d="M112.9,141.44a17.72,17.72,0,1,1-17.72-17.72A17.72,17.72,0,0,1,112.9,141.44Z" transform="translate(-14.4 -17.58)"/><path id="path3952" class="cls-1" d="M153,141.44a17.71,17.71,0,1,1-17.71-17.72A17.71,17.71,0,0,1,153,141.44Z" transform="translate(-14.4 -17.58)"/></g></g></g></svg>